<?xml version="1.0" encoding="utf-8"?>
<!-- Generator: Adobe Illustrator 18.0.0, SVG Export Plug-In . SVG Version: 6.00 Build 0)  -->
<!DOCTYPE svg PUBLIC "-//W3C//DTD SVG 1.1//EN" "http://www.w3.org/Graphics/SVG/1.1/DTD/svg11.dtd">
<svg version="1.1" id="Layer_41" xmlns="http://www.w3.org/2000/svg" xmlns:xlink="http://www.w3.org/1999/xlink" x="0px" y="0px"
	 viewBox="264.1 3602.8 1137.8 1539.2" enable-background="new 264.1 3602.8 1137.8 1539.2" xml:space="preserve">
<g>
	<path fill="#0B2F6B" d="M1394.9,4173.5c0-34.7-31.6-55.6-59.5-73.9c-8.8-5.8-22.7-14.9-28.2-20.7c2.9-7.8,13-22.6,18.7-31.1
		c18.4-27.2,39.4-58,26.3-89.4c-13.2-31.8-50.1-38.9-82.8-45.1c-10.5-2-27.1-5.2-34.5-8.5c-0.3-8.2,3.3-25.6,5.3-35.5
		c6.7-32.4,14.2-69-10-93.2c-11-11-26.4-16.6-45.7-16.6c-15.3,0-31.7,3.4-47.5,6.6c-12.6,2.6-25.7,5.3-34.4,5.3c-0.4,0-0.8,0-1.1,0
		c-3.3-7.4-6.4-24-8.4-34.4c-6.2-32.6-13.3-69.6-45.1-82.8c-6.4-2.6-13.2-4-20.4-4c-24.3,0-47.1,15.4-69,30.3
		c-8.5,5.7-23.3,15.8-31.1,18.7c-5.7-5.5-14.9-19.4-20.7-28.2c-18.4-27.9-39.2-59.5-73.9-59.5s-55.6,31.6-73.9,59.5
		c-5.8,8.8-14.9,22.7-20.7,28.2c-7.8-2.9-22.6-13-31.1-18.7c-22-14.9-44.7-30.3-69-30.3c-7.2,0-14,1.3-20.4,4
		c-31.8,13.2-38.9,50.1-45.1,82.8c-2,10.4-5.2,27-8.4,34.4c-0.3,0-0.7,0-1.1,0c-8.7,0-21.8-2.7-34.4-5.3
		c-15.8-3.3-32.2-6.6-47.5-6.6c-19.3,0-34.7,5.6-45.7,16.6c-24.2,24.2-16.7,60.9-10,93.2c2,9.9,5.6,27.3,5.3,35.5
		c-7.3,3.3-24,6.5-34.5,8.5c-32.6,6.2-69.6,13.3-82.8,45.1c-13,31.4,7.9,62.2,26.3,89.4c5.7,8.5,15.8,23.3,18.7,31.1
		c-5.5,5.7-19.4,14.9-28.2,20.7c-27.9,18.4-59.5,39.2-59.5,73.9c0,34.7,31.6,55.6,59.5,73.9c8.8,5.8,22.7,14.9,28.2,20.7
		c-2.9,7.8-13,22.6-18.7,31.1c-18.5,27.2-39.4,58-26.3,89.4c13.2,31.8,50.1,38.9,82.8,45.1c10.5,2,27.1,5.2,34.5,8.5
		c0.3,8.2-3.3,25.6-5.3,35.5c-6.7,32.4-14.2,69,10,93.2c11,11,26.4,16.6,45.7,16.6c15.3,0,31.7-3.4,47.5-6.6
		c12.6-2.6,25.7-5.3,34.4-5.3c0.3,0,0.6,0,0.9,0c0.4,0.9,0.9,2.2,1.4,3.8l-145.2,415.9c-3.6,10.4-1.8,21.9,4.9,30.6
		c6.7,8.7,17.3,13.5,28.2,12.7l141.5-10l104.6,95.9c8.1,7.4,19.4,10.3,30,7.6c10.7-2.7,19.2-10.5,22.9-20.9l80.5-230.6l80.5,230.6
		c3.6,10.4,12.2,18.2,22.9,20.9c2.6,0.7,5.3,1,8,1c8.1,0,16-3,22.1-8.6l104.6-95.9l141.5,10c0.9,0.1,1.7,0.1,2.6,0.1
		c17.9-0.2,32.3-14.7,32.3-32.6c0-4.2-0.8-8.3-2.3-12l-144.7-414.7c0.5-1.6,1-2.8,1.4-3.7c0.3,0,0.6,0,0.9,0
		c8.7,0,21.8,2.7,34.4,5.3c15.8,3.3,32.2,6.6,47.5,6.6c0,0,0,0,0,0c19.3,0,34.7-5.6,45.7-16.6c24.2-24.2,16.7-60.9,10-93.2
		c-2-9.9-5.6-27.3-5.3-35.5c7.3-3.3,24-6.5,34.5-8.5c32.6-6.2,69.6-13.3,82.8-45.1c13-31.4-7.9-62.2-26.3-89.4
		c-5.7-8.5-15.8-23.3-18.7-31.1c5.5-5.7,19.4-14.9,28.2-20.7C1363.3,4229.1,1394.9,4208.3,1394.9,4173.5z M1299.5,4192.9
		c-25.4,16.7-51.7,34-57.3,62.1c-5.7,28.7,12.3,55.2,29.6,80.8c5.1,7.5,12.7,18.7,16.6,26.5c-8.6,2.9-22.7,5.6-31.2,7.2
		c-30.1,5.7-61.2,11.7-77.3,35.7c-16.2,24.2-9.8,55.4-3.6,85.5c1.7,8.4,4.6,22.3,5.2,31.3c-8.5-0.5-20.1-2.9-31.3-5.2
		c-15.8-3.3-32.2-6.6-47.6-6.6c-15.3,0-27.7,3.3-38,10.2c-18.2,12.2-25.5,33.1-30.2,52c-1.5,6.2-1.2,12.6,0.9,18.6l132.2,378.8
		l-106.1-7.5c-8.9-0.6-17.8,2.4-24.4,8.5l-78.4,71.9l-91.9-263.4c-0.1-1.1-0.4-2.3-0.8-3.4L815.8,4632c-3-8.5-12.3-13-20.8-10
		c-8.5,3-13,12.3-10,20.8l30.7,88.1l-15.8,45.2c-0.4,1.1-0.6,2.1-0.8,3.2l-92,263.5l-78.4-71.9c-6.6-6.1-15.4-9.1-24.4-8.5
		l-106.1,7.5l132.2-378.8c2.1-6,2.4-12.5,0.9-18.6c-4.7-18.9-11.9-39.8-30.2-52c-10.3-6.9-22.7-10.2-38-10.2
		c-15.3,0-31.7,3.4-47.6,6.6c-11.2,2.3-22.8,4.7-31.3,5.2c0.6-9,3.5-22.9,5.2-31.3c6.2-30.2,12.6-61.3-3.6-85.5
		c-16.1-24-47.2-30-77.3-35.7c-8.5-1.6-22.6-4.3-31.2-7.2c3.9-7.8,11.5-19,16.6-26.5c17.4-25.6,35.3-52.1,29.6-80.8
		c-5.6-28.1-31.8-45.4-57.3-62.1c-7.6-5-20.2-13.3-26.9-19.4c6.8-6.1,19.4-14.4,26.9-19.4c25.4-16.7,51.7-34,57.3-62.1
		c5.7-28.7-12.3-55.2-29.6-80.8c-5.1-7.5-12.7-18.7-16.6-26.5c8.6-2.9,22.7-5.6,31.2-7.2c30.1-5.7,61.2-11.7,77.3-35.7
		c16.2-24.2,9.8-55.4,3.6-85.5c-1.7-8.4-4.6-22.3-5.2-31.3c8.5,0.5,20.1,2.9,31.3,5.2c15.8,3.3,32.2,6.6,47.6,6.6
		c15.3,0,27.7-3.3,38-10.2c24-16.1,30-47.2,35.7-77.3c1.6-8.5,4.3-22.6,7.2-31.2c7.8,3.9,19,11.5,26.5,16.6
		c22.2,15.1,45.2,30.7,70,30.7c3.7,0,7.3-0.4,10.8-1c28.1-5.6,45.4-31.8,62.1-57.3c5-7.6,13.3-20.2,19.4-26.9
		c6.1,6.8,14.4,19.4,19.4,26.9c16.7,25.4,34,51.7,62.1,57.3c3.5,0.7,7.1,1,10.8,1c24.8,0,47.8-15.6,70-30.7
		c7.5-5.1,18.7-12.7,26.5-16.6c2.9,8.6,5.6,22.7,7.2,31.2c5.7,30.1,11.7,61.2,35.7,77.3c10.3,6.9,22.7,10.2,38,10.2
		c15.3,0,31.7-3.4,47.6-6.6c11.2-2.3,22.8-4.7,31.3-5.2c-0.6,9-3.5,22.9-5.2,31.3c-6.2,30.2-12.6,61.3,3.6,85.5
		c16.1,24,47.2,30,77.3,35.7c8.5,1.6,22.6,4.3,31.2,7.2c-3.9,7.8-11.5,19-16.6,26.5c-17.4,25.6-35.3,52.1-29.6,80.8
		c5.6,28.1,31.8,45.4,57.3,62.1c7.6,5,20.2,13.3,26.9,19.4C1319.7,4179.6,1307,4187.9,1299.5,4192.9z"/>
	<path fill="#0B2F6B" d="M833,3869.4c-168,0-304.1,136.2-304.1,304.1c0,168,136.2,304.1,304.1,304.1c168,0,304.1-136.2,304.1-304.1
		C1137.1,4005.6,1001,3869.4,833,3869.4z M806.3,4311.2c-2.8,2.6-6.4,3.9-10.7,3.9H665.1c-5.1,0-8.9-1.1-11.3-3.2s-3.6-4.7-3.6-7.7
		c0-4.8,2.5-10.8,7.5-17.8l90.5-126.1c15.9-22.3,23.9-40.6,23.9-54.9c0-32.4-14.9-48.6-44.6-48.6c-16.7,0-29.7,5.5-38.8,16.6
		s-13.8,27.2-13.8,48.4c0,9.4-4.5,14.2-13.6,14.2c-9.7,0-14.5-6.2-14.5-18.7c0-16.1,3.4-30.7,10.2-43.8s16.5-23.5,29-31.1
		s26.7-11.4,42.7-11.4c22.3,0,40.2,6.4,53.8,19.2s20.3,30.4,20.3,52.9c0,9.7-2,19.6-6.1,29.7c-4.1,10.1-10.9,21.8-20.5,34.9
		l-87.8,121.1h107.3c4.3,0,7.9,1.3,10.7,3.9c2.8,2.6,4.2,5.7,4.2,9.3C810.5,4305.6,809.1,4308.6,806.3,4311.2z M1005.9,4270
		c-7.3,15.2-17.6,26.9-30.9,35.1c-13.3,8.2-28.1,12.3-44.6,12.3c-10.7,0-20.7-1.5-29.8-4.6s-17.4-7.1-24.7-12.1
		c-7.3-5-12.9-9.9-16.8-14.7c-4-4.8-5.9-8.7-5.9-11.7c0-2.9,1.2-6,3.7-9.3c2.5-3.3,5.8-4.9,10-4.9c2.4,0,5.3,1.5,8.6,4.6
		c3.3,3.1,7.5,6.8,12.4,11.1c5,4.3,10.9,8,17.7,10.9c6.8,2.9,14.9,4.4,24.4,4.4c17.3,0,31-6.6,41.2-19.8
		c10.1-13.2,15.2-29.8,15.2-49.8c0-12.2-2.2-23-6.7-32.1c-4.4-9.2-10.8-16.3-19.2-21.4c-8.3-5.1-18.1-7.7-29.3-7.7
		c-5.5,0-9.7,0.5-12.7,1.6s-7.6,3-13.8,5.8c-6.2,2.8-11,4.2-14.2,4.2c-2.5,0-4.9-1-7.1-3.1c-2.2-2-3.3-4.5-3.3-7.5
		c0-2,0.6-7.7,1.9-16.8l14.5-93.2c1-6.2,2.7-10.8,5.1-13.8c2.4-2.9,6.3-4.4,11.8-4.4H997c4.3,0,7.9,1.2,10.7,3.7
		c2.8,2.5,4.2,5.5,4.2,9.2c0,3.5-1.4,6.7-4.2,9.3c-2.8,2.6-6.4,4-10.7,4h-74l-12.6,81.7c8.8-4.7,19-7.1,30.6-7.1
		c13.4,0,26,3.7,37.8,11c11.8,7.3,21.1,17.4,27.9,30.1c6.8,12.8,10.2,27,10.2,42.7C1016.9,4237.5,1013.3,4254.8,1005.9,4270z"/>
</g>
</svg>
