<?xml version="1.0" encoding="utf-8"?>
<!-- Generator: Adobe Illustrator 17.1.0, SVG Export Plug-In . SVG Version: 6.00 Build 0)  -->
<!DOCTYPE svg PUBLIC "-//W3C//DTD SVG 1.1//EN" "http://www.w3.org/Graphics/SVG/1.1/DTD/svg11.dtd">
<svg version="1.1" id="Layer_2" xmlns="http://www.w3.org/2000/svg" xmlns:xlink="http://www.w3.org/1999/xlink" x="0px" y="0px"
	 viewBox="0 0 595.3 841.9" enable-background="new 0 0 595.3 841.9" xml:space="preserve">
<g>
	<path fill="#0B2F6B" d="M558.9,570.5h-18.7V341.7c-0.1-9.8-5.1-16.8-12.9-19v-61c0-11.8-4.5-22.1-12.8-28.9
		c-7.1-5.7-16.2-8.7-26.6-8.7H107.4c-10.4,0-19.5,3-26.4,8.8c-8.3,6.9-12.8,17.1-12.8,28.9v259.8c0,11.4,4.2,21.6,11.9,28.7
		c7.1,6.6,16.5,10.1,27.3,10.1h248.2v10.2H36.3c-9.1,0-16.5,7.4-16.5,16.5c0,9.1,7.4,16.5,16.5,16.5h320.5c2.4,8,8.5,12.9,16.5,12.9
		h148.4c8.1,0,14.5-5.2,17.2-12.9h20c9.1,0,16.5-7.4,16.5-16.5C575.5,577.9,568,570.5,558.9,570.5z M355.6,341.9v62.9h-9.3
		c-1.8,0-3.6,0.4-5.2,0.9c-0.5,0.1-0.9,0.4-1.3,0.6c-0.9,0.4-1.7,0.9-2.5,1.6c-0.2,0.1-0.4,0.3-0.6,0.4c-0.4,0.3-0.7,0.6-1.1,1
		c-0.4,0.4-0.7,0.7-1,1.1c-0.5,0.6-0.9,1.1-1.3,1.8c-1.4,2.3-2.2,5-2.2,7.9v74.9c0,2.6,0.6,5.1,1.8,7.3c0.2,0.4,0.5,0.8,0.8,1.3
		c0.1,0.2,0.3,0.4,0.4,0.6c0.3,0.4,0.6,0.8,0.9,1.1c0.4,0.4,0.7,0.7,1.1,1.1c0.6,0.5,1.1,0.9,1.7,1.3c0.4,0.3,0.8,0.6,1.3,0.8
		s0.8,0.4,1.3,0.6c0.5,0.2,0.9,0.4,1.4,0.5c1.4,0.4,3,0.7,4.5,0.7h9.3v27.9l0,0H107.4c-2.2,0-4.2-0.3-6.1-0.8
		c-0.3-0.1-0.5-0.1-0.8-0.2c-1.8-0.6-3.4-1.5-4.8-2.6c-0.4-0.4-0.8-0.7-1.1-1.1c-0.4-0.4-0.7-0.8-1-1.2c-0.1-0.2-0.3-0.4-0.4-0.6
		c-0.3-0.4-0.6-0.9-0.8-1.3c-0.3-0.4-0.5-1-0.7-1.5c-0.8-2.1-1.3-4.5-1.3-7.2V261.7c0-10.9,7.1-15.4,17-15.4h380.5
		c9.9,0,17,4.5,17,15.4v60.2H373.3C362.5,321.9,355.6,329.8,355.6,341.9z M526.2,595.4c0,1.2-0.2,7.1-4.5,7.1H373.3
		c-1.3,0-1.8-0.4-2.3-1.1c-0.8-1.3-1.3-3.5-1.3-6V341.9c0-5.9,2.1-5.9,3.7-5.9h148.3c1.4,0,4.5,0,4.5,5.9V595.4L526.2,595.4z"/>
	<path fill="#0B2F6B" d="M206.1,410.9c-1.2-1.6-2.6-2.9-4.3-4c-1.5-0.9-3.1-1.6-4.8-1.9c-0.3-0.1-0.5-0.1-0.8-0.1
		c-0.4-0.1-0.8-0.1-1.1-0.1c-0.4,0-0.8-0.1-1.2-0.1l0,0h-11.7c-0.5,0-1.1,0-1.6,0.1c-0.5,0.1-1,0.1-1.5,0.2
		c-2.5,0.5-4.7,1.6-6.6,3.2c-0.4,0.3-0.7,0.6-1.1,1c-0.4,0.4-0.7,0.7-1,1.1c-0.5,0.6-0.9,1.1-1.3,1.8c-1.4,2.3-2.2,5-2.2,7.9v74.9
		c0,8.4,6.9,15.3,15.3,15.3h11.7l0,0c0.4,0,0.8,0,1.2-0.1s0.8-0.1,1.1-0.1c0.3-0.1,0.5-0.1,0.8-0.1c1.8-0.4,3.4-1,4.8-1.9
		c1.7-1,3.2-2.3,4.3-4c0.3-0.4,0.6-0.8,0.8-1.2c1.4-2.3,2.2-5,2.2-8V420c0-2.9-0.8-5.6-2.2-7.9C206.6,411.6,206.4,411.2,206.1,410.9
		z"/>
	<path fill="#0B2F6B" d="M248.6,301.1h-11.7c-8.4,0-15.3,6.9-15.3,15.3v178.5c0,8.4,6.9,15.3,15.3,15.3h11.7
		c8.5,0,15.3-6.9,15.3-15.3V316.4C263.8,308,257,301.1,248.6,301.1z"/>
	<path fill="#0B2F6B" d="M318.3,365.1c-0.4-1.8-1-3.4-1.9-4.8c-0.1-0.2-0.3-0.4-0.4-0.6c-0.3-0.4-0.6-0.8-0.8-1.2
		c-0.8-0.9-1.7-1.8-2.6-2.5c-0.4-0.3-0.8-0.6-1.2-0.8c-0.4-0.3-0.8-0.5-1.3-0.7c-0.4-0.2-0.9-0.4-1.3-0.6c-1.6-0.6-3.4-0.9-5.2-0.9
		h-11.7c-1.8,0-3.6,0.4-5.2,0.9c-0.5,0.1-0.9,0.4-1.3,0.6c-0.4,0.2-0.8,0.4-1.3,0.7c-0.4,0.3-0.8,0.6-1.2,0.8
		c-1,0.7-1.8,1.6-2.6,2.5c-0.3,0.4-0.6,0.8-0.8,1.2c-0.1,0.2-0.3,0.4-0.4,0.6c-0.9,1.5-1.6,3.1-1.9,4.8c-0.1,0.5-0.2,1-0.2,1.5
		c-0.1,0.5-0.1,1.1-0.1,1.6v126.7c0,8.4,6.9,15.3,15.3,15.3h11.7c8.5,0,15.3-6.9,15.3-15.3V368.2c0-0.5,0-1.1-0.1-1.6
		C318.4,366.1,318.4,365.5,318.3,365.1z"/>
	<path fill="#0B2F6B" d="M505.7,350.8H390.1c-3.2,0-5.8,2.6-5.8,5.8v180.6c0,3.2,2.6,5.8,5.8,5.8h115.6c3.2,0,5.8-2.6,5.8-5.8V356.6
		C511.5,353.4,508.8,350.8,505.7,350.8z"/>
	<circle fill="#0B2F6B" cx="447.9" cy="572.6" r="15.9"/>
</g>
</svg>
