<?xml version="1.0" encoding="utf-8"?>
<!-- Generator: Adobe Illustrator 17.1.0, SVG Export Plug-In . SVG Version: 6.00 Build 0)  -->
<!DOCTYPE svg PUBLIC "-//W3C//DTD SVG 1.1//EN" "http://www.w3.org/Graphics/SVG/1.1/DTD/svg11.dtd">
<svg version="1.1" id="Fix__x26__Fall" xmlns="http://www.w3.org/2000/svg" xmlns:xlink="http://www.w3.org/1999/xlink" x="0px"
	 y="0px" viewBox="0 0 841.9 595.3" enable-background="new 0 0 841.9 595.3" xml:space="preserve">
<g>
	<path fill="#0B2F6B" d="M563.2,424c0,6.2-5,11.2-11.2,11.2H327.9c-6.2,0-11.2-5-11.2-11.2V74c0-6.2,5-11.2,11.2-11.2H552
		c6.2,0,11.2,5,11.2,11.2V424z"/>
	<g>
		<path fill="#0B2F6B" d="M583,576.4H295.4c-20,0-32.9-15.5-32.9-39.5V45.4c0-23,12.6-37.2,32.9-37.2H583c20.6,0,34.4,15,34.4,37.3
			v491.4C617.4,560.2,603.3,576.4,583,576.4z M295.4,32.6c-3.4,0-8.5,0-8.5,12.8v491.5c0,5.2,1,9.7,2.8,12.3
			c1.1,1.7,2.5,2.8,5.7,2.8H583c9.5,0,10-12.6,10-15.1V45.5c0-12.9-7.2-12.9-10-12.9H295.4z"/>
	</g>
	<circle fill="#0B2F6B" cx="439.9" cy="493" r="30.9"/>
</g>
</svg>
