<?xml version="1.0" encoding="utf-8"?>
<!-- Generator: Adobe Illustrator 17.1.0, SVG Export Plug-In . SVG Version: 6.00 Build 0)  -->
<!DOCTYPE svg PUBLIC "-//W3C//DTD SVG 1.1//EN" "http://www.w3.org/Graphics/SVG/1.1/DTD/svg11.dtd">
<svg version="1.1" id="Layer_41" xmlns="http://www.w3.org/2000/svg" xmlns:xlink="http://www.w3.org/1999/xlink" x="0px" y="0px"
	 viewBox="0 0 595.3 841.9" enable-background="new 0 0 595.3 841.9" xml:space="preserve">
<g>
	<circle fill="#0B2F6B" cx="127.9" cy="337.7" r="34.4"/>
	<circle fill="#0B2F6B" cx="220.8" cy="337.7" r="34.4"/>
	<circle fill="#0B2F6B" cx="313.8" cy="337.7" r="34.4"/>
	<circle fill="#0B2F6B" cx="407" cy="337.7" r="34.4"/>
	<circle fill="#0B2F6B" cx="127.9" cy="429.9" r="34.4"/>
	<path fill="#0B2F6B" d="M127.9,482.2c-22,0-39.8,17.8-39.8,39.8s17.8,39.8,39.8,39.8s39.8-17.8,39.8-39.8
		C167.6,500,149.9,482.2,127.9,482.2z M127.9,550.9c-15.9,0-28.9-13-28.9-28.9c0-15.9,13-28.9,28.9-28.9c15.9,0,28.9,13,28.9,28.9
		C156.8,537.8,143.8,550.9,127.9,550.9z"/>
	<path fill="#0B2F6B" d="M533.4,423.8h-31.5v-192c0-0.5,0-1.2-0.1-1.8c-0.9-24.6-21.3-44.4-46.2-44.4H433v-26.9
		c0-10-8.1-18.1-18.1-18.1c-10,0-18.1,8.1-18.1,18.1v26.9h-37.5v-26.9c0-10-8.1-18.1-18.1-18.1s-18.1,8.1-18.1,18.1v26.9h-37.5
		v-26.9c0-10-8.1-18.1-18.1-18.1c-10,0-18.1,8.1-18.1,18.1v26.9h-37.5v-26.9c0-10-8.1-18.1-18.1-18.1s-18.1,8.1-18.1,18.1v26.9
		h-37.5v-26.9c0-10-8.1-18.1-18.1-18.1s-18.1,8.1-18.1,18.1v26.9H79.5c-25.5,0-46.3,20.8-46.3,46.3v347.3
		c0,25.5,20.8,46.3,46.3,46.3h133.9v25.9c0,15.8,12.8,28.9,28.9,28.9h291.4c15.8,0,28.9-13,28.9-28.9V452.6
		C562.1,436.8,549.3,423.8,533.4,423.8z M533.4,665.1H242c-7.4,0-13.5-6.1-13.5-13.5v-15.4L341.3,556l26.2,18.5
		c5.9,4.1,13.6,6.1,21.3,6.1c7.7,0,15.5-2.2,21.3-6.1l26.1-18.5l110.6,78.4v17.1C546.9,659.1,540.8,665.1,533.4,665.1z M546.9,452.6
		v17.1l-140.2,99.5c-9.6,6.5-25.9,6.5-35.5,0L228.3,467.9v-15.3c0-7.4,6.1-13.5,13.5-13.5h291.4
		C540.8,439.1,546.9,445.2,546.9,452.6z M441.9,552.1l105-74.5v149.1L441.9,552.1z M378.6,423.8c2.8-13,14.4-22.8,28.2-22.8
		c13.8,0,25.5,9.9,28.2,22.8H378.6z M285.6,423.8c2.8-13,14.4-22.8,28.2-22.8c13.9,0,25.5,9.9,28.2,22.8H285.6z M213.1,550
		c-12.3-3.4-21.3-14.6-21.3-27.8s9-24.6,21.3-27.8V550z M228.3,475.8l107.5,76.3l-107.5,76.3V475.8z M79.3,599.5
		c-11.1,0-20.1-8.9-20.1-20.1V232c0-11.1,8.9-20.1,20.1-20.1h22.4v31.7c0,10,8.1,18.1,18.1,18.1s18.1-8.1,18.1-18.1v-31.7h37.5v31.7
		c0,10,8.1,18.1,18.1,18.1c10,0,18.1-8.1,18.1-18.1v-31.7h37.5v31.7c0,10,8.1,18.1,18.1,18.1c10,0,18.1-8.1,18.1-18.1v-31.7h37.5
		v31.7c0,10,8.1,18.1,18.1,18.1s18.1-8.1,18.1-18.1v-31.7h37.5v31.7c0,10,8.1,18.1,18.1,18.1c10,0,18.1-8.1,18.1-18.1v-31.7h22.4
		c11.1,0,20.1,8.9,20.1,20.1c0,0.5,0,1.1,0.1,1.5v190.2H446c-3-19-19.4-33.8-39.3-33.8s-36.3,14.6-39.3,33.8H353
		c-3-19-19.4-33.8-39.3-33.8s-36.3,14.6-39.3,33.8h-20c-2.8-16.1-16.9-28.2-33.8-28.2c-19,0-34.4,15.4-34.4,34.4
		c0,16.3,11.5,30.1,26.7,33.5v19.4c-18.4,3.5-32.1,19.7-32.1,39c0,19.4,13.9,35.5,32.1,39v38.6L79.3,599.5L79.3,599.5z"/>
</g>
</svg>
