<?xml version="1.0" encoding="utf-8"?>
<!-- Generator: Adobe Illustrator 17.1.0, SVG Export Plug-In . SVG Version: 6.00 Build 0)  -->
<!DOCTYPE svg PUBLIC "-//W3C//DTD SVG 1.1//EN" "http://www.w3.org/Graphics/SVG/1.1/DTD/svg11.dtd">
<svg version="1.1" id="Fix__x26__Fall" xmlns="http://www.w3.org/2000/svg" xmlns:xlink="http://www.w3.org/1999/xlink" x="0px"
	 y="0px" viewBox="0 0 841.9 595.3" enable-background="new 0 0 841.9 595.3" xml:space="preserve">
<g>
	<g>
		<g>
			<path id="SVGID_1_" fill="#0B2F6B" d="M369.8,166.5c0,0-73.8,24.7-112.9,59.1c-25.3,20.8-42.6,49-49.6,80.7
				c28-15.1,56.6-24.7,56.6-24.7L529.1,195c0,0,10.3,201.6-108.3,290.3c34.5-6.8,74.2-21.5,119.7-47.4
				C715.7,338.2,701.3,58.3,701.3,58.3L369.8,166.5z"/>
		</g>
		<g>
			<defs>
				<path id="SVGID_2_" d="M369.8,166.5c0,0-73.8,24.7-112.9,59.1c-25.3,20.8-42.6,49-49.6,80.7c28-15.1,56.6-24.7,56.6-24.7
					L529.1,195c0,0,10.3,201.6-108.3,290.3c34.5-6.8,74.2-21.5,119.7-47.4C715.7,338.2,701.3,58.3,701.3,58.3L369.8,166.5z"/>
			</defs>
			<clipPath id="SVGID_4_">
				<use xlink:href="#SVGID_2_"  overflow="visible"/>
			</clipPath>
		</g>
	</g>
	<g>
		<g>
			<path id="SVGID_3_" fill="#0B2F6B" d="M173.6,328.8c-26.9,22.2-42.9,54.7-42.9,90.4c0,66.8,62.3,121,132.1,121l0,0
				c34.9,1,81.3-9.8,137.3-41.6c7.2-4.1,13.1-8.6,19.5-13.3c-18.6,3.7-28.9,5.1-52.2,4.6l0,0c-93.1,0-164.7-67.7-164.7-151.2
				c0-11.1,1.7-21.9,4-32.3C194.6,312.8,183,320.4,173.6,328.8"/>
		</g>
		<g>
			<defs>
				<path id="SVGID_5_" d="M173.6,328.8c-26.9,22.2-42.9,54.7-42.9,90.4c0,66.8,62.3,121,132.1,121l0,0c34.9,1,81.3-9.8,137.3-41.6
					c7.2-4.1,13.1-8.6,19.5-13.3c-18.6,3.7-28.9,5.1-52.2,4.6l0,0c-93.1,0-164.7-67.7-164.7-151.2c0-11.1,1.7-21.9,4-32.3
					C194.6,312.8,183,320.4,173.6,328.8"/>
			</defs>
			<clipPath id="SVGID_6_">
				<use xlink:href="#SVGID_5_"  overflow="visible"/>
			</clipPath>
		</g>
	</g>
</g>
</svg>
