<?xml version="1.0" encoding="utf-8"?>
<!-- Generator: Adobe Illustrator 17.1.0, SVG Export Plug-In . SVG Version: 6.00 Build 0)  -->
<!DOCTYPE svg PUBLIC "-//W3C//DTD SVG 1.1//EN" "http://www.w3.org/Graphics/SVG/1.1/DTD/svg11.dtd">
<svg version="1.1" id="Fix__x26__Fall" xmlns="http://www.w3.org/2000/svg" xmlns:xlink="http://www.w3.org/1999/xlink" x="0px"
	 y="0px" viewBox="0 0 595.3 841.9" enable-background="new 0 0 595.3 841.9" xml:space="preserve">
<g>
	<path fill="#0B2F6B" d="M287.4,578.7h1.9c29.9,0,69.9-7.1,105.6-13.2c17-3.1,33.4-5.9,47-7.7H135.3c13.6,1.7,29.9,4.7,46.8,7.7
		C217.5,571.6,257.7,578.7,287.4,578.7z"/>
	<path fill="#0B2F6B" d="M501.9,77.5H80.3c-20.7,0-37.6,16.9-37.6,37.6v613.2c0,20.7,16.9,37.6,37.6,37.6h421.5
		c20.7,0,37.6-16.9,37.6-37.6V115.1C539.2,94.4,522.4,77.5,501.9,77.5z M508.8,728.5c0,4-3.1,7.1-7,7.1H80.3c-3.8,0-7-3.1-7-7.1
		V557.7H57.5V545h15.8V115.1c0-3.8,3.1-7,7-7h421.5c3.8,0,7,3.1,7,7V545H522v12.7h-13.2V728.5z"/>
	<path fill="#0B2F6B" d="M340.7,618.4c-4.2,0-7.7,3.5-7.7,7.7v55.3c0,4.2,3.5,7.7,7.7,7.7h126.9c4.2,0,7.7-3.5,7.7-7.7V626
		c0-4.2-3.5-7.7-7.7-7.7H340.7z M459.9,673.7H348.1v-40.2h111.8V673.7z"/>
	<path fill="#0B2F6B" d="M153.7,600.1c-29.6,0-53.6,24-53.6,53.6s24.2,53.6,53.6,53.6s53.6-24,53.6-53.6S183.3,600.1,153.7,600.1z
		 M153.7,692.1c-21.2,0-38.4-17.2-38.4-38.4c0-21.2,17.2-38.4,38.4-38.4s38.4,17.2,38.4,38.4C192.1,674.9,174.8,692.1,153.7,692.1z"
		/>
	<polygon fill="#0B2F6B" points="522,545 508.8,545 73.2,545 57.5,545 57.5,557.7 73.2,557.7 135.3,557.7 441.7,557.7 508.8,557.7 
		522,557.7 	"/>
</g>
</svg>
