<?xml version="1.0" encoding="utf-8"?>
<!-- Generator: Adobe Illustrator 17.1.0, SVG Export Plug-In . SVG Version: 6.00 Build 0)  -->
<!DOCTYPE svg PUBLIC "-//W3C//DTD SVG 1.1//EN" "http://www.w3.org/Graphics/SVG/1.1/DTD/svg11.dtd">
<svg version="1.1" id="Layer_2" xmlns="http://www.w3.org/2000/svg" xmlns:xlink="http://www.w3.org/1999/xlink" x="0px" y="0px"
	 viewBox="0 0 595.3 841.9" enable-background="new 0 0 595.3 841.9" xml:space="preserve">
<g>
	<path fill="#0B2F6B" d="M577.2,419.3L307.3,225c-5.7-4.1-13.3-4.1-18.9,0L18.1,419.3c-7.3,5.2-8.9,15.3-3.7,22.7
		c3.3,4.4,8.1,6.8,13.2,6.8c3.3,0,6.6-1,9.5-3L59,430v159.7c0,12.2,9.8,22,22,22h432.4c12.2,0,22-9.9,22-22V429.2l22.9,16.5
		c7.3,5.2,17.5,3.6,22.7-3.7C586.1,434.6,584.5,424.5,577.2,419.3z M209.9,589.9h-62.4V458.4c0-1,0.9-1.9,1.9-1.9h60
		c0.3,0,0.6,0.2,0.6,0.6L209.9,589.9L209.9,589.9z M513.7,589.6c0,0.1-0.1,0.3-0.3,0.3H218.9V457.1c0-5.4-4.4-9.7-9.7-9.7h-60
		c-6.1,0-11,4.9-11,11v131.5H80.9c-0.1,0-0.3-0.1-0.3-0.3V414.3l217.1-156.1l215.9,155.4V589.6z"/>
	<path fill="#0B2F6B" d="M257.4,458.4V527c0,6.1,4.9,11,11,11h58.5c6.1,0,11-4.9,11-11v-68.6c0-6.1-4.9-11-11-11h-58.5
		C262.4,447.4,257.4,452.3,257.4,458.4z M328.9,458.4V527c0,1-0.9,1.9-1.9,1.9h-58.5c-1,0-1.9-0.9-1.9-1.9v-68.6
		c0-1,0.9-1.9,1.9-1.9H327C328,456.5,328.9,457.4,328.9,458.4z"/>
	<path fill="#0B2F6B" d="M386.2,538h60c6.1,0,11-4.9,11-11v-68.6c0-6.1-4.9-11-11-11h-60c-5.4,0-9.7,4.4-9.7,9.7v71.2
		C376.6,533.7,380.9,538,386.2,538z M385.7,457.1c0-0.3,0.3-0.6,0.6-0.6l0,0h59.9c1,0,1.9,0.9,1.9,1.9V527c0,1-0.9,1.9-1.9,1.9h-60
		c-0.3,0-0.6-0.3-0.6-0.6L385.7,457.1L385.7,457.1z"/>
</g>
</svg>
