<?xml version="1.0" encoding="utf-8"?>
<!-- Generator: Adobe Illustrator 17.1.0, SVG Export Plug-In . SVG Version: 6.00 Build 0)  -->
<!DOCTYPE svg PUBLIC "-//W3C//DTD SVG 1.1//EN" "http://www.w3.org/Graphics/SVG/1.1/DTD/svg11.dtd">
<svg version="1.1" id="Layer_2" xmlns="http://www.w3.org/2000/svg" xmlns:xlink="http://www.w3.org/1999/xlink" x="0px" y="0px"
	 viewBox="0 0 841.9 595.3" enable-background="new 0 0 841.9 595.3" xml:space="preserve">
<g>
	<path fill="#0B2F6B" d="M631.1,76.7h-25V42.9c0-11.2-9.1-20.3-20.3-20.3c-11.2,0-20.3,9.1-20.3,20.3v33.8h-42V42.9
		c0-11.2-9.1-20.3-20.3-20.3c-11.2,0-20.3,9.1-20.3,20.3v33.8h-41.8V42.9c0-11.2-9.1-20.3-20.3-20.3c-11.2,0-20.3,9.1-20.3,20.3
		v33.8h-42V42.9c0-11.2-9.1-20.3-20.3-20.3c-11.2,0-20.3,9.1-20.3,20.3v33.8h-41.8V42.9c0-11.2-9.1-20.3-20.3-20.3
		c-11.2,0-20.3,9.1-20.3,20.3v33.8h-25c-26.5,0-48.1,21.6-48.1,48.1v388.4c0,26.5,21.6,48.1,48.1,48.1h420.9
		c26.5,0,48.1-21.6,48.1-48.1V124.8C679.2,98.3,657.6,76.7,631.1,76.7z M657.3,513.2c0,14.5-11.8,26.2-26.2,26.2H210.2
		c-14.5,0-26.2-11.8-26.2-26.2V124.8c0-14.5,11.8-26.2,26.2-26.2h25v39c0,11.2,9.1,20.3,20.3,20.3c11.2,0,20.3-9,20.3-20.2v-39h41.8
		v39c0,11.2,9.1,20.3,20.3,20.3c11.2,0,20.2-9,20.3-20.2v-39H400v39c0,11.2,9.1,20.3,20.3,20.3c11.2,0,20.2-9,20.3-20.2v-39h41.8v39
		c0,11.2,9.1,20.3,20.3,20.3s20.2-9,20.3-20.2V99h41.9v39c0,11.2,9.1,20.3,20.3,20.3c11.2,0,20.2-9,20.3-20.2v-39h25
		c14.5,0,26.2,11.8,26.2,26.2v387.9H657.3z"/>
	<circle fill="#0B2F6B" cx="264.6" cy="243.1" r="38.5"/>
	<circle fill="#0B2F6B" cx="368.7" cy="243.1" r="38.5"/>
	<circle fill="#0B2F6B" cx="472.7" cy="243.1" r="38.5"/>
	<circle fill="#0B2F6B" cx="576.7" cy="243.1" r="38.5"/>
	<circle fill="#0B2F6B" cx="264.6" cy="346" r="38.5"/>
	<circle fill="#0B2F6B" cx="368.7" cy="346" r="38.5"/>
	<path fill="#0B2F6B" d="M472.7,301.5c-24.6,0-44.5,20-44.5,44.5c0,24.6,20,44.5,44.5,44.5c24.6,0,44.5-20,44.5-44.5
		C517.3,321.4,497.3,301.5,472.7,301.5z M472.7,378.4c-17.9,0-32.4-14.5-32.4-32.4c0-17.9,14.6-32.4,32.4-32.4
		c17.8,0,32.4,14.5,32.4,32.4C505.2,363.9,490.7,378.4,472.7,378.4z"/>
	<path fill="#0B2F6B" d="M576.7,301.5c-24.6,0-44.5,20-44.5,44.5c0,24.6,20,44.5,44.5,44.5c24.6,0,44.5-20,44.5-44.5
		C621.3,321.4,601.3,301.5,576.7,301.5z M576.7,378.4c-17.9,0-32.4-14.5-32.4-32.4c0-17.9,14.6-32.4,32.4-32.4s32.4,14.5,32.4,32.4
		C609.2,363.9,594.7,378.4,576.7,378.4z"/>
	<path fill="#0B2F6B" d="M264.6,404.4c-24.6,0-44.5,20-44.5,44.5c0,24.6,20,44.5,44.5,44.5c24.6,0,44.5-20,44.5-44.5
		S289.1,404.4,264.6,404.4z M264.6,481.4c-17.9,0-32.4-14.5-32.4-32.4c0-17.9,14.6-32.4,32.4-32.4S297,431.1,297,449
		C297,466.9,282.5,481.4,264.6,481.4z"/>
	<path fill="#0B2F6B" d="M368.7,404.4c-24.6,0-44.5,20-44.5,44.5c0,24.6,20,44.5,44.5,44.5c24.6,0,44.5-20,44.5-44.5
		S393.2,404.4,368.7,404.4z M368.7,481.4c-17.9,0-32.4-14.5-32.4-32.4c0-17.9,14.6-32.4,32.4-32.4c17.8,0,32.4,14.5,32.4,32.4
		C401.1,466.9,386.6,481.4,368.7,481.4z"/>
	<path fill="#0B2F6B" d="M472.7,404.4c-24.6,0-44.5,20-44.5,44.5c0,24.6,20,44.5,44.5,44.5c24.6,0,44.5-20,44.5-44.5
		C517.3,424.4,497.3,404.4,472.7,404.4z M472.7,481.4c-17.9,0-32.4-14.5-32.4-32.4c0-17.9,14.6-32.4,32.4-32.4
		c17.8,0,32.4,14.5,32.4,32.4C505.2,466.9,490.7,481.4,472.7,481.4z"/>
	<path fill="#0B2F6B" d="M576.7,404.4c-24.6,0-44.5,20-44.5,44.5c0,24.6,20,44.5,44.5,44.5c24.6,0,44.5-20,44.5-44.5
		C621.3,424.4,601.3,404.4,576.7,404.4z M576.7,481.4c-17.9,0-32.4-14.5-32.4-32.4c0-17.9,14.6-32.4,32.4-32.4s32.4,14.5,32.4,32.4
		C609.2,466.9,594.7,481.4,576.7,481.4z"/>
</g>
</svg>
