<?xml version="1.0" encoding="utf-8"?>
<!-- Generator: Adobe Illustrator 16.0.4, SVG Export Plug-In . SVG Version: 6.00 Build 0)  -->
<!DOCTYPE svg PUBLIC "-//W3C//DTD SVG 1.1//EN" "http://www.w3.org/Graphics/SVG/1.1/DTD/svg11.dtd">
<svg version="1.1" id="Fix__x26__Fall" xmlns="http://www.w3.org/2000/svg" xmlns:xlink="http://www.w3.org/1999/xlink" x="0px"
	 y="0px" width="539px" height="562px" viewBox="37.5 116.5 539 562" enable-background="new 37.5 116.5 539 562"
	 xml:space="preserve">
<g>
	<path fill="none" d="M300.403,445.059V297.835c0-6.961-5.645-12.324-12.324-12.324h-49.294v-0.094
		c-6.961,0-12.324,5.644-12.324,12.323v147.318H300.403L300.403,445.059z"/>
	<path fill="none" d="M498.426,215.709c-1.787-8.749-9.407-15.051-18.25-15.051H347.157l-3.387-6.961
		c-11.289-24.177-35.842-39.323-64.064-39.323c-28.128,0-52.869,15.052-64.063,39.323l-3.387,6.961h-41.674
		c-10.16,0-18.532,8.278-18.626,18.344l-0.094,12.041H79.425v0.094c-1.223,0-1.881,0.659-2.258,1.223
		c-0.376,0.564-0.658,1.505-0.094,2.54l51.928,109.689L86.387,577.514l-0.282,0.847c-0.094,0.094-8.466,25.776,3.763,42.897
		c8.278,11.57,24.929,17.31,49.294,17.31h268.296c24.364,0,41.203-5.927,49.294-17.31c12.229-17.027,3.856-42.521,3.763-42.897
		l-0.282-0.847l-0.094-0.94l-61.712-338.663h66.133l37.441,191.344c1.787,8.749,9.219,15.052,18.25,15.052
		c1.223,0,2.446-0.095,3.763-0.377c4.798-0.94,8.938-3.763,11.76-7.901c2.822-4.14,3.763-8.938,2.822-13.923L498.426,215.709z
		 M312.444,573.092c0,13.453-10.819,24.554-24.553,24.554h-49.294c-13.546,0-24.553-11.007-24.553-24.554V297.835
		c0-13.546,11.006-24.553,24.553-24.553h49.294c13.546,0,24.553,11.007,24.553,24.553V573.092L312.444,573.092z M363.149,595.199
		h-23.706c-3.387,0-6.209-2.822-6.209-6.209s2.822-6.208,6.209-6.208h23.706c3.387,0,6.209,2.821,6.209,6.208
		C369.264,592.565,366.441,595.199,363.149,595.199z M363.149,552.02h-23.706c-3.387,0-6.209-2.822-6.209-6.208
		c0-3.387,2.822-6.209,6.209-6.209h23.706c3.387,0,6.209,2.822,6.209,6.209C369.264,549.386,366.441,552.02,363.149,552.02z
		 M363.149,508.841h-23.706c-3.387,0-6.209-2.822-6.209-6.209s2.822-6.209,6.209-6.209h23.706c3.387,0,6.209,2.822,6.209,6.209
		C369.452,506.206,366.441,508.841,363.149,508.841z M363.149,459.641h-23.706c-3.387,0-6.209-2.822-6.209-6.209
		s2.822-6.209,6.209-6.209h23.706c3.387,0,6.209,2.822,6.209,6.209C369.452,456.912,366.441,459.641,363.149,459.641z
		 M363.149,416.555h-23.706c-3.387,0-6.209-2.822-6.209-6.209s2.822-6.208,6.209-6.208h23.706c3.387,0,6.209,2.821,6.209,6.208
		C369.452,413.732,366.441,416.555,363.149,416.555z M363.149,373.375h-23.706c-3.387,0-6.209-2.822-6.209-6.209
		s2.822-6.208,6.209-6.208h23.706c3.387,0,6.209,2.822,6.209,6.208C369.452,370.647,366.441,373.375,363.149,373.375z
		 M363.149,330.29h-23.706c-3.387,0-6.209-2.822-6.209-6.209c0-3.386,2.822-6.208,6.209-6.208h23.706
		c3.387,0,6.209,2.822,6.209,6.208C369.452,327.468,366.441,330.29,363.149,330.29z M363.149,287.11h-23.706
		c-3.387,0-6.209-2.822-6.209-6.208s2.822-6.209,6.209-6.209h23.706c3.387,0,6.209,2.822,6.209,6.209
		C369.452,284.289,366.441,287.11,363.149,287.11z"/>
	<path fill="#0B2F6B" d="M562.584,417.59L522.32,211.1c-4.045-20.132-21.73-34.713-42.238-34.713H362.303
		c-16.463-28.692-47.507-46.096-82.502-46.096s-65.851,17.592-82.502,46.096h-26.435c-19.285,0-35.842,12.7-41.204,30.479H79.708
		c-9.219,0-17.686,4.704-22.766,12.512c-4.986,7.902-5.645,17.592-1.599,25.964l48.542,102.54L63.057,571.399
		c-1.881,6.303-10.63,38.569,7.244,63.687c13.17,18.345,36.5,27.658,69.144,27.658h268.014c32.831,0,56.161-9.22,69.426-27.658
		c17.968-25.117,9.125-57.479,7.243-63.687l-56.443-309.218h16.933l33.49,171.589c3.857,20.226,21.543,34.713,42.239,34.713
		c2.821,0,5.456-0.095,8.277-0.847c11.102-2.164,21.073-8.561,27.376-18.062C562.49,440.262,564.748,428.69,562.584,417.59z
		 M535.679,436.122c-2.822,4.14-7.149,6.962-11.759,7.902c-1.223,0.282-2.446,0.376-3.763,0.376c-8.843,0-16.463-6.303-18.25-15.052
		L464.466,237.91h-66.133l61.712,338.663l0.094,0.94l0.282,0.847c0.094,0.282,8.561,25.87-3.763,42.897
		c-8.279,11.57-25.118,17.31-49.295,17.31H139.444c-24.553,0-41.204-5.927-49.294-17.31c-12.229-17.027-3.857-42.615-3.763-42.897
		l0.282-0.847l42.521-232.924L77.167,234.994c-0.564-1.035-0.094-1.976,0.094-2.54c0.376-0.564,1.035-1.223,2.258-1.223v-0.094
		h72.436l0.094-12.042c0.094-10.16,8.466-18.344,18.626-18.344h41.674l3.386-6.961c11.289-24.271,35.936-39.322,64.064-39.322
		c28.315,0,52.869,15.052,64.063,39.322l3.387,6.961h132.831c8.843,0,16.65,6.397,18.25,15.052l40.264,206.302
		C539.536,426.997,538.596,431.889,535.679,436.122z"/>
	<path fill="#0B2F6B" d="M363.149,583.064h-23.706c-3.387,0-6.209,2.821-6.209,6.208s2.822,6.209,6.209,6.209h23.706
		c3.387,0,6.209-2.822,6.209-6.209C369.264,585.698,366.441,583.064,363.149,583.064z"/>
	<path fill="#0B2F6B" d="M363.149,539.885h-23.706c-3.387,0-6.209,2.822-6.209,6.209c0,3.386,2.822,6.208,6.209,6.208h23.706
		c3.387,0,6.209-2.822,6.209-6.208C369.264,542.519,366.441,539.885,363.149,539.885z"/>
	<path fill="#0B2F6B" d="M363.149,496.705h-23.706c-3.387,0-6.209,2.822-6.209,6.209s2.822,6.209,6.209,6.209h23.706
		c3.387,0,6.303-2.822,6.209-6.209C369.264,499.527,366.441,496.705,363.149,496.705z"/>
	<path fill="#0B2F6B" d="M363.149,447.316h-23.706c-3.387,0-6.209,2.822-6.209,6.209s2.822,6.209,6.209,6.209h23.706
		c3.387,0,6.303-2.822,6.209-6.209C369.264,450.139,366.441,447.316,363.149,447.316z"/>
	<path fill="#0B2F6B" d="M363.149,404.138h-23.706c-3.387,0-6.209,2.821-6.209,6.208s2.822,6.209,6.209,6.209h23.706
		c3.387,0,6.303-2.822,6.209-6.209C369.264,406.959,366.441,404.138,363.149,404.138z"/>
	<path fill="#0B2F6B" d="M363.149,361.146h-23.706c-3.387,0-6.209,2.822-6.209,6.209c0,3.386,2.822,6.208,6.209,6.208h23.706
		c3.387,0,6.303-2.822,6.209-6.208C369.264,363.968,366.441,361.146,363.149,361.146z"/>
	<path fill="#0B2F6B" d="M363.149,317.966h-23.706c-3.387,0-6.209,2.822-6.209,6.209s2.822,6.209,6.209,6.209h23.706
		c3.387,0,6.303-2.822,6.209-6.209C369.264,320.601,366.441,317.966,363.149,317.966z"/>
	<path fill="#0B2F6B" d="M363.149,274.881h-23.706c-3.387,0-6.209,2.822-6.209,6.209s2.822,6.209,6.209,6.209h23.706
		c3.387,0,6.303-2.822,6.209-6.209C369.264,277.609,366.441,274.881,363.149,274.881z"/>
	<path fill="#0B2F6B" d="M287.891,273.282h-49.294c-13.452,0-24.553,10.818-24.553,24.553v275.257
		c0,13.453,10.818,24.554,24.553,24.554h49.294c13.546,0,24.553-11.007,24.553-24.554V297.835
		C312.444,284.289,301.438,273.282,287.891,273.282z M238.597,285.417L238.597,285.417l49.294,0.094
		c6.867,0,12.323,5.457,12.323,12.324v147.224h-74.035V297.835C226.367,291.062,231.729,285.417,238.597,285.417z"/>
</g>
</svg>
