<?xml version="1.0" encoding="utf-8"?>
<!-- Generator: Adobe Illustrator 17.1.0, SVG Export Plug-In . SVG Version: 6.00 Build 0)  -->
<!DOCTYPE svg PUBLIC "-//W3C//DTD SVG 1.1//EN" "http://www.w3.org/Graphics/SVG/1.1/DTD/svg11.dtd">
<svg version="1.1" id="Layer_2" xmlns="http://www.w3.org/2000/svg" xmlns:xlink="http://www.w3.org/1999/xlink" x="0px" y="0px"
	 viewBox="0 0 595.3 841.9" enable-background="new 0 0 595.3 841.9" xml:space="preserve">
<g>
	<path fill="none" d="M327.2,462.4H398c1.3,0,2.4-1.1,2.4-2.4v-82.9c0-1.3-1.1-2.4-2.4-2.4h-70.8c-1.3,0-2.4,1.1-2.4,2.4V460
		C324.8,461.3,326,462.4,327.2,462.4z"/>
	<path fill="none" d="M327.2,619.6H398c1.3,0,2.4-1.1,2.4-2.4v-82.9c0-1.3-1.1-2.4-2.4-2.4h-70.8c-1.3,0-2.4,1.1-2.4,2.4v82.9
		C324.8,618.5,326,619.6,327.2,619.6z"/>
	<path fill="none" d="M254,374.7h-70.8c-1.3,0-2.4,1.1-2.4,2.4V460c0,1.3,1.1,2.4,2.4,2.4H254c1.3,0,2.4-1.1,2.4-2.4v-82.9
		C256.4,375.8,255.3,374.7,254,374.7z"/>
	<path fill="none" d="M254,531.9h-70.6c-1.3,0-2.4,1.1-2.4,2.4v132.8h75.4V534.3C256.4,533,255.3,531.9,254,531.9z"/>
	<path fill="none" d="M107,374.7v291.9c0,0.1,0.1,0.3,0.3,0.3h62.8V534.3c0-7.3,5.9-13.3,13.3-13.3h70.8c7.3,0,13.3,5.9,13.3,13.3
		v132.8H474c0.1,0,0.3-0.1,0.3-0.3V374.6L290.8,191L107,374.7z M267.3,460c0,7.3-5.9,13.3-13.3,13.3h-70.8
		c-7.3,0-13.3-5.9-13.3-13.3v-82.9c0-7.3,5.9-13.3,13.3-13.3H254c7.3,0,13.3,5.9,13.3,13.3V460L267.3,460z M314.1,377.1
		c0-7.3,5.9-13.3,13.3-13.3h70.8c7.3,0,13.3,5.9,13.3,13.3V460c0,7.3-5.9,13.3-13.3,13.3h-70.8c-7.3,0-13.3-5.9-13.3-13.3V377.1
		L314.1,377.1z M314.1,534.3c0-7.3,5.9-13.3,13.3-13.3h70.8c7.3,0,13.3,5.9,13.3,13.3v82.9c0,7.3-5.9,13.3-13.3,13.3h-70.8
		c-7.3,0-13.3-5.9-13.3-13.3V534.3L314.1,534.3z"/>
	<path fill="#0B2F6B" d="M552.7,397.3L304.6,149.2c-3.8-3.6-8.7-5.7-14-5.7s-10.3,2.1-14,5.7L29,397.5c-7.7,7.5-7.7,20.1,0,27.8
		c7.5,7.7,20.1,7.7,27.8,0l24.2-24.2v265.6c0,14.7,12,26.5,26.5,26.5H474c14.7,0,26.4-11.9,26.5-26.4v-266l24.4,24.4
		c3.9,3.9,8.9,5.7,14,5.7c5,0,10.1-2,14-5.9C560.4,417.4,560.4,405,552.7,397.3z M256.4,667.1H181V534.3c0-1.3,1.1-2.4,2.4-2.4H254
		c1.3,0,2.4,1.1,2.4,2.4V667.1z M474.2,666.8c0,0.1-0.1,0.3-0.3,0.3H267.3V534.3c0-7.3-5.9-13.3-13.3-13.3h-70.8
		c-7.3,0-13.3,5.9-13.3,13.3v132.8h-62.8c-0.1,0-0.3-0.1-0.3-0.3V374.7l183.7-183.9l183.6,183.7V666.8L474.2,666.8z"/>
	<path fill="#0B2F6B" d="M327.2,630.4H398c7.3,0,13.3-5.9,13.3-13.3v-82.9c0-7.3-5.9-13.3-13.3-13.3h-70.8
		c-7.3,0-13.3,5.9-13.3,13.3v82.9C314.1,624.5,319.9,630.4,327.2,630.4z M324.8,534.3c0-1.3,1.1-2.4,2.4-2.4H398
		c1.3,0,2.4,1.1,2.4,2.4v82.9c0,1.3-1.1,2.4-2.4,2.4h-70.8c-1.3,0-2.4-1.1-2.4-2.4V534.3L324.8,534.3z"/>
	<path fill="#0B2F6B" d="M327.2,473.3H398c7.3,0,13.3-5.9,13.3-13.3v-82.9c0-7.3-5.9-13.3-13.3-13.3h-70.8
		c-7.3,0-13.3,5.9-13.3,13.3V460C314.1,467.3,319.9,473.3,327.2,473.3z M324.8,377.1c0-1.3,1.1-2.4,2.4-2.4H398
		c1.3,0,2.4,1.1,2.4,2.4V460c0,1.3-1.1,2.4-2.4,2.4h-70.8c-1.3,0-2.4-1.1-2.4-2.4V377.1L324.8,377.1z"/>
	<path fill="#0B2F6B" d="M254,363.8h-70.8c-7.3,0-13.3,5.9-13.3,13.3V460c0,7.3,5.9,13.3,13.3,13.3H254c7.3,0,13.3-5.9,13.3-13.3
		v-82.9C267.3,369.8,261.3,363.8,254,363.8z M256.4,460c0,1.3-1.1,2.4-2.4,2.4h-70.8c-1.3,0-2.4-1.1-2.4-2.4v-82.9
		c0-1.3,1.1-2.4,2.4-2.4H254c1.3,0,2.4,1.1,2.4,2.4V460L256.4,460z"/>
</g>
</svg>
