<?xml version="1.0" encoding="utf-8"?>
<!-- Generator: Adobe Illustrator 16.0.4, SVG Export Plug-In . SVG Version: 6.00 Build 0)  -->
<!DOCTYPE svg PUBLIC "-//W3C//DTD SVG 1.1//EN" "http://www.w3.org/Graphics/SVG/1.1/DTD/svg11.dtd">
<svg version="1.1" id="Fix__x26__Fall" xmlns="http://www.w3.org/2000/svg" xmlns:xlink="http://www.w3.org/1999/xlink" x="0px"
	 y="0px" width="411px" height="410px" viewBox="98.5 191.5 411 410" enable-background="new 98.5 191.5 411 410"
	 xml:space="preserve">
<g>
	<path fill="none" d="M459.235,223.246H147.674c-9.668,0-17.592,7.851-17.592,17.592v311.561c0,9.668,7.851,17.592,17.592,17.592
		h311.561c9.668,0,17.592-7.851,17.592-17.592V240.837C476.827,231.169,468.977,223.246,459.235,223.246z M271.252,477.016H227.2
		c-12.794,0-23.189-10.322-23.189-23.043c0-6.179,2.399-11.994,6.76-16.283c4.362-4.361,10.177-6.761,16.429-6.761h44.052
		c6.251,0,12.067,2.399,16.429,6.761c4.361,4.361,6.76,10.104,6.76,16.283C294.441,466.693,284.046,477.016,271.252,477.016z
		 M304.618,380.771c-12.722,0-23.044-10.395-23.044-23.189V313.53c0-12.794,10.322-23.189,23.044-23.189
		c6.179,0,11.994,2.399,16.283,6.76c4.361,4.361,6.76,10.177,6.76,16.429v44.052c0,6.251-2.398,12.067-6.76,16.428
		C316.539,378.372,310.797,380.771,304.618,380.771z M392.939,477.016h-44.052c-12.794,0-23.188-10.322-23.188-23.043
		c0-6.179,2.398-11.994,6.76-16.283c4.361-4.361,10.177-6.761,16.429-6.761h44.052c6.252,0,12.067,2.399,16.429,6.761
		s6.761,10.104,6.761,16.283C416.129,466.693,405.733,477.016,392.939,477.016z"/>
	<path fill="#0B2F6B" d="M459.235,201.729H147.674c-21.517,0-39.109,17.519-39.109,39.109v311.561
		c0,21.517,17.519,39.108,39.109,39.108h311.561c21.59,0,39.108-17.519,39.108-39.108V240.837
		C498.344,219.32,480.825,201.729,459.235,201.729z M476.827,552.398c0,9.741-7.924,17.592-17.592,17.592H147.674
		c-9.741,0-17.592-7.924-17.592-17.592V240.837c0-9.741,7.924-17.592,17.592-17.592h311.561c9.741,0,17.592,7.924,17.592,17.592
		V552.398z"/>
	<path fill="#0B2F6B" d="M392.939,430.929h-44.052c-6.252,0-12.067,2.399-16.429,6.761c-4.361,4.289-6.76,10.104-6.76,16.283
		c0,12.721,10.395,23.043,23.188,23.043h44.052c12.794,0,23.189-10.322,23.189-23.043c0-6.179-2.399-11.922-6.761-16.283
		S399.191,430.929,392.939,430.929z"/>
	<path fill="#0B2F6B" d="M271.252,430.929H227.2c-6.251,0-12.067,2.399-16.429,6.761c-4.361,4.289-6.76,10.104-6.76,16.283
		c0,12.721,10.395,23.043,23.189,23.043h44.052c12.794,0,23.189-10.322,23.189-23.043c0-6.179-2.399-11.922-6.76-16.283
		C283.319,433.328,277.503,430.929,271.252,430.929z"/>
	<path fill="#0B2F6B" d="M327.661,313.53c0-6.252-2.398-12.067-6.76-16.429c-4.289-4.361-10.104-6.76-16.283-6.76
		c-12.722,0-23.044,10.395-23.044,23.189v44.052c0,12.794,10.322,23.189,23.044,23.189c6.179,0,11.921-2.399,16.283-6.761
		c4.361-4.361,6.76-10.177,6.76-16.428V313.53z"/>
</g>
</svg>
