<?xml version="1.0" encoding="utf-8"?>
<!-- Generator: Adobe Illustrator 18.1.1, SVG Export Plug-In . SVG Version: 6.00 Build 0)  -->
<!DOCTYPE svg PUBLIC "-//W3C//DTD SVG 1.1//EN" "http://www.w3.org/Graphics/SVG/1.1/DTD/svg11.dtd">
<svg version="1.1" id="Fix__x26__Fall" xmlns="http://www.w3.org/2000/svg" xmlns:xlink="http://www.w3.org/1999/xlink" x="0px"
	 y="0px" viewBox="0 160.9 595.3 526" enable-background="new 0 160.9 595.3 526" xml:space="preserve">
<g>
	<path fill="none" d="M465.2,350.2v-30.5c0-9-7.3-16.7-16.7-16.7H63.8c-9,0-16.7,7.3-16.7,16.7v70.1h71.5v-18h50.7v18h132.9
		c28.4-29.5,68.3-47.9,112.4-47.9C432.2,341.8,449.2,345,465.2,350.2z"/>
	<path fill="none" d="M330.6,238.8c0-9.4-7.6-17-17-17H198.8c-9.4,0-17,7.6-17,17v41.6h149.2v-41.6H330.6z"/>
	<path fill="none" d="M169.3,436.9H119v-37.8H47.2V532c0,9,7.3,16.7,16.7,16.7h203c-5.6-16-8.7-33-8.7-50.7
		c0-37.5,13.2-71.8,35.4-98.9H169.3V436.9z"/>
	<path fill="#0B2F6B" d="M472.8,432.7H355.9c-3.5,0-6.6,3.1-6.6,6.6v116.9c0,3.5,3.1,6.6,6.6,6.6h116.9c3.5,0,6.6-3.1,6.6-6.6V439.3
		C479.4,435.9,476.7,432.7,472.8,432.7z M402.4,528.1h-16.7c-4.9,0-8.7-3.8-8.7-8.7c0-2.4,1-4.5,2.4-6.2c1.7-1.7,3.8-2.4,6.2-2.4
		h16.7c2.4,0,4.5,1,6.2,2.4c1.7,1.7,2.4,3.8,2.4,6.2C411.1,524.3,407.3,528.1,402.4,528.1z M414.9,492.1c-4.9,0-8.7-3.8-8.7-8.7
		v-16.7c0-4.9,3.8-8.7,8.7-8.7c2.4,0,4.5,1,6.2,2.4c1.7,1.7,2.4,3.8,2.4,6.2v16.7c0,2.4-1,4.5-2.4,6.2
		C419.4,491,417.3,492.1,414.9,492.1z M448.2,528.1h-16.7c-4.9,0-8.7-3.8-8.7-8.7c0-2.4,1-4.5,2.4-6.2c1.7-1.7,3.8-2.4,6.2-2.4h16.7
		c2.4,0,4.5,1,6.2,2.4c1.7,1.7,2.4,3.8,2.4,6.2C456.9,524.3,453.1,528.1,448.2,528.1z"/>
	<path fill="#0B2F6B" d="M487.8,359.9v-40.2c0-21.5-17.7-39.2-39.2-39.2h-83.6v-41.6c0-28.1-22.9-51-51-51H198.8
		c-28.1,0-51,22.9-51,51v41.6h-84c-21.9,0-39.2,17.7-39.2,39.2V532c0,21.5,17.7,39.2,39.2,39.2h212.7
		c26.4,49.3,78.1,82.9,138.1,82.9c86.4,0,156.1-70.1,156.1-156.1C570.7,438.3,537,386.3,487.8,359.9z M181.8,238.8
		c0-9.4,7.6-17,17-17h115.2c9.4,0,17,7.6,17,17v41.6H181.8V238.8z M258.4,498c0,17.7,3.1,34.7,8.7,50.7H63.8
		c-9,0-16.7-7.3-16.7-16.7V399.1h71.5v37.8h50.7v-37.8h124.2C271.6,426.1,258.4,460.5,258.4,498z M169.3,389.7v-18H119v18H47.2
		v-70.1c0-9,7.3-16.7,16.7-16.7h384.7c9,0,16.7,7.3,16.7,16.7v30.5c-16-5.6-33-8.7-50.7-8.7c-44.1,0-84,18.4-112.4,47.9H169.3V389.7
		z M487.8,556.2c0,8-6.6,14.6-14.6,14.6H356.3c-8,0-14.6-6.6-14.6-14.6V439.3c0-8,6.6-14.6,14.6-14.6h116.9c8,0,14.6,6.6,14.6,14.6
		V556.2z"/>
</g>
</svg>
