<?xml version="1.0" encoding="utf-8"?>
<!-- Generator: Adobe Illustrator 17.1.0, SVG Export Plug-In . SVG Version: 6.00 Build 0)  -->
<!DOCTYPE svg PUBLIC "-//W3C//DTD SVG 1.1//EN" "http://www.w3.org/Graphics/SVG/1.1/DTD/svg11.dtd">
<svg version="1.1" id="Layer_1" xmlns="http://www.w3.org/2000/svg" xmlns:xlink="http://www.w3.org/1999/xlink" x="0px" y="0px"
	 viewBox="0 0 841.9 595.3" enable-background="new 0 0 841.9 595.3" xml:space="preserve">
<g>
	<path fill="none" d="M525.8,378.6H326.4c-0.7,0-1.3,0.1-1.7,0.2v53.3c0,0,0,0,0.1,0.1c0.7,0.5,1.4,1,2,1.6l48.6,46.3
		c3.1,3,4.9,7.1,4.9,11.4v43.3h91.3v-43.4c0-4.3,1.8-8.4,4.9-11.4l48.5-46.2c0.7-0.7,1.6-1.6,2.2-2.2v-52.2
		C527,379.1,526.7,378.6,525.8,378.6z"/>
	<path fill="#203468" d="M326.4,137c2.3,0,5.8,0,8.1-2.3L447.9,93c12.8-4.6,19.7-18.5,15.1-32.4c-4.6-12.8-18.5-19.7-32.4-15.1
		L317.1,87.2c-12.7,4.6-19.7,18.5-15,32.4C305.6,130.1,316,137,326.4,137z"/>
	<path fill="#203468" d="M306.7,221.5c2.3,0,5.8,0,8.1-2.3L542.9,137c12.8-4.6,19.7-18.5,15.1-32.4c-4.6-12.8-18.5-19.7-32.4-15.1
		l-228.1,82.2c-12.8,4.6-19.7,18.5-15.1,32.4C285.9,214.6,296.3,221.5,306.7,221.5z"/>
	<path fill="#203468" d="M349.5,314.2c3.5,11.6,13.9,19.7,25.5,19.7c2.3,0,3.5,0,6.8-1.1c13.9-3.5,22-17.4,18.5-31.3
		c-3.4-12.8-10.4-22.1-18.5-29l161-57.9c12.8-4.6,19.7-18.5,15.1-32.4c-4.6-12.8-18.5-19.7-32.4-15.1l-228.1,82.2
		c-10.4,4.7-17.5,16.2-16.3,27.8c1.2,11.6,11.6,20.8,23.2,22C327.5,300.3,348.3,309.6,349.5,314.2z"/>
	<path fill="#203468" d="M532.5,247c-12.8,1.1-79.9,8.1-91.5,54.4c-3.5,13.9,4.6,27.8,18.5,31.3c1.2,1.2,3.5,1.2,5.8,1.2
		c11.6,0,22-8.1,25.5-19.7c1.2-4.7,22-13.9,45.2-15.1c15-1.2,25.5-13.9,24.3-27.8C559.1,256.3,546.4,245.8,532.5,247z"/>
	<path fill="#203468" d="M525.6,347.1H326.4c-18.9,0-33.1,13.2-33.1,30.8v55.6c0,10.5,6.5,19.1,12.5,23.7l43,40.9v37.3
		c0,18.7,11.1,30.8,28.4,30.8h97.3c12,0,18.8-5.5,22.4-10.2c4-5.2,6.1-12.2,6.1-20.6v-37.3l43.6-41.6c0.1-0.1,0.2-0.2,0.3-0.3
		c4.3-4.3,11.5-11.5,11.5-22.7v-55.6c0-0.5,0-1.1-0.1-1.7C556.5,359.6,542.4,347.1,525.6,347.1z M527.2,431.6
		c-0.6,0.6-1.5,1.5-2.2,2.2L476.5,480c-3.1,3-4.9,7.1-4.9,11.4v43.4h-91.3v-43.3c0-4.3-1.8-8.4-4.9-11.4l-48.6-46.3
		c-0.6-0.6-1.3-1.1-2-1.6c-0.1-0.1-0.1-0.1-0.1-0.1v-53.3c0.4-0.1,1-0.2,1.7-0.2h199.4c0.9,0,1.2,0.5,1.4,0.8V431.6z"/>
</g>
</svg>
