<?xml version="1.0" encoding="utf-8"?>
<!-- Generator: Adobe Illustrator 17.1.0, SVG Export Plug-In . SVG Version: 6.00 Build 0)  -->
<!DOCTYPE svg PUBLIC "-//W3C//DTD SVG 1.1//EN" "http://www.w3.org/Graphics/SVG/1.1/DTD/svg11.dtd">
<svg version="1.1" id="Layer_2" xmlns="http://www.w3.org/2000/svg" xmlns:xlink="http://www.w3.org/1999/xlink" x="0px" y="0px"
	 viewBox="0 0 841.9 595.3" enable-background="new 0 0 841.9 595.3" xml:space="preserve">
<g>
	<g>
		<path fill="#0B2F6B" d="M734.4,572.5h-624c-34.1,0-61.8-27.7-61.8-61.8V84.6c0-34.1,27.7-61.8,61.7-61.8h624
			c33.4,0,60.6,26.6,61.8,59.7c0.1,0.7,0.1,1.4,0.1,2.1v426.1C796.2,544.8,768.5,572.5,734.4,572.5z M110.3,55.6
			c-15.9,0-28.9,13-28.9,29v426.1c0,16,13,29,29,29h624c16,0,29-13,29-29V86.4c-0.1-0.6-0.1-1.2-0.1-1.8c0-16-13-29-29-29H110.3z"/>
	</g>
</g>
<g>
	<g>
		<path fill="#0B2F6B" d="M424.7,358.6c-16.5,0-32.9-4.3-45.8-13l-0.1-0.1L68,124.9l7.9-11.2l310.7,220.5c21,14.2,55.1,14.2,76.1,0
			l310.8-220.5l7.9,11.2l-311,220.7C457.7,354.2,441.2,358.6,424.7,358.6z"/>
	</g>
	<g>
		
			<rect x="191" y="232.3" transform="matrix(0.5787 0.8156 -0.8156 0.5787 398.6431 1.5178)" fill="#0B2F6B" width="13.7" height="308.6"/>
	</g>
	<g>
		
			<rect x="497.3" y="379.7" transform="matrix(0.8157 0.5785 -0.5785 0.8157 343.7915 -305.761)" fill="#0B2F6B" width="308.7" height="13.7"/>
	</g>
</g>
</svg>
