<?xml version="1.0" encoding="utf-8"?>
<!-- Generator: Adobe Illustrator 17.1.0, SVG Export Plug-In . SVG Version: 6.00 Build 0)  -->
<!DOCTYPE svg PUBLIC "-//W3C//DTD SVG 1.1//EN" "http://www.w3.org/Graphics/SVG/1.1/DTD/svg11.dtd">
<svg version="1.1" id="Layer_2" xmlns="http://www.w3.org/2000/svg" xmlns:xlink="http://www.w3.org/1999/xlink" x="0px" y="0px"
	 viewBox="0 0 841.9 595.3" enable-background="new 0 0 841.9 595.3" xml:space="preserve">
<g>
	<path fill="#0B2F6B" d="M156.8,313.9c-5.3,0-10.7-2-14.7-6.1c-8.1-8.1-8.1-21.3,0-29.5l263-263c8.1-8.1,21.3-8.1,29.4,0l263.1,263
		c8.1,8.1,8.1,21.3,0,29.5c-8.1,8.1-21.3,8.1-29.5,0L419.8,59.5L171.5,307.8C167.5,311.9,162.1,313.9,156.8,313.9z"/>
</g>
<g>
	<path fill="#0B2F6B" d="M605,578.2H234.8c-18.1,0-37.5-13.8-37.5-44.1V244c0-7.7,6.2-13.9,13.9-13.9s13.9,6.2,13.9,13.9v290.1
		c0,3.8,0.7,16.3,9.7,16.3H605c9.7,0,9.7-12.3,9.7-16.3V244c0-7.7,6.2-13.9,13.9-13.9s13.9,6.2,13.9,13.9v290.1
		c0,13.7-3.6,24.6-10.8,32.5C625,574.1,615.5,578.2,605,578.2z"/>
</g>
<g>
	<path fill="#0B2F6B" d="M419.8,493c-1.5,0-2.9-0.5-4.1-1.5c-0.2-0.2-23.3-19.4-50.9-39.4c-4.5-3.3-9.4-6.5-14.6-10
		c-27.3-18.1-61.4-40.7-66.1-87.9c-2.5-23.9,4.4-46.2,19.2-62.6c14.1-15.6,33.9-24.5,54.3-24.5c25.9,0,48.3,14.3,62,38.8
		c13.9-24.6,36.9-38.9,63.8-38.9c20.3,0,39.8,8.6,53.3,23.6c14.5,16.1,21.1,38.5,18.6,63.1c-4.6,45.3-36.9,67.4-62.9,85.1
		c-6.3,4.3-12.3,8.4-17.7,12.6c-26,20.5-51.1,40.3-51.1,40.3C422.6,492.6,421.2,493,419.8,493z M357.7,280
		c-16.8,0-33.1,7.4-44.8,20.3c-12.4,13.7-18.1,32.4-16,52.7c4.1,41.2,34,61,60.4,78.5c5.3,3.5,10.3,6.8,15,10.3
		c21.1,15.3,39.6,30.2,47.5,36.6c8.1-6.4,27.3-21.6,47-37.1c5.7-4.5,11.9-8.7,18.4-13.1c26.2-17.9,53.3-36.4,57.3-75.8
		c1.5-14.8,0.1-36-15.3-53.1c-11.1-12.3-27-19.3-43.7-19.3c-25.7,0-47.3,16.3-57.8,43.5c-1,2.5-3.4,4.1-6,4.1c0,0,0,0,0,0
		c-2.7,0-5.1-1.6-6-4.1C398.5,284.2,369.5,280,357.7,280z"/>
</g>
</svg>
