<?xml version="1.0" encoding="utf-8"?>
<!-- Generator: Adobe Illustrator 17.1.0, SVG Export Plug-In . SVG Version: 6.00 Build 0)  -->
<!DOCTYPE svg PUBLIC "-//W3C//DTD SVG 1.1//EN" "http://www.w3.org/Graphics/SVG/1.1/DTD/svg11.dtd">
<svg version="1.1" id="Layer_2" xmlns="http://www.w3.org/2000/svg" xmlns:xlink="http://www.w3.org/1999/xlink" x="0px" y="0px"
	 viewBox="0 0 841.9 595.3" enable-background="new 0 0 841.9 595.3" xml:space="preserve">
<g>
	<path fill="#0B2F6B" d="M483,581.1c-10.6,0-19.8-7-24.6-18.6l-26.8-65.2c-4,0.1-8,0.2-12,0.2c-78.4,0-152.2-24.7-207.9-69.6
		C155.2,382.4,124,321.6,124,256.8c0-64.8,31.1-125.6,87.7-171.2C267.4,40.7,341.2,16,419.6,16c78.4,0,152.2,24.7,207.9,69.6
		c56.5,45.5,87.6,106.3,87.6,171.2c0,38.3-11.3,76.5-32.8,110.4c-20.1,31.8-49.2,59.9-84.3,81.6l-92.7,120.2
		C499.3,576.8,491.4,581.1,483,581.1z M440.3,470.4c5.4,0,10.2,3.2,12.3,8.2l30.4,73.8c0.2,0.5,0.4,0.8,0.5,1.2
		c0.2-0.2,0.5-0.5,0.7-0.9l94.2-122.1c1-1.3,2.2-2.4,3.6-3.2c32.5-19.7,59.4-45.4,77.7-74.4c19-30,28.6-62.4,28.6-96.1
		c0-118.1-120.6-214.2-268.9-214.2c-148.3,0-269,96.1-269,214.2c0,118.1,120.7,214.2,269,214.2c6.7,0,13.4-0.2,19.9-0.6
		C439.8,470.4,440,470.4,440.3,470.4z"/>
</g>
<g enable-background="new    ">
	<path fill="#0B2F6B" d="M428.4,343.2c-0.1-4.7-0.2-8.2-0.2-10.5c0-13.7,1.9-25.6,5.8-35.6c2.9-7.5,7.5-15.1,13.8-22.8
		c4.7-5.6,13.1-13.7,25.2-24.4c12.1-10.7,20-19.2,23.6-25.6c3.6-6.4,5.4-13.3,5.4-20.8c0-13.6-5.3-25.6-16-35.9
		c-10.6-10.3-23.7-15.5-39.1-15.5c-14.9,0-27.4,4.7-37.4,14c-10,9.3-16.5,23.9-19.6,43.8l-36-4.3c3.2-26.6,12.9-46.9,28.9-61.1
		c16-14.1,37.2-21.2,63.5-21.2c27.9,0,50.1,7.6,66.7,22.8c16.6,15.2,24.9,33.5,24.9,55.1c0,12.5-2.9,23.9-8.8,34.4
		c-5.8,10.5-17.3,23.3-34.2,38.3c-11.4,10.1-18.9,17.6-22.4,22.4c-3.5,4.8-6.1,10.3-7.8,16.5c-1.7,6.2-2.7,16.3-2.9,30.3H428.4z
		 M426.2,413.5v-39.9h39.9v39.9H426.2z"/>
</g>
</svg>
