<?xml version="1.0" encoding="utf-8"?>
<!-- Generator: Adobe Illustrator 18.0.0, SVG Export Plug-In . SVG Version: 6.00 Build 0)  -->
<!DOCTYPE svg PUBLIC "-//W3C//DTD SVG 1.1//EN" "http://www.w3.org/Graphics/SVG/1.1/DTD/svg11.dtd">
<svg version="1.1" xmlns="http://www.w3.org/2000/svg" xmlns:xlink="http://www.w3.org/1999/xlink" x="0px" y="0px"
	 viewBox="0 0 190 190" enable-background="new 0 0 190 190" xml:space="preserve">
<g id="Fixed" display="none">
	<g display="inline">
		<g>
			<path fill="#0B2F6B" d="M130.1,83.6l-25.3,25.3l-0.1-83.2c0-2.6-1-5.1-2.8-6.9c-1.8-1.8-4.3-2.8-6.9-2.8c-5.3,0-9.7,4.4-9.7,9.7
				l0,83.2L59.9,83.6c-1.8-1.8-4.3-2.9-6.9-2.9c-2.6,0-5,1-6.9,2.9c-3.8,3.8-3.8,10,0,13.8l42,42c3.7,3.7,10.1,3.7,13.8,0l41.9-42
				c1.8-1.8,2.9-4.3,2.9-6.9c0-2.6-1-5.1-2.9-6.9C140.2,79.9,133.7,79.9,130.1,83.6z"/>
		</g>
		
			<path fill="none" stroke="#0B2F6B" stroke-width="5.9523" stroke-linecap="round" stroke-linejoin="round" stroke-miterlimit="10" d="
			M56.7,168.2c-5,0-9.1-4-9.1-9c0-2.4,0.9-4.7,2.7-6.4c1.7-1.7,4-2.6,6.4-2.6h76.6c2.4,0,4.7,0.9,6.4,2.6c1.7,1.7,2.7,4,2.7,6.4
			c0,5-4.1,9-9.1,9H56.7z"/>
	</g>
</g>
<g id="Fix__x26__Fall" display="none">
	<g display="inline">
		<path fill="#0B2F6B" d="M161.6,105.7L133.2,134l0-67.6c0-0.4,0-0.9-0.1-1.3l0-0.5c-0.3-21.1-7.9-34.8-23.9-43.1
			c-5.9-3-12.9-4.7-20.2-4.7l-5,0l0-0.1l-62.6,0c-2.9,0-5.7,1.1-7.8,3.2c-2,2-3.2,4.8-3.2,7.7c0,6,4.9,10.8,10.9,10.8l65.6-0.2
			l0.2,0c5.3,0.5,21.5,3.7,23.9,22h0.3l0,4.8c0,0.4,0,0.7-0.1,1h0l0,68.1L83,105.7c-2.1-2.1-4.8-3.2-7.7-3.2c-2.9,0-5.7,1.1-7.7,3.2
			c-4.3,4.3-4.3,11.2,0,15.5l47,47.1c4.1,4.1,11.3,4.1,15.5,0l47-47c4.3-4.3,4.3-11.2,0-15.5C172.9,101.6,165.7,101.6,161.6,105.7z"
			/>
		<path fill="#0B2F6B" d="M177,121.2l-47,47c-4.1,4.1-11.3,4.1-15.5,0l-47-47.1c-4.3-4.3-4.2-11.2,0-15.5c2.1-2.1,4.8-3.2,7.7-3.2
			c2.9,0,5.7,1.1,7.7,3.2l28.4,28.4l0-68.1h0c0-0.3,0-0.7,0.1-1l0-4.8H111c-2.4-18.4-18.7-21.5-23.9-22l-0.2,0l-65.6,0.2
			c-6,0-10.9-4.9-10.9-10.8c0-2.9,1.1-5.6,3.2-7.7c2.1-2.1,4.8-3.2,7.8-3.2l62.6,0l0,0.1l5,0c7.4,0,14.4,1.6,20.2,4.7
			c16,8.3,23.6,22,23.9,43.1l0,0.5c0.1,0.4,0.1,0.9,0.1,1.3l0,67.6l28.4-28.3c4.1-4.1,11.3-4.1,15.4,0
			C181.3,110,181.3,116.9,177,121.2z"/>
	</g>
</g>
<g id="Standard" display="none">
	<g display="inline">
		
			<path fill="none" stroke="#0B2F6B" stroke-width="5.4933" stroke-linecap="round" stroke-linejoin="round" stroke-miterlimit="10" d="
			M150.7,50.8v109.5c0,4.4-2.6,7.6-7.5,7.6H46.3c-4.9,0-7-3.2-7-7.6V27.5c0-4.4,2-7.6,7-7.6h73L150.7,50.8z"/>
		
			<path fill="#0B2F6B" stroke="#0B2F6B" stroke-width="5.4933" stroke-linecap="round" stroke-linejoin="round" stroke-miterlimit="10" d="
			M119.3,20v23.2c0,4.4,2.6,7.6,7.5,7.6h23.9L119.3,20z"/>
	</g>
</g>
<g id="Reward" display="none">
	<g display="inline">
		
			<path fill="none" stroke="#0B2F6B" stroke-width="7.0192" stroke-linecap="round" stroke-linejoin="round" stroke-miterlimit="10" d="
			M23.9,83.3v86.4c0,5.6,2.6,9.7,8.9,9.7h123.8c6.3,0,9.6-4,9.6-9.7V83.3H23.9z"/>
		
			<path fill="none" stroke="#0B2F6B" stroke-width="7.0192" stroke-linecap="round" stroke-linejoin="round" stroke-miterlimit="10" d="
			M14.5,82.9V47.7c0-5.6,2.6-9.7,8.9-9.7h142.5c6.3,0,9.6,4,9.6,9.7v35.1H14.5z"/>
		
			<line fill="none" stroke="#0B2F6B" stroke-width="23.3167" stroke-linejoin="round" stroke-miterlimit="10" x1="95" y1="179.3" x2="95" y2="38.6"/>
		<g>
			
				<path fill="none" stroke="#0B2F6B" stroke-width="7.0192" stroke-linecap="round" stroke-linejoin="round" stroke-miterlimit="10" d="
				M95,37.8c0,0-3.9-27.2-41.6-27.2c0,0-19.4,0.1-19.4,13.2c0,11.7,15.2,14,19,14H95z"/>
			
				<path fill="none" stroke="#0B2F6B" stroke-width="7.0192" stroke-linecap="round" stroke-linejoin="round" stroke-miterlimit="10" d="
				M95,37.8c0,0,3.9-27.2,41.6-27.2c0,0,19.4,0.4,19.4,13.2c0,11.7-15.2,14-19,14H95z"/>
		</g>
	</g>
</g>
<g id="Layer_5">
	<g>
		<g>
			<path fill="#0B2F6B" d="M113.9,84.8c-2.1,0-3.8-1.7-3.8-3.8V50.8c0-19.4-15.8-35.2-35.2-35.2S39.8,31.4,39.8,50.8v28.3
				c0,2.1-1.7,3.8-3.8,3.8s-3.8-1.7-3.8-3.8V50.8C32.3,27.2,51.5,8.1,75,8.1c23.5,0,42.7,19.1,42.7,42.7V81
				C117.7,83.1,116,84.8,113.9,84.8z"/>
			<path fill="#0B2F6B" d="M129.9,163.7H23.5c-6.1,0-11.1-5-11.1-11.1V89.1c0-6.1,5-11.1,11.1-11.1h106.4c6.1,0,11.1,5,11.1,11.1
				v63.5C141.1,158.7,136.1,163.7,129.9,163.7z M23.5,85.5c-2,0-3.6,1.6-3.6,3.6v63.5c0,2,1.6,3.6,3.6,3.6h106.4
				c2,0,3.6-1.6,3.6-3.6V89.1c0-2-1.6-3.6-3.6-3.6H23.5z"/>
			<path fill="#0B2F6B" d="M88.3,115c0-6.4-5.2-11.6-11.6-11.6s-11.6,5.2-11.6,11.6c0,4.1,2.1,7.6,5.3,9.7v9.6
				c0,3.5,2.8,6.3,6.3,6.3c3.5,0,6.3-2.8,6.3-6.3v-9.6C86.2,122.6,88.3,119.1,88.3,115z"/>
		</g>
		<g>
			<circle fill="#0B2F6B" cx="138" cy="142.5" r="41.3"/>
			<path fill="#FFFFFF" d="M146.3,165.8c-1,0-1.8-0.8-1.8-1.8v-26.7c0-4.2-3.4-7.6-7.6-7.6h-18.1c-1,0-1.8-0.8-1.8-1.8
				s0.8-1.8,1.8-1.8h18.1c6.2,0,11.2,5,11.2,11.2V164C148.1,165,147.3,165.8,146.3,165.8z"/>
			<path fill="#FFFFFF" d="M146.3,165.8c-0.5,0-0.9-0.2-1.3-0.5l-12.2-12.2c-0.7-0.7-0.7-1.8,0-2.5c0.7-0.7,1.8-0.7,2.5,0l10.9,10.9
				l10.9-10.9c0.7-0.7,1.8-0.7,2.5,0c0.7,0.7,0.7,1.8,0,2.5l-12.2,12.2C147.2,165.7,146.7,165.8,146.3,165.8z"/>
		</g>
	</g>
</g>
</svg>
