<?xml version="1.0" encoding="utf-8"?>
<!-- Generator: Adobe Illustrator 17.1.0, SVG Export Plug-In . SVG Version: 6.00 Build 0)  -->
<!DOCTYPE svg PUBLIC "-//W3C//DTD SVG 1.1//EN" "http://www.w3.org/Graphics/SVG/1.1/DTD/svg11.dtd">
<svg version="1.1" id="Fix__x26__Fall" xmlns="http://www.w3.org/2000/svg" xmlns:xlink="http://www.w3.org/1999/xlink" x="0px"
	 y="0px" viewBox="0 0 841.9 595.3" enable-background="new 0 0 841.9 595.3" xml:space="preserve">
<g>
	<g>
		<path fill="#0B2F6B" d="M277.3,288.4c-7.3,0-13.2-5.9-13.2-13.2v-99.4c0-82.5,67.1-149.7,149.7-149.7
			c82.5,0,149.7,67.1,149.7,149.7V216c0,7.3-5.9,13.2-13.2,13.2s-13.2-5.9-13.2-13.2v-40.2c0-68-55.3-123.3-123.3-123.3
			s-123.3,55.3-123.3,123.3v99.4C290.5,282.5,284.6,288.4,277.3,288.4z"/>
	</g>
	<g>
		<path fill="#0B2F6B" d="M606.4,571.8H233c-21.5,0-39.1-17.5-39.1-39.1V310.2c0-21.5,17.5-39.1,39.1-39.1h373.4
			c21.5,0,39.1,17.5,39.1,39.1v222.6C645.5,554.3,627.9,571.8,606.4,571.8z M233,297.5c-7,0-12.7,5.7-12.7,12.7v222.6
			c0,7,5.7,12.7,12.7,12.7h373.4c7,0,12.7-5.7,12.7-12.7V310.2c0-7-5.7-12.7-12.7-12.7H233z"/>
	</g>
	<path fill="#0B2F6B" d="M460.4,401.3c0-22.5-18.2-40.7-40.8-40.7c-22.6,0-40.8,18.2-40.8,40.7c0,14.2,7.4,26.6,18.5,33.9v33.7
		c0,12.3,10,22.3,22.3,22.3c12.3,0,22.3-10,22.3-22.3v-33.7C453,427.9,460.4,415.5,460.4,401.3z"/>
</g>
</svg>
