<?xml version="1.0" encoding="utf-8"?>
<!-- Generator: Adobe Illustrator 17.1.0, SVG Export Plug-In . SVG Version: 6.00 Build 0)  -->
<!DOCTYPE svg PUBLIC "-//W3C//DTD SVG 1.1//EN" "http://www.w3.org/Graphics/SVG/1.1/DTD/svg11.dtd">
<svg version="1.1" id="Layer_2" xmlns="http://www.w3.org/2000/svg" xmlns:xlink="http://www.w3.org/1999/xlink" x="0px" y="0px"
	 viewBox="0 0 841.9 595.3" enable-background="new 0 0 841.9 595.3" xml:space="preserve">
<g>
	<path fill="#0B2F6B" d="M92.9,443.6h173c5.5,0,10,1.7,13.6,5c3.6,3.3,5.3,7.2,5.3,11.8c0,4.4-1.8,8.2-5.3,11.5
		c-3.6,3.3-8.1,5-13.6,5H63.5c-6.1,0-10.8-1.5-14-4.6c-3.2-3.1-4.7-6.9-4.7-11.4c0-5.8,3.5-12,10.5-18.7c9.9-9.9,18.3-19,25.1-27.5
		c6.8-8.5,12.5-18.4,17.2-29.6c4.6-11.2,6.9-23.2,6.9-35.8c0-11.8-1.9-24.3-5.6-37.4H44.8c-5.5,0-10-1.7-13.6-5
		c-3.6-3.3-5.3-7.3-5.3-12c0-4.5,1.8-8.4,5.3-11.5c3.6-3.2,8.1-4.7,13.6-4.7h43.7c-10.7-19.2-17.9-33.6-21.7-43
		c-3.8-9.4-5.7-19.4-5.7-30.1c0-17.5,4.4-32.9,13.1-46.4c8.7-13.4,21-23.9,36.9-31.4c15.9-7.5,33.6-11.3,53.4-11.3
		c16.8,0,32.4,3,46.6,9c14.2,6,26.2,13.7,35.9,23.2s17.1,19.4,22.2,29.8c5.1,10.4,7.6,20.3,7.6,29.5c0,5.2-1.4,9.4-4.1,12.6
		c-2.8,3.2-6.7,4.9-11.9,4.9c-7.8,0-13-4.1-15.8-12.4c-7-20.9-16.9-36.7-29.7-47.6c-12.9-10.8-30-16.3-51.3-16.3
		c-18.4,0-33.7,5.1-45.9,15.2c-12.1,10.1-18.2,25.3-18.2,45.5c0,8.3,1.7,16.9,5,26c3.3,9.1,10,23.3,19.9,42.7h60.6
		c5.5,0,10,1.6,13.6,4.7c3.6,3.2,5.3,7,5.3,11.5c0,4.7-1.8,8.7-5.3,12c-3.6,3.3-8.1,5-13.6,5h-50.7c3.7,11.6,5.5,24.8,5.5,39.3
		c0,15.4-3.8,30.5-11.4,45.4C121.2,411.4,109.2,427.1,92.9,443.6z"/>
	<path fill="#0B2F6B" d="M363.7,260.6l18.4-118.2c1.3-7.9,3.4-13.7,6.4-17.5c3-3.7,8-5.6,14.9-5.6h106.3c5.5,0,10,1.6,13.6,4.7
		s5.3,7,5.3,11.7c0,4.5-1.8,8.4-5.3,11.8c-3.6,3.4-8.1,5.1-13.6,5.1h-93.9l-16,103.6c11.2-6,24.1-9,38.8-9c17,0,33,4.7,47.9,14
		c15,9.3,26.8,22,35.4,38.2c8.7,16.2,13,34.2,13,54.1c0,24.8-4.7,46.8-14,66c-9.3,19.3-22.4,34.1-39.2,44.5
		c-16.8,10.4-35.7,15.7-56.5,15.7c-13.6,0-26.2-1.9-37.9-5.8c-11.6-3.9-22.1-9-31.3-15.3s-16.3-12.5-21.4-18.7
		c-5-6.1-7.5-11.1-7.5-14.8c0-3.7,1.6-7.6,4.7-11.8c3.1-4.1,7.4-6.2,12.7-6.2c3.1,0,6.7,1.9,10.9,5.8c4.2,3.9,9.5,8.6,15.8,14.1
		c6.3,5.5,13.8,10.1,22.4,13.8c8.6,3.7,18.9,5.6,30.9,5.6c22,0,39.4-8.4,52.2-25.1c12.8-16.7,19.3-37.8,19.3-63.2
		c0-15.5-2.8-29.1-8.5-40.8c-5.7-11.6-13.8-20.7-24.3-27.2c-10.6-6.5-23-9.7-37.2-9.7c-6.9,0-12.3,0.7-16.1,2.1
		c-3.8,1.4-9.7,3.8-17.6,7.4c-7.9,3.6-13.9,5.3-17.9,5.3c-3.2,0-6.3-1.3-9.1-3.9c-2.8-2.6-4.2-5.7-4.2-9.5
		C361.3,279.4,362.1,272.3,363.7,260.6z"/>
	<path fill="#0B2F6B" d="M702.2,479.7c-13.3,0-26.5-3.3-39.7-9.9c-13.2-6.6-25.3-17.1-36.3-31.4c-11-14.3-19.9-33.1-26.7-56.4
		s-10.2-51.3-10.2-84c0-32.7,3.4-60.7,10.2-84.1c6.8-23.4,15.7-42.2,26.7-56.5c11-14.3,23.1-24.7,36.3-31.2
		c13.2-6.5,26.4-9.7,39.7-9.7c13.3,0,26.5,3.2,39.6,9.6c13.1,6.4,25.2,16.8,36.4,31.2c11.2,14.4,20.1,33.3,26.8,56.7
		c6.7,23.4,10.1,51.4,10.1,84.1c0,32.7-3.3,60.7-9.9,84.1c-6.6,23.4-15.6,42.2-26.8,56.5c-11.2,14.3-23.4,24.8-36.5,31.3
		S715.5,479.7,702.2,479.7z M702.2,149.2c-12.3,0-23.1,3.7-32.5,11.2c-9.4,7.4-17.2,17.9-23.3,31.3c-6.1,13.4-10.7,29-13.7,46.7
		c-3,17.7-4.5,37.6-4.5,59.6c0,22,1.5,41.8,4.5,59.5c3,17.6,7.6,33.2,13.8,46.8c6.2,13.6,14,24,23.4,31.3
		c9.4,7.3,20.1,10.9,32.3,10.9c24.3,0,42.7-13.5,55.2-40.5c12.5-27,18.8-63,18.8-108c0-21.5-1.6-41.5-4.7-59.9s-7.7-34.2-13.7-47.2
		c-6-13-13.6-23.2-22.9-30.6C725.6,152.9,714.7,149.2,702.2,149.2z"/>
</g>
</svg>
