<?xml version="1.0" encoding="utf-8"?>
<!-- Generator: Adobe Illustrator 17.1.0, SVG Export Plug-In . SVG Version: 6.00 Build 0)  -->
<!DOCTYPE svg PUBLIC "-//W3C//DTD SVG 1.1//EN" "http://www.w3.org/Graphics/SVG/1.1/DTD/svg11.dtd">
<svg version="1.1" id="Layer_2" xmlns="http://www.w3.org/2000/svg" xmlns:xlink="http://www.w3.org/1999/xlink" x="0px" y="0px"
	 viewBox="0 0 841.9 595.3" enable-background="new 0 0 841.9 595.3" xml:space="preserve">
<g>
	<g>
		<g>
			<g>
				<g>
					<path fill="#0B2F6B" d="M506.5,447.9H146.4c-25.6,0-48.9-24.1-48.9-50.5V62.8c0-25.3,22.4-46.6,48.9-46.6h360.1
						c11.3,0,22.2,4.1,30.8,11.5l193.4,167.4c10.3,8.9,16.2,21.9,16.2,35.7s-5.9,26.8-16.2,35.7L537.3,434.7
						C530.4,440.7,519.5,447.9,506.5,447.9z M146.4,36.8c-15.1,0-28.3,12.1-28.3,26v334.6c0,14.8,14.3,29.9,28.3,29.9h360.1
						c5.1,0,11.2-2.9,17.2-8.1l193.4-168.2c5.8-5,9.1-12.3,9.1-20.1c0-7.8-3.3-15.1-9.1-20.1L523.7,43.3c-4.8-4.2-11-6.5-17.2-6.5
						H146.4z"/>
				</g>
			</g>
		</g>
		<g>
			<path fill="#0B2F6B" d="M255.3,324.8h111.5c3.5,0,6.5,1.1,8.8,3.2c2.3,2.1,3.4,4.7,3.4,7.6c0,2.8-1.1,5.3-3.4,7.4
				c-2.3,2.1-5.2,3.2-8.8,3.2H236.4c-4,0-7-1-9-3c-2-2-3.1-4.4-3.1-7.4c0-3.8,2.3-7.8,6.8-12c6.4-6.4,11.8-12.3,16.2-17.8
				s8.1-11.8,11.1-19.1c3-7.2,4.5-14.9,4.5-23.1c0-7.6-1.2-15.6-3.6-24.1h-34.9c-3.5,0-6.5-1.1-8.8-3.2c-2.3-2.1-3.4-4.7-3.4-7.7
				c0-2.9,1.1-5.4,3.4-7.4c2.3-2,5.2-3.1,8.8-3.1h28.2c-6.9-12.4-11.5-21.6-14-27.7c-2.5-6-3.7-12.5-3.7-19.4
				c0-11.3,2.8-21.2,8.4-29.9c5.6-8.7,13.6-15.4,23.8-20.3c10.2-4.8,21.7-7.3,34.4-7.3c10.8,0,20.9,1.9,30,5.8
				c9.2,3.9,16.9,8.8,23.1,14.9c6.3,6.1,11,12.5,14.3,19.2s4.9,13.1,4.9,19c0,3.3-0.9,6.1-2.7,8.1c-1.8,2.1-4.3,3.1-7.7,3.1
				c-5,0-8.4-2.7-10.2-8c-4.5-13.5-10.9-23.7-19.2-30.7c-8.3-7-19.3-10.5-33.1-10.5c-11.9,0-21.7,3.3-29.6,9.8
				c-7.8,6.5-11.7,16.3-11.7,29.3c0,5.3,1.1,10.9,3.2,16.7c2.1,5.8,6.4,15,12.8,27.5h39.1c3.5,0,6.5,1,8.7,3.1
				c2.3,2,3.4,4.5,3.4,7.4c0,3-1.1,5.6-3.4,7.7s-5.2,3.2-8.8,3.2h-32.7c2.4,7.5,3.6,16,3.6,25.3c0,9.9-2.5,19.7-7.4,29.2
				C273.6,304.1,265.8,314.2,255.3,324.8z"/>
		</g>
		<g>
			<path fill="#0B2F6B" d="M602.2,275.4c-25,0-45.3-20.3-45.3-45.3c0-25,20.3-45.3,45.3-45.3c25,0,45.3,20.3,45.3,45.3
				C647.5,255.1,627.2,275.4,602.2,275.4z M602.2,196.8c-18.3,0-33.3,14.9-33.3,33.3s14.9,33.3,33.3,33.3s33.3-14.9,33.3-33.3
				S620.5,196.8,602.2,196.8z"/>
		</g>
	</g>
	<circle fill="#0B2F6B" cx="518" cy="437.3" r="141.8"/>
	<g>
		<path fill="#FFFFFF" d="M442.5,433.6h16.1c1.7,0,3,0.4,4,1.3c0.9,0.8,1.4,2.1,1.4,3.8c0,3.5-1.8,5.2-5.4,5.2H445
			c0.6,3.3,0.9,6.1,0.9,8.2c0,2.1-0.4,4.4-1.3,6.9c-0.8,2.5-2.1,5.1-3.7,7.6c-1.6,2.6-3.5,4.8-5.7,6.7h42c1.6,0,2.9,0.4,3.9,1.3
			s1.5,2.2,1.5,3.9c0,1.7-0.5,2.9-1.4,3.8s-2.3,1.3-3.9,1.3h-49.9c-2,0-3.6-0.4-4.8-1.1c-1.2-0.7-1.8-2.1-1.8-4.1
			c0-1.2,0.8-2.6,2.3-4.3c1.5-1.7,3.3-3.6,5.2-5.7c1.9-2.1,3.5-4.5,4.8-7.2c1.3-2.7,2-5.8,2-9.2c0-3.3-0.3-6-0.9-8.1h-12.5
			c-1.6,0-2.9-0.4-3.9-1.3s-1.5-2.2-1.5-3.9s0.5-3,1.5-3.8c1-0.9,2.3-1.3,4-1.3h9.6c-1.9-3.5-3.4-6.7-4.5-9.4
			c-1.1-2.8-1.6-5.6-1.6-8.5c0-4.3,1.2-8.2,3.7-11.5c2.5-3.4,5.8-6,10-8c4.2-1.9,8.6-2.9,13.2-2.9c3.5,0,7.1,0.7,10.6,2
			c3.5,1.4,6.6,3.1,9.2,5.3c2.6,2.2,4.7,4.6,6.3,7.3c1.6,2.7,2.4,5.3,2.4,7.8c0,1.6-0.5,2.9-1.4,3.9c-1,1-2.2,1.5-3.8,1.5
			c-1.8,0-3.2-1-4.4-3c-1.2-2-2.3-4.1-3.5-6.3c-1.2-2.2-2.9-4.1-5.3-5.7c-2.4-1.6-5.7-2.3-10.1-2.3c-4.3,0-8.1,1.1-11.3,3.4
			c-3.2,2.3-4.8,5.4-4.8,9.3c0,2,0.3,4,1,5.8c0.7,1.9,1.5,3.8,2.6,5.8C440.5,429.9,441.5,431.8,442.5,433.6z"/>
		<path fill="#FFFFFF" d="M514.7,403.6l-3.6,24.4c3.1-1.7,7-2.6,11.7-2.6c4.4,0,8.4,1.3,11.9,3.8c3.5,2.5,6.2,5.9,8,10.1
			c1.9,4.2,2.8,8.6,2.8,13.4c0,4.7-0.6,9-1.9,12.9s-3.2,7.3-5.7,10.1c-2.5,2.8-5.6,5-9.1,6.5c-3.6,1.5-7.6,2.3-12.1,2.3
			c-4.6,0-8.9-0.8-12.7-2.5c-3.8-1.7-6.8-3.7-9-6c-2.2-2.3-3.3-4.5-3.3-6.3c0-1.3,0.4-2.4,1.1-3.4s1.7-1.5,3-1.5
			c1.1,0,2.8,1,5.1,2.9c2.3,1.9,4.7,3.5,7,4.7c2.3,1.2,5.3,1.8,8.9,1.8c3.5,0,6.4-0.9,9-2.6c2.5-1.7,4.5-4.1,5.9-7s2.1-6.2,2.1-9.7
			c0-2.7-0.3-5.2-0.9-7.5c-0.6-2.3-1.5-4.4-2.8-6.1c-1.3-1.7-2.9-3.1-4.8-4s-4.2-1.4-6.9-1.4c-2,0-3.7,0.2-5.1,0.5
			c-1.4,0.3-2.8,0.7-4.1,1.2c-1.3,0.5-2.5,0.9-3.5,1.2s-1.7,0.5-2.3,0.5c-1.2,0-2.2-0.3-2.8-1c-0.7-0.6-1-1.4-1-2.4
			c0-0.6,0.3-3.1,0.9-7.4l4.6-31.4c0.2-1.1,0.6-1.9,1.2-2.3c0.7-0.4,1.6-0.6,2.9-0.6H540c1.3,0,2.4,0.5,3.4,1.4
			c0.9,0.9,1.4,2,1.4,3.3c0,1.3-0.5,2.4-1.4,3.4c-0.9,1-2,1.5-3.4,1.5h-25.3V403.6z"/>
		<path fill="#FFFFFF" d="M557.3,438.8c0-6.9,0.7-13.3,2.2-18.9c1.5-5.7,3.6-10.5,6.3-14.5c2.7-4,5.9-7,9.3-9c3.5-2,7.3-3,11.4-3
			c4.1,0,7.9,1,11.5,3.1c3.6,2.1,6.7,5.1,9.3,8.9c2.7,3.9,4.7,8.7,6.2,14.3c1.5,5.6,2.3,12.1,2.3,19.2c0,7.2-0.8,13.6-2.3,19.3
			c-1.5,5.7-3.6,10.4-6.2,14.3c-2.7,3.9-5.8,6.9-9.3,9c-3.6,2.1-7.4,3.1-11.5,3.1s-7.9-1-11.4-3.1c-3.5-2-6.6-5.1-9.4-9.1
			c-2.7-4-4.9-8.8-6.3-14.5C558,452.1,557.3,445.7,557.3,438.8z M569,438.8c0,8.1,0.8,14.8,2.3,20.2c1.5,5.4,3.6,9.3,6.3,12
			c2.6,2.6,5.7,3.9,9,3.9c3.4,0,6.4-1.3,9-3.9c2.7-2.6,4.7-6.6,6.3-12c1.5-5.4,2.3-12.1,2.3-20.2c0-6.2-0.4-11.6-1.3-16.1
			s-2.1-8.2-3.7-11.2c-1.6-2.9-3.5-5.1-5.6-6.5c-2.1-1.4-4.4-2.1-6.9-2.1c-3.3,0-6.3,1.3-9,3.9c-2.7,2.6-4.8,6.5-6.3,11.9
			C569.8,424,569,430.7,569,438.8z"/>
	</g>
</g>
</svg>
