<?xml version="1.0" encoding="utf-8"?>
<!-- Generator: Adobe Illustrator 17.1.0, SVG Export Plug-In . SVG Version: 6.00 Build 0)  -->
<!DOCTYPE svg PUBLIC "-//W3C//DTD SVG 1.1//EN" "http://www.w3.org/Graphics/SVG/1.1/DTD/svg11.dtd">
<svg version="1.1" id="Fix__x26__Fall" xmlns="http://www.w3.org/2000/svg" xmlns:xlink="http://www.w3.org/1999/xlink" x="0px"
	 y="0px" viewBox="0 0 841.9 595.3" enable-background="new 0 0 841.9 595.3" xml:space="preserve">
<g>
	<g>
		<g>
			<g>
				<path fill="#0B2F6B" d="M502,439.2H153.3c-24.8,0-47.4-23.3-47.4-48.9V66.2c0-24.4,21.7-45.1,47.4-45.1H502
					c11,0,21.5,4,29.8,11.2l187.3,162.1c10,8.7,15.8,21.3,15.8,34.7c0,13.3-5.8,25.9-15.8,34.5L531.7,426.4
					C525.1,432.2,514.5,439.2,502,439.2z M153.3,41.1c-14.6,0-27.4,11.7-27.4,25.1v324.1c0,14.6,13.6,28.9,27.4,28.9H502
					c5,0,10.9-2.8,16.6-7.8L706,248.5c5.6-4.8,8.8-11.9,8.9-19.4c0-7.6-3.2-14.7-8.8-19.6L518.7,47.4c-4.6-4.1-10.5-6.3-16.7-6.3
					H153.3z"/>
			</g>
		</g>
	</g>
	<g>
		<path fill="#0B2F6B" d="M258.6,320h108c3.4,0,6.3,1,8.5,3.1c2.2,2.1,3.3,4.5,3.3,7.3c0,2.7-1.1,5.1-3.3,7.2
			c-2.2,2.1-5.1,3.1-8.5,3.1H240.3c-3.8,0-6.7-1-8.7-2.9c-2-1.9-3-4.3-3-7.1c0-3.6,2.2-7.5,6.5-11.7c6.2-6.2,11.4-11.9,15.7-17.2
			c4.3-5.3,7.8-11.5,10.7-18.5s4.3-14.5,4.3-22.3c0-7.4-1.2-15.2-3.5-23.3h-33.8c-3.4,0-6.3-1-8.5-3.1s-3.3-4.6-3.3-7.5
			c0-2.8,1.1-5.2,3.3-7.2c2.2-2,5-3,8.5-3h27.3c-6.7-12-11.2-21-13.6-26.8c-2.4-5.9-3.6-12.1-3.6-18.8c0-10.9,2.7-20.5,8.2-28.9
			c5.5-8.4,13.1-14.9,23-19.6c9.9-4.7,21-7,33.3-7c10.5,0,20.2,1.9,29.1,5.6c8.9,3.7,16.4,8.6,22.4,14.5c6,5.9,10.7,12.1,13.9,18.6
			s4.8,12.7,4.8,18.4c0,3.2-0.9,5.9-2.6,7.9s-4.2,3-7.4,3c-4.8,0-8.1-2.6-9.8-7.7c-4.3-13-10.5-22.9-18.6-29.7
			c-8-6.8-18.7-10.2-32-10.2c-11.5,0-21.1,3.2-28.6,9.5c-7.6,6.3-11.4,15.8-11.4,28.4c0,5.2,1,10.6,3.1,16.2
			c2.1,5.7,6.2,14.5,12.4,26.7h37.8c3.4,0,6.2,1,8.5,3c2.2,2,3.3,4.4,3.3,7.2c0,2.9-1.1,5.4-3.3,7.5c-2.2,2.1-5,3.1-8.5,3.1h-31.6
			c2.3,7.3,3.5,15.5,3.5,24.5c0,9.6-2.4,19-7.1,28.3C276.3,299.9,268.8,309.7,258.6,320z"/>
	</g>
	<g>
		<path fill="#0B2F6B" d="M594.6,272.2c-24.2,0-43.9-19.7-43.9-43.9s19.7-43.9,43.9-43.9s43.9,19.7,43.9,43.9
			S618.8,272.2,594.6,272.2z M594.6,196c-17.8,0-32.2,14.5-32.2,32.2s14.5,32.2,32.2,32.2s32.2-14.5,32.2-32.2S612.4,196,594.6,196z
			"/>
	</g>
</g>
<circle fill="#0B2F6B" cx="511.6" cy="428.9" r="137.4"/>
<g>
	<path fill="#FFFFFF" d="M539.1,506.5c-3.3,0-6-2.7-6-6v-88.7c0-13.9-11.3-25.2-25.2-25.2h-60.3c-3.3,0-6-2.7-6-6s2.7-6,6-6h60.3
		c20.5,0,37.2,16.7,37.2,37.2v88.7C545.1,503.8,542.4,506.5,539.1,506.5z"/>
</g>
<g>
	<path fill="#FFFFFF" d="M539.1,506.4c-1.5,0-3.1-0.6-4.2-1.8l-40.6-40.5c-2.3-2.3-2.3-6.1,0-8.5c2.3-2.3,6.1-2.3,8.5,0l36.4,36.3
		l36.4-36.3c2.3-2.3,6.1-2.3,8.5,0c2.3,2.3,2.3,6.1,0,8.5l-40.6,40.5C542.2,505.8,540.6,506.4,539.1,506.4z"/>
</g>
</svg>
