<?xml version="1.0" encoding="utf-8"?>
<!-- Generator: Adobe Illustrator 17.1.0, SVG Export Plug-In . SVG Version: 6.00 Build 0)  -->
<!DOCTYPE svg PUBLIC "-//W3C//DTD SVG 1.1//EN" "http://www.w3.org/Graphics/SVG/1.1/DTD/svg11.dtd">
<svg version="1.1" id="Layer_2" xmlns="http://www.w3.org/2000/svg" xmlns:xlink="http://www.w3.org/1999/xlink" x="0px" y="0px"
	 viewBox="0 0 841.9 595.3" enable-background="new 0 0 841.9 595.3" xml:space="preserve">
<g>
	<g>
		<g>
			<g>
				<g>
					<path fill="#0B2F6B" d="M507.3,447.7H147.9c-25.5,0-48.8-24-48.8-50.4V63.4c0-25.2,22.3-46.5,48.8-46.5h359.4
						c11.2,0,22,4.1,30.6,11.5l193,167c10.3,8.9,16.2,21.9,16.2,35.6s-5.9,26.7-16.1,35.6l-193,167.8
						C531,440.5,520,447.7,507.3,447.7z M147.9,37.5c-15,0-28.2,12.1-28.2,25.9v333.9c0,15,14,29.8,28.2,29.8h359.4
						c5,0,11.1-2.9,17.2-8.2l193-167.8c5.8-5,9.1-12.3,9.1-20.1s-3.3-15.1-9.1-20.1l-193-167c-4.8-4.2-10.9-6.5-17.2-6.5H147.9z"/>
				</g>
			</g>
		</g>
		<g>
			<path fill="#0B2F6B" d="M256.5,324.9h111.3c3.5,0,6.4,1.1,8.7,3.2c2.3,2.1,3.4,4.7,3.4,7.6c0,2.8-1.1,5.3-3.4,7.4
				c-2.3,2.1-5.2,3.2-8.7,3.2H237.6c-4,0-6.9-1-9-3c-2-2-3-4.4-3-7.3c0-3.7,2.2-7.7,6.7-12c6.4-6.3,11.8-12.3,16.1-17.7
				c4.4-5.5,8.1-11.8,11-19c3-7.2,4.5-14.9,4.5-23c0-7.6-1.2-15.6-3.6-24h-34.8c-3.5,0-6.5-1.1-8.7-3.2c-2.3-2.1-3.4-4.7-3.4-7.7
				c0-2.9,1.1-5.4,3.4-7.4c2.3-2,5.2-3,8.7-3h28.1c-6.9-12.4-11.5-21.6-14-27.6c-2.4-6-3.7-12.5-3.7-19.4c0-11.2,2.8-21.2,8.4-29.8
				s13.5-15.4,23.7-20.2c10.2-4.8,21.6-7.3,34.3-7.3c10.8,0,20.8,1.9,30,5.8s16.9,8.8,23.1,14.9c6.2,6.1,11,12.5,14.3,19.2
				c3.3,6.7,4.9,13,4.9,19c0,3.3-0.9,6-2.7,8.1c-1.8,2.1-4.3,3.1-7.6,3.1c-5,0-8.4-2.7-10.1-8c-4.5-13.4-10.8-23.6-19.1-30.6
				c-8.3-7-19.3-10.5-33-10.5c-11.9,0-21.7,3.3-29.5,9.8c-7.8,6.5-11.7,16.3-11.7,29.3c0,5.3,1.1,10.9,3.2,16.7
				c2.1,5.8,6.4,15,12.8,27.5h39c3.5,0,6.4,1,8.7,3c2.3,2,3.4,4.5,3.4,7.4c0,3-1.1,5.6-3.4,7.7c-2.3,2.1-5.2,3.2-8.7,3.2h-32.6
				c2.4,7.5,3.6,15.9,3.6,25.3c0,9.9-2.4,19.6-7.3,29.2C274.7,304.2,267,314.2,256.5,324.9z"/>
		</g>
		<g>
			<path fill="#0B2F6B" d="M602.7,275.6c-24.9,0-45.2-20.3-45.2-45.2s20.3-45.2,45.2-45.2c24.9,0,45.2,20.3,45.2,45.2
				S627.6,275.6,602.7,275.6z M602.7,197.2c-18.3,0-33.2,14.9-33.2,33.2s14.9,33.2,33.2,33.2c18.3,0,33.2-14.9,33.2-33.2
				S621,197.2,602.7,197.2z"/>
		</g>
	</g>
	<circle fill="#0B2F6B" cx="519" cy="437.1" r="141.5"/>
	<g>
		<path fill="#FFFFFF" d="M572.3,427.1H562v-32.7c0-23.7-19.3-43.1-43.1-43.1s-43.1,19.3-43.1,43.1v32.7h-10.3v-32.7
			c0-29.4,23.9-53.3,53.3-53.3c29.4,0,53.3,23.9,53.3,53.3V427.1z"/>
	</g>
	<g>
		<path fill="#FFFFFF" d="M580.7,521.1H457.3c-7.4,0-13.5-6.1-13.5-13.5V434c0-7.4,6.1-13.5,13.5-13.5h123.5
			c7.4,0,13.5,6.1,13.5,13.5l0,73.7C594.1,515.1,588,521.1,580.7,521.1z M457.3,430.3c-2,0-3.7,1.7-3.7,3.7v73.6
			c0,2,1.7,3.7,3.7,3.7h123.4c2,0,3.7-1.7,3.8-3.8V434c0-2-1.7-3.7-3.7-3.7H457.3z"/>
	</g>
	<path fill="#FFFFFF" d="M532.5,464.1c0-7.4-6-13.5-13.5-13.5c-7.4,0-13.5,6-13.5,13.5c0,4.7,2.5,8.8,6.1,11.2v11.1
		c0,4.1,3.3,7.4,7.4,7.4s7.4-3.3,7.4-7.4v-11.1C530,472.9,532.5,468.8,532.5,464.1z"/>
</g>
</svg>
