<?xml version="1.0" encoding="utf-8"?>
<!-- Generator: Adobe Illustrator 17.1.0, SVG Export Plug-In . SVG Version: 6.00 Build 0)  -->
<!DOCTYPE svg PUBLIC "-//W3C//DTD SVG 1.1//EN" "http://www.w3.org/Graphics/SVG/1.1/DTD/svg11.dtd">
<svg version="1.1" id="Layer_2" xmlns="http://www.w3.org/2000/svg" xmlns:xlink="http://www.w3.org/1999/xlink" x="0px" y="0px"
	 viewBox="0 0 841.9 595.3" enable-background="new 0 0 841.9 595.3" xml:space="preserve">
<g>
	<g>
		<path fill="#0B2F6B" d="M567.4,280.5c-7.8,0-14.2-6.4-14.2-14.2v-85.9c0-73.3-59.6-132.9-132.9-132.9s-132.9,59.6-132.9,132.9
			v85.9c0,7.8-6.4,14.2-14.2,14.2s-14.2-6.4-14.2-14.2v-85.9c0-88.9,72.4-161.3,161.3-161.3s161.3,72.4,161.3,161.3v85.9
			C581.6,274.1,575.2,280.5,567.4,280.5z"/>
	</g>
	<g>
		<path fill="#0B2F6B" d="M621.5,578.9H219.1c-23.2,0-42.1-18.9-42.1-42.1V296.9c0-23.2,18.9-42.1,42.1-42.1h402.4
			c23.2,0,42.1,18.9,42.1,42.1v239.9C663.6,560,644.7,578.9,621.5,578.9z M219.1,283.2c-7.6,0-13.7,6.1-13.7,13.7v239.9
			c0,7.6,6.1,13.7,13.7,13.7h402.4c7.6,0,13.7-6.1,13.7-13.7V296.9c0-7.6-6.1-13.7-13.7-13.7H219.1z"/>
	</g>
	<path fill="#0B2F6B" d="M464.2,395c0-24.3-19.7-43.9-43.9-43.9c-24.3,0-43.9,19.7-43.9,43.9c0,15.3,8,28.7,19.9,36.5v36.3
		c0,13.2,10.7,24,24,24c13.2,0,24-10.7,24-24v-36.3C456.2,423.7,464.2,410.4,464.2,395z"/>
</g>
</svg>
