<?xml version="1.0" encoding="utf-8"?>
<!-- Generator: Adobe Illustrator 17.1.0, SVG Export Plug-In . SVG Version: 6.00 Build 0)  -->
<!DOCTYPE svg PUBLIC "-//W3C//DTD SVG 1.1//EN" "http://www.w3.org/Graphics/SVG/1.1/DTD/svg11.dtd">
<svg version="1.1" id="Layer_2" xmlns="http://www.w3.org/2000/svg" xmlns:xlink="http://www.w3.org/1999/xlink" x="0px" y="0px"
	 viewBox="0 0 841.9 595.3" enable-background="new 0 0 841.9 595.3" xml:space="preserve">
<g>
	<path fill="#0B2F6B" d="M564.8,574.2H290.5c-11,0-19.9-8.9-19.9-19.9V176.2c0-5.4,4.4-9.8,9.8-9.8s9.8,4.4,9.8,9.8v378.1
		c0,0.2,0.1,0.3,0.3,0.3h274.3c0.2,0,0.3-0.1,0.3-0.3V176.2c0-5.4,4.4-9.8,9.8-9.8s9.8,4.4,9.8,9.8v378.1
		C584.7,565.3,575.8,574.2,564.8,574.2z"/>
</g>
<g>
	<path fill="#0B2F6B" d="M613.5,221.2c-3.8,0-7.5-1.4-10.4-4.3L428,41.7L252.9,216.9c-5.7,5.7-15,5.7-20.8,0c-5.7-5.7-5.7-15,0-20.8
		L417.6,10.5c2.8-2.8,6.5-4.3,10.4-4.3l0,0c3.9,0,7.6,1.5,10.4,4.3l185.5,185.6c5.7,5.7,5.7,15,0,20.8
		C621,219.8,617.2,221.2,613.5,221.2z"/>
</g>
<path fill="none" stroke="#0B2F6B" stroke-width="14.742" stroke-linecap="round" stroke-linejoin="round" stroke-miterlimit="10" d="
	M459.4,557.1"/>
<g>
	<path fill="#0B2F6B" d="M403.8,566.4h-64.7c-2.3,0-4.1-1.8-4.1-4.1V435.6c0-5.5,4.5-10,10-10h54.1c4.8,0,8.8,3.9,8.8,8.8v127.9
		C407.9,564.5,406.1,566.4,403.8,566.4z M343.2,558.2h56.5V434.4c0-0.3-0.3-0.6-0.6-0.6H345c-1,0-1.8,0.8-1.8,1.8V558.2z"/>
</g>
<g>
	<path fill="#0B2F6B" d="M505.8,507.7h-53c-5.5,0-10-4.5-10-10v-62.1c0-5.5,4.5-10,10-10h53c5.5,0,10,4.5,10,10v62.1
		C515.8,503.2,511.3,507.7,505.8,507.7z M452.8,433.8c-1,0-1.8,0.8-1.8,1.8v62.1c0,1,0.8,1.8,1.8,1.8h53c1,0,1.8-0.8,1.8-1.8v-62.1
		c0-1-0.8-1.8-1.8-1.8H452.8z"/>
</g>
<g>
	<path fill="#0B2F6B" d="M505.8,390.1h-53c-5.5,0-10-4.5-10-10V318c0-5.5,4.5-10,10-10h53c5.5,0,10,4.5,10,10v62.1
		C515.8,385.6,511.3,390.1,505.8,390.1z M452.8,316.2c-1,0-1.8,0.8-1.8,1.8v62.1c0,1,0.8,1.8,1.8,1.8h53c1,0,1.8-0.8,1.8-1.8V318
		c0-1-0.8-1.8-1.8-1.8H452.8z"/>
</g>
<g>
	<path fill="#0B2F6B" d="M398,390.1h-53c-5.5,0-10-4.5-10-10V318c0-5.5,4.5-10,10-10h53c5.5,0,10,4.5,10,10v62.1
		C408,385.6,403.5,390.1,398,390.1z M345,316.2c-1,0-1.8,0.8-1.8,1.8v62.1c0,1,0.8,1.8,1.8,1.8h53c1,0,1.8-0.8,1.8-1.8V318
		c0-1-0.8-1.8-1.8-1.8H345z"/>
</g>
<g>
	<path fill="#0B2F6B" d="M505.8,272.6h-53c-5.5,0-10-4.5-10-10v-62.1c0-5.5,4.5-10,10-10h53c5.5,0,10,4.5,10,10v62.1
		C515.8,268.1,511.3,272.6,505.8,272.6z M452.8,198.7c-1,0-1.8,0.8-1.8,1.8v62.1c0,1,0.8,1.8,1.8,1.8h53c1,0,1.8-0.8,1.8-1.8v-62.1
		c0-1-0.8-1.8-1.8-1.8H452.8z"/>
</g>
<g>
	<path fill="#0B2F6B" d="M398,272.6h-53c-5.5,0-10-4.5-10-10v-62.1c0-5.5,4.5-10,10-10h53c5.5,0,10,4.5,10,10v62.1
		C408,268.1,403.5,272.6,398,272.6z M345,198.7c-1,0-1.8,0.8-1.8,1.8v62.1c0,1,0.8,1.8,1.8,1.8h53c1,0,1.8-0.8,1.8-1.8v-62.1
		c0-1-0.8-1.8-1.8-1.8H345z"/>
</g>
</svg>
