<?xml version="1.0" encoding="utf-8"?>
<!-- Generator: Adobe Illustrator 16.0.4, SVG Export Plug-In . SVG Version: 6.00 Build 0)  -->
<!DOCTYPE svg PUBLIC "-//W3C//DTD SVG 1.1//EN" "http://www.w3.org/Graphics/SVG/1.1/DTD/svg11.dtd">
<svg version="1.1" id="Fix__x26__Fall" xmlns="http://www.w3.org/2000/svg" xmlns:xlink="http://www.w3.org/1999/xlink" x="0px"
	 y="0px" width="472px" height="412px" viewBox="67.5 191.5 472 412" enable-background="new 67.5 191.5 472 412"
	 xml:space="preserve">
<g>
	<path fill="none" d="M195.471,460.66L195.471,460.66L195.471,460.66z"/>
	<path fill="none" d="M312.506,522.23L312.506,522.23L312.506,522.23z"/>
	<path fill="none" d="M311.343,522.812L311.343,522.812L311.343,522.812z"/>
	<path fill="none" d="M196.852,462.55L196.852,462.55L196.852,462.55z"/>
	<path fill="none" d="M304.001,523.976L304.001,523.976L304.001,523.976z"/>
	<path fill="#0B2F6B" d="M199.396,335.483l-0.436,0.872l-0.509,1.454l-0.218,1.381c-0.073,0.945,0,1.6,0.073,2.181l7.56,46.232
		h-37.364l-26.824-50.521c-2.253-4.289-7.924-6.034-12.285-3.78c-2.181,1.163-3.708,3.053-4.434,5.379
		c-0.727,2.326-0.509,4.798,0.654,6.906l22.317,42.017H92.538c-5.016,0-9.086,4.071-9.086,9.086s4.071,9.087,9.086,9.087h55.392
		l-22.317,41.943c-2.326,4.435-0.654,9.959,3.78,12.285c4.361,2.254,10.032,0.509,12.285-3.78l26.824-50.448h37.364l-7.56,46.232
		c-0.073,0.581-0.146,1.235-0.146,1.817l0.945,3.635l0.509,0.872l0.727,1.018l1.89,1.6c0.654,0.436,1.236,0.727,1.817,0.944
		l43.834,16.574L229.2,510.891l-57.137-2.035c-5.016,0.146-9.232,3.853-9.377,8.723c-0.072,2.399,0.8,4.726,2.399,6.543
		c1.6,1.817,3.926,2.762,6.324,2.907l47.541,1.672l-27.696,47.978c-1.236,2.108-1.526,4.507-0.872,6.906
		c0.654,2.326,2.108,4.288,4.216,5.524c4.216,2.472,9.959,0.872,12.358-3.344l27.696-47.978l25.225,40.271
		c2.544,4.144,8.36,5.452,12.503,2.908c2.036-1.309,3.489-3.271,3.999-5.67c0.509-2.399,0.145-4.798-1.164-6.833l-30.312-48.486
		l18.682-32.349l40.199,31.477l1.018,0.145l2.908-0.218l1.526-0.509l0.873-0.437l0.872-0.581l36.637-29.877l18.683,32.349
		l-30.313,48.486c-1.308,2.035-1.672,4.507-1.163,6.833c0.509,2.398,1.963,4.361,3.998,5.67c4.144,2.617,9.959,1.235,12.504-2.908
		l25.224-40.344l27.696,47.977c2.398,4.144,8.214,5.743,12.357,3.344c4.362-2.472,5.815-8.068,3.344-12.357L392.25,528.7
		l47.468-1.672c5.017-0.146,8.941-4.361,8.724-9.377c-0.146-4.798-4.216-8.724-9.087-8.724l-57.427,2.036l-18.683-32.349
		l43.762-16.574c0.581-0.218,1.163-0.509,1.672-0.8l1.018-0.727l0.8-0.727l0.727-0.945l1.526-3.562
		c0.218-1.382,0.218-2.326,0.073-3.199l-7.561-46.232h37.437l26.824,50.521c2.253,4.289,7.923,6.106,12.285,3.78
		c2.107-1.163,3.707-3.053,4.434-5.379c0.728-2.326,0.509-4.798-0.654-6.906l-22.316-42.017h55.392c5.017,0,9.087-4.07,9.087-9.086
		c0-5.016-4.07-9.087-9.087-9.087h-55.392l22.244-41.944c1.163-2.108,1.381-4.58,0.654-6.906s-2.254-4.216-4.435-5.379
		c-4.361-2.326-9.959-0.509-12.285,3.78l-26.751,50.376h-37.363l7.56-46.232c0.073-0.582,0.146-1.236,0.146-1.817l-0.218-1.527
		l-0.728-2.181l-0.509-0.872l-0.8-1.09l-0.799-0.8l-1.019-0.8c-0.727-0.436-1.235-0.727-1.89-0.945l-43.834-16.574l18.683-32.421
		l57.137,2.036l0,0c5.233,0,9.231-3.853,9.377-8.723c0.146-5.016-3.78-9.232-8.723-9.377l-47.541-1.672l27.695-47.977
		c2.472-4.362,1.018-9.886-3.344-12.358c-4.216-2.472-9.959-0.873-12.357,3.344l-27.696,47.977l-25.225-40.271
		c-2.544-4.071-8.359-5.452-12.503-2.908c-2.035,1.309-3.489,3.271-3.998,5.67s-0.146,4.798,1.163,6.833l30.312,48.486
		l-18.682,32.348l-36.201-29.586c-0.509-0.436-1.018-0.727-1.599-1.018l-1.309-0.582l-2.98-0.509l-1.018,0.073l-3.271,1.018
		c-0.582,0.363-0.945,0.654-1.309,0.945l-36.273,29.659l-18.682-32.348l30.313-48.486c1.308-2.035,1.672-4.507,1.163-6.833
		c-0.509-2.399-1.963-4.361-3.998-5.67c-4.144-2.617-9.959-1.236-12.503,2.908l-25.224,40.344l-27.696-47.977
		c-2.399-4.144-8.214-5.743-12.357-3.344c-2.108,1.236-3.635,3.198-4.216,5.524c-0.654,2.326-0.291,4.798,0.872,6.906l27.696,47.977
		l-47.468,1.672c-5.016,0.146-8.941,4.361-8.723,9.377c0.145,4.87,4.143,8.723,9.086,8.723l57.427-2.036l18.609,32.348
		l-43.761,16.574c-0.582,0.218-1.163,0.509-1.672,0.799l-1.018,0.8l-0.727,0.727l-0.727,0.872L199.396,335.483z M305.6,498.533
		l-32.784-26.824l32.784-56.846l32.785,56.847L305.6,498.533z M354.159,462.623l-32.857-56.846h65.569l6.833,41.871L354.159,462.623
		z M354.086,330.831l39.69,15.047l-6.833,41.798h-65.642L354.086,330.831z M305.6,294.921l32.785,26.823L305.6,378.59
		l-32.784-56.846L305.6,294.921z M257.042,330.831l32.784,56.846h-65.569l-6.833-41.871L257.042,330.831z M224.257,405.777h65.642
		l-32.784,56.846l-39.69-15.048L224.257,405.777z"/>
	<path fill="#FFFFFF" d="M386.943,387.604l6.833-41.798l-39.69-14.975l-32.784,56.773H386.943z"/>
	<path fill="#FFFFFF" d="M272.743,471.709l32.784,26.824l32.857-26.824L305.6,414.863L272.743,471.709z"/>
	<path fill="#FFFFFF" d="M321.302,405.777l32.784,56.846l39.618-14.975l-6.833-41.871H321.302z"/>
	<path fill="#FFFFFF" d="M289.898,405.777h-65.642l-6.833,41.798l39.69,15.048L289.898,405.777z"/>
	<path fill="#FFFFFF" d="M224.257,387.604h65.569l-32.784-56.773"/>
	<path fill="#FFFFFF" d="M338.385,321.744L305.6,294.921l-32.857,26.823l32.784,56.846L338.385,321.744z"/>
</g>
</svg>
