<?xml version="1.0" encoding="utf-8"?>
<!-- Generator: Adobe Illustrator 17.1.0, SVG Export Plug-In . SVG Version: 6.00 Build 0)  -->
<!DOCTYPE svg PUBLIC "-//W3C//DTD SVG 1.1//EN" "http://www.w3.org/Graphics/SVG/1.1/DTD/svg11.dtd">
<svg version="1.1" id="Layer_2" xmlns="http://www.w3.org/2000/svg" xmlns:xlink="http://www.w3.org/1999/xlink" x="0px" y="0px"
	 viewBox="0 0 841.9 595.3" enable-background="new 0 0 841.9 595.3" xml:space="preserve">
<g>
	<g>
		<path fill="#0B2F6B" d="M386.5,545.2c-3.7,0-7.3-1.7-9.6-4.8c-4-5.3-2.9-12.8,2.4-16.8c37.5-28,60.5-62.8,68.2-103.2
			c9.1-47.5-2.9-102.9-35.6-165.1c-4.3,13.6-11.7,29.9-24.4,46.8c-3.1,4.1-8.4,5.8-13.3,4.3c-4.9-1.6-8.2-6-8.4-11.2
			c-0.4-13.5-6.7-49.8-27.6-89.7c-15.3-29.3-36-56.4-61.4-80.7c-26.3-25-57.8-47-93.8-65.7c2.9,12.6,5.6,29,6.2,47.7
			c1.9,57-16.7,108.1-53.8,147.9c-3.1,3.4-7.9,4.6-12.3,3.3c-4.4-1.3-7.6-5.1-8.4-9.6l-3.4-21.4c-28.5,42.2-82.8,134.3-73.5,212.8
			c4,34,19.8,62,47,83.4c5.2,4.1,6.1,11.7,2,16.9c-4.1,5.2-11.7,6.1-16.9,2c-32.4-25.5-51.2-59-56-99.5
			c-5.7-48.7,8.7-106.3,42.8-171.3c25.1-47.7,51.4-81.1,52.5-82.5c3-3.7,7.8-5.4,12.5-4.2c4.6,1.2,8.1,5,8.8,9.7l3.8,23.7
			c21.8-31.3,32.2-68.1,31-109.6c-1.1-38.6-12.5-67.1-12.6-67.4c-1.8-4.6-0.7-9.8,2.8-13.2c3.5-3.4,8.8-4.3,13.3-2.3
			c49.1,22.1,91.3,49.9,125.4,82.5c27.4,26.3,49.7,55.7,66.1,87.5c12.8,24.8,20.1,47.1,24.2,64.3c9.8-22.5,9.5-38.8,9.5-39.1
			c-0.2-5.5,3.4-10.3,8.6-11.9c5.2-1.6,10.9,0.6,13.7,5.3c47.9,79.1,66.4,149.9,54.8,210.6c-8.9,46.5-34.9,86.2-77.4,118
			C391.5,544.4,389,545.2,386.5,545.2z"/>
	</g>
	<path fill="#0B2F6B" d="M573.9,121.6c-11,0-21.3-6.8-25.2-17.7c-5-13.9,2.2-29.3,16.1-34.3l118.8-42.9c13.9-5,29.3,2.2,34.3,16.1
		s-2.2,29.3-16.1,34.3L583,120C580,121.1,576.9,121.6,573.9,121.6z"/>
	<path fill="#0B2F6B" d="M553.3,209c-11,0-21.3-6.8-25.2-17.7c-5-13.9,2.2-29.3,16.1-34.3l237.6-85.7c13.9-5,29.3,2.2,34.3,16.1
		s-2.2,29.3-16.1,34.3l-237.6,85.7C559.4,208.5,556.4,209,553.3,209z"/>
	<path fill="#0B2F6B" d="M624.8,325.8c-12,0-22.9-8.1-26-20.3c-1.3-5-23.4-14.5-47.3-16.2c-12.6-0.9-22.9-10.5-24.6-23.1
		c-1.7-12.5,5.5-24.6,17.4-28.9l237.6-85.7c13.9-5,29.3,2.2,34.3,16.1c5,13.9-2.2,29.3-16.1,34.3l-168,60.6
		c8.8,7.6,15.7,17.4,18.8,29.8c3.6,14.4-5.1,28.9-19.5,32.5C629.1,325.6,626.9,325.8,624.8,325.8z"/>
	<path fill="#0B2F6B" d="M719.5,325.8c-2.2,0-4.3-0.3-6.5-0.8c-14.4-3.6-23.1-18.1-19.5-32.5c12.2-48.6,81.8-55.7,95.6-56.7
		c15-1,27.5,10.2,28.5,24.9c1,14.7-10.1,27.5-24.9,28.5c-23.9,1.7-46.1,11.2-47.3,16.2C742.4,317.7,731.5,325.8,719.5,325.8z"/>
	<g>
		<path fill="#0B2F6B" d="M728,565.6H627c-16,0-25.5-10.2-25.5-27.2v-41.2l-46.9-44.8c-0.1-0.1-0.1-0.1-0.2-0.2
			c-3.5-3.5-10.8-10.8-10.8-21v-58.1c0-15.9,13.1-28.3,29.8-28.3h208.2c16.5,0,29.1,12.1,29.2,28.2c0,0,0,0.1,0,0.1v58.1
			c0,10.2-7.3,17.5-10.8,21c-0.1,0.1-0.1,0.1-0.2,0.2l-46.9,44.8v41.2C752.9,562.9,735.5,565.6,728,565.6z M625.8,541.5
			c0.3,0,0.7,0.1,1.2,0.1h101c0.3,0,0.5,0,0.7,0c0.1-0.6,0.2-1.7,0.2-3.2v-46.3c0-3.3,1.3-6.4,3.7-8.7l50.5-48.3
			c2.5-2.5,3.4-3.7,3.7-4.4v-57.5c0-2.9-1.8-4.4-5.2-4.4H573.4c-0.6,0-5.8,0.1-5.8,4.3v57.6c0.3,0.6,1.2,1.9,3.7,4.4l50.5,48.3
			c2.4,2.3,3.7,5.4,3.7,8.7v46.3C625.5,539.9,625.6,540.9,625.8,541.5z"/>
	</g>
	<path fill="#0B2F6B" d="M293.5,554.1c126.6-105.3-33.2-317.6-33.2-317.6s-15.1,169.3-61.3,73.4c-135.6,181.4-13.1,244.2-13.1,244.2
		S242.1,596.8,293.5,554.1z"/>
</g>
</svg>
