<?xml version="1.0" encoding="utf-8"?>
<!-- Generator: Adobe Illustrator 17.1.0, SVG Export Plug-In . SVG Version: 6.00 Build 0)  -->
<!DOCTYPE svg PUBLIC "-//W3C//DTD SVG 1.1//EN" "http://www.w3.org/Graphics/SVG/1.1/DTD/svg11.dtd">
<svg version="1.1" id="Fix__x26__Fall" xmlns="http://www.w3.org/2000/svg" xmlns:xlink="http://www.w3.org/1999/xlink" x="0px"
	 y="0px" viewBox="0 0 841.9 595.3" enable-background="new 0 0 841.9 595.3" xml:space="preserve">
<g>
	<path fill="#0B2F6B" d="M62.9,541.5c-1.5,0-3.1-0.2-4.6-0.7c-5.1-1.6-8.9-5.8-10.1-10.9c-0.3-1.4-8.1-35.5-0.8-93.8
		c6.6-52.9,27.5-137.3,89.2-239.6C168,144.5,203.8,104.9,243,78.7c37.9-25.4,78.1-37.8,119.3-36.9c87.9,1.9,172,64.9,230.8,172.7
		c4,7.3,1.3,16.5-6,20.5c-7.3,4-16.5,1.3-20.5-6C513.1,130.9,438.4,73.7,361.7,72c-35-0.8-69.2,9.9-101.9,31.8
		c-35.5,23.8-68.3,60.2-97.3,108.2C79.8,349,72.7,452.1,74.8,497.5c24.9-18.1,52.5-31.9,82.4-41.3c31-9.7,64.4-14.6,99.4-14.6
		c0,0,0.1,0,0.1,0c57.7,0,100,13.3,103.9,14.6c100.3,30.2,178.3,30.5,231.6,0.8c43.7-24.3,62.5-64.9,70.5-94.7
		c0.1-0.3,0.2-0.6,0.3-0.9c0-0.1,4.2-13.2,3.7-33.7c-0.7-27.3-9.1-54.1-24.8-79.6c-4.4-7.1-2.2-16.4,4.9-20.8
		c7.1-4.4,16.4-2.2,20.8,4.9c43.7,70.8,26.4,131.5,24.2,138.3c-9.6,35.4-32.1,83.5-84.9,112.9c-30.9,17.2-68.3,25.8-111.8,25.8
		c-42.1,0-90-8-143.3-24.1c-0.1,0-0.3-0.1-0.4-0.1c-0.4-0.1-41-13.3-95.7-13.1c-31.8,0.1-62,4.6-90,13.4
		c-34.6,10.9-65.8,28.6-92.8,52.5C70.1,540.2,66.5,541.5,62.9,541.5z"/>
</g>
<g>
	<path fill="#0B2F6B" d="M820.5,432.3c-6.8,0-12.9-4.6-14.6-11.4c-0.1-0.4-10.9-42-44.5-85.2c-19.5-25.1-42.8-46-69.3-61.9
		c-33.1-20-71.4-32.4-113.8-36.9c-8.3-0.9-14.3-8.3-13.4-16.6c0.9-8.3,8.3-14.3,16.6-13.4c47.2,5.1,89.9,19,126.9,41.5
		c29.7,18.1,55.8,41.6,77.6,69.9c37,48.1,48.6,93.4,49.1,95.3c2,8.1-2.9,16.3-11,18.3C822.9,432.1,821.7,432.3,820.5,432.3z"/>
</g>
<g>
	<path fill="#0B2F6B" d="M153.9,400.3c-1.5,0-3-0.5-4.2-1.6c-2.6-2.3-2.8-6.3-0.5-8.9c32.2-36.1,72.2-67.4,118.8-92.9
		c52-28.5,112.3-49.8,179.2-63.4c45.7-9.3,89.1-12.5,128.9-9.5c3.5,0.3,6.1,3.3,5.8,6.8c-0.3,3.5-3.3,6.1-6.8,5.8
		c-38.7-2.9-80.9,0.2-125.5,9.3C384,259.1,324.9,280,274.1,307.9c-45.4,24.9-84.2,55.2-115.5,90.3
		C157.4,399.6,155.6,400.3,153.9,400.3z"/>
</g>
</svg>
