<?xml version="1.0" encoding="utf-8"?>
<!-- Generator: Adobe Illustrator 16.0.4, SVG Export Plug-In . SVG Version: 6.00 Build 0)  -->
<!DOCTYPE svg PUBLIC "-//W3C//DTD SVG 1.1//EN" "http://www.w3.org/Graphics/SVG/1.1/DTD/svg11.dtd">
<svg version="1.1" id="Layer_1" xmlns="http://www.w3.org/2000/svg" xmlns:xlink="http://www.w3.org/1999/xlink" x="0px" y="0px"
	 width="430px" height="430px" viewBox="88.5 182.5 430 430" enable-background="new 88.5 182.5 430 430" xml:space="preserve">
<g>
	<g>
		<path fill="#0B2F6B" d="M305.818,506.166c-55.247,0-100.171-44.924-100.171-100.171c0-55.246,44.924-100.243,100.171-100.243
			c55.246,0,100.171,44.924,100.171,100.171C405.989,461.169,361.064,506.166,305.818,506.166z M305.818,325.233
			c-44.488,0-80.689,36.201-80.689,80.762c0,44.488,36.201,80.689,80.689,80.689s80.688-36.201,80.688-80.762
			C386.507,361.435,350.307,325.233,305.818,325.233z"/>
	</g>
</g>
<polygon fill="#0B2F6B" points="260.604,331.776 242.285,342.971 241.776,321.454 241.267,300.009 260.095,310.332 278.922,320.581 
	"/>
<g>
	<path fill="#0B2F6B" d="M172.645,409.193H152.8c-1.672,0-2.98-1.381-2.98-2.98c0-1.599,1.381-2.98,2.98-2.98h19.845
		c1.672,0,2.98,1.382,2.98,2.98C175.625,407.812,174.317,409.193,172.645,409.193z"/>
</g>
<g>
	<path fill="#0B2F6B" d="M213.935,317.092c-0.799,0-1.526-0.291-2.108-0.872l-15.193-15.193c-1.163-1.163-1.163-3.053,0-4.289
		c1.163-1.236,3.053-1.163,4.289,0l15.192,15.192c1.163,1.163,1.163,3.053,0,4.289C215.461,316.801,214.734,317.092,213.935,317.092
		z"/>
</g>
<g>
	<path fill="#0B2F6B" d="M305.091,280.746c-1.672,0-2.98-1.381-2.98-2.98V253.85c0-1.672,1.381-2.98,2.98-2.98
		c1.672,0,2.98,1.381,2.98,2.98v23.916C308.071,279.438,306.764,280.746,305.091,280.746z"/>
</g>
<g>
	<path fill="#0B2F6B" d="M397.557,317.165c-0.8,0-1.526-0.291-2.108-0.872c-1.163-1.163-1.163-3.053,0-4.289l15.266-15.265
		c1.163-1.163,3.053-1.163,4.289,0c1.163,1.163,1.163,3.053,0,4.289l-15.266,15.266
		C399.083,316.874,398.356,317.165,397.557,317.165z"/>
</g>
<g>
	<path fill="#0B2F6B" d="M457.601,409.193h-19.772c-1.672,0-2.98-1.381-2.98-2.98c0-1.599,1.381-2.98,2.98-2.98h19.772
		c1.672,0,2.98,1.382,2.98,2.98C460.581,407.812,459.272,409.193,457.601,409.193z"/>
</g>
<g>
	<path fill="#0B2F6B" d="M196.343,519.032c-0.8,0-1.6-0.291-2.108-0.872c-29.804-29.804-46.232-69.422-46.232-111.511
		c0-42.162,16.429-81.779,46.232-111.583c29.731-29.804,69.349-46.233,111.511-46.233c0,0,0,0,0.073,0
		c42.162,0,81.779,16.429,111.583,46.233c29.805,29.804,46.232,69.421,46.232,111.511c0,42.089-16.428,81.779-46.232,111.583
		c-0.581,0.581-1.309,0.872-2.107,0.872l0,0c-0.8,0-1.6-0.291-2.108-0.872l-17.883-18.101c-1.163-1.163-1.163-3.126,0-4.289
		s3.126-1.163,4.289,0l15.702,15.92c27.332-28.423,42.379-65.642,42.379-105.187c0-40.562-15.773-78.653-44.487-107.294
		c-28.714-28.641-66.805-44.415-107.367-44.415l0,0c-40.562,0-78.581,15.774-107.222,44.415
		c-28.641,28.714-44.416,66.805-44.416,107.368c0,39.544,14.975,76.69,42.307,105.113l15.411-15.992
		c1.163-1.236,3.053-1.236,4.289-0.073c1.163,1.163,1.236,3.054,0.073,4.289l-17.592,18.246
		C197.942,518.741,197.215,519.032,196.343,519.032L196.343,519.032z"/>
</g>
<g>
	<path fill="#0B2F6B" d="M469.159,597.904H140.806c-20.499,0-37.219-16.72-37.219-37.219v-328.28c0-20.5,16.72-37.219,37.219-37.219
		h328.28c20.5,0,37.219,16.719,37.219,37.219v328.28c0.072,9.886-3.78,19.264-10.831,26.314
		C488.495,594.051,479.117,597.904,469.159,597.904z M140.806,215.395c-9.377,0-17.01,7.633-17.01,17.01v328.28
		c0,9.377,7.632,17.01,17.01,17.01h328.354c4.579,0,8.796-1.744,11.994-5.016c3.198-3.198,4.942-7.415,4.87-11.922V232.405
		c0-9.377-7.633-17.01-17.01-17.01H140.806L140.806,215.395z"/>
</g>
</svg>
