<?xml version="1.0" encoding="utf-8"?>
<!-- Generator: Adobe Illustrator 17.1.0, SVG Export Plug-In . SVG Version: 6.00 Build 0)  -->
<!DOCTYPE svg PUBLIC "-//W3C//DTD SVG 1.1//EN" "http://www.w3.org/Graphics/SVG/1.1/DTD/svg11.dtd">
<svg version="1.1" id="Layer_2" xmlns="http://www.w3.org/2000/svg" xmlns:xlink="http://www.w3.org/1999/xlink" x="0px" y="0px"
	 viewBox="0 0 841.9 595.3" enable-background="new 0 0 841.9 595.3" xml:space="preserve">
<g>
	<g>
		<g>
			<path fill="#0B2F6B" d="M603.3,577.2c-7.6,0-13.8-6.2-13.8-13.8s6.2-13.8,13.8-13.8c2.4,0,9.6,0,9.6-16.1V245.8
				c0-7.6,6.2-13.8,13.8-13.8s13.8,6.2,13.8,13.8v287.7C640.5,565.7,620.4,577.2,603.3,577.2z"/>
		</g>
		<g>
			<path fill="#0B2F6B" d="M236.2,577.2c-17.9,0-37.2-13.7-37.2-43.7V245.8c0-7.6,6.2-13.8,13.8-13.8s13.8,6.2,13.8,13.8v287.7
				c0,3.8,0.7,16.1,9.6,16.1c7.6,0,13.8,6.2,13.8,13.8S243.8,577.2,236.2,577.2z"/>
		</g>
	</g>
	<g>
		<g>
			<path fill="#0B2F6B" d="M680.6,315.1c-5.3,0-10.6-2-14.6-6L405.1,48.2c-8.1-8.1-8.1-21.1,0-29.2c8.1-8.1,21.1-8.1,29.2,0
				l260.9,260.9c8.1,8.1,8.1,21.1,0,29.2C691.2,313.1,685.9,315.1,680.6,315.1z"/>
		</g>
		<g>
			<path fill="#0B2F6B" d="M158.8,315.1c-5.3,0-10.6-2-14.6-6c-8.1-8.1-8.1-21.1,0-29.2L405.1,19c8.1-8.1,21.1-8.1,29.2,0
				s8.1,21.1,0,29.2L173.4,309.1C169.4,313.1,164.1,315.1,158.8,315.1z"/>
		</g>
	</g>
	<g>
		<g>
			<path fill="#0B2F6B" d="M346.5,577.9c-17.4,0-32.1-13.9-32.1-30.4v-92.1c0-7.6,6.2-13.8,13.8-13.8s13.8,6.2,13.8,13.8v92.1
				c0,0.7,2.1,2.8,4.5,2.8s4.5-2.2,4.5-2.8v-92.1c0-7.6,6.2-13.8,13.8-13.8s13.8,6.2,13.8,13.8v92.1
				C378.6,563.9,363.9,577.9,346.5,577.9z"/>
		</g>
		<g>
			<path fill="#0B2F6B" d="M401.4,469.2c-7.6,0-13.8-6.2-13.8-13.8V335.8c0-0.7-2.1-2.8-4.5-2.8s-4.5,2.2-4.5,2.8v119.6
				c0,7.6-6.2,13.8-13.8,13.8S351,463,351,455.4V335.8c0-16.5,14.7-30.4,32.1-30.4s32.1,13.9,32.1,30.4v119.6
				C415.2,463,409,469.2,401.4,469.2z"/>
		</g>
		<g>
			<path fill="#0B2F6B" d="M419.7,577.9c-17.4,0-32.1-13.9-32.1-30.4v-92.1c0-7.6,6.2-13.8,13.8-13.8s13.8,6.2,13.8,13.8v92.1
				c0,0.7,2.1,2.8,4.5,2.8s4.5-2.2,4.5-2.8v-92.1c0-7.6,6.2-13.8,13.8-13.8s13.8,6.2,13.8,13.8v92.1
				C451.8,563.9,437.1,577.9,419.7,577.9z"/>
		</g>
		<g>
			<path fill="#0B2F6B" d="M474.6,469.2c-7.6,0-13.8-6.2-13.8-13.8V335.8c0-0.7-2.1-2.8-4.5-2.8c-2.4,0-4.5,2.2-4.5,2.8v119.6
				c0,7.6-6.2,13.8-13.8,13.8s-13.8-6.2-13.8-13.8V335.8c0-16.5,14.7-30.4,32.1-30.4c17.4,0,32.1,13.9,32.1,30.4v119.6
				C488.4,463,482.2,469.2,474.6,469.2z"/>
		</g>
		<g>
			<path fill="#0B2F6B" d="M492.9,577.9c-17.4,0-32.1-13.9-32.1-30.4v-92.1c0-7.6,6.2-13.8,13.8-13.8s13.8,6.2,13.8,13.8v92.1
				c0,0.7,2.1,2.8,4.5,2.8s4.5-2.2,4.5-2.8v-92.1c0-7.6,6.2-13.8,13.8-13.8s13.8,6.2,13.8,13.8v92.1
				C525,563.9,510.3,577.9,492.9,577.9z"/>
		</g>
		<g>
			<path fill="#0B2F6B" d="M511.2,469.2c-7.6,0-13.8-6.2-13.8-13.8V335.8c0-16.5,14.7-30.4,32.1-30.4c7.6,0,13.8,6.2,13.8,13.8
				s-6.2,13.8-13.8,13.8c-2.4,0-4.5,2.2-4.5,2.8v119.6C525,463,518.8,469.2,511.2,469.2z"/>
		</g>
		<g>
			<path fill="#0B2F6B" d="M275,577.3h-38.9c-7.6,0-13.8-6.2-13.8-13.8s6.2-13.8,13.8-13.8H275c1.6,0,2.8-1.2,2.8-2.8V335.8
				c0-16.5,14.7-30.4,32.1-30.4c17.4,0,32.1,13.9,32.1,30.4v119.6c0,7.6-6.2,13.8-13.8,13.8s-13.8-6.2-13.8-13.8V335.8
				c0-0.7-2.1-2.8-4.5-2.8c-2.4,0-4.5,2.2-4.5,2.8v211.1C305.4,563.6,291.7,577.3,275,577.3z"/>
		</g>
		<g>
			<path fill="#0B2F6B" d="M603.3,577.3h-38.9c-16.7,0-30.4-13.6-30.4-30.4V335.8c0-0.7-2.1-2.8-4.5-2.8c-7.6,0-13.8-6.2-13.8-13.8
				s6.2-13.8,13.8-13.8c17.4,0,32.1,13.9,32.1,30.4v211.1c0,1.6,1.2,2.8,2.8,2.8h38.9c7.6,0,13.8,6.2,13.8,13.8
				S610.9,577.3,603.3,577.3z"/>
		</g>
	</g>
</g>
</svg>
