<?xml version="1.0" encoding="utf-8"?>
<!-- Generator: Adobe Illustrator 17.1.0, SVG Export Plug-In . SVG Version: 6.00 Build 0)  -->
<!DOCTYPE svg PUBLIC "-//W3C//DTD SVG 1.1//EN" "http://www.w3.org/Graphics/SVG/1.1/DTD/svg11.dtd">
<svg version="1.1" id="Fix__x26__Fall" xmlns="http://www.w3.org/2000/svg" xmlns:xlink="http://www.w3.org/1999/xlink" x="0px"
	 y="0px" viewBox="0 0 841.9 595.3" enable-background="new 0 0 841.9 595.3" xml:space="preserve">
<g>
	<path fill="#0B2F6B" d="M280.7,575.9c-13.2,0-26.7-5.2-37-14.2c-11.2-9.8-17.6-23.4-17.6-37.2V348.8c0-10.9,8.8-19.7,19.7-19.7
		s19.7,8.8,19.7,19.7v175.7c0,5.8,7.8,12,15.2,12s15.2-6.2,15.2-12V348.8c0-10.9,8.8-19.7,19.7-19.7s19.7,8.8,19.7,19.7v175.7
		c0,13.8-6.4,27.4-17.6,37.2C307.4,570.7,293.9,575.9,280.7,575.9z"/>
</g>
<g>
	<path fill="#0B2F6B" d="M385.4,368.5c-10.9,0-19.7-8.8-19.7-19.7V72c0-5.8-7.8-12-15.2-12s-15.2,6.2-15.2,12v276.8
		c0,10.9-8.8,19.7-19.7,19.7s-19.7-8.8-19.7-19.7V72c0-13.8,6.4-27.4,17.6-37.2c10.3-9,23.8-14.2,37-14.2s26.7,5.2,37,14.2
		c11.2,9.8,17.6,23.4,17.6,37.2v276.8C405.1,359.7,396.3,368.5,385.4,368.5z"/>
</g>
<g>
	<path fill="#0B2F6B" d="M420.3,575.9c-13.2,0-26.7-5.2-37-14.2c-11.2-9.8-17.6-23.4-17.6-37.2V348.8c0-10.9,8.8-19.7,19.7-19.7
		s19.7,8.8,19.7,19.7v175.7c0,5.8,7.8,12,15.2,12c7.4,0,15.2-6.2,15.2-12V348.8c0-10.9,8.8-19.7,19.7-19.7s19.7,8.8,19.7,19.7v175.7
		c0,13.8-6.4,27.4-17.6,37.2C447,570.7,433.5,575.9,420.3,575.9z"/>
</g>
<g>
	<path fill="#0B2F6B" d="M525,368.5c-10.9,0-19.7-8.8-19.7-19.7V72c0-5.8-7.8-12-15.2-12s-15.2,6.2-15.2,12v276.8
		c0,10.9-8.8,19.7-19.7,19.7s-19.7-8.8-19.7-19.7V72c0-13.8,6.4-27.4,17.6-37.2c10.3-9,23.8-14.2,37-14.2s26.7,5.2,37,14.2
		c11.2,9.8,17.6,23.4,17.6,37.2v276.8C544.7,359.7,535.9,368.5,525,368.5z"/>
</g>
<g>
	<path fill="#0B2F6B" d="M559.9,575.9c-13.2,0-26.7-5.2-37-14.2c-11.2-9.8-17.6-23.4-17.6-37.2V348.8c0-10.9,8.8-19.7,19.7-19.7
		s19.7,8.8,19.7,19.7v175.7c0,5.8,7.8,12,15.2,12c7.4,0,15.2-6.2,15.2-12V348.8c0-10.9,8.8-19.7,19.7-19.7s19.7,8.8,19.7,19.7v175.7
		c0,13.8-6.4,27.4-17.6,37.2C586.6,570.7,573.1,575.9,559.9,575.9z"/>
</g>
<g>
	<path fill="#0B2F6B" d="M594.8,368.5c-10.9,0-19.7-8.8-19.7-19.7V72c0-13.8,6.4-27.4,17.6-37.2c10.3-9,23.8-14.2,37-14.2
		c10.9,0,19.7,8.8,19.7,19.7S640.6,60,629.7,60c-7.4,0-15.2,6.2-15.2,12v276.8C614.5,359.7,605.7,368.5,594.8,368.5z"/>
</g>
<g>
	<path fill="#0B2F6B" d="M144.3,574.6h-21.6c-10.9,0-19.7-8.8-19.7-19.7s8.8-19.7,19.7-19.7h21.6c6.6,0,12-5.4,12-12V72
		c0-13.8,6.4-27.4,17.6-37.2c10.3-9,23.8-14.2,37-14.2s26.7,5.2,37,14.2c11.2,9.8,17.6,23.4,17.6,37.2v276.8
		c0,10.9-8.8,19.7-19.7,19.7s-19.7-8.8-19.7-19.7V72c0-5.8-7.8-12-15.2-12s-15.2,6.2-15.2,12v451.2
		C195.7,551.5,172.6,574.6,144.3,574.6z"/>
</g>
<g>
	<path fill="#0B2F6B" d="M718,574.6h-21.6c-28.3,0-51.4-23.1-51.4-51.4V72c0-5.8-7.8-12-15.2-12c-10.9,0-19.7-8.8-19.7-19.7
		s8.8-19.7,19.7-19.7c13.2,0,26.7,5.2,37,14.2c11.2,9.8,17.6,23.4,17.6,37.2v451.2c0,6.6,5.4,12,12,12H718
		c10.9,0,19.7,8.8,19.7,19.7S728.9,574.6,718,574.6z"/>
</g>
</svg>
