<?xml version="1.0" encoding="utf-8"?>
<!-- Generator: Adobe Illustrator 17.1.0, SVG Export Plug-In . SVG Version: 6.00 Build 0)  -->
<!DOCTYPE svg PUBLIC "-//W3C//DTD SVG 1.1//EN" "http://www.w3.org/Graphics/SVG/1.1/DTD/svg11.dtd">
<svg version="1.1" id="Layer_2" xmlns="http://www.w3.org/2000/svg" xmlns:xlink="http://www.w3.org/1999/xlink" x="0px" y="0px"
	 viewBox="0 0 841.9 595.3" enable-background="new 0 0 841.9 595.3" xml:space="preserve">
<g>
	<path fill="#0B2F6B" d="M419.1,568.9c-108.8,0-197.3-88.5-197.3-197.3v-96.3C221.8,166.5,310.3,78,419.1,78s197.3,88.5,197.3,197.3
		v96.3C616.4,480.4,527.9,568.9,419.1,568.9z M419.1,102.4c-95.3,0-172.9,77.6-172.9,172.9v96.3c0,95.3,77.6,172.9,172.9,172.9
		c95.3,0,172.9-77.6,172.9-172.9v-96.3C592,179.9,514.4,102.4,419.1,102.4z"/>
</g>
<g>
	<g>
		<path fill="#0A306A" d="M655.8,292.2c-6.7,0-12.2-5.5-12.2-12.2c0-60.8-23.4-118-65.8-160.9c-42.4-42.9-98.7-66.6-158.6-66.6
			c-59.9,0-116.3,23.6-158.7,66.6c-42.4,43-65.8,100.1-65.8,160.9c0,6.7-5.5,12.2-12.2,12.2s-12.2-5.5-12.2-12.2
			c0-67.3,25.9-130.5,72.8-178c47-47.6,109.5-73.8,176-73.8c66.5,0,129,26.2,176,73.8c46.9,47.6,72.8,110.8,72.8,178
			C668,286.7,662.5,292.2,655.8,292.2z"/>
	</g>
	<g>
		<path fill="#0B2F6B" d="M426.3,451.8v-10.2c82.6,0,145.1-22.3,182.9-41c41-20.3,62.8-40.8,63-41l7,7.3
			c-0.9,0.9-22.8,21.6-65.1,42.6C575.3,428.8,511.1,451.8,426.3,451.8z"/>
	</g>
	<circle fill="#0A306A" cx="426.2" cy="446.8" r="31.4"/>
	<path fill="#0A306A" d="M195.3,226c-45.6,0-82.5,36.9-82.5,82.5s36.9,82.5,82.5,82.5V226z"/>
	<path fill="#0A306A" d="M644,226c45.6,0,82.5,36.9,82.5,82.5S689.6,391,644,391V226z"/>
</g>
</svg>
