<?xml version="1.0" encoding="utf-8"?>
<!-- Generator: Adobe Illustrator 17.1.0, SVG Export Plug-In . SVG Version: 6.00 Build 0)  -->
<!DOCTYPE svg PUBLIC "-//W3C//DTD SVG 1.1//EN" "http://www.w3.org/Graphics/SVG/1.1/DTD/svg11.dtd">
<svg version="1.1" id="Fix__x26__Fall" xmlns="http://www.w3.org/2000/svg" xmlns:xlink="http://www.w3.org/1999/xlink" x="0px"
	 y="0px" viewBox="0 0 841.9 595.3" enable-background="new 0 0 841.9 595.3" xml:space="preserve">
<g>
	<path fill="#0B2F6B" d="M542.9,425.2c0,6.2-5,11.2-11.2,11.2H306.3c-6.2,0-11.2-5-11.2-11.2v-352c0-6.2,5-11.2,11.2-11.2h225.4
		c6.2,0,11.2,5,11.2,11.2L542.9,425.2L542.9,425.2z"/>
	<g>
		<path fill="#0B2F6B" d="M562.8,578.6H273.5c-20.1,0-33.1-15.6-33.1-39.8V44.5c0-23.1,12.7-37.5,33.1-37.5h289.3
			c20.7,0,34.6,15.1,34.6,37.5v494.3C597.4,562.2,583.2,578.6,562.8,578.6z M273.5,31.6c-3.4,0-8.5,0-8.5,12.9v494.3
			c0,5.2,1,9.7,2.8,12.4c1.1,1.7,2.5,2.8,5.7,2.8h289.3c9.5,0,10-12.7,10-15.2V44.5c0-12.9-7.3-12.9-10-12.9H273.5z"/>
	</g>
	<circle fill="#0B2F6B" cx="418.9" cy="494.5" r="31.1"/>
</g>
<g>
	<path fill="#FFFFFF" d="M340.5,303.9h39.9c1.5,0,2.9,0.6,4,1.7c1.1,1.1,1.7,2.5,1.7,4.1c0,1.5-0.6,2.9-1.7,4
		c-1.1,1.1-2.4,1.7-4,1.7h-51c-2.4,0-4.2-0.6-5.3-1.7c-1.2-1.1-1.7-2.3-1.7-3.7s0.9-3.5,2.8-6.1l36.3-49c5.1-6.7,7.6-12.9,7.6-18.8
		c0-3.2-0.7-6-2.2-8.5c-1.5-2.5-3.4-4.5-6-5.9c-2.5-1.4-5.3-2.1-8.5-2.1c-4.1,0-7.6,1-10.5,3.1s-5.1,4.9-6.6,8.5
		c-1.5,3.6-2.2,7.7-2.2,12.3c0,2.1-0.6,3.6-1.7,4.6c-1.1,1-2.5,1.5-4,1.5c-4.3,0-6.4-2.7-6.4-8.1c0-4.4,0.7-8.7,2.2-12.7
		c1.5-4,3.6-7.6,6.5-10.6c2.8-3.1,6.3-5.5,10.5-7.2c4.2-1.8,9-2.7,14.4-2.7c5.7,0,10.7,1.2,14.9,3.7c4.3,2.5,7.6,5.7,10,9.8
		c2.4,4.1,3.5,8.4,3.5,13c0,3.8-0.5,7.3-1.4,10.7c-0.9,3.4-2.9,7.1-5.9,11.1L340.5,303.9z"/>
	<path fill="#FFFFFF" d="M397.7,262.1c0-8.2,0.9-15.7,2.6-22.4c1.8-6.7,4.3-12.5,7.5-17.2c3.2-4.7,6.9-8.3,11-10.7
		c4.1-2.4,8.6-3.6,13.5-3.6c4.9,0,9.4,1.2,13.6,3.7c4.2,2.5,7.9,6,11,10.6c3.1,4.6,5.6,10.2,7.4,16.9c1.8,6.7,2.7,14.3,2.7,22.8
		c0,8.5-0.9,16.1-2.7,22.8c-1.8,6.7-4.3,12.3-7.4,16.9c-3.1,4.6-6.8,8.1-11,10.6c-4.2,2.5-8.8,3.7-13.6,3.7c-4.9,0-9.4-1.2-13.5-3.6
		c-4.1-2.4-7.8-6-11.1-10.7c-3.2-4.7-5.8-10.5-7.5-17.2C398.5,277.8,397.7,270.4,397.7,262.1z M411.6,262.1c0,9.6,0.9,17.5,2.7,23.9
		c1.8,6.3,4.3,11.1,7.4,14.2c3.1,3.1,6.7,4.6,10.7,4.6c4,0,7.5-1.6,10.7-4.6c3.1-3.1,5.6-7.8,7.4-14.2c1.8-6.3,2.7-14.3,2.7-23.9
		c0-7.4-0.5-13.7-1.6-19.1c-1.1-5.4-2.5-9.8-4.4-13.2c-1.9-3.5-4.1-6-6.6-7.7c-2.5-1.7-5.2-2.5-8.2-2.5c-3.9,0-7.5,1.5-10.7,4.6
		c-3.2,3.1-5.6,7.7-7.4,14.1C412.5,244.6,411.6,252.5,411.6,262.1z"/>
	<path fill="#FFFFFF" d="M474.5,229.5c0-5.9,2.1-10.9,6.2-15.1c4.1-4.1,9.1-6.2,15-6.2c3.9,0,7.5,0.9,10.7,2.8
		c3.2,1.9,5.7,4.5,7.6,7.7c1.9,3.2,2.8,6.8,2.8,10.7c0,3.9-0.9,7.5-2.8,10.7c-1.9,3.3-4.5,5.9-7.7,7.8c-3.3,1.9-6.8,2.9-10.5,2.9
		c-3.8,0-7.3-1-10.6-2.9c-3.3-1.9-5.9-4.5-7.8-7.8C475.4,236.9,474.5,233.4,474.5,229.5z M482.5,229.5c0,3.6,1.3,6.7,3.8,9.3
		c2.6,2.6,5.7,3.9,9.3,3.9c2.3,0,4.5-0.6,6.6-1.8c2-1.2,3.6-2.8,4.8-4.8c1.2-2,1.7-4.3,1.7-6.7c0-2.4-0.6-4.6-1.7-6.6
		c-1.1-2-2.7-3.6-4.8-4.8c-2-1.2-4.2-1.8-6.6-1.8c-3.6,0-6.7,1.3-9.3,4C483.8,222.8,482.5,225.9,482.5,229.5z"/>
</g>
</svg>
