<?xml version="1.0" encoding="utf-8"?>
<!-- Generator: Adobe Illustrator 17.1.0, SVG Export Plug-In . SVG Version: 6.00 Build 0)  -->
<!DOCTYPE svg PUBLIC "-//W3C//DTD SVG 1.1//EN" "http://www.w3.org/Graphics/SVG/1.1/DTD/svg11.dtd">
<svg version="1.1" id="Fix__x26__Fall" xmlns="http://www.w3.org/2000/svg" xmlns:xlink="http://www.w3.org/1999/xlink" x="0px"
	 y="0px" viewBox="0 0 841.9 595.3" enable-background="new 0 0 841.9 595.3" xml:space="preserve">
<g>
	<g>
		<g>
			<path fill="#0B2F6B" d="M606.9,585c-7.7,0-14-6.3-14-14s6.3-14,14-14c2.4,0,9.8,0,9.8-16.5V247.4c0-7.7,6.3-14,14-14
				s14,6.3,14,14v293.1C644.7,573.3,624.3,585,606.9,585z"/>
		</g>
		<g>
			<path fill="#0B2F6B" d="M232.9,581.5c-9.6,0-18.3-4-24.6-11.2c-6.4-7.4-9.8-17.7-9.8-29.9V247.4c0-5.8,4.7-10.6,10.6-10.6
				s10.6,4.7,10.6,10.6v293.1c0,12.3,5.1,19.9,13.2,19.9c5.8,0,10.6,4.7,10.6,10.6S238.7,581.5,232.9,581.5z"/>
		</g>
	</g>
	<g>
		<g>
			<path fill="#0B2F6B" d="M685.7,318c-5.4,0-10.8-2.1-14.9-6.2L405,46.2c-8.2-8.2-8.2-21.5,0-29.8c8.2-8.2,21.5-8.2,29.8,0
				l265.8,265.7c8.2,8.2,8.2,21.5,0,29.8C696.5,316,691.1,318,685.7,318z"/>
		</g>
		<g>
			<path fill="#0B2F6B" d="M154.1,318c-5.4,0-10.8-2.1-14.9-6.2c-8.2-8.2-8.2-21.5,0-29.8L405,16.4c8.2-8.2,21.5-8.2,29.8,0
				c8.2,8.2,8.2,21.5,0,29.8L169,311.9C164.9,316,159.5,318,154.1,318z"/>
		</g>
	</g>
	<g>
		<g>
			
				<path fill="none" stroke="#0B2F6B" stroke-width="21.1148" stroke-linecap="round" stroke-linejoin="round" stroke-miterlimit="10" d="
				M461.6,378.3"/>
		</g>
		<g>
			<path fill="#0B2F6B" d="M606.7,585H497c-17.1,0-30.9-13.9-30.9-30.9V395.2c-0.1-0.8-2.3-2.9-4.6-2.9h-83.4
				c-2.3,0-4.5,2.1-4.6,2.9v158.9c0,17.1-13.9,30.9-30.9,30.9H232.9c-7.7,0-14-6.3-14-14s6.3-14,14-14h109.7c1.6,0,2.9-1.3,2.9-2.9
				V395.2c0-16.8,14.9-30.9,32.6-30.9h83.4c17.7,0,32.6,14.2,32.6,30.9v158.9c0,1.6,1.3,2.9,2.9,2.9h109.7c7.7,0,14,6.3,14,14
				S614.4,585,606.7,585z"/>
		</g>
	</g>
</g>
</svg>
