<?xml version="1.0" encoding="utf-8"?>
<!-- Generator: Adobe Illustrator 17.1.0, SVG Export Plug-In . SVG Version: 6.00 Build 0)  -->
<!DOCTYPE svg PUBLIC "-//W3C//DTD SVG 1.1//EN" "http://www.w3.org/Graphics/SVG/1.1/DTD/svg11.dtd">
<svg version="1.1" id="Layer_41" xmlns="http://www.w3.org/2000/svg" xmlns:xlink="http://www.w3.org/1999/xlink" x="0px" y="0px"
	 viewBox="0 121 595.3 589.5" enable-background="new 0 121 595.3 589.5" xml:space="preserve">
<path fill="#0B2F6B" d="M292.3,249.8c0,0-17.1,5.7-26.2,13.7c-6.1,4.9-9.9,11.3-11.3,18.5c6.5-3.4,13.3-5.7,13.3-5.7l61.4-20.1
	c0,0,2.3,46.7-25,67.2c7.9-1.6,17.1-4.9,27.7-11c40.6-23.2,37.2-87.9,37.2-87.9L292.3,249.8z"/>
<path fill="#0B2F6B" d="M236.9,308.2c0,15.6,14.4,28,30.7,28c7.9,0.4,18.9-2.3,31.8-9.5c1.6-1.1,3-1.8,4.5-3
	c-4.1,0.7-6.8,1.1-12.2,1.1c-21.6,0-38.3-15.6-38.3-34.9c0-2.7,0.4-4.9,1.1-7.6c-3,1.6-5.7,3-7.6,5.4
	C240.3,292.2,236.9,299.9,236.9,308.2z"/>
<path fill="#0B2F6B" d="M481.8,546.6h-77.3c-3,0-5.7,2.7-5.7,5.7s2.7,5.7,5.7,5.7h77.3c3,0,5.7-2.7,5.7-5.7
	C487.6,549.3,485.3,546.6,481.8,546.6z"/>
<g>
	<circle fill="#0B2F6B" cx="158.9" cy="449.2" r="31.8"/>
	<path fill="#0B2F6B" d="M573.5,258.9L454.9,142.5c-2.7-2.7-6.1-3.8-9.5-3.8h-6.1H197.2c-24.6,0-40.2,16.3-40.2,42.4v142.5
		c-76.9,0-139.5,62.5-139.5,139.8S80,603,157,603v37.9c0,26.2,15.1,42.4,40.2,42.4h338.5c25,0,42.1-17.1,42.1-42.4V268.8
		C577.8,265,576.2,261.1,573.5,258.9z M451.1,177.4L451.1,177.4l87.2,85.3h-64.9c-14.4,0-22.8-8.3-22.8-22.8v-62.5L451.1,177.4
		L451.1,177.4z M170.2,546.3l-11.7-33.4l-11.7,33.4l-12.2-11l-16.3,1.1l15.6-44.7c-0.4-1.6-0.7-3-1.8-3.4c-2.7-1.8-10.6,2.3-12.9,0
		c-2.3-2.3,1.8-10.2,0-12.9c-1.8-2.7-10.6-1.8-12.2-4.9c-1.1-3,5.7-8.8,4.9-12.2c-0.7-3.4-9-5.7-9-9c0-3.3,8.8-6.1,9-9
		c0.7-3.4-6.5-9-4.9-12.2c1.1-3,10.2-2.3,12.2-4.9c1.8-2.7-2.3-10.6,0-12.9c2.3-2.3,10.2,1.8,12.9,0s1.8-10.6,4.9-12.2
		c3-1.1,8.8,5.7,12.2,4.9c3.4-0.7,5.7-9,9-9c3.3,0,6.1,8.8,9,9c3.4,0.7,9-6.5,12.2-4.9c3,1.1,2.3,10.2,4.9,12.2
		c2.7,1.8,10.6-2.3,12.9,0c2.3,2.3-1.8,10.2,0,12.9s10.6,1.8,12.2,4.9c1.1,3-5.7,8.8-4.9,12.2c0.8,3.4,9,5.7,9,9c0,3.3-8.8,6.1-9,9
		c-0.7,3.4,6.5,9,4.9,12.2c-1.1,3-10.2,2.3-12.2,4.9c-1.8,2.7,2.3,10.6,0,12.9c-2.3,2.3-10.2-1.8-12.9,0c-0.7,0.7-1.6,1.8-1.8,3.4
		l15.6,44.7l-16.3-1.1L170.2,546.3z M550.1,641c0,6.8-1.6,14.8-14.4,14.8H197.2c-6.5,0-12.4-1.1-12.4-14.8v-41
		c49.6-9.9,89.9-46.2,105-93.6h192.1c3,0,5.7-2.7,5.7-5.7c0-3-2.7-5.7-5.7-5.7H293c2.3-10.2,3.8-20.8,3.8-31.8c0-2.7,0-5.7-0.4-8.3
		h185.3c3,0,5.7-2.7,5.7-5.7s-2.7-5.7-5.7-5.7H295.3c-1.8-14-6.1-27.7-12.2-40.2h199.1c3,0,5.7-2.7,5.7-5.7c0-3-2.7-5.7-5.7-5.7
		h-205c-19.7-33.4-53-57.7-92.5-65.6V181c0-13.7,6.1-14.8,12.4-14.8h242.6l0,0V240c0,20.8,13.3,34.1,34.1,34.1H550l0,0L550.1,641
		L550.1,641z"/>
</g>
</svg>
