<?xml version="1.0" encoding="utf-8"?>
<!-- Generator: Adobe Illustrator 17.1.0, SVG Export Plug-In . SVG Version: 6.00 Build 0)  -->
<!DOCTYPE svg PUBLIC "-//W3C//DTD SVG 1.1//EN" "http://www.w3.org/Graphics/SVG/1.1/DTD/svg11.dtd">
<svg version="1.1" id="Fix__x26__Fall" xmlns="http://www.w3.org/2000/svg" xmlns:xlink="http://www.w3.org/1999/xlink" x="0px"
	 y="0px" viewBox="0 0 841.9 595.3" enable-background="new 0 0 841.9 595.3" xml:space="preserve">
<g>
	<g>
		<g>
			<path fill="#0B2F6B" d="M612.1,587.1H228.7c-25,0-39.3-14.8-39.3-40.6V247.1c0-8.2,6.7-14.9,14.9-14.9s14.9,6.7,14.9,14.9v299.4
				c0,5.6,1.1,8.5,2.1,9.4c0.4,0.3,2.1,1.4,7.4,1.4h383.4c5.9,0,7.4-1,7.6-1.1c0.5-0.4,1.8-2.9,1.8-9.6V247.1
				c0-8.2,6.7-14.9,14.9-14.9s14.9,6.7,14.9,14.9v299.4C651.4,580,630,587.1,612.1,587.1z"/>
		</g>
	</g>
	<g>
		<g>
			<polygon fill="#0B2F6B" points="587.4,515.9 575,515.9 575,276.4 420.5,121.7 265.8,276.4 265.8,515.9 253.4,515.9 253.4,271.2 
				420.5,104.1 587.4,271.2 			"/>
		</g>
	</g>
	<g>
		<g>
			<path fill="#0B2F6B" d="M700.5,328.1c-5.7,0-11.5-2.2-15.8-6.6L404.6,41.4c-8.7-8.7-8.7-22.9,0-31.6c8.7-8.7,22.9-8.7,31.6,0
				l280.1,280.1c8.7,8.7,8.7,22.9,0,31.6C711.9,325.9,706.2,328.1,700.5,328.1z"/>
		</g>
		<g>
			<path fill="#0B2F6B" d="M140.3,328.1c-5.7,0-11.5-2.2-15.8-6.6c-8.7-8.7-8.7-22.9,0-31.6L404.6,9.8c8.7-8.7,22.9-8.7,31.6,0
				s8.7,22.9,0,31.6L156.1,321.5C151.8,325.9,146,328.1,140.3,328.1z"/>
		</g>
	</g>
</g>
</svg>
