<?xml version="1.0" encoding="utf-8"?>
<!-- Generator: Adobe Illustrator 16.0.4, SVG Export Plug-In . SVG Version: 6.00 Build 0)  -->
<!DOCTYPE svg PUBLIC "-//W3C//DTD SVG 1.1//EN" "http://www.w3.org/Graphics/SVG/1.1/DTD/svg11.dtd">
<svg version="1.1" id="Fix__x26__Fall" xmlns="http://www.w3.org/2000/svg" xmlns:xlink="http://www.w3.org/1999/xlink" x="0px"
	 y="0px" width="349px" height="432px" viewBox="130.5 181.5 349 432" enable-background="new 130.5 181.5 349 432"
	 xml:space="preserve">
<g>
	<path fill="#0B2F6B" d="M437.555,600.012H169.755c-14.83,0-24.789-14.466-24.789-27.986V216.34
		c0-13.739,9.959-22.898,24.789-22.898h267.799c15.484,0,26.679,9.668,26.679,22.898v355.686
		C464.233,586.709,451.512,600.012,437.555,600.012z M169.755,210.743c-7.415,0-7.415,3.925-7.415,5.524v355.686
		c0,5.307,3.78,10.612,7.415,10.612h267.799c4.289,0,9.305-5.742,9.305-10.612V216.34c0-5.524-8.94-5.524-9.305-5.524H169.755
		V210.743z"/>
</g>
<path fill="none" stroke="#0B2F6B" stroke-width="17.9871" stroke-linecap="round" stroke-linejoin="round" stroke-miterlimit="10" d="
	M322.41,418.862c0,5.96-8.36,10.758-18.755,10.758c-10.395,0-18.755-4.798-18.755-10.758c0,5.96-8.359,10.758-18.755,10.758
	c-8.505,0-15.556-3.271-17.882-7.778c-0.073,1.163-0.145,2.326-0.145,3.489c0,30.677,24.861,55.538,55.537,55.538
	c30.676,0,55.537-24.861,55.537-55.538c0-1.163-0.072-2.326-0.146-3.489c-2.326,4.435-9.377,7.778-17.882,7.778
	C330.77,429.693,322.41,424.822,322.41,418.862z"/>
<path fill="#0B2F6B" d="M303.655,358.891c-36.71,0-66.441,29.731-66.441,66.44c0,36.71,29.731,66.441,66.441,66.441
	s66.441-29.731,66.441-66.441C370.097,388.694,340.365,358.891,303.655,358.891z M358.975,421.915
	c0.072,1.163,0.146,2.326,0.146,3.489c0,30.676-24.861,55.537-55.538,55.537s-55.537-24.861-55.537-55.537
	c0-1.163,0.073-2.326,0.145-3.489c2.326,4.435,9.377,7.778,17.883,7.778c10.322,0,18.754-4.798,18.754-10.759
	c0,5.961,8.36,10.759,18.755,10.759s18.754-4.798,18.754-10.759c0,5.961,8.36,10.759,18.755,10.759
	C349.597,429.693,356.721,426.35,358.975,421.915z"/>
<g>
	<path fill="#0B2F6B" d="M303.655,516.343c-50.158,0-90.938-40.78-90.938-90.938s40.78-90.938,90.938-90.938
		s90.938,40.78,90.938,90.938S353.813,516.343,303.655,516.343z M303.655,341.735c-46.16,0-83.669,37.509-83.669,83.669
		s37.509,83.669,83.669,83.669s83.669-37.509,83.669-83.669S349.815,341.735,303.655,341.735z"/>
</g>
<rect x="173.753" y="227.607" fill="#0B2F6B" width="53.72" height="33.584"/>
<circle fill="#0B2F6B" cx="365.371" cy="242.946" r="14.175"/>
<path fill="#0B2F6B" d="M415.893,262.863c-15.338,3.708-28.786-9.741-25.079-25.079c1.745-7.196,7.633-13.084,14.829-14.829
	c15.339-3.708,28.787,9.741,25.079,25.079C429.05,255.23,423.089,261.119,415.893,262.863z"/>
<path fill="#FFFFFF" d="M358.975,421.915c0.072,1.163,0.146,2.326,0.146,3.489c0,30.676-24.861,55.537-55.538,55.537
	s-55.537-24.861-55.537-55.537c0-1.163,0.073-2.326,0.145-3.489c2.326,4.435,9.377,7.778,17.883,7.778
	c10.322,0,18.754-4.798,18.754-10.759c0,5.961,8.36,10.759,18.755,10.759s18.754-4.798,18.754-10.759
	c0,5.961,8.36,10.759,18.755,10.759C349.597,429.693,356.721,426.35,358.975,421.915z"/>
<g>
	<rect x="153.545" y="279.074" fill="#0B2F6B" width="300.803" height="7.269"/>
</g>
</svg>
