<?xml version="1.0" encoding="utf-8"?>
<!-- Generator: Adobe Illustrator 17.1.0, SVG Export Plug-In . SVG Version: 6.00 Build 0)  -->
<!DOCTYPE svg PUBLIC "-//W3C//DTD SVG 1.1//EN" "http://www.w3.org/Graphics/SVG/1.1/DTD/svg11.dtd">
<svg version="1.1" id="Layer_2" xmlns="http://www.w3.org/2000/svg" xmlns:xlink="http://www.w3.org/1999/xlink" x="0px" y="0px"
	 viewBox="0 0 841.9 595.3" enable-background="new 0 0 841.9 595.3" xml:space="preserve">
<g>
	<path fill="#0B2F6B" d="M458.6,581.4h-76.7c-3.2,0-6.2-1.3-8.4-3.7s-3.2-5.5-2.9-8.7l24.2-258.6c0.5-5.8,5.4,0.7,11.3,0.7h28.4
		c5.9,0,10.8-6.5,11.3-0.7L469.9,569c0.3,3.2-0.8,6.3-2.9,8.7C464.8,580.1,461.8,581.4,458.6,581.4z M394.4,558.7h51.8l-22-235.9
		h-7.7L394.4,558.7z"/>
</g>
<g>
	<g>
		<path fill="#0B2F6B" d="M438.9,240.1l-18.6-9l-21.2,9l-0.1-4.8c-0.1-6.5-3.1-160.9,8.6-202.8c2.5-9.1,7.3-11,10.8-11
			c3.3,0,6.3,1.7,8.9,5c9.5,11.8,20.9,54.3,28.8,87.9c4.3,18.1,16.1,71.4,14.4,78.9c-1.8,8-10.9,11.3-20.6,14.8
			c-3.3,1.2-8.6,3.1-10.6,4.5L438.9,240.1z"/>
	</g>
	<g>
		<path fill="#0B2F6B" d="M623.1,401.1c-19.6,0-65-12.9-90.4-20.6c-0.6-0.2-64.5-19.6-70.8-25.5c-6-5.6-4.3-15.1-2.6-25.3
			c0.6-3.5,1.6-9,1.4-11.4c-7.1-4.2-19.3-11.4-19.4-11.5l-4.7-2.3l23.3-8.6l-2.9-25.3l4.2,1.5c5.7,3.2,140.9,77.5,171.5,108.5
			c4.9,4.9,6.4,9.6,4.6,13.9C634.6,401.1,626,401.1,623.1,401.1z"/>
	</g>
	<g>
		<path fill="#0B2F6B" d="M212.8,403.2c-6.7,0-9.7-4.3-10.2-8.1c-0.7-4.6-2.1-14.2,57.7-71.5c17.5-16.8,58.4-54.4,65.7-56.6
			c1.1-0.3,2.2-0.5,3.4-0.5c6.6,0,12.9,5.3,19.6,10.8c2.7,2.3,7.1,5.9,9.3,6.9c7.3-4.1,19.6-11.1,19.6-11.1l6-3.4l-2.7,25.5l22.8,9
			l-5.8,3.6c-5.6,3.4-137.5,83.6-179.5,94.6C216.4,402.9,214.5,403.2,212.8,403.2z"/>
	</g>
</g>
<g>
	<path fill="#0B2F6B" d="M420.3,321.2c-27.3,0-49.6-22.2-49.6-49.6s22.2-49.6,49.6-49.6c27.3,0,49.6,22.2,49.6,49.6
		S447.6,321.2,420.3,321.2z M420.3,236.1c-19.7,0-35.6,16-35.6,35.6c0,19.7,16,35.6,35.6,35.6c19.7,0,35.6-16,35.6-35.6
		C455.9,252,439.9,236.1,420.3,236.1z"/>
</g>
</svg>
