<?xml version="1.0" encoding="utf-8"?>
<!-- Generator: Adobe Illustrator 17.1.0, SVG Export Plug-In . SVG Version: 6.00 Build 0)  -->
<!DOCTYPE svg PUBLIC "-//W3C//DTD SVG 1.1//EN" "http://www.w3.org/Graphics/SVG/1.1/DTD/svg11.dtd">
<svg version="1.1" id="Fix__x26__Fall" xmlns="http://www.w3.org/2000/svg" xmlns:xlink="http://www.w3.org/1999/xlink" x="0px"
	 y="0px" viewBox="0 0 841.9 595.3" enable-background="new 0 0 841.9 595.3" xml:space="preserve">
<polygon fill="#0B2F6B" stroke="#0B2F6B" stroke-width="19.3406" stroke-linecap="round" stroke-linejoin="round" stroke-miterlimit="10" points="
	401.4,422.1 356.3,392.2 356.3,568 401.4,545 "/>
<g>
	<g>
		<g>
			<path fill="#0B2F6B" d="M610.4,587.7c-7.9,0-14.3-6.4-14.3-14.3s6.4-14.3,14.3-14.3c2.5,0,10,0,10-16.8V242.9
				c0-7.9,6.4-14.3,14.3-14.3S649,235,649,242.9v299.4C649,575.8,628.2,587.7,610.4,587.7z"/>
		</g>
	</g>
	<g>
		<g>
			<path fill="#0B2F6B" d="M690.8,315.1c-5.5,0-11-2.1-15.2-6.3L419.4,52.6L163.2,308.8c-8.4,8.4-22,8.4-30.4,0s-8.4-22,0-30.4
				L404.2,7c8.4-8.4,22-8.4,30.4,0L706,278.4c8.4,8.4,8.4,22,0,30.4C701.8,313,696.3,315.1,690.8,315.1z"/>
		</g>
	</g>
	<g>
		
			<path fill="none" stroke="#0B2F6B" stroke-width="21.5643" stroke-linecap="round" stroke-linejoin="round" stroke-miterlimit="10" d="
			M462,376.6"/>
	</g>
</g>
<g>
	<g>
		<path fill="#0B2F6B" d="M340.5,587.8H227c-0.1,0-0.3,0-0.4,0c-14.8-0.4-36.9-12.8-36.9-45.4V243c0-7.9,6.4-14.3,14.3-14.3
			s14.3,6.4,14.3,14.3v299.4c0,13.6,5.6,16.4,9.1,16.8h112.9c1.6,0,3-1.3,3-3V393.9c0-17.1,15.3-31.6,33.3-31.6H462
			c18.1,0,33.3,14.5,33.3,31.6v162.2c0,1.6,1.3,3,3,3h112.1c7.9,0,14.3,6.4,14.3,14.3s-6.4,14.3-14.3,14.3H498.3
			c-17.4,0-31.6-14.2-31.6-31.6V393.9c-0.1-0.8-2.4-3-4.7-3h-85.2c-2.4,0-4.7,2.2-4.7,3v162.3C372.1,573.6,357.9,587.8,340.5,587.8z
			"/>
	</g>
</g>
</svg>
