<?xml version="1.0" encoding="utf-8"?>
<!-- Generator: Adobe Illustrator 17.1.0, SVG Export Plug-In . SVG Version: 6.00 Build 0)  -->
<!DOCTYPE svg PUBLIC "-//W3C//DTD SVG 1.1//EN" "http://www.w3.org/Graphics/SVG/1.1/DTD/svg11.dtd">
<svg version="1.1" id="Fix__x26__Fall" xmlns="http://www.w3.org/2000/svg" xmlns:xlink="http://www.w3.org/1999/xlink" x="0px"
	 y="0px" viewBox="0 0 841.9 595.3" enable-background="new 0 0 841.9 595.3" xml:space="preserve">
<polygon fill="#0B2F6B" stroke="#0B2F6B" stroke-width="18.1933" stroke-linecap="round" stroke-linejoin="round" stroke-miterlimit="10" points="
	415.9,409.3 373.4,381.2 373.4,546.6 415.9,524.9 "/>
<g>
	<g>
		<g>
			<path fill="#0B2F6B" d="M612.4,565.1c-7.4,0-13.5-6-13.5-13.5s6-13.5,13.5-13.5c2.3,0,9.4,0,9.4-15.8V240.7
				c0-7.4,6-13.5,13.5-13.5s13.5,6,13.5,13.5v281.6C648.8,553.9,629.2,565.1,612.4,565.1z"/>
		</g>
	</g>
	<g>
		<g>
			<path fill="#0B2F6B" d="M243.7,250.8L432.8,61.7l241,241c3.9,3.9,9.1,5.9,14.3,5.9s10.3-2,14.3-5.9c7.9-7.9,7.9-20.7,0-28.6
				L447.1,18.8c-3.8-3.8-8.9-5.9-14.3-5.9s-10.5,2.1-14.3,5.9L163.2,274.1c-7.9,7.9-7.9,20.7,0,28.6c7.9,7.9,20.7,7.9,28.6,0"/>
		</g>
	</g>
	<g>
		<g>
			
				<path fill="none" stroke="#0B2F6B" stroke-width="20.2851" stroke-linecap="round" stroke-linejoin="round" stroke-miterlimit="10" d="
				M472.9,366.5"/>
		</g>
	</g>
</g>
<g>
	<g>
		<path fill="#0B2F6B" d="M243.7,248.8v273.6c0,14.7,7.3,15.7,8.3,15.8h106.4c1.6,0,2.8-1.3,2.8-2.8V382.7
			c0-16.1,14.4-29.8,31.4-29.8h80.2c17,0,31.4,13.6,31.4,29.8v152.7c0,1.6,1.3,2.8,2.8,2.8h105.5c7.4,0,13.5,6,13.5,13.5
			s-6,13.5-13.5,13.5H507c-16.4,0-29.8-13.4-29.8-29.8V382.7c0-0.8-2.2-2.8-4.4-2.8h-80.2c-2.3,0-4.4,2.1-4.4,2.8v152.7
			c0,16.4-13.4,29.8-29.8,29.8H251.7c-0.1,0-0.3,0-0.4,0c-13.9-0.4-34.6-12.1-34.6-42.8V275.7"/>
	</g>
</g>
<polygon fill="#0B2F6B" stroke="#0B2F6B" stroke-width="18.4535" stroke-linecap="round" stroke-linejoin="round" stroke-miterlimit="10" points="
	433.9,329.1 373.4,373.7 373.4,554.4 433.9,582.4 "/>
</svg>
