<?xml version="1.0" encoding="utf-8"?>
<!-- Generator: Adobe Illustrator 17.1.0, SVG Export Plug-In . SVG Version: 6.00 Build 0)  -->
<!DOCTYPE svg PUBLIC "-//W3C//DTD SVG 1.1//EN" "http://www.w3.org/Graphics/SVG/1.1/DTD/svg11.dtd">
<svg version="1.1" id="Fix__x26__Fall" xmlns="http://www.w3.org/2000/svg" xmlns:xlink="http://www.w3.org/1999/xlink" x="0px"
	 y="0px" viewBox="0 0 841.9 595.3" enable-background="new 0 0 841.9 595.3" xml:space="preserve">
<g>
	<path fill="#0B2F6B" d="M610.2,581.5c-22,0-37.4-19.5-56.9-44.3c-9.7-12.3-20.7-26.3-34.1-40.1C452.2,428,373,420,319.2,420
		c-9.8,0-20,0.3-30.3,1c-7.6,0.5-15.1,0.7-22.5,0.7c-69.4,0-125.1-21.2-156.7-59.7c-25.5-31.1-34-72.6-24.6-119.8
		C96.4,185.5,134.6,129,189.9,87.3c29.1-22,61.9-39.2,97.5-51.3c38.3-13,78.9-19.5,120.6-19.5c19,0,38.5,1.4,58.1,4.1
		c115.4,16.3,218.1,89,261.5,185.2c20.1,44.5,27.3,92.5,21.5,142.5c-6.4,54.7-28.4,111.1-65.5,167.4c-30.1,45.5-51.8,65.2-72.6,65.7
		C610.7,581.5,610.5,581.5,610.2,581.5z M319.2,395.9c51.2,0,96.8,8.8,135.5,26.3c30.4,13.7,57.1,32.7,81.8,58.1
		c14.3,14.7,25.7,29.2,35.8,42c14.8,18.8,27.6,35.1,37.9,35.1l0.2,0c6.3-0.2,21.7-7.5,53-54.9c84.1-127.7,69.4-226.4,42.1-286.7
		c-20.2-44.8-54.6-84.8-99.5-115.4C563.2,71,513.6,51.7,462.7,44.6c-18.4-2.6-36.8-3.9-54.7-3.9c-39.1,0-77.1,6.1-112.9,18.2
		c-33.1,11.2-63.6,27.2-90.7,47.7c-50.6,38.2-85.4,89.3-95.6,140.3c-8.1,40.5-1.5,74.1,19.6,99.8c26.9,32.8,75.9,50.9,138,50.9
		c6.8,0,13.9-0.2,20.9-0.7C298.2,396.2,308.9,395.9,319.2,395.9z"/>
</g>
<g>
	<path fill="#0B2F6B" d="M199.2,224c-9.8,0-20,3.1-28.2,7.9c-0.6-1.7-1.8-4.4-1.8-4.4h-14.1v110.1h25.4v-85.4
		c0-2.1,10.3-4.3,20.6-4.3c9.8,0,13.3,3.8,13.3,11.3v78.5h25.4v-78C239.9,236.4,225.4,224,199.2,224z"/>
	<path fill="#0B2F6B" d="M303.7,292.1c22.7-2,40.7-9.4,40.7-34.7c0-24.6-20.3-34.3-42.7-34.3c-25.8,0-44.9,10.5-44.9,46.8v22.2
		c0,36.3,18.5,46.5,44.3,46.5c12.5,0,27.2-2.3,41.2-5.3l-1.8-21c-7.9,1.8-26.1,3.4-40.9,3.4c-14.1,0-17.5-8.2-17.5-20.2V294
		L303.7,292.1z M282.2,269.6c0-15.8,4.2-24,18-24c11.2,0,15.3,5.3,15.3,12.5c0,7.5-2.5,13.8-16.4,14.8l-17,1.3v-4.6H282.2z"/>
	<path fill="#0B2F6B" d="M404.5,223.7c-32.8,0-48.6,18.7-48.6,57.2c0,38.4,16.5,57.2,49.3,57.2c6.1,0,22.6-0.6,34.7-6.3l3.1-0.6V307
		l-4.6,0.9c-10.3,3.6-21.5,6-34,6c-16,0-22.6-9.9-22.6-33.1c0-23.2,7.4-33.1,23.3-33.1c12.5,0,22.8,2.4,33.1,6l4.8,1v-24.2l-3-0.6
		C428,224.3,410.6,223.7,404.5,223.7z"/>
	<path fill="#0B2F6B" d="M477,193.5l-25.4,7v106.1c0,21.7,18.8,31.4,37.1,31.4c2,0,8.6,0,14.1-1.4l-0.3-0.4v-23.6l-1.2,0.4
		c-2.1,0.4-5.9,0.8-9.8,0.8c-10.8,0-14.4-3.7-14.4-9.2v-51.9H511v-25.4h-34V193.5z"/>
	<path fill="#0B2F6B" d="M567.7,223.7c-9.3,0-29.7,2.3-38.7,6.4l-1.2,0.6V255l4-1.1c7.6-2.9,24.2-6.2,36.1-6.2
		c14.5,0,19.2,4.9,19.2,14.6v0.1c-8.5,0.3-23.7,1.9-23.7,1.9c-27.4,2.3-42.8,14.1-42.8,35.9c0,24.1,14.7,38.2,40.2,38.2
		c9.2,0,19.9-2.4,28.1-6.8c0.5,1.5,1.6,5.7,1.6,5.7h22V262C612.4,235.6,597.3,223.7,567.7,223.7z M587,308.3
		c-8.5,2.9-15.8,5.7-23.8,5.7c-13,0-16.9-6.6-16.9-13.9c0-8.2,7.1-12.9,17.1-13.8c0,0,15.1-1.5,23.6-1.8L587,308.3L587,308.3z"/>
	<path fill="#0B2F6B" d="M687.6,225.5c-4.6-1-10.3-1.6-15.4-1.6c-9.7,0-19.4,3-28.1,7.9c-0.6-1.7-1.8-4.4-1.8-4.4h-21.4v110.1h25.4
		v-85.4c8.5-2.2,13.4-4.4,23.7-4.4c3.9,0,11.3,1.2,16.4,3l2.2,1v-26L687.6,225.5z"/>
</g>
</svg>
