<?xml version="1.0" encoding="utf-8"?>
<!-- Generator: Adobe Illustrator 17.1.0, SVG Export Plug-In . SVG Version: 6.00 Build 0)  -->
<!DOCTYPE svg PUBLIC "-//W3C//DTD SVG 1.1//EN" "http://www.w3.org/Graphics/SVG/1.1/DTD/svg11.dtd">
<svg version="1.1" id="Layer_2" xmlns="http://www.w3.org/2000/svg" xmlns:xlink="http://www.w3.org/1999/xlink" x="0px" y="0px"
	 viewBox="0 0 841.9 595.3" enable-background="new 0 0 841.9 595.3" xml:space="preserve">
<g>
	<g>
		<g>
			<path fill="#0B2F6B" d="M365.9,55.8c4.7,0,9.5,1.8,13.1,5.4c7.2,7.2,7.2,19,0,26.2l-89.8,89.8h306.6l0,0
				c10.2,0,18.5,8.3,18.5,18.5c0,10.2-8.3,18.5-18.5,18.5H289.2L379,304c7.2,7.2,7.2,19,0,26.2c-3.6,3.6-8.4,5.4-13.1,5.4
				c-4.7,0-9.5-1.8-13.1-5.4L231.5,208.8c-1.7-1.7-2.9-3.6-3.8-5.7c0-0.1-0.1-0.2-0.1-0.3c-1.9-4.6-1.9-9.7,0-14.2
				c0-0.1,0.1-0.2,0.1-0.2c0.9-2.1,2.2-4,3.9-5.7L352.8,61.2C356.4,57.6,361.2,55.8,365.9,55.8 M365.9,36.8c-10,0-19.4,3.9-26.5,11
				L218,169.2c-3.1,3.1-5.7,6.8-7.5,10.9c-0.2,0.4-0.4,0.8-0.5,1.2c-3.8,9.2-3.8,19.7,0,28.9l0,0l0,0c0.2,0.4,0.4,0.8,0.6,1.2
				c1.9,4.1,4.4,7.7,7.5,10.8l121.4,121.4c7.1,7.1,16.5,11,26.5,11s19.4-3.9,26.5-11s11-16.5,11-26.5s-3.9-19.4-11-26.5L335,233.2
				h260.8c20.7,0,37.5-16.8,37.5-37.5c0-10-3.9-19.4-11-26.5c-7.1-7.1-16.5-11-26.5-11H335l57.4-57.4c7.1-7.1,11-16.5,11-26.5
				s-3.9-19.4-11-26.5C385.3,40.7,375.9,36.8,365.9,36.8L365.9,36.8z"/>
		</g>
	</g>
	<g>
		<path fill="#0B2F6B" d="M474.5,580.5c-6.7,0-12.9-2.6-17.6-7.3c-9.7-9.7-9.7-25.5,0-35.1l79-79H244.6c-6.7,0-13.1-2.7-17.6-7.3
			c-4.6-4.8-7.2-11-7.2-17.5c0-13.7,11.1-24.8,24.8-24.8h291.3l-79-79c-9.7-9.7-9.7-25.5,0-35.1c4.7-4.7,10.9-7.3,17.6-7.3
			c6.7,0,12.9,2.6,17.6,7.3l120.8,121c0.3,0.3,0.6,0.6,0.9,0.9c1.8,1.9,3.2,4,4.4,6.4c0.3,0.5,0.6,1,0.7,1.5
			c2.3,5.7,2.4,12.1,0.3,17.8v0l-0.1,0.3c-0.1,0.2-0.2,0.4-0.3,0.6l-0.6,1.2c-1.1,2.2-2.5,4.4-4.4,6.5l-0.3,0.3L492.1,573.3
			C487.4,577.9,481.1,580.5,474.5,580.5z"/>
	</g>
</g>
</svg>
