<?xml version="1.0" encoding="utf-8"?>
<!-- Generator: Adobe Illustrator 17.1.0, SVG Export Plug-In . SVG Version: 6.00 Build 0)  -->
<!DOCTYPE svg PUBLIC "-//W3C//DTD SVG 1.1//EN" "http://www.w3.org/Graphics/SVG/1.1/DTD/svg11.dtd">
<svg version="1.1" id="Layer_2" xmlns="http://www.w3.org/2000/svg" xmlns:xlink="http://www.w3.org/1999/xlink" x="0px" y="0px"
	 viewBox="0 0 841.9 595.3" enable-background="new 0 0 841.9 595.3" xml:space="preserve">
<g>
	<g>
		<g>
			<path fill="#0B2F6B" d="M405,583.2C405,583.2,405,583.2,405,583.2c-13.8,0-26.8-5.2-35.8-14.2L153.6,353.4
				c-8.8-8.8-13.4-20.9-12.8-34c0.5-12.3,5.8-24.3,14.3-32.9l232-232c7.9-7.9,18.4-12.7,29.5-13.5l232.5-16.8
				c1.1-0.1,2.2-0.1,3.3-0.1c13,0,25.5,5.5,34.4,15.1c8.8,9.5,13.4,22.3,12.4,35.1l-16.3,232.9c-1,12.9-5.3,23.5-12.4,30.7l-232,232
				C430.1,578.5,418.2,583.2,405,583.2z M652.4,50.5c-0.5,0-0.9,0-1.4,0L418.5,67.3c-4.8,0.4-9.4,2.4-12.8,5.9l-232,232
				c-8.3,8.3-9,22.1-1.5,29.6l215.6,215.6c4,4,10.5,6.4,17.2,6.4c6,0,11.4-2,14.9-5.4l232-232c2.6-2.6,4.3-7.7,4.8-14l16.3-232.9
				c0.4-5.7-1.5-11.1-5.4-15.3C663.6,52.9,658.1,50.5,652.4,50.5z M589.2,182.4c-13.1,0-25.4-5.1-34.6-14.4
				c-9.3-9.3-14.4-21.6-14.4-34.7s5.1-25.4,14.4-34.7c9.3-9.3,21.6-14.4,34.7-14.4s25.4,5.1,34.7,14.4c19.1,19.1,19.1,50.2,0,69.3
				C614.6,177.3,602.3,182.4,589.2,182.4z M589.2,110.7c-6.1,0-11.7,2.4-16,6.6c-4.3,4.3-6.6,10-6.6,16s2.4,11.7,6.6,16
				c4.3,4.3,10,6.6,16,6.6c6,0,11.8-2.4,16.1-6.7c8.8-8.8,8.8-23.2,0-32C601,113,595.3,110.7,589.2,110.7z"/>
		</g>
	</g>
</g>
<g>
	<g>
		<path fill="#0B2F6B" d="M330.2,388.7c-2,0-4-0.8-5.4-2.3L274.4,336c-3-3-3-7.9,0-10.9c3-3,7.9-3,10.9,0l45,45l45-45
			c3-3,7.9-3,10.9,0c3,3,3,7.9,0,10.9l-50.4,50.4C334.2,387.9,332.2,388.7,330.2,388.7z"/>
	</g>
	<g>
		<path fill="#0B2F6B" d="M330.2,388.7c-4.2,0-7.7-3.4-7.7-7.7v-85c0-47.1,38.3-85.5,85.5-85.5c4.2,0,7.7,3.4,7.7,7.7
			s-3.4,7.7-7.7,7.7c-38.7,0-70.1,31.5-70.1,70.1v85C337.9,385.2,334.4,388.7,330.2,388.7z"/>
	</g>
	<g>
		<path fill="#0B2F6B" d="M544.1,308.9c-2,0-3.9-0.8-5.4-2.3l-45-45l-45.1,45c-3,3-7.9,3-10.9,0s-3-7.9,0-10.9l50.5-50.4
			c3-3,7.9-3,10.9,0l50.4,50.4c3,3,3,7.9,0,10.9C548,308.1,546.1,308.9,544.1,308.9z"/>
	</g>
	<g>
		<path fill="#0B2F6B" d="M415.9,421.3c-4.2,0-7.7-3.4-7.7-7.7s3.4-7.7,7.7-7.7c38.7,0,70.1-31.5,70.1-70.1v-85.1
			c0-4.2,3.4-7.7,7.7-7.7s7.7,3.4,7.7,7.7v85.1C501.4,382.9,463,421.3,415.9,421.3z"/>
	</g>
</g>
</svg>
