<?xml version="1.0" encoding="utf-8"?>
<!-- Generator: Adobe Illustrator 17.1.0, SVG Export Plug-In . SVG Version: 6.00 Build 0)  -->
<!DOCTYPE svg PUBLIC "-//W3C//DTD SVG 1.1//EN" "http://www.w3.org/Graphics/SVG/1.1/DTD/svg11.dtd">
<svg version="1.1" id="Layer_2" xmlns="http://www.w3.org/2000/svg" xmlns:xlink="http://www.w3.org/1999/xlink" x="0px" y="0px"
	 viewBox="0 0 841.9 595.3" enable-background="new 0 0 841.9 595.3" xml:space="preserve">
<path fill="#0B2F6B" d="M249.8,209.5c-5.8,0-10.5-4.7-10.5-10.5V82.6c0-5.8,4.7-10.5,10.5-10.5h341.4c5.8,0,10.5,4.7,10.5,10.5V199
	c0,5.8-4.7,10.5-10.5,10.5H249.8z"/>
<g>
	<g>
		<g>
			<path fill="#0B2F6B" d="M608.5,577.1H232.4c-25.5,0-46.2-20.7-46.2-46.2V66.5c0-25.5,20.7-46.2,46.2-46.2h376.1
				c25.5,0,46.2,20.7,46.2,46.2v464.4C654.7,556.4,634,577.1,608.5,577.1z M232.4,46.3c-11.1,0-20.2,9-20.2,20.2v464.4
				c0,11.1,9,20.2,20.2,20.2h376.1c11.1,0,20.2-9,20.2-20.2V66.5c0-11.1-9-20.2-20.2-20.2H232.4z"/>
		</g>
	</g>
	<g>
		<g>
			<path fill="#0B2F6B" d="M281,329.2c-22,0-39.8-17.9-39.8-39.8c0-22,17.9-39.8,39.8-39.8c22,0,39.8,17.9,39.8,39.8
				C320.8,311.4,303,329.2,281,329.2z M281,260.4c-16,0-29,13-29,29s13,29,29,29s29-13,29-29S297,260.4,281,260.4z"/>
		</g>
		<g>
			<path fill="#0B2F6B" d="M374,329.2c-22,0-39.8-17.9-39.8-39.8c0-22,17.9-39.8,39.8-39.8s39.8,17.9,39.8,39.8
				C413.8,311.4,396,329.2,374,329.2z M374,260.4c-16,0-29,13-29,29s13,29,29,29s29-13,29-29S390,260.4,374,260.4z"/>
		</g>
		<circle fill="#0B2F6B" cx="467" cy="289.4" r="34.4"/>
		<circle fill="#0B2F6B" cx="560" cy="289.4" r="34.4"/>
		<g>
			<path fill="#0B2F6B" d="M281,421.2c-22,0-39.8-17.9-39.8-39.8c0-22,17.9-39.8,39.8-39.8c22,0,39.8,17.9,39.8,39.8
				C320.8,403.4,303,421.2,281,421.2z M281,352.4c-16,0-29,13-29,29s13,29,29,29s29-13,29-29S297,352.4,281,352.4z"/>
		</g>
		<g>
			<path fill="#0B2F6B" d="M374,421.2c-22,0-39.8-17.9-39.8-39.8c0-22,17.9-39.8,39.8-39.8s39.8,17.9,39.8,39.8
				C413.8,403.4,396,421.2,374,421.2z M374,352.4c-16,0-29,13-29,29s13,29,29,29s29-13,29-29S390,352.4,374,352.4z"/>
		</g>
		<g>
			<path fill="#0B2F6B" d="M467,421.2c-22,0-39.8-17.9-39.8-39.8c0-22,17.9-39.8,39.8-39.8c22,0,39.8,17.9,39.8,39.8
				C506.8,403.4,489,421.2,467,421.2z M467,352.4c-16,0-29,13-29,29s13,29,29,29s29-13,29-29S483,352.4,467,352.4z"/>
		</g>
		<g>
			<path fill="#0B2F6B" d="M560,513.2c-22,0-39.8-17.9-39.8-39.8v-92c0-22,17.9-39.8,39.8-39.8c22,0,39.8,17.9,39.8,39.8v92
				C599.8,495.4,582,513.2,560,513.2z M560,352.4c-16,0-29,13-29,29v92c0,16,13,29,29,29s29-13,29-29v-92
				C588.9,365.4,576,352.4,560,352.4z"/>
		</g>
		<g>
			<path fill="#0B2F6B" d="M281,513.2c-22,0-39.8-17.9-39.8-39.8c0-22,17.9-39.8,39.8-39.8c22,0,39.8,17.9,39.8,39.8
				C320.8,495.4,303,513.2,281,513.2z M281,444.4c-16,0-29,13-29,29s13,29,29,29s29-13,29-29S297,444.4,281,444.4z"/>
		</g>
		<g>
			<path fill="#0B2F6B" d="M374,513.2c-22,0-39.8-17.9-39.8-39.8c0-22,17.9-39.8,39.8-39.8s39.8,17.9,39.8,39.8
				C413.8,495.4,396,513.2,374,513.2z M374,444.4c-16,0-29,13-29,29s13,29,29,29s29-13,29-29S390,444.4,374,444.4z"/>
		</g>
		<g>
			<path fill="#0B2F6B" d="M467,513.2c-22,0-39.8-17.9-39.8-39.8c0-22,17.9-39.8,39.8-39.8c22,0,39.8,17.9,39.8,39.8
				C506.8,495.4,489,513.2,467,513.2z M467,444.4c-16,0-29,13-29,29s13,29,29,29s29-13,29-29S483,444.4,467,444.4z"/>
		</g>
	</g>
</g>
</svg>
