<?xml version="1.0" encoding="utf-8"?>
<!-- Generator: Adobe Illustrator 17.1.0, SVG Export Plug-In . SVG Version: 6.00 Build 0)  -->
<!DOCTYPE svg PUBLIC "-//W3C//DTD SVG 1.1//EN" "http://www.w3.org/Graphics/SVG/1.1/DTD/svg11.dtd">
<svg version="1.1" id="Layer_2" xmlns="http://www.w3.org/2000/svg" xmlns:xlink="http://www.w3.org/1999/xlink" x="0px" y="0px"
	 viewBox="0 0 841.9 595.3" enable-background="new 0 0 841.9 595.3" xml:space="preserve">
<g>
	<g>
		<g>
			<path fill="#0B2F6B" d="M563.6,516.7h-389c-26.3,0-47.8-21.4-47.8-47.8v-359c0-26.3,21.4-47.8,47.8-47.8h389
				c26.3,0,47.8,21.4,47.8,47.8v359C611.4,495.2,589.9,516.7,563.6,516.7z M174.6,89.1c-11.5,0-20.8,9.3-20.8,20.8v359
				c0,11.5,9.3,20.8,20.8,20.8h389c11.5,0,20.8-9.3,20.8-20.8v-359c0-11.5-9.3-20.8-20.8-20.8H174.6z"/>
		</g>
	</g>
	<g>
		<g>
			<path fill="#0B2F6B" d="M216.5,140.7c-10.4,0-18.8-8.4-18.8-18.8V34.3c0-10.4,8.4-18.8,18.8-18.8s18.8,8.4,18.8,18.8v87.6
				C235.3,132.3,226.9,140.7,216.5,140.7z"/>
		</g>
		<g>
			<path fill="#0B2F6B" d="M292.8,140.7c-10.4,0-18.8-8.4-18.8-18.8V34.3c0-10.4,8.4-18.8,18.8-18.8s18.8,8.4,18.8,18.8v87.6
				C311.6,132.3,303.2,140.7,292.8,140.7z"/>
		</g>
		<g>
			<path fill="#0B2F6B" d="M369.1,140.7c-10.4,0-18.8-8.4-18.8-18.8V34.3c0-10.4,8.4-18.8,18.8-18.8s18.8,8.4,18.8,18.8v87.6
				C387.9,132.3,379.5,140.7,369.1,140.7z"/>
		</g>
		<g>
			<path fill="#0B2F6B" d="M445.3,140.7c-10.4,0-18.8-8.4-18.8-18.8V34.3c0-10.4,8.4-18.8,18.8-18.8S464,23.9,464,34.3v87.6
				C464,132.3,455.7,140.7,445.3,140.7z"/>
		</g>
		<g>
			<path fill="#0B2F6B" d="M521.6,140.7c-10.4,0-18.8-8.4-18.8-18.8V34.3c0-10.4,8.4-18.8,18.8-18.8s18.8,8.4,18.8,18.8v87.6
				C540.3,132.3,532,140.7,521.6,140.7z"/>
		</g>
	</g>
	<g>
		<circle fill="#0B2F6B" cx="224.8" cy="219.2" r="35.5"/>
		<circle fill="#0B2F6B" cx="321" cy="219.2" r="35.5"/>
		<circle fill="#0B2F6B" cx="417.2" cy="219.2" r="35.5"/>
		<circle fill="#0B2F6B" cx="513.4" cy="219.2" r="35.5"/>
		<circle fill="#0B2F6B" cx="224.8" cy="314.4" r="35.5"/>
		<circle fill="#0B2F6B" cx="321" cy="314.4" r="35.5"/>
		<g>
			<path fill="#0B2F6B" d="M417.2,355.5c-22.7,0-41.1-18.4-41.1-41.1c0-22.7,18.4-41.1,41.1-41.1s41.1,18.4,41.1,41.1
				C458.3,337.1,439.9,355.5,417.2,355.5z M417.2,284.5c-16.5,0-29.9,13.4-29.9,29.9s13.4,29.9,29.9,29.9s29.9-13.4,29.9-29.9
				S433.7,284.5,417.2,284.5z"/>
		</g>
		<circle fill="none" stroke="#0B2F6B" stroke-width="11.2531" stroke-miterlimit="10" cx="513.4" cy="314.4" r="35.5"/>
		<g>
			<path fill="#0B2F6B" d="M224.8,450.6c-22.7,0-41.1-18.4-41.1-41.1s18.4-41.1,41.1-41.1c22.7,0,41.1,18.4,41.1,41.1
				S247.5,450.6,224.8,450.6z M224.8,379.6c-16.5,0-29.9,13.4-29.9,29.9s13.4,29.9,29.9,29.9s29.9-13.4,29.9-29.9
				S241.3,379.6,224.8,379.6z"/>
		</g>
		<g>
			<path fill="#0B2F6B" d="M321,450.6c-22.7,0-41.1-18.4-41.1-41.1s18.4-41.1,41.1-41.1c22.7,0,41.1,18.4,41.1,41.1
				S343.7,450.6,321,450.6z M321,379.6c-16.5,0-29.9,13.4-29.9,29.9s13.4,29.9,29.9,29.9s29.9-13.4,29.9-29.9S337.5,379.6,321,379.6
				z"/>
		</g>
		<circle fill="none" stroke="#0B2F6B" stroke-width="11.2531" stroke-miterlimit="10" cx="417.2" cy="409.5" r="35.5"/>
		<circle fill="none" stroke="#0B2F6B" stroke-width="11.2531" stroke-miterlimit="10" cx="513.4" cy="409.5" r="35.5"/>
	</g>
</g>
<g>
	<g>
		<path fill="#0B2F6B" d="M692.3,401.4l11.1-158.6c1-13.8-10.7-25.5-24.5-24.5l-158.3,11.4c-5.4,0.4-10.6,2.7-14.4,6.6l-158,158
			c-8.9,8.9-9.9,24-1,32.8L494,573.9c8.9,8.9,25.7,9.6,34.5,0.7l158-158C690.3,412.8,691.9,406.9,692.3,401.4z M620.2,300.9
			c-9.5-9.5-9.5-25,0-34.5c9.5-9.5,25-9.5,34.5,0c9.5,9.5,9.5,25,0,34.5C645.1,310.4,629.7,310.4,620.2,300.9z"/>
	</g>
	<g>
		<path fill="#FFFFFF" d="M489,420.8l18.2-18.2c1.9-1.9,3.9-2.9,5.9-3s4,0.8,5.9,2.8c4,4,3.9,8-0.1,12l-15.4,15.4
			c4.4,3.1,7.9,5.9,10.3,8.4c2.3,2.3,4.5,5.4,6.3,9.2c1.9,3.8,3.3,8.1,4.4,12.9c1,4.8,1.4,9.4,1.1,14.1l47.6-47.6
			c1.8-1.8,3.8-2.8,5.9-2.9c2.1-0.1,4.1,0.8,6.1,2.8c1.9,1.9,2.8,3.9,2.7,5.9c-0.1,2.1-1.1,4.1-3,5.9l-56.6,56.6
			c-2.3,2.3-4.5,3.6-6.7,4.2c-2.2,0.5-4.5-0.3-6.7-2.6c-1.3-1.3-2.1-3.8-2.3-7.5s-0.4-7.8-0.6-12.3c-0.2-4.5-1.1-9.1-2.7-13.6
			c-1.6-4.5-4.3-8.8-8.2-12.7c-3.7-3.7-7.1-6.4-10.2-8.2l-14.2,14.2c-1.8,1.8-3.8,2.8-5.9,3c-2.1,0.1-4.2-0.8-6.1-2.8
			c-1.9-1.9-2.8-3.9-2.7-6c0.1-2.1,1.2-4.1,3-5.9l10.8-10.8c-6.2-1.8-11.4-3.7-15.8-5.6s-8.2-4.5-11.5-7.8
			c-4.9-4.9-7.8-10.6-8.9-17.3c-1-6.7-0.3-13.4,2.3-20.3c2.6-6.9,6.5-13,11.7-18.2c4-4,8.8-7.2,14.3-9.7c5.6-2.5,11-4,16.4-4.5
			c5.4-0.5,10.6-0.2,15.4,1.1c4.9,1.2,8.7,3.3,11.5,6.1c1.8,1.8,2.7,3.8,2.8,6c0,2.2-0.8,4.2-2.6,6c-2,2-4.8,2.5-8.3,1.6
			c-3.6-0.9-7.3-2-11.2-3.2c-3.9-1.2-8-1.3-12.5-0.5c-4.4,0.9-9.1,3.8-14.1,8.7c-4.9,4.9-7.9,10.4-8.9,16.6
			c-1.1,6.2,0.6,11.6,5.1,16c2.3,2.3,4.9,4.1,7.7,5.5c2.8,1.4,6,2.5,9.5,3.6C482.5,418.9,485.9,419.9,489,420.8z"/>
	</g>
</g>
</svg>
