<?xml version="1.0" encoding="utf-8"?>
<!-- Generator: Adobe Illustrator 17.1.0, SVG Export Plug-In . SVG Version: 6.00 Build 0)  -->
<!DOCTYPE svg PUBLIC "-//W3C//DTD SVG 1.1//EN" "http://www.w3.org/Graphics/SVG/1.1/DTD/svg11.dtd">
<svg version="1.1" id="Layer_2" xmlns="http://www.w3.org/2000/svg" xmlns:xlink="http://www.w3.org/1999/xlink" x="0px" y="0px"
	 viewBox="0 0 841.9 595.3" enable-background="new 0 0 841.9 595.3" xml:space="preserve">
<g>
	<g>
		<g>
			<path fill="#0B2F6B" d="M703.9,574.8H148c-30.3,0-55-24.7-55-55V198.6c0-30.3,24.7-55,55-55h555.9c30.3,0,55,24.7,55,55v321.2
				C758.9,550.1,734.2,574.8,703.9,574.8z M148,172.8c-14.2,0-25.8,11.6-25.8,25.8v321.2c0,14.2,11.6,25.8,25.8,25.8h555.9
				c14.2,0,25.8-11.6,25.8-25.8V198.6c0-14.2-11.6-25.8-25.8-25.8H148z"/>
		</g>
	</g>
	<g>
		<path fill="#0B2F6B" d="M583,163.9h-49.3V81.8c0-13.6-11.1-24.7-24.7-24.7H342.9c-13.6,0-24.7,11.1-24.7,24.7v82.1H269V81.8
			c0-40.8,33.2-73.9,73.9-73.9h166.2C549.9,7.9,583,41,583,81.8V163.9z"/>
	</g>
</g>
<g>
	<g>
		<path fill="#0B2F6B" d="M332.7,359.1l9.2-131.3c0.8-11.4-8.8-21.1-20.3-20.3l-131,9.5c-4.5,0.3-8.8,2.2-12,5.4L47.9,353.2
			c-7.3,7.3-8.2,19.8-0.8,27.2l121.5,121.5c7.3,7.3,21.2,7.9,28.6,0.6l130.7-130.7C331.1,368.5,332.4,363.6,332.7,359.1z M273,275.9
			c-7.9-7.9-7.9-20.7,0-28.5c7.9-7.9,20.7-7.9,28.5,0c7.9,7.9,7.9,20.7,0,28.5C293.7,283.8,280.9,283.8,273,275.9z"/>
	</g>
	<g>
		<path fill="#FFFFFF" d="M164.4,375.2l15.1-15.1c1.6-1.6,3.2-2.4,4.9-2.5c1.7-0.1,3.3,0.7,4.9,2.3c3.3,3.3,3.2,6.6-0.1,9.9
			l-12.7,12.7c3.7,2.6,6.5,4.9,8.5,6.9c1.9,1.9,3.7,4.5,5.3,7.7c1.6,3.2,2.8,6.7,3.6,10.7c0.9,3.9,1.2,7.8,0.9,11.6l39.4-39.4
			c1.5-1.5,3.2-2.3,4.9-2.4c1.7-0.1,3.4,0.7,5.1,2.3c1.6,1.6,2.3,3.2,2.2,4.9s-0.9,3.4-2.5,4.9l-46.8,46.8c-1.9,1.9-3.7,3-5.6,3.5
			c-1.9,0.4-3.7-0.3-5.6-2.1c-1.1-1.1-1.7-3.2-1.9-6.2c-0.2-3-0.3-6.4-0.5-10.2c-0.2-3.8-0.9-7.5-2.2-11.3s-3.6-7.2-6.8-10.5
			c-3.1-3.1-5.9-5.3-8.5-6.8l-11.8,11.8c-1.5,1.5-3.2,2.3-4.9,2.5c-1.8,0.1-3.4-0.6-5.1-2.3c-1.6-1.6-2.3-3.3-2.2-5s1-3.4,2.5-4.9
			l9-9c-5.1-1.5-9.5-3.1-13.1-4.7c-3.6-1.6-6.8-3.7-9.5-6.5c-4-4-6.5-8.8-7.3-14.3c-0.9-5.5-0.2-11.1,1.9-16.8
			c2.1-5.7,5.4-10.7,9.7-15.1c3.3-3.3,7.3-6,11.9-8c4.6-2,9.1-3.3,13.6-3.7c4.5-0.4,8.7-0.1,12.8,0.9c4,1,7.2,2.7,9.5,5
			c1.5,1.5,2.2,3.1,2.3,5c0,1.8-0.7,3.5-2.2,5c-1.6,1.6-3.9,2.1-6.9,1.3c-3-0.8-6-1.7-9.2-2.7s-6.6-1.1-10.3-0.4
			c-3.7,0.7-7.6,3.2-11.6,7.2c-4,4-6.5,8.6-7.4,13.8c-0.9,5.1,0.5,9.6,4.2,13.3c1.9,1.9,4,3.4,6.4,4.5c2.3,1.1,5,2.1,7.8,3
			C159.1,373.6,161.8,374.4,164.4,375.2z"/>
	</g>
</g>
<g>
	<path fill="#0B2F6B" d="M288.5,270.9c-3.3,0-6.6-1.6-8.5-4.7c-3-4.7-1.6-10.9,3-13.9c0.2-0.1,12.4-8.1,24.3-23.6
		c15.7-20.4,23.4-43.7,23.1-69c-0.1-5.6,4.4-10.1,9.9-10.2c5.5-0.1,10.1,4.4,10.2,9.9c1.1,72.3-54.3,108.4-56.6,109.9
		C292.2,270.3,290.4,270.9,288.5,270.9z"/>
</g>
</svg>
