<?xml version="1.0" encoding="utf-8"?>
<!-- Generator: Adobe Illustrator 17.1.0, SVG Export Plug-In . SVG Version: 6.00 Build 0)  -->
<!DOCTYPE svg PUBLIC "-//W3C//DTD SVG 1.1//EN" "http://www.w3.org/Graphics/SVG/1.1/DTD/svg11.dtd">
<svg version="1.1" id="Fix__x26__Fall" xmlns="http://www.w3.org/2000/svg" xmlns:xlink="http://www.w3.org/1999/xlink" x="0px"
	 y="0px" viewBox="0 0 841.9 595.3" enable-background="new 0 0 841.9 595.3" xml:space="preserve">
<g>
	<g>
		<g>
			<g>
				<path fill="#0B2F6B" d="M405.4,571.2C405.4,571.2,405.4,571.2,405.4,571.2c-13.5,0-26.3-5.1-35.1-13.9L160,346.9
					c-8.7-8.7-13.2-20.6-12.7-33.4c0.5-12,5.6-23.8,14.1-32.2L387.8,55c7.7-7.7,17.9-12.3,28.9-13.2l226.9-16.5
					c1.1-0.1,2.2-0.1,3.3-0.1c12.6,0,24.9,5.4,33.6,14.7c8.7,9.3,13.1,21.9,12.2,34.5l-15.9,227.4c-1,12.7-5.1,23.1-12,30.1
					l-0.1,0.1L438.3,558.3C430,566.6,418.3,571.2,405.4,571.2z M646.9,51.3c-0.5,0-0.9,0-1.4,0L418.6,67.8
					c-4.7,0.4-9.2,2.4-12.4,5.6L179.8,299.8c-3.9,3.9-6.2,9.3-6.5,14.8c-0.2,5.4,1.6,10.3,5,13.8l210.4,210.4
					c3.9,3.9,10.1,6.2,16.6,6.2c5.9,0,11.1-1.9,14.4-5.2l226.3-226.3c2.4-2.5,4.1-7.5,4.6-13.7l15.9-227.3
					c0.4-5.5-1.5-10.7-5.3-14.8C657.6,53.6,652.3,51.3,646.9,51.3z"/>
			</g>
		</g>
	</g>
	<g>
		<path fill="#0B2F6B" d="M426.5,409.7l70.1-70.1c2.2-2.2,4.7-3.4,7.5-3.5s5.1,0.8,6.9,2.6c1.8,1.8,2.6,4.1,2.5,6.8
			c-0.1,2.8-1.3,5.3-3.5,7.5l-82,82c-2.5,2.5-5,3.8-7.5,3.8c-2.5,0-4.7-0.9-6.5-2.7c-2.4-2.4-3.5-6.3-3.3-11.8c0-8-0.3-15.1-1-21.3
			c-0.7-6.2-2.4-12.5-5-19c-2.7-6.4-6.6-12.2-11.7-17.3c-4.8-4.8-10.6-9.1-17.4-12.9l-21.9,21.9c-2.2,2.2-4.7,3.4-7.5,3.5
			s-5.1-0.8-7-2.7c-1.8-1.8-2.7-4.1-2.5-6.8c0.2-2.7,1.4-5.2,3.6-7.4l17.7-17.7c-12.1-3.5-20.9-6.3-26.2-8.6
			c-5.3-2.3-10.2-5.6-14.5-9.9c-7.1-7.1-11.6-15.1-13.5-24.1c-1.9-9-1.2-18.2,2.2-27.7c3.4-9.5,9.1-18.2,17.1-26.2
			c6.8-6.8,14.3-11.9,22.5-15.2c8.2-3.3,16.2-5.1,23.9-5.2c7.8-0.1,14.8,0.9,21.1,3.1c6.3,2.2,11.3,5.1,15,8.9
			c2.1,2.1,3.2,4.4,3.4,6.8c0.2,2.4-0.8,4.7-2.9,6.8c-3.1,3.1-7,3.6-11.4,1.4c-11.3-5.6-21.7-8-31.3-7.2
			c-9.6,0.8-18.7,5.6-27.4,14.2c-7.5,7.5-11.6,15.7-12.4,24.7s2.9,17.6,11.1,25.8c3.3,3.3,7.5,6.2,12.5,8.5c5,2.3,13.5,5.4,25.4,9.3
			l24.6-24.6c2.2-2.2,4.7-3.4,7.4-3.6s5,0.7,6.8,2.5c1.9,1.9,2.8,4.2,2.7,7s-1.3,5.3-3.5,7.5L390,339.4c6.2,3.2,12.3,7.8,18.2,13.7
			c6.2,6.2,10.8,13.9,13.8,23C424.9,385.2,426.4,396.4,426.5,409.7z"/>
	</g>
</g>
<g>
	<path fill="#0B2F6B" d="M585.1,172.5c-22.3,0-40.4-18.1-40.4-40.4c0-22.3,18.1-40.4,40.4-40.4c22.3,0,40.4,18.1,40.4,40.4
		C625.5,154.4,607.3,172.5,585.1,172.5z M585.1,102.5c-16.3,0-29.6,13.3-29.6,29.6c0,16.3,13.3,29.6,29.6,29.6
		c16.3,0,29.6-13.3,29.6-29.6C614.7,115.8,601.4,102.5,585.1,102.5z"/>
</g>
</svg>
