<?xml version="1.0" encoding="utf-8"?>
<!-- Generator: Adobe Illustrator 17.1.0, SVG Export Plug-In . SVG Version: 6.00 Build 0)  -->
<!DOCTYPE svg PUBLIC "-//W3C//DTD SVG 1.1//EN" "http://www.w3.org/Graphics/SVG/1.1/DTD/svg11.dtd">
<svg version="1.1" id="Fix__x26__Fall" xmlns="http://www.w3.org/2000/svg" xmlns:xlink="http://www.w3.org/1999/xlink" x="0px"
	 y="0px" viewBox="0 0 841.9 595.3" enable-background="new 0 0 841.9 595.3" xml:space="preserve">
<g>
	<g>
		<path fill="#0B2F6B" d="M405.3,548.9C405.3,548.9,405.3,548.9,405.3,548.9c-12.4,0-24.2-4.7-32.4-12.8l-194-194
			c-7.5-7.5-11.7-17.7-11.7-28.8c0-11.8,4.7-23.4,13-31.7L389,72.9c7.2-7.2,16.7-11.5,26.8-12.2l209.1-15.1c1-0.1,2-0.1,3-0.1
			c11.7,0,22.9,4.9,31,13.5c8,8.6,12.1,20.2,11.3,31.8l-14.6,209.6c-0.6,8-2.9,19.3-10.8,27.6l-0.2,0.2L435.7,537
			C428,544.7,417.2,548.9,405.3,548.9z M627.8,69.6c-0.4,0-0.9,0-1.3,0L417.5,84.7c-4.3,0.3-8.4,2.1-11.5,5.2L197.3,298.7
			c-3.7,3.7-6,9.2-6,14.6c0,4.6,1.7,8.8,4.6,11.7l194,194c3.6,3.6,9.3,5.8,15.3,5.8c5.4,0,10.3-1.8,13.3-4.9l208.7-208.7
			c2.2-2.3,3.7-7,4.1-12.5l14.6-209.6c0.4-5.1-1.4-9.9-4.9-13.7C637.7,71.7,632.8,69.6,627.8,69.6z M571,188.3
			c-11.8,0-22.9-4.6-31.3-13c-8.4-8.4-13-19.5-13-31.3s4.6-22.9,13-31.3s19.5-13,31.3-13c11.8,0,22.9,4.6,31.3,13s13,19.5,13,31.3
			s-4.6,22.9-13,31.3C593.9,183.7,582.8,188.3,571,188.3z M571,123.8c-5.4,0-10.5,2.1-14.3,5.9s-5.9,8.9-5.9,14.3s2.1,10.5,5.9,14.3
			s8.9,5.9,14.3,5.9c5.4,0,10.5-2.1,14.3-5.9s5.9-8.9,5.9-14.3s-2.1-10.5-5.9-14.3S576.4,123.8,571,123.8z"/>
	</g>
</g>
<g>
	<path fill="#0B2F6B" d="M374.8,325.3l24.1-24.1c2.6-2.6,5.2-3.9,7.9-4c2.7-0.1,5.3,1.1,7.8,3.6c5.2,5.2,5.2,10.5-0.2,15.9L394,337
		c5.8,4.1,10.4,7.8,13.6,11.1c3.1,3.1,5.9,7.2,8.4,12.2c2.5,5.1,4.4,10.7,5.8,17s1.9,12.5,1.5,18.6l63-63c2.4-2.4,5-3.7,7.8-3.9
		c2.8-0.2,5.5,1.1,8.1,3.7c2.5,2.5,3.7,5.1,3.6,7.9c-0.1,2.7-1.4,5.4-3.9,7.8l-74.7,74.7c-3,3-6,4.8-8.9,5.5c-3,0.7-5.9-0.4-8.9-3.4
		c-1.8-1.8-2.8-5.1-3-10c-0.2-4.9-0.5-10.3-0.8-16.3c-0.3-6-1.5-12-3.6-18c-2.1-6-5.7-11.6-10.9-16.7c-4.9-4.9-9.4-8.5-13.5-10.8
		l-18.8,18.8c-2.4,2.4-5.1,3.7-7.8,3.9c-2.8,0.2-5.5-1-8.1-3.7c-2.6-2.6-3.7-5.2-3.6-7.9c0.2-2.7,1.5-5.4,4-7.9l14.3-14.3
		c-8.2-2.4-15.1-4.9-20.9-7.4c-5.7-2.5-10.8-6-15.2-10.4c-6.5-6.5-10.4-14.1-11.7-22.9c-1.4-8.8-0.4-17.7,3.1-26.9
		c3.4-9.1,8.6-17.2,15.5-24.1c5.3-5.3,11.6-9.6,18.9-12.8c7.3-3.3,14.6-5.2,21.7-5.9c7.2-0.7,14-0.2,20.4,1.4s11.5,4.3,15.2,8
		c2.4,2.4,3.6,5,3.6,7.9c0.1,2.9-1.1,5.6-3.5,7.9c-2.6,2.6-6.3,3.3-11,2.1s-9.6-2.7-14.7-4.2c-5.1-1.6-10.6-1.8-16.5-0.6
		c-5.9,1.2-12.1,5-18.6,11.5c-6.4,6.4-10.4,13.8-11.8,22c-1.4,8.2,0.9,15.3,6.8,21.2c3,3,6.4,5.5,10.2,7.3c3.7,1.8,7.9,3.4,12.5,4.7
		C366.3,322.8,370.7,324.1,374.8,325.3z"/>
</g>
</svg>
