<?xml version="1.0" encoding="utf-8"?>
<!-- Generator: Adobe Illustrator 17.1.0, SVG Export Plug-In . SVG Version: 6.00 Build 0)  -->
<!DOCTYPE svg PUBLIC "-//W3C//DTD SVG 1.1//EN" "http://www.w3.org/Graphics/SVG/1.1/DTD/svg11.dtd">
<svg version="1.1" id="Layer_2" xmlns="http://www.w3.org/2000/svg" xmlns:xlink="http://www.w3.org/1999/xlink" x="0px" y="0px"
	 viewBox="0 0 841.9 595.3" enable-background="new 0 0 841.9 595.3" xml:space="preserve">
<g>
	<path fill="#0B2F6B" d="M250.7,465.8c-105.8,0-191.8-86.1-191.8-191.8S144.9,82.2,250.7,82.2c105.8,0,191.8,86.1,191.8,191.8
		S356.5,465.8,250.7,465.8z M250.7,111.8c-89.4,0-162.1,72.7-162.1,162.1c0,89.4,72.7,162.1,162.1,162.1S412.8,363.4,412.8,274
		C412.8,184.6,340.1,111.8,250.7,111.8z"/>
</g>
<g>
	<g>
		<g>
			<path fill="#0B2F6B" d="M229.3,176.5l-5.8-26.4c8.9-1.9,18-2.9,27.2-2.9v27C243.5,174.2,236.2,175,229.3,176.5z"/>
		</g>
		<g>
			<path fill="#0B2F6B" d="M157.6,237.9l-25.2-9.7c3.8-9.7,8.7-18.9,14.7-27.5l22.1,15.6C164.5,223,160.6,230.2,157.6,237.9z
				 M185.7,198.2l-17.6-20.5c7.9-6.8,16.6-12.6,25.9-17.2l12.1,24.2C198.8,188.2,192,192.8,185.7,198.2z"/>
		</g>
		<g>
			<path fill="#0B2F6B" d="M194.2,387.4c-9.3-4.7-18-10.5-25.9-17.2l17.6-20.5c6.2,5.3,13.1,9.9,20.4,13.6L194.2,387.4z
				 M147.3,347.1c-6-8.5-11-17.7-14.8-27.4l25.2-9.8c3,7.6,6.9,14.9,11.6,21.6L147.3,347.1z M124.9,289.5
				c-0.6-5.1-0.9-10.4-0.9-15.6c0-5.9,0.3-10.9,0.9-15.6l26.8,3.5c-0.5,3.6-0.7,7.5-0.7,12.2c0,4.1,0.3,8.2,0.7,12.3L124.9,289.5z"
				/>
		</g>
		<g>
			<path fill="#0B2F6B" d="M250.7,400.7c-9.2,0-18.3-1-27.2-2.9l5.8-26.4c7,1.5,14.2,2.3,21.4,2.3V400.7z"/>
		</g>
	</g>
</g>
<circle fill="#0B2F6B" cx="250.7" cy="274" r="25.9"/>
<g>
	<path fill="#0B2F6B" d="M250.7,255.4c-4.1,0-7.4-3.3-7.4-7.4v-45.3c0-4.1,3.3-7.4,7.4-7.4s7.4,3.3,7.4,7.4V248
		C258.1,252.1,254.8,255.4,250.7,255.4z"/>
</g>
<rect x="223.7" y="45.6" fill="#0B2F6B" width="54.1" height="54.5"/>
<rect x="81.5" y="104.5" transform="matrix(-0.7071 0.7071 -0.7071 -0.7071 278.4219 148.0786)" fill="#0B2F6B" width="54.1" height="54.5"/>
<rect x="207.6" y="28.6" fill="#0B2F6B" width="86.3" height="32.1"/>
<g>
	<g>
		<path fill="none" d="M556.7,117H406.4c-12.3,0-22.3,10-22.3,22.3v18.6c12.9,14.9,23.4,31.8,30.9,50.4h164v-69.1
			C579,127,569,117,556.7,117z"/>
	</g>
	<g>
		<path fill="#0B2F6B" d="M732.8,573.3H230.1c-28.3,0-51.3-23-51.3-51.3v-80.7c0-4.8,2.3-9.3,6.2-12.1c3.9-2.8,8.9-3.5,13.4-2
			c17.3,5.8,34.9,8.8,52.3,8.8c43.3,0,84.1-16.9,114.7-47.5c30.6-30.6,47.5-71.3,47.5-114.7c0-20.5-3.9-40.7-11.6-60.1
			c-1.8-4.6-1.3-9.8,1.5-13.8s7.4-6.5,12.3-6.5h317.9c13.8,0,26.7,5.4,36.4,15.1c9.7,9.7,15,22.7,14.9,36.4v277
			C784.1,550.3,761.1,573.3,732.8,573.3z M208.4,460.9V522c0,11.9,9.7,21.7,21.7,21.7h502.7c11.9,0,21.7-9.7,21.7-21.7V244.9
			c0-5.9-2.2-11.3-6.2-15.4c-4.1-4.1-9.5-6.3-15.3-6.3H435.6c4.6,16.6,6.9,33.6,6.9,50.8c0,51.3-19.9,99.4-56.2,135.7
			s-84.4,56.2-135.7,56.2C236.6,465.7,222.5,464.1,208.4,460.9z"/>
	</g>
	<path fill="#0B2F6B" d="M384.1,157.9v-18.6c0-12.3,10-22.3,22.3-22.3h150.3c12.3,0,22.3,10,22.3,22.3v69.1h44.5v-69.1
		c0-36.8-30-66.8-66.8-66.8H406.4c-31,0-56.9,21.4-64.4,50.1C357.8,132.1,372,144,384.1,157.9z"/>
	<rect x="595.2" y="297.9" fill="#0B2F6B" width="65.9" height="85.4"/>
</g>
<g>
	<rect x="417.6" y="335" fill="#0B2F6B" width="353" height="14.8"/>
</g>
</svg>
