<?xml version="1.0" encoding="utf-8"?>
<!-- Generator: Adobe Illustrator 17.1.0, SVG Export Plug-In . SVG Version: 6.00 Build 0)  -->
<!DOCTYPE svg PUBLIC "-//W3C//DTD SVG 1.1//EN" "http://www.w3.org/Graphics/SVG/1.1/DTD/svg11.dtd">
<svg version="1.1" id="Reward" xmlns="http://www.w3.org/2000/svg" xmlns:xlink="http://www.w3.org/1999/xlink" x="0px" y="0px"
	 viewBox="0 0 595.3 841.9" enable-background="new 0 0 595.3 841.9" xml:space="preserve">
<g>
	<path fill="#0B2F6B" d="M536.4,235.9h-54c0.4-0.2,0.8-0.4,1.2-0.5c20.8-9.9,32.3-26.5,32.3-46.5c0-21.6-13.6-38.4-38.6-47
		c-17-6-33.9-6.4-34.6-6.4c-0.1,0-0.1,0-0.2,0c-36.8,0-87.7,8.2-120.6,47.6c-5.4,6.4-9.6,12.9-12.8,18.9c-3.3-6-7.4-12.5-12.8-18.9
		c-33.1-39.5-83.9-47.7-120.8-47.7c-0.7,0-17.6,0.2-34.7,6c-24.9,8.5-38.6,25.3-38.6,47.4c0,20.2,11.4,36.6,32.3,46.5
		c0.4,0.2,0.8,0.4,1.2,0.5H79.3c-21.1,0-33.1,13-33.1,35.7v113c0,2.5,2,4.6,4.6,4.6c0.6,0,1.1-0.1,1.7-0.3h23.9V663
		c0,22.7,12.1,35.7,33.1,35.7h397.3c21.8,0,35.4-13.6,35.4-35.7V388.8h25.2c2.5,0,4.6-2,4.6-4.6V271.6
		C571.7,249.6,558.2,235.9,536.4,235.9z M338.9,197.2c22-26.3,56.8-39.6,103.4-39.7c1.1,0,14.7,0.6,27.6,5.2
		c23.7,8.3,23.7,21.7,23.7,26.2c0,11.6-6.4,20.3-19.5,26.6c-12.5,6-26.4,7.3-30.3,7.3h-120C326.4,215.6,331.1,206.3,338.9,197.2z
		 M124.3,188.8c0-4.5,0-18.2,23.2-26.3c13.6-4.8,27.9-5,28-5c46.2,0,80.8,13,102.9,38.8c8.1,9.5,12.9,19,15.9,26.3H174.2
		c-3.9,0-17.8-1.3-30.2-7.3C130.7,209.1,124.3,200.4,124.3,188.8z M55.2,271.6c0-17.6,8-26.6,24-26.6h218.6v134.6H55.2V271.6z
		 M85.4,663V390.3h212.4v296c0,1.1,0.2,2.2,0.5,3.3h-189C93.5,689.6,85.4,680.6,85.4,663z M532.8,663c0,16.9-9.6,26.6-26.3,26.6
		H319.5c0.3-1,0.5-2.1,0.5-3.3v-296h212.8V663z M562.7,379.7H320V245h216.4c16.7,0,26.3,9.7,26.3,26.6V379.7z"/>
</g>
</svg>
