<?xml version="1.0" encoding="utf-8"?>
<!-- Generator: Adobe Illustrator 17.1.0, SVG Export Plug-In . SVG Version: 6.00 Build 0)  -->
<!DOCTYPE svg PUBLIC "-//W3C//DTD SVG 1.1//EN" "http://www.w3.org/Graphics/SVG/1.1/DTD/svg11.dtd">
<svg version="1.1" id="Fix__x26__Fall" xmlns="http://www.w3.org/2000/svg" xmlns:xlink="http://www.w3.org/1999/xlink" x="0px"
	 y="0px" viewBox="0 0 841.9 595.3" enable-background="new 0 0 841.9 595.3" xml:space="preserve">
<g>
	<path fill="#0B2F6B" d="M379.9,269.5h91.9c9.7,0,17.3,2.4,22.6,7.3c5.3,4.9,8,12.2,8,21.9c0,20-10.2,29.9-30.6,29.9h-77.6
		c3.2,19,4.9,34.7,4.9,47c0,11.8-2.4,25-7.3,39.3c-4.9,14.4-12,28.9-21.4,43.5c-9.4,14.6-20.3,27.4-32.6,38.3H578
		c9.3,0,16.7,2.5,22.3,7.5c5.6,5,8.4,12.5,8.4,22.5c0,9.5-2.7,16.8-8.2,21.8c-5.5,5-12.9,7.5-22.5,7.5H292.8
		c-11.4,0-20.5-2.1-27.5-6.4c-7-4.3-10.4-12.1-10.4-23.5c0-6.7,4.4-15,13.2-24.7c8.8-9.7,18.7-20.6,29.6-32.6
		c10.9-11.9,20.1-25.6,27.5-41.1c7.4-15.4,11.1-33,11.1-52.8c0-18.8-1.7-34.2-5.2-46.3h-71.7c-9.3,0-16.8-2.5-22.5-7.5
		c-5.7-5-8.5-12.5-8.5-22.5c0-9.7,2.8-17.1,8.4-21.9c5.6-4.9,13.1-7.3,22.6-7.3h54.7c-10.9-20.2-19.4-38.2-25.6-54
		c-6.1-15.8-9.2-32-9.2-48.7c0-24.6,7.1-46.6,21.2-66c14.2-19.4,33.2-34.5,57.1-45.4C381.5,44.5,406.7,39,433.1,39
		c20.2,0,40.4,3.9,60.6,11.7c20.2,7.8,37.8,17.8,52.8,30.1c15,12.3,27,26.2,36.2,41.6c9.2,15.4,13.8,30.2,13.8,44.4
		c0,9.1-2.7,16.4-8.2,22.1c-5.5,5.7-12.7,8.5-21.8,8.5c-10,0-18.3-5.7-24.9-17.1c-6.6-11.4-13.3-23.4-20-36.2
		c-6.7-12.8-16.8-23.6-30.3-32.6c-13.5-8.9-32.6-13.4-57.4-13.4c-24.6,0-46.1,6.5-64.4,19.5c-18.3,13-27.5,30.8-27.5,53.3
		c0,11.6,1.9,22.7,5.6,33.2c3.7,10.6,8.6,21.5,14.8,32.9C368.4,248.5,374.3,259.3,379.9,269.5z"/>
</g>
</svg>
