<?xml version="1.0" encoding="utf-8"?>
<!-- Generator: Adobe Illustrator 17.1.0, SVG Export Plug-In . SVG Version: 6.00 Build 0)  -->
<!DOCTYPE svg PUBLIC "-//W3C//DTD SVG 1.1//EN" "http://www.w3.org/Graphics/SVG/1.1/DTD/svg11.dtd">
<svg version="1.1" id="Layer_2" xmlns="http://www.w3.org/2000/svg" xmlns:xlink="http://www.w3.org/1999/xlink" x="0px" y="0px"
	 viewBox="0 0 841.9 595.3" enable-background="new 0 0 841.9 595.3" xml:space="preserve">
<g>
	<g>
		<g>
			<path fill="#0B2F6B" d="M490.6,516.7c-17.1,2.3-34.7,3.4-52.7,3.3c0,0,0,0,0,0c-30.8-0.1-59.8-3.5-85.7-8.5l8.1-27
				c23.7,4.4,50,7.5,77.7,7.6c0,0,0,0,0,0c14.9,0,29.5-0.8,43.7-2.4L490.6,516.7z M196.7,176.8c-0.3,0.4-0.6,0.8-1,1.2
				c-1.3,1.6-2.6,3-3.9,4.4c-0.7,0.8-1.4,1.6-2.1,2.4c-19.2,21.5-36.8,37.2-53.9,48c-2.6,1.6-4.8,3-7.2,4.3
				c-3.1,1.7-6.2,3.3-9.9,4.9c-8.5,3.9-20.1,6.2-30.3,8.2c-4.8,1-11.5,2.3-13.4,3l-0.1,0c-5.5,2.2-6.9,3.4-7.5,4.4
				c-0.1,0.1-0.1,0.3-0.2,0.6l-0.2,0.5c-0.2,0.5-0.5,1.4-0.8,2.4c-0.9,3.4-1.4,8.4-1.4,15.2c0,7.8,0.5,17.8,1.7,33.5
				c0,0.4,0.1,0.7,0.1,1c0.1,0.5,0.1,1,0.2,1.6c2.5,27.3,8.1,39,12.3,44.1c3.4,4.1,7.3,5.9,13.9,6.7l0.1,0
				c2.5,0.2,16.4,0.5,19.5,0.5c17.2,0,30.2,8.1,39.6,15.2c0.6,0.5,1.2,0.9,1.8,1.3c1.4,1.1,3.1,2.3,4.8,3.6
				c4.3,3.5,8.8,7.5,13.6,11.6c9.6,8.3,20.4,17.8,34.3,28c9.3,6.8,18.2,12.6,27.2,17.9l-3.2,30.1c-13.7-7.2-26.7-15.5-40.5-25.5
				c-14.9-10.9-26.2-20.8-36.1-29.5c-4.6-4-8.9-7.8-12.9-11c-1.2-1-2.4-1.9-3.7-2.8c-0.7-0.5-1.3-1-2-1.5
				c-9.1-6.8-15.7-9.6-22.9-9.6c-0.2,0-18.2-0.2-22.6-0.6h0c-13.6-1.5-24.1-6.9-32.2-16.4c-10.1-12-16.2-31.5-18.8-59.5
				c0-0.3-0.1-0.7-0.1-1c-0.1-0.5-0.1-1-0.2-1.6l0-0.2c-1.3-16.6-1.9-27.4-1.8-35.9c0-9.3,0.8-16.4,2.3-22.3
				c0.6-2.1,1.2-4.1,1.9-5.8c0.7-1.7,1.3-3.1,2-4.3l0.1-0.1c5.2-8.9,13.2-13.1,21.1-16.3c4.5-1.9,10.8-3.1,18.7-4.7
				c8.3-1.6,18.7-3.7,24.1-6.2l0.2-0.1c3-1.3,5.4-2.5,7.9-3.9l0.4-0.2c1.6-0.8,3.3-1.9,5.4-3.2c14.8-9.3,30.5-23.4,47.9-42.8
				c0.7-0.8,1.5-1.6,2.2-2.5c1.4-1.5,2.7-3,4-4.5l4.2-4.9l0.2,0c2.8-3.1,5.6-6,8.3-8.7l0.2-0.2c1.2-1.2,2.5-2.3,3.8-3.5
				c1.5-1.4,3-2.7,4.3-4.1c5.1-5.1,10.5-9.9,16.1-14.4L196.7,176.8z M306.1,73c5-1.8,8.9-3,11.1-3.7l0.1,0c4.8-1.5,9.5-2.9,13.4-4.1
				c7.4-2.2,14.9-3.9,22.2-5.6l0.1,0c4.4-1,9-2,13.7-2.9l0.1,0c7.6-1.4,15.8-2.7,25-3.8c1.6-0.2,3.1-0.4,4.7-0.6
				c2.5-0.4,5-0.7,7.8-1c13.6-1.2,25.9-1.8,37.6-1.8l0.9,0c7.8,0,16.1,0.4,24.7,1.2l0.1,0c57.8,5.7,118.4,30,166.2,66.6
				c6.3,4.8,12.7,10.2,19,15.9c27.4,24.7,47.8,52.5,60.7,82.5c0.9,2.2,1.7,4.3,2.3,6.3c0.4,1,0.7,2.1,1.1,3.1l0.1,0.1
				c0.3,0.9,0.7,1.8,1,2.8c0.8,2.1,1.7,4.5,2.5,7c5.2,17,7.8,34.2,7.8,51.2c0,15.9-2,32.2-5.7,48.4c-1.8,7.7-4.1,16.6-7.3,25.4
				c-1,3.1-2.3,5.9-3.3,8.4c-0.3,0.6-0.5,1.2-0.8,1.9c-0.4,0.9-0.7,1.7-1.1,2.6c-0.9,2.3-1.9,4.7-3.1,7.1l-0.1,0.1
				c-14.8,30.5-33.7,54.7-56.3,71.7c-13.3,10.1-27.2,19-41.6,26.9l-2.4-30.8c9.4-5.6,18.4-11.7,27.3-18.4c19-14.4,35.2-35,48-61.5
				c0.8-1.8,1.6-3.7,2.5-5.8c0.4-0.9,0.8-1.9,1.2-2.8c0.3-0.7,0.6-1.3,0.9-2c1-2.3,1.9-4.4,2.6-6.5l0.1-0.4
				c2.7-7.5,4.8-15.5,6.4-22.3c3.2-14,4.9-28.2,4.9-42.1c0-14.2-2.2-28.6-6.6-43l0-0.1c-0.4-1.5-1.1-3.2-1.8-5
				c-0.4-1.1-0.8-2.1-1.2-3.2c-0.5-1.4-0.9-2.7-1.4-3.9c-0.5-1.6-1-3.1-1.6-4.3c-11.1-25.9-29.6-51.1-53.7-72.8
				c-5.8-5.2-11.6-10.1-17.3-14.4c-43.8-33.5-99.1-55.7-152-60.9c-7.8-0.7-15.3-1.1-22.2-1.1l-0.9,0c-10.8,0-22.2,0.5-34.9,1.6
				c-2,0.2-4.2,0.5-6.4,0.8c-1.7,0.2-3.5,0.5-5.3,0.7c-8.5,1-16.1,2.2-23.1,3.5c-4.3,0.8-8.4,1.8-12.8,2.8c-6.9,1.6-14,3.3-20.6,5.2
				c-3.8,1.1-8.2,2.4-12.7,3.9L306.1,73z"/>
		</g>
	</g>
	<g>
		<g>
			<path fill="#0B2F6B" d="M752.6,386.8c-14.6,0-29.6-7.9-44.6-23.2c-2.9-3.1-5.1-5.5-7-7.8c-2.4-3-2-7.4,1-9.8c3-2.4,7.4-2,9.8,1
				c1.6,2,3.6,4.2,6.2,6.9c12.2,12.5,23.9,18.9,34.6,19c24.2,0.1,40.5-19.1,40.5-37c0-8.3-5.2-23.8-17.9-23.9
				c-5.1,0-12.4,6-13.6,8.8c-1.6,3.5-5.7,5.1-9.2,3.5c-3.5-1.6-5.1-5.7-3.5-9.2c3.5-7.9,15.8-17.1,26.4-17.1
				c15.4,0,31.9,14.5,31.9,37.9c0,12.4-5.4,25-14.8,34.6C782,381,767.9,386.8,752.6,386.8z"/>
		</g>
	</g>
	<g>
		<path fill="#0B2F6B" d="M234.4,211.2L234.4,211.2c-3.9,0-7.2-0.2-10.4-0.4l-0.2,0c-4.5-0.4-9.8-0.9-14.3-2.1l-0.1,0
			c-4-1.1-7.1-2.2-9.6-3.6c-3.2-1.7-5.6-3.7-7.3-6l-0.1-0.2l-0.7-0.8c-3-3.9-4.5-9.6-4.5-16.6c0-0.4-0.1-0.8-0.1-1.4
			c0-2.1,0.3-4.2,0.7-6.3c0.1-0.7,0.2-1.5,0.3-2.2c0.5-4.3,1.2-9.4,2.6-15.1c1.6-6.6,3.5-12.7,5.6-18.7l0-0.1
			c0.4-1.2,0.9-2.4,1.4-3.6c0.4-1,0.8-2.1,1.2-3.1c0.6-1.7,1.3-3.4,1.9-5l0.8-2c2.6-6.4,5.7-12.9,9.5-20.5c0.4-0.8,0.8-1.6,1.1-2.4
			c1.1-2.2,2.1-4.5,3.3-6.7c7.8-14.6,16.9-28,25.4-37.7c1.7-2,3.5-3.9,5.9-6.1l0.3-0.3c1.1-1.1,2.3-2,3.2-2.7
			c0.3-0.2,0.5-0.4,0.8-0.6c0.1-0.1,0.2-0.2,0.3-0.3c0.7-0.6,1.6-1.4,2.8-2.1c0.8-0.5,1.5-0.9,2.1-1.2c0.2-0.1,0.3-0.1,0.5-0.2
			l0.7-0.4c0.2-0.1,0.4-0.2,0.6-0.3c0.6-0.4,1.4-0.8,2.2-1.2l1-0.4c0.8-0.2,1.5-0.4,2.1-0.5c0.9-0.3,2.3-0.7,4.1-0.7l0.3,0l1.4,0.1
			l2.4,0.4l1.7,0.5c5.1,1.9,10.4,4.7,16.3,8.4c1.4,0.9,2.7,1.7,3.9,2.5l0.1,0.1c4,2.7,7.1,5.1,10,7.4l0.2,0.2
			c0.3,0.2,0.5,0.4,0.8,0.6c0.4,0.4,0.9,0.7,1.3,1.1c0.3,0.2,0.5,0.4,0.8,0.6c0.4,0.4,0.9,0.7,1.3,1.1l0.1,0.1
			c1.8,1.6,3.6,3.3,5.3,4.9l0.2,0.2c0.9,0.9,1.7,1.7,2.6,2.5l0.3,0.3c0.5,0.5,1.5,1.4,2.1,2c0.4,0.4,0.7,0.7,0.8,0.8
			c0.2,0.2,0.4,0.4,0.6,0.7c2.7,2.6,9.5,9.5,13.5,15.7c0.9,1.4,2.1,3,3.3,4.7c1.4,2,2.9,4.1,4.4,6.3c0.2,0.2,0.3,0.5,0.5,0.7
			c0.4,0.7,1,1.4,1.5,2.3c0.4,0.7,0.9,1.5,1.3,2.3c0.3,0.6,0.6,1.1,1,1.7c2.1,3.4,4.8,8,7.2,13c0.8,1.5,1.4,3,1.9,4.3
			c0.3,0.8,0.7,1.6,1,2.3l0.1,0.3c0.4,0.8,0.7,1.6,1.1,2.5c1.3,2.9,2.6,6,3.7,9.2c0.7,2,1.2,3.9,1.5,5.6c0.2,0.8,0.4,1.6,0.6,2.5
			l0,0.1c0.2,0.8,0.5,1.7,0.7,2.5c0.7,2.2,1.4,4.8,1.8,7.4l0,0.3c0,0.4,0.1,0.7,0.1,1c0.1,0.6,0.2,1.1,0.2,1.7l0,1.7
			c0,2.5-0.7,5-2.1,7.6c-0.5,1-1.2,2.3-2.4,3.8c-9.1,11.9-33.5,20.7-47.3,24.8l-0.2,0c-0.8,0.2-1.6,0.5-2.5,0.8
			c-1.2,0.4-2.5,0.8-3.9,1.2C282.8,207.3,255.5,211.3,234.4,211.2z M225.2,193.5c3,0.2,5.9,0.4,9.1,0.4l0.1,0
			c19.7,0.1,45.2-3.7,68.4-10.1c1-0.3,1.9-0.6,3-0.9c1-0.3,2.1-0.7,3.2-1c21.7-6.6,35-14.2,38.5-18.8c0.2-0.3,0.3-0.5,0.6-1.1
			l0.1-0.2c0,0,0,0,0,0c0,0,0,0,0-0.1c-0.1-0.6-0.2-1.2-0.3-1.9c-0.2-1.3-0.7-3-1.2-4.7c-0.3-1-0.6-2-0.8-3
			c-0.3-1.1-0.5-2.1-0.8-3.1c-0.3-1.4-0.6-2.6-1-3.7l0-0.1c-0.9-2.6-2-5.2-3.2-7.9c-0.4-0.8-0.7-1.6-1.1-2.4
			c-0.5-1.1-0.9-2.2-1.3-3.1c-0.4-1-0.8-2-1.2-2.9l-0.1-0.2c-2.1-4.3-4.6-8.5-6.5-11.6c-0.5-0.8-0.9-1.5-1.3-2.3
			c-0.3-0.6-0.6-1.1-1-1.7c-0.3-0.5-0.6-0.9-0.9-1.4c-0.2-0.3-0.5-0.7-0.7-1l-0.1-0.1c-1.2-1.9-2.6-3.8-3.9-5.6
			c-1.3-1.8-2.7-3.7-3.9-5.6c-2.8-4.5-8.7-10.4-11.7-13.3l0,0l-0.3-0.3l0-0.1l-0.5-0.5c-0.7-0.6-1.6-1.6-2.2-2.1c-1.1-1-2.1-2-3-2.9
			c-1.7-1.6-3.2-3-4.7-4.4c-0.2-0.2-0.5-0.4-0.7-0.6c-0.4-0.4-0.9-0.7-1.3-1.1c-0.3-0.2-0.5-0.4-0.8-0.6c-0.4-0.3-0.8-0.6-1.2-1
			c-2.5-2-5.3-4.1-8.8-6.5c-1.1-0.8-2.2-1.5-3.4-2.2c-4.6-2.9-8.7-5.1-12.5-6.6c0,0,0,0-0.1,0l-1,0.2c-0.1,0-0.1,0-0.2,0
			c0,0,0,0-0.1,0c-0.4,0.2-0.8,0.4-1.2,0.7c-0.5,0.3-1,0.6-1.4,0.7c-0.2,0.1-0.5,0.2-0.6,0.3l-0.2,0.1c-0.1,0.1-0.3,0.2-0.4,0.4
			c-0.2,0.2-0.4,0.4-0.7,0.6l-0.1,0.1c-0.4,0.3-0.9,0.7-1.3,1c-0.6,0.5-1.1,0.9-1.5,1.2l-0.6,0.6c-2,1.8-3.4,3.4-4.8,4.9
			c-7.7,8.9-16,21.1-23.2,34.6c-1,1.8-2,3.9-2.9,5.9c-0.4,0.9-0.8,1.7-1.2,2.5l-0.1,0.1c-3.6,7.2-6.5,13.4-9,19.3l-0.8,1.9
			c-0.6,1.6-1.2,3.1-1.8,4.5c-0.4,1.2-0.9,2.4-1.4,3.6c-0.4,1-0.8,2-1.2,3c-1.9,5.4-3.6,11-5.1,17.1c-1.2,4.7-1.8,9-2.2,12.9
			c-0.1,0.9-0.3,1.8-0.4,2.7c-0.2,1.1-0.4,2.4-0.4,3.3c0,0.4,0.1,0.8,0.1,1.3l0,0.2c-0.1,3.7,0.6,5.7,0.9,6.3l0.4,0.4l0.6,0.8
			c0.1,0.1,0.5,0.5,1.6,1l0.2,0.1c1.2,0.7,3.1,1.3,5.6,2C217.1,192.7,221.4,193.2,225.2,193.5z"/>
	</g>
	<path fill="#0B2F6B" d="M200.8,261.2c-8.6,7.8-20,9.2-25.5,3.2c-5.4-6-2.8-17.2,5.9-25s20-9.2,25.5-3.2
		C212.1,242.2,209.4,253.4,200.8,261.2z"/>
	<g>
		<path fill="#0B2F6B" d="M529.9,145.2c-1.9,0-3.7-0.3-5.6-1l-0.2-0.1c-20.1-8.2-41.3-13.6-61.1-15.5c-5.9-0.5-11.5-0.8-16.6-0.8
			c-9.7,0.1-18.2,0.5-26.9,1.3c-1.7,0.2-3.4,0.4-5.1,0.6l-3.6,0.5c-5.9,0.8-11.9,1.6-17.6,2.6c-0.9,0.2-1.9,0.3-2.9,0.3
			c-7.4,0-13.7-5.3-15-12.6c-0.8-4.1,0.1-8.2,2.5-11.6c2.3-3.4,5.8-5.6,9.9-6.3c6.8-1.3,13.8-2.2,19.2-2.9l4-0.6
			c1.9-0.3,3.8-0.5,5.8-0.7c10.1-0.9,19.8-1.4,29.1-1.4c0,0,0,0,0,0c7.1,0,13.6,0.3,20.2,1c23.2,2.2,46.7,8.2,69.8,17.7l0.1,0
			c7.7,3.3,11.4,12.3,8.3,20C541.9,141.4,536.3,145.2,529.9,145.2z"/>
	</g>
	<g>
		<path fill="#0B2F6B" d="M309.9,560.1c-39.5-0.1-68.7-15.3-70.9-16.5c-2.6-1.4-14.9-8.7-18.2-24.7c-6.7-33.8,0.7-82.4,1-84.4
			c1.2-7.6,8.3-12.8,15.9-11.7c7.6,1.2,12.8,8.3,11.7,15.9l0,0c-0.1,0.5-7,45.8-1.2,74.6c0.6,3.2,3.1,5,3.8,5.4c0.1,0,0,0,0.3,0.2
			c0.2,0.1,27.1,14.2,62.2,13.1c4-0.1,9.1-5,10.6-7c0.4-0.6,11.3-16.9,26.6-66.2c2.3-7.4,10.1-11.5,17.5-9.2
			c7.4,2.3,11.5,10.1,9.2,17.5c-16.8,54.2-29,72.1-30.6,74.3c-1.4,2-13.7,18-32.3,18.6C313.5,560.1,311.7,560.1,309.9,560.1z"/>
	</g>
	<g>
		<path fill="#0B2F6B" d="M529.1,560.7c-1.8,0-3.6,0-5.4-0.1c-18.5-0.6-30.6-16.6-32.1-18.7c-1.5-2-13.7-19.9-30.3-74.5
			c-2.2-7.4,1.9-15.2,9.3-17.4c7.4-2.2,15.2,1.9,17.4,9.3c14.5,48,25.2,64.8,26.2,66.2c0,0,0,0,0,0c0,0,0,0,0,0c0,0,0,0,0,0
			c0,0,0,0,0,0c1.7,2.2,6.6,7,10.5,7.1c35.2,1.4,62.1-12.6,62.4-12.8c0.1,0,0.1,0,0.1-0.1c0,0,0,0,0.1,0c0,0,0,0,0,0
			c0.7-0.4,3.1-2.2,3.8-5.5c5.9-28.8-0.7-74.1-0.8-74.6c-1.1-7.6,4.1-14.7,11.7-15.9c7.6-1.1,14.7,4.1,15.9,11.7
			c0.3,2.1,7.5,50.7,0.5,84.4c-3.3,16-15.7,23.3-18.3,24.6C597.9,545.8,568.7,560.8,529.1,560.7z"/>
	</g>
</g>
</svg>
