<?xml version="1.0" encoding="utf-8"?>
<!-- Generator: Adobe Illustrator 17.1.0, SVG Export Plug-In . SVG Version: 6.00 Build 0)  -->
<!DOCTYPE svg PUBLIC "-//W3C//DTD SVG 1.1//EN" "http://www.w3.org/Graphics/SVG/1.1/DTD/svg11.dtd">
<svg version="1.1" id="Layer_2" xmlns="http://www.w3.org/2000/svg" xmlns:xlink="http://www.w3.org/1999/xlink" x="0px" y="0px"
	 viewBox="0 0 841.9 595.3" enable-background="new 0 0 841.9 595.3" xml:space="preserve">
<g>
	<path fill="#0B2F6B" d="M718.9,566.9h-596c-14.3,0-26-11.7-26-26V278.7c-7.1,0-12.8-5.7-12.8-12.8V55.4c0-14.3,11.7-26,26-26h621.7
		c14.3,0,26,11.7,26,26v210.5c0,7.1-5.7,12.8-12.8,12.8h-0.1v262.2C744.9,555.2,733.2,566.9,718.9,566.9z M109.7,253
		c7.1,0,12.8,5.7,12.8,12.8v275c0,0.2,0.2,0.4,0.4,0.4h596c0.2,0,0.4-0.2,0.4-0.4v-275c0-7.1,5.7-12.8,12.8-12.8h0.1V55.4
		c0-0.2-0.2-0.4-0.4-0.4H110.1c-0.2,0-0.4,0.2-0.4,0.4V253z"/>
</g>
<path fill="none" d="M547.4,267.6H478c-1.2,0-2.3,1.1-2.3,2.3v81.3c0,1.2,1.1,2.3,2.3,2.3h69.4c1.2,0,2.3-1.1,2.3-2.3v-81.3
	C549.7,268.7,548.6,267.6,547.4,267.6z"/>
<path fill="none" d="M241,250.7l0,4.1l0,1.7l0,10.7l-0.2,273.6c0,0.2,0.2,0.4,0.4,0.4h41V409.4c0-6.3,5.1-11.5,11.5-11.5h70.9
	c7.2,0,13.1,5.9,13.1,13.1v130.2h37.9v-274v-10.7V80.2v-4.1L241.2,250.5C241.1,250.6,241,250.7,241,250.7z M282.1,269.9
	c0-0.9,0.1-1.9,0.3-2.7c1.3-5.9,6.5-10.3,12.8-10.3h69.5c6.3,0,11.5,4.4,12.8,10.3c0.2,0.9,0.3,1.8,0.3,2.7v81.3
	c0,7.2-5.9,13.1-13.1,13.1h-69.4c-6.7,0-12.3-5.1-13-11.7c-0.1-0.4-0.2-0.9-0.2-1.3V269.9z"/>
<path fill="none" d="M295.3,353.6h69.4c1.2,0,2.3-1.1,2.3-2.3v-81.3c0-1.2-1.1-2.3-2.3-2.3h-69.5c-1.2,0-2.3,1.1-2.3,2.3v80.3
	c0.1,0.3,0.1,0.7,0.1,1C293,352.5,294,353.6,295.3,353.6z"/>
<path fill="none" d="M426.2,74.5v5.7v176.3v10.7v274h38.6V411c0-7.2,5.9-13.1,13.1-13.1h69.4c7.2,0,13.1,5.9,13.1,13.1v130.2h39.9
	c0.2,0,0.4-0.2,0.4-0.4l0.1-273.6l0-10.7l0-1.8l0-4.1c0,0,0-0.1,0-0.1c0,0-0.1-0.1-0.1-0.1L426.2,74.5z M560.4,351.2
	c0,7.2-5.9,13.1-13.1,13.1H478c-7.2,0-13.1-5.9-13.1-13.1v-81.3c0-0.9,0.1-1.9,0.3-2.7c1.3-5.9,6.5-10.3,12.8-10.3h69.4
	c6.3,0,11.5,4.4,12.8,10.3c0.2,0.9,0.3,1.8,0.3,2.7V351.2z"/>
<path fill="#0B2F6B" d="M745,256.5h-88L434.5,34.1c-3.6-3.6-8.5-5.6-13.6-5.6c-5.1,0-10,2-13.6,5.6L184.9,256.5h-88
	c-3,0-5.4,2.4-5.4,5.4s2.4,5.4,5.4,5.4h77.3l-9.8,9.8c-7.5,7.5-7.5,19.7,0,27.2c7.5,7.5,19.7,7.5,27.2,0l23.8-23.8l-0.2,260.4
	c0,14.3,11.7,26,26,26h359.1c14.3,0,26-11.7,26-26l0.1-260.5l23.9,23.9c3.8,3.8,8.7,5.6,13.6,5.6s9.8-1.9,13.6-5.6
	c7.5-7.5,7.5-19.7,0-27.2l-9.8-9.8H745c3,0,5.4-2.4,5.4-5.4S747.9,256.5,745,256.5z M366.9,541.2h-74V409.4c0-0.4,0.3-0.7,0.7-0.7
	h70.9c1.2,0,2.3,1.1,2.3,2.3V541.2z M415.5,80.2v176.3v10.7v274h-37.9V411c0-7.2-5.9-13.1-13.1-13.1h-70.9
	c-6.3,0-11.5,5.1-11.5,11.5v131.8h-41c-0.2,0-0.4-0.2-0.4-0.4l0.2-273.6l0-10.7l0-1.7l0-4.1c0-0.1,0-0.1,0.1-0.2L415.5,76.1V80.2z
	 M549.6,541.2h-74.1V411c0-1.2,1.1-2.3,2.3-2.3h69.4c1.2,0,2.3,1.1,2.3,2.3V541.2z M600.8,250.6l0,4.1l0,1.8l0,10.7l-0.1,273.6
	c0,0.2-0.2,0.4-0.4,0.4h-39.9V411c0-7.2-5.9-13.1-13.1-13.1h-69.4c-7.2,0-13.1,5.9-13.1,13.1v130.2h-38.6v-274v-10.7V80.2v-5.7
	l174.4,176C600.7,250.5,600.7,250.5,600.8,250.6C600.8,250.6,600.8,250.6,600.8,250.6z"/>
<path fill="#0B2F6B" d="M295.3,364.3h69.4c7.2,0,13.1-5.9,13.1-13.1v-81.3c0-0.9-0.1-1.9-0.3-2.7c-1.3-5.9-6.5-10.3-12.8-10.3h-69.5
	c-6.3,0-11.5,4.4-12.8,10.3c-0.2,0.9-0.3,1.8-0.3,2.7v81.3c0,0.5,0.1,0.9,0.2,1.3C283,359.2,288.6,364.3,295.3,364.3z M292.9,269.9
	c0-1.2,1.1-2.3,2.3-2.3h69.5c1.2,0,2.3,1.1,2.3,2.3v81.3c0,1.2-1.1,2.3-2.3,2.3h-69.4c-1.2,0-2.3-1.1-2.3-2.3c0-0.4,0-0.7-0.1-1
	V269.9z"/>
<path fill="#0B2F6B" d="M547.4,256.9H478c-6.3,0-11.5,4.4-12.8,10.3c-0.2,0.9-0.3,1.8-0.3,2.7v81.3c0,7.2,5.9,13.1,13.1,13.1h69.4
	c7.2,0,13.1-5.9,13.1-13.1v-81.3c0-0.9-0.1-1.9-0.3-2.7C558.9,261.3,553.6,256.9,547.4,256.9z M549.7,351.2c0,1.2-1.1,2.3-2.3,2.3
	H478c-1.2,0-2.3-1.1-2.3-2.3v-81.3c0-1.2,1.1-2.3,2.3-2.3h69.4c1.2,0,2.3,1.1,2.3,2.3V351.2z"/>
</svg>
