<?xml version="1.0" encoding="utf-8"?>
<!-- Generator: Adobe Illustrator 17.1.0, SVG Export Plug-In . SVG Version: 6.00 Build 0)  -->
<!DOCTYPE svg PUBLIC "-//W3C//DTD SVG 1.1//EN" "http://www.w3.org/Graphics/SVG/1.1/DTD/svg11.dtd">
<svg version="1.1" id="Layer_2" xmlns="http://www.w3.org/2000/svg" xmlns:xlink="http://www.w3.org/1999/xlink" x="0px" y="0px"
	 viewBox="0 0 841.9 595.3" enable-background="new 0 0 841.9 595.3" xml:space="preserve">
<g>
	<g>
		<path fill="#0B2F6B" d="M706.6,579.8H133.1c-32.3,0-58.6-26.3-58.6-58.6V204.9c0-32.3,26.3-58.6,58.6-58.6h573.4
			c32.3,0,58.6,26.3,58.6,58.6v314.4c0.1,0.6,0.1,1.2,0.1,1.9C765.2,553.5,738.9,579.8,706.6,579.8z M133.1,180.1
			c-13.7,0-24.8,11.1-24.8,24.8v316.3c0,13.7,11.1,24.8,24.8,24.8h573.5c13.2,0,24-10.3,24.7-23.3c0-0.5-0.1-0.9-0.1-1.4V204.9
			c0-13.7-11.1-24.8-24.8-24.8H133.1z"/>
	</g>
	<g>
		<path fill="#0B2F6B" d="M581.8,169.1H531V84.4c0-13.8-11.6-25.4-25.4-25.4H334.1c-13.8,0-25.4,11.6-25.4,25.4v84.7h-50.8V84.4
			c0-42,34.2-76.2,76.2-76.2h171.5c42,0,76.2,34.2,76.2,76.2V169.1z"/>
	</g>
	<g>
		<rect x="215" y="265.4" fill="#0B2F6B" width="75.2" height="97.4"/>
		<rect x="549.5" y="265.4" fill="#0B2F6B" width="75.2" height="97.4"/>
	</g>
</g>
<g>
	<rect x="91" y="309.1" fill="#0B2F6B" width="657.3" height="14.1"/>
</g>
</svg>
