<?xml version="1.0" encoding="utf-8"?>
<!-- Generator: Adobe Illustrator 18.0.0, SVG Export Plug-In . SVG Version: 6.00 Build 0)  -->
<!DOCTYPE svg PUBLIC "-//W3C//DTD SVG 1.1//EN" "http://www.w3.org/Graphics/SVG/1.1/DTD/svg11.dtd">
<svg version="1.1" id="Layer_41" xmlns="http://www.w3.org/2000/svg" xmlns:xlink="http://www.w3.org/1999/xlink" x="0px" y="0px"
	 viewBox="0 0 111.3 111.3" enable-background="new 0 0 111.3 111.3" xml:space="preserve">
<path fill="#0B2F6B" d="M67.2,56c-0.6,0-1.1-0.2-1.5-0.6c-0.9-0.9-0.9-2.2,0-3.1l20.6-20.6c0.5-0.5,1-0.9,1.7-1.2l8.1-3.7
	c0.2-0.1,0.4-0.3,0.5-0.5l7.5-10.5c0.4-0.6,0.3-1.3-0.1-1.8l-3.8-3.8c-0.5-0.5-1.2-0.5-1.8-0.1l-10.5,7.5c-0.2,0.1-0.4,0.3-0.5,0.5
	l-3.7,8.1c-0.3,0.6-0.7,1.2-1.2,1.7L61.9,48.5c-0.9,0.9-2.2,0.9-3.1,0s-0.9-2.2,0-3.1l20.6-20.6c0.1-0.1,0.2-0.3,0.3-0.4l3.7-8.1
	c0.4-0.9,1.1-1.7,1.9-2.3l10.5-7.5c2.3-1.6,5.4-1.4,7.4,0.6L107,11c2,2,2.3,5.1,0.6,7.4l-7.5,10.5c-0.6,0.8-1.4,1.5-2.3,1.9
	l-8.1,3.7c-0.1,0.1-0.3,0.2-0.4,0.3L68.7,55.4C68.3,55.8,67.8,56,67.2,56z"/>
<g>
	<path fill="#0B2F6B" d="M68.3,65l-6.2-6.2L55.3,52l-6.2-6.2c-0.9-0.9-2.4-0.9-3.3,0L11.7,80c-0.1,0.1-0.2,0.2-0.3,0.4
		c-5.5,6.3-5.2,16,0.9,21.9c6.1,5.9,15.3,6,21.6,0.5c0.1-0.1,0.3-0.2,0.4-0.3l34.1-34.1C69.2,67.4,69.2,65.9,68.3,65z M17.9,85.8
		c-0.2,0-0.5-0.1-0.6-0.3c-0.4-0.4-0.4-0.9,0-1.3l30.1-30.1c0.4-0.4,0.9-0.4,1.3,0c0.4,0.4,0.4,0.9,0,1.3L18.5,85.5
		C18.4,85.7,18.1,85.8,17.9,85.8z M21.9,93.4c-0.2,0.2-0.4,0.3-0.6,0.3s-0.5-0.1-0.6-0.3c-0.4-0.4-0.4-0.9,0-1.3l32.4-32.4
		c0.4-0.4,0.9-0.4,1.3,0c0.4,0.4,0.4,0.9,0,1.3L21.9,93.4z M60,66.7L29.8,96.8c-0.2,0.2-0.4,0.3-0.6,0.3s-0.5-0.1-0.6-0.3
		c-0.4-0.4-0.4-0.9,0-1.3l30.1-30.1c0.4-0.4,0.9-0.4,1.3,0C60.3,65.7,60.3,66.3,60,66.7z"/>
</g>
<path fill="#0B2F6B" d="M96,101.4c-1.4,0-2.7-0.5-3.7-1.5c-1-1-1.5-2.3-1.5-3.7c0-1.4,0.5-2.7,1.5-3.7c1-1,2.3-1.5,3.7-1.5
	c1.4,0,2.7,0.5,3.7,1.5c1,1,1.5,2.3,1.5,3.7c0,1.4-0.5,2.7-1.5,3.7C98.6,100.9,97.3,101.4,96,101.4z M96,92.9c-0.9,0-1.7,0.3-2.4,1
	s-1,1.5-1,2.4c0,0.9,0.3,1.7,1,2.4c1.3,1.3,3.5,1.3,4.7,0c0.6-0.6,1-1.5,1-2.4c0-0.9-0.3-1.7-1-2.4S96.9,92.9,96,92.9z"/>
<g>
	<path fill="#0B2F6B" d="M104.5,88.1L68.7,52.3c-0.8-0.8-2.3-0.8-3.1,0l-5,5l-3.8-3.8l5-5c0.9-0.9,0.9-2.2,0-3.1l-10-10
		c2.5-8.5,0.1-17.9-6.2-24.2C41,6.5,34.9,4,28.3,4c-3.3,0-6.6,0.7-9.6,2c-0.7,0.3-1.2,0.9-1.3,1.6c-0.1,0.7,0.1,1.5,0.6,2l15.3,15.3
		c0.3,0.3,0.3,0.7,0,1l-7.9,7.9c-0.2,0.2-0.4,0.2-0.5,0.2s-0.3,0-0.5-0.2L9.1,18.4c-0.5-0.5-1.3-0.7-2-0.6c-0.7,0.1-1.3,0.6-1.6,1.3
		C1.7,28.4,3.8,38.9,10.9,46c4.6,4.6,10.8,7.2,17.4,7.2c2.3,0,4.6-0.3,6.9-1l4.4,4.4l3.1-3.1l-5.4-5.4c-0.4-0.4-1-0.6-1.5-0.6
		c-0.2,0-0.5,0-0.7,0.1c-2.2,0.8-4.4,1.2-6.8,1.2c-5.4,0-10.5-2.1-14.3-5.9c-5-5-7-12.1-5.4-18.8l12.7,12.7c1,1,2.2,1.5,3.6,1.5
		c1.4,0,2.6-0.5,3.6-1.5l7.9-7.9c2-2,2-5.2,0-7.2L23.6,8.9c1.5-0.4,3.1-0.6,4.7-0.6c5.4,0,10.5,2.1,14.3,5.9
		c5.5,5.5,7.3,13.7,4.8,21c-0.3,0.8-0.1,1.7,0.5,2.3l9.4,9.4l-5,5c-0.9,0.9-0.9,2.2,0,3.1L59,62c0.8,0.8,2.3,0.8,3.1,0l5-5
		l34.2,34.2c2.9,2.9,2.9,7.7,0,10.6c-1.4,1.4-3.3,2.2-5.3,2.2c-2,0-3.9-0.8-5.3-2.2l-31-31l-3.1,3.1l31,31c2.2,2.2,5.2,3.5,8.4,3.5
		c3.2,0,6.1-1.2,8.4-3.5C109.2,100.2,109.2,92.7,104.5,88.1z"/>
</g>
</svg>
