<?xml version="1.0" encoding="utf-8"?>
<!-- Generator: Adobe Illustrator 17.1.0, SVG Export Plug-In . SVG Version: 6.00 Build 0)  -->
<!DOCTYPE svg PUBLIC "-//W3C//DTD SVG 1.1//EN" "http://www.w3.org/Graphics/SVG/1.1/DTD/svg11.dtd">
<svg version="1.1" id="Layer_1" xmlns="http://www.w3.org/2000/svg" xmlns:xlink="http://www.w3.org/1999/xlink" x="0px" y="0px"
	 viewBox="0 0 841.9 595.3" enable-background="new 0 0 841.9 595.3" xml:space="preserve">
<g id="Layer_1_1_" display="none">
	<circle display="inline" fill="#F2F2F2" cx="420.7" cy="300.6" r="291.5"/>
</g>
<g>
	<path fill="none" d="M585.5,74.6c72.9,0,132,59.1,132,132c0,59.2-39.1,109.4-92.8,126.1v40.6c76-17.8,132.7-86,132.7-167.4
		c0-94.9-77-171.9-171.9-171.9c-81.2,0-149.2,56.3-167.2,132h41.6C476.9,113,526.7,74.6,585.5,74.6z"/>
	<path fill="none" d="M624.7,207.3v43.1c0.9-0.8,1.9-1.7,2.8-2.6c11-11,17.2-26.1,17.2-41.9c0-32.3-26.8-59.1-59.1-59.1
		c-17.4,0-32.9,7.5-43.7,19.3h41.6C606.1,166,624.7,184.6,624.7,207.3z"/>
	<path fill="none" d="M663.9,206.6c0,21.3-8.3,40.6-22.7,55.7c-5.1,4.8-10.6,9-16.5,12.3v39.9c44.1-16.1,75.6-58.4,75.6-107.9
		c0-63.3-51.6-114.8-114.8-114.8c-49,0-91,30.9-107.4,74.3h39c13.6-23.5,39-39.2,68.4-39.2C629.5,126.8,663.9,163.3,663.9,206.6z"/>
	<path fill="none" d="M600.6,207.3c0-9.6-7.6-17.2-17.2-17.2H108.3c-9.6,0-17.2,7.6-17.2,17.2v321.8c0,9.6,7.6,17.2,17.2,17.2h475.1
		c9.6,0,17.2-7.6,17.2-17.2V207.3z M241.7,450h-89.4c-11,0-19.9-8.9-19.9-19.9V306.3c0-11,8.9-19.9,19.9-19.9H241
		c11,0,19.9,8.9,19.9,19.9l0.7,123.8C261.6,441,252.7,450,241.7,450z M410.8,430c0,11-8.9,19.9-19.9,19.9h-88.7
		c-11,0-19.9-8.9-19.9-19.9V306.3c0-11,8.9-19.9,19.9-19.9h88.7c11,0,19.9,8.9,19.9,19.9V430z M540.1,450h-89.4
		c-11,0-19.9-8.9-19.9-19.9V306.3c0-11,8.9-19.9,19.9-19.9h88.7c11,0,19.9,8.9,19.9,19.9L560,430C560,441,551.1,450,540.1,450z"/>
	<path fill="#0B2F6B" d="M624.7,385.3c82.2-17.9,143.7-91.1,143.7-178.7c0-101.1-81.8-182.9-182.9-182.9
		c-87.1,0-159.9,60.8-178.4,142.3H108.3C85.6,166,67,184.6,67,207.3v321.8c0,22.7,18.6,41.3,41.3,41.3h474.4
		c22.7,0,41.3-18.6,41.9-40.6V385.3z M517,166h-39c16.4-43.3,58.4-74.3,107.4-74.3c63.3,0,114.8,51.6,114.8,114.8
		c0,49.5-31.6,91.8-75.6,107.9v-39.9c5.9-3.4,11.4-7.5,16.5-12.3c14.4-15.1,22.7-34.4,22.7-55.7c0-43.3-34.4-79.8-78.4-79.8
		C556.1,126.8,530.7,142.5,517,166z M583.4,166h-41.6c10.8-11.8,26.2-19.3,43.7-19.3c32.3,0,59.1,26.8,59.1,59.1
		c0,15.8-6.2,30.9-17.2,41.9c-0.9,0.9-1.8,1.7-2.8,2.6v-43.1C624.7,184.6,606.1,166,583.4,166z M585.5,34
		c94.9,0,171.9,77,171.9,171.9c0,81.4-56.7,149.6-132.7,167.4v-40.6c53.8-16.7,92.8-66.9,92.8-126.1c0-72.9-59.1-132-132-132
		c-58.7,0-108.5,38.4-125.7,91.4h-41.6C436.2,90.3,504.3,34,585.5,34z M583.4,546.2H108.3c-9.6,0-17.2-7.6-17.2-17.2V207.3
		c0-9.6,7.6-17.2,17.2-17.2h475.1c9.6,0,17.2,7.6,17.2,17.2v321.8C600.6,538.7,593,546.2,583.4,546.2z"/>
	<path fill="#0B2F6B" d="M241,286.3h-88.7c-11,0-19.9,8.9-19.9,19.9V430c0,11,8.9,19.9,19.9,19.9h89.4c11,0,19.9-8.9,19.9-19.9
		l-0.7-123.8C260.9,295.3,252,286.3,241,286.3z M221.7,412.2c-0.7,0.7-2.1,1.4-3.4,1.4H177c-2.1,0-3.4-0.7-4.1-1.4
		c-0.7-0.7-1.4-2.1-1.4-2.8c0-1.4,0.7-2.8,2.1-4.8l29.6-39.9c4.1-5.5,6.2-10.3,6.2-15.1c0-2.8-0.7-4.8-2.1-6.9s-2.8-3.4-4.8-4.8
		c-2.1-1.4-4.1-1.4-6.9-1.4c-3.4,0-6.2,0.7-8.3,2.8c-2.1,2.1-4.1,4.1-5.5,6.9c-1.4,2.8-2.1,6.2-2.1,9.6c0,1.4-0.7,2.8-1.4,3.4
		c-0.7,0.7-2.1,1.4-3.4,1.4c-3.4,0-5.5-2.1-5.5-6.9c0-3.4,0.7-6.9,2.1-10.3c1.4-3.4,2.8-6.2,5.5-8.3c2.1-2.8,4.8-4.1,8.3-6.2
		c3.4-1.4,7.6-2.1,11.7-2.1c4.8,0,8.3,0.7,12.4,2.8c3.4,2.1,6.2,4.8,8.3,8.3c2.1,3.4,2.8,6.9,2.8,10.3c0,2.8-0.7,6.2-1.4,8.9
		c-0.7,2.8-2.1,5.5-4.8,8.9L186,403.9h32.3c1.4,0,2.1,0.7,3.4,1.4c0.7,0.7,1.4,2.1,1.4,3.4C223.1,410.1,222.4,410.8,221.7,412.2z"/>
	<path fill="#0B2F6B" d="M343.4,366.8c-4.8,0-8.9,2.1-11,5.5c-2.1,3.4-3.4,7.6-3.4,13.1c0,5.5,1.4,9.6,3.4,13.1
		c2.8,3.4,6.2,5.5,11,5.5s8.9-2.1,11-5.5c2.8-3.4,3.4-7.6,3.4-13.1c0-6.2-1.4-10.3-3.4-13.8C351.7,368.2,348.3,366.8,343.4,366.8z"
		/>
	<path fill="#0B2F6B" d="M390.9,286.3h-88.7c-11,0-19.9,8.9-19.9,19.9V430c0,11,8.9,19.9,19.9,19.9h88.7c11,0,19.9-8.9,19.9-19.9
		V306.3C410.8,295.3,401.9,286.3,390.9,286.3z M366.8,396.3c-1.4,3.4-3.4,6.2-5.5,8.9c-2.1,2.8-4.8,4.1-8.3,6.2
		c-2.1,1.4-5.5,2.1-8.9,2.1c-3.4,0-6.9-0.7-10.3-2.1c-3.4-1.4-5.5-3.4-8.3-6.2c-2.1-2.8-4.1-5.5-5.5-9.6c-1.4-3.4-2.1-7.6-2.1-11.7
		c0-6.2,0.7-11.7,2.8-17.2c2.1-5.5,4.1-10.3,6.9-15.1c2.8-4.8,6.2-8.9,9.6-13.1c3.4-4.1,6.9-7.6,10.3-10.3c2.1-1.4,3.4-2.1,4.8-2.1
		c0.7,0,1.4,0,2.1,0.7c0.7,0.7,1.4,0.7,1.4,1.4c0.7,0.7,0.7,1.4,0.7,2.8c0,0.7,0,1.4-0.7,2.1c-0.7,0.7-1.4,2.1-3.4,3.4
		c-3.4,3.4-6.9,6.2-9.6,9.6s-5.5,8.3-8.9,13.8c2.1-1.4,4.1-2.1,6.2-2.8s4.8-0.7,6.9-0.7c4.1,0,8.3,1.4,11.7,4.1
		c3.4,2.8,5.5,6.2,7.6,10.3c1.4,4.1,2.8,8.9,2.8,14.4C368.9,388.8,368.2,392.9,366.8,396.3z"/>
	<path fill="#0B2F6B" d="M487.8,357.2c2.1,2.1,4.8,3.4,8.9,3.4c2.8,0,4.8-0.7,6.2-1.4c2.1-1.4,3.4-2.8,4.1-4.8
		c0.7-2.1,1.4-4.1,1.4-6.2c0-3.4-1.4-6.9-3.4-8.9c-2.1-2.1-4.8-3.4-8.9-3.4s-6.9,1.4-8.9,3.4c-1.4,2.1-2.8,4.8-2.8,8.9
		C484.4,351.7,485.8,355.1,487.8,357.2z"/>
	<path fill="#0B2F6B" d="M559.3,306.3c0-11-8.9-19.9-19.9-19.9h-88.7c-11,0-19.9,8.9-19.9,19.9V430c0,11,8.9,19.9,19.9,19.9h89.4
		c11,0,19.9-8.9,19.9-19.9L559.3,306.3z M515.3,405.3c-4.8,5.5-11,8.3-19.3,8.3c-5.5,0-9.6-1.4-13.8-3.4c-4.1-2.8-6.9-5.5-8.9-10.3
		c-2.1-4.1-2.8-8.3-2.8-13.1c0-5.5,1.4-9.6,4.1-13.8c2.8-4.1,6.2-6.9,11-7.6c-2.8-1.4-4.8-3.4-6.2-4.8c-1.4-2.1-2.8-3.4-3.4-6.2
		c-0.7-2.8-1.4-5.5-1.4-8.3c0-4.1,1.4-7.6,3.4-10.3c2.1-2.8,4.8-5.5,8.3-6.9s6.9-2.1,10.3-2.1c3.4,0,7.6,0.7,10.3,2.1
		c3.4,1.4,6.2,3.4,8.3,6.9c2.1,2.8,3.4,6.9,3.4,10.3c0,4.1-0.7,8.3-2.8,11s-4.8,5.5-8.3,8.3c2.1,0.7,4.8,1.4,6.2,2.8
		c2.1,1.4,3.4,2.8,4.8,4.8s2.1,4.1,2.8,6.2s0.7,4.8,0.7,6.9C522.2,393.6,520.2,399.8,515.3,405.3z"/>
	<path fill="#0B2F6B" d="M496.8,369.5c-4.8,0-8.3,1.4-11,4.8c-2.8,4.1-4.1,7.6-4.1,12.4c0,3.4,0.7,6.9,2.1,9.6
		c1.4,2.8,3.4,4.8,5.5,6.2c2.1,1.4,4.8,2.1,7.6,2.1c4.1,0,7.6-1.4,10.3-4.8c2.8-3.4,4.1-7.6,4.1-12.4c0-4.8-1.4-8.9-4.1-12.4
		C504.3,371.6,500.9,369.5,496.8,369.5z"/>
	<path fill="#FFFFFF" d="M218.3,403.9H186l28.2-37.8c2.8-3.4,4.1-6.2,4.8-8.9c0.7-2.8,1.4-6.2,1.4-8.9c0-3.4-0.7-6.9-2.8-10.3
		c-2.1-3.4-4.8-6.2-8.3-8.3c-4.1-2.1-7.6-2.8-12.4-2.8c-4.1,0-8.3,0.7-11.7,2.1c-3.4,2.1-6.2,3.4-8.3,6.2c-2.8,2.1-4.1,4.8-5.5,8.3
		c-1.4,3.4-2.1,6.9-2.1,10.3c0,4.8,2.1,6.9,5.5,6.9c1.4,0,2.8-0.7,3.4-1.4c0.7-0.7,1.4-2.1,1.4-3.4c0-3.4,0.7-6.9,2.1-9.6
		c1.4-2.8,3.4-4.8,5.5-6.9c2.1-2.1,4.8-2.8,8.3-2.8c2.8,0,4.8,0,6.9,1.4c2.1,1.4,3.4,2.8,4.8,4.8s2.1,4.1,2.1,6.9
		c0,4.8-2.1,9.6-6.2,15.1l-29.6,39.9c-1.4,2.1-2.1,3.4-2.1,4.8c0,0.7,0.7,2.1,1.4,2.8c0.7,0.7,2.1,1.4,4.1,1.4h41.3
		c1.4,0,2.8-0.7,3.4-1.4c0.7-1.4,1.4-2.1,1.4-3.4c0-1.4-0.7-2.8-1.4-3.4C220.4,404.6,219.7,403.9,218.3,403.9z"/>
	<path fill="#FFFFFF" d="M358.6,360.6c-3.4-2.8-7.6-4.1-11.7-4.1c-2.1,0-4.8,0-6.9,0.7s-4.1,1.4-6.2,2.8c3.4-5.5,6.2-10.3,8.9-13.8
		s6.2-6.2,9.6-9.6c2.1-1.4,2.8-2.8,3.4-3.4c0.7-0.7,0.7-1.4,0.7-2.1c0-1.4,0-2.1-0.7-2.8c0-0.7-0.7-0.7-1.4-1.4
		c-0.7-0.7-1.4-0.7-2.1-0.7c-1.4,0-2.8,0.7-4.8,2.1c-3.4,2.8-6.9,6.2-10.3,10.3c-3.4,4.1-6.9,8.3-9.6,13.1
		c-2.8,4.8-4.8,9.6-6.9,15.1c-2.1,5.5-2.8,11-2.8,17.2c0,4.1,0.7,8.3,2.1,11.7c1.4,4.1,3.4,6.9,5.5,9.6c2.8,2.8,4.8,4.8,8.3,6.2
		c3.4,1.4,6.9,2.1,10.3,2.1c3.4,0,6.9-0.7,8.9-2.1c3.4-2.1,6.2-3.4,8.3-6.2c2.1-2.8,4.1-5.5,5.5-8.9c1.4-3.4,2.1-7.6,2.1-11
		c0-5.5-1.4-10.3-2.8-14.4C364.1,366.8,362,363.3,358.6,360.6z M354.4,398.4c-2.1,3.4-6.2,5.5-11,5.5s-8.3-2.1-11-5.5
		c-2.1-3.4-3.4-7.6-3.4-13.1c0-5.5,1.4-9.6,3.4-13.1c2.1-3.4,6.2-5.5,11-5.5c4.8,0,8.3,1.4,11,4.8c2.1,3.4,3.4,7.6,3.4,13.8
		C357.9,390.8,357.2,395,354.4,398.4z"/>
	<path fill="#FFFFFF" d="M518.8,373c-1.4-2.1-2.8-3.4-4.8-4.8c-1.4-1.4-4.1-2.1-6.2-2.8c3.4-2.8,6.2-5.5,8.3-8.3s2.8-6.9,2.8-11
		c0-3.4-1.4-7.6-3.4-10.3c-2.1-3.4-4.8-5.5-8.3-6.9c-2.8-1.4-6.9-2.1-10.3-2.1c-3.4,0-6.9,0.7-10.3,2.1s-6.2,4.1-8.3,6.9
		c-2.1,2.8-3.4,6.2-3.4,10.3c0,2.8,0.7,5.5,1.4,8.3c0.7,2.8,2.1,4.1,3.4,6.2c1.4,1.4,3.4,3.4,6.2,4.8c-4.8,0.7-8.3,3.4-11,7.6
		c-2.8,4.1-4.1,8.3-4.1,13.8c0,4.8,0.7,8.9,2.8,13.1c2.1,4.8,4.8,7.6,8.9,10.3c4.1,2.1,8.3,3.4,13.8,3.4c8.3,0,14.4-2.8,19.3-8.3
		c4.8-5.5,6.9-11.7,6.9-19.3c0-2.1,0-4.8-0.7-6.9S520.2,375,518.8,373z M487.1,339.3c2.1-2.1,4.8-3.4,8.9-3.4s6.9,1.4,8.9,3.4
		c2.1,2.1,3.4,5.5,3.4,8.9c0,2.1-0.7,4.1-1.4,6.2c-0.7,2.1-2.1,3.4-4.1,4.8c-1.4,0.7-3.4,1.4-6.2,1.4c-4.1,0-6.9-1.4-8.9-3.4
		c-2.1-2.1-3.4-5.5-3.4-8.9C484.4,344.1,485.8,341.3,487.1,339.3z M507.1,399.8c-2.8,3.4-6.2,4.8-10.3,4.8c-2.8,0-5.5-0.7-7.6-2.1
		c-2.1-1.4-4.1-3.4-5.5-6.2c-1.4-2.8-2.1-6.2-2.1-9.6c0-4.8,1.4-8.3,4.1-12.4c2.8-3.4,6.2-4.8,11-4.8c4.1,0,7.6,2.1,10.3,5.5
		c2.8,3.4,4.1,7.6,4.1,12.4C511.2,392.2,509.8,396.4,507.1,399.8z"/>
</g>
</svg>
