<?xml version="1.0" encoding="utf-8"?>
<!-- Generator: Adobe Illustrator 17.1.0, SVG Export Plug-In . SVG Version: 6.00 Build 0)  -->
<!DOCTYPE svg PUBLIC "-//W3C//DTD SVG 1.1//EN" "http://www.w3.org/Graphics/SVG/1.1/DTD/svg11.dtd">
<svg version="1.1" id="Layer_1" xmlns="http://www.w3.org/2000/svg" xmlns:xlink="http://www.w3.org/1999/xlink" x="0px" y="0px"
	 viewBox="0 0 841.9 595.3" enable-background="new 0 0 841.9 595.3" xml:space="preserve">
<g id="Layer_1_1_" display="none">
	<circle display="inline" fill="#F2F2F2" cx="420.7" cy="300.6" r="291.5"/>
</g>
<path fill="#0B2F6B" d="M754,546.4H88.4c-30.9,0-55.8-24.9-55.8-55.8V107.9c0-30.9,24.9-55.8,55.8-55.8H754
	c30.9,0,55.8,24.9,55.8,55.8v383.4C809.9,521.5,785,546.4,754,546.4z M88.4,81.5C74.1,81.5,62,93.6,62,107.9v382.6
	c0,14.3,12.1,26.4,26.4,26.4H754c14.3,0,26.4-12.1,26.4-26.4V107.9c0-14.3-12.1-26.4-26.4-26.4H88.4z"/>
<path fill="#0B2F6B" d="M471.8,521.5h-81.5c-7.5,0-12.8-6-12.8-12.8s6-12.8,12.8-12.8h82.3l0,0c7.5,0,12.8,6,12.8,12.8
	S479.3,521.5,471.8,521.5z"/>
<path fill="#0B2F6B" d="M756.3,415.1c0,15.1-12.1,27.9-27.9,27.9H110.3c-15.1,0-27.9-12.1-27.9-27.9V133.6
	c0-15.1,12.1-27.9,27.9-27.9h618.1c15.1,0,27.9,12.1,27.9,27.9V415.1z"/>
<g>
	<g>
		<path fill="#FFFFFF" d="M195.6,389.4c-1.5,0-3-0.8-3.8-1.5c-1.5-2.3-1.5-5.3,0.8-7.5l17.4-15.1c3-2.3,4.5-4.5,4.5-6.8
			c0-4.5-3-9.1-4.5-9.8l-0.8-0.8c-15.8-21.1-23.4-46-23.4-71.7c0-66.4,53.6-120,120-120c3,0,5.3,2.3,5.3,5.3s-2.3,5.3-5.3,5.3
			c-60.4,0-110.2,49.1-110.2,110.2c0,24.2,7.5,46.8,21.9,65.7c3,3,6.8,8.3,7.5,13.6c0.8,5.3,0,12.1-8.3,18.1l-16.6,14.3
			C197.8,388.7,196.3,389.4,195.6,389.4z"/>
		<g>
			<path fill="#FFFFFF" d="M412.8,390.9c-1.5,0-2.3-0.8-3-1.5l-17.4-15.1c-8.3-5.3-9.1-12.8-8.3-18.1c0.8-5.3,4.5-11.3,7.5-13.6
				c14.3-18.9,21.9-41.5,21.9-65.7c0-60.4-49.1-110.2-110.2-110.2c-3,0-5.3-2.3-5.3-5.3s2.3-5.3,5.3-5.3c66.4,0,120,53.6,120,120
				c0,26.4-8.3,50.6-23.4,71.7l-0.8,0.8c-1.5,1.5-4.5,5.3-4.5,9.8c0,2.3,1.5,4.5,4.5,6.8l17.4,15.1c2.3,1.5,2.3,5.3,0.8,7.5
				C415.8,390.2,414.3,390.9,412.8,390.9z"/>
		</g>
	</g>
	<path fill="#FFFFFF" d="M305.7,306.4L305.7,306.4c-10.6,0-18.1-3.8-18.1-3.8c-0.8,0-41.5-24.9-10.6-78.5l24.2-37.7
		c0.8-1.5,2.3-2.3,3.8-2.3c1.5,0,3,0.8,3.8,2.3l24.2,37.7c16.6,27.9,12.8,47.5,6.8,59.6c-6,12.8-16.6,18.9-17.4,18.9
		C317.1,305.7,311.8,306.4,305.7,306.4z M291.4,295.1c0,0,6,3,14.3,3l0,0c4.5,0,9.1-0.8,12.8-3c1.5-0.8,33.2-20.4,6.8-66.4L305,197
		l-20.4,31.7C258.2,274.7,289.9,294.3,291.4,295.1L291.4,295.1z"/>
	<path fill="#FFFFFF" d="M298.2,299.6c0,0-16.6-9.1-3.8-30.9l10.6-16.6l10.6,16.6c12.8,21.9-3.8,30.9-3.8,30.9"/>
</g>
<g>
	<path fill="#FFFFFF" d="M582.7,315.5c-2.3,0-4.5-1.5-5.3-3.8c-0.8-3,0.8-6,3-7.5l24.9-9.1c3-0.8,6,0.8,7.5,3c0.8,3-0.8,6-3,7.5
		l-24.9,9.1C583.5,315.5,582.7,315.5,582.7,315.5z"/>
	<path fill="#FFFFFF" d="M578.2,333.6c-2.3,0-4.5-1.5-5.3-3.8c-0.8-3,0.8-6,3-7.5l49.1-17.4c3-0.8,6,0.8,7.5,3c0.8,3-0.8,6-3,7.5
		l-49.1,17.4C578.9,333.6,578.2,333.6,578.2,333.6z"/>
	<path fill="#FFFFFF" d="M592.5,357.7c-2.3,0-4.5-1.5-5.3-4.5c0-0.8-4.5-3-9.8-3c-3,0-4.5-2.3-5.3-4.5c0-3,0.8-5.3,3.8-6l49.1-17.4
		c3-0.8,6,0.8,7.5,3c0.8,3-0.8,6-3,7.5L594,344.9c2.3,1.5,3,3.8,3.8,6c0.8,3-0.8,6-3.8,6.8C594,357.7,593.3,357.7,592.5,357.7z"/>
	<path fill="#FFFFFF" d="M612.9,357.7c-0.8,0-0.8,0-1.5,0c-3-0.8-4.5-3.8-3.8-6.8c2.3-9.8,16.6-11.3,19.6-12.1c3,0,6,2.3,6,5.3
		s-2.3,6-5.3,6c-5.3,0-9.8,2.3-9.8,3.8C617.4,356.2,615.2,357.7,612.9,357.7z"/>
	<path fill="#FFFFFF" d="M614.4,407.5h-21.1c-1.5,0-5.3-0.8-5.3-5.3V394l-9.8-9.1c-0.8-0.8-2.3-2.3-2.3-4.5v-12.8c0-3,2.3-6,6-6h43
		c3,0,6,2.3,6,6v12.1c0,2.3-1.5,3.8-2.3,4.5l-9.1,9.1v8.3C619.7,406.8,616.7,407.5,614.4,407.5z M582,366.8c-0.8,0-1.5,0-1.5,0.8
		v12.1c0,0,0,0.8,0.8,0.8l10.6,9.8c0.8,0.8,0.8,0.8,0.8,1.5v9.8c0,0.8,0,0.8,0,0.8h21.1l0,0c0,0,0,0,0-0.8v-9.8c0-0.8,0-1.5,0.8-1.5
		l10.6-9.8l0.8-0.8v-12.1c0-0.8-0.8-0.8-1.5-0.8H582z"/>
</g>
<g>
	<path fill="#FFFFFF" d="M630.3,249.1c-0.8,0-1.5,0-1.5-0.8c-0.8-0.8-0.8-2.3,0.8-3c15.8-12.1,17.4-28.7,6-50.6
		c-0.8,2.3-2.3,5.3-4.5,9.1c-0.8,0.8-1.5,0.8-2.3,0.8s-1.5-1.5-1.5-2.3c0-1.5-0.8-27.2-34-44.5c1.5,8.3,3,23.4-9.1,37
		c-0.8,0.8-1.5,0.8-2.3,0.8s-1.5-0.8-1.5-1.5l-0.8-3.8c-5.3,8.3-15.8,25.7-13.6,40c0.8,6,3.8,11.3,9.1,15.8c0.8,0.8,1.5,2.3,0.8,3
		c-0.8,0.8-2.3,1.5-3,0.8c-6-4.5-9.8-11.3-10.6-18.9c-2.3-21.9,17.4-46.8,18.1-47.5c0.8-0.8,1.5-0.8,2.3-0.8s1.5,0.8,1.5,1.5
		l0.8,4.5c10.6-15.1,3.8-32.5,3.8-33.2c0-0.8,0-1.5,0.8-2.3c0.8-0.8,1.5-0.8,2.3-0.8c29.4,13.6,38.5,34,40.8,43.8
		c1.5-3.8,1.5-6.8,1.5-7.5c0-0.8,0.8-2.3,1.5-2.3c0.8,0,2.3,0,2.3,0.8c20.4,33.2,9.1,52.1-4.5,61.9
		C631.8,249.1,631,249.1,630.3,249.1z"/>
	<path fill="#FFFFFF" d="M612.9,250.6c24.2-19.6-6-59.6-6-59.6s-3,31.7-11.3,13.6c-25.7,34-2.3,46-2.3,46S603.1,258.9,612.9,250.6z"
		/>
</g>
</svg>
