<?xml version="1.0" encoding="utf-8"?>
<!-- Generator: Adobe Illustrator 17.1.0, SVG Export Plug-In . SVG Version: 6.00 Build 0)  -->
<!DOCTYPE svg PUBLIC "-//W3C//DTD SVG 1.1//EN" "http://www.w3.org/Graphics/SVG/1.1/DTD/svg11.dtd">
<svg version="1.1" id="Fix__x26__Fall" xmlns="http://www.w3.org/2000/svg" xmlns:xlink="http://www.w3.org/1999/xlink" x="0px"
	 y="0px" viewBox="0 0 841.9 595.3" enable-background="new 0 0 841.9 595.3" xml:space="preserve">
<g>
	<path fill="#0B2F6B" d="M752,583.3H81.4c-32.1,0-58.2-26.1-58.2-58.2V70.2C23.2,38.1,49.3,12,81.4,12h670.8
		c32.1,0,58.2,26.1,58.2,58.2l0,455.2C810.1,557.3,783.9,583.3,752,583.3z M81.4,45.6c-13.5,0-24.6,11-24.6,24.6v454.9
		c0,13.5,11,24.6,24.6,24.6H752c13.5,0,24.6-11,24.8-24.5v-455c0-13.5-11-24.6-24.6-24.6H81.4z"/>
</g>
<path fill="#0B2F6B" d="M746.4,510.7c0,7.2-5.9,13.1-13.1,13.1H100.1c-7.2,0-13.1-5.9-13.1-13.1v-426c0-7.2,5.9-13.1,13.1-13.1
	h633.2c7.2,0,13.1,5.9,13.1,13.1L746.4,510.7L746.4,510.7z"/>
<g>
	<g>
		<rect x="185" y="57.3" fill="#FFFFFF" width="8.1" height="480.7"/>
	</g>
	<g>
		<rect x="298.8" y="57.3" fill="#FFFFFF" width="8.1" height="480.7"/>
	</g>
	<g>
		<rect x="412.7" y="57.3" fill="#FFFFFF" width="8.1" height="480.7"/>
	</g>
	<g>
		<rect x="526.5" y="57.3" fill="#FFFFFF" width="8.1" height="480.7"/>
	</g>
	<g>
		<rect x="640.3" y="57.3" fill="#FFFFFF" width="8.1" height="480.7"/>
	</g>
</g>
<g>
	<g>
		<rect x="75.8" y="174.6" fill="#FFFFFF" width="681.9" height="8.1"/>
	</g>
	<g>
		<rect x="75.8" y="293.5" fill="#FFFFFF" width="681.9" height="8.1"/>
	</g>
	<g>
		<rect x="75.8" y="412.5" fill="#FFFFFF" width="681.9" height="8.1"/>
	</g>
</g>
<g>
	
		<rect x="168.9" y="158.6" transform="matrix(-0.7071 -0.7071 0.7071 -0.7071 195.9538 437.9604)" fill="#FFFFFF" width="39.6" height="39.6"/>
	
		<rect x="282.7" y="158.6" transform="matrix(-0.7071 -0.7071 0.7071 -0.7071 390.2483 518.3917)" fill="#FFFFFF" width="39.6" height="39.6"/>
	
		<rect x="396.5" y="158.5" transform="matrix(-0.7071 -0.7071 0.7071 -0.7071 584.5427 598.8229)" fill="#FFFFFF" width="39.6" height="39.6"/>
	
		<rect x="510.4" y="158.6" transform="matrix(-0.7071 -0.7071 0.7071 -0.7071 778.9078 679.4249)" fill="#FFFFFF" width="39.6" height="39.6"/>
	
		<rect x="624.2" y="158.6" transform="matrix(-0.7071 -0.7071 0.7071 -0.7071 973.2023 759.8561)" fill="#FFFFFF" width="39.6" height="39.6"/>
</g>
<g>
	
		<rect x="168.9" y="277.5" transform="matrix(-0.7071 -0.7071 0.7071 -0.7071 111.8983 640.9424)" fill="#FFFFFF" width="39.6" height="39.6"/>
	
		<rect x="282.7" y="277.5" transform="matrix(-0.7071 -0.7071 0.7071 -0.7071 306.1928 721.3738)" fill="#FFFFFF" width="39.6" height="39.6"/>
	
		<rect x="396.5" y="277.4" transform="matrix(-0.7071 -0.7071 0.7071 -0.7071 500.4872 801.8052)" fill="#FFFFFF" width="39.6" height="39.6"/>
	
		<rect x="510.4" y="277.5" transform="matrix(-0.7071 -0.7071 0.7071 -0.7071 694.8522 882.4069)" fill="#FFFFFF" width="39.6" height="39.6"/>
	
		<rect x="624.2" y="277.5" transform="matrix(-0.7071 -0.7071 0.7071 -0.7071 889.1467 962.8383)" fill="#FFFFFF" width="39.6" height="39.6"/>
</g>
<g>
	
		<rect x="168.9" y="396.4" transform="matrix(-0.7071 -0.7071 0.7071 -0.7071 27.843 843.9246)" fill="#FFFFFF" width="39.6" height="39.6"/>
	
		<rect x="282.7" y="396.4" transform="matrix(-0.7071 -0.7071 0.7071 -0.7071 222.1373 924.3559)" fill="#FFFFFF" width="39.6" height="39.6"/>
	
		<rect x="396.5" y="396.3" transform="matrix(-0.7071 -0.7071 0.7071 -0.7071 416.4318 1004.7873)" fill="#FFFFFF" width="39.6" height="39.6"/>
	
		<rect x="510.4" y="396.4" transform="matrix(-0.7071 -0.7071 0.7071 -0.7071 610.7967 1085.3893)" fill="#FFFFFF" width="39.6" height="39.6"/>
	
		<rect x="624.2" y="396.4" transform="matrix(-0.7071 -0.7071 0.7071 -0.7071 805.0911 1165.8203)" fill="#FFFFFF" width="39.6" height="39.6"/>
</g>
</svg>
