<?xml version="1.0" encoding="utf-8"?>
<!-- Generator: Adobe Illustrator 17.1.0, SVG Export Plug-In . SVG Version: 6.00 Build 0)  -->
<!DOCTYPE svg PUBLIC "-//W3C//DTD SVG 1.1//EN" "http://www.w3.org/Graphics/SVG/1.1/DTD/svg11.dtd">
<svg version="1.1" id="Layer_2" xmlns="http://www.w3.org/2000/svg" xmlns:xlink="http://www.w3.org/1999/xlink" x="0px" y="0px"
	 viewBox="0 0 841.9 595.3" enable-background="new 0 0 841.9 595.3" xml:space="preserve">
<g>
	<g>
		<path fill="#0B2F6B" d="M327.8,287.4H124.7c-12.1,0-21.9-9.8-21.9-21.9V62.4c0-12.1,9.8-21.9,21.9-21.9s21.9,9.8,21.9,21.9v181.2
			h181.2c12.1,0,21.9,9.8,21.9,21.9S339.9,287.4,327.8,287.4z"/>
	</g>
	<g>
		<path fill="#0B2F6B" d="M124.7,287.4c-5.6,0-11.2-2.1-15.5-6.4c-8.6-8.6-8.6-22.4,0-31L280.5,78.7c46-46,107.1-71.3,172.1-71.3
			c65,0,126.1,25.3,172.1,71.3c8.6,8.6,8.6,22.4,0,31c-8.6,8.6-22.4,8.6-31,0C556,72,505.9,51.2,452.6,51.2S349.2,72,311.5,109.7
			L140.2,281C135.9,285.3,130.3,287.4,124.7,287.4z"/>
	</g>
	<g>
		<path fill="#0B2F6B" d="M716.1,557.4c-12.1,0-21.9-9.8-21.9-21.9V354.3H513c-12.1,0-21.9-9.8-21.9-21.9s9.8-21.9,21.9-21.9h203.1
			c12.1,0,21.9,9.8,21.9,21.9v203.1C738,547.6,728.2,557.4,716.1,557.4z"/>
	</g>
	<g>
		<path fill="#0B2F6B" d="M388.1,590.6c-65,0-126.1-25.3-172.1-71.3c-8.6-8.6-8.6-22.4,0-31c8.6-8.6,22.4-8.6,31,0
			c37.7,37.7,87.8,58.5,141.1,58.5c53.3,0,103.4-20.8,141.1-58.5L700.5,317c8.6-8.6,22.4-8.6,31,0c8.6,8.6,8.6,22.4,0,31
			L560.2,519.3C514.2,565.2,453.1,590.6,388.1,590.6z"/>
	</g>
</g>
</svg>
