<?xml version="1.0" encoding="utf-8"?>
<!-- Generator: Adobe Illustrator 17.1.0, SVG Export Plug-In . SVG Version: 6.00 Build 0)  -->
<!DOCTYPE svg PUBLIC "-//W3C//DTD SVG 1.1//EN" "http://www.w3.org/Graphics/SVG/1.1/DTD/svg11.dtd">
<svg version="1.1" id="Layer_2" xmlns="http://www.w3.org/2000/svg" xmlns:xlink="http://www.w3.org/1999/xlink" x="0px" y="0px"
	 viewBox="0 0 841.9 595.3" enable-background="new 0 0 841.9 595.3" xml:space="preserve">
<g>
	<g>
		<g>
			<g>
				<path fill="#0B2F6B" d="M504,447.6H144.5c-25.5,0-48.8-24-48.8-50.4v-334c0-25.2,22.3-46.5,48.8-46.5H504
					c11.2,0,22,4.1,30.6,11.5l193.1,167C738,204,743.9,217,744,230.7c0,13.8-5.9,26.8-16.2,35.8L534.6,434.4c0,0-0.1,0-0.1,0.1
					c-10.1,8.6-20.4,13-30.5,13.2C504.1,447.6,504,447.6,504,447.6z M144.5,37.3c-15,0-28.2,12.1-28.2,25.9v334
					c0,15,14,29.8,28.2,29.8h359.4c6.4-0.1,12.9-4.5,17.3-8.2l193-167.9c5.8-5,9.1-12.4,9.1-20.2c0-7.7-3.3-15-9.1-20l-193.1-167
					c-4.8-4.2-10.9-6.5-17.2-6.5H144.5z"/>
			</g>
		</g>
	</g>
	<g>
		<path fill="#0B2F6B" d="M253.1,324.6h111.3c3.5,0,6.5,1.1,8.7,3.2c2.3,2.1,3.4,4.7,3.4,7.6c0,2.8-1.1,5.3-3.4,7.4
			c-2.3,2.1-5.2,3.2-8.7,3.2H234.2c-4,0-6.9-1-9-3c-2-2-3-4.4-3-7.3c0-3.7,2.2-7.8,6.7-12c6.4-6.3,11.8-12.3,16.1-17.7
			c4.3-5.4,8.1-11.8,11.1-19s4.5-14.9,4.5-23c0-7.6-1.2-15.6-3.6-24h-34.8c-3.5,0-6.5-1.1-8.7-3.2c-2.3-2.1-3.4-4.7-3.4-7.7
			c0-2.9,1.1-5.4,3.4-7.4c2.3-2,5.2-3,8.7-3h28.1c-6.9-12.4-11.5-21.6-14-27.6c-2.4-6-3.7-12.5-3.7-19.4c0-11.2,2.8-21.2,8.4-29.8
			c5.6-8.6,13.5-15.4,23.7-20.2c10.2-4.8,21.7-7.3,34.4-7.3c10.8,0,20.8,1.9,30,5.8s16.9,8.8,23.1,14.9c6.2,6.1,11,12.5,14.3,19.2
			c3.3,6.7,4.9,13,4.9,19c0,3.3-0.9,6-2.7,8.1c-1.8,2.1-4.3,3.1-7.7,3.1c-5,0-8.4-2.7-10.1-8c-4.5-13.4-10.9-23.6-19.1-30.6
			c-8.3-7-19.3-10.5-33-10.5c-11.9,0-21.7,3.3-29.5,9.8c-7.8,6.5-11.7,16.3-11.7,29.3c0,5.3,1.1,10.9,3.2,16.7
			c2.1,5.8,6.4,15,12.8,27.5h39c3.5,0,6.4,1,8.7,3c2.3,2,3.4,4.5,3.4,7.4c0,3-1.1,5.6-3.4,7.7c-2.3,2.1-5.2,3.2-8.7,3.2H280
			c2.4,7.5,3.6,15.9,3.6,25.3c0,9.9-2.4,19.6-7.3,29.2C271.3,303.9,263.6,314,253.1,324.6z"/>
	</g>
	<g>
		<path fill="#0B2F6B" d="M599.4,275.3c-24.9,0-45.2-20.3-45.2-45.2c0-24.9,20.3-45.2,45.2-45.2c24.9,0,45.2,20.3,45.2,45.2
			C644.6,255,624.3,275.3,599.4,275.3z M599.4,196.9c-18.3,0-33.2,14.9-33.2,33.2s14.9,33.2,33.2,33.2c18.3,0,33.2-14.9,33.2-33.2
			S617.7,196.9,599.4,196.9z"/>
	</g>
</g>
<circle fill="#0B2F6B" cx="519.7" cy="436.9" r="141.6"/>
<g>
	<g>
		<path fill="#FFFFFF" d="M496.4,438h-48.8c-3.4,0-6.2-2.8-6.2-6.2V383c0-3.4,2.8-6.2,6.2-6.2s6.2,2.8,6.2,6.2v42.6h42.6
			c3.4,0,6.2,2.8,6.2,6.2S499.8,438,496.4,438z"/>
	</g>
	<g>
		<path fill="#FFFFFF" d="M447.6,438c-1.6,0-3.2-0.6-4.4-1.8c-2.4-2.4-2.4-6.3,0-8.7l41-41c9.2-10.6,22-17,36.1-18
			c16.7-1.2,33.7,5.1,47.8,17.5c2.6,2.3,2.8,6.2,0.5,8.7c-2.3,2.6-6.2,2.8-8.7,0.5c-11.6-10.3-25.4-15.4-38.8-14.5
			c-11,0.8-20.6,5.6-27.7,13.8c-0.1,0.1-0.2,0.2-0.3,0.4L452,436.2C450.8,437.4,449.2,438,447.6,438z"/>
	</g>
	<g>
		<path fill="#FFFFFF" d="M589.8,502.9c-3.4,0-6.2-2.8-6.2-6.2v-42.6H541c-3.4,0-6.2-2.8-6.2-6.2s2.8-6.2,6.2-6.2h48.8
			c3.4,0,6.2,2.8,6.2,6.2v48.8C596,500.1,593.2,502.9,589.8,502.9z"/>
	</g>
	<g>
		<path fill="#FFFFFF" d="M510.9,510.8c-15.2,0-30.4-5.8-42-17.4c-2.4-2.4-2.4-6.3,0-8.7c2.4-2.4,6.3-2.4,8.7,0
			c18.4,18.3,48.2,18.4,66.6,0l41.2-41.2c2.4-2.4,6.3-2.4,8.7,0s2.4,6.3,0,8.7L553,493.5C541.4,505,526.2,510.8,510.9,510.8z"/>
	</g>
</g>
</svg>
