<?xml version="1.0" encoding="utf-8"?>
<!-- Generator: Adobe Illustrator 18.0.0, SVG Export Plug-In . SVG Version: 6.00 Build 0)  -->
<!DOCTYPE svg PUBLIC "-//W3C//DTD SVG 1.1//EN" "http://www.w3.org/Graphics/SVG/1.1/DTD/svg11.dtd">
<svg version="1.1" id="_x33_" xmlns="http://www.w3.org/2000/svg" xmlns:xlink="http://www.w3.org/1999/xlink" x="0px" y="0px"
	 viewBox="0 0 190 190" enable-background="new 0 0 190 190" xml:space="preserve">
<circle fill="none" stroke="#00AAED" stroke-width="8.5522" stroke-miterlimit="10" cx="94.8" cy="95.9" r="74.8"/>
<g>
	<path fill="#00AAED" d="M85.8,90h2.9c6.5,0,13-0.9,13-9c0-5.1-4-8.7-9.5-8.7c-4.5,0-8.4,2.7-10,7.3l-11.9-3.2
		C73.2,66.4,81.9,62,91.6,62c11.5,0,21.4,6,21.4,17.8c0,7.2-4.3,13.3-11.4,15.1v0.2c8.5,1.2,13,8,13,16.2
		c0,12.7-10.6,19.7-22.5,19.7c-10.9,0-19.9-4.5-22.9-15.6l12-3.2c1.4,5.5,4.8,8.7,10.8,8.7s11.2-4.2,11.2-10.4
		c0-8.7-7.9-10.2-14.8-10.2h-2.7V90z"/>
</g>
</svg>
