<?xml version="1.0" encoding="utf-8"?>
<!-- Generator: Adobe Illustrator 17.1.0, SVG Export Plug-In . SVG Version: 6.00 Build 0)  -->
<!DOCTYPE svg PUBLIC "-//W3C//DTD SVG 1.1//EN" "http://www.w3.org/Graphics/SVG/1.1/DTD/svg11.dtd">
<svg version="1.1" id="_x31_" xmlns="http://www.w3.org/2000/svg" xmlns:xlink="http://www.w3.org/1999/xlink" x="0px" y="0px"
	 viewBox="0 0 841.9 595.3" enable-background="new 0 0 841.9 595.3" xml:space="preserve">
<circle fill="none" stroke="#002D6D" stroke-width="8.5522" stroke-miterlimit="10" cx="420.9" cy="299.6" r="246.7"/>
<g>
	<path fill="#002D6D" d="M400.8,278.3h9.6c21.3,0,42.9-2.9,42.9-29.8c0-16.8-13.1-28.8-31.3-28.8c-14.9,0-27.6,8.8-32.9,24.1
		l-39.2-10.6c9.6-32.9,38.2-47.6,70.3-47.6c38,0,70.5,19.8,70.5,58.7c0,23.7-14.1,43.9-37.6,49.7v0.6c28,3.9,42.9,26.4,42.9,53.5
		c0,41.9-35.1,65-74.2,65c-36,0-65.6-14.9-75.6-51.5l39.6-10.6c4.7,18.2,15.9,28.8,35.6,28.8c19.8,0,37-13.9,37-34.3
		c0-28.8-26-33.7-48.8-33.7h-8.8v-33.9h0V278.3z"/>
</g>
</svg>
