<?xml version="1.0" encoding="utf-8"?>
<!-- Generator: Adobe Illustrator 17.1.0, SVG Export Plug-In . SVG Version: 6.00 Build 0)  -->
<!DOCTYPE svg PUBLIC "-//W3C//DTD SVG 1.1//EN" "http://www.w3.org/Graphics/SVG/1.1/DTD/svg11.dtd">
<svg version="1.1" id="Fix__x26__Fall" xmlns="http://www.w3.org/2000/svg" xmlns:xlink="http://www.w3.org/1999/xlink" x="0px"
	 y="0px" viewBox="0 0 841.9 595.3" enable-background="new 0 0 841.9 595.3" xml:space="preserve">
<g>
	<polygon fill="#0B2F6B" points="577.7,523 565.9,523 565.9,280.5 418.7,133.2 271.2,280.5 271.2,523 259.4,523 259.4,275.6 
		418.7,116.4 577.7,275.6 	"/>
</g>
<g>
	<path fill="#0B2F6B" d="M151.8,317.9c-5.5,0-10.9-2.1-15.1-6.2c-8.3-8.3-8.3-21.8,0-30.1L405.8,12.3c4-4,9.4-6.2,15.1-6.2
		c5.7,0,11.1,2.2,15.1,6.2l269.2,269.2c8.3,8.3,8.3,21.8,0,30.1c-8.3,8.3-21.8,8.3-30.1,0L420.9,57.5l-254,254.1
		C162.7,315.8,157.3,317.9,151.8,317.9z"/>
</g>
<path fill="none" stroke="#0B2F6B" stroke-width="21.3872" stroke-linecap="round" stroke-linejoin="round" stroke-miterlimit="10" d="
	M463.2,378.9"/>
<g>
	<path fill="#0B2F6B" d="M610.2,588.3H499.1c-17.3,0-31.3-14-31.3-31.3V396c-0.1-0.8-2.3-2.9-4.7-2.9h-84.5c-2.5,0-4.7,2.2-4.7,2.9
		v161c0,17.3-14,31.3-31.3,31.3H231.5c-18.5,0-38.3-14.1-38.3-45.1V246.3c0-7.8,6.4-14.2,14.2-14.2c7.8,0,14.2,6.4,14.2,14.2v296.9
		c0,3.9,0.7,16.7,9.9,16.7h111.1c1.6,0,2.9-1.3,2.9-2.9V396c0-17,15.2-31.3,33.1-31.3h84.5c17.9,0,33.1,14.3,33.1,31.3v161
		c0,1.6,1.3,2.9,2.9,2.9h111.1c9.9,0,9.9-12.6,9.9-16.7V246.3c0-7.8,6.4-14.2,14.2-14.2s14.2,6.4,14.2,14.2v296.9
		c0,14-3.7,25.2-11,33.3C630.7,584.1,621,588.3,610.2,588.3z"/>
</g>
</svg>
