<?xml version="1.0" encoding="utf-8"?>
<!-- Generator: Adobe Illustrator 17.1.0, SVG Export Plug-In . SVG Version: 6.00 Build 0)  -->
<!DOCTYPE svg PUBLIC "-//W3C//DTD SVG 1.1//EN" "http://www.w3.org/Graphics/SVG/1.1/DTD/svg11.dtd">
<svg version="1.1" id="Fix__x26__Fall" xmlns="http://www.w3.org/2000/svg" xmlns:xlink="http://www.w3.org/1999/xlink" x="0px"
	 y="0px" viewBox="0 0 841.9 595.3" enable-background="new 0 0 841.9 595.3" xml:space="preserve">
<g>
	<g>
		<path fill="#0B2F6B" d="M479.5,583.5H247.7c-16.1,0-26.6-12.5-26.6-31.9v-396c0-18.5,10.2-30.1,26.6-30.1h231.8
			c16.6,0,27.8,12.1,27.8,30.1v396C507.3,570.4,495.8,583.5,479.5,583.5z M247.7,145.4c-2.7,0-6.8,0-6.8,10.3v396
			c0,4.2,0.8,7.8,2.3,9.9c0.9,1.3,2,2.2,4.6,2.2h231.8c7.7,0,8-10.1,8-12.1v-396c0-10.3-5.8-10.3-8-10.3H247.7z"/>
	</g>
	<circle fill="#0B2F6B" cx="364.2" cy="516.3" r="24.9"/>
</g>
<g>
	<path fill="#0B2F6B" d="M430.9,294.8c-1.6-1-3.4-1.5-5.3-1.5c-2.9,0-5.4,1.1-7.4,3.2c-2,2.1-3.1,4.6-3.1,7.5s1,5.4,3.1,7.5
		s4.5,3.1,7.5,3.1c1.9,0,3.6-0.5,5.3-1.4c1.6-0.9,2.9-2.2,3.8-3.8s1.4-3.4,1.4-5.4c0-1.9-0.5-3.7-1.4-5.3
		C433.9,297,432.6,295.7,430.9,294.8z"/>
	<path fill="#0B2F6B" d="M454.5,169.7H273.9c-5,0-9,4-9,9v282c0,5,4,9,9,9h180.6c5,0,9-4,9-9v-282
		C463.5,173.7,459.5,169.7,454.5,169.7z M336.5,371.3c-0.9,0.9-1.9,1.3-3.2,1.3h-40.9c-1.9,0-3.4-0.4-4.3-1.3s-1.4-1.9-1.4-2.9
		c0-1.2,0.8-2.8,2.3-4.9l29.1-39.3c4.1-5.4,6.1-10.4,6.1-15c0-2.5-0.6-4.8-1.8-6.8c-1.2-2-2.8-3.6-4.8-4.7c-2-1.1-4.3-1.7-6.8-1.7
		c-3.3,0-6.1,0.8-8.4,2.5c-2.3,1.7-4.1,4-5.3,6.8s-1.8,6.2-1.8,9.8c0,1.7-0.4,2.9-1.3,3.7c-0.9,0.8-2,1.2-3.2,1.2
		c-3.4,0-5.1-2.2-5.1-6.5c0-3.5,0.6-6.9,1.8-10.2c1.2-3.2,2.9-6.1,5.2-8.5c2.3-2.4,5.1-4.4,8.4-5.8c3.3-1.4,7.2-2.1,11.5-2.1
		c4.5,0,8.5,1,12,2.9c3.4,2,6.1,4.6,8,7.9c1.9,3.3,2.8,6.7,2.8,10.4c0,3-0.4,5.9-1.1,8.6s-2.3,5.7-4.7,8.9l-28.3,38h32
		c1.2,0,2.3,0.4,3.2,1.3s1.3,2,1.3,3.3C337.9,369.4,337.4,370.5,336.5,371.3z M400.7,348.3c-1.4,5.4-3.4,9.9-5.9,13.6
		c-2.5,3.7-5.5,6.5-8.8,8.5c-3.3,2-7,2.9-10.9,2.9c-3.9,0-7.5-1-10.8-2.9c-3.3-1.9-6.3-4.8-8.9-8.6c-2.6-3.8-4.6-8.4-6-13.8
		c-1.4-5.4-2.1-11.4-2.1-18s0.7-12.6,2.1-18c1.4-5.4,3.4-10,6-13.8s5.5-6.7,8.8-8.6c3.3-1.9,6.9-2.9,10.8-2.9c3.9,0,7.5,1,10.9,2.9
		c3.4,1.9,6.3,4.8,8.8,8.5c2.5,3.7,4.5,8.2,5.9,13.5c1.4,5.4,2.1,11.4,2.1,18.3C402.8,336.9,402.1,343,400.7,348.3z M440.3,312.5
		c-1.5,2.6-3.6,4.7-6.2,6.2c-2.6,1.5-5.4,2.3-8.4,2.3c-3,0-5.8-0.8-8.5-2.3c-2.6-1.5-4.7-3.6-6.2-6.2s-2.3-5.5-2.3-8.6
		c0-4.7,1.7-8.8,5-12.1s7.3-5,12-5c3.1,0,6,0.8,8.5,2.3c2.6,1.5,4.6,3.6,6.1,6.2c1.5,2.6,2.3,5.5,2.3,8.6
		C442.6,307,441.8,309.9,440.3,312.5z"/>
	<path fill="#0B2F6B" d="M386.9,304.2c-1.5-2.8-3.3-4.8-5.3-6.2c-2-1.3-4.2-2-6.5-2c-3.1,0-6,1.2-8.5,3.7c-2.5,2.4-4.5,6.2-6,11.3
		c-1.4,5.1-2.2,11.5-2.2,19.1c0,7.7,0.7,14,2.2,19.1c1.4,5.1,3.4,8.9,5.9,11.3c2.5,2.5,5.4,3.7,8.6,3.7c3.2,0,6-1.2,8.6-3.7
		c2.5-2.5,4.5-6.3,5.9-11.3c1.4-5.1,2.2-11.5,2.2-19.1c0-5.9-0.4-11-1.3-15.3C389.6,310.5,388.4,307,386.9,304.2z"/>
</g>
<g>
	<g>
		<defs>
			<polygon id="SVGID_1_" points="294.5,-73.6 294.5,135.3 498.9,135.3 498.9,344.2 650.7,344.2 650.7,135.3 650.7,-73.6 			"/>
		</defs>
		<clipPath id="SVGID_2_">
			<use xlink:href="#SVGID_1_"  overflow="visible"/>
		</clipPath>
		<g clip-path="url(#SVGID_2_)">
			<g>
				<g>
					<g>
						<path fill="#0B2F6B" d="M473.5,311.4C473.5,311.4,473.5,311.4,473.5,311.4h-0.2c-83.5,0-151.5-68-151.5-151.5
							c0-83.5,68-151.5,151.5-151.5s151.5,68,151.5,151.5c0,40.5-15.7,78.6-44.3,107.2C552,295.7,514,311.4,473.5,311.4z
							 M473.3,17.4c-78.6,0-142.5,63.9-142.5,142.5c0,78.6,63.9,142.5,142.5,142.5h0.2c0,0,0,0,0,0c38.1,0,73.8-14.8,100.7-41.7
							c26.8-26.9,41.6-62.7,41.6-100.8C615.8,81.3,551.9,17.4,473.3,17.4z"/>
					</g>
					<g>
						<path fill="#0B2F6B" d="M473.2,269.1c-60.2,0-109.2-49-109.2-109.2S413,50.7,473.2,50.7c60.2,0,109.2,49,109.2,109.2
							S533.4,269.1,473.2,269.1z M473.2,64.7c-52.5,0-95.2,42.7-95.2,95.2c0,52.5,42.7,95.2,95.2,95.2c52.5,0,95.2-42.7,95.2-95.2
							C568.4,107.4,525.7,64.7,473.2,64.7z"/>
					</g>
					<g>
						<path fill="#0B2F6B" d="M473.5,225.1C473.5,225.1,473.5,225.1,473.5,225.1l-0.2,0c-35.9,0-65.2-29.2-65.2-65.2
							c0-35.9,29.2-65.2,65.2-65.2s65.2,29.2,65.2,65.2c0,17.4-6.8,33.8-19,46.1C507.2,218.3,490.9,225.1,473.5,225.1z M473.3,110.7
							c-27.1,0-49.2,22.1-49.2,49.2c0,27.1,22.1,49.2,49.2,49.2l0.2,0c0,0,0,0,0,0c13.1,0,25.4-5.1,34.7-14.4
							c9.3-9.3,14.4-21.7,14.4-34.8C522.5,132.8,500.4,110.7,473.3,110.7z"/>
					</g>
				</g>
			</g>
		</g>
	</g>
</g>
</svg>
