<?xml version="1.0" encoding="utf-8"?>
<!-- Generator: Adobe Illustrator 17.1.0, SVG Export Plug-In . SVG Version: 6.00 Build 0)  -->
<!DOCTYPE svg PUBLIC "-//W3C//DTD SVG 1.1//EN" "http://www.w3.org/Graphics/SVG/1.1/DTD/svg11.dtd">
<svg version="1.1" id="Layer_2" xmlns="http://www.w3.org/2000/svg" xmlns:xlink="http://www.w3.org/1999/xlink" x="0px" y="0px"
	 viewBox="0 0 841.9 595.3" enable-background="new 0 0 841.9 595.3" xml:space="preserve">
<g>
	<g>
		<g>
			<g>
				<path fill="#0B2F6B" d="M471.5,477.2L373.7,575c-8.5,8.5-20.5,13.2-33.8,13.2c0,0,0,0,0,0c-13.8,0-26.9-5.2-35.9-14.2
					L87.2,357.4c-8.9-8.9-13.5-21-12.9-34.2c0.5-12.4,5.8-24.4,14.4-33.1L321.9,56.9c7.9-7.9,18.4-12.7,29.7-13.5l233.6-16.9
					c1.1-0.1,2.2-0.1,3.3-0.1c13,0,25.6,5.5,34.6,15.2c8.9,9.6,13.4,22.4,12.5,35.3l-12.2,175.9l-25.6-13.4L609.2,75
					c0.4-5.7-1.5-11.2-5.5-15.4c-4-4.3-9.5-6.7-15.2-6.7c-0.5,0-0.9,0-1.4,0L353.6,69.8c-4.9,0.4-9.5,2.4-12.9,5.9L107.5,308.9
					c-8.3,8.3-9,22.2-1.5,29.8l216.7,216.7c4,4,10.5,6.5,17.2,6.5c6.1,0,11.6-2,15-5.5l99.7-99.7L471.5,477.2z M525,185.5
					c-13.2,0-25.5-5.1-34.8-14.5c-9.3-9.3-14.4-21.7-14.4-34.9c0-13.1,5.2-25.5,14.5-34.7c9.3-9.3,21.7-14.4,34.8-14.4
					c13.2,0,25.5,5.1,34.8,14.5c9.3,9.3,14.4,21.7,14.4,34.9c0,13.1-5.2,25.5-14.5,34.7C550.5,180.4,538.2,185.5,525,185.5z
					 M525.1,113.5c-6.1,0-11.8,2.4-16.1,6.7c-4.3,4.3-6.7,10-6.7,16c0,6.1,2.4,11.8,6.7,16.2c4.3,4.3,10,6.7,16,6.7
					c6.1,0,11.8-2.4,16.1-6.7c4.3-4.3,6.7-10,6.7-16c0-6.1-2.4-11.8-6.7-16.2C536.8,115.8,531.1,113.5,525.1,113.5z"/>
			</g>
		</g>
	</g>
	<g>
		<path fill="#0B2F6B" d="M420.3,391.1l-57.2,57.2c-2.6,2.6-5.1,3.9-7.7,3.9s-4.8-0.9-6.7-2.8c-2.4-2.4-3.6-6.5-3.4-12.2
			c0-8.3-0.3-15.6-1-22s-2.4-12.9-5.2-19.5c-2.8-6.6-6.8-12.6-12-17.8c-4.9-4.9-10.9-9.4-17.9-13.3l-22.6,22.6
			c-2.3,2.3-4.9,3.5-7.7,3.6c-2.9,0.1-5.3-0.8-7.2-2.8c-1.9-1.9-2.8-4.2-2.6-7s1.4-5.4,3.7-7.6l18.2-18.2c-12.5-3.6-21.5-6.5-27-8.9
			c-5.5-2.3-10.5-5.7-14.9-10.2c-7.3-7.3-11.9-15.6-13.9-24.8c-2-9.3-1.2-18.8,2.3-28.5c3.5-9.8,9.3-18.8,17.6-27
			c7-7,14.8-12.3,23.2-15.7c8.4-3.4,16.7-5.2,24.7-5.3c8-0.1,15.2,1,21.7,3.2c6.5,2.2,11.6,5.3,15.5,9.1c2.2,2.2,3.3,4.5,3.5,7
			c0.2,2.5-0.8,4.8-2.9,7c-3.2,3.2-7.2,3.7-11.8,1.4c-11.6-5.8-22.4-8.3-32.3-7.4c-9.9,0.8-19.3,5.7-28.2,14.6
			c-7.7,7.7-12,16.2-12.8,25.5s3,18.2,11.4,26.6c3.4,3.4,7.8,6.4,12.9,8.8c5.2,2.4,13.9,5.6,26.1,9.5l25.3-25.3
			c2.3-2.3,4.8-3.5,7.6-3.7c2.8-0.2,5.2,0.7,7,2.6c2,2,2.9,4.4,2.8,7.2c-0.1,2.9-1.3,5.5-3.6,7.7l-21.2,21.2
			c6.4,3.3,12.6,8,18.7,14.1c6.4,6.4,11.1,14.3,14.2,23.7c3.1,9.4,4.6,20.9,4.7,34.6l53.1-53.1"/>
	</g>
</g>
<g>
	<g>
		<g>
			<g>
				<g>
					<path fill="#0B2F6B" d="M545.5,250.9c29.3,0,56.9,11.4,77.7,32.2c20.7,20.7,32.2,48.3,32.2,77.7c0,29.3-11.4,56.9-32.2,77.7
						c-20.7,20.7-48.3,32.2-77.7,32.2c-29.3,0-56.9-11.4-77.7-32.2c-20.7-20.7-32.2-48.3-32.2-77.7c0-29.3,11.4-56.9,32.2-77.7
						C488.6,262.3,516.2,250.9,545.5,250.9 M545.5,212.6c-37.9,0-75.8,14.5-104.8,43.4c-57.9,57.9-57.9,151.7,0,209.5
						c28.9,28.9,66.8,43.4,104.8,43.4s75.8-14.5,104.8-43.4c57.9-57.9,57.9-151.7,0-209.5C621.3,227,583.4,212.6,545.5,212.6
						L545.5,212.6z"/>
				</g>
			</g>
		</g>
		<g>
			<path fill="#0B2F6B" d="M750.9,598.4c-8.2,0-16.3-3.1-22.6-9.3l-99.5-99.5c-12.5-12.5-12.5-32.7,0-45.1
				c12.5-12.5,32.7-12.5,45.1,0l99.5,99.5c12.5,12.5,12.5,32.7,0,45.1C767.2,595.3,759.1,598.4,750.9,598.4z"/>
		</g>
	</g>
</g>
</svg>
