<?xml version="1.0" encoding="utf-8"?>
<!-- Generator: Adobe Illustrator 18.0.0, SVG Export Plug-In . SVG Version: 6.00 Build 0)  -->
<!DOCTYPE svg PUBLIC "-//W3C//DTD SVG 1.1//EN" "http://www.w3.org/Graphics/SVG/1.1/DTD/svg11.dtd">
<svg version="1.1" xmlns="http://www.w3.org/2000/svg" xmlns:xlink="http://www.w3.org/1999/xlink" x="0px" y="0px"
	 viewBox="0 0 111.3 111.3" enable-background="new 0 0 111.3 111.3" xml:space="preserve">
<g id="Layer_1" display="none">
	<circle display="inline" fill="#F2F2F2" cx="55.6" cy="56.2" r="54.5"/>
</g>
<g id="Layer_30">
	<g>
		<path fill="none" stroke="#0B2F6B" stroke-width="4" stroke-miterlimit="10" d="M97.7,56.7l2.8-40.1c0.3-3.5-2.7-6.4-6.2-6.2
			l-40,2.9c-1.4,0.1-2.7,0.7-3.7,1.7L10.7,54.9c-2.2,2.2-2.5,6.1-0.3,8.3l37.1,37.1c2.2,2.2,6.5,2.4,8.7,0.2l39.9-39.9
			C97.2,59.5,97.6,58,97.7,56.7z M79.5,31.2c-2.4-2.4-2.4-6.3,0-8.7c2.4-2.4,6.3-2.4,8.7,0c2.4,2.4,2.4,6.3,0,8.7
			C85.8,33.7,81.9,33.7,79.5,31.2z"/>
	</g>
	<g>
		<path fill="#0B2F6B" d="M46.3,61.6l4.6-4.6c0.5-0.5,1-0.7,1.5-0.8c0.5,0,1,0.2,1.5,0.7c1,1,1,2,0,3L50,63.8c1.1,0.8,2,1.5,2.6,2.1
			c0.6,0.6,1.1,1.4,1.6,2.3c0.5,1,0.8,2.1,1.1,3.3c0.3,1.2,0.4,2.4,0.3,3.6l12-12c0.5-0.5,1-0.7,1.5-0.7c0.5,0,1,0.2,1.5,0.7
			c0.5,0.5,0.7,1,0.7,1.5c0,0.5-0.3,1-0.7,1.5L56.3,80.3c-0.6,0.6-1.1,0.9-1.7,1.1c-0.6,0.1-1.1-0.1-1.7-0.7c-0.3-0.3-0.5-1-0.6-1.9
			c0-0.9-0.1-2-0.1-3.1c-0.1-1.1-0.3-2.3-0.7-3.4c-0.4-1.1-1.1-2.2-2.1-3.2c-0.9-0.9-1.8-1.6-2.6-2.1l-3.6,3.6
			c-0.5,0.5-1,0.7-1.5,0.8c-0.5,0-1.1-0.2-1.6-0.7c-0.5-0.5-0.7-1-0.7-1.5c0-0.5,0.3-1,0.8-1.5l2.7-2.7c-1.6-0.5-2.9-0.9-4-1.4
			c-1.1-0.5-2.1-1.1-2.9-2c-1.2-1.2-2-2.7-2.2-4.4c-0.3-1.7-0.1-3.4,0.6-5.1c0.7-1.7,1.6-3.3,3-4.6c1-1,2.2-1.8,3.6-2.5
			c1.4-0.6,2.8-1,4.2-1.1c1.4-0.1,2.7,0,3.9,0.3c1.2,0.3,2.2,0.8,2.9,1.5c0.5,0.5,0.7,1,0.7,1.5c0,0.6-0.2,1.1-0.7,1.5
			c-0.5,0.5-1.2,0.6-2.1,0.4c-0.9-0.2-1.8-0.5-2.8-0.8c-1-0.3-2-0.3-3.2-0.1c-1.1,0.2-2.3,1-3.6,2.2c-1.2,1.2-2,2.6-2.3,4.2
			c-0.3,1.6,0.2,2.9,1.3,4c0.6,0.6,1.2,1,1.9,1.4c0.7,0.3,1.5,0.6,2.4,0.9C44.7,61.1,45.5,61.3,46.3,61.6z"/>
	</g>
</g>
</svg>
