<?xml version="1.0" encoding="utf-8"?>
<!-- Generator: Adobe Illustrator 17.1.0, SVG Export Plug-In . SVG Version: 6.00 Build 0)  -->
<!DOCTYPE svg PUBLIC "-//W3C//DTD SVG 1.1//EN" "http://www.w3.org/Graphics/SVG/1.1/DTD/svg11.dtd">
<svg version="1.1" id="Layer_2" xmlns="http://www.w3.org/2000/svg" xmlns:xlink="http://www.w3.org/1999/xlink" x="0px" y="0px"
	 viewBox="0 0 841.9 595.3" enable-background="new 0 0 841.9 595.3" xml:space="preserve">
<path fill="#0B2F6B" d="M274.3,334.2c-42.2-24.6-113.1-24-113.1-24S17.4,308.8,17.4,381v30.5c0,0,28.9,42.9,143.5,42.9
	c3.6,0,6.8-0.2,10.2-0.2c11-0.3,21.2-0.8,30.6-1.8v-4.5c0-50,48.7-75,98.5-87.6C294.9,349.4,285.7,340.9,274.3,334.2z"/>
<path fill="#0B2F6B" d="M565.8,334.2c42.2-24.6,113.1-24,113.1-24s143.7-1.4,143.7,70.8v30.5c0,0-28.9,42.9-143.5,42.9
	c-3.6,0-6.8-0.2-10.2-0.2c-11-0.3-21.2-0.8-30.6-1.8v-4.5c0-50-48.7-75-98.5-87.6C545.2,349.4,554.5,340.9,565.8,334.2z"/>
<path fill="#0B2F6B" d="M531.3,382.2c-35.9-9.4-77.4-13.6-110.3-13.6h-1.9c-5.9,0-59.4,0.4-110.2,13.6c-0.1,0-0.1,0-0.2,0.1
	c-36.8,9.6-80.4,28.1-80.7,61.9c0,0.1,0,0.2,0,0.3V492c16.5,13.6,69,46.5,191.5,46.5c121.8,0,174.9-32.5,192.4-46.9v-47.1
	c0-0.1,0-0.1,0-0.2C611.9,413.8,575.9,393.9,531.3,382.2z"/>
<g>
	<path fill="#0B2F6B" d="M419.1,337.8c-65.8,0-119.3-53.5-119.3-119.3v-54.7c0-65.8,53.5-119.3,119.3-119.3S538.4,98,538.4,163.8
		v54.7C538.4,284.3,484.9,337.8,419.1,337.8z M419.1,72.9c-50.1,0-90.9,40.8-90.9,90.9v54.7c0,50.1,40.8,90.9,90.9,90.9
		c50.1,0,90.9-40.8,90.9-90.9v-54.7C510,113.7,469.2,72.9,419.1,72.9z"/>
</g>
<g>
	<path fill="#0B2F6B" d="M161.2,281.9c-50.8,0-92.2-41.4-92.2-92.2v-40.6c0-50.8,41.4-92.2,92.2-92.2c50.8,0,92.2,41.4,92.2,92.2
		v40.6C253.3,240.5,211.9,281.9,161.2,281.9z M161.2,85.3c-35.2,0-63.8,28.6-63.8,63.8v40.6c0,35.2,28.6,63.8,63.8,63.8
		c35.1,0,63.7-28.6,63.8-63.8v-40.6C225,113.9,196.4,85.3,161.2,85.3z"/>
</g>
<g>
	<path fill="#0B2F6B" d="M679,281.9c-50.8,0-92.2-41.4-92.2-92.2v-40.6c0-50.8,41.4-92.2,92.2-92.2s92.2,41.4,92.2,92.2v40.6
		C771.1,240.5,729.7,281.9,679,281.9z M679,85.3c-35.2,0-63.8,28.6-63.8,63.8v40.6c0,35.2,28.6,63.8,63.8,63.8
		c35.1,0,63.7-28.6,63.8-63.8v-40.6C742.8,113.9,714.2,85.3,679,85.3z"/>
</g>
<g>
	<g>
		<g>
			<path id="SVGID_1_" fill="#FFFFFF" d="M466,433.6c0,0-13,4.4-19.9,10.4c-4.5,3.7-7.5,8.6-8.7,14.2c4.9-2.7,10-4.4,10-4.4
				l46.7-15.3c0,0,1.8,35.5-19.1,51.1c6.1-1.2,13.1-3.8,21.1-8.4c30.9-17.5,28.3-66.9,28.3-66.9L466,433.6z"/>
		</g>
	</g>
	<g>
		<g>
			<path id="SVGID_3_" fill="#FFFFFF" d="M431.5,462.2c-4.7,3.9-7.6,9.6-7.6,15.9c0,11.8,11,21.3,23.3,21.3l0,0
				c6.1,0.2,14.3-1.7,24.2-7.3c1.3-0.7,2.3-1.5,3.4-2.3c-3.3,0.6-5.1,0.9-9.2,0.8l0,0c-16.4,0-29-11.9-29-26.6
				c0-1.9,0.3-3.9,0.7-5.7C435.2,459.4,433.1,460.7,431.5,462.2"/>
		</g>
	</g>
</g>
</svg>
