<?xml version="1.0" encoding="utf-8"?>
<!-- Generator: Adobe Illustrator 17.1.0, SVG Export Plug-In . SVG Version: 6.00 Build 0)  -->
<!DOCTYPE svg PUBLIC "-//W3C//DTD SVG 1.1//EN" "http://www.w3.org/Graphics/SVG/1.1/DTD/svg11.dtd">
<svg version="1.1" id="Layer_2" xmlns="http://www.w3.org/2000/svg" xmlns:xlink="http://www.w3.org/1999/xlink" x="0px" y="0px"
	 viewBox="0 0 841.9 595.3" enable-background="new 0 0 841.9 595.3" xml:space="preserve">
<g>
	<path fill="#0B2F6B" d="M737.2,26.3H104.7c-14.6,0-26.4,11.9-26.4,26.4v175.1c0,7.2,5.8,13,13,13h0.1v305.5
		c0,14.6,11.9,26.4,26.4,26.4h606.5c14.6,0,26.4-11.9,26.4-26.4V240.8c7.2,0,13-5.9,13-13V52.7C763.7,38.1,751.8,26.3,737.2,26.3z
		 M750.6,225h-25.7c-0.2,0.9-0.3,1.8-0.3,2.8v318.6c0,0.2-0.2,0.4-0.4,0.4h-49.7v10.5c0,3-2.4,5.4-5.4,5.4h-86.2
		c-3,0-5.4-2.4-5.4-5.4v-10.5h-46v17.4c0,3-2.4,5.4-5.4,5.4s-5.4-2.4-5.4-5.4v-17.4h-51.9v10.5c0,3-2.4,5.4-5.4,5.4H377
		c-3,0-5.4-2.4-5.4-5.4v-10.5h-51.4v17.4c0,3-2.4,5.4-5.4,5.4s-5.4-2.4-5.4-5.4v-17.4h-46.5v10.5c0,3-2.4,5.4-5.4,5.4h-86.2
		c-3,0-5.4-2.4-5.4-5.4v-10.5h-48c-0.2,0-0.4-0.2-0.4-0.4V227.8c0-0.9-0.1-1.9-0.3-2.8H91.3c-3,0-5.4-2.4-5.4-5.4s2.4-5.4,5.4-5.4
		h13V52.7c0-0.2,0.2-0.4,0.4-0.4h632.6c0.2,0,0.4,0.2,0.4,0.4v161.4h13c3,0,5.4,2.4,5.4,5.4S753.6,225,750.6,225z"/>
	<rect x="176.6" y="546.7" fill="#0B2F6B" width="75.3" height="5.1"/>
	<rect x="382.5" y="546.7" fill="#0B2F6B" width="75.3" height="5.1"/>
	<rect x="588.4" y="546.7" fill="#0B2F6B" width="75.3" height="5.1"/>
	<path fill="#0B2F6B" d="M750.6,214.1h-13H104.3h-13c-3,0-5.4,2.4-5.4,5.4s2.4,5.4,5.4,5.4h25.9h192.8c-0.4,0.8-0.6,1.6-0.6,2.6
		v319.1v17.4c0,3,2.4,5.4,5.4,5.4s5.4-2.4,5.4-5.4v-17.4V227.6c0-0.9-0.2-1.8-0.6-2.6h201.7c-0.4,0.8-0.6,1.6-0.6,2.6v319.1v17.4
		c0,3,2.4,5.4,5.4,5.4s5.4-2.4,5.4-5.4v-17.4V227.6c0-0.9-0.2-1.8-0.6-2.6h194h25.7c3,0,5.4-2.4,5.4-5.4S753.6,214.1,750.6,214.1z"
		/>
	<path fill="#0B2F6B" d="M249.6,401.3H179c-7.3,0-13.2,5.9-13.2,13.2v132.1v10.5c0,3,2.4,5.4,5.4,5.4h86.2c3,0,5.4-2.4,5.4-5.4
		v-10.5V414.6C262.8,407.3,256.9,401.3,249.6,401.3z M176.6,414.6c0-1.3,1.1-2.4,2.4-2.4h70.6c1.3,0,2.4,1.1,2.4,2.4v132.1v5.1
		h-75.3v-5.1V414.6z"/>
	<path fill="#0B2F6B" d="M249.6,257.8H179c-7.3,0-13.2,5.9-13.2,13.2v82.7c0,7.3,5.9,13.2,13.2,13.2h70.6c7.3,0,13.2-5.9,13.2-13.2
		v-82.7C262.8,263.8,256.9,257.8,249.6,257.8z M251.9,353.8c0,1.3-1.1,2.4-2.4,2.4H179c-1.3,0-2.4-1.1-2.4-2.4v-82.7
		c0-1.3,1.1-2.4,2.4-2.4h70.6c1.3,0,2.4,1.1,2.4,2.4V353.8z"/>
	<path fill="#0B2F6B" d="M661.3,401.3h-70.6c-7.3,0-13.2,5.9-13.2,13.2v132.1v10.5c0,3,2.4,5.4,5.4,5.4h86.2c3,0,5.4-2.4,5.4-5.4
		v-10.5V414.6C674.6,407.3,668.6,401.3,661.3,401.3z M588.4,414.6c0-1.3,1.1-2.4,2.4-2.4h70.6c1.3,0,2.4,1.1,2.4,2.4v132.1v5.1
		h-75.3v-5.1V414.6z"/>
	<path fill="#0B2F6B" d="M590.7,367h70.6c7.3,0,13.2-5.9,13.2-13.2v-82.7c0-7.3-5.9-13.2-13.2-13.2h-70.6c-7.3,0-13.2,5.9-13.2,13.2
		v82.7C577.5,361.1,583.4,367,590.7,367z M588.4,271.1c0-1.3,1.1-2.4,2.4-2.4h70.6c1.3,0,2.4,1.1,2.4,2.4v82.7
		c0,1.3-1.1,2.4-2.4,2.4h-70.6c-1.3,0-2.4-1.1-2.4-2.4V271.1z"/>
	<path fill="#0B2F6B" d="M455.4,401.3h-70.6c-7.3,0-13.2,5.9-13.2,13.2v132.1v10.5c0,3,2.4,5.4,5.4,5.4h86.2c3,0,5.4-2.4,5.4-5.4
		v-10.5V414.6C468.7,407.3,462.7,401.3,455.4,401.3z M382.5,414.6c0-1.3,1.1-2.4,2.4-2.4h70.6c1.3,0,2.4,1.1,2.4,2.4v132.1v5.1
		h-75.3v-5.1V414.6z"/>
	<path fill="#0B2F6B" d="M455.4,257.8h-70.6c-7.3,0-13.2,5.9-13.2,13.2v82.7c0,7.3,5.9,13.2,13.2,13.2h70.6
		c7.3,0,13.2-5.9,13.2-13.2v-82.7C468.7,263.8,462.7,257.8,455.4,257.8z M457.8,353.8c0,1.3-1.1,2.4-2.4,2.4h-70.6
		c-1.3,0-2.4-1.1-2.4-2.4v-82.7c0-1.3,1.1-2.4,2.4-2.4h70.6c1.3,0,2.4,1.1,2.4,2.4V353.8z"/>
</g>
</svg>
