<?xml version="1.0" encoding="utf-8"?>
<!-- Generator: Adobe Illustrator 17.1.0, SVG Export Plug-In . SVG Version: 6.00 Build 0)  -->
<!DOCTYPE svg PUBLIC "-//W3C//DTD SVG 1.1//EN" "http://www.w3.org/Graphics/SVG/1.1/DTD/svg11.dtd">
<svg version="1.1" id="Fix__x26__Fall" xmlns="http://www.w3.org/2000/svg" xmlns:xlink="http://www.w3.org/1999/xlink" x="0px"
	 y="0px" viewBox="0 0 841.9 595.3" enable-background="new 0 0 841.9 595.3" xml:space="preserve">
<g>
	<g>
		<path fill="#0B2F6B" d="M388.5,389.8c-17.3,0-32.4-11.7-36.8-28.4l-7.6-29.3c-8.7-0.4-17.6-1.6-26.5-3.8l-15.3,26.1
			c-6.8,11.4-19.5,18.5-33.1,18.5c-6.7,0-13.1-1.7-18.8-5c-8.8-5-15-13.2-17.6-23.2c-2.6-9.8-1.2-20,4-28.8l15.3-26
			c-6.1-6.5-11.5-13.6-16.1-21.3l-29.3,7.6c-3.1,0.8-6.3,1.2-9.6,1.2c-17.2,0-32.3-11.7-36.7-28.4c-5.3-20.2,6.9-41,27.2-46.3
			l29.3-7.6c0.4-8.7,1.6-17.6,3.8-26.5l-26-15.3c-8.8-5-15-13.2-17.6-23.1c-2.6-9.8-1.2-20,4-28.8c6.7-11.4,19.4-18.4,33.1-18.4
			c6.7,0,13.2,1.7,18.8,5.1l26.1,15.3c6.6-6.1,13.8-11.5,21.3-16.1L273,57.9c-2.6-9.8-1.1-20,4-28.8c5.1-8.7,13.4-14.9,23.2-17.5
			c3.1-0.8,6.4-1.2,9.6-1.2c17.2,0,32.3,11.7,36.7,28.4l7.6,29.2c8.7,0.4,17.7,1.6,26.5,3.8l15.3-26c6.8-11.4,19.5-18.5,33.1-18.5
			c6.7,0,13.2,1.7,18.8,5.1c8.7,5.1,14.9,13.4,17.4,23.2c2.5,9.8,1.1,20.1-4,28.8l-15.3,26c6,6.4,11.4,13.6,16.1,21.3l29.3-7.6
			c3.1-0.8,6.3-1.2,9.6-1.2c17.2,0,32.3,11.7,36.7,28.4c5.3,20.2-6.9,41-27.2,46.3l-29.3,7.6c-0.4,8.7-1.6,17.6-3.8,26.5l26.1,15.1
			c18,10.6,24,33.9,13.4,51.9c-6.8,11.4-19.5,18.5-33.2,18.5c-6.7,0-13.2-1.7-18.8-5.1l-26-15.3c-6.4,6-13.6,11.4-21.3,16.1
			l7.6,29.3c5.3,20.2-6.9,40.9-27.2,46.2C394.8,389.4,391.6,389.8,388.5,389.8z M316.1,303.4c1.8,0,3.6,0.2,5.3,0.7
			c8.7,2.3,17.3,3.5,25.8,3.7c9.4,0.2,17.6,6.7,19.9,15.7l8.2,31.7c1.6,6,7,10.2,13.2,10.2c1.1,0,2.3-0.1,3.4-0.4
			c7.2-1.9,11.6-9.3,9.7-16.5l-8.2-31.7c-2.4-9,1.6-18.7,9.7-23.5c7.7-4.5,14.6-9.7,20.7-15.6c4-3.9,9.2-6,14.6-6
			c3.7,0,7.4,1,10.6,2.9l28.2,16.6c1.9,1.1,4.1,1.7,6.5,1.7c5,0,9.8-2.6,12.2-6.5c3.8-6.4,1.6-14.8-4.8-18.6L463,251.5
			c-8.2-4.8-12.2-14.5-9.8-23.5c2.3-8.7,3.5-17.3,3.7-25.8c0.2-9.4,6.7-17.6,15.7-19.9l31.7-8.2c7.3-1.9,11.6-9.3,9.8-16.5
			c-1.6-6-7-10.2-13.1-10.2c-1.1,0-2.3,0.2-3.4,0.4l-31.7,8.2c-1.7,0.4-3.5,0.7-5.3,0.7c-7.5,0-14.4-4-18.2-10.4
			c-4.5-7.7-9.7-14.6-15.6-20.7c-6.6-6.8-7.8-17.2-3.1-25.3l16.6-28.2c1.8-3.1,2.3-6.8,1.4-10.3c-0.9-3.5-3.1-6.5-6.2-8.3
			c-1.9-1.1-4.1-1.7-6.5-1.7c-5,0-9.8,2.6-12.2,6.5l-16.6,28.2c-2.9,4.8-7.5,8.2-12.8,9.5c-3.4,0.9-7.2,0.9-10.7,0
			c-8.6-2.3-17.3-3.5-25.7-3.7c-9.4-0.2-17.6-6.7-19.9-15.7l-8.2-31.6c-1.6-6-7-10.2-13.1-10.2c-1.1,0-2.3,0.1-3.4,0.4
			c-3.5,0.9-6.5,3.2-8.4,6.3c-1.8,3.1-2.3,6.8-1.4,10.3l8.2,31.7c2.4,9-1.6,18.7-9.7,23.5c-7.5,4.3-14.4,9.6-20.8,15.6
			c-3.9,3.8-9.1,5.9-14.6,5.9c-3.8,0-7.6-1-10.8-3L220.8,109c-1.9-1.1-4.1-1.7-6.5-1.7c-5,0-9.8,2.6-12.2,6.5
			c-1.8,3.1-2.3,6.7-1.4,10.1l0.1,0.2c0.9,3.5,3,6.3,6.1,8.1l0.2,0.1l28.2,16.6c8.1,4.8,12.1,14.4,9.7,23.5
			c-2.3,8.7-3.5,17.3-3.7,25.8c-0.2,9.4-6.7,17.6-15.7,19.9l-31.7,8.2c-7.3,1.9-11.6,9.3-9.8,16.5c1.6,6,7,10.2,13.1,10.2
			c1.1,0,2.3-0.1,3.4-0.4l31.7-8.2c1.7-0.4,3.5-0.7,5.3-0.7c7.5,0,14.4,4,18.2,10.4c4.4,7.6,9.6,14.5,15.6,20.7
			c6.6,6.9,7.8,17.3,2.9,25.4l-16.5,28.1c-1.9,3.1-2.4,6.7-1.4,10.1l0.1,0.2c0.9,3.5,3,6.3,6.1,8.1l0.2,0.1c1.9,1.1,4.1,1.7,6.5,1.7
			c5,0,9.8-2.6,12.2-6.5l16.6-28.2C301.7,307.4,308.6,303.4,316.1,303.4z"/>
	</g>
</g>
<g>
	<g>
		<path fill="#0B2F6B" d="M440.4,433.7c-8.1,51.5,27,99.8,78.5,107.9c51.5,8.1,99.8-27,107.9-78.5c8.1-51.5-27-99.8-78.5-107.9
			C496.8,347.1,448.5,382.3,440.4,433.7z M541.9,395.7c29.1,4.6,49,31.9,44.4,61c-4.6,29.1-31.9,49-61,44.4
			c-29.1-4.6-49-31.9-44.4-61C485.4,411,512.8,391.1,541.9,395.7z"/>
	</g>
	<path fill="#0B2F6B" d="M531.5,509.1c7,4.1,11.1,12.2,9.8,20.6l-6.4,40.6c-1.7,11.1-12.1,18.6-23.2,16.9
		c-11-1.7-18.6-12.1-16.9-23.2l6.4-40.6c1.7-11.1,12.1-18.6,23.2-16.9C527,507,529.3,507.9,531.5,509.1z"/>
	<path fill="#0B2F6B" d="M479.8,477.5c2.3,1.4,4.4,3.2,6.1,5.6c6.6,9.1,4.6,21.7-4.5,28.3l-33.3,24.2c-9,6.6-21.7,4.6-28.3-4.5
		c-6.6-9.1-4.6-21.7,4.5-28.3l33.3-24.2C464.4,473.7,473.1,473.5,479.8,477.5z"/>
	<path fill="#0B2F6B" d="M465.6,418.6c7,4.1,11.1,12.2,9.8,20.6c-1.7,11.1-12.1,18.6-23.2,16.9l-40.6-6.4
		c-11.1-1.8-18.6-12.1-16.9-23.2s12.1-18.6,23.2-16.9l40.6,6.4C461.1,416.5,463.5,417.4,465.6,418.6z"/>
	<path fill="#0B2F6B" d="M473.1,333.7c2.3,1.4,4.4,3.2,6.1,5.6l24.2,33.3c6.6,9.1,4.6,21.7-4.5,28.3c-9.1,6.6-21.7,4.6-28.3-4.5
		l-24.2-33.3c-6.6-9.1-4.6-21.7,4.5-28.3C457.6,329.9,466.3,329.7,473.1,333.7z"/>
	<path fill="#0B2F6B" d="M562.6,312.1c7,4.1,11.1,12.2,9.8,20.6l-6.4,40.6c-1.7,11.1-12.1,18.6-23.2,16.9
		c-11-1.7-18.6-12.1-16.9-23.2l6.4-40.6c1.7-11.1,12.1-18.6,23.2-16.9C558.1,310,560.5,310.9,562.6,312.1z"/>
	<path fill="#0B2F6B" d="M641.1,360.2c2.3,1.4,4.4,3.2,6.1,5.6c6.6,9.1,4.6,21.7-4.5,28.3l-33.3,24.2c-9.1,6.6-21.7,4.6-28.3-4.5
		s-4.6-21.7,4.5-28.3l33.3-24.2C625.7,356.4,634.4,356.2,641.1,360.2z"/>
	<path fill="#0B2F6B" d="M662.6,449.7c7,4.1,11.1,12.2,9.8,20.6c-1.7,11.1-12.1,18.6-23.2,16.9l-40.6-6.4
		c-11-1.7-18.6-12.1-16.9-23.2c1.7-11.1,12.1-18.6,23.2-16.9l40.6,6.4C658.1,447.6,660.5,448.5,662.6,449.7z"/>
	<path fill="#0B2F6B" d="M590.4,495c2.3,1.4,4.4,3.2,6.1,5.6l24.2,33.3c6.6,9,4.6,21.7-4.5,28.3c-9,6.6-21.7,4.6-28.3-4.5
		l-24.2-33.3c-6.6-9-4.6-21.7,4.5-28.3C574.9,491.2,583.6,491,590.4,495z"/>
</g>
<g>
	<path fill="#0B2F6B" d="M349,280.2C349,280.2,349,280.2,349,280.2c-14.1,0-28.1-3.9-40.5-11.2c-37.9-22.3-50.6-71.4-28.3-109.4
		c10.9-18.5,28.3-31.5,48.9-36.8c6.6-1.7,13.3-2.6,20.1-2.6c14.2,0,28.2,3.8,40.6,11.1c37.9,22.3,50.6,71.4,28.3,109.5
		c-10.9,18.5-28.3,31.5-48.9,36.8C362.6,279.4,355.7,280.2,349,280.2z M349.2,130.4c-5.9,0-11.8,0.8-17.5,2.2
		c-18,4.6-33.1,16.1-42.7,32.2c-19.5,33.2-8.4,76,24.7,95.5c10.8,6.4,23,9.8,35.3,9.8c0,0,0,0,0,0c5.9,0,11.9-0.8,17.6-2.3
		c18-4.6,33.2-16.1,42.7-32.2c19.5-33.2,8.4-76-24.7-95.5C373.8,133.7,361.6,130.4,349.2,130.4z"/>
</g>
</svg>
