<?xml version="1.0" encoding="utf-8"?>
<!-- Generator: Adobe Illustrator 17.1.0, SVG Export Plug-In . SVG Version: 6.00 Build 0)  -->
<!DOCTYPE svg PUBLIC "-//W3C//DTD SVG 1.1//EN" "http://www.w3.org/Graphics/SVG/1.1/DTD/svg11.dtd">
<svg version="1.1" id="Fix__x26__Fall" xmlns="http://www.w3.org/2000/svg" xmlns:xlink="http://www.w3.org/1999/xlink" x="0px"
	 y="0px" viewBox="0 0 841.9 595.3" enable-background="new 0 0 841.9 595.3" xml:space="preserve">
<g>
	<g>
		<path fill="#FFFFFF" d="M697.5,50.7c14.4,0,24.7,6.6,24.7,22.4v378.2c0,15.9-10.3,24.1-24.7,24.1H143.4
			c-14.4,0-24.7-8.2-24.7-24.1V73.1c0-15.9,10.3-22.4,24.7-22.4L697.5,50.7 M697.5,18.3H143.4c-15.1,0-28.4,4.4-38.4,12.7
			C93,41,86.3,56,86.3,73.1v378.2c0,16.6,6.2,31.4,17.4,41.8c10.4,9.6,24.1,14.7,39.7,14.7h554.1c15.6,0,29.3-5.1,39.7-14.7
			c11.2-10.3,17.4-25.2,17.4-41.8V73.1C754.6,56,748,41,736,31C725.9,22.7,712.6,18.3,697.5,18.3L697.5,18.3z"/>
	</g>
	<g>
		<path fill="#0B2F6B" d="M801,571H40c-13.3,0-24.1-10.8-24.1-24.1s10.8-24.1,24.1-24.1h761c13.3,0,24.1,10.8,24.1,24.1
			S814.3,571,801,571z"/>
	</g>
	<g>
		<g>
			<path fill="#0B2F6B" d="M697.5,50.7c14.4,0,24.7,6.6,24.7,22.4v378.2c0,15.9-10.3,24.1-24.7,24.1H143.4
				c-14.4,0-24.7-8.2-24.7-24.1V73.1c0-15.9,10.3-22.4,24.7-22.4L697.5,50.7 M697.5,18.3H143.4c-15.1,0-28.4,4.4-38.4,12.7
				C93,41,86.3,56,86.3,73.1v378.2c0,16.6,6.2,31.4,17.4,41.8c10.4,9.6,24.1,14.7,39.7,14.7h554.1c15.6,0,29.3-5.1,39.7-14.7
				c11.2-10.3,17.4-25.2,17.4-41.8V73.1C754.6,56,748,41,736,31C725.9,22.7,712.6,18.3,697.5,18.3L697.5,18.3z"/>
		</g>
	</g>
	<path fill="#0B2F6B" d="M269.5,434.8h-17.1c-12.3,0-22.2-10-22.2-22.2V303.7c0-12.3,10-22.2,22.2-22.2h17.1
		c12.3,0,22.2,10,22.2,22.2v108.9C291.7,424.9,281.8,434.8,269.5,434.8z"/>
	<path fill="#0B2F6B" d="M349.2,434.8h-17.1c-12.3,0-22.2-10-22.2-22.2V152.7c0-12.3,10-22.2,22.2-22.2h17.1
		c12.3,0,22.2,10,22.2,22.2v259.8C371.4,424.9,361.5,434.8,349.2,434.8z"/>
	<path fill="#0B2F6B" d="M428.9,434.8h-17.1c-12.3,0-22.2-10-22.2-22.2V228.2c0-12.3,10-22.2,22.2-22.2h17.1
		c12.3,0,22.2,10,22.2,22.2v184.4C451.1,424.9,441.2,434.8,428.9,434.8z"/>
	<path fill="#0B2F6B" d="M508.6,434.8h-17.1c-12.3,0-22.2-10-22.2-22.2V303.7c0-12.3,10-22.2,22.2-22.2h17.1
		c12.3,0,22.2,10,22.2,22.2v108.9C530.8,424.9,520.9,434.8,508.6,434.8z"/>
	<path fill="#0B2F6B" d="M588.3,434.8h-17.1c-12.3,0-22.2-10-22.2-22.2V228.2c0-12.3,10-22.2,22.2-22.2h17.1
		c12.3,0,22.2,10,22.2,22.2v184.4C610.5,424.9,600.6,434.8,588.3,434.8z"/>
</g>
</svg>
