<?xml version="1.0" encoding="utf-8"?>
<!-- Generator: Adobe Illustrator 18.0.0, SVG Export Plug-In . SVG Version: 6.00 Build 0)  -->
<!DOCTYPE svg PUBLIC "-//W3C//DTD SVG 1.1//EN" "http://www.w3.org/Graphics/SVG/1.1/DTD/svg11.dtd">
<svg version="1.1" id="Layer_1" xmlns="http://www.w3.org/2000/svg" xmlns:xlink="http://www.w3.org/1999/xlink" x="0px" y="0px"
	 viewBox="0 0 177 50" enable-background="new 0 0 177 50" xml:space="preserve">
<path fill-rule="evenodd" clip-rule="evenodd" fill="#DDDDDD" d="M5.3,2.2h166.3c1.6,0,2.8,1.4,2.8,3V34c0,1.7-1.3,3-2.8,3
	L88.9,48.2L5.3,37c-1.6,0-2.8-1.4-2.8-3V5.2C2.5,3.5,3.8,2.2,5.3,2.2z"/>
<g>
	<path fill="#0B2F6B" d="M28.2,17.4c-2.7,0.2-5.3,2-5.3,5.4c0,3.1,2,4.6,4.9,4.5c1.7-0.1,3.2-0.8,4.3-2.1l1.6,1.8
		c0.1,0.1,0.2,0.2,0.4,0.2c0.1,0,0.3,0,0.4-0.1l2.1-2c0.2-0.2,0.2-0.5,0.1-0.7l-0.8-1c-0.2-0.2-0.3-1.1-0.3-1.6v-6.9
		c0-2.5-2.2-4.1-6.3-3.9c-2.6,0.1-5,1-5.6,4.1c0,0.1,0,0.3,0.1,0.4c0.1,0.1,0.2,0.2,0.4,0.2l2.6,0.3c0.2,0,0.5-0.2,0.6-0.4
		c0.2-1,0.9-1.7,2-1.7c1.6,0,2.3,0.8,2.3,1.9v1.4L28.2,17.4z M31.4,19.3v1.9c0,1.5-1,2.8-1.8,3c-1.6,0.5-2.7-0.8-2.6-2.1
		c0-1.7,1.5-2.7,2.8-2.8L31.4,19.3z"/>
	<path fill="#0B2F6B" d="M34.1,28.2c-0.3,0.2-0.1,0.2,0.2,0.2c0.5,0,0.9-0.1,1.3,0c0.3,0,0.4,0.2,0.3,0.6c-0.1,0.4-0.2,0.7-0.3,1.1
		c-0.2,0.4,0.2,0.1,0.3,0.1c0.5-0.5,0.9-1.9,0.7-2.1C36.1,27.8,34.7,27.8,34.1,28.2z"/>
	<path fill="#0B2F6B" d="M34.9,28.9c-3.6,1.5-7.8,1.3-11.2-0.5c0,0-0.2-0.1-0.4-0.2c-0.2-0.1-0.2-0.1-0.2,0c0,0,0,0.1,0,0.2
		c2,1.8,4.4,2.7,7.1,2.6c2-0.1,3.9-0.8,5-1.6c0.2-0.1,0.2-0.3,0.1-0.3C35.2,28.9,35,28.9,34.9,28.9z"/>
</g>
<g>
	<path fill="#0B2F6B" d="M50.1,21.3h-2.7v4.4h4v1h-6.8v-1h1.6v-4.4h-1.5v-1h1.5V19c0-2,0.8-3.8,3.4-3.8c0.9,0,1.8,0.3,2.5,1
		l-0.8,0.8c-0.4-0.5-1-0.8-1.8-0.8c-2,0-2.2,1.9-2.2,2.9v1.3h2.7V21.3z"/>
	<path fill="#0B2F6B" d="M59.6,16.4h-4.6l-0.1,3.4c0.5-0.2,1-0.3,1.5-0.3c2.1,0,3.6,1.6,3.6,3.6c0,2.2-1.6,3.7-3.8,3.7
		c-1.4,0-2.7-0.7-3.3-2l1.1-0.5c0.4,0.9,1.2,1.5,2.2,1.5c1.4,0,2.6-1.1,2.6-2.5c0-1.6-1.2-2.7-2.8-2.7c-0.8,0-1.6,0.2-2.4,0.6
		l0.1-5.9h5.8V16.4z"/>
	<path fill="#0B2F6B" d="M69.3,21c0,2.5-0.6,5.9-3.8,5.9c-3.2,0-3.8-3.3-3.8-5.9c0-2.5,0.6-5.9,3.8-5.9C68.7,15.1,69.3,18.5,69.3,21
		z M62.8,21c0,1.8,0.2,4.8,2.7,4.8c2.5,0,2.7-3,2.7-4.8c0-1.8-0.2-4.8-2.7-4.8C63,16.2,62.8,19.2,62.8,21z"/>
	<path fill="#0B2F6B" d="M84.3,17.4c-0.8-0.8-1.8-1.3-3.2-1.3c-2.9,0-4.7,2.3-4.7,4.9c0,2.6,1.7,4.9,4.7,4.9c1.2,0,2.3-0.3,3.1-0.8
		v-3.8h-2.7v-1.1h3.9v5.6C84.1,26.6,82.4,27,81,27c-3.4,0-5.9-2.5-5.9-6s2.5-6,5.9-6c1.8,0,3.1,0.5,4.1,1.5L84.3,17.4z"/>
	<path fill="#0B2F6B" d="M89.5,26.7h-1.2V15.3h1.2V26.7z"/>
	<path fill="#0B2F6B" d="M93.7,26.7h-1.2V15.3h6.8v1.1h-5.7v3.9H99v1.1h-5.3V26.7z"/>
	<path fill="#0B2F6B" d="M105.1,26.7H104V16.4h-3.8v-1.1h8.7v1.1h-3.8V26.7z"/>
	<path fill="#0B2F6B" d="M124.4,24.9c-0.8,1.2-2.3,2.1-4.2,2.1c-3.4,0-5.9-2.5-5.9-6s2.5-6,5.9-6c1.4,0,2.9,0.5,3.9,1.8l-1,0.8
		c-0.4-0.7-1.7-1.5-2.9-1.5c-2.9,0-4.7,2.3-4.7,4.9c0,2.6,1.7,4.9,4.7,4.9c1.2,0,2.4-0.4,3.2-1.7L124.4,24.9z"/>
	<path fill="#0B2F6B" d="M126.2,26.7h-1.3l4.9-11.3h1.1l4.9,11.3h-1.3l-1.2-3h-5.8L126.2,26.7z M127.9,22.6h4.9l-2.4-6L127.9,22.6z"
		/>
	<path fill="#0B2F6B" d="M138.5,26.7h-1.2V15.3h3.5c2.3,0,3.7,1,3.7,3c0,1.6-1,2.8-2.9,2.9l3.3,5.4h-1.4l-3.1-5.3h-1.9V26.7z
		 M138.5,20.3h2c2.1,0,2.8-0.9,2.8-2c0-1.1-0.7-2-2.8-2h-2V20.3z"/>
	<path fill="#0B2F6B" d="M146.7,15.3h3.8c2.8,0,6,1.9,6,5.7c0,3.8-3.1,5.7-6,5.7h-3.8V15.3z M147.8,25.6h2.2c3.5,0,5.1-2.3,5.1-4.6
		s-1.6-4.6-5.1-4.6h-2.2V25.6z"/>
</g>
</svg>
