<?xml version="1.0" encoding="utf-8"?>
<!-- Generator: Adobe Illustrator 18.0.0, SVG Export Plug-In . SVG Version: 6.00 Build 0)  -->
<!DOCTYPE svg PUBLIC "-//W3C//DTD SVG 1.1//EN" "http://www.w3.org/Graphics/SVG/1.1/DTD/svg11.dtd">
<svg version="1.1" id="Layer_1" xmlns="http://www.w3.org/2000/svg" xmlns:xlink="http://www.w3.org/1999/xlink" x="0px" y="0px"
	 viewBox="0 0 177 30.4" enable-background="new 0 0 177 30.4" xml:space="preserve">
<path fill-rule="evenodd" clip-rule="evenodd" fill="#DDDDDD" d="M5.3,2h166.3c1.6,0,2.8,1.4,2.8,3v12.8c0,1.7-1.3,3-2.8,3L88.9,29
	L5.3,20.9c-1.6,0-2.8-1.4-2.8-3V5C2.5,3.4,3.8,2,5.3,2z"/>
<g>
	<g>
		<path fill="#0B2F6B" d="M57.6,15.6h1.1v-2.4h-1.1v-0.9h1.1v-1.1c0-1.1,0.7-2.4,2.6-2.4c0.8,0,1.6,0.2,2.1,0.7l-0.9,1
			c-0.3-0.3-0.7-0.5-1.2-0.5c-0.8,0-1.3,0.7-1.3,1.4v1h1.8v0.9h-1.8v2.4h2.8v1.1h-5.2V15.6z"/>
		<path fill="#0B2F6B" d="M69,10.1h-3.1l0,1.6c0.2-0.1,0.6-0.1,0.8-0.1c1.5,0,2.6,1,2.6,2.6c0,1.7-1.2,2.7-2.8,2.7
			c-1.2,0-2.2-0.6-2.5-1.8l1.4-0.4c0.2,0.6,0.6,0.9,1.3,0.9c0.8,0,1.4-0.6,1.4-1.3c0-1.1-0.9-1.5-1.8-1.5c-0.6,0-1.2,0.1-1.6,0.4
			l0.1-4.2H69V10.1z"/>
		<path fill="#0B2F6B" d="M73.2,8.7c0.9,0,2.8,0.3,2.8,4s-1.9,4-2.8,4s-2.8-0.3-2.8-4S72.3,8.7,73.2,8.7z M73.2,15.5
			c1.3,0,1.5-1.8,1.5-2.8S74.5,10,73.2,10s-1.5,1.8-1.5,2.8S71.9,15.5,73.2,15.5z"/>
		<path fill="#0B2F6B" d="M87.5,16.1c-0.9,0.5-2,0.8-3.2,0.8c-2.4,0-4.1-1.6-4.1-4.1c0-2.5,1.7-4.1,4.1-4.1c1.2,0,2.3,0.3,3.1,1
			l-1,1c-0.5-0.5-1.3-0.8-2-0.8c-1.6,0-2.7,1.2-2.7,2.8c0,1.7,1.1,2.9,2.7,2.9c0.7,0,1.3-0.1,1.8-0.4v-1.8h-1.6v-1.3h3V16.1z"/>
		<path fill="#0B2F6B" d="M89.1,8.9h1.4v7.8h-1.4V8.9z"/>
		<path fill="#0B2F6B" d="M92.2,8.9h5v1.3h-3.6v2H97v1.3h-3.4v3.2h-1.4V8.9z"/>
		<path fill="#0B2F6B" d="M100.1,10.1h-2.4V8.9h6.2v1.3h-2.4v6.5h-1.4V10.1z"/>
		<path fill="#0B2F6B" d="M113.4,10.7c-0.6-0.6-1.1-0.8-1.6-0.8c-1.6,0-2.7,1.2-2.7,2.8c0,1.7,1.1,2.9,2.7,2.9
			c0.6,0,1.2-0.3,1.7-0.9l1.1,0.8c-0.7,1-1.8,1.4-2.9,1.4c-2.4,0-4.1-1.6-4.1-4.1c0-2.5,1.7-4.1,4.1-4.1c1.1,0,2,0.3,2.7,1.2
			L113.4,10.7z"/>
		<path fill="#0B2F6B" d="M118.1,8.9h1.2l3.4,7.8h-1.6l-0.7-1.8H117l-0.7,1.8h-1.6L118.1,8.9z M119.9,13.7l-1.2-3.2l-1.2,3.2H119.9z
			"/>
		<path fill="#0B2F6B" d="M123.6,8.9h2.7c1.5,0,2.9,0.5,2.9,2.2c0,1.1-0.6,1.9-1.8,2.1l2.1,3.4h-1.7l-1.8-3.3h-1v3.3h-1.4V8.9z
			 M126,12.2c0.8,0,1.7-0.1,1.7-1.1c0-0.9-0.9-1-1.6-1h-1.2v2.1H126z"/>
		<path fill="#0B2F6B" d="M130.5,8.9h3.1c2,0,4,1.3,4,3.9c0,2.7-2.3,3.9-4.1,3.9h-2.9V8.9z M132.9,15.4c1.7,0,3.2-0.7,3.2-2.6
			s-1.2-2.6-2.9-2.6h-1.3v5.3H132.9z"/>
	</g>
	<g>
		<path fill="#0B2F6B" d="M46.6,11.3c-1.8,0.1-3.5,1.3-3.6,3.6c0,2.1,1.4,3.1,3.3,3c1.1-0.1,2.1-0.5,2.9-1.4l1.1,1.2
			c0.1,0.1,0.1,0.1,0.2,0.1c0.1,0,0.2,0,0.2-0.1l1.4-1.3c0.1-0.1,0.1-0.3,0-0.4l-0.5-0.7c-0.1-0.1-0.2-0.8-0.2-1.1V9.5
			c0-1.7-1.5-2.7-4.3-2.6c-1.7,0.1-3.3,0.7-3.8,2.8c0,0.1,0,0.2,0.1,0.3c0.1,0.1,0.1,0.1,0.2,0.1l1.8,0.2c0.2,0,0.3-0.1,0.4-0.3
			c0.1-0.7,0.6-1.1,1.4-1.1c1.1,0,1.6,0.6,1.6,1.3v1L46.6,11.3z M48.8,12.6v1.3c0,1-0.7,1.9-1.2,2c-1.1,0.3-1.8-0.5-1.8-1.4
			c0-1.1,1-1.8,1.9-1.9L48.8,12.6z"/>
		<path fill="#0B2F6B" d="M50.6,18.6c-0.2,0.1-0.1,0.2,0.1,0.1c0.3,0,0.6,0,0.9,0c0.2,0,0.2,0.1,0.2,0.4c-0.1,0.3-0.1,0.5-0.2,0.8
			c-0.1,0.3,0.2,0.1,0.2,0.1c0.4-0.3,0.6-1.3,0.5-1.4C51.9,18.3,51,18.3,50.6,18.6z"/>
		<path fill="#0B2F6B" d="M51.1,19c-2.4,1-5.2,0.9-7.6-0.4c0,0-0.1-0.1-0.3-0.1c-0.1-0.1-0.1,0-0.1,0c0,0,0,0.1,0,0.1
			c1.4,1.2,3,1.8,4.8,1.7c1.4-0.1,2.6-0.6,3.4-1.1c0.1-0.1,0.1-0.2,0.1-0.2C51.3,19,51.2,19,51.1,19z"/>
	</g>
</g>
</svg>
