<?xml version="1.0" encoding="utf-8"?>
<!-- Generator: Adobe Illustrator 18.0.0, SVG Export Plug-In . SVG Version: 6.00 Build 0)  -->
<!DOCTYPE svg PUBLIC "-//W3C//DTD SVG 1.1//EN" "http://www.w3.org/Graphics/SVG/1.1/DTD/svg11.dtd">
<svg version="1.1" id="Layer_4" xmlns="http://www.w3.org/2000/svg" xmlns:xlink="http://www.w3.org/1999/xlink" x="0px" y="0px"
	 viewBox="0 0 70.2 49.7" enable-background="new 0 0 70.2 49.7" xml:space="preserve">
<g>
	<path d="M66.8,45.9H3.7c-1,0-1.8-0.8-1.8-1.8V5.6c0-1,0.8-1.8,1.8-1.8h63.2c1,0,1.8,0.8,1.8,1.8v38.5
		C68.7,45.1,67.8,45.9,66.8,45.9z"/>
	<path fill="#FFFFFF" d="M55.2,22.7v3c0,2.3-1.5,4.3-2.8,4.7c-2.5,0.8-4.1-1.2-4.1-3.3c0.1-2.6,2.4-4.2,4.3-4.3L55.2,22.7z
		 M61.5,15.5c0-3.9-3.4-6.4-9.9-6.1c-4,0.1-7.8,1.6-8.8,6.4c0,0.2,0,0.4,0.1,0.6c0.1,0.2,0.3,0.3,0.6,0.3l4.1,0.5
		c0.4,0,0.8-0.2,0.9-0.6c0.3-1.5,1.4-2.6,3.1-2.6c2.5,0,3.6,1.3,3.6,3v2.3l-5,0.4C45.9,20,42,22.7,41.9,28c-0.1,4.9,3.2,7.2,7.6,7
		c2.6-0.1,4.9-1.3,6.7-3.2l2.5,2.8c0.1,0.2,0.3,0.3,0.6,0.3c0.2,0,0.4-0.1,0.6-0.2l3.3-3.1c0.3-0.3,0.3-0.7,0.1-1L62,28.9
		c-0.2-0.3-0.5-1.7-0.5-2.6V15.5z"/>
	<g>
		<g>
			<path fill="#F4A300" d="M61.5,39.5c-0.3,0.6,0.4,0.2,0.4,0.1c0.8-0.7,1.4-3,1.1-3.3c-0.5-0.4-2.7-0.4-3.6,0.3
				c-0.4,0.3-0.2,0.4,0.2,0.3c0.7,0,1.4-0.1,2,0c0.5,0,0.6,0.3,0.4,0.9C61.9,38.4,61.8,38.8,61.5,39.5z"/>
			<path fill="#F4A300" d="M60.6,37.7c-5.7,2.3-12.2,2-17.5-0.8c-0.1,0-0.3-0.2-0.6-0.3c-0.2-0.1-0.3-0.1-0.3,0
				c-0.1,0.1,0,0.2,0.1,0.2c3.1,2.8,6.9,4.2,11.1,4c3.2-0.1,6.1-1.3,7.8-2.5c0.2-0.2,0.3-0.4,0.2-0.5C61.2,37.5,60.9,37.6,60.6,37.7
				z"/>
		</g>
	</g>
	<g>
		<g>
			<g>
				<path fill="#FFFFFF" d="M12.5,12.6c0-0.6-1.1-0.9-1.5-0.1c-0.3-0.6-1.2-0.6-1.4,0l0-0.3c0,0,0-0.1-0.1-0.1H8.9
					c0,0-0.1,0-0.1,0.1v2.8c0,0,0,0.1,0.1,0.1h0.6c0,0,0.1,0,0.1-0.1v-1.8c0-0.2,0.1-0.4,0.3-0.5c0.2-0.1,0.4,0.1,0.4,0.3l0,1.9
					c0,0,0,0.1,0.1,0.1h0.6c0,0,0.1,0,0.1-0.1l0-1.9c0-0.4,0.7-0.5,0.7,0v1.9c0,0,0,0.1,0.1,0.1h0.5c0,0,0.1,0,0.1-0.1L12.5,12.6z"
					/>
				<path fill="#FFFFFF" d="M17.9,12.2C17.9,12.1,17.9,12.1,17.9,12.2L16,12.1c0,0,0,0-0.1,0c0,0,0,0,0,0.1v0.4c0,0,0,0.1,0.1,0.1h1
					l-1.1,1.6c-0.1,0.1-0.1,0.1-0.1,0.2l0,0.4c0,0.1,0,0.1,0.1,0.1c0.7-0.3,1.4-0.3,1.9,0c0,0,0.1,0,0.1-0.1l0-0.5c0,0,0-0.1,0-0.1
					c-0.3-0.2-0.7-0.2-1.1-0.2l1-1.4c0-0.1,0.1-0.1,0.1-0.2L17.9,12.2z"/>
				<path fill="#FFFFFF" d="M19.9,13.5c0,0.5,0,1-0.4,1c-0.4,0-0.4-0.4-0.4-1c0-0.5,0-1,0.4-1C19.9,12.6,19.9,13,19.9,13.5z
					 M20.7,13.5c0-0.9-0.5-1.6-1.2-1.5c-0.7,0-1.2,0.7-1.2,1.6c0,0.9,0.5,1.6,1.3,1.5C20.2,15.1,20.7,14.4,20.7,13.5z"/>
				<path fill="#FFFFFF" d="M23.4,12.8c0-0.4-0.3-0.8-0.9-0.8c-0.3,0-0.5,0.2-0.6,0.5v-0.4c0-0.1,0-0.1-0.1-0.1h-0.5
					c0,0-0.1,0-0.1,0.1v2.8c0,0,0,0.1,0.1,0.1h0.6c0,0,0.1,0,0.1-0.1v-1.7c0-0.3,0.2-0.5,0.4-0.5c0.2,0,0.3,0.2,0.3,0.3v1.9
					c0,0,0,0.1,0.1,0.1h0.5c0,0,0.1,0,0.1-0.1L23.4,12.8z"/>
				<path fill="#FFFFFF" d="M14.6,13.6v0.4c0,0.3-0.2,0.5-0.3,0.6c-0.3,0.1-0.5-0.1-0.5-0.4c0-0.3,0.3-0.5,0.5-0.5L14.6,13.6z
					 M15.3,12.7c0-0.5-0.4-0.8-1.2-0.7c-0.5,0-0.9,0.2-1,0.8c0,0,0,0.1,0,0.1c0,0,0,0,0.1,0l0.5,0.1c0,0,0.1,0,0.1-0.1
					c0-0.2,0.2-0.3,0.4-0.3c0.3,0,0.4,0.2,0.4,0.4v0.3l-0.6,0c-0.5,0-1,0.4-1,1c0,0.6,0.4,0.9,0.9,0.8c0.3,0,0.6-0.2,0.8-0.4L15,15
					c0,0,0,0,0.1,0c0,0,0.1,0,0.1,0l0.4-0.4c0,0,0-0.1,0-0.1l-0.1-0.2c0,0-0.1-0.2-0.1-0.3V12.7z"/>
				<path fill="#FFFFFF" d="M7.4,13.6v0.4c0,0.3-0.2,0.5-0.3,0.6c-0.3,0.1-0.5-0.1-0.5-0.4c0-0.3,0.3-0.5,0.5-0.5L7.4,13.6z
					 M8.2,12.7C8.2,12.3,7.8,12,7,12c-0.5,0-0.9,0.2-1,0.8c0,0,0,0.1,0,0.1c0,0,0,0,0.1,0l0.5,0.1c0,0,0.1,0,0.1-0.1
					c0-0.2,0.2-0.3,0.4-0.3c0.3,0,0.4,0.2,0.4,0.4v0.3l-0.6,0c-0.5,0-1,0.4-1,1c0,0.6,0.4,0.9,0.9,0.8c0.3,0,0.6-0.2,0.8-0.4L7.8,15
					c0,0,0,0,0.1,0c0,0,0.1,0,0.1,0l0.4-0.4c0,0,0-0.1,0-0.1l-0.1-0.2c0,0-0.1-0.2-0.1-0.3V12.7z"/>
			</g>
			<g>
				<path fill="#FFFFFF" d="M24.2,14.8c0-0.1-0.1-0.3-0.3-0.3c-0.1,0-0.3,0.1-0.3,0.3c0,0.1,0.1,0.3,0.3,0.3
					C24.1,15.1,24.2,15,24.2,14.8z"/>
				<path fill="#FFFFFF" d="M26.4,13.1C26.4,13.1,26.4,13,26.4,13.1C26.4,13,26.4,13,26.4,13.1c0-0.6-0.3-1.1-1-1.1
					c-0.8,0-1.1,0.9-1.1,1.5c0,0.7,0.2,1.5,1.1,1.6c0.6,0,1-0.5,1-1c0,0,0,0,0,0c0,0,0,0,0,0h-0.3c0,0-0.1,0-0.1,0
					c-0.1,0.4-0.3,0.7-0.6,0.7c-0.5,0-0.7-0.7-0.7-1.2c0-0.4,0.2-1.1,0.7-1.1c0.4,0,0.6,0.3,0.6,0.6c0,0,0,0.1,0.1,0.1H26.4z"/>
				<path fill="#FFFFFF" d="M29.7,14.8c0-0.1-0.1-0.3-0.3-0.3c-0.1,0-0.3,0.1-0.3,0.3c0,0.1,0.1,0.3,0.3,0.3
					C29.6,15.1,29.7,15,29.7,14.8z"/>
				<path fill="#FFFFFF" d="M28.6,13.5c0,0.6-0.2,1.2-0.7,1.2c-0.5,0-0.7-0.5-0.7-1.2c0-0.6,0.2-1.2,0.7-1.2
					C28.3,12.4,28.6,12.9,28.6,13.5z M29.1,13.5c0-0.9-0.4-1.5-1.2-1.6c-0.8,0-1.2,0.7-1.2,1.5c0,1,0.3,1.5,1.2,1.6
					C28.6,15.1,29.1,14.5,29.1,13.5z"/>
				<path fill="#FFFFFF" d="M32,12.1C32,12.1,32,12.1,32,12.1l-0.4-0.1c0,0-0.1,0-0.1,0.1l0,1.8c0,0.2-0.2,0.8-0.6,0.8
					c-0.4,0.1-0.5-0.4-0.5-0.7l0-1.9c0,0,0-0.1-0.1-0.1H30c0,0-0.1,0-0.1,0.1l0,1.9c0,0.5,0.3,1,0.8,1c0.4,0,0.7-0.2,0.8-0.5V15
					c0,0,0,0.1,0.1,0.1H32c0,0,0.1,0,0.1-0.1V12.1z"/>
				<path fill="#FFFFFF" d="M34.5,12.2c0-0.1,0.1-0.1,0-0.1l-0.3,0c0,0,0,0,0,0L33,13.5l0-2.5c0,0,0-0.1-0.1-0.1h-0.3
					c0,0-0.1,0-0.1,0.1V15c0,0,0,0.1,0.1,0.1h0.3c0,0,0.1,0,0.1-0.1v-0.8c0,0,0,0,0,0l0.5-0.7l0.7,1.6c0,0,0,0,0.1,0h0.4
					c0,0,0,0,0.1,0c0,0,0,0,0-0.1l-0.9-1.8L34.5,12.2z"/>
			</g>
		</g>
		<g>
			<g>
				<path fill="#FBAF29" d="M16.9,16.7c-0.1,0.3,0.2,0.1,0.2,0.1c0.4-0.3,0.6-1.3,0.5-1.5c-0.2-0.2-1.2-0.2-1.6,0.1
					c-0.2,0.1-0.1,0.2,0.1,0.1c0.3,0,0.6,0,0.9,0c0.2,0,0.3,0.1,0.2,0.4C17.1,16.2,17,16.4,16.9,16.7z"/>
				<path fill="#FBAF29" d="M16.5,15.9c-2.5,1-5.4,0.9-7.8-0.4c0,0-0.1-0.1-0.3-0.2c-0.1-0.1-0.1,0-0.1,0c0,0,0,0.1,0,0.1
					c1.4,1.3,3.1,1.9,4.9,1.8c1.4-0.1,2.7-0.6,3.4-1.1c0.1-0.1,0.1-0.2,0.1-0.2C16.7,15.8,16.6,15.8,16.5,15.9z"/>
			</g>
		</g>
	</g>
	<g>
		<path fill="#F4A300" d="M17.3,20.6c0.2,0.2,0.4,0.4,0.7,0.4c0.5,0,0.7-0.3,0.7-0.8v-0.3h0c-0.2,0.3-0.4,0.4-0.7,0.4
			c-0.6,0-1-0.4-1-1c0-0.6,0.4-1,1-1c0.2,0,0.5,0.1,0.7,0.4h0v-0.3h0.3v1.9c0,0.4-0.2,1-1,1c-0.4,0-0.7-0.1-0.9-0.4L17.3,20.6z
			 M18.1,20c0.4,0,0.7-0.3,0.7-0.7c0-0.4-0.3-0.7-0.7-0.7c-0.4,0-0.7,0.3-0.7,0.7C17.4,19.6,17.7,20,18.1,20z"/>
		<path fill="#F4A300" d="M19.9,17.8c-0.1,0-0.2-0.1-0.2-0.2s0.1-0.2,0.2-0.2c0.1,0,0.2,0.1,0.2,0.2S20,17.8,19.9,17.8z M20,20.2
			h-0.3v-1.9H20V20.2z"/>
		<path fill="#F4A300" d="M21.5,18.5h-0.5v1.7h-0.3v-1.7h-0.4v-0.2h0.4v-0.5c0-0.5,0.3-0.7,0.6-0.7c0.1,0,0.2,0,0.2,0l0,0.2
			c-0.1,0-0.1,0-0.2,0c-0.3,0-0.3,0.2-0.3,0.5v0.5h0.5V18.5z"/>
		<path fill="#F4A300" d="M22.8,18.5h-0.6v1.1c0,0.3,0.1,0.3,0.3,0.3c0.1,0,0.2,0,0.3-0.1l0,0.2c-0.1,0-0.2,0.1-0.4,0.1
			c-0.2,0-0.5-0.1-0.5-0.5v-1.2h-0.4v-0.2H22v-0.5h0.3v0.5h0.6V18.5z"/>
		<path fill="#F4A300" d="M25.7,18.7c-0.1-0.1-0.3-0.3-0.5-0.3c-0.4,0-0.7,0.3-0.7,0.8c0,0.4,0.3,0.8,0.7,0.8c0.2,0,0.4-0.1,0.5-0.3
			l0.2,0.2c-0.2,0.2-0.4,0.3-0.7,0.3c-0.6,0-1-0.4-1-1s0.4-1,1-1c0.3,0,0.5,0.1,0.7,0.3L25.7,18.7z"/>
		<path fill="#F4A300" d="M26.5,19.3c0,0.4,0.3,0.7,0.7,0.7c0.3,0,0.5-0.2,0.6-0.3l0.2,0.2c-0.2,0.3-0.5,0.4-0.8,0.4
			c-0.6,0-1-0.4-1-1s0.4-1,1-1c0.6,0,0.9,0.4,0.9,1v0.1H26.5z M27.8,19.1c0-0.4-0.2-0.6-0.6-0.6c-0.4,0-0.7,0.3-0.7,0.6H27.8z"/>
		<path fill="#F4A300" d="M28.6,18.9c0-0.2,0-0.3,0-0.6h0.3v0.4h0c0.1-0.2,0.3-0.4,0.6-0.4c0.1,0,0.1,0,0.2,0l-0.1,0.3
			c0,0-0.1,0-0.2,0c-0.4,0-0.6,0.4-0.6,0.6v1.1h-0.3V18.9z"/>
		<path fill="#F4A300" d="M30.9,18.5h-0.6v1.1c0,0.3,0.1,0.3,0.3,0.3c0.1,0,0.2,0,0.3-0.1l0,0.2c-0.1,0-0.2,0.1-0.4,0.1
			c-0.2,0-0.5-0.1-0.5-0.5v-1.2h-0.4v-0.2h0.4v-0.5h0.3v0.5h0.6V18.5z"/>
		<path fill="#F4A300" d="M31.5,17.8c-0.1,0-0.2-0.1-0.2-0.2s0.1-0.2,0.2-0.2c0.1,0,0.2,0.1,0.2,0.2S31.6,17.8,31.5,17.8z
			 M31.7,20.2h-0.3v-1.9h0.3V20.2z"/>
		<path fill="#F4A300" d="M33.2,18.5h-0.5v1.7h-0.3v-1.7h-0.4v-0.2h0.4v-0.5c0-0.5,0.3-0.7,0.6-0.7c0.1,0,0.2,0,0.2,0l0,0.2
			c-0.1,0-0.1,0-0.2,0c-0.3,0-0.3,0.2-0.3,0.5v0.5h0.5V18.5z M33.7,17.8c-0.1,0-0.2-0.1-0.2-0.2s0.1-0.2,0.2-0.2
			c0.1,0,0.2,0.1,0.2,0.2S33.8,17.8,33.7,17.8z M33.8,20.2h-0.3v-1.9h0.3V20.2z"/>
		<path fill="#F4A300" d="M35.9,18.7c-0.1-0.1-0.3-0.3-0.5-0.3c-0.4,0-0.7,0.3-0.7,0.8c0,0.4,0.3,0.8,0.7,0.8c0.2,0,0.4-0.1,0.5-0.3
			l0.2,0.2c-0.2,0.2-0.4,0.3-0.7,0.3c-0.6,0-1-0.4-1-1s0.4-1,1-1c0.3,0,0.5,0.1,0.7,0.3L35.9,18.7z"/>
		<path fill="#F4A300" d="M37.7,19L37.7,19c0-0.4-0.2-0.5-0.5-0.5c-0.2,0-0.4,0.1-0.6,0.2l-0.2-0.2c0.2-0.2,0.4-0.3,0.8-0.3
			c0.4,0,0.7,0.2,0.7,0.7v0.9c0,0.1,0,0.3,0,0.4h-0.3c0-0.1,0-0.2,0-0.3h0c-0.2,0.3-0.4,0.4-0.7,0.4c-0.3,0-0.7-0.2-0.7-0.6
			c0-0.6,0.7-0.7,1.2-0.7H37.7z M37.6,19.3c-0.3,0-0.9,0-0.9,0.4c0,0.3,0.2,0.4,0.4,0.4c0.4,0,0.6-0.3,0.6-0.6v-0.1H37.6z"/>
		<path fill="#F4A300" d="M39.6,18.5H39v1.1c0,0.3,0.1,0.3,0.3,0.3c0.1,0,0.2,0,0.3-0.1l0,0.2c-0.1,0-0.2,0.1-0.4,0.1
			c-0.2,0-0.5-0.1-0.5-0.5v-1.2h-0.4v-0.2h0.4v-0.5H39v0.5h0.6V18.5z"/>
		<path fill="#F4A300" d="M40.1,19.3c0,0.4,0.3,0.7,0.7,0.7c0.3,0,0.5-0.2,0.6-0.3l0.2,0.2c-0.2,0.3-0.5,0.4-0.8,0.4
			c-0.6,0-1-0.4-1-1s0.4-1,1-1c0.6,0,0.9,0.4,0.9,1v0.1H40.1z M41.4,19.1c0-0.4-0.2-0.6-0.6-0.6c-0.4,0-0.7,0.3-0.7,0.6H41.4z"/>
	</g>
	<g>
		<path fill="#FFFFFF" d="M10,38.5H8.3v2.8h2.6v0.6H6.5v-0.6h1v-2.8h-1v-0.6h1V37c0-1.3,0.5-2.4,2.2-2.4c0.6,0,1.2,0.2,1.6,0.6
			l-0.5,0.5c-0.3-0.3-0.7-0.5-1.1-0.5c-1.3,0-1.4,1.2-1.4,1.9v0.8H10V38.5z"/>
		<path fill="#FFFFFF" d="M16,35.4h-2.9l0,2.2c0.3-0.1,0.6-0.2,1-0.2c1.4,0,2.3,1,2.3,2.3c0,1.4-1,2.3-2.4,2.3
			c-0.9,0-1.7-0.4-2.1-1.3l0.7-0.3c0.3,0.6,0.8,0.9,1.4,0.9c0.9,0,1.6-0.7,1.6-1.6c0-1-0.7-1.7-1.8-1.7c-0.5,0-1,0.2-1.5,0.4
			l0.1-3.7H16V35.4z"/>
		<path fill="#FFFFFF" d="M22.2,38.3c0,1.6-0.4,3.7-2.4,3.7s-2.4-2.1-2.4-3.7c0-1.6,0.4-3.7,2.4-3.7S22.2,36.7,22.2,38.3z
			 M18.1,38.3c0,1.1,0.1,3.1,1.7,3.1c1.6,0,1.7-1.9,1.7-3.1c0-1.1-0.1-3.1-1.7-3.1C18.2,35.3,18.1,37.2,18.1,38.3z"/>
	</g>
</g>
</svg>
