<?xml version="1.0" encoding="utf-8"?>
<!-- Generator: Adobe Illustrator 18.0.0, SVG Export Plug-In . SVG Version: 6.00 Build 0)  -->
<!DOCTYPE svg PUBLIC "-//W3C//DTD SVG 1.1//EN" "http://www.w3.org/Graphics/SVG/1.1/DTD/svg11.dtd">
<svg version="1.1" id="App" xmlns="http://www.w3.org/2000/svg" xmlns:xlink="http://www.w3.org/1999/xlink" x="0px" y="0px"
	 viewBox="0 0 111.3 111.3" enable-background="new 0 0 111.3 111.3" xml:space="preserve">
<circle fill="#00AAED" cx="55.7" cy="56.1" r="54.5"/>
<g>
	<defs>
		<circle id="SVGID_1_" cx="55.7" cy="56.1" r="54.5"/>
	</defs>
	<clipPath id="SVGID_2_">
		<use xlink:href="#SVGID_1_"  overflow="visible"/>
	</clipPath>
	<polygon clip-path="url(#SVGID_2_)" fill="#0092D3" points="76.7,22.4 75.8,23.9 75.8,23.2 74.9,22.3 36.2,22.3 34.6,23.9 
		34.6,89.8 35.2,90.5 34.5,91.7 75.5,132.7 131.2,76.9 	"/>
</g>
<g>
	<path fill="#FFFFFF" d="M71.3,73.8c0,0.8-0.6,1.4-1.4,1.4H41.3c-0.8,0-1.4-0.6-1.4-1.4V29.2c0-0.8,0.6-1.4,1.4-1.4h28.6
		c0.8,0,1.4,0.6,1.4,1.4V73.8z"/>
	<path fill="none" stroke="#FFFFFF" stroke-width="2.2098" stroke-linecap="round" stroke-miterlimit="10" d="M73.8,22.3H37.1
		c-1.9,0-2.6,1.3-2.6,3.2v13.8v0.4v48.5c0,1.9,0.8,3.5,2.6,3.5h36.7c1.9,0,2.8-1.6,2.8-3.5V25.5C76.6,23.7,75.7,22.3,73.8,22.3z"/>
	<circle fill="#FFFFFF" cx="55.6" cy="82.6" r="3.9"/>
</g>
</svg>
