<?xml version="1.0" encoding="utf-8"?>
<!-- Generator: Adobe Illustrator 18.0.0, SVG Export Plug-In . SVG Version: 6.00 Build 0)  -->
<!DOCTYPE svg PUBLIC "-//W3C//DTD SVG 1.1//EN" "http://www.w3.org/Graphics/SVG/1.1/DTD/svg11.dtd">
<svg version="1.1" id="Layer_1" xmlns="http://www.w3.org/2000/svg" xmlns:xlink="http://www.w3.org/1999/xlink" x="0px" y="0px"
	 viewBox="0 0 595.3 841.9" enable-background="new 0 0 595.3 841.9" xml:space="preserve">
<g>
	<g>
		<path id="SVGID_1_" fill="#F8F8F9" d="M254.9,299.1c0,0-67.8,22.6-103.6,54c-23.1,19.2-39.3,45.2-45.7,74.2
			c25.5-13.8,52.1-22.6,52.1-22.6l243.6-79.6c0,0,9.3,185.2-99.7,266.7c31.9-6.4,68.3-19.6,110-43.7
			c161.1-91.4,147.8-348.7,147.8-348.7L254.9,299.1z"/>
	</g>
	<g>
		<defs>
			<path id="SVGID_2_" d="M391,278.4c0,0-49.1-51.9-92.8-71.1c-27.1-12.8-57.6-16.5-86.5-10.1c23.3,17.3,42.5,37.6,42.5,37.6
				l175.1,187.2c0,0-163.9,86.7-283.8,22.3c19.3,26.2,46.7,53.6,86.1,81.2C382.4,633.1,610,512.3,610,512.3L391,278.4z"/>
		</defs>
		<clipPath id="SVGID_4_">
			<use xlink:href="#SVGID_2_"  overflow="visible"/>
		</clipPath>
	</g>
</g>
<g>
	<g>
		<path id="SVGID_3_" fill="#F8F8F9" d="M74.7,448c-24.6,20.1-39.3,50.1-39.3,83c0,61.4,54.5,111,121.8,111l0,0
			c32.9,1,74.2-8.8,125.7-38.3c6.4-3.9,12.8-7.9,18.7-12.3c-17.2,3.4-32.9,4.4-47.2,4.4c-84,0-152.3-62.4-152.3-139
			c0-10.3,1-20.1,3.4-29.5C94.3,433.2,83.5,440.1,74.7,448"/>
	</g>
	<g>
		<defs>
			<path id="SVGID_5_" d="M206.6,657.8c31.3-5.2,59.1-23.7,75.5-52.2c30.7-53.2,8.3-123.4-50-157l0,0c-28-17.3-68.6-29.4-128-29.7
				c-7.5,0.2-15,0.4-22.3,1.3c16.6,5.6,30.7,12.6,43,19.7c72.7,42,100.7,130.1,62.4,196.5c-5.2,8.9-10.9,16.9-17.7,23.8
				C182.2,660.7,195,660.2,206.6,657.8"/>
		</defs>
		<clipPath id="SVGID_6_">
			<use xlink:href="#SVGID_5_"  overflow="visible"/>
		</clipPath>
	</g>
</g>
</svg>
