<?xml version="1.0" encoding="utf-8"?>
<!-- Generator: Adobe Illustrator 17.1.0, SVG Export Plug-In . SVG Version: 6.00 Build 0)  -->
<!DOCTYPE svg PUBLIC "-//W3C//DTD SVG 1.1//EN" "http://www.w3.org/Graphics/SVG/1.1/DTD/svg11.dtd">
<svg version="1.1" id="Fix__x26__Fall" xmlns="http://www.w3.org/2000/svg" xmlns:xlink="http://www.w3.org/1999/xlink" x="0px"
	 y="0px" viewBox="0 0 841.9 595.3" enable-background="new 0 0 841.9 595.3" xml:space="preserve">
<g>
	<path fill="none" d="M551.7,153.2c-21.7,0-35.7-14.1-35.7-36V39.7l-0.1-0.1H261.2c-6.9,0-13.1,1.2-13.1,15.5v152.6
		c41.3,8.3,76.3,33.9,97.1,68.9h215.2c3.3,0,6,2.7,6,6c0,3.3-2.7,6-6,6H351.7c6.3,13.1,10.6,27.4,12.7,42.3h196c3.3,0,6,2.7,6,6
		c0,3.3-2.7,6-6,6H365.6c0.2,2.9,0.3,5.8,0.3,8.7c0,11.6-1.3,22.8-3.9,33.6h198.4c3.3,0,6,2.7,6,6s-2.7,6-6,6H358.6
		c-16.3,49.8-58.4,87.8-110.5,98.3v42.8c0,14.3,6.2,15.5,13.1,15.5h355.7c13.5,0,15.2-8.3,15.2-15.5v-385l-0.1-0.1H551.7z
		 M402.5,193.3c-11,6.3-20.7,9.8-29.1,11.5c28.8-21.6,26.3-70.6,26.3-70.6l-64.5,21.1c0,0-7,2.3-13.8,6c-0.6,2.6-1,5.2-1,7.9
		c0,20.3,17.5,36.8,40.1,36.8c5.7,0.1,8.2-0.2,12.7-1.1c-1.6,1.1-3.1,2.2-4.8,3.2c-13.6,7.7-24.9,10.3-33.4,10.1
		c-16.9,0-32.1-13.1-32.1-29.4c0-8.7,3.8-16.6,10.4-22c2.3-2.1,5.1-3.9,8.1-5.5c1.7-7.7,5.9-14.5,12.1-19.6
		c9.5-8.4,27.5-14.4,27.5-14.4l80.6-26.3C441.6,101,445.1,169.1,402.5,193.3z M560.4,451.5H479c-3.3,0-6-2.7-6-6c0-3.3,2.7-6,6-6
		h81.4c3.3,0,6,2.7,6,6C566.4,448.8,563.7,451.5,560.4,451.5z"/>
	<path fill="none" d="M551.7,141.2h68L528,51.4v65.8C528,132.4,536.6,141.2,551.7,141.2z"/>
	<path fill="#0B2F6B" d="M361,127.3c0,0-18,6-27.5,14.4c-6.2,5.1-10.4,11.9-12.1,19.6c6.8-3.7,13.8-6,13.8-6l64.5-21.1
		c0,0,2.5,49-26.3,70.6c8.4-1.7,18.1-5.2,29.1-11.5c42.6-24.2,39.1-92.3,39.1-92.3L361,127.3z"/>
	<path fill="#0B2F6B" d="M302.9,188.8c0,16.3,15.2,29.4,32.1,29.4c8.5,0.2,19.8-2.4,33.4-10.1c1.7-1,3.2-2.1,4.8-3.2
		c-4.5,0.9-7,1.2-12.7,1.1c-22.6,0-40.1-16.5-40.1-36.8c0-2.7,0.4-5.3,1-7.9c-3,1.6-5.8,3.4-8.1,5.5
		C306.7,172.2,302.9,180.1,302.9,188.8z"/>
	<path fill="#0B2F6B" d="M656.7,136.8L531.9,14.7c-2.7-2.6-6.3-4.1-10.1-4.1H261.2c-26,0-42.1,17.1-42.1,44.5v149.7
		c-81,0-146.7,65.8-146.7,146.8s65.7,146.7,146.7,146.7v40c0,27.5,16.1,44.5,42.1,44.5h355.7c26.4,0,44.2-17.9,44.2-44.5V147.2
		C661.1,143.3,659.5,139.5,656.7,136.8z M528,51.4l91.7,89.8h-68c-15.1,0-23.7-8.8-23.7-24V51.4z M183,425.8c-3.3,0-5.9-0.6-7.9-1.8
		c-2-1.2-3-3.5-3-6.8c0-1.9,1.3-4.3,3.8-7.1c2.6-2.8,5.4-5.9,8.5-9.4c3.1-3.4,5.8-7.3,7.9-11.8c2.1-4.4,3.2-9.5,3.2-15.1
		c0-5.4-0.5-9.8-1.5-13.3h-20.6c-2.7,0-4.9-0.7-6.4-2.1c-1.6-1.4-2.5-3.6-2.5-6.4c0-2.8,0.8-5,2.4-6.3c1.7-1.4,3.8-2.1,6.5-2.1h15.7
		c-3.1-5.8-5.6-11-7.3-15.5s-2.7-9.2-2.7-13.9c0-7.1,2-13.4,6.1-19c4-5.6,9.5-9.9,16.4-13c6.9-3.1,14.1-4.7,21.7-4.7
		c5.8,0,11.6,1.1,17.4,3.4c5.8,2.2,10.8,5.1,15.1,8.6c4.3,3.5,7.8,7.5,10.4,11.9c2.7,4.4,3.9,8.7,3.9,12.8c0,2.6-0.7,4.7-2.4,6.3
		c-1.6,1.7-3.7,2.5-6.2,2.5c-2.8,0-5.2-1.7-7.2-5c-1.9-3.3-3.9-6.7-5.8-10.4c-1.9-3.7-4.9-6.8-8.7-9.4c-3.9-2.6-9.4-3.9-16.5-3.9
		c-7.1,0-13.2,1.8-18.5,5.6c-5.2,3.8-7.9,8.8-7.9,15.3c0,3.3,0.6,6.5,1.7,9.5s2.5,6.1,4.2,9.5c1.9,3.4,3.6,6.4,5.2,9.4h26.4
		c2.8,0,5,0.7,6.5,2.1c1.6,1.4,2.3,3.5,2.3,6.3c0,5.8-2.9,8.6-8.8,8.6h-22.3c0.9,5.4,1.4,10,1.4,13.5c0,3.4-0.7,7.2-2.1,11.3
		c-1.4,4.1-3.5,8.3-6.1,12.5c-2.7,4.2-5.9,7.9-9.4,11h69c2.7,0,4.8,0.7,6.4,2.1c1.7,1.5,2.4,3.6,2.4,6.4c0,2.8-0.7,4.9-2.4,6.2
		c-1.6,1.5-3.7,2.1-6.4,2.1H183z M632.1,538.3c0,7.2-1.7,15.5-15.2,15.5H261.2c-6.9,0-13.1-1.2-13.1-15.5v-42.8
		c52.1-10.5,94.2-48.5,110.5-98.3h201.8c3.3,0,6-2.7,6-6s-2.7-6-6-6H362c2.5-10.8,3.9-22,3.9-33.6c0-2.9-0.1-5.8-0.3-8.7h194.8
		c3.3,0,6-2.7,6-6c0-3.3-2.7-6-6-6h-196c-2.1-14.9-6.5-29.2-12.7-42.3h208.8c3.3,0,6-2.7,6-6c0-3.3-2.7-6-6-6H345.3
		c-20.9-35-55.9-60.6-97.1-68.9V55.1c0-14.3,6.2-15.5,13.1-15.5h254.7l0.1,0.1v77.5c0,21.9,14,36,35.7,36H632l0.1,0.1V538.3z"/>
	<path fill="#0B2F6B" d="M560.4,439.5H479c-3.3,0-6,2.7-6,6c0,3.3,2.7,6,6,6h81.4c3.3,0,6-2.7,6-6
		C566.4,442.2,563.7,439.5,560.4,439.5z"/>
</g>
</svg>
