<?xml version="1.0" encoding="utf-8"?>
<!-- Generator: Adobe Illustrator 17.1.0, SVG Export Plug-In . SVG Version: 6.00 Build 0)  -->
<!DOCTYPE svg PUBLIC "-//W3C//DTD SVG 1.1//EN" "http://www.w3.org/Graphics/SVG/1.1/DTD/svg11.dtd">
<svg version="1.1" id="Fix__x26__Fall" xmlns="http://www.w3.org/2000/svg" xmlns:xlink="http://www.w3.org/1999/xlink" x="0px"
	 y="0px" viewBox="0 0 841.9 595.3" enable-background="new 0 0 841.9 595.3" xml:space="preserve">
<g>
	<g>
		<g>
			<path id="SVGID_1_" fill="#0B2F6B" d="M341.1,127.3c0,0-18,6-27.5,14.4c-6.2,5.1-10.4,11.9-12.1,19.6c6.8-3.7,13.8-6,13.8-6
				l64.5-21.1c0,0,2.5,49-26.3,70.6c8.4-1.7,18.1-5.2,29.1-11.5c42.6-24.2,39.1-92.3,39.1-92.3L341.1,127.3z"/>
		</g>
	</g>
	<g>
		<g>
			<path id="SVGID_3_" fill="#0B2F6B" d="M293.4,166.8c-6.6,5.4-10.4,13.3-10.4,22c0,16.3,15.2,29.4,32.1,29.4l0,0
				c8.5,0.2,19.8-2.4,33.4-10.1c1.7-1,3.2-2.1,4.8-3.2c-4.5,0.9-7,1.2-12.7,1.1l0,0c-22.6,0-40.1-16.5-40.1-36.8
				c0-2.7,0.4-5.3,1-7.9C298.5,162.9,295.7,164.7,293.4,166.8"/>
		</g>
	</g>
</g>
<g>
	<path fill="#0B2F6B" d="M597,582.8H241.3c-26,0-42.1-17-42.1-44.5V55.1c0-27.4,16.1-44.5,42.1-44.5h260.6c3.8,0,7.4,1.5,10.1,4.1
		l124.8,122.1c2.8,2.7,4.4,6.5,4.4,10.4v391.1C641.2,564.9,623.4,582.8,597,582.8z M241.3,39.6c-6.9,0-13.1,1.2-13.1,15.5v483.2
		c0,14.3,6.2,15.5,13.1,15.5H597c13.5,0,15.2-8.3,15.2-15.5v-385L496,39.6H241.3z"/>
</g>
<g>
	<path fill="#0B2F6B" d="M639.5,153.2H531.8c-21.7,0-35.7-14.1-35.7-36V11.7L639.5,153.2z M508.1,39.5v77.7c0,15.2,8.6,24,23.7,24
		h80.1L508.1,39.5z"/>
</g>
<g>
	<path fill="#0B2F6B" d="M540.5,288.6H285.2c-3.3,0-6-2.7-6-6s2.7-6,6-6h255.3c3.3,0,6,2.7,6,6S543.8,288.6,540.5,288.6z"/>
</g>
<g>
	<path fill="#0B2F6B" d="M540.5,342.9H285.2c-3.3,0-6-2.7-6-6s2.7-6,6-6h255.3c3.3,0,6,2.7,6,6S543.8,342.9,540.5,342.9z"/>
</g>
<g>
	<path fill="#0B2F6B" d="M540.5,397.2H285.2c-3.3,0-6-2.7-6-6s2.7-6,6-6h255.3c3.3,0,6,2.7,6,6S543.8,397.2,540.5,397.2z"/>
</g>
<g>
	<path fill="#0B2F6B" d="M540.5,451.5h-81.4c-3.3,0-6-2.7-6-6s2.7-6,6-6h81.4c3.3,0,6,2.7,6,6S543.8,451.5,540.5,451.5z"/>
</g>
</svg>
