<?xml version="1.0" encoding="utf-8"?>
<!-- Generator: Adobe Illustrator 17.1.0, SVG Export Plug-In . SVG Version: 6.00 Build 0)  -->
<!DOCTYPE svg PUBLIC "-//W3C//DTD SVG 1.1//EN" "http://www.w3.org/Graphics/SVG/1.1/DTD/svg11.dtd">
<svg version="1.1" id="BG" xmlns="http://www.w3.org/2000/svg" xmlns:xlink="http://www.w3.org/1999/xlink" x="0px" y="0px"
	 viewBox="0 0 841.9 595.3" enable-background="new 0 0 841.9 595.3" xml:space="preserve">
<circle fill="#00AAED" cx="421.2" cy="300" r="291.5"/>
<g>
	<g>
		<defs>
			<circle id="SVGID_1_" cx="421.2" cy="300" r="291.5"/>
		</defs>
		<clipPath id="SVGID_2_">
			<use xlink:href="#SVGID_1_"  overflow="visible"/>
		</clipPath>
		<polygon clip-path="url(#SVGID_2_)" fill="#0092D3" points="594,158.8 565.1,182.9 322.8,280.8 280,323.6 280,403.8 289.1,412.9 
			270.9,428.4 526,683.5 822.3,387.2 		"/>
	</g>
</g>
<g>
	<g>
		<g>
			<path id="SVGID_3_" fill="#FFFFFF" d="M392.9,224.6c0,0-44.9,15-68.5,35.8c-15.5,12.8-25.7,30-30,48.7c17.1-9.1,34.2-15,34.2-15
				l161-52.4c0,0,6.4,121.9-65.8,176c20.9-4.3,44.9-12.8,72.7-28.9c105.9-60.4,97.3-230,97.3-230L392.9,224.6z"/>
		</g>
		<g>
			<defs>
				<path id="SVGID_4_" d="M482.8,211c0,0-32.6-34.4-61.4-46.9c-18.2-8.6-38-10.6-56.8-6.6c15.5,11.7,28,24.7,28,24.7l115.5,123.8
					c0,0-107.8,57.4-187.3,14.7c12.7,17.1,30.6,35.3,56.9,53.7c99.5,70.4,249.6-9,249.6-9L482.8,211z"/>
			</defs>
			<clipPath id="SVGID_6_">
				<use xlink:href="#SVGID_4_"  overflow="visible"/>
			</clipPath>
		</g>
	</g>
	<g>
		<g>
			<path id="SVGID_5_" fill="#FFFFFF" d="M274.1,323c-16.6,13.4-26.2,33.2-26.2,54.6c0,40.6,38,73.3,80.2,73.3l0,0
				c21.4,0.5,49.2-5.9,83.4-25.1c4.3-2.7,8-5.3,11.8-8c-11.2,2.1-17.6,3.2-31.6,2.7l0,0c-56.2,0-100-41.2-100-91.5
				c0-7,1.1-13.4,2.7-19.8C287,313.4,280,317.7,274.1,323"/>
		</g>
		<g>
			<defs>
				<path id="SVGID_7_" d="M361.1,461.3c21-3.3,39.3-15.6,50-34.1c20.3-35.2,3.8-82.4-32.8-103.6l0,0
					c-18.3-11.2-45.6-19.5-84.8-19.9c-5,0.2-9.6,0.6-14.2,1.1c10.8,3.8,16.9,6,28.7,13.5l0,0c48.6,28.1,66,85.7,40.9,129.2
					c-3.5,6-7.6,11-12.2,15.8C345.1,463.2,353.3,463,361.1,461.3"/>
			</defs>
			<clipPath id="SVGID_8_">
				<use xlink:href="#SVGID_7_"  overflow="visible"/>
			</clipPath>
		</g>
	</g>
</g>
</svg>
