<?xml version="1.0" encoding="utf-8"?>
<!-- Generator: Adobe Illustrator 18.0.0, SVG Export Plug-In . SVG Version: 6.00 Build 0)  -->
<!DOCTYPE svg PUBLIC "-//W3C//DTD SVG 1.1//EN" "http://www.w3.org/Graphics/SVG/1.1/DTD/svg11.dtd">
<svg version="1.1" id="Layer_1" xmlns="http://www.w3.org/2000/svg" xmlns:xlink="http://www.w3.org/1999/xlink" x="0px" y="0px"
	 viewBox="0 0 101.7 35.5" enable-background="new 0 0 101.7 35.5" xml:space="preserve">
<path fill="#EEEDED" d="M17.9,0.8c-9.4,0-17,7.6-17,17s7.6,17,17,17h65.9c9.4,0,17-7.6,17-17s-7.6-17-17-17H17.9z"/>
<circle fill="#549F00" cx="17.9" cy="17.8" r="17"/>
<g>
	<path fill="#FFFFFF" d="M25.8,18.9c0,0.6-0.5,1.1-1.1,1.1H20v4.7c0,0.6-0.5,1.1-1.1,1.1h-2.2c-0.6,0-1.1-0.5-1.1-1.1V20h-4.7
		c-0.6,0-1.1-0.5-1.1-1.1v-2.2c0-0.6,0.5-1.1,1.1-1.1h4.7V11c0-0.6,0.5-1.1,1.1-1.1h2.2c0.6,0,1.1,0.5,1.1,1.1v4.7h4.7
		c0.6,0,1.1,0.5,1.1,1.1V18.9z"/>
</g>
<g>
	<path fill="#444445" d="M51.1,21.4l3.8-9.2h1.8v11.3h-1.2v-9.8h0l-4.1,9.8h-0.6l-4.1-9.8h0v9.8h-1.2V12.2h1.8L51.1,21.4z"/>
	<path fill="#444445" d="M62.9,23.7c-2.3,0-4-1.7-4-3.9s1.6-3.9,4-3.9c2.3,0,4,1.7,4,3.9S65.2,23.7,62.9,23.7z M62.9,16.8
		c-1.7,0-2.8,1.3-2.8,3s1.1,3,2.8,3c1.7,0,2.8-1.3,2.8-3S64.7,16.8,62.9,16.8z"/>
	<path fill="#444445" d="M68.9,18.3c0-0.7,0-1.2-0.1-2.3h1v1.4h0c0.3-0.8,1.1-1.6,2.4-1.6c0.3,0,0.6,0,0.8,0.1l-0.2,1
		c-0.1,0-0.3-0.1-0.6-0.1c-1.6,0-2.3,1.4-2.3,2.4v4.2h-1.1V18.3z"/>
	<path fill="#444445" d="M74.6,20c0.1,1.5,1.3,2.7,2.8,2.7c1.1,0,2-0.6,2.4-1.3l0.8,0.7c-0.9,1.1-2,1.6-3.2,1.6
		c-2.2,0-3.9-1.7-3.9-3.9s1.6-3.9,3.8-3.9c2.3,0,3.6,1.7,3.6,3.7V20H74.6z M79.7,19.2c0-1.4-0.9-2.4-2.4-2.4c-1.4,0-2.6,1.2-2.6,2.4
		H79.7z"/>
</g>
</svg>
