<?xml version="1.0" encoding="utf-8"?>
<!-- Generator: Adobe Illustrator 17.1.0, SVG Export Plug-In . SVG Version: 6.00 Build 0)  -->
<!DOCTYPE svg PUBLIC "-//W3C//DTD SVG 1.1//EN" "http://www.w3.org/Graphics/SVG/1.1/DTD/svg11.dtd">
<svg version="1.1" id="Layer_1" xmlns="http://www.w3.org/2000/svg" xmlns:xlink="http://www.w3.org/1999/xlink" x="0px" y="0px"
	 viewBox="0 0 1190.6 841.9" enable-background="new 0 0 1190.6 841.9" xml:space="preserve">
<g>
	<g>
		<path fill="none" stroke="#454545" stroke-width="3.1265" d="M586,416.9h-98.8v7.6c0,1.3-0.7,2.3-2,2.8c-1.4,0.5-2.6,0.4-3.7-0.5
			l-41-33.6c-0.7-0.6-1.1-1.4-1.1-2.2c0-0.9,0.4-1.7,1.1-2.3l41-34c1.1-0.9,2.4-1.1,3.7-0.6c1.4,0.6,2,1.5,2,2.8l0,7.6h84.7"/>
	</g>
	<g>
		<path fill="none" stroke="#454545" stroke-width="3.1265" d="M768.5,364.5h84.9v-7.6c0-1.3,0.7-2.3,2-2.8c1.4-0.5,2.6-0.4,3.7,0.5
			l41,33.6c0.7,0.6,1.1,1.4,1.1,2.2c0,0.9-0.4,1.7-1.1,2.3l-41,34c-1.1,0.9-2.4,1.1-3.7,0.6c-1.4-0.6-2-1.5-2-2.8v-7.6l0,0h-99"/>
	</g>
</g>
<g>
	<g>
		<path fill="none" stroke="#454545" stroke-width="3.1265" d="M645.1,319.6v-61.3h-7.6c-1.3,0-2.3-0.7-2.8-2
			c-0.5-1.4-0.4-2.6,0.5-3.7l33.6-41c0.6-0.7,1.4-1.1,2.2-1.1c0.9,0,1.7,0.4,2.3,1.1l34,41c0.9,1.1,1.1,2.4,0.6,3.7
			c-0.6,1.4-1.5,2-2.8,2l-7.6,0v61.7"/>
	</g>
</g>
<g>
	<g>
		<path fill="none" stroke="#454545" stroke-width="3.1265" d="M586,503.8h-98.7v7.6c0,1.3-0.7,2.3-2,2.8c-1.4,0.5-2.6,0.4-3.7-0.5
			l-41-33.6c-0.7-0.6-1.1-1.4-1.1-2.2c0-0.9,0.4-1.7,1.1-2.3l41-34c1.1-0.9,2.4-1.1,3.7-0.6c1.4,0.6,2,1.5,2,2.8l0,7.6H586"/>
	</g>
	<g>
		<path fill="none" stroke="#454545" stroke-width="3.1265" d="M754.4,451.4h99v-7.6c0-1.3,0.7-2.3,2-2.8c1.4-0.5,2.6-0.4,3.7,0.5
			l41,33.6c0.7,0.6,1.1,1.4,1.1,2.2c0,0.9-0.4,1.7-1.1,2.3l-41,34c-1.1,0.9-2.4,1.1-3.7,0.6c-1.4-0.6-2-1.5-2-2.8v-7.6l0,0h-99"/>
	</g>
</g>
<g>
	<polygon fill="none" stroke="#575756" stroke-width="3.1265" points="626.6,305.2 618.3,305.2 618.3,293 608.5,293 608.5,305.2 
		600.1,305.2 600.1,312 626.6,312 	"/>
	<polyline fill="none" stroke="#454545" stroke-width="3.1265" points="586,370 586,376.5 586,452.5 586,504.1 670.2,504.1 
		754.4,504.1 754.4,452.5 754.4,376.4 754.4,370 754.4,369.6 763.4,375.2 768.5,375.2 768.5,369.3 768.5,364.2 768.5,364.2 
		768.5,358.3 670.2,297 623.2,326.4 623.2,312.2 603.6,312.2 603.6,338.6 571.9,358.3 571.9,364.2 571.9,369.3 571.9,375.2 
		576.5,375.2 	"/>
</g>
<g>
	<g>
		<polygon fill="none" stroke="#454545" stroke-width="3.1265" points="623.2,333.6 603.6,346 603.6,312.2 623.2,312.2 		"/>
		<rect x="600.1" y="305.2" fill="none" stroke="#454545" stroke-width="3.1265" width="26.5" height="6.8"/>
	</g>
	<g>
		<polygon fill="none" stroke="#454545" stroke-width="3.1265" points="623.2,335.6 603.6,348 603.6,312.2 623.2,312.2 		"/>
		<rect x="608.5" y="293" fill="none" stroke="#454545" stroke-width="3.1265" width="9.8" height="12.3"/>
		<rect x="600.1" y="305.2" fill="none" stroke="#454545" stroke-width="3.1265" width="26.5" height="6.8"/>
	</g>
</g>
<path fill="#454545" d="M693,433v70.3h-45.6V433l22.8-14.2L693,433z M653.1,503.4h34.2v-62.7h-34.2V503.4z"/>
<rect x="656.9" y="468.7" fill="none" stroke="#454545" stroke-width="2" width="11.4" height="30.9"/>
<rect x="671.8" y="468.7" fill="none" stroke="#454545" stroke-width="2" width="11.4" height="30.9"/>
<rect x="656.9" y="444.5" fill="none" stroke="#454545" stroke-width="2" width="11.4" height="20.8"/>
<rect x="671.8" y="444.5" fill="none" stroke="#454545" stroke-width="2" width="11.4" height="20.8"/>
<g>
	<g>
		<polygon fill="#454545" stroke="#454545" points="768.5,369.3 670.2,307.2 571.9,369.3 571.9,358.3 670.2,297 768.5,358.3 		"/>
	</g>
	<polygon fill="none" stroke="#454545" stroke-width="4" points="577.8,375.2 670.2,317.1 763.4,375.2 768.5,375.2 768.5,364.2 
		768.5,364.2 670.2,301.9 571.9,363.2 571.9,375.2 576.7,375.2 	"/>
</g>
<text transform="matrix(1 0 0 1 654.9241 273.2369)"><tspan x="0" y="0" fill="#575756" font-family="'AvenirLTStd-Heavy'" font-size="22" letter-spacing="-1">2</tspan><tspan x="11.4" y="0" fill="#575756" font-family="'AvenirLTStd-Heavy'" font-size="22">5</tspan><tspan x="23.8" y="-2.2" fill="#575756" font-family="'AvenirLTStd-Heavy'" font-size="13">%</tspan></text>
<text transform="matrix(1 0 0 1 652.009 251.6435)" fill="#575756" font-family="'AvenirLTStd-Book'" font-size="16">Roofs</text>
<text transform="matrix(1 0 0 1 770.181 396.5688)"><tspan x="0" y="0" fill="#575756" font-family="'AvenirLTStd-Book'" font-size="16">Windows -</tspan><tspan x="75.2" y="0" fill="#575756" font-family="'AvenirLTStd-Heavy'" font-size="22" letter-spacing="-2">1</tspan><tspan x="86.1" y="0" fill="#575756" font-family="'AvenirLTStd-Heavy'" font-size="22">0</tspan><tspan x="99.1" y="-2.2" fill="#575756" font-family="'AvenirLTStd-Heavy'" font-size="13">%</tspan></text>
<text transform="matrix(1 0 0 1 772.8436 483.1866)"><tspan x="0" y="0" fill="#575756" font-family="'AvenirLTStd-Book'" font-size="16">Draughts -</tspan><tspan x="74.9" y="0" fill="#575756" font-family="'AvenirLTStd-Heavy'" font-size="22" letter-spacing="-3">1</tspan><tspan x="84.7" y="0" fill="#575756" font-family="'AvenirLTStd-Heavy'" font-size="22">5</tspan><tspan x="97.1" y="-2.2" fill="#575756" font-family="'AvenirLTStd-Heavy'" font-size="13">%</tspan></text>
<text transform="matrix(1 0 0 1 464.1027 396.2302)"><tspan x="0" y="0" fill="#575756" font-family="'AvenirLTStd-Book'" font-size="16">Walls - </tspan><tspan x="52.1" y="0" fill="#575756" font-family="'AvenirLTStd-Heavy'" font-size="22" letter-spacing="-1">3</tspan><tspan x="63.5" y="0" fill="#575756" font-family="'AvenirLTStd-Heavy'" font-size="22">5</tspan><tspan x="76" y="-2.2" fill="#575756" font-family="'AvenirLTStd-Heavy'" font-size="13">%</tspan></text>
<text transform="matrix(1 0 0 1 464.1032 481.3149)"><tspan x="0" y="0" fill="#575756" font-family="'AvenirLTStd-Book'" font-size="16">Floors - </tspan><tspan x="58.1" y="0" fill="#575756" font-family="'AvenirLTStd-Heavy'" font-size="17.2028" letter-spacing="-2">1</tspan><tspan x="66.2" y="0" fill="#575756" font-family="'AvenirLTStd-Heavy'" font-size="17.2028">5</tspan><tspan x="75.9" y="-2.2" fill="#575756" font-family="'AvenirLTStd-Heavy'" font-size="13">%</tspan></text>
<g>
	<path fill="#454545" d="M723.7,448.1h12.5v-12.5h-12.5V448.1z M708.1,448.1h12.5v-12.5h-12.5V448.1z M723.7,463h12.5v-12.5h-12.5
		V463z M708.1,463h12.5v-12.5h-12.5V463z M741,467.1h-37.8v-35.9H741V467.1z"/>
	<rect x="701.5" y="465.3" fill="#454545" width="41.3" height="5"/>
</g>
<g>
	<path fill="#454545" d="M621.6,448.1h12.5v-12.5h-12.5V448.1z M605.9,448.1h12.5v-12.5h-12.5V448.1z M621.6,463h12.5v-12.5h-12.5
		V463z M605.9,463h12.5v-12.5h-12.5V463z M638.9,467.1h-37.8v-35.9h37.8V467.1z"/>
	<rect x="599.3" y="465.3" fill="#454545" width="41.3" height="5"/>
</g>
<g>
	<path fill="#454545" d="M723.7,390.3h12.5v-12.5h-12.5V390.3z M708.1,390.3h12.5v-12.5h-12.5V390.3z M723.7,405.2h12.5v-12.5h-12.5
		V405.2z M708.1,405.2h12.5v-12.5h-12.5V405.2z M741,409.3h-37.8v-35.9H741V409.3z"/>
	<rect x="701.5" y="407.4" fill="#454545" width="41.3" height="5"/>
</g>
<g>
	<path fill="#454545" d="M621.6,390.2h12.5v-12.5h-12.5V390.2z M605.9,390.2h12.5v-12.5h-12.5V390.2z M621.6,405.1h12.5v-12.5h-12.5
		V405.1z M605.9,405.1h12.5v-12.5h-12.5V405.1z M638.9,409.2h-37.8v-35.9h37.8V409.2z"/>
	<rect x="599.3" y="407.3" fill="#454545" width="41.3" height="5"/>
</g>
<polygon fill="#FFFFFF" stroke="#454545" stroke-width="3" points="670.2,425.2 652.4,436.3 688,436.3 "/>
<line fill="#FFFFFF" stroke="#454545" stroke-width="3" x1="670.2" y1="425.2" x2="670.2" y2="436.3"/>
</svg>
