<?xml version="1.0" encoding="utf-8"?>
<!-- Generator: Adobe Illustrator 18.0.0, SVG Export Plug-In . SVG Version: 6.00 Build 0)  -->
<!DOCTYPE svg PUBLIC "-//W3C//DTD SVG 1.1//EN" "http://www.w3.org/Graphics/SVG/1.1/DTD/svg11.dtd">
<svg version="1.1" id="G_x26_E" xmlns="http://www.w3.org/2000/svg" xmlns:xlink="http://www.w3.org/1999/xlink" x="0px" y="0px"
	 viewBox="0 0 111.3 111.3" enable-background="new 0 0 111.3 111.3" xml:space="preserve">
<circle fill="#00AAED" cx="55.8" cy="56.1" r="54.3"/>
<g>
	<defs>
		<circle id="SVGID_1_" cx="55.8" cy="56.1" r="54.3"/>
	</defs>
	<clipPath id="SVGID_2_">
		<use xlink:href="#SVGID_1_"  overflow="visible"/>
	</clipPath>
	<path clip-path="url(#SVGID_2_)" fill="#0092D3" d="M131.9,73.7l-39-39l-3,2.2l-6.7-6.7L68,38.1l4.7,4.7L66,46.3l4.5,4.5L66,54.2
		l6.6,6.6l-3.2,1.7l-15-15l-0.7,0.7L44.5,39l-0.7,1c-6.2-7-13.1-8.6-13.1-8.6c2.6,14.7-4.3,19-4.3,19l-0.9-3.4c0,0-3.8,2.9-7.8,13
		c-3.1,8,0.1,14.5,1.6,16.9l-0.5,0.8l54.4,54.4l29.1-29.1l0.1,0.1l6.2-6.2l0,0L131.9,73.7z"/>
</g>
<g>
	
		<path fill="none" stroke="#FFFFFF" stroke-width="2.333" stroke-linecap="round" stroke-linejoin="round" stroke-miterlimit="10" d="
		M21.8,78.6c-13.4-10.6,4-32.5,4-32.5l0.8,4.9c8.3-8.8,3.6-20.3,3.6-20.3c20.3,9.1,20.7,25,20.7,25c2.8-3.8,2.7-7.2,2.7-7.2
		c10,16.5,4.4,25.6-1.9,30.2"/>
	<path fill="#FFFFFF" d="M69.9,38.8c-1.1,0-2.1-0.7-2.4-1.7c-0.5-1.3,0.2-2.8,1.6-3.3l11.5-4.1c1.3-0.5,2.8,0.2,3.3,1.6
		c0.5,1.3-0.2,2.8-1.6,3.3l-11.5,4.1C70.5,38.8,70.2,38.8,69.9,38.8z"/>
	<path fill="#FFFFFF" d="M67.9,47.3c-1.1,0-2.1-0.7-2.4-1.7c-0.5-1.3,0.2-2.8,1.6-3.3L90,34c1.3-0.5,2.8,0.2,3.3,1.6
		c0.5,1.3-0.2,2.8-1.6,3.3l-23,8.3C68.5,47.2,68.2,47.3,67.9,47.3z"/>
	<path fill="#FFFFFF" d="M74.8,58.6c-1.2,0-2.2-0.8-2.5-2c-0.1-0.5-2.3-1.4-4.6-1.6c-1.2-0.1-2.2-1-2.4-2.2
		c-0.2-1.2,0.5-2.4,1.7-2.8l23-8.3c1.3-0.5,2.8,0.2,3.3,1.6c0.5,1.3-0.2,2.8-1.6,3.3l-16.3,5.9c0.8,0.7,1.5,1.7,1.8,2.9
		c0.3,1.4-0.5,2.8-1.9,3.1C75.2,58.6,75,58.6,74.8,58.6z"/>
	<path fill="#FFFFFF" d="M84,58.6c-0.2,0-0.4,0-0.6-0.1c-1.4-0.3-2.2-1.8-1.9-3.1c1.2-4.7,7.9-5.4,9.2-5.5c1.4-0.1,2.7,1,2.8,2.4
		c0.1,1.4-1,2.7-2.4,2.8c-2.3,0.2-4.5,1.1-4.6,1.6C86.2,57.8,85.1,58.6,84,58.6z"/>
	
		<path fill="none" stroke="#FFFFFF" stroke-width="2.2393" stroke-linecap="round" stroke-linejoin="round" stroke-miterlimit="10" d="
		M90,61.6h-5.2h-4.6h-0.6H75h-5.2c-0.9,0-1.7,0.6-1.7,1.6v5.6c0,0.5,0.4,0.9,0.7,1.2l4.9,4.7v4.5c0,0.9,0.4,1.5,1.3,1.5h9.8
		c0.9,0,1.2-0.5,1.2-1.5v-4.5l4.9-4.7c0.3-0.3,0.7-0.7,0.7-1.2v-5.6C91.6,62.2,90.9,61.6,90,61.6z"/>
	<path fill="#FFFFFF" d="M42.8,80.7c12.2-10.2-3.2-30.7-3.2-30.7s-1.5,16.4-5.9,7.1c-13.1,17.5-1.3,23.6-1.3,23.6
		S37.8,84.8,42.8,80.7z"/>
</g>
<circle fill="#00AAED" cx="55.8" cy="56.1" r="54.3"/>
<g>
	<defs>
		<circle id="SVGID_3_" cx="55.8" cy="56.1" r="54.3"/>
	</defs>
	<clipPath id="SVGID_4_">
		<use xlink:href="#SVGID_3_"  overflow="visible"/>
	</clipPath>
	<path clip-path="url(#SVGID_4_)" fill="#0092D3" d="M131.9,73.7l-39-39l-3,2.2l-6.7-6.7L68,38.1l4.7,4.7L66,46.3l4.5,4.5L66,54.2
		l6.6,6.6l-3.2,1.7l-15-15l-0.7,0.7L44.5,39l-0.7,1c-6.2-7-13.1-8.6-13.1-8.6c2.6,14.7-4.3,19-4.3,19l-0.9-3.4c0,0-3.8,2.9-7.8,13
		c-3.1,8,0.1,14.5,1.6,16.9l-0.5,0.8l54.4,54.4l29.1-29.1l0.1,0.1l6.2-6.2l0,0L131.9,73.7z"/>
</g>
<g>
	
		<path fill="none" stroke="#FFFFFF" stroke-width="2.333" stroke-linecap="round" stroke-linejoin="round" stroke-miterlimit="10" d="
		M21.8,78.6c-13.4-10.6,4-32.5,4-32.5l0.8,4.9c8.3-8.8,3.6-20.3,3.6-20.3c20.3,9.1,20.7,25,20.7,25c2.8-3.8,2.7-7.2,2.7-7.2
		c10,16.5,4.4,25.6-1.9,30.2"/>
	<path fill="#FFFFFF" d="M69.9,38.8c-1.1,0-2.1-0.7-2.4-1.7c-0.5-1.3,0.2-2.8,1.6-3.3l11.5-4.1c1.3-0.5,2.8,0.2,3.3,1.6
		c0.5,1.3-0.2,2.8-1.6,3.3l-11.5,4.1C70.5,38.8,70.2,38.8,69.9,38.8z"/>
	<path fill="#FFFFFF" d="M67.9,47.3c-1.1,0-2.1-0.7-2.4-1.7c-0.5-1.3,0.2-2.8,1.6-3.3L90,34c1.3-0.5,2.8,0.2,3.3,1.6
		c0.5,1.3-0.2,2.8-1.6,3.3l-23,8.3C68.5,47.2,68.2,47.3,67.9,47.3z"/>
	<path fill="#FFFFFF" d="M74.8,58.6c-1.2,0-2.2-0.8-2.5-2c-0.1-0.5-2.3-1.4-4.6-1.6c-1.2-0.1-2.2-1-2.4-2.2
		c-0.2-1.2,0.5-2.4,1.7-2.8l23-8.3c1.3-0.5,2.8,0.2,3.3,1.6c0.5,1.3-0.2,2.8-1.6,3.3l-16.3,5.9c0.8,0.7,1.5,1.7,1.8,2.9
		c0.3,1.4-0.5,2.8-1.9,3.1C75.2,58.6,75,58.6,74.8,58.6z"/>
	<path fill="#FFFFFF" d="M84,58.6c-0.2,0-0.4,0-0.6-0.1c-1.4-0.3-2.2-1.8-1.9-3.1c1.2-4.7,7.9-5.4,9.2-5.5c1.4-0.1,2.7,1,2.8,2.4
		c0.1,1.4-1,2.7-2.4,2.8c-2.3,0.2-4.5,1.1-4.6,1.6C86.2,57.8,85.1,58.6,84,58.6z"/>
	
		<path fill="none" stroke="#FFFFFF" stroke-width="2.2393" stroke-linecap="round" stroke-linejoin="round" stroke-miterlimit="10" d="
		M90,61.6h-5.2h-4.6h-0.6H75h-5.2c-0.9,0-1.7,0.6-1.7,1.6v5.6c0,0.5,0.4,0.9,0.7,1.2l4.9,4.7v4.5c0,0.9,0.4,1.5,1.3,1.5h9.8
		c0.9,0,1.2-0.5,1.2-1.5v-4.5l4.9-4.7c0.3-0.3,0.7-0.7,0.7-1.2v-5.6C91.6,62.2,90.9,61.6,90,61.6z"/>
	<path fill="#FFFFFF" d="M42.8,80.7c12.2-10.2-3.2-30.7-3.2-30.7s-1.5,16.4-5.9,7.1c-13.1,17.5-1.3,23.6-1.3,23.6
		S37.8,84.8,42.8,80.7z"/>
</g>
<circle fill="#00AAED" cx="55.8" cy="56.1" r="54.3"/>
<g>
	<defs>
		<circle id="SVGID_5_" cx="55.8" cy="56.1" r="54.3"/>
	</defs>
	<clipPath id="SVGID_6_">
		<use xlink:href="#SVGID_5_"  overflow="visible"/>
	</clipPath>
	<path clip-path="url(#SVGID_6_)" fill="#0092D3" d="M131.9,73.7l-39-39l-3,2.2l-6.7-6.7L68,38.1l4.7,4.7L66,46.3l4.5,4.5L66,54.2
		l6.6,6.6l-3.2,1.7l-15-15l-0.7,0.7L44.5,39l-0.7,1c-6.2-7-13.1-8.6-13.1-8.6c2.6,14.7-4.3,19-4.3,19l-0.9-3.4c0,0-3.8,2.9-7.8,13
		c-3.1,8,0.1,14.5,1.6,16.9l-0.5,0.8l54.4,54.4l29.1-29.1l0.1,0.1l6.2-6.2l0,0L131.9,73.7z"/>
</g>
<g>
	
		<path fill="none" stroke="#FFFFFF" stroke-width="2.333" stroke-linecap="round" stroke-linejoin="round" stroke-miterlimit="10" d="
		M21.8,78.6c-13.4-10.6,4-32.5,4-32.5l0.8,4.9c8.3-8.8,3.6-20.3,3.6-20.3c20.3,9.1,20.7,25,20.7,25c2.8-3.8,2.7-7.2,2.7-7.2
		c10,16.5,4.4,25.6-1.9,30.2"/>
	<path fill="#FFFFFF" d="M69.9,38.8c-1.1,0-2.1-0.7-2.4-1.7c-0.5-1.3,0.2-2.8,1.6-3.3l11.5-4.1c1.3-0.5,2.8,0.2,3.3,1.6
		c0.5,1.3-0.2,2.8-1.6,3.3l-11.5,4.1C70.5,38.8,70.2,38.8,69.9,38.8z"/>
	<path fill="#FFFFFF" d="M67.9,47.3c-1.1,0-2.1-0.7-2.4-1.7c-0.5-1.3,0.2-2.8,1.6-3.3L90,34c1.3-0.5,2.8,0.2,3.3,1.6
		c0.5,1.3-0.2,2.8-1.6,3.3l-23,8.3C68.5,47.2,68.2,47.3,67.9,47.3z"/>
	<path fill="#FFFFFF" d="M74.8,58.6c-1.2,0-2.2-0.8-2.5-2c-0.1-0.5-2.3-1.4-4.6-1.6c-1.2-0.1-2.2-1-2.4-2.2
		c-0.2-1.2,0.5-2.4,1.7-2.8l23-8.3c1.3-0.5,2.8,0.2,3.3,1.6c0.5,1.3-0.2,2.8-1.6,3.3l-16.3,5.9c0.8,0.7,1.5,1.7,1.8,2.9
		c0.3,1.4-0.5,2.8-1.9,3.1C75.2,58.6,75,58.6,74.8,58.6z"/>
	<path fill="#FFFFFF" d="M84,58.6c-0.2,0-0.4,0-0.6-0.1c-1.4-0.3-2.2-1.8-1.9-3.1c1.2-4.7,7.9-5.4,9.2-5.5c1.4-0.1,2.7,1,2.8,2.4
		c0.1,1.4-1,2.7-2.4,2.8c-2.3,0.2-4.5,1.1-4.6,1.6C86.2,57.8,85.1,58.6,84,58.6z"/>
	
		<path fill="none" stroke="#FFFFFF" stroke-width="2.2393" stroke-linecap="round" stroke-linejoin="round" stroke-miterlimit="10" d="
		M90,61.6h-5.2h-4.6h-0.6H75h-5.2c-0.9,0-1.7,0.6-1.7,1.6v5.6c0,0.5,0.4,0.9,0.7,1.2l4.9,4.7v4.5c0,0.9,0.4,1.5,1.3,1.5h9.8
		c0.9,0,1.2-0.5,1.2-1.5v-4.5l4.9-4.7c0.3-0.3,0.7-0.7,0.7-1.2v-5.6C91.6,62.2,90.9,61.6,90,61.6z"/>
	<path fill="#FFFFFF" d="M42.8,80.7c12.2-10.2-3.2-30.7-3.2-30.7s-1.5,16.4-5.9,7.1c-13.1,17.5-1.3,23.6-1.3,23.6
		S37.8,84.8,42.8,80.7z"/>
</g>
<circle fill="#00AAED" cx="55.8" cy="56.1" r="54.3"/>
<g>
	<defs>
		<circle id="SVGID_7_" cx="55.8" cy="56.1" r="54.3"/>
	</defs>
	<clipPath id="SVGID_8_">
		<use xlink:href="#SVGID_7_"  overflow="visible"/>
	</clipPath>
	<path clip-path="url(#SVGID_8_)" fill="#0092D3" d="M131.9,73.7l-39-39l-3,2.2l-6.7-6.7L68,38.1l4.7,4.7L66,46.3l4.5,4.5L66,54.2
		l6.6,6.6l-3.2,1.7l-15-15l-0.7,0.7L44.5,39l-0.7,1c-6.2-7-13.1-8.6-13.1-8.6c2.6,14.7-4.3,19-4.3,19l-0.9-3.4c0,0-3.8,2.9-7.8,13
		c-3.1,8,0.1,14.5,1.6,16.9l-0.5,0.8l54.4,54.4l29.1-29.1l0.1,0.1l6.2-6.2l0,0L131.9,73.7z"/>
</g>
<g>
	
		<path fill="none" stroke="#FFFFFF" stroke-width="2.333" stroke-linecap="round" stroke-linejoin="round" stroke-miterlimit="10" d="
		M21.8,78.6c-13.4-10.6,4-32.5,4-32.5l0.8,4.9c8.3-8.8,3.6-20.3,3.6-20.3c20.3,9.1,20.7,25,20.7,25c2.8-3.8,2.7-7.2,2.7-7.2
		c10,16.5,4.4,25.6-1.9,30.2"/>
	<path fill="#FFFFFF" d="M69.9,38.8c-1.1,0-2.1-0.7-2.4-1.7c-0.5-1.3,0.2-2.8,1.6-3.3l11.5-4.1c1.3-0.5,2.8,0.2,3.3,1.6
		c0.5,1.3-0.2,2.8-1.6,3.3l-11.5,4.1C70.5,38.8,70.2,38.8,69.9,38.8z"/>
	<path fill="#FFFFFF" d="M67.9,47.3c-1.1,0-2.1-0.7-2.4-1.7c-0.5-1.3,0.2-2.8,1.6-3.3L90,34c1.3-0.5,2.8,0.2,3.3,1.6
		c0.5,1.3-0.2,2.8-1.6,3.3l-23,8.3C68.5,47.2,68.2,47.3,67.9,47.3z"/>
	<path fill="#FFFFFF" d="M74.8,58.6c-1.2,0-2.2-0.8-2.5-2c-0.1-0.5-2.3-1.4-4.6-1.6c-1.2-0.1-2.2-1-2.4-2.2
		c-0.2-1.2,0.5-2.4,1.7-2.8l23-8.3c1.3-0.5,2.8,0.2,3.3,1.6c0.5,1.3-0.2,2.8-1.6,3.3l-16.3,5.9c0.8,0.7,1.5,1.7,1.8,2.9
		c0.3,1.4-0.5,2.8-1.9,3.1C75.2,58.6,75,58.6,74.8,58.6z"/>
	<path fill="#FFFFFF" d="M84,58.6c-0.2,0-0.4,0-0.6-0.1c-1.4-0.3-2.2-1.8-1.9-3.1c1.2-4.7,7.9-5.4,9.2-5.5c1.4-0.1,2.7,1,2.8,2.4
		c0.1,1.4-1,2.7-2.4,2.8c-2.3,0.2-4.5,1.1-4.6,1.6C86.2,57.8,85.1,58.6,84,58.6z"/>
	
		<path fill="none" stroke="#FFFFFF" stroke-width="2.2393" stroke-linecap="round" stroke-linejoin="round" stroke-miterlimit="10" d="
		M90,61.6h-5.2h-4.6h-0.6H75h-5.2c-0.9,0-1.7,0.6-1.7,1.6v5.6c0,0.5,0.4,0.9,0.7,1.2l4.9,4.7v4.5c0,0.9,0.4,1.5,1.3,1.5h9.8
		c0.9,0,1.2-0.5,1.2-1.5v-4.5l4.9-4.7c0.3-0.3,0.7-0.7,0.7-1.2v-5.6C91.6,62.2,90.9,61.6,90,61.6z"/>
	<path fill="#FFFFFF" d="M42.8,80.7c12.2-10.2-3.2-30.7-3.2-30.7s-1.5,16.4-5.9,7.1c-13.1,17.5-1.3,23.6-1.3,23.6
		S37.8,84.8,42.8,80.7z"/>
</g>
<circle fill="#00AAED" cx="55.8" cy="56.1" r="54.3"/>
<g>
	<defs>
		<circle id="SVGID_9_" cx="55.8" cy="56.1" r="54.3"/>
	</defs>
	<clipPath id="SVGID_10_">
		<use xlink:href="#SVGID_9_"  overflow="visible"/>
	</clipPath>
	<path clip-path="url(#SVGID_10_)" fill="#0092D3" d="M131.9,73.7l-39-39l-3,2.2l-6.7-6.7L68,38.1l4.7,4.7L66,46.3l4.5,4.5L66,54.2
		l6.6,6.6l-3.2,1.7l-15-15l-0.7,0.7L44.5,39l-0.7,1c-6.2-7-13.1-8.6-13.1-8.6c2.6,14.7-4.3,19-4.3,19l-0.9-3.4c0,0-3.8,2.9-7.8,13
		c-3.1,8,0.1,14.5,1.6,16.9l-0.5,0.8l54.4,54.4l29.1-29.1l0.1,0.1l6.2-6.2l0,0L131.9,73.7z"/>
</g>
<g>
	
		<path fill="none" stroke="#FFFFFF" stroke-width="2.333" stroke-linecap="round" stroke-linejoin="round" stroke-miterlimit="10" d="
		M21.8,78.6c-13.4-10.6,4-32.5,4-32.5l0.8,4.9c8.3-8.8,3.6-20.3,3.6-20.3c20.3,9.1,20.7,25,20.7,25c2.8-3.8,2.7-7.2,2.7-7.2
		c10,16.5,4.4,25.6-1.9,30.2"/>
	<path fill="#FFFFFF" d="M69.9,38.8c-1.1,0-2.1-0.7-2.4-1.7c-0.5-1.3,0.2-2.8,1.6-3.3l11.5-4.1c1.3-0.5,2.8,0.2,3.3,1.6
		c0.5,1.3-0.2,2.8-1.6,3.3l-11.5,4.1C70.5,38.8,70.2,38.8,69.9,38.8z"/>
	<path fill="#FFFFFF" d="M67.9,47.3c-1.1,0-2.1-0.7-2.4-1.7c-0.5-1.3,0.2-2.8,1.6-3.3L90,34c1.3-0.5,2.8,0.2,3.3,1.6
		c0.5,1.3-0.2,2.8-1.6,3.3l-23,8.3C68.5,47.2,68.2,47.3,67.9,47.3z"/>
	<path fill="#FFFFFF" d="M74.8,58.6c-1.2,0-2.2-0.8-2.5-2c-0.1-0.5-2.3-1.4-4.6-1.6c-1.2-0.1-2.2-1-2.4-2.2
		c-0.2-1.2,0.5-2.4,1.7-2.8l23-8.3c1.3-0.5,2.8,0.2,3.3,1.6c0.5,1.3-0.2,2.8-1.6,3.3l-16.3,5.9c0.8,0.7,1.5,1.7,1.8,2.9
		c0.3,1.4-0.5,2.8-1.9,3.1C75.2,58.6,75,58.6,74.8,58.6z"/>
	<path fill="#FFFFFF" d="M84,58.6c-0.2,0-0.4,0-0.6-0.1c-1.4-0.3-2.2-1.8-1.9-3.1c1.2-4.7,7.9-5.4,9.2-5.5c1.4-0.1,2.7,1,2.8,2.4
		c0.1,1.4-1,2.7-2.4,2.8c-2.3,0.2-4.5,1.1-4.6,1.6C86.2,57.8,85.1,58.6,84,58.6z"/>
	
		<path fill="none" stroke="#FFFFFF" stroke-width="2.2393" stroke-linecap="round" stroke-linejoin="round" stroke-miterlimit="10" d="
		M90,61.6h-5.2h-4.6h-0.6H75h-5.2c-0.9,0-1.7,0.6-1.7,1.6v5.6c0,0.5,0.4,0.9,0.7,1.2l4.9,4.7v4.5c0,0.9,0.4,1.5,1.3,1.5h9.8
		c0.9,0,1.2-0.5,1.2-1.5v-4.5l4.9-4.7c0.3-0.3,0.7-0.7,0.7-1.2v-5.6C91.6,62.2,90.9,61.6,90,61.6z"/>
	<path fill="#FFFFFF" d="M42.8,80.7c12.2-10.2-3.2-30.7-3.2-30.7s-1.5,16.4-5.9,7.1c-13.1,17.5-1.3,23.6-1.3,23.6
		S37.8,84.8,42.8,80.7z"/>
</g>
<circle fill="#00AAED" cx="55.8" cy="56.1" r="54.3"/>
<g>
	<defs>
		<circle id="SVGID_11_" cx="55.8" cy="56.1" r="54.3"/>
	</defs>
	<clipPath id="SVGID_12_">
		<use xlink:href="#SVGID_11_"  overflow="visible"/>
	</clipPath>
	<path clip-path="url(#SVGID_12_)" fill="#0092D3" d="M131.9,73.7l-39-39l-3,2.2l-6.7-6.7L68,38.1l4.7,4.7L66,46.3l4.5,4.5L66,54.2
		l6.6,6.6l-3.2,1.7l-15-15l-0.7,0.7L44.5,39l-0.7,1c-6.2-7-13.1-8.6-13.1-8.6c2.6,14.7-4.3,19-4.3,19l-0.9-3.4c0,0-3.8,2.9-7.8,13
		c-3.1,8,0.1,14.5,1.6,16.9l-0.5,0.8l54.4,54.4l29.1-29.1l0.1,0.1l6.2-6.2l0,0L131.9,73.7z"/>
</g>
<g>
	
		<path fill="none" stroke="#FFFFFF" stroke-width="2.333" stroke-linecap="round" stroke-linejoin="round" stroke-miterlimit="10" d="
		M21.8,78.6c-13.4-10.6,4-32.5,4-32.5l0.8,4.9c8.3-8.8,3.6-20.3,3.6-20.3c20.3,9.1,20.7,25,20.7,25c2.8-3.8,2.7-7.2,2.7-7.2
		c10,16.5,4.4,25.6-1.9,30.2"/>
	<path fill="#FFFFFF" d="M69.9,38.8c-1.1,0-2.1-0.7-2.4-1.7c-0.5-1.3,0.2-2.8,1.6-3.3l11.5-4.1c1.3-0.5,2.8,0.2,3.3,1.6
		c0.5,1.3-0.2,2.8-1.6,3.3l-11.5,4.1C70.5,38.8,70.2,38.8,69.9,38.8z"/>
	<path fill="#FFFFFF" d="M67.9,47.3c-1.1,0-2.1-0.7-2.4-1.7c-0.5-1.3,0.2-2.8,1.6-3.3L90,34c1.3-0.5,2.8,0.2,3.3,1.6
		c0.5,1.3-0.2,2.8-1.6,3.3l-23,8.3C68.5,47.2,68.2,47.3,67.9,47.3z"/>
	<path fill="#FFFFFF" d="M74.8,58.6c-1.2,0-2.2-0.8-2.5-2c-0.1-0.5-2.3-1.4-4.6-1.6c-1.2-0.1-2.2-1-2.4-2.2
		c-0.2-1.2,0.5-2.4,1.7-2.8l23-8.3c1.3-0.5,2.8,0.2,3.3,1.6c0.5,1.3-0.2,2.8-1.6,3.3l-16.3,5.9c0.8,0.7,1.5,1.7,1.8,2.9
		c0.3,1.4-0.5,2.8-1.9,3.1C75.2,58.6,75,58.6,74.8,58.6z"/>
	<path fill="#FFFFFF" d="M84,58.6c-0.2,0-0.4,0-0.6-0.1c-1.4-0.3-2.2-1.8-1.9-3.1c1.2-4.7,7.9-5.4,9.2-5.5c1.4-0.1,2.7,1,2.8,2.4
		c0.1,1.4-1,2.7-2.4,2.8c-2.3,0.2-4.5,1.1-4.6,1.6C86.2,57.8,85.1,58.6,84,58.6z"/>
	
		<path fill="none" stroke="#FFFFFF" stroke-width="2.2393" stroke-linecap="round" stroke-linejoin="round" stroke-miterlimit="10" d="
		M90,61.6h-5.2h-4.6h-0.6H75h-5.2c-0.9,0-1.7,0.6-1.7,1.6v5.6c0,0.5,0.4,0.9,0.7,1.2l4.9,4.7v4.5c0,0.9,0.4,1.5,1.3,1.5h9.8
		c0.9,0,1.2-0.5,1.2-1.5v-4.5l4.9-4.7c0.3-0.3,0.7-0.7,0.7-1.2v-5.6C91.6,62.2,90.9,61.6,90,61.6z"/>
	<path fill="#FFFFFF" d="M42.8,80.7c12.2-10.2-3.2-30.7-3.2-30.7s-1.5,16.4-5.9,7.1c-13.1,17.5-1.3,23.6-1.3,23.6
		S37.8,84.8,42.8,80.7z"/>
</g>
</svg>
