<?xml version="1.0" encoding="utf-8"?>
<!-- Generator: Adobe Illustrator 18.0.0, SVG Export Plug-In . SVG Version: 6.00 Build 0)  -->
<!DOCTYPE svg PUBLIC "-//W3C//DTD SVG 1.1//EN" "http://www.w3.org/Graphics/SVG/1.1/DTD/svg11.dtd">
<svg version="1.1" id="Layer_2" xmlns="http://www.w3.org/2000/svg" xmlns:xlink="http://www.w3.org/1999/xlink" x="0px" y="0px"
	 viewBox="338 66.9 84 88" enable-background="new 338 66.9 84 88" xml:space="preserve">
<g>
	<path fill="none" stroke="#0A306A" stroke-width="3" stroke-linecap="round" stroke-miterlimit="10" d="M406.9,102.8v40
		c0,2.7-1.4,3.8-3,3.8"/>
	<path fill="none" stroke="#0A306A" stroke-width="3" stroke-linecap="round" stroke-miterlimit="10" d="M354.4,102.8v40
		c0,2.6,1.4,3.8,3,3.8"/>
</g>
<g>
	
		<line fill="none" stroke="#0A306A" stroke-width="6" stroke-linecap="round" stroke-linejoin="round" stroke-miterlimit="10" x1="380.7" y1="75.9" x2="416.5" y2="111.8"/>
	
		<line fill="none" stroke="#0A306A" stroke-width="6" stroke-linecap="round" stroke-linejoin="round" stroke-miterlimit="10" x1="380.7" y1="75.9" x2="344.9" y2="111.8"/>
</g>
<g>
	<path fill="none" stroke="#0A306A" stroke-width="3" stroke-linecap="round" stroke-miterlimit="10" d="M373.7,129.4v15.2
		c0,1.2-1.2,2.1-2.3,2.1c-1.1,0-2.3-0.9-2.3-2.1v-15.2"/>
	<path fill="none" stroke="#0A306A" stroke-width="3" stroke-linecap="round" stroke-miterlimit="10" d="M373.7,129.4v-15.2
		c0-1.2,1.2-2.1,2.3-2.1s2.3,0.9,2.3,2.1v15.2"/>
	<path fill="none" stroke="#0A306A" stroke-width="3" stroke-linecap="round" stroke-miterlimit="10" d="M383,129.4v15.2
		c0,1.2-1.2,2.1-2.3,2.1s-2.3-0.9-2.3-2.1v-15.2"/>
	<path fill="none" stroke="#0A306A" stroke-width="3" stroke-linecap="round" stroke-miterlimit="10" d="M383,129.4v-15.2
		c0-1.2,1.2-2.1,2.3-2.1c1.2,0,2.3,0.9,2.3,2.1v15.2"/>
	<path fill="none" stroke="#0A306A" stroke-width="3" stroke-linecap="round" stroke-miterlimit="10" d="M392.3,129.4v15.2
		c0,1.2-1.2,2.1-2.3,2.1c-1.2,0-2.3-0.9-2.3-2.1v-15.2"/>
	<path fill="none" stroke="#0A306A" stroke-width="3" stroke-linecap="round" stroke-miterlimit="10" d="M392.3,129.4v-15.2
		c0-1.2,1.2-2.1,2.3-2.1"/>
	<path fill="none" stroke="#0A306A" stroke-width="3" stroke-linecap="round" stroke-miterlimit="10" d="M369.1,129.4v-15.2
		c0-1.2-1.2-2.1-2.3-2.1c-1.1,0-2.3,0.9-2.3,2.1v30.2c0,1.2-0.9,2.1-2.1,2.1h-4.9"/>
	<path fill="none" stroke="#0A306A" stroke-width="3" stroke-linecap="round" stroke-miterlimit="10" d="M394.6,112.2
		c1.2,0,2.3,0.9,2.3,2.1v30.2c0,1.2,0.9,2.1,2.1,2.1h4.9"/>
</g>
</svg>
