<?xml version="1.0" encoding="utf-8"?>
<!-- Generator: Adobe Illustrator 17.1.0, SVG Export Plug-In . SVG Version: 6.00 Build 0)  -->
<!DOCTYPE svg PUBLIC "-//W3C//DTD SVG 1.1//EN" "http://www.w3.org/Graphics/SVG/1.1/DTD/svg11.dtd">
<svg version="1.1" id="Fix__x26__Fall" xmlns="http://www.w3.org/2000/svg" xmlns:xlink="http://www.w3.org/1999/xlink" x="0px"
	 y="0px" viewBox="0 0 841.9 595.3" enable-background="new 0 0 841.9 595.3" xml:space="preserve">
<g>
	<path fill="#0B2F6B" d="M726.7,559.6H113.1c-29.4,0-53.3-23.9-53.3-53.3V90.2c0-29.4,23.9-53.3,53.3-53.3h613.7
		c29.4,0,53.3,23.9,53.3,53.3v416.4C779.9,535.8,756,559.6,726.7,559.6z M113.1,67.7c-12.4,0-22.5,10.1-22.5,22.5v416.1
		c0,12.4,10.1,22.5,22.5,22.5h613.6c12.4,0,22.5-10,22.6-22.3V90.2c0-12.4-10.1-22.5-22.5-22.5H113.1z"/>
</g>
<path fill="#0B2F6B" d="M311,378.3c0,14-11.4,25.5-25.5,25.5h-115c-14,0-25.5-11.4-25.5-25.5v-160c0-14,11.4-25.5,25.5-25.5h115.1
	c14,0,25.5,11.4,25.5,25.5L311,378.3z"/>
<path fill="#0B2F6B" d="M504,378.3c0,14-11.4,25.5-25.5,25.5h-115c-14,0-25.5-11.4-25.5-25.5v-160c0-14,11.4-25.5,25.5-25.5h115.1
	c14,0,25.5,11.4,25.5,25.5L504,378.3z"/>
<path fill="#0B2F6B" d="M697,378.3c0,14-11.4,25.5-25.5,25.5H556.4c-14,0-25.5-11.4-25.5-25.5v-160c0-14,11.4-25.5,25.5-25.5h115.1
	c14,0,25.5,11.4,25.5,25.5V378.3L697,378.3z"/>
<g enable-background="new    ">
	<path fill="#FFFFFF" d="M263.1,342.9v13h-72.8c-0.1-3.3,0.4-6.4,1.6-9.4c1.9-5,4.8-9.8,8.9-14.7c4.1-4.8,10-10.4,17.7-16.7
		c12-9.8,20.1-17.6,24.3-23.3c4.2-5.7,6.3-11.2,6.3-16.3c0-5.4-1.9-9.9-5.8-13.6c-3.8-3.7-8.8-5.5-15-5.5c-6.5,0-11.7,2-15.6,5.9
		s-5.9,9.3-5.9,16.2l-13.9-1.4c1-10.4,4.5-18.3,10.8-23.7c6.2-5.4,14.6-8.2,25-8.2c10.6,0,18.9,2.9,25.1,8.8
		c6.2,5.9,9.2,13.1,9.2,21.8c0,4.4-0.9,8.7-2.7,13c-1.8,4.3-4.8,8.7-9,13.5c-4.2,4.7-11.1,11.2-20.9,19.4
		c-8.1,6.8-13.3,11.4-15.6,13.9c-2.3,2.4-4.2,4.9-5.7,7.3H263.1z"/>
</g>
<g enable-background="new    ">
	<path fill="#FFFFFF" d="M453.3,272.7l-13.5,1.1c-1.2-5.3-2.9-9.2-5.1-11.6c-3.7-3.9-8.2-5.8-13.5-5.8c-4.3,0-8.1,1.2-11.4,3.6
		c-4.3,3.1-7.6,7.6-10.1,13.6c-2.5,6-3.7,14.5-3.8,25.5c3.3-5,7.2-8.6,12-11.1c4.7-2.4,9.6-3.6,14.8-3.6c9,0,16.7,3.3,23,10
		c6.3,6.6,9.5,15.2,9.5,25.7c0,6.9-1.5,13.3-4.5,19.3s-7.1,10.5-12.3,13.6c-5.2,3.2-11.1,4.7-17.7,4.7c-11.3,0-20.5-4.1-27.6-12.4
		c-7.1-8.3-10.7-22-10.7-41c0-21.3,3.9-36.8,11.8-46.5c6.9-8.4,16.1-12.6,27.7-12.6c8.7,0,15.8,2.4,21.3,7.3
		C448.9,257.4,452.2,264.1,453.3,272.7z M398.1,320.2c0,4.7,1,9.1,3,13.4c2,4.3,4.7,7.5,8.3,9.7c3.6,2.2,7.3,3.3,11.2,3.3
		c5.7,0,10.6-2.3,14.7-6.9c4.1-4.6,6.2-10.9,6.2-18.8c0-7.6-2-13.6-6.1-18c-4.1-4.4-9.2-6.6-15.3-6.6c-6.1,0-11.3,2.2-15.6,6.6
		C400.2,307.4,398.1,313.1,398.1,320.2z"/>
</g>
<g enable-background="new    ">
	<path fill="#FFFFFF" d="M600.9,296.2c-5.6-2.1-9.8-5-12.5-8.8c-2.7-3.8-4.1-8.4-4.1-13.7c0-8,2.9-14.8,8.6-20.2
		c5.8-5.5,13.4-8.2,23-8.2c9.6,0,17.4,2.8,23.2,8.4c5.9,5.6,8.8,12.4,8.8,20.4c0,5.1-1.3,9.6-4,13.3c-2.7,3.8-6.8,6.7-12.2,8.8
		c6.8,2.2,11.9,5.8,15.4,10.7c3.5,4.9,5.3,10.8,5.3,17.6c0,9.4-3.3,17.3-10,23.8c-6.7,6.4-15.4,9.6-26.3,9.6
		c-10.9,0-19.6-3.2-26.3-9.7c-6.7-6.4-10-14.5-10-24.1c0-7.2,1.8-13.2,5.5-18C589,301.2,594.2,297.9,600.9,296.2z M593.8,324.1
		c0,3.9,0.9,7.6,2.7,11.2c1.8,3.6,4.5,6.4,8.2,8.4c3.6,2,7.5,3,11.7,3c6.5,0,11.8-2.1,16-6.2c4.2-4.2,6.3-9.4,6.3-15.9
		c0-6.5-2.2-11.9-6.5-16.2c-4.3-4.3-9.8-6.4-16.3-6.4c-6.4,0-11.6,2.1-15.8,6.3C595.9,312.6,593.8,317.8,593.8,324.1z M598.2,273.2
		c0,5.2,1.7,9.5,5,12.8c3.4,3.3,7.7,5,13.1,5c5.2,0,9.5-1.6,12.8-4.9c3.3-3.3,5-7.3,5-12.1c0-5-1.7-9.1-5.2-12.5
		c-3.4-3.4-7.7-5.1-12.8-5.1c-5.2,0-9.4,1.7-12.9,5C599.9,264.7,598.2,268.6,598.2,273.2z"/>
</g>
</svg>
