<?xml version="1.0" encoding="utf-8"?>
<!-- Generator: Adobe Illustrator 18.0.0, SVG Export Plug-In . SVG Version: 6.00 Build 0)  -->
<!DOCTYPE svg PUBLIC "-//W3C//DTD SVG 1.1//EN" "http://www.w3.org/Graphics/SVG/1.1/DTD/svg11.dtd">
<svg version="1.1" id="two" xmlns="http://www.w3.org/2000/svg" xmlns:xlink="http://www.w3.org/1999/xlink" x="0px" y="0px"
	 viewBox="0 0 111.3 111.3" enable-background="new 0 0 111.3 111.3" xml:space="preserve">
<circle fill="#00AAED" cx="55.6" cy="56" r="54.4"/>
<g>
	<defs>
		<circle id="SVGID_1_" cx="55.6" cy="56" r="54.4"/>
	</defs>
	<clipPath id="SVGID_2_">
		<use xlink:href="#SVGID_1_"  overflow="visible"/>
	</clipPath>
	<path clip-path="url(#SVGID_2_)" fill="#0092D3" d="M66.4,35.1l-1.2,0.4c-2.6-2-6.2-3.3-10.1-3.3c-8.2,0-14.8,5.3-14.8,11.9v0.4
		l-1.4,0.5l17.4,17.4L38.2,80.6l43.6,43.6l36.8-36.8L66.4,35.1z"/>
</g>
<g>
	<path fill="#FFFFFF" d="M38.1,72l18.8-18.2c2.3-2.2,5-4.9,5-8.2c0-4-3.3-6.4-7-6.4c-4,0-6.9,2.6-7.5,6.6l-8.6-0.7
		c0.8-9,7.3-13.7,16.1-13.7c8.7,0,15.7,4.4,15.7,13.7c0,6.1-3.1,10.3-7.5,14.2l-15,13.9h22.4v7.4H38.1V72z"/>
</g>
</svg>
