<?xml version="1.0" encoding="utf-8"?>
<!-- Generator: Adobe Illustrator 18.0.0, SVG Export Plug-In . SVG Version: 6.00 Build 0)  -->
<!DOCTYPE svg PUBLIC "-//W3C//DTD SVG 1.1//EN" "http://www.w3.org/Graphics/SVG/1.1/DTD/svg11.dtd">
<svg version="1.1" id="Layer_1" xmlns="http://www.w3.org/2000/svg" xmlns:xlink="http://www.w3.org/1999/xlink" x="0px" y="0px"
	 viewBox="0 0 194.5 64.5" enable-background="new 0 0 194.5 64.5" xml:space="preserve">
<g>
	<path fill="#F37820" stroke="#F37820" stroke-width="1.0453" stroke-miterlimit="10" d="M27.1,24.1c0,3.1-1,5.2-3.1,6.4
		c-1.9,1.1-5.2,1.6-9.9,1.6c-4.1,0-6.9-0.6-8.5-1.8c-1.4-1.1-2.1-3-2.1-5.9h5.5c0,1.5,0.4,2.5,1.1,2.9c0.7,0.5,2.3,0.7,4.7,0.7
		c2.1,0,3.4-0.1,4.1-0.2c1.8-0.4,2.7-1.8,2.7-4.3l-0.1-4.6h0c-0.7,1-1.5,1.7-2.6,2c-1.1,0.3-2.8,0.5-5,0.5c-3.9,0-6.5-0.6-7.9-1.7
		c-1.4-1.1-2.1-3.2-2.1-6.4c0-3.5,0.9-5.8,2.8-7C8.2,5.5,11.1,5,15.4,5c4.8,0,7.8,0.6,9.2,1.7c1.7,1.4,2.6,4.8,2.6,10.1V24.1z
		 M21.6,13.5c0-1.9-0.5-3.2-1.4-3.7c-0.7-0.4-2.3-0.6-4.8-0.6c-2.6,0-4.2,0.2-4.9,0.7c-0.7,0.5-1.1,1.7-1.1,3.6c0,1.6,0.3,2.7,1,3.1
		c0.7,0.5,2.4,0.7,5.1,0.7s4.5-0.2,5.2-0.6C21.3,16.3,21.6,15.2,21.6,13.5z"/>
	<path fill="#F37820" stroke="#F37820" stroke-width="1.0453" stroke-miterlimit="10" d="M49.4,31.8h-5.5V9.5l-7.8,6.9l-3.3-3.1
		l9.7-8.1h6.9V31.8z"/>
	<path fill="#F37820" stroke="#F37820" stroke-width="1.0453" stroke-miterlimit="10" d="M63.6,7.2c0,1.2-0.1,2-0.4,2.3
		c-0.3,0.3-1,0.5-2.2,0.5c-1.1,0-1.8-0.1-2.1-0.4c-0.4-0.3-0.5-1.1-0.5-2.5c0-1.1,0.2-1.8,0.5-2.1c0.3-0.3,1-0.5,2.1-0.5
		c1.3,0,2,0.2,2.4,0.6C63.5,5.4,63.6,6.1,63.6,7.2z M62.2,7.2c0-0.2,0-0.4,0-0.5c0-0.5-0.1-0.8-0.2-1c-0.1-0.1-0.5-0.2-1.1-0.2
		c-0.6,0-1,0.1-1.1,0.2c-0.1,0.1-0.2,0.6-0.2,1.3c0,0.8,0.1,1.3,0.2,1.5c0.1,0.2,0.5,0.2,1,0.2c0.6,0,1-0.1,1.1-0.2
		C62.2,8.5,62.2,8,62.2,7.2z M70,4.6l-7.7,10.6h-1.5l7.6-10.6H70z M72.3,12.6c0,1.2-0.1,1.9-0.4,2.2c-0.3,0.4-1.1,0.5-2.3,0.5
		c-1.2,0-1.9-0.2-2.2-0.5c-0.3-0.3-0.4-1-0.4-2.2c0-1.1,0.1-1.8,0.4-2.1c0.3-0.4,1.1-0.6,2.2-0.6c1.2,0,1.9,0.2,2.2,0.5
		S72.3,11.5,72.3,12.6z M70.9,12.6c0-0.8-0.1-1.3-0.2-1.4c-0.1-0.1-0.5-0.2-1.2-0.2c-0.6,0-0.9,0.1-1,0.2c-0.1,0.1-0.2,0.6-0.2,1.4
		c0,0.8,0.1,1.3,0.2,1.4c0.1,0.1,0.5,0.2,1.1,0.2c0.6,0,1-0.1,1.1-0.2C70.8,14,70.9,13.5,70.9,12.6z"/>
</g>
<g>
	<path fill="#646462" d="M81.8,17.5V4h5.7C89,4,90,4.1,90.7,4.4c0.7,0.2,1.2,0.7,1.6,1.3c0.4,0.6,0.6,1.3,0.6,2.1
		c0,1-0.3,1.8-0.9,2.5c-0.6,0.7-1.5,1.1-2.7,1.2c0.6,0.3,1.1,0.7,1.5,1.1c0.4,0.4,0.9,1.1,1.5,2.2l1.6,2.6h-3.3l-2-2.9
		c-0.7-1-1.2-1.7-1.4-2s-0.5-0.5-0.8-0.6c-0.3-0.1-0.7-0.2-1.4-0.2h-0.6v5.6H81.8z M84.5,9.7h2c1.3,0,2.1-0.1,2.4-0.2
		s0.6-0.3,0.8-0.6c0.2-0.3,0.3-0.6,0.3-1c0-0.5-0.1-0.8-0.4-1.1c-0.2-0.3-0.6-0.5-1-0.5c-0.2,0-0.9,0-2,0h-2.1V9.7z"/>
	<path fill="#646462" d="M101,14.4l2.6,0.4c-0.3,0.9-0.9,1.7-1.6,2.2c-0.7,0.5-1.6,0.7-2.7,0.7c-1.7,0-3-0.6-3.8-1.7
		c-0.6-0.9-1-2-1-3.4c0-1.6,0.4-2.9,1.3-3.8c0.8-0.9,1.9-1.4,3.2-1.4c1.5,0,2.6,0.5,3.4,1.4c0.8,1,1.2,2.4,1.2,4.4h-6.5
		c0,0.8,0.2,1.4,0.6,1.8c0.4,0.4,0.9,0.6,1.5,0.6c0.4,0,0.7-0.1,1-0.3C100.7,15.2,100.9,14.8,101,14.4z M101.2,11.8
		c0-0.7-0.2-1.3-0.6-1.7c-0.4-0.4-0.8-0.6-1.3-0.6c-0.6,0-1,0.2-1.4,0.6s-0.5,1-0.5,1.7H101.2z"/>
	<path fill="#646462" d="M114.3,10.6l-2.5,0.5c-0.1-0.5-0.3-0.9-0.6-1.1c-0.3-0.3-0.7-0.4-1.2-0.4c-0.6,0-1.2,0.2-1.5,0.7
		c-0.4,0.4-0.6,1.2-0.6,2.2c0,1.2,0.2,2,0.6,2.5s0.9,0.7,1.6,0.7c0.5,0,0.9-0.1,1.2-0.4c0.3-0.3,0.5-0.8,0.7-1.4l2.5,0.4
		c-0.3,1.2-0.8,2-1.5,2.6c-0.7,0.6-1.7,0.9-3,0.9c-1.4,0-2.6-0.5-3.4-1.4c-0.8-0.9-1.3-2.1-1.3-3.7c0-1.6,0.4-2.9,1.3-3.8
		c0.9-0.9,2-1.3,3.5-1.3c1.2,0,2.1,0.3,2.8,0.8S114,9.5,114.3,10.6z"/>
	<path fill="#646462" d="M115.7,12.4c0-0.9,0.2-1.7,0.6-2.5c0.4-0.8,1-1.4,1.8-1.8c0.8-0.4,1.6-0.6,2.6-0.6c1.5,0,2.7,0.5,3.6,1.4
		c0.9,1,1.4,2.2,1.4,3.6c0,1.5-0.5,2.7-1.4,3.7c-1,1-2.2,1.5-3.6,1.5c-0.9,0-1.7-0.2-2.6-0.6s-1.4-1-1.9-1.8
		C115.9,14.5,115.7,13.6,115.7,12.4z M118.4,12.6c0,1,0.2,1.7,0.7,2.2c0.5,0.5,1,0.8,1.7,0.8s1.2-0.3,1.7-0.8s0.7-1.3,0.7-2.2
		c0-1-0.2-1.7-0.7-2.2s-1-0.8-1.7-0.8s-1.2,0.3-1.7,0.8C118.6,10.9,118.4,11.6,118.4,12.6z"/>
	<path fill="#646462" d="M127.6,7.7h2.4V9c0.9-1,1.9-1.6,3-1.6c0.6,0,1.2,0.1,1.6,0.4c0.5,0.3,0.8,0.6,1.1,1.2
		c0.4-0.5,0.9-0.9,1.4-1.2s1-0.4,1.6-0.4c0.7,0,1.3,0.1,1.8,0.4c0.5,0.3,0.9,0.7,1.1,1.3c0.2,0.4,0.3,1.1,0.3,2v6.2h-2.6v-5.6
		c0-1-0.1-1.6-0.3-1.9c-0.2-0.4-0.6-0.6-1.1-0.6c-0.4,0-0.7,0.1-1,0.3c-0.3,0.2-0.5,0.5-0.7,1c-0.1,0.4-0.2,1.1-0.2,2v4.7h-2.6v-5.3
		c0-0.9,0-1.6-0.1-1.8c-0.1-0.3-0.2-0.5-0.4-0.6c-0.2-0.1-0.5-0.2-0.8-0.2c-0.4,0-0.8,0.1-1.1,0.3c-0.3,0.2-0.5,0.5-0.7,0.9
		s-0.2,1.1-0.2,2v4.7h-2.6V7.7z"/>
	<path fill="#646462" d="M144.3,7.7h2.4V9c0.9-1,1.9-1.6,3-1.6c0.6,0,1.2,0.1,1.6,0.4c0.5,0.3,0.8,0.6,1.1,1.2
		c0.4-0.5,0.9-0.9,1.4-1.2s1-0.4,1.6-0.4c0.7,0,1.3,0.1,1.8,0.4c0.5,0.3,0.9,0.7,1.1,1.3c0.2,0.4,0.3,1.1,0.3,2v6.2h-2.6v-5.6
		c0-1-0.1-1.6-0.3-1.9c-0.2-0.4-0.6-0.6-1.1-0.6c-0.4,0-0.7,0.1-1,0.3c-0.3,0.2-0.5,0.5-0.7,1c-0.1,0.4-0.2,1.1-0.2,2v4.7h-2.6v-5.3
		c0-0.9,0-1.6-0.1-1.8c-0.1-0.3-0.2-0.5-0.4-0.6c-0.2-0.1-0.5-0.2-0.8-0.2c-0.4,0-0.8,0.1-1.1,0.3c-0.3,0.2-0.5,0.5-0.7,0.9
		s-0.2,1.1-0.2,2v4.7h-2.6V7.7z"/>
	<path fill="#646462" d="M166.9,14.4l2.6,0.4c-0.3,0.9-0.9,1.7-1.6,2.2s-1.6,0.7-2.7,0.7c-1.7,0-3-0.6-3.8-1.7c-0.6-0.9-1-2-1-3.4
		c0-1.6,0.4-2.9,1.3-3.8c0.8-0.9,1.9-1.4,3.2-1.4c1.5,0,2.6,0.5,3.4,1.4c0.8,1,1.2,2.4,1.2,4.4h-6.5c0,0.8,0.2,1.4,0.6,1.8
		c0.4,0.4,0.9,0.6,1.5,0.6c0.4,0,0.7-0.1,1-0.3C166.6,15.2,166.8,14.8,166.9,14.4z M167.1,11.8c0-0.7-0.2-1.3-0.6-1.7
		c-0.4-0.4-0.8-0.6-1.3-0.6c-0.6,0-1,0.2-1.4,0.6c-0.4,0.4-0.5,1-0.5,1.7H167.1z"/>
	<path fill="#646462" d="M180.6,17.5H178v-5c0-1.1-0.1-1.7-0.2-2c-0.1-0.3-0.3-0.5-0.5-0.7s-0.5-0.3-0.9-0.3c-0.4,0-0.8,0.1-1.2,0.4
		s-0.6,0.6-0.7,1s-0.2,1.2-0.2,2.2v4.4h-2.6V7.7h2.4v1.4c0.9-1.1,1.9-1.7,3.2-1.7c0.6,0,1.1,0.1,1.6,0.3s0.8,0.5,1.1,0.8
		s0.4,0.7,0.5,1.1c0.1,0.4,0.1,1,0.1,1.7V17.5z"/>
	<path fill="#646462" d="M192.2,17.5h-2.4V16c-0.4,0.6-0.9,1-1.4,1.2s-1.1,0.4-1.6,0.4c-1.1,0-2.1-0.5-2.9-1.4
		c-0.8-0.9-1.2-2.2-1.2-3.8c0-1.7,0.4-2.9,1.2-3.8c0.8-0.9,1.8-1.3,2.9-1.3c1.1,0,2,0.5,2.8,1.4V4h2.6V17.5z M185.3,12.4
		c0,1,0.1,1.8,0.4,2.3c0.4,0.7,1,1,1.7,1c0.6,0,1.1-0.3,1.5-0.8c0.4-0.5,0.6-1.3,0.6-2.3c0-1.1-0.2-1.9-0.6-2.4s-0.9-0.7-1.6-0.7
		c-0.6,0-1.1,0.2-1.5,0.7C185.5,10.7,185.3,11.4,185.3,12.4z"/>
	<path fill="#646462" d="M81.4,23.1h3.6c0.7,0,1.2,0,1.6,0.1c0.3,0.1,0.7,0.2,0.9,0.4c0.3,0.2,0.5,0.4,0.7,0.8s0.3,0.7,0.3,1.1
		c0,0.4-0.1,0.8-0.3,1.2c-0.2,0.4-0.5,0.6-0.9,0.8c0.5,0.2,1,0.4,1.3,0.8c0.3,0.4,0.4,0.8,0.4,1.4c0,0.4-0.1,0.8-0.3,1.2
		c-0.2,0.4-0.4,0.7-0.8,0.9c-0.3,0.2-0.7,0.4-1.2,0.4c-0.3,0-1,0.1-2.2,0.1h-3.1V23.1z M83.2,24.6v2.1h1.2c0.7,0,1.1,0,1.3,0
		c0.3,0,0.6-0.1,0.7-0.3s0.3-0.4,0.3-0.7c0-0.3-0.1-0.5-0.2-0.7c-0.2-0.2-0.4-0.3-0.7-0.3c-0.2,0-0.7,0-1.5,0H83.2z M83.2,28.2v2.4
		h1.7c0.7,0,1.1,0,1.2-0.1c0.3,0,0.5-0.2,0.7-0.4s0.3-0.4,0.3-0.8c0-0.3-0.1-0.5-0.2-0.7c-0.1-0.2-0.3-0.3-0.6-0.4
		c-0.2-0.1-0.8-0.1-1.6-0.1H83.2z"/>
	<path fill="#646462" d="M92,32.1h-1.7v-6.5h1.6v0.9c0.3-0.4,0.5-0.7,0.7-0.9c0.2-0.1,0.5-0.2,0.7-0.2c0.4,0,0.8,0.1,1.1,0.3
		L94,27.3c-0.3-0.2-0.6-0.3-0.8-0.3c-0.2,0-0.4,0.1-0.6,0.2s-0.3,0.4-0.4,0.7C92.1,28.3,92,29,92,30.1V32.1z"/>
	<path fill="#646462" d="M95.3,24.7v-1.6H97v1.6H95.3z M95.3,32.1v-6.5H97v6.5H95.3z"/>
	<path fill="#646462" d="M101.7,25.6V27h-1.2v2.6c0,0.5,0,0.8,0,0.9c0,0.1,0.1,0.2,0.2,0.2c0.1,0.1,0.2,0.1,0.3,0.1
		c0.2,0,0.4-0.1,0.7-0.2l0.1,1.3c-0.4,0.2-0.9,0.3-1.4,0.3c-0.3,0-0.6-0.1-0.8-0.2s-0.4-0.2-0.5-0.4c-0.1-0.2-0.2-0.4-0.2-0.7
		c0-0.2-0.1-0.6-0.1-1.2V27h-0.8v-1.4h0.8v-1.3l1.7-1v2.3H101.7z"/>
	<path fill="#646462" d="M102.9,24.7v-1.6h1.7v1.6H102.9z M102.9,32.1v-6.5h1.7v6.5H102.9z"/>
	<path fill="#646462" d="M105.8,30.2l1.7-0.3c0.1,0.3,0.2,0.6,0.4,0.8c0.2,0.2,0.5,0.3,0.9,0.3c0.4,0,0.8-0.1,1-0.2
		c0.2-0.1,0.2-0.3,0.2-0.5c0-0.1,0-0.2-0.1-0.3c-0.1-0.1-0.3-0.2-0.6-0.2c-1.4-0.3-2.3-0.6-2.6-0.8c-0.5-0.4-0.8-0.8-0.8-1.5
		c0-0.6,0.2-1,0.7-1.4c0.4-0.4,1.1-0.6,2.1-0.6c0.9,0,1.6,0.1,2,0.4c0.4,0.3,0.7,0.7,0.9,1.3l-1.6,0.3c-0.1-0.3-0.2-0.4-0.4-0.6
		c-0.2-0.1-0.5-0.2-0.8-0.2c-0.5,0-0.8,0.1-1,0.2c-0.1,0.1-0.2,0.2-0.2,0.3c0,0.1,0.1,0.2,0.2,0.3c0.2,0.1,0.7,0.3,1.6,0.5
		c0.9,0.2,1.6,0.5,1.9,0.8c0.4,0.3,0.5,0.7,0.5,1.3c0,0.6-0.2,1.1-0.7,1.5s-1.2,0.6-2.2,0.6c-0.9,0-1.6-0.2-2.1-0.5
		S106,30.9,105.8,30.2z"/>
	<path fill="#646462" d="M115.1,23.1v3.3c0.6-0.6,1.2-1,2-1c0.4,0,0.8,0.1,1.1,0.2s0.6,0.3,0.7,0.6c0.2,0.2,0.3,0.5,0.3,0.8
		c0.1,0.3,0.1,0.7,0.1,1.3v3.8h-1.7v-3.4c0-0.7,0-1.1-0.1-1.3c-0.1-0.2-0.2-0.3-0.3-0.4c-0.2-0.1-0.4-0.2-0.6-0.2
		c-0.3,0-0.5,0.1-0.8,0.2c-0.2,0.1-0.4,0.3-0.5,0.6c-0.1,0.3-0.2,0.7-0.2,1.2v3.3h-1.7v-9H115.1z"/>
	<path fill="#646462" d="M128.7,28.8v-1.5h3.9v3.6c-0.4,0.4-0.9,0.7-1.7,1c-0.7,0.3-1.5,0.4-2.2,0.4c-0.9,0-1.8-0.2-2.5-0.6
		s-1.2-1-1.6-1.7s-0.5-1.5-0.5-2.4c0-0.9,0.2-1.8,0.6-2.5c0.4-0.7,1-1.3,1.7-1.7c0.6-0.3,1.3-0.4,2.2-0.4c1.1,0,2,0.2,2.6,0.7
		c0.6,0.5,1,1.1,1.2,1.9l-1.8,0.3c-0.1-0.4-0.4-0.8-0.7-1c-0.3-0.3-0.8-0.4-1.3-0.4c-0.8,0-1.4,0.3-1.9,0.8
		c-0.5,0.5-0.7,1.2-0.7,2.2c0,1.1,0.2,1.9,0.7,2.4s1.1,0.8,1.9,0.8c0.4,0,0.8-0.1,1.1-0.2s0.7-0.3,1-0.5v-1.1H128.7z"/>
	<path fill="#646462" d="M135.6,27.6l-1.6-0.3c0.2-0.6,0.5-1.1,0.9-1.4c0.4-0.3,1.1-0.5,1.9-0.5c0.8,0,1.3,0.1,1.7,0.3
		s0.6,0.4,0.8,0.7c0.2,0.3,0.2,0.8,0.2,1.5l0,2c0,0.6,0,1,0.1,1.3c0.1,0.3,0.2,0.6,0.3,0.9h-1.7c0-0.1-0.1-0.3-0.2-0.5
		c0-0.1,0-0.2-0.1-0.2c-0.3,0.3-0.6,0.5-0.9,0.6c-0.3,0.1-0.7,0.2-1.1,0.2c-0.7,0-1.2-0.2-1.6-0.5c-0.4-0.4-0.6-0.8-0.6-1.4
		c0-0.4,0.1-0.7,0.3-1c0.2-0.3,0.4-0.5,0.7-0.7s0.8-0.3,1.4-0.4c0.8-0.2,1.4-0.3,1.7-0.4v-0.2c0-0.3-0.1-0.6-0.2-0.7
		c-0.2-0.1-0.5-0.2-0.9-0.2c-0.3,0-0.5,0.1-0.7,0.2C135.8,27.1,135.7,27.3,135.6,27.6z M137.9,29c-0.2,0.1-0.6,0.2-1,0.3
		s-0.8,0.2-0.9,0.3c-0.2,0.2-0.3,0.4-0.3,0.6c0,0.2,0.1,0.4,0.3,0.6s0.4,0.3,0.7,0.3c0.3,0,0.6-0.1,0.9-0.3c0.2-0.2,0.3-0.3,0.4-0.6
		c0-0.1,0.1-0.4,0.1-0.8V29z"/>
	<path fill="#646462" d="M140.7,30.2l1.7-0.3c0.1,0.3,0.2,0.6,0.4,0.8c0.2,0.2,0.5,0.3,0.9,0.3c0.4,0,0.8-0.1,1-0.2
		c0.2-0.1,0.2-0.3,0.2-0.5c0-0.1,0-0.2-0.1-0.3c-0.1-0.1-0.3-0.2-0.6-0.2c-1.4-0.3-2.3-0.6-2.6-0.8c-0.5-0.4-0.8-0.8-0.8-1.5
		c0-0.6,0.2-1,0.7-1.4c0.4-0.4,1.1-0.6,2.1-0.6c0.9,0,1.6,0.1,2,0.4c0.4,0.3,0.7,0.7,0.9,1.3l-1.6,0.3c-0.1-0.3-0.2-0.4-0.4-0.6
		c-0.2-0.1-0.5-0.2-0.8-0.2c-0.5,0-0.8,0.1-1,0.2c-0.1,0.1-0.2,0.2-0.2,0.3c0,0.1,0.1,0.2,0.2,0.3c0.2,0.1,0.7,0.3,1.6,0.5
		c0.9,0.2,1.6,0.5,1.9,0.8c0.4,0.3,0.5,0.7,0.5,1.3c0,0.6-0.2,1.1-0.7,1.5s-1.2,0.6-2.2,0.6c-0.9,0-1.6-0.2-2.1-0.5
		S140.8,30.9,140.7,30.2z"/>
</g>
<g>
	<path fill="#F37820" d="M99.2,47.1c-2.4,0-4.4,2.1-4.4,4.4c0,0.4,0.1,2.6,2.5,4c0.9,0.5,1.1,2,0.3,2.7c-0.1,0.1-0.1,0.4,0.1,0.4
		c0.2,0,0.9-0.2,1.9-0.6c2.2-1,4-3.6,4-6.4C103.6,49.1,101.7,47.1,99.2,47.1z"/>
	<path fill="#3162AD" d="M89.8,40.9c2.4,0,4.4,2.1,4.4,4.4c0,0.4-0.1,2.6-2.5,4c-0.9,0.5-1.1,2-0.3,2.7c0.1,0.1,0.1,0.4-0.1,0.4
		c-0.2,0-0.9-0.2-1.9-0.6c-2.2-1-4-3.6-4-6.4C85.4,42.9,87.4,40.9,89.8,40.9z"/>
	<path fill="#F37820" d="M20.1,47c-4.2,0-5.5,2.4-5.5,5.2v3.5c0,3.2,1.4,5.1,5.6,5.1c1.6,0,3.4-0.3,4.9-0.8l-0.5-2.5
		c-1.4,0.4-2.8,0.6-4,0.6c-2,0-2.6-0.6-2.6-2.2v-0.7h7.4v-2.8C25.3,49.5,24.3,47,20.1,47 M22.1,52.5h-4.2v-0.7
		c0-1.2,0.6-2.1,2.2-2.1s2,0.9,2,2.1V52.5z"/>
	<path fill="#F37820" d="M33.4,47c-4.2,0-5.5,2.4-5.5,5.2v3.5c0,3.2,1.4,5.1,5.6,5.1c1.6,0,3.4-0.3,4.9-0.8l-0.5-2.5
		c-1.4,0.4-2.8,0.6-4,0.6c-2,0-2.6-0.6-2.6-2.2v-0.7h7.4v-2.8C38.6,49.5,37.7,47,33.4,47 M35.5,52.5h-4.2v-0.7
		c0-1.2,0.6-2.1,2.2-2.1c1.6,0,2,0.9,2,2.1V52.5z"/>
	<polygon fill="#F37820" points="46.6,57.4 43.6,47.3 40.2,47.3 44.4,60.5 48.8,60.5 53,47.3 49.6,47.3 	"/>
	<path fill="#F37820" d="M60.4,47c-4.5,0-5.8,2.5-5.8,5.2v3.3c0,2.7,1.2,5.2,5.8,5.2c4.5,0,5.8-2.5,5.8-5.2v-3.3
		C66.1,49.5,64.9,47,60.4,47 M62.8,55.7c0,1.5-0.7,2.3-2.4,2.3c-1.8,0-2.4-0.8-2.4-2.3v-3.6c0-1.5,0.7-2.3,2.4-2.3
		c1.8,0,2.4,0.8,2.4,2.3V55.7z"/>
	<path fill="#F37820" d="M74.7,47c-4.5,0-5.8,2.5-5.8,5.2v3.3c0,2.7,1.2,5.2,5.8,5.2c4.5,0,5.8-2.5,5.8-5.2v-3.3
		C80.5,49.5,79.2,47,74.7,47 M77.2,55.7c0,1.5-0.7,2.3-2.4,2.3c-1.8,0-2.4-0.8-2.4-2.3v-3.6c0-1.5,0.7-2.3,2.4-2.3
		c1.8,0,2.4,0.8,2.4,2.3V55.7z"/>
	<path fill="#F37820" d="M7.7,48.8l-0.2-1.5H4.7v13.2H8l0-8.6c0,0,0.8-0.7,1.9-1.3c1.1-0.5,2.5-0.4,2.5-0.4l0.2-2.8
		c0,0-1.6-0.2-2.8,0.2C8.7,48,7.7,48.8,7.7,48.8"/>
</g>
</svg>
