<?xml version="1.0" encoding="utf-8"?>
<!-- Generator: Adobe Illustrator 18.0.0, SVG Export Plug-In . SVG Version: 6.00 Build 0)  -->
<!DOCTYPE svg PUBLIC "-//W3C//DTD SVG 1.1//EN" "http://www.w3.org/Graphics/SVG/1.1/DTD/svg11.dtd">
<svg version="1.1" id="Saving" xmlns="http://www.w3.org/2000/svg" xmlns:xlink="http://www.w3.org/1999/xlink" x="0px" y="0px"
	 viewBox="0 0 111.3 111.3" enable-background="new 0 0 111.3 111.3" xml:space="preserve">
<circle fill="#00AAED" cx="55.7" cy="56.1" r="54.4"/>
<g>
	<defs>
		<circle id="SVGID_1_" cx="55.7" cy="56.1" r="54.4"/>
	</defs>
	<clipPath id="SVGID_2_">
		<use xlink:href="#SVGID_1_"  overflow="visible"/>
	</clipPath>
	<path clip-path="url(#SVGID_2_)" fill="#0092D3" d="M131.6,79.6l-55-55l-1.8,1.8c-6.6-3.6-16.6-3.8-16.6-3.8
		C34.1,24.1,39,49.2,39,49.2h-5.3v13.1h6.9c0,10-2.3,17.1-3.9,20.9l-3.4,3.4L79,132.3l45.2-45.2l-0.1-0.1L131.6,79.6z"/>
</g>
<g>
	
		<path fill="none" stroke="#FFFFFF" stroke-width="3.8869" stroke-linecap="round" stroke-linejoin="round" stroke-miterlimit="10" d="
		M40.5,70.8c0.3-1.8,0.6-3.6,0.6-5.6c0-1.1-0.1-2-0.3-3.6h-7.2c-0.2-1.6-0.4-2.6-0.5-3.6c-0.1-0.9-0.1-1.9-0.1-2.7
		c0-0.8,0-1.8,0.1-2.7c0.1-0.9,0.2-1.9,0.5-3.4H39c-0.1-1.6-0.2-2.1-0.3-3.3c-0.1-1.2-0.1-2.3-0.1-3.5c0-2.4,0.4-4.8,1.3-7.2
		c0.8-2.4,2.1-4.4,3.9-6.3c1.7-1.9,3.9-3.4,6.6-4.5c2.7-1.2,5.8-1.7,9.5-1.7c3.1,0,5.8,0.3,8.1,0.8c2.4,0.5,4.7,1.3,6.9,2.3
		c-0.1,1.7-0.4,3.6-1,5.7c-0.5,2.1-1.4,4.4-2.5,6.8c-1.3-0.6-2.8-1.2-4.4-1.8c-1.6-0.6-3.5-0.9-5.7-0.9c-1.5,0-2.7,0.2-3.7,0.7
		c-1,0.5-1.8,1.1-2.4,1.9c-0.6,0.8-1,1.6-1.3,2.5c-0.3,0.9-0.4,1.8-0.4,2.7c0,1.1,0.1,2.1,0.2,3.1c0.1,1.1,0.2,2.7,0.3,2.7h12.6
		c0.2,1.6,0.4,2.7,0.5,3.6c0.1,0.9,0.1,1.9,0.1,2.8c0,0.8,0,1.8-0.1,2.6c-0.1,0.9-0.2,1.9-0.5,3.4H55.9c0.1,0,0.2,3-0.1,6
		c-0.2,1.6-0.8,3.4-1.4,4.9h20.1c0.3,0,0.5,2.3,0.5,3.4c0.1,1.1,0.1,1.9,0.1,2.7c0,0.9,0,1.7-0.1,2.8c-0.1,1.1-0.2,2-0.5,3.5h-40
		C34.5,85,39.3,77.5,40.5,70.8z"/>
</g>
</svg>
