<?xml version="1.0" encoding="utf-8"?>
<!-- Generator: Adobe Illustrator 18.0.0, SVG Export Plug-In . SVG Version: 6.00 Build 0)  -->
<!DOCTYPE svg PUBLIC "-//W3C//DTD SVG 1.1//EN" "http://www.w3.org/Graphics/SVG/1.1/DTD/svg11.dtd">
<svg version="1.1" id="Layer_1" xmlns="http://www.w3.org/2000/svg" xmlns:xlink="http://www.w3.org/1999/xlink" x="0px" y="0px"
	 viewBox="0 0 595.3 206.1" enable-background="new 0 0 595.3 206.1" xml:space="preserve">
<g>
	<defs>
		<rect id="SVGID_1_" y="0" width="595.3" height="206.1"/>
	</defs>
	<clipPath id="SVGID_2_">
		<use xlink:href="#SVGID_1_"  overflow="visible"/>
	</clipPath>
	<g clip-path="url(#SVGID_2_)">
		<g opacity="0.7">
			<path fill="none" stroke="#FFFFFF" stroke-width="0.25" d="M387.2-26.5c0-54-43.8-97.9-97.9-97.9s-97.9,43.8-97.9,97.9
				s43.8,97.9,97.9,97.9S387.2,27.6,387.2-26.5z"/>
			<path fill="none" stroke="#FFFFFF" stroke-width="0.4375" d="M372.2-26.5c0-45.8-37.1-82.9-82.9-82.9s-82.9,37.1-82.9,82.9
				s37.1,82.9,82.9,82.9S372.2,19.3,372.2-26.5z"/>
			<path fill="none" stroke="#FFFFFF" stroke-width="0.625" d="M357.3-26.5c0-37.5-30.4-68-68-68s-68,30.4-68,68s30.4,68,68,68
				S357.3,11.1,357.3-26.5z"/>
			<path fill="none" stroke="#FFFFFF" stroke-width="0.8125" d="M342.3-26.5c0-29.3-23.7-53-53-53c-29.3,0-53,23.7-53,53
				s23.7,53,53,53C318.6,26.6,342.3,2.8,342.3-26.5z"/>
			<path fill="none" stroke="#FFFFFF" d="M327.4-26.5c0-21-17-38.1-38.1-38.1s-38.1,17-38.1,38.1s17,38.1,38.1,38.1
				S327.4-5.4,327.4-26.5z"/>
		</g>
		<g opacity="0.7">
			<g>
				<path fill="#FFFFFF" d="M292,212.4c0,1.4-1.2,2.6-2.6,2.6H66.7c-1.4,0-2.6-1.2-2.6-2.6V-30.4c0-1.4,1.2-2.6,2.6-2.6h222.6
					c1.4,0,2.6,1.2,2.6,2.6V212.4z"/>
				<path fill="none" stroke="#FFFFFF" d="M292,212.4c0,1.4-1.2,2.6-2.6,2.6H66.7c-1.4,0-2.6-1.2-2.6-2.6V-30.4
					c0-1.4,1.2-2.6,2.6-2.6h222.6c1.4,0,2.6,1.2,2.6,2.6V212.4z"/>
			</g>
			<g>
				<path fill="#F1F0F0" d="M244.8,20.5c0-2.3-1.9-4.2-4.2-4.2H115.5c-2.3,0-4.2,1.9-4.2,4.2v46.7c0,2.3,1.9,4.2,4.2,4.2h125.1
					c2.3,0,4.2-1.9,4.2-4.2V20.5z"/>
			</g>
			<path fill="#F1F0F0" stroke="#FFFFFF" stroke-width="0.5" d="M296.7,132c0,2.6-2.1,4.8-4.8,4.8H64.1c-2.6,0-4.8-2.1-4.8-4.8l0,0
				c0-2.6,2.1-4.8,4.8-4.8H292C294.6,127.2,296.7,129.4,296.7,132L296.7,132z"/>
			<path fill="none" stroke="#F1F0F0" d="M253.1,67.2c0,6.9-5.6,12.5-12.5,12.5H115.5c-6.9,0-12.5-5.6-12.5-12.5V20.5
				c0-6.9,5.6-12.5,12.5-12.5h125.1c6.9,0,12.5,5.6,12.5,12.5V67.2z M244.8,20.5c0-2.3-1.9-4.2-4.2-4.2H115.5
				c-2.3,0-4.2,1.9-4.2,4.2v46.7c0,2.3,1.9,4.2,4.2,4.2h125.1c2.3,0,4.2-1.9,4.2-4.2V20.5z"/>
			<rect x="122.8" y="35.3" fill="#FFFFFF" stroke="#FFFFFF" stroke-width="0.2292" width="22.1" height="17"/>
			<path fill="#F1F0F0" d="M138.1,43.9c0,2.3-1.9,4.2-4.2,4.2c-2.3,0-4.2-1.9-4.2-4.2c0-2.3,1.9-4.2,4.2-4.2
				C136.2,39.7,138.1,41.5,138.1,43.9z"/>
			<rect x="144.9" y="35.3" fill="#FFFFFF" stroke="#FFFFFF" stroke-width="0.2292" width="22.1" height="17"/>
			<path fill="#F1F0F0" d="M160.2,43.9c0,2.3-1.9,4.2-4.2,4.2c-2.3,0-4.2-1.9-4.2-4.2c0-2.3,1.9-4.2,4.2-4.2
				C158.3,39.7,160.2,41.5,160.2,43.9z"/>
			<rect x="167" y="35.3" fill="#FFFFFF" stroke="#FFFFFF" stroke-width="0.2292" width="22.1" height="17"/>
			<path fill="#F1F0F0" d="M182.2,43.9c0,2.3-1.9,4.2-4.2,4.2c-2.3,0-4.2-1.9-4.2-4.2c0-2.3,1.9-4.2,4.2-4.2
				C180.4,39.7,182.2,41.5,182.2,43.9z"/>
			<rect x="189.1" y="35.3" fill="#FFFFFF" stroke="#FFFFFF" stroke-width="0.2292" width="22.1" height="17"/>
			<path fill="#F1F0F0" d="M204.3,43.9c0,2.3-1.9,4.2-4.2,4.2c-2.3,0-4.2-1.9-4.2-4.2c0-2.3,1.9-4.2,4.2-4.2
				C202.4,39.7,204.3,41.5,204.3,43.9z"/>
			<rect x="211.2" y="35.3" fill="#FFFFFF" width="22.1" height="17"/>
			<path fill="#F1F0F0" d="M222.2,38.9c2.3,0,4.2-1.3,4.2-2.8H218C218,37.7,219.9,38.9,222.2,38.9z"/>
			<path fill="#F1F0F0" d="M222.2,48.8c-2.3,0-4.2,1.2-4.2,2.8h8.4C226.4,50.1,224.5,48.8,222.2,48.8z"/>
		</g>
		<g opacity="0.7">
			<rect x="218.3" y="127.7" fill="#454545" stroke="#454545" stroke-width="0.4583" width="66.2" height="18.8"/>
			<g>
				<polyline fill="#506873" points="509.1,95.4 507.9,95.4 215.9,95.4 				"/>
			</g>
			<path fill="#FFFFFF" d="M509.1,265.2c18.3,0,20.3-23.2,22.4-36.4c3.6-21.9,5.7-44.4,5.7-66.7c0-21.6-2.1-43.3-5.4-64.6
				c-2.2-14-3.1-38.9-22.8-38.9h-1.2h-292c-19.7,0-20.6,24.9-22.8,38.9c-3.3,21.3-5.4,43.1-5.4,64.6c0,22.2,2.1,44.7,5.7,66.7
				c2.2,13.2,4.2,36.4,22.4,36.4c1,0,292,0,292,0H509.1z"/>
			<path fill="none" d="M509.1,265.2c18.3,0,20.3-23.2,22.4-36.4c3.6-21.9,5.7-44.4,5.7-66.7c0-21.6-2.1-43.3-5.4-64.6
				c-2.2-14-3.1-38.9-22.8-38.9h-1.2h-292c-19.7,0-20.6,24.9-22.8,38.9c-3.3,21.3-5.4,43.1-5.4,64.6c0,22.2,2.1,44.7,5.7,66.7
				c2.2,13.2,4.2,36.4,22.4,36.4c1,0,292,0,292,0H509.1z"/>
			<g>
				<path fill="#F1F0F0" d="M345.2,84.4c-2.6,0-4.7-2.1-4.7-4.7c0-2.6,2.1-4.7,4.7-4.7c2.6,0,4.7,2.1,4.7,4.7
					C349.9,82.3,347.8,84.4,345.2,84.4z"/>
				<path fill="#F1F0F0" d="M354.6,79.1c-2.1,0-3.7-1.7-3.7-3.7c0-2.1,1.7-3.7,3.7-3.7c2.1,0,3.7,1.7,3.7,3.7
					C358.3,77.4,356.7,79.1,354.6,79.1z"/>
				<path fill="#F1F0F0" d="M362.4,75.2c-1.8,0-3.2-1.4-3.2-3.2c0-1.8,1.4-3.2,3.2-3.2c1.8,0,3.2,1.4,3.2,3.2
					C365.6,73.8,364.2,75.2,362.4,75.2z"/>
				<path fill="#F1F0F0" d="M369.5,73.1c-1.5,0-2.7-1.2-2.7-2.7c0-1.5,1.2-2.7,2.7-2.7c1.5,0,2.7,1.2,2.7,2.7
					C372.1,71.9,370.9,73.1,369.5,73.1z"/>
				<path fill="#F1F0F0" d="M376,72.6c-1.2,0-2.1-1-2.1-2.1c0-1.2,1-2.1,2.1-2.1c1.2,0,2.1,1,2.1,2.1
					C378.1,71.6,377.2,72.6,376,72.6z"/>
				<path fill="#F1F0F0" d="M381.2,73.6c-0.9,0-1.6-0.7-1.6-1.6c0-0.9,0.7-1.6,1.6-1.6c0.9,0,1.6,0.7,1.6,1.6
					C382.8,72.9,382.1,73.6,381.2,73.6z"/>
			</g>
			<g>
				<g>
					<rect x="245.9" y="92.4" fill="#F1F0F0" width="231.9" height="137.6"/>
					<rect x="245.9" y="92.4" fill="#F1F0F0" width="231.9" height="137.6"/>
				</g>
			</g>
			<g>
				<path fill="none" stroke="#FFFFFF" stroke-width="0.4" d="M362.5,206.1c-0.1,0-0.6,0-1.3,0l-33.2-0.6c-0.6,0-1.2-0.6-1.3-1.2
					c0,0-2.5-24.1-2.5-32.5c0-8.4,2.5-32.5,2.5-32.5c0.1-0.6,0.6-1.2,1.3-1.2l33.2-0.7c0.6,0,1.2,0,1.3,0c0.1,0,0.6,0,1.3,0L397,138
					c0.6,0,1.2,0.6,1.3,1.2c0,0,2.5,24.1,2.5,32.5c0,8.4-2.5,32.5-2.5,32.5c-0.1,0.6-0.6,1.2-1.3,1.2l-33.2,0.6
					C363.2,206.1,362.6,206.1,362.5,206.1z"/>
			</g>
			<g>
				<path fill="none" stroke="#FFFFFF" stroke-width="0.4" d="M285.8,199.2c-0.1,0-0.5,0-1,0l-26.5-0.5c-0.5,0-1-0.4-1-0.9
					c0,0-2-19.3-2-26c0-6.7,2-26,2-26c0.1-0.5,0.5-0.9,1-1l26.5-0.5c0.5,0,1,0,1,0s0.5,0,1,0l26.5,0.5c0.5,0,1,0.4,1,1
					c0,0,2,19.3,2,26c0,6.7-2,26-2,26c-0.1,0.5-0.5,0.9-1,0.9l-26.5,0.5C286.3,199.2,285.9,199.2,285.8,199.2z"/>
			</g>
			<g>
				<path fill="none" stroke="#FFFFFF" stroke-width="0.4" d="M439.3,199.2c-0.1,0-0.5,0-1,0l-26.5-0.5c-0.5,0-1-0.4-1-0.9
					c0,0-2-19.3-2-26c0-6.7,2-26,2-26c0.1-0.5,0.5-0.9,1-1l26.5-0.5c0.5,0,1,0,1,0s0.5,0,1,0l26.5,0.5c0.5,0,1,0.4,1,1
					c0,0,2,19.3,2,26c0,6.7-2,26-2,26c-0.1,0.5-0.5,0.9-1,0.9l-26.5,0.5C439.8,199.2,439.3,199.2,439.3,199.2z"/>
			</g>
			<g>
				<path fill="#FFFFFF" d="M339.6,161c5.5,0,6.6,5.7,6.6,10c0,4.1-1.2,10-6.6,10c-5.5,0-6.6-5.9-6.6-10
					C332.9,166.7,334.1,161,339.6,161z M339.6,178.6c3.6,0,4-5.2,4-7.7c0-2.7-0.4-7.7-4-7.7c-3.6,0-4,5-4,7.7
					C335.6,173.5,335.9,178.6,339.6,178.6z"/>
				<path fill="#FFFFFF" d="M347.1,179c0-1,0.8-1.8,1.8-1.8c1,0,1.8,0.8,1.8,1.8c0,1-0.8,1.8-1.8,1.8
					C347.9,180.8,347.1,179.9,347.1,179z"/>
				<path fill="#FFFFFF" d="M358.2,161c5.5,0,6.6,5.7,6.6,10c0,4.1-1.2,10-6.6,10c-5.5,0-6.6-5.9-6.6-10
					C351.5,166.7,352.7,161,358.2,161z M358.2,178.6c3.7,0,4-5.2,4-7.7c0-2.7-0.4-7.7-4-7.7c-3.6,0-4,5-4,7.7
					C354.1,173.5,354.5,178.6,358.2,178.6z"/>
				<path fill="#FFFFFF" d="M366.7,177.8l7.7-7.7c1.1-1,2.1-2.4,2.1-3.9c0-1.9-1.5-3.1-3.3-3.1c-1.9,0-3.2,1.1-3.5,3l-2.8-0.3
					c0.5-3.4,3-5,6.4-5c3.3,0,6.1,1.8,6.1,5.3c0,2.5-1.6,4.4-3.4,6l-6.3,6.1h9.7v2.3h-12.6V177.8z"/>
				<path fill="#FFFFFF" d="M386.5,164.3l-3.5,3.3l-1.5-1.8l5.4-4.4h2.3v19.3h-2.6V164.3z"/>
			</g>
			<g>
				<path fill="#FFFFFF" d="M426.2,162.7c4.5,0,5.4,4.7,5.4,8.1c0,3.3-1,8.1-5.4,8.1c-4.5,0-5.4-4.8-5.4-8.1
					C420.8,167.4,421.8,162.7,426.2,162.7z M426.2,177.1c3,0,3.3-4.2,3.3-6.2c0-2.2-0.3-6.2-3.3-6.2c-3,0-3.3,4.1-3.3,6.2
					C423,172.9,423.3,177.1,426.2,177.1z"/>
				<path fill="#FFFFFF" d="M433.9,177.3c0-0.8,0.7-1.5,1.5-1.5c0.8,0,1.5,0.7,1.5,1.5c0,0.8-0.7,1.5-1.5,1.5
					C434.5,178.8,433.9,178.1,433.9,177.3z"/>
				<path fill="#FFFFFF" d="M444.4,162.7c4.5,0,5.4,4.7,5.4,8.1c0,3.3-1,8.1-5.4,8.1c-4.5,0-5.4-4.8-5.4-8.1
					C439,167.4,439.9,162.7,444.4,162.7z M444.4,177.1c3,0,3.3-4.2,3.3-6.2c0-2.2-0.3-6.2-3.3-6.2c-3,0-3.3,4.1-3.3,6.2
					C441.1,172.9,441.4,177.1,444.4,177.1z"/>
				<path fill="#FFFFFF" d="M456.1,165.4l-2.9,2.7l-1.2-1.5l4.4-3.6h1.9v15.7h-2.1V165.4z"/>
			</g>
			<g>
				<path fill="#FFFFFF" d="M265.7,176.4l6.3-6.2c0.9-0.8,1.7-1.9,1.7-3.2c0-1.6-1.2-2.5-2.7-2.5c-1.5,0-2.6,0.9-2.9,2.4l-2.3-0.2
					c0.4-2.8,2.5-4.1,5.2-4.1c2.7,0,4.9,1.5,4.9,4.3c0,2.1-1.3,3.5-2.7,4.9l-5.2,5h7.9v1.9h-10.3V176.4z"/>
				<path fill="#FFFFFF" d="M278.7,177.3c0-0.8,0.7-1.5,1.5-1.5c0.8,0,1.5,0.7,1.5,1.5c0,0.8-0.7,1.5-1.5,1.5
					C279.4,178.8,278.7,178.1,278.7,177.3z"/>
				<path fill="#FFFFFF" d="M293.9,165h-6.4l-0.1,3.9c0.4-0.2,1.6-0.3,2.1-0.3c2.9,0,4.9,2.1,4.9,5.2c0,3.1-2.5,5.2-5.5,5.2
					c-2.1,0-4-1.1-4.7-3.2l2.1-0.7c0.6,1.4,1.5,2,2.9,2c1.7,0,3.1-1.2,3.1-3.2c0-2.3-1.5-3.4-3.8-3.4c-0.8,0-2.2,0.3-3.2,0.8
					l0.2-8.3h8.4V165z"/>
				<path fill="#FFFFFF" d="M302.7,172.6L302.7,172.6c-0.6,0.2-1.2,0.4-1.8,0.4c-2.3,0-4.9-1.5-4.9-5c0-3.5,2.4-5.3,5.4-5.3
					c2.9,0,5.4,2,5.4,5c0,1.9-0.6,3.1-1.6,4.6l-4,6.3h-2.5L302.7,172.6z M301.4,164.6c-1.9,0-3.3,1.4-3.3,3.3c0,1.9,1.3,3.3,3.3,3.3
					c1.9,0,3.3-1.4,3.3-3.3C304.7,165.9,303.4,164.6,301.4,164.6z"/>
			</g>
			<g>
				<path fill="none" stroke="#FFFFFF" stroke-width="0.4" d="M404.9,131c-0.1,0.3-0.4,0.5-0.7,0.5c-27.9-4.8-56.4-4.8-84.2,0
					c-0.3,0.1-0.6-0.2-0.7-0.5c-1.2-7.1-2.5-14.2-3.7-21.2c-0.1-0.3,0.2-0.6,0.5-0.7c30.4-5.2,61.5-5.2,91.9,0
					c0.3,0.1,0.6,0.4,0.5,0.7C407.4,116.9,406.1,123.9,404.9,131z"/>
			</g>
			<path fill="#FFFFFF" d="M377.2,123.5c-1.9-0.1-5.1-0.3-7-0.4c-14.4-0.5-28.8,0.4-43.1,2.6c-1.9,0.3-3.7-1-4.1-2.9
				c-0.4-2.2-0.8-4.4-1.1-6.6c-0.3-1.9,1-3.7,3.1-4.1c15.1-2.4,30.4-3.3,45.6-2.8c2,0.1,5.4,0.2,7.4,0.4L377.2,123.5z"/>
		</g>
	</g>
</g>
</svg>
