<?xml version="1.0" encoding="utf-8"?>
<!-- Generator: Adobe Illustrator 18.0.0, SVG Export Plug-In . SVG Version: 6.00 Build 0)  -->
<!DOCTYPE svg PUBLIC "-//W3C//DTD SVG 1.1//EN" "http://www.w3.org/Graphics/SVG/1.1/DTD/svg11.dtd">
<svg version="1.1" xmlns="http://www.w3.org/2000/svg" xmlns:xlink="http://www.w3.org/1999/xlink" x="0px" y="0px"
	 viewBox="0 0 111.3 111.3" enable-background="new 0 0 111.3 111.3" xml:space="preserve">
<g id="Layer_1" display="none">
	<circle display="inline" fill="#F2F2F2" cx="55.6" cy="56.2" r="54.5"/>
</g>
<g id="Layer_39">
	<path fill="#0B2F6B" d="M79.7,96.2H10.7c-3.3,0-6-2.7-6-6V43.4c0-3.3,2.7-6,6-6h69.1c3.3,0,6,2.7,6,6v46.9
		C85.7,93.5,83,96.2,79.7,96.2z M10.7,40.9c-1.4,0-2.5,1.1-2.5,2.5v46.8c0,1.4,1.1,2.5,2.5,2.5h69.1c1.4,0,2.5-1.1,2.5-2.5V43.4
		c0-1.4-1.1-2.5-2.5-2.5H10.7z"/>
	<path fill="#0B2F6B" d="M33,75.8c0,1.6-1.3,2.9-2.9,2.9H17.1c-1.6,0-2.9-1.3-2.9-2.9v-18c0-1.6,1.3-2.9,2.9-2.9h12.9
		c1.6,0,2.9,1.3,2.9,2.9L33,75.8z"/>
	<path fill="#0B2F6B" d="M54.7,75.8c0,1.6-1.3,2.9-2.9,2.9H38.9c-1.6,0-2.9-1.3-2.9-2.9v-18c0-1.6,1.3-2.9,2.9-2.9h12.9
		c1.6,0,2.9,1.3,2.9,2.9L54.7,75.8z"/>
	<path fill="#0B2F6B" d="M76.4,75.8c0,1.6-1.3,2.9-2.9,2.9h-13c-1.6,0-2.9-1.3-2.9-2.9v-18c0-1.6,1.3-2.9,2.9-2.9h12.9
		c1.6,0,2.9,1.3,2.9,2.9L76.4,75.8L76.4,75.8z"/>
	<g>
		<path fill="#FFFFFF" d="M22,72h4.7c0.2,0,0.3,0.1,0.5,0.2c0.1,0.1,0.2,0.3,0.2,0.5c0,0.2-0.1,0.3-0.2,0.5
			c-0.1,0.1-0.3,0.2-0.5,0.2h-6c-0.3,0-0.5-0.1-0.6-0.2c-0.1-0.1-0.2-0.3-0.2-0.4c0-0.2,0.1-0.4,0.3-0.7l4.3-5.8
			c0.6-0.8,0.9-1.5,0.9-2.2c0-0.4-0.1-0.7-0.3-1c-0.2-0.3-0.4-0.5-0.7-0.7c-0.3-0.2-0.6-0.2-1-0.2c-0.5,0-0.9,0.1-1.2,0.4
			s-0.6,0.6-0.8,1c-0.2,0.4-0.3,0.9-0.3,1.4c0,0.2-0.1,0.4-0.2,0.5s-0.3,0.2-0.5,0.2c-0.5,0-0.8-0.3-0.8-1c0-0.5,0.1-1,0.3-1.5
			s0.4-0.9,0.8-1.2c0.3-0.4,0.7-0.6,1.2-0.9c0.5-0.2,1.1-0.3,1.7-0.3c0.7,0,1.2,0.1,1.8,0.4c0.5,0.3,0.9,0.7,1.2,1.2
			c0.3,0.5,0.4,1,0.4,1.5c0,0.4-0.1,0.9-0.2,1.3c-0.1,0.4-0.3,0.8-0.7,1.3L22,72z"/>
	</g>
	<g>
		<path fill="#FFFFFF" d="M45,73.4c-0.5,0-1-0.1-1.5-0.3c-0.5-0.2-0.8-0.5-1.2-0.9c-0.3-0.4-0.6-0.8-0.8-1.4
			c-0.2-0.5-0.3-1.1-0.3-1.7c0-0.9,0.1-1.7,0.4-2.5c0.3-0.8,0.6-1.5,1-2.2c0.4-0.7,0.9-1.3,1.4-1.9c0.5-0.6,1-1.1,1.5-1.5
			c0.3-0.2,0.5-0.3,0.7-0.3c0.1,0,0.2,0,0.3,0.1c0.1,0.1,0.2,0.1,0.2,0.2c0.1,0.1,0.1,0.2,0.1,0.4c0,0.1,0,0.2-0.1,0.3
			c-0.1,0.1-0.2,0.3-0.5,0.5c-0.5,0.5-1,0.9-1.4,1.4c-0.4,0.5-0.8,1.2-1.3,2h0c0.3-0.2,0.6-0.3,0.9-0.4c0.3-0.1,0.7-0.1,1-0.1
			c0.6,0,1.2,0.2,1.7,0.6c0.5,0.4,0.8,0.9,1.1,1.5c0.2,0.6,0.4,1.3,0.4,2.1c0,0.5-0.1,1.1-0.3,1.6c-0.2,0.5-0.5,0.9-0.8,1.3
			c-0.3,0.4-0.7,0.6-1.2,0.9C46,73.3,45.5,73.4,45,73.4z M42.8,69.3c0,0.8,0.2,1.4,0.5,1.9c0.4,0.5,0.9,0.8,1.6,0.8
			c0.7,0,1.3-0.3,1.6-0.8c0.4-0.5,0.5-1.1,0.5-1.9c0-0.9-0.2-1.5-0.5-2c-0.4-0.5-0.9-0.7-1.6-0.7c-0.7,0-1.3,0.3-1.6,0.8
			C43,67.9,42.8,68.5,42.8,69.3z"/>
	</g>
	<g>
		<path fill="#FFFFFF" d="M64,63.6c0-0.6,0.2-1.1,0.5-1.5c0.3-0.4,0.7-0.8,1.2-1c0.5-0.2,1-0.3,1.5-0.3c0.5,0,1.1,0.1,1.5,0.3
			c0.5,0.2,0.9,0.5,1.2,1c0.3,0.4,0.5,1,0.5,1.5c0,0.6-0.1,1.2-0.4,1.6c-0.3,0.4-0.7,0.8-1.2,1.2c0.3,0.1,0.7,0.2,0.9,0.4
			c0.3,0.2,0.5,0.4,0.7,0.7s0.3,0.6,0.4,0.9c0.1,0.3,0.1,0.7,0.1,1c0,1.1-0.3,2-1,2.8c-0.7,0.8-1.6,1.2-2.8,1.2
			c-0.8,0-1.4-0.2-2-0.5c-0.6-0.4-1-0.8-1.3-1.5c-0.3-0.6-0.4-1.2-0.4-1.9c0-0.8,0.2-1.4,0.6-2c0.4-0.6,0.9-1,1.6-1.1
			c-0.4-0.2-0.7-0.5-0.9-0.7c-0.2-0.3-0.4-0.5-0.5-0.9S64,64,64,63.6z M65,69.5c0,0.5,0.1,1,0.3,1.4c0.2,0.4,0.5,0.7,0.8,0.9
			c0.3,0.2,0.7,0.3,1.1,0.3c0.6,0,1.1-0.2,1.5-0.7s0.6-1.1,0.6-1.8c0-0.7-0.2-1.3-0.6-1.8S67.8,67,67.2,67c-0.7,0-1.2,0.2-1.6,0.7
			C65.2,68.3,65,68.8,65,69.5z M65.4,63.9c0,0.5,0.2,1,0.5,1.3c0.3,0.3,0.7,0.5,1.3,0.5c0.4,0,0.7-0.1,0.9-0.2
			c0.3-0.2,0.5-0.4,0.6-0.7c0.1-0.3,0.2-0.6,0.2-0.9c0-0.5-0.2-1-0.5-1.3c-0.3-0.3-0.7-0.5-1.3-0.5s-1,0.2-1.3,0.5
			C65.6,62.9,65.4,63.3,65.4,63.9z"/>
	</g>
	<g>
		<defs>
			<polygon id="SVGID_1_" points="48.7,2.2 48.7,38.9 84.6,38.9 84.6,75.7 111.3,75.7 111.3,38.9 111.3,2.2 			"/>
		</defs>
		<clipPath id="SVGID_2_">
			<use xlink:href="#SVGID_1_"  overflow="visible"/>
		</clipPath>
		<g clip-path="url(#SVGID_2_)">
			<g>
				<g>
					<path fill="#0B2F6B" d="M80.1,69.9c-14.7,0-26.6-11.9-26.6-26.6s11.9-26.6,26.6-26.6c14.7,0,26.6,11.9,26.6,26.6
						S94.8,69.9,80.1,69.9z M80.1,18.2c-13.8,0-25,11.2-25,25s11.2,25,25,25c13.8,0,25-11.2,25-25S93.9,18.2,80.1,18.2z"/>
					<path fill="#0B2F6B" d="M80.1,62.5c-10.6,0-19.2-8.6-19.2-19.2s8.6-19.2,19.2-19.2c10.6,0,19.2,8.6,19.2,19.2
						S90.7,62.5,80.1,62.5z M80.1,26.6c-9.2,0-16.7,7.5-16.7,16.7S70.9,60,80.1,60c9.2,0,16.7-7.5,16.7-16.7S89.3,26.6,80.1,26.6z"
						/>
					<path fill="#0B2F6B" d="M80.1,54.7L80.1,54.7C80.1,54.7,80.1,54.7,80.1,54.7c-6.3,0-11.5-5.1-11.5-11.5s5.1-11.5,11.5-11.5
						S91.5,37,91.5,43.3c0,3.1-1.2,5.9-3.3,8.1C86,53.5,83.2,54.7,80.1,54.7z M80.1,34.6c-4.8,0-8.6,3.9-8.6,8.6s3.9,8.6,8.6,8.6h0
						l0,0c2.3,0,4.5-0.9,6.1-2.5c1.6-1.6,2.5-3.8,2.5-6.1C88.7,38.5,84.8,34.6,80.1,34.6z"/>
				</g>
			</g>
		</g>
	</g>
</g>
</svg>
