<?xml version="1.0" encoding="utf-8"?>
<!-- Generator: Adobe Illustrator 18.0.0, SVG Export Plug-In . SVG Version: 6.00 Build 0)  -->
<!DOCTYPE svg PUBLIC "-//W3C//DTD SVG 1.1//EN" "http://www.w3.org/Graphics/SVG/1.1/DTD/svg11.dtd">
<svg version="1.1" xmlns="http://www.w3.org/2000/svg" xmlns:xlink="http://www.w3.org/1999/xlink" x="0px" y="0px"
	 viewBox="0 0 111.3 111.3" enable-background="new 0 0 111.3 111.3" xml:space="preserve">
<g id="Layer_1" display="none">
	<circle display="inline" fill="#F2F2F2" cx="55.6" cy="56.2" r="54.5"/>
</g>
<g id="Smart_monitor">
	<path fill="#0B2F6B" d="M99.8,88.7H11.6c-4.1,0-7.4-3.3-7.4-7.4V30.6c0-4.1,3.3-7.4,7.4-7.4h88.2c4.1,0,7.4,3.3,7.4,7.4v50.8
		C107.2,85.4,103.9,88.7,99.8,88.7z M11.6,27.1c-1.9,0-3.5,1.6-3.5,3.5v50.7c0,1.9,1.6,3.5,3.5,3.5h88.2c1.9,0,3.5-1.6,3.5-3.5V30.6
		c0-1.9-1.6-3.5-3.5-3.5H11.6z"/>
	<path fill="#0B2F6B" d="M62.4,85.4H51.6c-1,0-1.7-0.8-1.7-1.7s0.8-1.7,1.7-1.7h10.9c0,0,0,0,0,0c1,0,1.7,0.8,1.7,1.7
		S63.4,85.4,62.4,85.4z"/>
	<path fill="#0B2F6B" d="M12.8,72.8c-0.5,0-0.9-0.2-1.3-0.6c-0.5-0.7-0.4-1.7,0.3-2.2l3.1-2.3c0.7-0.5,1.7-0.4,2.2,0.3
		c0.5,0.7,0.4,1.7-0.3,2.2l-3.1,2.3C13.4,72.7,13.1,72.8,12.8,72.8z"/>
	<path fill="#0B2F6B" d="M100.1,71.3c0,2-1.6,3.7-3.7,3.7H14.5c-2,0-3.7-1.6-3.7-3.7V34c0-2,1.6-3.7,3.7-3.7h81.9
		c2,0,3.7,1.6,3.7,3.7V71.3z"/>
	<g>
		<g>
			<path fill="#FFFFFF" d="M25.8,67.9c-0.2,0-0.4-0.1-0.5-0.2c-0.2-0.3-0.2-0.7,0.1-1l2.3-2c0.4-0.3,0.6-0.6,0.6-0.9
				c0-0.6-0.4-1.2-0.6-1.3c0,0-0.1-0.1-0.1-0.1c-2.1-2.8-3.1-6.1-3.1-9.5c0-8.8,7.1-15.9,15.9-15.9c0.4,0,0.7,0.3,0.7,0.7
				s-0.3,0.7-0.7,0.7c-8,0-14.6,6.5-14.6,14.6c0,3.2,1,6.2,2.9,8.7c0.4,0.4,0.9,1.1,1,1.8c0.1,0.7,0,1.6-1.1,2.4l-2.2,1.9
				C26.1,67.8,25.9,67.9,25.8,67.9z"/>
			<path fill="#FFFFFF" d="M54.8,67.9c-0.2,0-0.3-0.1-0.4-0.2l-2.3-2C51,65,50.9,64,51,63.3c0.1-0.7,0.6-1.5,1-1.8
				c1.9-2.5,2.9-5.5,2.9-8.7c0-8-6.5-14.6-14.6-14.6c-0.4,0-0.7-0.3-0.7-0.7s0.3-0.7,0.7-0.7c8.8,0,15.9,7.1,15.9,15.9
				c0,3.5-1.1,6.7-3.1,9.5c0,0-0.1,0.1-0.1,0.1c-0.2,0.2-0.6,0.7-0.6,1.3c0,0.3,0.2,0.6,0.6,0.9l2.3,2c0.3,0.2,0.3,0.7,0.1,1
				C55.2,67.8,55,67.9,54.8,67.9z"/>
		</g>
		<path fill="#FFFFFF" d="M40.4,56.9L40.4,56.9c-1.4,0-2.4-0.5-2.4-0.5c-0.1,0-5.5-3.3-1.4-10.4l3.2-5c0.1-0.2,0.3-0.3,0.5-0.3
			c0.2,0,0.4,0.1,0.5,0.3l3.2,5c2.2,3.7,1.7,6.3,0.9,7.9c-0.8,1.7-2.2,2.5-2.3,2.5C41.9,56.8,41.2,56.9,40.4,56.9z M38.5,55.4
			c0,0,0.8,0.4,1.9,0.4l0,0c0.6,0,1.2-0.1,1.7-0.4c0.2-0.1,4.4-2.7,0.9-8.8l-2.7-4.2l-2.7,4.2C34.1,52.7,38.3,55.3,38.5,55.4
			L38.5,55.4z"/>
		<path fill="#FFFFFF" d="M39.4,56c0,0-2.2-1.2-0.5-4.1l1.4-2.2l1.4,2.2c1.7,2.9-0.5,4.1-0.5,4.1"/>
	</g>
	<g>
		<path fill="#FFFFFF" d="M77.1,58.1c-0.3,0-0.6-0.2-0.7-0.5c-0.1-0.4,0.1-0.8,0.4-1l3.3-1.2c0.4-0.1,0.8,0.1,1,0.4
			c0.1,0.4-0.1,0.8-0.4,1l-3.3,1.2C77.2,58.1,77.1,58.1,77.1,58.1z"/>
		<path fill="#FFFFFF" d="M76.5,60.5c-0.3,0-0.6-0.2-0.7-0.5c-0.1-0.4,0.1-0.8,0.4-1l6.5-2.3c0.4-0.1,0.8,0.1,1,0.4
			c0.1,0.4-0.1,0.8-0.4,1l-6.5,2.3C76.6,60.5,76.5,60.5,76.5,60.5z"/>
		<path fill="#FFFFFF" d="M78.4,63.7c-0.3,0-0.6-0.2-0.7-0.6c0-0.1-0.6-0.4-1.3-0.4c-0.4,0-0.6-0.3-0.7-0.6c0-0.4,0.1-0.7,0.5-0.8
			l6.5-2.3c0.4-0.1,0.8,0.1,1,0.4c0.1,0.4-0.1,0.8-0.4,1L78.6,62c0.3,0.2,0.4,0.5,0.5,0.8c0.1,0.4-0.1,0.8-0.5,0.9
			C78.6,63.7,78.5,63.7,78.4,63.7z"/>
		<path fill="#FFFFFF" d="M81.1,63.7c-0.1,0-0.1,0-0.2,0c-0.4-0.1-0.6-0.5-0.5-0.9c0.3-1.3,2.2-1.5,2.6-1.6c0.4,0,0.8,0.3,0.8,0.7
			c0,0.4-0.3,0.8-0.7,0.8c-0.7,0-1.3,0.3-1.3,0.5C81.7,63.5,81.4,63.7,81.1,63.7z"/>
		<path fill="#FFFFFF" d="M81.3,70.3h-2.8c-0.2,0-0.7-0.1-0.7-0.7v-1.1l-1.3-1.2c-0.1-0.1-0.3-0.3-0.3-0.6V65c0-0.4,0.3-0.8,0.8-0.8
			h5.7c0.4,0,0.8,0.3,0.8,0.8v1.6c0,0.3-0.2,0.5-0.3,0.6L82,68.4v1.1C82,70.2,81.6,70.3,81.3,70.3z M77,64.9c-0.1,0-0.2,0-0.2,0.1
			v1.6c0,0,0,0.1,0.1,0.1l1.4,1.3c0.1,0.1,0.1,0.1,0.1,0.2v1.3c0,0.1,0,0.1,0,0.1l2.8,0c0,0,0,0,0,0c0,0,0,0,0-0.1v-1.3
			c0-0.1,0-0.2,0.1-0.2l1.4-1.3c0,0,0.1-0.1,0.1-0.1V65c0-0.1-0.1-0.1-0.2-0.1H77z"/>
	</g>
	<g>
		<path fill="#FFFFFF" d="M83.4,49.3c-0.1,0-0.2,0-0.2-0.1c-0.1-0.1-0.1-0.3,0.1-0.4c2.1-1.6,2.3-3.8,0.8-6.7
			c-0.1,0.3-0.3,0.7-0.6,1.2c-0.1,0.1-0.2,0.1-0.3,0.1c-0.1,0-0.2-0.2-0.2-0.3c0-0.2-0.1-3.6-4.5-5.9c0.2,1.1,0.4,3.1-1.2,4.9
			c-0.1,0.1-0.2,0.1-0.3,0.1c-0.1,0-0.2-0.1-0.2-0.2l-0.1-0.5c-0.7,1.1-2.1,3.4-1.8,5.3c0.1,0.8,0.5,1.5,1.2,2.1
			c0.1,0.1,0.2,0.3,0.1,0.4c-0.1,0.1-0.3,0.2-0.4,0.1c-0.8-0.6-1.3-1.5-1.4-2.5c-0.3-2.9,2.3-6.2,2.4-6.3c0.1-0.1,0.2-0.1,0.3-0.1
			c0.1,0,0.2,0.1,0.2,0.2l0.1,0.6c1.4-2,0.5-4.3,0.5-4.4c0-0.1,0-0.2,0.1-0.3c0.1-0.1,0.2-0.1,0.3-0.1c3.9,1.8,5.1,4.5,5.4,5.8
			c0.2-0.5,0.2-0.9,0.2-1c0-0.1,0.1-0.3,0.2-0.3c0.1,0,0.3,0,0.3,0.1c2.7,4.4,1.2,6.9-0.6,8.2C83.6,49.3,83.5,49.3,83.4,49.3z"/>
		<path fill="#FFFFFF" d="M81.1,49.5c3.2-2.6-0.8-7.9-0.8-7.9s-0.4,4.2-1.5,1.8c-3.4,4.5-0.3,6.1-0.3,6.1S79.8,50.6,81.1,49.5z"/>
	</g>
</g>
</svg>
