<?xml version="1.0" encoding="utf-8"?>
<!-- Generator: Adobe Illustrator 18.0.0, SVG Export Plug-In . SVG Version: 6.00 Build 0)  -->
<!DOCTYPE svg PUBLIC "-//W3C//DTD SVG 1.1//EN" "http://www.w3.org/Graphics/SVG/1.1/DTD/svg11.dtd">
<svg version="1.1" id="Layer_1" xmlns="http://www.w3.org/2000/svg" xmlns:xlink="http://www.w3.org/1999/xlink" x="0px" y="0px"
	 viewBox="0 509 320 114.2" enable-background="new 0 509 320 114.2" xml:space="preserve">
<rect x="0.1" y="509" fill="#1C75BC" width="79.9" height="114.2"/>
<rect x="80.1" y="509" fill="#009444" width="79.9" height="114.2"/>
<rect x="160.1" y="509" fill="#FBB040" width="79.9" height="114.2"/>
<rect x="240" y="509" fill="#C49A6C" width="79.9" height="114.2"/>
<linearGradient id="SVGID_1_" gradientUnits="userSpaceOnUse" x1="-3.0901" y1="1098.7524" x2="149.7518" y2="945.9106" gradientTransform="matrix(0.6353 0 0 -0.6353 -6.5539 1215.5734)">
	<stop  offset="0" style="stop-color:#FFFFFF"/>
	<stop  offset="1" style="stop-color:#707070"/>
</linearGradient>
<rect x="0.1" y="509" opacity="0.2" fill="url(#SVGID_1_)" enable-background="new    " width="79.9" height="114.2"/>
<linearGradient id="SVGID_2_" gradientUnits="userSpaceOnUse" x1="122.9379" y1="1098.7526" x2="275.7797" y2="945.9106" gradientTransform="matrix(0.6353 0 0 -0.6353 -6.5539 1215.5734)">
	<stop  offset="0" style="stop-color:#FFFFFF"/>
	<stop  offset="1" style="stop-color:#707070"/>
</linearGradient>
<rect x="80.1" y="509" opacity="0.2" fill="url(#SVGID_2_)" enable-background="new    " width="79.9" height="114.2"/>
<linearGradient id="SVGID_3_" gradientUnits="userSpaceOnUse" x1="248.7745" y1="1098.7524" x2="401.6164" y2="945.9106" gradientTransform="matrix(0.6353 0 0 -0.6353 -6.5539 1215.5734)">
	<stop  offset="0" style="stop-color:#FFFFFF"/>
	<stop  offset="1" style="stop-color:#707070"/>
</linearGradient>
<rect x="160.1" y="509" opacity="0.2" fill="url(#SVGID_3_)" enable-background="new    " width="79.9" height="114.2"/>
<linearGradient id="SVGID_4_" gradientUnits="userSpaceOnUse" x1="374.6112" y1="1098.7524" x2="527.4531" y2="945.9106" gradientTransform="matrix(0.6353 0 0 -0.6353 -6.5539 1215.5734)">
	<stop  offset="0" style="stop-color:#FFFFFF"/>
	<stop  offset="1" style="stop-color:#707070"/>
</linearGradient>
<rect x="240" y="509" opacity="0.2" fill="url(#SVGID_4_)" enable-background="new    " width="79.9" height="114.2"/>
<linearGradient id="SVGID_5_" gradientUnits="userSpaceOnUse" x1="43.4839" y1="1066.5369" x2="104.8379" y2="1066.5369" gradientTransform="matrix(0.6353 0 0 -0.6353 -6.5539 1215.5734)">
	<stop  offset="0" style="stop-color:#FFFFFF"/>
	<stop  offset="1" style="stop-color:#D6D6D6"/>
</linearGradient>
<path fill="url(#SVGID_5_)" d="M59.8,537.2c-1.9,0-3.8,0-5.8,0c1.7-1.6,3.2-3.2,4.7-4.7c-0.7-0.6-1.2-1.2-1.8-1.8l-0.1,0.1l-0.1-0.1
	c-0.7,0.7-1.7,1.7-2.6,2.6c-1.1,1.1-2.3,2.3-3.4,3.4c-0.2,0.2-0.5,0.4-0.7,0.4c-1,0-2.1,0-3.2,0c-1,0-1.9,0-3,0
	c4.4-4.4,8.6-8.6,12.9-12.9c-0.7-0.7-1.2-1.2-1.8-1.8l-0.1,0.1l-0.1-0.1c-4.3,4.3-8.5,8.5-12.9,12.9c0,0-0.1,0-0.1-0.1
	c0-2.1,0-4,0-6.2c0-0.2,0.2-0.5,0.5-0.6c1.9-1.9,3.8-3.8,5.7-5.7c0.2-0.2,0.5-0.4,0.6-0.6c-0.6-0.6-1.1-1.1-1.7-1.7l-0.1,0.1
	l-0.1-0.1c-1.6,1.6-3.2,3.2-4.7,4.7c-0.1,0-0.1-0.1-0.1-0.1c0-2.1,0-4.1,0-6.2c-0.1,0-0.1,0-0.1,0c-0.1,0-0.1,0-0.2,0
	c-0.7,0-1.3,0-2.1,0c-0.1,0-0.1,0-0.1,0c-0.1,0-0.1,0-0.2,0c0,2.1,0,4.3,0,6.2c-0.1,0.1-0.1,0.1-0.2,0.1c-1.7-1.7-3.3-3.3-4.9-4.9
	c-0.6,0.6-1.1,1.1-1.7,1.7c0.2,0.2,0.5,0.4,0.6,0.6c1.9,1.9,3.8,3.8,5.7,5.7c0.2,0.2,0.5,0.5,0.5,0.6c0.1,2.1,0,4,0,6.2
	c-0.1,0-0.1,0.1-0.2,0.1c-4.4-4.4-8.6-8.6-12.9-12.9c-0.6,0.6-1.1,1.1-1.8,1.8c4.4,4.4,8.6,8.6,12.9,12.9c-2.1,0-4.1,0-6.2,0
	c-0.2,0-0.6-0.2-0.7-0.4c-1.1-1.1-2.3-2.3-3.4-3.4c-0.9-0.9-1.8-1.8-2.6-2.6c-0.6,0.6-1.2,1.1-1.8,1.8c1.6,1.6,3.2,3,4.7,4.7
	c-2.1,0-4,0-6,0c0,0.9,0,1.7,0,2.4c2.1,0,4,0,6.2,0c-1.7,1.7-3.3,3.3-4.9,4.9c0.6,0.6,1.1,1.1,1.7,1.7c1.8-1.8,3.8-3.6,5.6-5.7
	c0.7-0.7,1.3-1,2.3-1c1.8,0.1,3.5,0,5.2,0c0,0.1,0.1,0.1,0.1,0.2c-4.4,4.4-8.6,8.6-12.9,12.9c0.6,0.6,1.1,1.1,1.8,1.8
	c4.4-4.4,8.6-8.6,12.9-12.9c0,1.9,0,3.9,0,6c0,0.2-0.2,0.6-0.5,0.9c-1.7,1.7-3.3,3.4-5,5c-0.5,0.5-0.9,0.9-1.2,1.1
	c0.6,0.6,1.1,1.2,1.8,1.8c1.6-1.6,3.2-3.3,4.9-5c0,2.2,0,4.3,0,6.3c0.1,0,0.1,0,0.1,0c0.1,0,0.1,0,0.1,0c0.7,0,1.5,0,2.2,0
	c0.1,0,0.1,0,0.1,0c0.1,0,0.1,0,0.1,0c0-2.1,0-4,0-6.2c1.7,1.7,3.3,3.3,4.7,4.7l0.1-0.1l0.1,0.1c0.6-0.6,1.2-1.2,1.8-1.8
	c-0.4-0.4-0.9-0.7-1.2-1.1c-1.7-1.7-3.4-3.4-5-5c-0.2-0.2-0.5-0.6-0.5-0.9c-0.1-1.9,0-3.9,0-5.8c4.3,4.3,8.5,8.5,12.8,12.8l0.1-0.1
	l0.1,0.1c0.7-0.7,1.2-1.2,1.8-1.8c-4.3-4.3-8.6-8.6-12.9-12.9c0-0.1,0.1-0.1,0.1-0.2c1.1,0,2.1,0,3.2,0c0.7,0,1.5,0,2.1-0.1
	c0.1,0,0.1,0,0.1,0c0.9,0,1.5,0.4,2.1,1c1.8,1.9,3.8,3.8,5.6,5.7l0.1-0.1l0.1,0.1c0.6-0.6,1.1-1.1,1.7-1.7c-1.6-1.6-3.2-3.2-4.9-4.9
	c2.1,0,4,0,6,0c0.1,0,0.1,0,0.1,0c0-0.9,0-1.7,0-2.4C60,537.2,60,537.2,59.8,537.2z"/>
<g id="_x32_96LHn_1_">
	<g>
		
			<linearGradient id="SVGID_6_" gradientUnits="userSpaceOnUse" x1="303.5852" y1="1063.5726" x2="335.905" y2="1063.5726" gradientTransform="matrix(0.6353 0 0 -0.6353 -6.5539 1215.5734)">
			<stop  offset="0" style="stop-color:#FFFFFF"/>
			<stop  offset="1" style="stop-color:#D6D6D6"/>
		</linearGradient>
		<path fill="url(#SVGID_6_)" d="M186.3,539.9c0-5.8,4.5-10.2,10.3-10.2c5.7,0,10.2,4.5,10.2,10.3s-4.5,10.2-10.3,10.2
			C190.8,550.1,186.3,545.6,186.3,539.9z"/>
		
			<linearGradient id="SVGID_7_" gradientUnits="userSpaceOnUse" x1="317.5547" y1="1089.5814" x2="321.9598" y2="1089.5814" gradientTransform="matrix(0.6353 0 0 -0.6353 -6.5539 1215.5734)">
			<stop  offset="0" style="stop-color:#FFFFFF"/>
			<stop  offset="1" style="stop-color:#D6D6D6"/>
		</linearGradient>
		<path fill="url(#SVGID_7_)" d="M198,523.5c0,1.1,0,2.3,0,3.5c0,1-0.6,1.6-1.5,1.6S195,528,195,527c0-2.3,0-4.7,0-7.2
			c0-1,0.6-1.6,1.5-1.6s1.5,0.6,1.5,1.6C198,521,198,522.2,198,523.5z"/>
		
			<linearGradient id="SVGID_8_" gradientUnits="userSpaceOnUse" x1="285.8869" y1="1063.8595" x2="301.9512" y2="1063.8595" gradientTransform="matrix(0.6353 0 0 -0.6353 -6.5539 1215.5734)">
			<stop  offset="0" style="stop-color:#FFFFFF"/>
			<stop  offset="1" style="stop-color:#D6D6D6"/>
		</linearGradient>
		<path fill="url(#SVGID_8_)" d="M180.1,541.2c-1.2,0-2.4,0-3.5,0c-0.9,0-1.5-0.6-1.5-1.5s0.6-1.5,1.5-1.5c2.4,0,4.9,0,7.3,0
			c0.9,0,1.5,0.6,1.5,1.5c0,0.7-0.6,1.5-1.5,1.5C182.5,541.2,181.3,541.2,180.1,541.2z"/>
		
			<linearGradient id="SVGID_9_" gradientUnits="userSpaceOnUse" x1="337.5665" y1="1063.8595" x2="353.6302" y2="1063.8595" gradientTransform="matrix(0.6353 0 0 -0.6353 -6.5539 1215.5734)">
			<stop  offset="0" style="stop-color:#FFFFFF"/>
			<stop  offset="1" style="stop-color:#D6D6D6"/>
		</linearGradient>
		<path fill="url(#SVGID_9_)" d="M213,541.2c-1.1,0-2.3,0-3.5,0c-1,0-1.6-0.6-1.6-1.5s0.6-1.5,1.6-1.5c2.4,0,4.7,0,7.2,0
			c0.9,0,1.5,0.6,1.6,1.5c0,0.9-0.6,1.5-1.6,1.5C215.3,541.2,214.1,541.2,213,541.2z"/>
		
			<linearGradient id="SVGID_10_" gradientUnits="userSpaceOnUse" x1="317.5544" y1="1037.9464" x2="321.9609" y2="1037.9464" gradientTransform="matrix(0.6353 0 0 -0.6353 -6.5539 1215.5734)">
			<stop  offset="0" style="stop-color:#FFFFFF"/>
			<stop  offset="1" style="stop-color:#D6D6D6"/>
		</linearGradient>
		<path fill="url(#SVGID_10_)" d="M198,556.3c0,1.2,0,2.4,0,3.5c0,0.9-0.6,1.6-1.3,1.6c-0.9,0-1.5-0.6-1.5-1.6c0-2.4,0-4.7,0-7.2
			c0-0.9,0.6-1.6,1.3-1.6c0.9,0,1.5,0.6,1.5,1.6C198,553.8,198,555.1,198,556.3z"/>
		
			<linearGradient id="SVGID_11_" gradientUnits="userSpaceOnUse" x1="331.7174" y1="1082.123" x2="344.3513" y2="1082.123" gradientTransform="matrix(0.6353 0 0 -0.6353 -6.5539 1215.5734)">
			<stop  offset="0" style="stop-color:#FFFFFF"/>
			<stop  offset="1" style="stop-color:#D6D6D6"/>
		</linearGradient>
		<path fill="url(#SVGID_11_)" d="M209.1,529.2c-0.9,0.9-1.7,1.7-2.4,2.4c-0.6,0.6-1.6,0.7-2.1,0.1c-0.6-0.6-0.5-1.5,0.1-2.1
			c1.7-1.7,3.3-3.4,5-5c0.6-0.6,1.6-0.7,2.1-0.1c0.6,0.6,0.5,1.5-0.1,2.1C210.8,527.6,210,528.3,209.1,529.2z"/>
		
			<linearGradient id="SVGID_12_" gradientUnits="userSpaceOnUse" x1="295.1564" y1="1082.0605" x2="307.8016" y2="1082.0605" gradientTransform="matrix(0.6353 0 0 -0.6353 -6.5539 1215.5734)">
			<stop  offset="0" style="stop-color:#FFFFFF"/>
			<stop  offset="1" style="stop-color:#D6D6D6"/>
		</linearGradient>
		<path fill="url(#SVGID_12_)" d="M184,529.2c-0.9-0.9-1.7-1.7-2.6-2.6c-0.6-0.6-0.6-1.5-0.1-2.1s1.5-0.6,2.1,0.1
			c1.7,1.7,3.4,3.4,5.1,5.1c0.6,0.6,0.6,1.5,0.1,2.1c-0.5,0.6-1.5,0.5-2.1-0.1C185.7,530.9,184.8,530,184,529.2z"/>
		
			<linearGradient id="SVGID_13_" gradientUnits="userSpaceOnUse" x1="331.7161" y1="1045.3091" x2="344.3711" y2="1045.3091" gradientTransform="matrix(0.6353 0 0 -0.6353 -6.5539 1215.5734)">
			<stop  offset="0" style="stop-color:#FFFFFF"/>
			<stop  offset="1" style="stop-color:#D6D6D6"/>
		</linearGradient>
		<path fill="url(#SVGID_13_)" d="M207.2,552.4c-0.9-0.9-1.7-1.7-2.4-2.4c-0.6-0.7-0.7-1.6-0.1-2.1c0.6-0.6,1.5-0.6,2.1,0.1
			c1.7,1.7,3.4,3.4,5.1,5.1c0.6,0.6,0.6,1.5,0.1,2.1c-0.6,0.6-1.5,0.6-2.1-0.1C208.9,554.1,208,553.2,207.2,552.4z"/>
		
			<linearGradient id="SVGID_14_" gradientUnits="userSpaceOnUse" x1="295.1569" y1="1045.5004" x2="307.7959" y2="1045.5004" gradientTransform="matrix(0.6353 0 0 -0.6353 -6.5539 1215.5734)">
			<stop  offset="0" style="stop-color:#FFFFFF"/>
			<stop  offset="1" style="stop-color:#D6D6D6"/>
		</linearGradient>
		<path fill="url(#SVGID_14_)" d="M188.5,547.8c0.6,0.6,0.6,1.5-0.1,2.1c-0.9,0.9-1.7,1.7-2.6,2.6c-0.9,0.9-1.7,1.7-2.6,2.6
			c-0.6,0.6-1.5,0.6-2.1,0.1c-0.6-0.6-0.6-1.5,0.1-2.1c1.7-1.7,3.4-3.4,5.1-5.1C187.2,547.3,188,547.3,188.5,547.8"/>
	</g>
</g>
<g>
	
		<linearGradient id="SVGID_15_" gradientUnits="userSpaceOnUse" x1="168.9989" y1="1062.681" x2="229.6499" y2="1062.681" gradientTransform="matrix(0.6353 0 0 -0.6353 -6.5539 1215.5734)">
		<stop  offset="0" style="stop-color:#FFFFFF"/>
		<stop  offset="1" style="stop-color:#D6D6D6"/>
	</linearGradient>
	<path fill="url(#SVGID_15_)" d="M127.7,528.6c-3.8,1.5-6.6,3.9-7.7,7.9c-1.1-4-3.9-6.4-7.7-7.9c-3.6-1.5-7.5-1.7-11.5-1.5
		c0.1,0.4,0.2,0.7,0.4,1c1.8,4.7,5.2,7.7,9.8,9.5c2.4,1,5.1,1.5,7.8,1.6c0.2,0,0.4,0,0.6,0.1c0.1,0,0.2,0.1,0.4,0.1
		c-0.4,4.6-0.2,9.8-0.6,14.6h0.7h0.5h0.7c-0.5-4.9-0.2-10-0.6-14.6c0.2-0.1,0.2-0.1,0.4-0.1c0.2,0,0.4-0.1,0.6-0.1
		c2.7-0.1,5.2-0.6,7.8-1.6c4.6-1.8,8-4.7,9.8-9.5c0.1-0.4,0.2-0.6,0.4-1C135.4,527,131.5,527.1,127.7,528.6z"/>
	
		<linearGradient id="SVGID_16_" gradientUnits="userSpaceOnUse" x1="197.2702" y1="1084.6163" x2="202.4022" y2="1084.6163" gradientTransform="matrix(0.6353 0 0 -0.6353 -6.5539 1215.5734)">
		<stop  offset="0" style="stop-color:#FFFFFF"/>
		<stop  offset="1" style="stop-color:#D6D6D6"/>
	</linearGradient>
	<circle fill="url(#SVGID_16_)" cx="120.4" cy="526.6" r="1.7"/>
	
		<linearGradient id="SVGID_17_" gradientUnits="userSpaceOnUse" x1="203.5322" y1="1093.2222" x2="208.6642" y2="1093.2222" gradientTransform="matrix(0.6353 0 0 -0.6353 -6.5539 1215.5734)">
		<stop  offset="0" style="stop-color:#FFFFFF"/>
		<stop  offset="1" style="stop-color:#D6D6D6"/>
	</linearGradient>
	<circle fill="url(#SVGID_17_)" cx="124.4" cy="521.1" r="1.7"/>
	
		<linearGradient id="SVGID_18_" gradientUnits="userSpaceOnUse" x1="197.2702" y1="1100.8718" x2="202.4022" y2="1100.8718" gradientTransform="matrix(0.6353 0 0 -0.6353 -6.5539 1215.5734)">
		<stop  offset="0" style="stop-color:#FFFFFF"/>
		<stop  offset="1" style="stop-color:#D6D6D6"/>
	</linearGradient>
	<circle fill="url(#SVGID_18_)" cx="120.4" cy="516.2" r="1.7"/>
</g>
<g>
	<g id="Uy0uOk_1_">
		<g>
			
				<linearGradient id="SVGID_19_" gradientUnits="userSpaceOnUse" x1="420.9685" y1="1072.6799" x2="481.3686" y2="1072.6799" gradientTransform="matrix(0.6353 0 0 -0.6353 -6.5539 1215.5734)">
				<stop  offset="0" style="stop-color:#FFFFFF"/>
				<stop  offset="1" style="stop-color:#D6D6D6"/>
			</linearGradient>
			<path fill="url(#SVGID_19_)" d="M281.2,545.9c-3.9,0-7.8,0.1-11.7,0c-4.4-0.1-8-3.5-8.5-7.8c-0.7-5.7,3.6-10.4,9.4-10.2
				c1,0.1,1.5-0.2,1.9-1c2.7-3.8,7.7-5.5,12.3-4.4c4.6,1.1,8.1,4.9,8.9,9.5c0.1,0.5,0.2,0.7,0.9,1c3.4,0.9,5.2,3.8,5,6.7
				c-0.2,3.5-2.9,6.1-6.3,6.2C289,546.1,285.1,545.9,281.2,545.9L281.2,545.9z"/>
		</g>
	</g>
	
		<linearGradient id="SVGID_20_" gradientUnits="userSpaceOnUse" x1="438.0894" y1="1045.0222" x2="447.5558" y2="1045.0222" gradientTransform="matrix(0.6353 0 0 -0.6353 -6.5539 1215.5734)">
		<stop  offset="0" style="stop-color:#FFFFFF"/>
		<stop  offset="1" style="stop-color:#D6D6D6"/>
	</linearGradient>
	<path fill="url(#SVGID_20_)" d="M277.4,549c0.4,0.4,0.4,1,0,1.5l-4,4c-0.4,0.4-1,0.4-1.5,0l0,0c-0.4-0.4-0.4-1,0-1.5l4-4
		C276.4,548.6,277.1,548.6,277.4,549L277.4,549z"/>
	
		<linearGradient id="SVGID_21_" gradientUnits="userSpaceOnUse" x1="435.3339" y1="1035.3407" x2="444.8004" y2="1035.3407" gradientTransform="matrix(0.6353 0 0 -0.6353 -6.5539 1215.5734)">
		<stop  offset="0" style="stop-color:#FFFFFF"/>
		<stop  offset="1" style="stop-color:#D6D6D6"/>
	</linearGradient>
	<path fill="url(#SVGID_21_)" d="M275.7,555.2c0.4,0.4,0.4,1,0,1.5l-4,4c-0.4,0.4-1,0.4-1.5,0l0,0c-0.4-0.4-0.4-1,0-1.5l4-4
		C274.7,554.7,275.4,554.7,275.7,555.2L275.7,555.2z"/>
	
		<linearGradient id="SVGID_22_" gradientUnits="userSpaceOnUse" x1="456.5303" y1="1045.9678" x2="465.9968" y2="1045.9678" gradientTransform="matrix(0.6353 0 0 -0.6353 -6.5539 1215.5734)">
		<stop  offset="0" style="stop-color:#FFFFFF"/>
		<stop  offset="1" style="stop-color:#D6D6D6"/>
	</linearGradient>
	<path fill="url(#SVGID_22_)" d="M289.2,548.4c0.4,0.4,0.4,1,0,1.5l-4,4c-0.4,0.4-1,0.4-1.5,0l0,0c-0.4-0.4-0.4-1,0-1.3l4-4
		C288.2,548,288.8,548,289.2,548.4L289.2,548.4z"/>
</g>
<text transform="matrix(1 0 0 1 13.134 589.9114)" fill="#FFFFFF" font-family="'Avenir-Roman'" font-size="7.6228">£97</text>
<text transform="matrix(1 0 0 1 53.154 589.9114)" fill="#FFFFFF" font-family="'Avenir-Roman'" font-size="7.6228">£97</text>
<text transform="matrix(1 0 0 1 32.8265 589.9114)" fill="#FFFFFF" font-family="'Avenir-Roman'" font-size="7.6228">£97</text>
<text transform="matrix(1 0 0 1 94.282 589.9114)" fill="#FFFFFF" font-family="'Avenir-Roman'" font-size="7.6228">£97</text>
<text transform="matrix(1 0 0 1 134.3019 589.9114)" fill="#FFFFFF" font-family="'Avenir-Roman'" font-size="7.6228">£97</text>
<text transform="matrix(1 0 0 1 113.9738 589.9114)" fill="#FFFFFF" font-family="'Avenir-Roman'" font-size="7.6228">£97</text>
<text transform="matrix(1 0 0 1 173.4075 589.9114)" fill="#FFFFFF" font-family="'Avenir-Roman'" font-size="7.6228">£97</text>
<text transform="matrix(1 0 0 1 213.427 589.9114)" fill="#FFFFFF" font-family="'Avenir-Roman'" font-size="7.6228">£97</text>
<text transform="matrix(1 0 0 1 193.0999 589.9114)" fill="#FFFFFF" font-family="'Avenir-Roman'" font-size="7.6228">£97</text>
<text transform="matrix(1 0 0 1 254.5549 589.9114)" fill="#FFFFFF" font-family="'Avenir-Roman'" font-size="7.6228">£97</text>
<text transform="matrix(1 0 0 1 294.5745 589.9114)" fill="#FFFFFF" font-family="'Avenir-Roman'" font-size="7.6228">£97</text>
<text transform="matrix(1 0 0 1 265.0638 609.0461)" fill="#FFFFFF" font-family="'Avenir-Roman'" font-size="8">£1,164 total</text>
<text transform="matrix(1 0 0 1 274.2474 589.9114)" fill="#FFFFFF" font-family="'Avenir-Roman'" font-size="7.6228">£97</text>
<text transform="matrix(1 0 0 1 14.4797 578.1458)" fill="#FFFFFF" font-family="'Avenir-Roman'" font-size="7.6228">Jan</text>
<text transform="matrix(1 0 0 1 52.9441 578.1458)" fill="#FFFFFF" font-family="'Avenir-Roman'" font-size="7.6228">Mar</text>
<text transform="matrix(1 0 0 1 34.0275 578.1458)" fill="#FFFFFF" font-family="'Avenir-Roman'" font-size="7.6228">Feb</text>
<text transform="matrix(1 0 0 1 94.9909 578.1458)" fill="#FFFFFF" font-family="'Avenir-Roman'" font-size="7.6228">Apr</text>
<text transform="matrix(1 0 0 1 135.506 578.1458)" fill="#FFFFFF" font-family="'Avenir-Roman'" font-size="7.6228">Jun</text>
<text transform="matrix(1 0 0 1 113.2693 578.1458)" fill="#FFFFFF" font-family="'Avenir-Roman'" font-size="7.6228">May</text>
<text transform="matrix(1 0 0 1 175.8157 578.1458)" fill="#FFFFFF" font-family="'Avenir-Roman'" font-size="7.6228">Jul</text>
<text transform="matrix(1 0 0 1 213.7131 578.1458)" fill="#FFFFFF" font-family="'Avenir-Roman'" font-size="7.6228">Sep</text>
<text transform="matrix(1 0 0 1 193.0306 578.1458)" fill="#FFFFFF" font-family="'Avenir-Roman'" font-size="7.6228">Aug</text>
<text transform="matrix(1 0 0 1 255.47 578.1458)" fill="#FFFFFF" font-family="'Avenir-Roman'" font-size="7.6228">Oct</text>
<text transform="matrix(1 0 0 1 294.6467 578.1458)" fill="#FFFFFF" font-family="'Avenir-Roman'" font-size="7.6228">Dec</text>
<text transform="matrix(1 0 0 1 274.385 578.1458)" fill="#FFFFFF" font-family="'Avenir-Roman'" font-size="7.6228">Nov</text>
<text transform="matrix(1 0 0 1 267.7169 616.6682)" fill="#FFFFFF" font-family="'Avenir-LightOblique'" font-size="5">Example cost only</text>
</svg>
