<?xml version="1.0" encoding="utf-8"?>
<!-- Generator: Adobe Illustrator 18.0.0, SVG Export Plug-In . SVG Version: 6.00 Build 0)  -->
<!DOCTYPE svg PUBLIC "-//W3C//DTD SVG 1.1//EN" "http://www.w3.org/Graphics/SVG/1.1/DTD/svg11.dtd">
<svg version="1.1" id="Cooking_Tipos" xmlns="http://www.w3.org/2000/svg" xmlns:xlink="http://www.w3.org/1999/xlink" x="0px"
	 y="0px" viewBox="0 0 111.3 111.3" enable-background="new 0 0 111.3 111.3" xml:space="preserve">
<circle fill="#00AAED" cx="55.7" cy="56.2" r="54.5"/>
<g>
	<path fill="none" d="M66.5,55.3h-4.6c-0.4,0-0.8,0.4-0.8,0.8c0,0.4,0.4,0.8,0.8,0.8h4.6c0.4,0,0.8-0.4,0.8-0.8
		C67.3,55.6,67,55.3,66.5,55.3z"/>
	<path fill="none" d="M66.5,67.1h-4.6c-0.4,0-0.8,0.4-0.8,0.8c0,0.4,0.4,0.8,0.8,0.8h4.6c0.4,0,0.8-0.4,0.8-0.8
		C67.3,67.5,67,67.1,66.5,67.1z"/>
	<path fill="none" d="M66.5,78.2h-4.6c-0.4,0-0.8,0.4-0.8,0.8c0,0.4,0.4,0.8,0.8,0.8h4.6c0.4,0,0.8-0.4,0.8-0.8
		C67.3,78.5,67,78.2,66.5,78.2z"/>
	<path fill="none" d="M66.5,72.6h-4.6c-0.4,0-0.8,0.4-0.8,0.8c0,0.4,0.4,0.8,0.8,0.8h4.6c0.4,0,0.8-0.4,0.8-0.8
		C67.3,73,67,72.6,66.5,72.6z"/>
	<path fill="none" d="M66.5,60.8h-4.6c-0.4,0-0.8,0.4-0.8,0.8c0,0.4,0.4,0.8,0.8,0.8h4.6c0.4,0,0.8-0.4,0.8-0.8
		C67.3,61.1,67,60.8,66.5,60.8z"/>
	<path fill="none" d="M66.5,38.7h-4.6c-0.4,0-0.8,0.4-0.8,0.8c0,0.4,0.4,0.8,0.8,0.8h4.6c0.4,0,0.8-0.4,0.8-0.8
		C67.3,39,67,38.7,66.5,38.7z"/>
	<path fill="none" d="M66.5,49.7h-4.6c-0.4,0-0.8,0.4-0.8,0.8c0,0.4,0.4,0.8,0.8,0.8h4.6c0.4,0,0.8-0.4,0.8-0.8
		C67.3,50.1,67,49.7,66.5,49.7z"/>
	<path fill="none" d="M66.5,44.2h-4.6c-0.4,0-0.8,0.4-0.8,0.8c0,0.4,0.4,0.8,0.8,0.8h4.6c0.4,0,0.8-0.4,0.8-0.8
		C67.3,44.6,67,44.2,66.5,44.2z"/>
</g>
<g>
	<defs>
		<circle id="SVGID_1_" cx="55.7" cy="56.2" r="54.5"/>
	</defs>
	<clipPath id="SVGID_2_">
		<use xlink:href="#SVGID_1_"  overflow="visible"/>
	</clipPath>
	<polygon clip-path="url(#SVGID_2_)" fill="#0092D3" points="82.7,28.8 77.9,33.9 72.5,33.8 63.3,24.6 43.5,44.4 43.6,70.5 
		30.6,84.3 77,130.8 130.9,76.9 	"/>
</g>
<path fill="#FFFFFF" d="M89,57.3l-5.1-26.4c-0.4-1.9-2-3.2-3.9-3.2H65.5c-1.7-3.6-5.4-5.9-9.6-5.9c-4.3,0-7.9,2.3-9.6,5.9h-4.4
	c-2.2,0-3.9,1.7-3.9,3.9h-7.7c-1.4,0-2.3,1.4-1.7,2.7l6.4,13.6l-5.3,29.2c0,0-3.4,9.8,8.3,9.8h17.2h17.2c11.6,0,8.3-9.8,8.3-9.8
	L73,35.5h3.8l4.5,23.2c0.4,1.9,2,3.2,3.9,3.2c0.3,0,0.5,0,0.8-0.1C88,61.5,89.4,59.4,89,57.3z M50.6,38.7h6.3c1.3,0,2.4,1.1,2.4,2.4
	v26.8h-11V41.1C48.2,39.8,49.3,38.7,50.6,38.7z M66.5,79.7h-4.6c-0.4,0-0.8-0.4-0.8-0.8c0-0.4,0.4-0.8,0.8-0.8h4.6
	c0.4,0,0.8,0.4,0.8,0.8C67.3,79.4,67,79.7,66.5,79.7z M66.5,74.2h-4.6c-0.4,0-0.8-0.4-0.8-0.8s0.4-0.8,0.8-0.8h4.6
	c0.4,0,0.8,0.4,0.8,0.8S67,74.2,66.5,74.2z M66.5,68.7h-4.6c-0.4,0-0.8-0.4-0.8-0.8c0-0.4,0.4-0.8,0.8-0.8h4.6
	c0.4,0,0.8,0.4,0.8,0.8C67.3,68.3,67,68.7,66.5,68.7z M66.5,62.4h-4.6c-0.4,0-0.8-0.4-0.8-0.8c0-0.4,0.4-0.8,0.8-0.8h4.6
	c0.4,0,0.8,0.4,0.8,0.8C67.3,62,67,62.4,66.5,62.4z M66.5,56.8h-4.6c-0.4,0-0.8-0.4-0.8-0.8c0-0.4,0.4-0.8,0.8-0.8h4.6
	c0.4,0,0.8,0.4,0.8,0.8C67.3,56.5,67,56.8,66.5,56.8z M66.5,51.3h-4.6c-0.4,0-0.8-0.4-0.8-0.8c0-0.4,0.4-0.8,0.8-0.8h4.6
	c0.4,0,0.8,0.4,0.8,0.8C67.3,51,67,51.3,66.5,51.3z M66.5,45.8h-4.6c-0.4,0-0.8-0.4-0.8-0.8c0-0.4,0.4-0.8,0.8-0.8h4.6
	c0.4,0,0.8,0.4,0.8,0.8C67.3,45.4,67,45.8,66.5,45.8z M66.5,40.3h-4.6c-0.4,0-0.8-0.4-0.8-0.8s0.4-0.8,0.8-0.8h4.6
	c0.4,0,0.8,0.4,0.8,0.8S67,40.3,66.5,40.3z"/>
</svg>
