<?xml version="1.0" encoding="utf-8"?>
<!-- Generator: Adobe Illustrator 18.0.0, SVG Export Plug-In . SVG Version: 6.00 Build 0)  -->
<!DOCTYPE svg PUBLIC "-//W3C//DTD SVG 1.1//EN" "http://www.w3.org/Graphics/SVG/1.1/DTD/svg11.dtd">
<svg version="1.1" id="Fridge_x2F_Freezer_Tips" xmlns="http://www.w3.org/2000/svg" xmlns:xlink="http://www.w3.org/1999/xlink"
	 x="0px" y="0px" viewBox="0 0 111.3 111.3" enable-background="new 0 0 111.3 111.3" xml:space="preserve">
<circle fill="#00AAED" cx="55.7" cy="56.1" r="54.5"/>
<g>
	<defs>
		<circle id="SVGID_1_" cx="55.7" cy="56.1" r="54.5"/>
	</defs>
	<clipPath id="SVGID_2_">
		<use xlink:href="#SVGID_1_"  overflow="visible"/>
	</clipPath>
	<polygon clip-path="url(#SVGID_2_)" fill="#0092D3" points="164.1,126.7 170.4,120.3 74.7,24.6 68.5,30.9 63.4,25.8 60.6,28.6 
		68.1,36.2 64.8,39.5 51.1,25.8 46.3,30.8 40,24.5 37.1,27.3 43.5,33.7 41.6,35.7 32.4,38 41.5,47.2 40.1,48.7 42.3,50.9 38.5,54.7 
		29.2,45.4 26.4,48.2 32.4,54.2 19.4,57.5 27.5,65.7 26.3,66.8 34.7,75.1 32.4,77.5 40,85.1 37.1,88 119.9,170.7 122.8,167.9 
		122.8,167.9 125.1,165.6 125.2,165.6 156.1,134.7 156.1,134.6 164.1,126.7 	"/>
</g>
<path id="snowflake_7" fill="#FFFFFF" d="M90.4,53.9h-7.7l3-5.7c0.6-1.1,0.2-2.5-0.9-3c-1.1-0.6-2.5-0.2-3,0.9l-4.1,7.8h-4.7
	l1.1-6.6c0-0.2,0-0.3,0-0.5c0,0,0-0.1,0-0.1c0,0,0-0.1,0-0.1c0-0.1,0-0.1,0-0.2c0,0,0,0,0-0.1c0-0.1,0-0.1,0-0.2c0,0,0,0,0-0.1
	c0,0,0-0.1-0.1-0.1c0,0,0,0,0-0.1c0,0,0-0.1-0.1-0.1c0,0,0-0.1,0-0.1c0,0,0-0.1-0.1-0.1c0,0,0-0.1-0.1-0.1c0,0,0,0,0-0.1
	c0,0-0.1-0.1-0.1-0.1c0,0,0,0,0,0c0,0-0.1-0.1-0.1-0.1c0,0,0,0-0.1,0c0,0-0.1-0.1-0.1-0.1c0,0-0.1-0.1-0.1-0.1c0,0,0,0,0,0
	c-0.1-0.1-0.3-0.1-0.4-0.2l-6.3-2.4l2.3-4.1l8.8,0.3c0,0,0.1,0,0.1,0c1.2,0,2.2-1,2.3-2.2c0-1.2-0.9-2.3-2.2-2.3l-6.4-0.2l3.9-6.7
	c0.6-1.1,0.3-2.5-0.8-3.1c-1.1-0.6-2.5-0.3-3.1,0.8l-3.9,6.7l-3.4-5.5c-0.7-1.1-2.1-1.4-3.1-0.7c-1.1,0.7-1.4,2.1-0.7,3.1l4.7,7.5
	l-2.3,4.1l-5.2-4.2c-0.1-0.1-0.3-0.2-0.4-0.3c0,0,0,0,0,0c-0.1,0-0.1-0.1-0.2-0.1c0,0-0.1,0-0.1,0c0,0,0,0-0.1,0c-0.1,0-0.1,0-0.2,0
	c0,0,0,0-0.1,0c0,0-0.1,0-0.1,0c0,0,0,0-0.1,0c0,0-0.1,0-0.1,0c0,0-0.1,0-0.1,0c0,0-0.1,0-0.1,0c0,0-0.1,0-0.1,0c0,0-0.1,0-0.1,0
	c0,0-0.1,0-0.1,0c0,0,0,0-0.1,0c0,0-0.1,0-0.1,0c0,0-0.1,0-0.1,0c0,0-0.1,0-0.1,0c-0.1,0-0.1,0.1-0.2,0.1c0,0,0,0,0,0
	c-0.1,0.1-0.3,0.2-0.4,0.3l-5.2,4.2l-2.3-4.1l4.7-7.5c0.7-1.1,0.3-2.4-0.7-3.1c-1.1-0.7-2.4-0.3-3.1,0.7l-3.4,5.5L40.4,25
	c-0.6-1.1-2-1.4-3.1-0.8c-1.1,0.6-1.4,2-0.8,3.1l3.9,6.7l-6.4,0.2c-1.2,0-2.2,1.1-2.2,2.3c0,1.2,1,2.2,2.3,2.2c0,0,0.1,0,0.1,0
	l8.8-0.3l2.3,4.1l-6.3,2.4c-0.1,0.1-0.3,0.1-0.4,0.2c0,0,0,0,0,0c0,0-0.1,0.1-0.1,0.1c0,0-0.1,0.1-0.1,0.1c0,0,0,0-0.1,0.1
	c0,0-0.1,0.1-0.1,0.1c0,0,0,0,0,0c0,0-0.1,0.1-0.1,0.1c0,0,0,0,0,0.1c0,0,0,0.1-0.1,0.1c0,0,0,0.1-0.1,0.1c0,0,0,0.1,0,0.1
	c0,0,0,0.1-0.1,0.1c0,0,0,0,0,0.1c0,0,0,0.1-0.1,0.1c0,0,0,0,0,0.1c0,0.1,0,0.1,0,0.2c0,0,0,0,0,0.1c0,0.1,0,0.1,0,0.2
	c0,0,0,0.1,0,0.1c0,0,0,0,0,0.1c0,0.2,0,0.3,0,0.5l1.1,6.6h-4.7l-4.1-7.8c-0.6-1.1-1.9-1.5-3-0.9c-1.1,0.6-1.5,1.9-0.9,3l3,5.7h-7.7
	c-1.2,0-2.3,1-2.3,2.3c0,1.2,1,2.3,2.3,2.3h7.7l-3,5.7c-0.6,1.1-0.2,2.5,0.9,3c0.3,0.2,0.7,0.3,1.1,0.3c0.8,0,1.6-0.4,2-1.2l4.1-7.8
	l4.7,0L37.5,65c0,0.2,0,0.3,0,0.5c0,0,0,0.1,0,0.1c0,0,0,0.1,0,0.1c0,0.1,0,0.1,0,0.2c0,0,0,0,0,0.1c0,0.1,0,0.1,0,0.2
	c0,0,0,0,0,0.1c0,0,0,0.1,0.1,0.1c0,0,0,0,0,0.1c0,0,0,0.1,0.1,0.1c0,0,0,0.1,0,0.1c0,0,0,0.1,0.1,0.1c0,0,0,0.1,0.1,0.1
	c0,0,0,0,0,0.1c0,0,0.1,0.1,0.1,0.1c0,0,0,0,0,0c0,0,0.1,0.1,0.1,0.1c0,0,0,0,0.1,0c0,0,0.1,0.1,0.1,0.1c0,0,0.1,0.1,0.1,0.1
	c0,0,0,0,0,0c0.1,0.1,0.3,0.1,0.4,0.2l6.3,2.4l-2.3,4.1L34,73.6c-1.2,0-2.3,0.9-2.3,2.2c0,1.2,0.9,2.3,2.2,2.3l6.4,0.2L36.5,85
	c-0.6,1.1-0.3,2.5,0.8,3.1c0.4,0.2,0.7,0.3,1.1,0.3c0.8,0,1.5-0.4,2-1.1l3.9-6.7l3.4,5.5c0.4,0.7,1.2,1.1,1.9,1.1
	c0.4,0,0.8-0.1,1.2-0.3c1.1-0.7,1.4-2.1,0.7-3.1l-4.7-7.5l2.3-4.1l5.2,4.2c0,0,0,0,0,0c0,0,0.1,0,0.1,0.1c0,0,0.1,0.1,0.1,0.1
	c0,0,0.1,0,0.1,0c0,0,0.1,0.1,0.1,0.1c0,0,0,0,0,0c0.1,0,0.1,0.1,0.2,0.1c0,0,0,0,0,0c0.1,0,0.1,0,0.2,0.1c0,0,0,0,0.1,0
	c0.1,0,0.1,0,0.2,0c0,0,0,0,0.1,0c0.1,0,0.1,0,0.2,0c0,0,0,0,0,0l0,0c0.1,0,0.1,0,0.2,0c0,0,0,0,0.1,0c0.1,0,0.1,0,0.2,0
	c0,0,0,0,0.1,0c0.1,0,0.1,0,0.2,0c0,0,0,0,0,0c0.1,0,0.1-0.1,0.2-0.1c0,0,0,0,0.1,0c0,0,0.1,0,0.1-0.1c0,0,0.1,0,0.1-0.1
	c0,0,0.1,0,0.1-0.1c0,0,0.1,0,0.1-0.1c0,0,0,0,0,0l5.2-4.2l2.3,4.1L60,83.6c-0.7,1.1-0.3,2.4,0.7,3.1c0.4,0.2,0.8,0.3,1.2,0.3
	c0.8,0,1.5-0.4,1.9-1.1l3.4-5.5l3.9,6.7c0.4,0.7,1.2,1.1,2,1.1c0.4,0,0.8-0.1,1.1-0.3c1.1-0.6,1.4-2,0.8-3.1l-3.9-6.7l6.4-0.2
	c1.2,0,2.2-1.1,2.2-2.3c0-1.2-1.1-2.2-2.3-2.2l-8.8,0.3l-2.3-4.1l6.3-2.4c0.1-0.1,0.3-0.1,0.4-0.2c0,0,0,0,0,0
	c0.1,0,0.1-0.1,0.2-0.1c0,0,0.1-0.1,0.1-0.1c0,0,0,0,0.1-0.1c0,0,0.1-0.1,0.1-0.1c0,0,0,0,0,0c0,0,0.1-0.1,0.1-0.1c0,0,0,0,0-0.1
	c0,0,0-0.1,0.1-0.1c0,0,0-0.1,0.1-0.1c0,0,0-0.1,0-0.1c0,0,0-0.1,0.1-0.1c0,0,0-0.1,0-0.1c0,0,0-0.1,0.1-0.1c0,0,0,0,0-0.1
	c0,0,0-0.1,0-0.1c0,0,0-0.1,0-0.1c0,0,0-0.1,0-0.1c0-0.2,0-0.5,0-0.7l-1.1-6.6h4.7l4.1,7.8c0.4,0.8,1.2,1.2,2,1.2
	c0.4,0,0.7-0.1,1.1-0.3c1.1-0.6,1.5-1.9,0.9-3l-3-5.7h7.7c1.2,0,2.3-1,2.3-2.3C92.6,54.9,91.6,53.9,90.4,53.9z M69.2,48.4l-0.9,5.5
	h-8.7l4.3-7.5L69.2,48.4z M55.7,40.6l4.3,3.5l-4.3,7.5l-4.3-7.5L55.7,40.6z M42.3,48.3l5.2-2l4.3,7.5h-8.7L42.3,48.3z M42.3,63.9
	l0.9-5.5h8.7l-4.3,7.5L42.3,63.9z M55.7,71.7l-4.3-3.5l4.3-7.5l4.3,7.5L55.7,71.7z M69.2,63.9l-5.2,2l-4.3-7.5h8.7L69.2,63.9z"/>
</svg>
