<?xml version="1.0" encoding="utf-8"?>
<!-- Generator: Adobe Illustrator 18.0.0, SVG Export Plug-In . SVG Version: 6.00 Build 0)  -->
<!DOCTYPE svg PUBLIC "-//W3C//DTD SVG 1.1//EN" "http://www.w3.org/Graphics/SVG/1.1/DTD/svg11.dtd">
<svg version="1.1" id="Laundry_Tips" xmlns="http://www.w3.org/2000/svg" xmlns:xlink="http://www.w3.org/1999/xlink" x="0px"
	 y="0px" viewBox="0 0 111.3 111.3" enable-background="new 0 0 111.3 111.3" xml:space="preserve">
<circle fill="#00AAED" cx="55.9" cy="56.1" r="54.5"/>
<g>
	<defs>
		<circle id="SVGID_1_" cx="55.9" cy="56.1" r="54.5"/>
	</defs>
	<clipPath id="SVGID_2_">
		<use xlink:href="#SVGID_1_"  overflow="visible"/>
	</clipPath>
	<polygon clip-path="url(#SVGID_2_)" fill="#0092D3" points="79,26.3 78.7,26.8 33.9,26.8 33.9,35.4 32.1,37.1 33.9,38.9 33.9,84.8 
		33,85.9 73.6,126.5 126.4,73.8 	"/>
</g>
<g>
	<g>
		<path fill="none" d="M58.7,59.6c0,0.9-1.3,1.7-2.9,1.7s-2.9-0.8-2.9-1.7c0,0.9-1.3,1.7-2.9,1.7c-1.3,0-2.5-0.5-2.8-1.2
			c0,0.2,0,0.4,0,0.5c0,4.8,3.9,8.7,8.7,8.7s8.7-3.9,8.7-8.7c0-0.2,0-0.4,0-0.5c-0.4,0.7-1.5,1.2-2.8,1.2
			C60,61.3,58.7,60.5,58.7,59.6z"/>
		<path fill="#FFFFFF" d="M55.7,50.2c-5.8,0-10.5,4.7-10.5,10.5c0,5.8,4.7,10.5,10.5,10.5s10.5-4.7,10.5-10.5
			C66.2,54.9,61.5,50.2,55.7,50.2z M64.4,60.1c0,0.2,0,0.4,0,0.5c0,4.8-3.9,8.7-8.7,8.7S47,65.5,47,60.6c0-0.2,0-0.4,0-0.5
			c0.4,0.7,1.5,1.2,2.8,1.2c1.6,0,2.9-0.8,2.9-1.7c0,0.9,1.3,1.7,2.9,1.7s2.9-0.8,2.9-1.7c0,0.9,1.3,1.7,2.9,1.7
			C63,61.3,64.1,60.8,64.4,60.1z"/>
		<path fill="#FFFFFF" d="M32.1,39.2v44.5c0,1.5,1.1,3,2.5,3h42.1c1.5,0,2.8-1.6,2.8-3V39.2H32.1z M55.7,74.4
			c-7.6,0-13.7-6.1-13.7-13.7c0-7.6,6.1-13.7,13.7-13.7s13.7,6.1,13.7,13.7C69.5,68.2,63.3,74.4,55.7,74.4z"/>
	</g>
	<g>
		<path fill="#FFFFFF" d="M76.8,25.5H34.7c-1.5,0-2.5,0.8-2.5,2.2v9.4h47.5v-9.4C79.6,26.3,78.3,25.5,76.8,25.5z M43.7,34h-8.4v-5.3
			h8.4V34z M65.4,33.3c-1.2,0-2.2-1-2.2-2.2c0-1.2,1-2.2,2.2-2.2s2.2,1,2.2,2.2C67.7,32.3,66.7,33.3,65.4,33.3z M72.6,34.3
			c-1.8,0-3.2-1.4-3.2-3.2c0-1.8,1.4-3.2,3.2-3.2c1.8,0,3.2,1.4,3.2,3.2C75.8,32.9,74.4,34.3,72.6,34.3z"/>
	</g>
</g>
</svg>
