<?xml version="1.0" encoding="utf-8"?>
<!-- Generator: Adobe Illustrator 18.0.0, SVG Export Plug-In . SVG Version: 6.00 Build 0)  -->
<!DOCTYPE svg PUBLIC "-//W3C//DTD SVG 1.1//EN" "http://www.w3.org/Graphics/SVG/1.1/DTD/svg11.dtd">
<svg version="1.1" xmlns="http://www.w3.org/2000/svg" xmlns:xlink="http://www.w3.org/1999/xlink" x="0px" y="0px"
	 viewBox="0 0 111.3 111.3" enable-background="new 0 0 111.3 111.3" xml:space="preserve">
<g id="Layer_1" display="none">
	<circle display="inline" fill="#F2F2F2" cx="55.6" cy="56.2" r="54.5"/>
</g>
<g id="Best_Tariff">
	<g>
		<g>
			
				<path fill="none" stroke="#0B2F6B" stroke-width="4.8862" stroke-linecap="round" stroke-linejoin="round" stroke-miterlimit="10" d="
				M92.1,21.9c0-3.4-2.8-6.2-6.2-6.2H15.4c-3.4,0-6.2,2.8-6.2,6.2V87c0,3.4,2.8,6.2,6.2,6.2h70.5c3.4,0,6.2-2.8,6.2-6.2V21.9z"/>
		</g>
		<g>
			
				<line fill="none" stroke="#0B2F6B" stroke-width="6.8003" stroke-linecap="round" stroke-miterlimit="10" x1="23" y1="8.2" x2="23" y2="24.1"/>
			
				<line fill="none" stroke="#0B2F6B" stroke-width="6.8003" stroke-linecap="round" stroke-miterlimit="10" x1="36.8" y1="8.2" x2="36.8" y2="24.1"/>
			
				<line fill="none" stroke="#0B2F6B" stroke-width="6.8003" stroke-linecap="round" stroke-miterlimit="10" x1="50.7" y1="8.2" x2="50.7" y2="24.1"/>
			
				<line fill="none" stroke="#0B2F6B" stroke-width="6.8003" stroke-linecap="round" stroke-miterlimit="10" x1="64.5" y1="8.2" x2="64.5" y2="24.1"/>
			
				<line fill="none" stroke="#0B2F6B" stroke-width="6.8003" stroke-linecap="round" stroke-miterlimit="10" x1="78.3" y1="8.2" x2="78.3" y2="24.1"/>
		</g>
		<g>
			<circle fill="#0B2F6B" cx="24.5" cy="41.7" r="6.4"/>
			<circle fill="#0B2F6B" cx="41.9" cy="41.7" r="6.4"/>
			<circle fill="#0B2F6B" cx="59.4" cy="41.7" r="6.4"/>
			<circle fill="#0B2F6B" cx="76.8" cy="41.7" r="6.4"/>
			<circle fill="#0B2F6B" cx="24.5" cy="59" r="6.4"/>
			<circle fill="#0B2F6B" cx="41.9" cy="59" r="6.4"/>
			<circle fill="none" stroke="#0B2F6B" stroke-width="2.0401" stroke-miterlimit="10" cx="59.4" cy="59" r="6.4"/>
			<circle fill="none" stroke="#0B2F6B" stroke-width="2.0401" stroke-miterlimit="10" cx="76.8" cy="59" r="6.4"/>
			<circle fill="none" stroke="#0B2F6B" stroke-width="2.0401" stroke-miterlimit="10" cx="24.5" cy="76.2" r="6.4"/>
			<circle fill="none" stroke="#0B2F6B" stroke-width="2.0401" stroke-miterlimit="10" cx="41.9" cy="76.2" r="6.4"/>
			<circle fill="none" stroke="#0B2F6B" stroke-width="2.0401" stroke-miterlimit="10" cx="59.4" cy="76.2" r="6.4"/>
			<circle fill="none" stroke="#0B2F6B" stroke-width="2.0401" stroke-miterlimit="10" cx="76.8" cy="76.2" r="6.4"/>
		</g>
	</g>
	<g>
		
			<path fill="#FFFFFF" stroke="#0B2F6B" stroke-width="2.8687" stroke-linecap="round" stroke-linejoin="round" stroke-miterlimit="10" d="
			M104.5,63.2c0-2.2-1.8-4-4-4H45.9c-2.2,0-4,1.8-4,4v37.3c0,2.2,1.8,4,4,4h54.6c2.2,0,4-1.8,4-4V63.2z"/>
	</g>
	<g>
		<path fill="none" stroke="#0B2F6B" stroke-width="1.1977" stroke-miterlimit="10" d="M104.3,66.3L77.1,85.6c-2,1.4-5.3,1.4-7.3,0
			L42.6,66.3"/>
		<line fill="none" stroke="#0B2F6B" stroke-width="1.1977" stroke-miterlimit="10" x1="64.6" y1="81.8" x2="42.6" y2="97.5"/>
		<line fill="none" stroke="#0B2F6B" stroke-width="1.1977" stroke-miterlimit="10" x1="104.3" y1="97.5" x2="82.3" y2="81.8"/>
	</g>
</g>
</svg>
