<?xml version="1.0" encoding="utf-8"?>
<!-- Generator: Adobe Illustrator 17.1.0, SVG Export Plug-In . SVG Version: 6.00 Build 0)  -->
<!DOCTYPE svg PUBLIC "-//W3C//DTD SVG 1.1//EN" "http://www.w3.org/Graphics/SVG/1.1/DTD/svg11.dtd">
<svg version="1.1" id="Layer_1" xmlns="http://www.w3.org/2000/svg" xmlns:xlink="http://www.w3.org/1999/xlink" x="0px" y="0px"
	 viewBox="0 0 333 259.3" enable-background="new 0 0 333 259.3" xml:space="preserve">
<g>
	<g>
		<path fill="#223367" d="M74.4,140.4h7.5v-7.5c-3.7-0.4-7.5,0.4-7.5,4.6V140.4z"/>
		<path fill="#223367" d="M64.8,142.9c-7.9,0-12.1,2.9-12.1,10.8v19.6h7.5v-19.6c0-3.7,1.2-4.2,4.2-4.6c1.7,0,2.5,0.4,4.2-0.8
			c1.7-0.8,2.1-2.9,2.1-5.4C69,142.9,67.3,142.9,64.8,142.9"/>
		<path fill="#223367" d="M24.9,155.3h10.8c4.2,0,5.4,1.7,5.4,5.4c0,4.2-1.2,5.8-5.4,5.8H24.9V155.3z M48.6,161.6
			c0-6.7-2.9-8.7-6.7-9.6c3.3-1.2,5.4-3.3,5.4-9.2c0-7.9-3.7-10.8-11.7-10.8H16.6v41.2h20C44.4,173.2,48.6,170.3,48.6,161.6
			 M24.9,149.1v-10.8h9.6c4.2,0,5.4,1.7,5.4,5.4c0,3.7-1.2,5.4-5.4,5.4L24.9,149.1L24.9,149.1z"/>
		<path fill="#223367" d="M113.9,140.4h7.5v-7.5c-3.7-0.4-7.5,0.4-7.5,4.6V140.4z"/>
	</g>
	<rect x="113.9" y="143.3" fill="#223367" width="7.5" height="30.4"/>
	<g>
		<path fill="#223367" d="M174.3,142.9c-4.2,0-9.2,2.1-12.1,3.3v-15c-3.7-0.4-7.5,0.4-7.5,4.6v37.4h7.5V152c3.3-1.2,7.5-2.5,10-2.5
			c2.1,0,3.3,1.2,3.3,3.3v20.4h7.5v-20.4C183,146.2,180.5,142.9,174.3,142.9"/>
	</g>
	<rect x="74.4" y="143.3" fill="#223367" width="7.5" height="30.4"/>
	<g>
		<path fill="#223367" d="M98.9,149.1h5.4c4.2,0,5.4-1.7,5-5.8H98.9v-10c-3.7-0.4-7.5,0.4-7.5,4.6v5.4h-5.8v5.8h5.8v13.7
			c0,7.5,2.9,10.8,10.8,10.8c2.5,0,4.6,0,6.2-0.4v-5.8c-1.2,0-3.3,0.4-5.4,0.4c-2.9,0-4.2-0.8-4.2-4.2V149.1z"/>
		<path fill="#223367" d="M133.1,151.6c0-2.1,1.7-2.5,3.3-2.5c3.3,0,6.2,0,7.9,0c3.3,0,5-1.7,5-5.8c-2.5-0.4-7.5-0.4-12.1-0.4
			c-6.7,0-11.7,2.5-11.7,8.7c0,6.7,3.7,8.3,10.4,9.2c6.2,0.8,7.5,1.2,7.5,3.3c0,2.5-2.9,2.9-5.4,2.9c-4.2,0-8.3-0.4-10.8-0.4
			l-0.4,6.2c2.9,0.4,7.1,0.4,11.7,0.4c7.9,0,12.9-2.5,12.9-8.7s-3.3-8.3-10-9.2C134.7,154.1,133.1,153.7,133.1,151.6"/>
		<path fill="#223367" d="M233.8,149.5h-15.8c-0.4,4.6,1.2,6.2,5,6.2h2.9v10.4c-2.1,0.4-7.1,0.8-9.2,0.8c-6.2,0-8.7-2.5-8.7-14.6
			c0-11.7,1.7-14.6,11.7-13.7l6.7,0.4c4.6,0.4,6.2-2.1,6.2-5.8c-2.9-0.4-11.2-1.2-14.6-1.2c-14.1,0-17.9,4.2-17.9,20.8
			c0,16.2,4.6,21.2,16.6,21.2c4.6,0,12.9-0.8,17.5-1.7v-22.9H233.8z"/>
		<path fill="#223367" d="M277,151.6c0-2.1,1.7-2.5,3.3-2.5c3.3,0,6.2,0,7.9,0c3.3,0,5-1.7,5-5.8c-2.5-0.4-7.5-0.4-12.1-0.4
			c-6.7,0-11.7,2.5-11.7,8.7c0,6.7,3.7,8.3,10.4,9.2c6.2,0.8,7.5,1.2,7.5,3.3c0,2.5-2.9,2.9-5.4,2.9c-4.2,0-8.3-0.4-10.8-0.4
			l-0.4,6.2c2.9,0.4,7.1,0.4,11.7,0.4c7.9,0,12.9-2.5,12.9-8.7s-3.3-8.3-10-9.2C278.7,154.1,277,153.7,277,151.6"/>
		<path fill="#223367" d="M257.9,167.8c-2.1,0.4-5.8,0.4-9.2,0.4c-2.9,0-3.3-2.1-3.3-3.7c0-2.9,1.2-3.3,4.6-4.2
			c2.5-0.4,5-0.8,8.3-0.8v8.3H257.9z M265.4,152.4c0-6.2-2.5-9.6-10.4-9.6c-5,0-11.2,0.4-14.1,0.8c0,3.7,0.8,5.8,4.2,5.8
			c2.1,0,6.7-0.4,9.2-0.4c2.1,0,3.3,0.8,3.3,3.3v1.2c-3.3,0-6.7,0.4-9.2,0.8c-6.7,0.8-10.4,2.9-10.4,9.6c0,5.8,2.9,9.6,9.2,9.6
			c6.7,0,14.1-0.4,18.3-0.8V152.4z"/>
	</g>
	<g>
		<g>
			<defs>
				<path id="SVGID_7_" d="M270.8,72.5c0,0-10.4,3.3-15.8,8.3c-3.3,2.9-5.8,6.7-7.1,11.2c3.7-2.1,7.9-3.3,7.9-3.3l37-12.1
					c0,0,1.2,27.9-15,40.4c5-0.8,10.4-2.9,16.6-6.7C319.1,96.7,317,57.6,317,57.6L270.8,72.5z"/>
			</defs>
			<clipPath id="SVGID_1_">
				<use xlink:href="#SVGID_7_"  overflow="visible"/>
			</clipPath>
			
				<linearGradient id="SVGID_2_" gradientUnits="userSpaceOnUse" x1="-397.2144" y1="-322.6747" x2="-396.8444" y2="-322.6747" gradientTransform="matrix(-51.2961 -110.0046 110.0046 -51.2961 15414.7812 -60136.7617)">
				<stop  offset="0" style="stop-color:#239DD8"/>
				<stop  offset="0.4786" style="stop-color:#2068AB"/>
				<stop  offset="0.8" style="stop-color:#1F4690"/>
				<stop  offset="1" style="stop-color:#323181"/>
			</linearGradient>
			<polygon clip-path="url(#SVGID_1_)" fill="url(#SVGID_2_)" points="260.8,144.1 225.4,68 306.6,30.1 341.9,106.2 			"/>
		</g>
	</g>
	<g>
		<g>
			<defs>
				<path id="SVGID_10_" d="M243.3,95c-3.7,2.9-5.8,7.5-5.8,12.5c0,9.2,8.3,17.1,18.3,17.1l0,0c5,0,11.2-1.2,19.1-5.8
					c0.8-0.4,2.1-1.2,2.9-1.7c-2.5,0.4-5,0.8-7.1,0.8l0,0c-12.9,0-22.9-9.6-22.9-21.2c0-1.7,0-2.9,0.4-4.6
					C246.7,92.9,245,93.8,243.3,95"/>
			</defs>
			<clipPath id="SVGID_3_">
				<use xlink:href="#SVGID_10_"  overflow="visible"/>
			</clipPath>
			
				<linearGradient id="SVGID_4_" gradientUnits="userSpaceOnUse" x1="-413.8084" y1="-319.8755" x2="-413.4384" y2="-319.8755" gradientTransform="matrix(97.7507 56.4363 -56.4363 97.7504 22637.9336 54719.9531)">
				<stop  offset="0" style="stop-color:#DFDD26"/>
				<stop  offset="1" style="stop-color:#0D793D"/>
			</linearGradient>
			<polygon clip-path="url(#SVGID_3_)" fill="url(#SVGID_4_)" points="247.5,74.2 292,100 267.9,142 223.4,116.2 			"/>
		</g>
	</g>
	<polygon fill="#1DAEE5" points="19.5,206.1 28.2,206.1 28.2,208.2 17,208.2 17,188.2 19.5,188.2 	"/>
	<g>
		<path fill="#1DAEE5" d="M35.7,195.7c-2.1,0-3.3,1.2-3.3,3.3v4.6c0,2.1,1.2,3.3,3.3,3.3s3.3-1.2,3.3-3.3V199
			C39,196.5,38.2,195.7,35.7,195.7 M35.7,208.6c-4.2,0-5.8-2.5-5.8-5.4V199c0-2.9,1.7-5.4,5.8-5.4s5.8,2.5,5.8,5.4v4.2
			C41.5,206.1,39.9,208.6,35.7,208.6"/>
		<path fill="#1DAEE5" d="M49.8,195.7c-2.1,0-3.3,1.2-3.3,3.3v4.6c0,2.1,1.2,3.3,3.3,3.3s3.3-1.2,3.3-3.3V199
			C53.2,196.5,52.3,195.7,49.8,195.7 M49.8,208.6c-4.2,0-5.8-2.5-5.8-5.4V199c0-2.9,1.7-5.4,5.8-5.4s5.8,2.5,5.8,5.4v4.2
			C55.7,206.1,54,208.6,49.8,208.6"/>
	</g>
	<path fill="#1DAEE5" d="M69.8,193.6l-5.4,7.1l5.4,7.5h-2.9l-5.4-7.5l5-7.1H69.8z M58.6,208.2v-20.4l2.5-0.4v20.8H58.6z"/>
	<path fill="#1DAEE5" d="M72.7,193.6h2.5v14.6h-2.5V193.6z M72.7,187.8h2.5v3.7h-2.5V187.8z"/>
	<g>
		<path fill="#1DAEE5" d="M87.7,208.2v-11.2c0-0.8-0.4-1.2-1.2-1.2c-1.2,0-3.3,0.8-5,1.7v11.2H79V194h2.1l0.4,1.2
			c1.7-0.8,4.2-1.7,5.8-1.7c2.5,0,3.3,1.7,3.3,3.7v11.2h-2.9V208.2z"/>
		<path fill="#1DAEE5" d="M101.9,195.7c-0.8,0-2.1-0.4-2.9-0.4c-2.9,0-3.3,1.2-3.3,3.3v5c0,1.7,0.8,2.1,2.5,2.1
			c1.2,0,2.9-0.8,4.2-1.2v-8.7H101.9z M93.1,199c0-3.3,1.2-5.4,6.2-5.4c1.2,0,3.3,0,5.4,0.4v15.4c0,2.9-1.7,5-5.8,5
			c-1.7,0-3.7-0.4-5-0.8l0.4-2.1c1.7,0.4,3.3,0.8,4.6,0.8c2.5,0,3.3-0.8,3.3-2.9v-2.5c-0.8,0.4-2.9,0.8-4.6,0.8
			c-2.9,0-4.2-1.7-4.2-4.6V199H93.1z"/>
		<path fill="#1DAEE5" d="M121.4,202.4h-3.7c-1.7,0-2.1,0.4-2.1,2.1c0,1.7,0.4,2.1,2.1,2.1c1.2,0,2.5-0.4,3.7-1.2V202.4z
			 M123.9,208.2h-2.1v-1.2c-1.2,0.8-2.9,1.2-4.6,1.2c-2.9,0-3.7-1.7-3.7-4.2c0-2.9,1.7-4.2,4.6-4.2h3.7v-2.1c0-1.7-0.8-2.5-3.3-2.5
			c-1.2,0-3.3,0.4-4.6,0.4l-0.4-2.1c1.2-0.4,3.3-0.8,5-0.8c4.2,0,5.4,1.7,5.4,4.6L123.9,208.2L123.9,208.2z"/>
		<path fill="#1DAEE5" d="M144.3,206.1c-0.8,0.4-1.7,0.4-2.5,0.4c-1.2,0-1.7-0.4-1.7-1.7v-9.2h3.7l0.4-2.1h-4.2v-4.2l-2.5,0.4v3.7
			h-2.5h-0.4H131v-2.5c0-1.7,0.4-2.1,2.1-2.1c0.8,0,1.7,0,2.5,0.4l0.4-2.1c-0.8-0.4-2.1-0.4-2.9-0.4c-2.5,0-4.2,1.2-4.2,3.7v2.5
			h-2.5v2.1h2.5v12.5h2.5v-12.5h3.7l0,0h2.5v9.6c0,2.5,1.2,3.3,3.7,3.3c1.2,0,2.1-0.4,2.9-0.4V206.1z"/>
		<path fill="#1DAEE5" d="M149.3,199.9h6.2v-1.2c0-2.1-0.8-3.3-2.9-3.3c-2.5,0-3.3,1.2-3.3,3.3V199.9z M152.6,206.5
			c1.2,0,2.9-0.4,4.6-0.8l0.4,2.1c-1.2,0.4-3.3,0.8-5,0.8c-4.2,0-5.8-2.1-5.8-5.4v-4.6c0-2.9,1.2-5.4,5.8-5.4c4.2,0,5.4,2.5,5.4,5.4
			v2.9h-8.7v1.2C149.3,205.7,149.7,206.5,152.6,206.5"/>
		<path fill="#1DAEE5" d="M167.6,195.7c-1.2,0.8-2.9,1.7-4.2,2.5v10h-2.5v-14.6h2.1v2.1c1.2-0.8,2.5-1.7,4.2-2.5L167.6,195.7z"/>
	</g>
	<polygon fill="#1DAEE5" points="180.1,208.2 178.8,208.2 174.3,193.6 176.8,193.6 180.9,206.5 184.7,193.6 187.2,193.6 
		182.6,208.2 180.5,214.4 178,214.4 	"/>
	<g>
		<path fill="#1DAEE5" d="M194.2,195.7c-2.1,0-3.3,1.2-3.3,3.3v4.6c0,2.1,1.2,3.3,3.3,3.3s3.3-1.2,3.3-3.3V199
			C198,196.5,196.7,195.7,194.2,195.7 M194.2,208.6c-4.2,0-5.8-2.5-5.8-5.4V199c0-2.9,1.7-5.4,5.8-5.4s5.8,2.5,5.8,5.4v4.2
			C200.5,206.1,198.8,208.6,194.2,208.6"/>
		<path fill="#1DAEE5" d="M205.5,193.6v11.2c0,0.8,0.4,1.2,1.2,1.2c1.2,0,3.3-0.8,5-1.7v-11.2h2.5v14.6h-2.1l-0.4-1.2
			c-1.7,0.8-4.2,1.7-5.8,1.7c-2.5,0-3.3-1.7-3.3-3.7v-11.2h2.9V193.6z"/>
		<path fill="#1DAEE5" d="M224.6,195.7c-1.2,0.8-2.9,1.7-4.2,2.5v10h-2.5v-14.6h2.1v2.1c1.2-0.8,2.5-1.7,4.2-2.5L224.6,195.7z"/>
	</g>
	<polygon fill="#1DAEE5" points="244.2,208.2 240.8,196.1 237.1,208.2 234.2,208.2 230.8,193.6 233.3,193.6 235.8,205.7 
		239.2,193.6 242.5,193.6 245.8,205.7 248.3,193.6 250.8,193.6 247.5,208.2 	"/>
	<g>
		<path fill="#1DAEE5" d="M258.3,195.7c-2.1,0-3.3,1.2-3.3,3.3v4.6c0,2.1,1.2,3.3,3.3,3.3c2.1,0,3.3-1.2,3.3-3.3V199
			C261.6,196.5,260.4,195.7,258.3,195.7 M258.3,208.6c-4.2,0-5.8-2.5-5.8-5.4V199c0-2.9,1.7-5.4,5.8-5.4s5.8,2.5,5.8,5.4v4.2
			C264.1,206.1,262.5,208.6,258.3,208.6"/>
		<path fill="#1DAEE5" d="M273.7,195.7c-1.2,0.8-2.9,1.7-4.2,2.5v10H267v-14.6h2.1v2.1c1.2-0.8,2.5-1.7,4.2-2.5L273.7,195.7z"/>
	</g>
	<polygon fill="#1DAEE5" points="276.2,208.2 276.2,187.8 278.7,187.4 278.7,208.2 	"/>
	<g>
		<path fill="#1DAEE5" d="M290.3,196.1c-1.2-0.4-2.9-0.4-4.2-0.4c-1.7,0-2.5,0.8-2.5,2.5v5.8c0,1.7,0.4,2.1,2.1,2.1
			c1.2,0,2.9-0.8,4.2-1.7v-8.3H290.3z M281.6,198.2c0-2.9,1.2-4.6,4.6-4.6c1.2,0,2.9,0.4,4.2,0.4v-6.2l2.5-0.4v20.8h-2.1l-0.4-1.2
			c-1.2,0.8-2.9,1.7-5,1.7c-2.9,0-4.2-1.7-4.2-4.6v-5.8H281.6z"/>
	</g>
</g>
</svg>
