<?xml version="1.0" encoding="utf-8"?>
<!-- Generator: Adobe Illustrator 17.1.0, SVG Export Plug-In . SVG Version: 6.00 Build 0)  -->
<!DOCTYPE svg PUBLIC "-//W3C//DTD SVG 1.1//EN" "http://www.w3.org/Graphics/SVG/1.1/DTD/svg11.dtd">
<svg version="1.1" id="Layer_1" xmlns="http://www.w3.org/2000/svg" xmlns:xlink="http://www.w3.org/1999/xlink" x="0px" y="0px"
	 viewBox="0 0 483 253" enable-background="new 0 0 483 253" xml:space="preserve">
<polygon fill="#3A1E14" points="31.7,478.3 260.4,348 504,403.9 282.9,526.3 "/>
<g>
	<polygon fill="#612B13" points="275.6,351.8 53.5,473.1 53.5,407.2 275.6,289.7 	"/>
	<polygon fill="#A55A32" points="275.1,290 54,408.1 31.5,403.4 254.4,288 	"/>
	<polygon fill="#4F2817" points="54.2,473.1 31.7,469.5 31.7,403.4 54.2,408.1 	"/>
</g>
<g>
	<polygon fill="#612B13" points="383.7,376.3 170.7,494.7 170.7,428.8 384.6,314.3 	"/>
	<polygon fill="#A55A32" points="384.6,314.7 170.7,428.7 148.1,424 363.2,312 	"/>
	<polygon fill="#4F2817" points="170.7,494.7 148.1,491 148.1,424 170.7,428.8 	"/>
</g>
<g>
	<polygon fill="#612B13" points="504,395.1 282.9,517.4 282.9,451.5 504,333.4 	"/>
	<polygon fill="#A55A32" points="504,333.7 282.9,451.4 260.4,446.8 481.4,330.8 	"/>
	<polygon fill="#4F2817" points="282.9,517.4 260.4,513.8 260.4,446.8 282.9,451.5 	"/>
</g>
<polygon fill="#4F2817" points="31.7,468.2 31.7,481.3 282.9,529.3 282.9,516.2 "/>
<polygon fill="#4F2817" points="504,393.9 504,406.9 282.9,529.3 282.9,516.3 "/>
<g>
	<polygon fill="#612B13" points="251.5,75.3 30.4,197.7 30.4,131.7 251.5,14.2 	"/>
	<polygon fill="#A55A32" points="251,14.5 29.9,132.6 7.4,127.9 230.3,12.5 	"/>
	<polygon fill="#4F2817" points="30.1,197.7 7.6,194 7.6,127.9 30.1,132.6 	"/>
</g>
<polygon fill="#FFD101" points="346.8,40.4 125.7,159.6 30.4,139.5 251,23 "/>
<g>
	<polygon fill="#612B13" points="367.6,96.8 146.6,219.2 146.6,153.3 365.5,34.9 	"/>
	<polygon fill="#A55A32" points="365.5,35.2 146.6,153.2 124,148.5 345.1,32.6 	"/>
	<polygon fill="#4F2817" points="146.6,219.2 124,215.6 124,148.5 146.6,153.3 	"/>
</g>
<polygon fill="#FFD101" points="458,61 236.9,180.3 146.9,160.6 362.1,43.6 "/>
<g>
	<polygon fill="#612B13" points="479.9,119.6 258.8,242 258.8,176 479.9,57.9 	"/>
	<polygon fill="#A55A32" points="479.9,58.2 258.8,176 236.3,171.3 457.3,55.3 	"/>
	<polygon fill="#4F2817" points="258.8,242 236.3,238.3 236.3,171.3 258.8,176 	"/>
</g>
<polygon fill="#C0972E" points="236.3,233.8 146.9,216.2 146.9,160.8 236.3,179.5 "/>
<polygon fill="#C0972E" points="123.9,212.4 30.4,194.9 30.4,139.5 123.9,158.2 "/>
<polygon fill="#4F2817" points="7.6,189.8 7.6,202.9 258.8,250.8 258.8,237.7 "/>
<polygon fill="#4F2817" points="479.9,115.4 479.9,128.5 258.8,250.8 258.8,237.8 "/>
</svg>
