<?xml version="1.0" encoding="utf-8"?>
<!-- Generator: Adobe Illustrator 18.0.0, SVG Export Plug-In . SVG Version: 6.00 Build 0)  -->
<!DOCTYPE svg PUBLIC "-//W3C//DTD SVG 1.1//EN" "http://www.w3.org/Graphics/SVG/1.1/DTD/svg11.dtd">
<svg version="1.1" id="Layer_1" xmlns="http://www.w3.org/2000/svg" xmlns:xlink="http://www.w3.org/1999/xlink" x="0px" y="0px"
	 width="1618.7px" height="800px" viewBox="-169.4 0 1618.7 800" enable-background="new -169.4 0 1618.7 800" xml:space="preserve"
	>
<rect x="-169.8" fill="#676D83" width="1620.8" height="801.4"/>
<g>
	<g>
		<g>
			<path fill="#5D647A" d="M759.3,581.4H521.1c-15.5,0-24.5-9.1-24.5-25.2V370c0-5,4.1-9.3,9.3-9.3c5.2,0,9.3,4.1,9.3,9.3v186.2
				c0,3.5,0.7,5.2,1.3,5.8c0.2,0.2,1.3,0.9,4.7,0.9h238.2c3.7,0,4.7-0.6,4.7-0.7c0.4-0.2,1.1-1.9,1.1-6V370c0-5,4.1-9.3,9.3-9.3
				c5,0,9.3,4.1,9.3,9.3v186.2C783.8,576.9,770.5,581.4,759.3,581.4z"/>
		</g>
	</g>
	<g>
		<g>
			<polygon fill="#5D647A" points="744,537.1 736.2,537.1 736.2,388.3 640.2,292.2 544,388.3 544,537.1 536.4,537.1 536.4,384.9 
				640.2,281.1 744,384.9 			"/>
		</g>
	</g>
	<g>
		<g>
			<path fill="#5D647A" d="M814.2,420.4c-3.5,0-7.1-1.3-9.9-4.1l-174-174c-5.4-5.4-5.4-14.2,0-19.6c5.4-5.4,14.2-5.4,19.6,0l174,174
				c5.4,5.4,5.4,14.2,0,19.6C821.3,418.9,817.7,420.4,814.2,420.4z"/>
		</g>
		<g>
			<path fill="#5D647A" d="M466,420.4c-3.5,0-7.1-1.3-9.9-4.1c-5.4-5.4-5.4-14.2,0-19.6l174-174c5.4-5.4,14.2-5.4,19.6,0
				c5.4,5.4,5.4,14.2,0,19.6l-174,174C473.3,418.9,469.5,420.4,466,420.4z"/>
		</g>
	</g>
</g>
</svg>
