<?xml version="1.0" encoding="utf-8"?>
<!-- Generator: Adobe Illustrator 17.1.0, SVG Export Plug-In . SVG Version: 6.00 Build 0)  -->
<!DOCTYPE svg PUBLIC "-//W3C//DTD SVG 1.1//EN" "http://www.w3.org/Graphics/SVG/1.1/DTD/svg11.dtd">
<svg version="1.1" id="Layer_1" xmlns="http://www.w3.org/2000/svg" xmlns:xlink="http://www.w3.org/1999/xlink" x="0px" y="0px"
	 viewBox="257.8 26.3 354 549.8" enable-background="new 257.8 26.3 354 549.8" xml:space="preserve">
<g>
	<g>
		<path fill="#7C001A" d="M345.4,208.2V142c0-0.1-0.1-0.2-0.2-0.2h-26.8c-4.5,0-8.2-2.5-10-7c-1.8-5-1.4-9.3,1.8-13.2c0,0,0,0,0,0
			l119-89.3c0,0,0,0,0,0c2-2.5,5-3.9,7.7-3.9c3.2,0,6.1,1.4,8.2,3.9c0,0,0,0,0,0l120.4,89.3c0,0,0,0,0,0c3.2,3.9,3.9,8.4,2,13.2
			c-2,5-5.2,7-10,7h-26.8c-0.1,0-0.2,0.1-0.2,0.2v139.3c0,0.1-0.2,0.2-0.3,0.2l-94.1-57.3c-0.1,0-0.1,0-0.2,0l-74.5,44.5
			c-0.1,0.1-0.3,0-0.3-0.2v-29.1c0-0.1,0.1-0.2,0.2-0.2l4.9-0.3c0.1,0,0.2-0.1,0.2-0.2v-10.2c0-0.1-0.1-0.2-0.2-0.2h-12.5
			c-0.1,0-0.2-0.1-0.2-0.2v-18.6c0-0.1-0.1-0.2-0.2-0.2l-7.8-1C345.5,208.4,345.4,208.3,345.4,208.2z"/>
	</g>
</g>
<g>
	<polygon fill="none" stroke="#575756" stroke-width="6.8948" points="366.4,228.3 353.5,228.3 353.5,209.3 338.2,209.3 
		338.2,228.3 325.1,228.3 325.1,238.9 366.4,238.9 	"/>
	<polyline fill="none" stroke="#454545" stroke-width="6.8948" points="303.1,329.3 303.1,339.5 303.1,458 303.1,538.4 434.4,538.4 
		565.7,538.4 565.7,458 565.7,339.3 565.7,329.3 565.7,328.7 579.7,337.4 587.7,337.4 587.7,328.2 587.7,320.3 587.7,320.3 
		587.7,311.1 434.4,215.5 361.1,261.3 361.1,239.2 330.6,239.2 330.6,280.4 281.2,311.1 281.2,320.3 281.2,328.2 281.2,337.4 
		288.3,337.4 	"/>
</g>
<g>
	<g>
		<polygon fill="none" stroke="#454545" stroke-width="6.8948" points="361.1,272.6 330.6,291.9 330.6,239.2 361.1,239.2 		"/>
		<rect x="325.1" y="228.3" fill="none" stroke="#454545" stroke-width="6.8948" width="41.3" height="10.6"/>
	</g>
	<g>
		<polygon fill="none" stroke="#454545" stroke-width="6.8948" points="361.1,275.7 330.6,295 330.6,239.2 361.1,239.2 		"/>
		<rect x="338.2" y="209.3" fill="none" stroke="#454545" stroke-width="6.8948" width="15.3" height="19.2"/>
		<rect x="325.1" y="228.3" fill="none" stroke="#454545" stroke-width="6.8948" width="41.3" height="10.6"/>
	</g>
</g>
<path fill="#454545" d="M470,427.6v109.6h-71.1V427.6l35.6-22.1L470,427.6z M407.8,537.3h53.3v-97.8h-53.3V537.3z"/>
<rect x="413.7" y="483.2" fill="none" stroke="#454545" stroke-width="4.4106" width="17.8" height="48.2"/>
<rect x="436.9" y="483.2" fill="none" stroke="#454545" stroke-width="4.4106" width="17.8" height="48.2"/>
<rect x="413.7" y="445.5" fill="none" stroke="#454545" stroke-width="4.4106" width="17.8" height="32.4"/>
<rect x="436.9" y="445.5" fill="none" stroke="#454545" stroke-width="4.4106" width="17.8" height="32.4"/>
<g>
	<g>
		<polygon fill="#454545" stroke="#454545" stroke-width="2.2053" points="587.7,328.2 434.4,231.4 281.2,328.2 281.2,311.1 
			434.4,215.5 587.7,311.1 		"/>
	</g>
	<polygon fill="none" stroke="#454545" stroke-width="8.8212" points="290.3,337.4 434.4,246.8 579.7,337.4 587.7,337.4 
		587.7,320.3 587.7,320.3 434.4,223.1 281.2,318.7 281.2,337.4 288.6,337.4 	"/>
</g>
<g>
	<g enable-background="new    ">
		<path fill="#FFFFFF" d="M381.8,188.7c0-0.1,0-0.1,0.1-0.1l21.4-20.7c0.6-0.6,1.3-1.3,1.9-2c0.7-0.7,1.3-1.4,1.8-2.2
			c0.3-0.5,0.6-1,0.9-1.4c0.6-1.1,1.1-3,1-4.2c-0.1-0.9-0.3-1.7-0.6-2.5c-0.4-0.9-1-1.6-1.8-2.3c-0.7-0.6-1.6-1.1-2.5-1.4
			c-1-0.3-2-0.5-3.1-0.5c-2.3,0-4.3,0.7-5.8,2c-1.5,1.3-2.4,3.1-2.7,5.3c0,0.1-0.1,0.2-0.2,0.2l-9.5-0.7c-0.1,0-0.2-0.1-0.2-0.2
			c0.2-2.5,0.8-4.6,1.8-6.5c1-1.9,2.3-3.6,3.9-4.9c1.6-1.3,3.5-2.3,5.6-3c2.1-0.7,4.4-1,6.9-1s4.8,0.3,7,1c2.2,0.6,4,1.6,5.6,2.9
			c1.6,1.3,2.9,2.9,3.8,4.9c0.9,2,1.4,4.3,1.4,6.9c0,3.5-0.8,6.5-2.4,9c-1.6,2.5-3.6,4.9-6.1,7.2l-16.7,15.5c-0.1,0.1,0,0.3,0.1,0.3
			h24.9c0.1,0,0.2,0.1,0.2,0.2v8c0,0.1-0.1,0.2-0.2,0.2h-36.5c-0.1,0-0.2-0.1-0.2-0.2V188.7z"/>
	</g>
	<g enable-background="new    ">
		<path fill="#FFFFFF" d="M456.7,151.8h-21.8c-0.1,0-0.2,0.1-0.2,0.2l-0.2,10.5c0,0.1,0.1,0.2,0.2,0.2c0.7-0.2,1.5-0.4,2.5-0.5
			c1.1-0.1,2.2-0.2,3.2-0.2c2.7,0,5.2,0.4,7.4,1.3s4.2,2.1,5.8,3.7c1.6,1.6,2.9,3.5,3.8,5.8c0.9,2.2,1.4,4.8,1.4,7.6
			c0,3-0.5,5.6-1.5,8c-1,2.4-2.4,4.4-4.2,6s-3.9,2.9-6.3,3.8c-2.4,0.9-5.1,1.3-7.9,1.3c-4.4,0-8.2-1-11.3-3.1c-3-2-5.2-5.1-6.5-9.3
			c0-0.1,0-0.2,0.1-0.2l9.5-2.6c0.1,0,0.2,0,0.2,0.1c0.6,1.9,1.7,3.4,3.1,4.5c1.5,1.1,3.5,1.7,5.8,1.7c1.4,0,2.7-0.2,3.9-0.7
			c1.2-0.5,2.2-1.1,3-2c0.9-0.9,1.5-1.9,2-3c0.5-1.1,0.7-2.4,0.7-3.7c0-1.9-0.4-3.6-1.1-4.9c-0.7-1.4-1.6-2.5-2.8-3.3
			c-1.2-0.9-2.6-1.5-4.1-1.9c-1.6-0.4-3.2-0.6-4.9-0.6c-2,0-4,0.2-6,0.7c-1.9,0.4-3.6,1-5.2,1.8c-0.1,0.1-0.3,0-0.3-0.2l0.5-29.3
			c0-0.1,0.1-0.2,0.2-0.2h31c0.1,0,0.2,0.1,0.2,0.2v8C456.9,151.7,456.8,151.8,456.7,151.8z"/>
	</g>
	<g enable-background="new    ">
		<path fill="#FFFFFF" d="M462.8,168.9c0-1.2,0.2-2.3,0.7-3.3c0.4-1,1.1-1.9,1.8-2.7c0.8-0.8,1.7-1.4,2.7-1.8c1-0.4,2.1-0.7,3.3-0.7
			c1.2,0,2.3,0.2,3.3,0.7c1,0.4,1.9,1.1,2.7,1.8c0.8,0.8,1.4,1.7,1.8,2.7c0.4,1,0.7,2.1,0.7,3.3s-0.2,2.3-0.7,3.3
			c-0.4,1-1.1,1.9-1.8,2.7c-0.8,0.8-1.7,1.4-2.7,1.8c-1,0.4-2.1,0.7-3.3,0.7c-1.2,0-2.3-0.2-3.3-0.7c-1-0.4-1.9-1.1-2.7-1.8
			c-0.8-0.8-1.4-1.7-1.8-2.7C463,171.3,462.8,170.1,462.8,168.9z M475.5,168.9c0-1.2-0.4-2.1-1.2-2.9c-0.8-0.8-1.8-1.2-2.9-1.2
			c-1.2,0-2.1,0.4-2.9,1.2c-0.8,0.8-1.2,1.8-1.2,2.9c0,1.2,0.4,2.1,1.2,2.9c0.8,0.8,1.8,1.2,2.9,1.2c1.2,0,2.1-0.4,2.9-1.2
			C475.1,171.1,475.5,170.1,475.5,168.9z M490.2,159.5l3.5,1.6c0.1,0,0.1,0.2,0.1,0.3l-19,33.5c0,0.1-0.2,0.1-0.2,0.1l-3.5-1.6
			c-0.1,0-0.1-0.2-0.1-0.3l19-33.5C490,159.5,490.1,159.5,490.2,159.5z M484.7,185.5c0-1.2,0.2-2.3,0.7-3.3c0.4-1,1.1-1.9,1.8-2.7
			c0.8-0.8,1.7-1.4,2.7-1.8c1-0.4,2.1-0.7,3.3-0.7c1.2,0,2.3,0.2,3.3,0.7c1,0.4,1.9,1.1,2.7,1.8c0.8,0.8,1.4,1.7,1.8,2.7
			c0.4,1,0.7,2.1,0.7,3.3s-0.2,2.3-0.7,3.3c-0.4,1-1.1,1.9-1.8,2.7c-0.8,0.8-1.7,1.4-2.7,1.8c-1,0.4-2.1,0.7-3.3,0.7
			c-1.2,0-2.3-0.2-3.3-0.7c-1-0.4-1.9-1.1-2.7-1.8c-0.8-0.8-1.4-1.7-1.8-2.7C484.9,187.8,484.7,186.7,484.7,185.5z M497.4,185.5
			c0-1.2-0.4-2.1-1.2-2.9c-0.8-0.8-1.8-1.2-2.9-1.2c-1.2,0-2.1,0.4-2.9,1.2c-0.8,0.8-1.2,1.8-1.2,2.9c0,1.2,0.4,2.1,1.2,2.9
			c0.8,0.8,1.8,1.2,2.9,1.2c1.2,0,2.1-0.4,2.9-1.2C497,187.7,497.4,186.7,497.4,185.5z"/>
	</g>
	<g enable-background="new    ">
		<path fill="#FFFFFF" d="M381.2,128.5h-3.7c-0.1,0-0.2-0.1-0.2-0.2V88.6c0-0.1,0.1-0.2,0.2-0.2h12.2c8.2,0,13.2,3.5,13.2,10.7
			c0,5.5-3.6,9.7-10,10.3c-0.1,0-0.2,0.2-0.1,0.3l11.2,18.5c0.1,0.1,0,0.3-0.2,0.3h-4.5c-0.1,0-0.1,0-0.2-0.1l-10.9-18.5
			c0-0.1-0.1-0.1-0.2-0.1h-6.5c-0.1,0-0.2,0.1-0.2,0.2v18.3C381.4,128.4,381.3,128.5,381.2,128.5z M381.4,105.9
			c0,0.1,0.1,0.2,0.2,0.2h7.1c7.3,0,9.8-3.2,9.8-7s-2.5-7-9.8-7h-7.1c-0.1,0-0.2,0.1-0.2,0.2V105.9z"/>
	</g>
	<g enable-background="new    ">
		<path fill="#FFFFFF" d="M417.9,129.2c-8.2,0-14.1-5.9-14.1-13.9c0-8,5.8-13.9,14.1-13.9c8.3,0,14.1,5.9,14.1,13.9
			C432,123.2,426.2,129.2,417.9,129.2z M417.9,104.7c-6.1,0-10,4.6-10,10.5c0,5.9,3.9,10.5,10,10.5c6.2,0,10-4.6,10-10.5
			C427.9,109.3,424.1,104.7,417.9,104.7z"/>
		<path fill="#FFFFFF" d="M449.5,129.2c-8.2,0-14.1-5.9-14.1-13.9c0-8,5.8-13.9,14.1-13.9c8.3,0,14.1,5.9,14.1,13.9
			C463.6,123.2,457.8,129.2,449.5,129.2z M449.5,104.7c-6.1,0-10,4.6-10,10.5c0,5.9,3.9,10.5,10,10.5c6.2,0,10-4.6,10-10.5
			C459.6,109.3,455.7,104.7,449.5,104.7z"/>
	</g>
	<g enable-background="new    ">
		<path fill="#FFFFFF" d="M479,105.4h-5.9c-0.1,0-0.2,0.1-0.2,0.2v22.7c0,0.1-0.1,0.2-0.2,0.2h-3.4c-0.1,0-0.2-0.1-0.2-0.2v-22.7
			c0-0.1-0.1-0.2-0.2-0.2h-5.2c-0.1,0-0.2-0.1-0.2-0.2v-3c0-0.1,0.1-0.2,0.2-0.2h5.2c0.1,0,0.2-0.1,0.2-0.2v-7.1
			c0-7,3.5-9.7,8.9-9.7c1,0,2,0.2,3,0.4c0.1,0,0.2,0.1,0.1,0.2l-0.6,3c0,0.1-0.1,0.2-0.2,0.1c-0.9-0.2-1.8-0.4-2.7-0.4
			c-4.1,0-4.8,2.9-4.8,6.8v6.6c0,0.1,0.1,0.2,0.2,0.2h5.9c0.1,0,0.2,0.1,0.2,0.2v3C479.2,105.3,479.1,105.4,479,105.4z"/>
		<path fill="#FFFFFF" d="M496.8,108.2c-0.1,0.1-0.2,0-0.3-0.1c-1.1-2.1-3-3.4-5.6-3.4c-2.6,0-5.5,1.1-5.5,4c0,2.5,1.8,3.4,5.2,4.2
			l3.8,0.9c3.7,0.8,6.5,3.5,6.5,7.3c0,5.8-5.2,8.2-10.3,8.2c-4,0-7.6-1.4-10.1-5c-0.1-0.1,0-0.2,0-0.3l2.9-2c0.1-0.1,0.2,0,0.3,0.1
			c2,3,5.2,4.6,9.7,3.4c2.1-0.6,3.6-2.5,3.3-4.6c-0.3-2.2-2.5-3-5-3.6l-3.6-0.9c-1.8-0.5-6.8-1.9-6.8-7c0-5.5,4.8-8,9.8-8
			c3.6,0,7,1.3,8.8,4.6c0,0.1,0,0.2-0.1,0.3L496.8,108.2z"/>
	</g>
</g>
<g>
	<path fill="#454545" d="M517.8,451.1h19.5v-19.5h-19.5V451.1z M493.5,451.1H513v-19.5h-19.5V451.1z M517.8,474.3h19.5v-19.5h-19.5
		V474.3z M493.5,474.3H513v-19.5h-19.5V474.3z M544.8,480.7h-58.9v-56h58.9V480.7z"/>
	<rect x="483.2" y="477.9" fill="#454545" width="64.4" height="7.8"/>
</g>
<g>
	<path fill="#454545" d="M358.6,451.1h19.5v-19.5h-19.5V451.1z M334.2,451.1h19.5v-19.5h-19.5V451.1z M358.6,474.3h19.5v-19.5h-19.5
		V474.3z M334.2,474.3h19.5v-19.5h-19.5V474.3z M385.6,480.7h-58.9v-56h58.9V480.7z"/>
	<rect x="323.9" y="477.9" fill="#454545" width="64.4" height="7.8"/>
</g>
<g>
	<path fill="#454545" d="M517.8,361h19.5v-19.5h-19.5V361z M493.5,361H513v-19.5h-19.5V361z M517.8,384.2h19.5v-19.5h-19.5V384.2z
		 M493.5,384.2H513v-19.5h-19.5V384.2z M544.8,390.6h-58.9v-56h58.9V390.6z"/>
	<rect x="483.2" y="387.6" fill="#454545" width="64.4" height="7.8"/>
</g>
<g>
	<path fill="#454545" d="M358.6,360.8h19.5v-19.5h-19.5V360.8z M334.2,360.8h19.5v-19.5h-19.5V360.8z M358.6,384.1h19.5v-19.5h-19.5
		V384.1z M334.2,384.1h19.5v-19.5h-19.5V384.1z M385.6,390.5h-58.9v-56h58.9V390.5z"/>
	<rect x="323.9" y="387.5" fill="#454545" width="64.4" height="7.8"/>
</g>
<polygon fill="#FFFFFF" stroke="#454545" stroke-width="4" points="434.4,415.4 406.7,432.7 462.2,432.7 "/>
<line fill="none" stroke="#454545" stroke-width="6.6159" x1="434.4" y1="415.4" x2="434.4" y2="432.7"/>
</svg>
