<?xml version="1.0" encoding="utf-8"?>
<!-- Generator: Adobe Illustrator 17.1.0, SVG Export Plug-In . SVG Version: 6.00 Build 0)  -->
<!DOCTYPE svg PUBLIC "-//W3C//DTD SVG 1.1//EN" "http://www.w3.org/Graphics/SVG/1.1/DTD/svg11.dtd">
<svg version="1.1" id="Layer_1" xmlns="http://www.w3.org/2000/svg" xmlns:xlink="http://www.w3.org/1999/xlink" x="0px" y="0px"
	 viewBox="0 0 483 310" enable-background="new 0 0 483 310" xml:space="preserve">
<polygon fill="#3A1E14" points="31.7,535.3 260.4,405 504,460.9 282.9,583.3 "/>
<g>
	<polygon fill="#612B13" points="275.6,408.8 53.5,530.1 53.5,464.2 275.6,346.7 	"/>
	<polygon fill="#A55A32" points="275.1,347 54,465.1 31.5,460.4 254.4,345 	"/>
	<polygon fill="#4F2817" points="54.2,530.1 31.7,526.5 31.7,460.4 54.2,465.1 	"/>
</g>
<g>
	<polygon fill="#612B13" points="383.7,433.3 170.7,551.7 170.7,485.8 384.6,371.3 	"/>
	<polygon fill="#A55A32" points="384.6,371.7 170.7,485.7 148.1,481 363.2,369 	"/>
	<polygon fill="#4F2817" points="170.7,551.7 148.1,548 148.1,481 170.7,485.8 	"/>
</g>
<g>
	<polygon fill="#612B13" points="504,452.1 282.9,574.4 282.9,508.5 504,390.4 	"/>
	<polygon fill="#A55A32" points="504,390.7 282.9,508.4 260.4,503.8 481.4,387.8 	"/>
	<polygon fill="#4F2817" points="282.9,574.4 260.4,570.8 260.4,503.8 282.9,508.5 	"/>
</g>
<polygon fill="#4F2817" points="31.7,525.2 31.7,538.3 282.9,586.3 282.9,573.2 "/>
<polygon fill="#4F2817" points="504,450.9 504,463.9 282.9,586.3 282.9,573.3 "/>
<g>
	<polygon fill="#C69977" stroke="#AE855E" stroke-width="2" stroke-linejoin="round" stroke-miterlimit="10" points="147.9,273 
		108.1,263.5 107.8,214.5 147.6,224.1 	"/>
	<polygon fill="#AE855E" stroke="#AE855E" stroke-width="2" stroke-linejoin="round" stroke-miterlimit="10" points="262.5,211.9 
		222.7,202.4 222.4,153.4 262.2,163 	"/>
	<g>
		<polygon fill="#EAB883" stroke="#AE855E" stroke-width="1.9424" stroke-linejoin="round" stroke-miterlimit="10" points="
			261.1,212.5 261.1,162.4 290.2,146.4 290.2,196.1 		"/>
		<polygon fill="#AE855E" stroke="#AE855E" stroke-width="1.9424" stroke-linejoin="round" stroke-miterlimit="10" points="
			260.5,212.5 222.7,203.1 222.4,154.5 260.2,163.9 		"/>
	</g>
	<polygon fill="#EAB883" stroke="#AE855E" stroke-width="2" stroke-linejoin="round" stroke-miterlimit="10" points="260.9,212.3 
		206,241.8 206,192.4 260.9,163 	"/>
	<polygon fill="#AE855E" stroke="#AE855E" stroke-width="2" stroke-linejoin="round" stroke-miterlimit="10" points="260.8,162.4 
		205.9,191.8 165.3,181.9 220.2,152.5 	"/>
	<polygon fill="#AE855E" stroke="#AE855E" stroke-width="2" stroke-linejoin="round" stroke-miterlimit="10" points="205.4,241.8 
		165.6,232.2 165.3,183.3 205.1,192.8 	"/>
	<polygon fill="#EAB883" stroke="#AE855E" stroke-width="2" stroke-linejoin="round" stroke-miterlimit="10" points="203.9,243.4 
		149,272.9 149,223.6 203.9,194.1 	"/>
	<linearGradient id="SVGID_1_" gradientUnits="userSpaceOnUse" x1="150.9182" y1="222.026" x2="160.9182" y2="185.526">
		<stop  offset="0" style="stop-color:#D6A274"/>
		<stop  offset="0.3384" style="stop-color:#D3A072"/>
		<stop  offset="0.607" style="stop-color:#AE855E"/>
	</linearGradient>
	<polygon fill="url(#SVGID_1_)" stroke="#AE855E" stroke-width="2" stroke-linejoin="round" stroke-miterlimit="10" points="
		203.8,193.5 148.9,223 108.3,213 163.2,183.6 	"/>
	<polygon fill="#AE855E" stroke="#AE855E" stroke-width="2" stroke-linejoin="round" stroke-miterlimit="10" points="235,173.3 
		195.2,163.7 194.9,114.8 234.7,124.3 	"/>
	<g>
		<polygon fill="#EAB883" stroke="#AE855E" stroke-width="2" stroke-linejoin="round" stroke-miterlimit="10" points="289.5,144.8 
			234.6,174.3 234.6,124.9 289.5,95.5 		"/>
		<polygon fill="#EAB883" stroke="#AE855E" stroke-width="2" stroke-linejoin="round" stroke-miterlimit="10" points="232.5,175.9 
			177.6,205.4 177.6,156 232.5,126.6 		"/>
		<linearGradient id="SVGID_2_" gradientUnits="userSpaceOnUse" x1="177.4131" y1="162.2624" x2="187.4131" y2="125.7624">
			<stop  offset="0" style="stop-color:#D6A274"/>
			<stop  offset="0.3384" style="stop-color:#D3A072"/>
			<stop  offset="0.607" style="stop-color:#AE855E"/>
		</linearGradient>
		<polygon fill="url(#SVGID_2_)" stroke="#AE855E" stroke-width="2" stroke-linejoin="round" stroke-miterlimit="10" points="
			232.4,126 177.5,155.5 136.9,145.5 191.8,116.1 		"/>
		<polygon fill="#C69977" stroke="#AE855E" stroke-width="2" stroke-linejoin="round" stroke-miterlimit="10" points="177,205.4 
			137.2,195.8 136.9,146.9 176.7,156.4 		"/>
	</g>
	<polygon fill="#AE855E" stroke="#AE855E" stroke-width="2" stroke-linejoin="round" stroke-miterlimit="10" points="289.7,94.6 
		234.8,124 194.9,116.4 249.8,87 	"/>
	<g>
		<polygon fill="#EAB883" stroke="#AE855E" stroke-width="2" stroke-linejoin="round" stroke-miterlimit="10" points="258.1,109.7 
			258.1,60.4 288.8,44.3 288.8,93.1 		"/>
		<polygon fill="#D6A274" stroke="#AE855E" stroke-width="2" stroke-linejoin="round" stroke-miterlimit="10" points="288.1,44.3 
			258,59.8 217.4,49.8 244.8,35.1 		"/>
		<polygon fill="#AE855E" stroke="#AE855E" stroke-width="2" stroke-linejoin="round" stroke-miterlimit="10" points="257.5,109.7 
			217.7,100.1 217.4,51.2 257.2,60.7 		"/>
	</g>
	<g>
		<polygon fill="#EAB883" stroke="#AE855E" stroke-width="2" stroke-linejoin="round" stroke-miterlimit="10" points="256,111.4 
			201.1,140.8 201.1,91.5 256,62 		"/>
		<polygon fill="#D6A274" stroke="#AE855E" stroke-width="2" stroke-linejoin="round" stroke-miterlimit="10" points="255.9,61.4 
			201,90.9 160.4,80.9 215.3,51.5 		"/>
		<polygon fill="#C69977" stroke="#AE855E" stroke-width="2" stroke-linejoin="round" stroke-miterlimit="10" points="200.5,140.8 
			160.7,131.3 160.4,82.3 200.2,91.9 		"/>
	</g>
</g>
<g>
	<linearGradient id="SVGID_3_" gradientUnits="userSpaceOnUse" x1="169.5893" y1="292.4642" x2="169.5893" y2="39.6191">
		<stop  offset="0" style="stop-color:#C0972E"/>
		<stop  offset="1" style="stop-color:#FFD101"/>
	</linearGradient>
	<polygon fill="url(#SVGID_3_)" points="149.9,106 149.5,105.9 150.2,293.1 150.3,293.1 189.7,302.7 189.7,112.2 	"/>
	<linearGradient id="SVGID_4_" gradientUnits="userSpaceOnUse" x1="-14.0025" y1="185.893" x2="463.3953" y2="-35.3402">
		<stop  offset="0" style="stop-color:#C0972E"/>
		<stop  offset="1" style="stop-color:#FFD101"/>
	</linearGradient>
	<polygon fill="url(#SVGID_4_)" points="189.7,112.2 368.9,13.4 327.8,6.7 149.9,106 149.9,106 	"/>
	<polygon fill="#FFD101" points="237.7,277.3 368.9,201.4 368.9,13.4 189.7,112.2 189.7,302.7 237.7,277.3 	"/>
</g>
<g>
	<polygon fill="#C69977" stroke="#AE855E" stroke-width="2" stroke-linejoin="round" stroke-miterlimit="10" points="250.1,300.3 
		210.3,290.8 210,241.8 249.8,251.4 	"/>
	<polygon fill="#AE855E" stroke="#AE855E" stroke-width="2" stroke-linejoin="round" stroke-miterlimit="10" points="364.7,239.2 
		324.9,229.7 324.6,180.7 364.4,190.3 	"/>
	<g>
		<polygon fill="#EAB883" stroke="#AE855E" stroke-width="1.9424" stroke-linejoin="round" stroke-miterlimit="10" points="
			363.3,239.8 363.3,189.7 392.4,173.7 392.4,223.4 		"/>
		<polygon fill="#AE855E" stroke="#AE855E" stroke-width="1.9424" stroke-linejoin="round" stroke-miterlimit="10" points="
			362.7,239.8 324.9,230.3 324.6,181.8 362.4,191.2 		"/>
	</g>
	<polygon fill="#EAB883" stroke="#AE855E" stroke-width="2" stroke-linejoin="round" stroke-miterlimit="10" points="363.1,239.6 
		308.2,269.1 308.2,219.7 363.1,190.3 	"/>
	<polygon fill="#AE855E" stroke="#AE855E" stroke-width="2" stroke-linejoin="round" stroke-miterlimit="10" points="363,189.7 
		308.1,219.1 267.5,209.2 322.4,179.7 	"/>
	<polygon fill="#AE855E" stroke="#AE855E" stroke-width="2" stroke-linejoin="round" stroke-miterlimit="10" points="307.6,269.1 
		267.8,259.5 267.5,210.6 307.3,220.1 	"/>
	<polygon fill="#EAB883" stroke="#AE855E" stroke-width="2" stroke-linejoin="round" stroke-miterlimit="10" points="306.1,270.7 
		251.2,300.2 251.2,250.8 306.1,221.4 	"/>
	<linearGradient id="SVGID_5_" gradientUnits="userSpaceOnUse" x1="253.1137" y1="249.3149" x2="263.1137" y2="212.8149">
		<stop  offset="0" style="stop-color:#D6A274"/>
		<stop  offset="0.3384" style="stop-color:#D3A072"/>
		<stop  offset="0.607" style="stop-color:#AE855E"/>
	</linearGradient>
	<polygon fill="url(#SVGID_5_)" stroke="#AE855E" stroke-width="2" stroke-linejoin="round" stroke-miterlimit="10" points="
		306,220.8 251.1,250.3 210.5,240.3 265.4,210.9 	"/>
	<polygon fill="#AE855E" stroke="#AE855E" stroke-width="2" stroke-linejoin="round" stroke-miterlimit="10" points="337.2,200.6 
		297.4,191 297.1,142.1 336.9,151.6 	"/>
	<g>
		<polygon fill="#EAB883" stroke="#AE855E" stroke-width="2" stroke-linejoin="round" stroke-miterlimit="10" points="391.7,172.1 
			336.8,201.6 336.8,152.2 391.7,122.8 		"/>
		<polygon fill="#EAB883" stroke="#AE855E" stroke-width="2" stroke-linejoin="round" stroke-miterlimit="10" points="334.7,203.2 
			279.8,232.7 279.8,183.3 334.7,153.9 		"/>
		<linearGradient id="SVGID_6_" gradientUnits="userSpaceOnUse" x1="279.6086" y1="189.5512" x2="289.6086" y2="153.0512">
			<stop  offset="0" style="stop-color:#D6A274"/>
			<stop  offset="0.3384" style="stop-color:#D3A072"/>
			<stop  offset="0.607" style="stop-color:#AE855E"/>
		</linearGradient>
		<polygon fill="url(#SVGID_6_)" stroke="#AE855E" stroke-width="2" stroke-linejoin="round" stroke-miterlimit="10" points="
			334.6,153.3 279.7,182.7 239.1,172.8 294,143.4 		"/>
		<polygon fill="#C69977" stroke="#AE855E" stroke-width="2" stroke-linejoin="round" stroke-miterlimit="10" points="279.2,232.7 
			239.4,223.1 239.1,174.2 278.9,183.7 		"/>
	</g>
	<polygon fill="#AE855E" stroke="#AE855E" stroke-width="2" stroke-linejoin="round" stroke-miterlimit="10" points="391.9,121.9 
		337,151.3 297.1,143.7 352,114.2 	"/>
	<g>
		<polygon fill="#EAB883" stroke="#AE855E" stroke-width="2" stroke-linejoin="round" stroke-miterlimit="10" points="360.3,137 
			360.3,87.6 391,71.6 391,120.4 		"/>
		<polygon fill="#D6A274" stroke="#AE855E" stroke-width="2" stroke-linejoin="round" stroke-miterlimit="10" points="390.3,71.6 
			360.2,87.1 319.6,77.1 347,62.4 		"/>
		<polygon fill="#AE855E" stroke="#AE855E" stroke-width="2" stroke-linejoin="round" stroke-miterlimit="10" points="359.7,137 
			319.9,127.4 319.6,78.5 359.4,88 		"/>
	</g>
	<g>
		<polygon fill="#EAB883" stroke="#AE855E" stroke-width="2" stroke-linejoin="round" stroke-miterlimit="10" points="358.2,138.7 
			303.3,168.1 303.3,118.8 358.2,89.3 		"/>
		<polygon fill="#D6A274" stroke="#AE855E" stroke-width="2" stroke-linejoin="round" stroke-miterlimit="10" points="358.1,88.7 
			303.2,118.2 262.6,108.2 317.5,78.8 		"/>
		<polygon fill="#C69977" stroke="#AE855E" stroke-width="2" stroke-linejoin="round" stroke-miterlimit="10" points="302.7,168.1 
			262.9,158.5 262.6,109.6 302.4,119.1 		"/>
	</g>
</g>
</svg>
