<?xml version="1.0" encoding="utf-8"?>
<!-- Generator: Adobe Illustrator 17.1.0, SVG Export Plug-In . SVG Version: 6.00 Build 0)  -->
<!DOCTYPE svg PUBLIC "-//W3C//DTD SVG 1.1//EN" "http://www.w3.org/Graphics/SVG/1.1/DTD/svg11.dtd">
<svg version="1.1" id="Layer_1" xmlns="http://www.w3.org/2000/svg" xmlns:xlink="http://www.w3.org/1999/xlink" x="0px" y="0px"
	 viewBox="117.2 178.4 684.3 379" enable-background="new 117.2 178.4 684.3 379" xml:space="preserve">
<g>
	<polygon fill="none" stroke="#575756" stroke-width="6.8948" points="391.8,207.3 378.9,207.3 378.9,188.3 363.6,188.3 
		363.6,207.3 350.5,207.3 350.5,217.9 391.8,217.9 	"/>
	<polyline fill="none" stroke="#454545" stroke-width="6.8948" points="328.5,308.3 328.5,318.5 328.5,437 328.5,517.4 459.8,517.4 
		591.1,517.4 591.1,437 591.1,318.3 591.1,308.3 591.1,307.7 605.1,316.4 613.1,316.4 613.1,307.2 613.1,299.3 613.1,299.3 
		613.1,290.1 459.8,194.5 386.5,240.3 386.5,218.2 356,218.2 356,259.4 306.6,290.1 306.6,299.3 306.6,307.2 306.6,316.4 
		313.7,316.4 	"/>
</g>
<g>
	<g>
		<polygon fill="none" stroke="#454545" stroke-width="6.8948" points="386.5,251.6 356,270.9 356,218.2 386.5,218.2 		"/>
		<rect x="350.5" y="207.3" fill="none" stroke="#454545" stroke-width="6.8948" width="41.3" height="10.6"/>
	</g>
	<g>
		<polygon fill="none" stroke="#454545" stroke-width="6.8948" points="386.5,254.7 356,274 356,218.2 386.5,218.2 		"/>
		<rect x="363.6" y="188.3" fill="none" stroke="#454545" stroke-width="6.8948" width="15.3" height="19.2"/>
		<rect x="350.5" y="207.3" fill="none" stroke="#454545" stroke-width="6.8948" width="41.3" height="10.6"/>
	</g>
</g>
<path fill="#454545" d="M495.4,406.6v109.6h-71.1V406.6l35.6-22.1L495.4,406.6z M433.2,516.3h53.3v-97.8h-53.3V516.3z"/>
<rect x="439.1" y="462.2" fill="none" stroke="#454545" stroke-width="4.4106" width="17.8" height="48.2"/>
<rect x="462.3" y="462.2" fill="none" stroke="#454545" stroke-width="4.4106" width="17.8" height="48.2"/>
<rect x="439.1" y="424.5" fill="none" stroke="#454545" stroke-width="4.4106" width="17.8" height="32.4"/>
<rect x="462.3" y="424.5" fill="none" stroke="#454545" stroke-width="4.4106" width="17.8" height="32.4"/>
<g>
	<g>
		<polygon fill="#454545" stroke="#454545" stroke-width="2.2053" points="613.1,307.2 459.8,210.4 306.6,307.2 306.6,290.1 
			459.8,194.5 613.1,290.1 		"/>
	</g>
	<polygon fill="none" stroke="#454545" stroke-width="8.8212" points="315.7,316.4 459.8,225.8 605.1,316.4 613.1,316.4 
		613.1,299.3 613.1,299.3 459.8,202.1 306.6,297.7 306.6,316.4 314,316.4 	"/>
</g>
<g>
	<path fill="#454545" d="M543.2,430.1h19.5v-19.5h-19.5V430.1z M518.9,430.1h19.5v-19.5h-19.5V430.1z M543.2,453.3h19.5v-19.5h-19.5
		V453.3z M518.9,453.3h19.5v-19.5h-19.5V453.3z M570.2,459.7h-58.9v-56h58.9V459.7z"/>
	<rect x="508.6" y="456.9" fill="#454545" width="64.4" height="7.8"/>
</g>
<g>
	<path fill="#454545" d="M384,430.1h19.5v-19.5H384V430.1z M359.6,430.1h19.5v-19.5h-19.5V430.1z M384,453.3h19.5v-19.5H384V453.3z
		 M359.6,453.3h19.5v-19.5h-19.5V453.3z M411,459.7h-58.9v-56H411V459.7z"/>
	<rect x="349.3" y="456.9" fill="#454545" width="64.4" height="7.8"/>
</g>
<g>
	<path fill="#454545" d="M543.2,340h19.5v-19.5h-19.5V340z M518.9,340h19.5v-19.5h-19.5V340z M543.2,363.2h19.5v-19.5h-19.5V363.2z
		 M518.9,363.2h19.5v-19.5h-19.5V363.2z M570.2,369.6h-58.9v-56h58.9V369.6z"/>
	<rect x="508.6" y="366.6" fill="#454545" width="64.4" height="7.8"/>
</g>
<g>
	<path fill="#454545" d="M384,339.8h19.5v-19.5H384V339.8z M359.6,339.8h19.5v-19.5h-19.5V339.8z M384,363.1h19.5v-19.5H384V363.1z
		 M359.6,363.1h19.5v-19.5h-19.5V363.1z M411,369.5h-58.9v-56H411V369.5z"/>
	<rect x="349.3" y="366.5" fill="#454545" width="64.4" height="7.8"/>
</g>
<polygon fill="#FFFFFF" stroke="#454545" stroke-width="4" points="459.8,394.4 432.1,411.7 487.6,411.7 "/>
<line fill="none" stroke="#454545" stroke-width="6.6159" x1="459.8" y1="394.4" x2="459.8" y2="411.7"/>
<rect x="-1884.3" y="-645" fill="#7C001A" width="513.1" height="540.1"/>
<g>
	<defs>
		<rect id="SVGID_1_" x="-6.2" y="266.4" width="332.1" height="306.5"/>
	</defs>
	<clipPath id="SVGID_2_">
		<use xlink:href="#SVGID_1_"  overflow="visible"/>
	</clipPath>
	<g clip-path="url(#SVGID_2_)">
		<g>
			<path fill="#7C001A" d="M324.9,508.7h-86.5v27c0,4.5-2.5,8.2-7,10c-5,1.8-9.3,1.4-13.2-1.8l-89.3-119c-2.5-2-3.9-5-3.9-7.7
				c0-3.2,1.4-6.1,3.9-8.2l89.3-120.4c3.9-3.2,8.4-3.9,13.2-2c5,2,7,5.2,7,10v27h159.8l-57.5,94.5l44.7,74.9h-29.6l-0.3-5.3h-10.6
				v12.9h-19L324.9,508.7z"/>
		</g>
	</g>
</g>
<g enable-background="new    ">
	<path fill="#FFFFFF" d="M206.9,432.7h2.4c1.3,0,2.7-0.1,3.9-0.2c1.3-0.2,2.4-0.5,3.4-1c1-0.5,1.8-1.3,2.5-2.3s0.9-2.3,0.9-4
		c0-2.1-0.7-3.9-2.2-5.2c-1.5-1.3-3.3-2-5.7-2c-1.9,0-3.5,0.5-5,1.6c-1.5,1.1-2.6,2.6-3.2,4.5l-9.9-2.6c0.6-2,1.5-3.8,2.6-5.3
		c1.1-1.5,2.5-2.7,4.1-3.7c1.6-1,3.3-1.7,5.1-2.1c1.9-0.5,3.8-0.7,5.8-0.7c2.4,0,4.6,0.3,6.8,0.9c2.1,0.6,4,1.5,5.6,2.8
		c1.6,1.2,2.9,2.8,3.9,4.6c1,1.8,1.4,4,1.4,6.4c0,3-0.8,5.6-2.5,7.9c-1.7,2.3-4,3.8-6.9,4.6v0.2c3.5,0.5,6.2,2,8,4.5
		c1.8,2.5,2.7,5.5,2.7,8.9c0,2.6-0.5,5-1.5,7s-2.4,3.7-4.1,5.1c-1.7,1.4-3.7,2.4-6,3.1s-4.6,1.1-7,1.1c-2.3,0-4.4-0.2-6.5-0.7
		c-2-0.5-3.9-1.3-5.5-2.3c-1.6-1-3.1-2.4-4.2-4c-1.2-1.6-2.1-3.6-2.7-5.9l10-2.6c0.6,2.3,1.6,4.1,3,5.3c1.5,1.2,3.4,1.9,5.9,1.9
		c1.2,0,2.4-0.2,3.5-0.6c1.1-0.4,2.1-1,3-1.8c0.9-0.8,1.5-1.7,2-2.7c0.5-1.1,0.7-2.2,0.7-3.5c0-1.8-0.4-3.2-1.1-4.3
		c-0.8-1.1-1.7-2-2.9-2.6c-1.2-0.6-2.5-1-3.9-1.2c-1.5-0.2-2.9-0.3-4.3-0.3h-2.3V432.7z"/>
</g>
<g enable-background="new    ">
	<path fill="#FFFFFF" d="M269.3,418.9h-22.2l-0.2,11c0.7-0.3,1.6-0.4,2.8-0.5c1.1-0.1,2.2-0.2,3.2-0.2c2.7,0,5.2,0.4,7.4,1.3
		c2.3,0.9,4.2,2.1,5.8,3.7c1.6,1.6,2.9,3.5,3.8,5.8c0.9,2.2,1.4,4.8,1.4,7.6c0,3-0.5,5.6-1.5,8c-1,2.4-2.4,4.4-4.2,6
		s-3.9,2.9-6.3,3.8c-2.4,0.9-5.1,1.3-7.9,1.3c-4.4,0-8.2-1-11.3-3.1c-3.1-2.1-5.3-5.2-6.6-9.5l9.8-2.6c0.6,2,1.7,3.5,3.2,4.7
		c1.5,1.1,3.5,1.7,5.8,1.7c1.4,0,2.7-0.2,3.9-0.7c1.2-0.5,2.2-1.1,3-2c0.9-0.9,1.5-1.9,2-3c0.5-1.1,0.7-2.4,0.7-3.7
		c0-1.9-0.4-3.6-1.1-4.9s-1.6-2.5-2.8-3.3c-1.2-0.9-2.6-1.5-4.1-1.9c-1.6-0.4-3.2-0.6-4.9-0.6c-2,0-4,0.2-6,0.7
		c-2,0.5-3.8,1.1-5.5,1.9l0.5-29.8h31.4V418.9z"/>
</g>
<g enable-background="new    ">
	<path fill="#FFFFFF" d="M275.2,436c0-1.2,0.2-2.3,0.7-3.3c0.4-1,1.1-1.9,1.8-2.7c0.8-0.8,1.7-1.4,2.7-1.8c1-0.4,2.1-0.7,3.3-0.7
		c1.2,0,2.3,0.2,3.3,0.7c1,0.4,1.9,1.1,2.7,1.8c0.8,0.8,1.4,1.7,1.8,2.7c0.4,1,0.7,2.1,0.7,3.3c0,1.2-0.2,2.3-0.7,3.3
		c-0.4,1-1.1,1.9-1.8,2.7c-0.8,0.8-1.7,1.4-2.7,1.8c-1,0.4-2.1,0.7-3.3,0.7c-1.2,0-2.3-0.2-3.3-0.7c-1-0.4-1.9-1.1-2.7-1.8
		c-0.8-0.8-1.4-1.7-1.8-2.7C275.5,438.3,275.2,437.2,275.2,436z M287.9,436c0-1.2-0.4-2.1-1.2-2.9s-1.8-1.2-2.9-1.2
		c-1.2,0-2.1,0.4-2.9,1.2s-1.2,1.8-1.2,2.9c0,1.2,0.4,2.1,1.2,2.9s1.8,1.2,2.9,1.2c1.2,0,2.1-0.4,2.9-1.2S287.9,437.2,287.9,436z
		 M302.4,426.5l3.8,1.7l-19.1,33.8l-3.8-1.7L302.4,426.5z M297.1,452.6c0-1.2,0.2-2.3,0.7-3.3c0.4-1,1.1-1.9,1.8-2.7
		c0.8-0.8,1.7-1.4,2.7-1.8c1-0.4,2.1-0.7,3.3-0.7c1.2,0,2.3,0.2,3.3,0.7c1,0.4,1.9,1.1,2.7,1.8c0.8,0.8,1.4,1.7,1.8,2.7
		c0.4,1,0.7,2.1,0.7,3.3c0,1.2-0.2,2.3-0.7,3.3c-0.4,1-1.1,1.9-1.8,2.7c-0.8,0.8-1.7,1.4-2.7,1.8c-1,0.4-2.1,0.7-3.3,0.7
		c-1.2,0-2.3-0.2-3.3-0.7c-1-0.4-1.9-1.1-2.7-1.8c-0.8-0.8-1.4-1.7-1.8-2.7C297.3,454.9,297.1,453.8,297.1,452.6z M309.8,452.6
		c0-1.2-0.4-2.1-1.2-2.9s-1.8-1.2-2.9-1.2c-1.2,0-2.1,0.4-2.9,1.2s-1.2,1.8-1.2,2.9c0,1.2,0.4,2.1,1.2,2.9s1.8,1.2,2.9,1.2
		c1.2,0,2.1-0.4,2.9-1.2S309.8,453.8,309.8,452.6z"/>
</g>
<g enable-background="new    ">
	<path fill="#FFFFFF" d="M207.4,389.8h0.1l10.1-34.3h4.9l10.1,34.3h0.1l9.5-34.3h4.5l-11.8,40.1h-4.8l-10.1-34.3H220l-10.1,34.3
		h-4.8l-11.8-40.1h4.5L207.4,389.8z"/>
	<path fill="#FFFFFF" d="M261.8,379.3v-0.7c0-4.6-2.2-6.9-6.8-6.9c-3.1,0-5.8,1.1-8.1,3.1l-2.3-2.7c2.4-2.5,6.2-3.9,11.2-3.9
		c5.2,0,9.7,2.9,9.7,9.4v11.8c0,2,0.2,4.5,0.5,5.9h-3.6c-0.2-1.3-0.3-2.9-0.3-4.3h-0.1c-2.2,3.5-5.1,5-9.3,5c-4.7,0-9.1-2.6-9.1-7.8
		c0-8.6,10.1-9.2,16.5-9.2H261.8z M259.8,382.4c-3.8,0-12.4,0.3-12.4,5.6c0,3.5,3.2,4.9,6.2,4.9c5.4,0,8-3.9,8-8.6v-1.9H259.8z"/>
	<path fill="#FFFFFF" d="M274.8,395.6h-3.7v-42.8h3.7V395.6z"/>
	<path fill="#FFFFFF" d="M284.4,395.6h-3.7v-42.8h3.7V395.6z"/>
	<path fill="#FFFFFF" d="M303.5,375.3c-1.1-2.2-3-3.6-5.7-3.6c-2.6,0-5.5,1.1-5.5,4c0,2.5,1.8,3.4,5.2,4.2l3.8,0.9
		c3.7,0.8,6.5,3.5,6.5,7.3c0,5.8-5.2,8.2-10.3,8.2c-4,0-7.7-1.4-10.2-5.2l3.2-2.2c1.5,2.4,3.9,4,7,4c3.1,0,6.2-1.4,6.2-4.4
		c0-2.7-2.3-3.6-5-4.2l-3.6-0.9c-1.8-0.5-6.8-1.9-6.8-7c0-5.5,4.8-8,9.8-8c3.7,0,7.1,1.3,8.8,4.8L303.5,375.3z"/>
</g>
<g>
	<defs>
		<rect id="SVGID_3_" x="594.1" y="259.4" width="332.1" height="306.5"/>
	</defs>
	<clipPath id="SVGID_4_">
		<use xlink:href="#SVGID_3_"  overflow="visible"/>
	</clipPath>
	<g clip-path="url(#SVGID_4_)">
		<g>
			<path fill="#7C001A" d="M595.1,323.6h86.5v-27c0-4.5,2.5-8.2,7-10c5-1.8,9.3-1.4,13.2,1.8l89.3,119c2.5,2,3.9,5,3.9,7.7
				c0,3.2-1.4,6.1-3.9,8.2l-89.3,120.4c-3.9,3.2-8.4,3.9-13.2,2c-5-2-7-5.2-7-10v-27H521.8l57.5-94.5l-44.7-74.9h29.6l0.3,5.3h10.6
				v-12.9h19L595.1,323.6z"/>
		</g>
	</g>
</g>
<g enable-background="new    ">
	<path fill="#FFFFFF" d="M628.4,432.7h2.4c1.3,0,2.7-0.1,3.9-0.2c1.3-0.2,2.4-0.5,3.4-1c1-0.5,1.8-1.3,2.5-2.3s0.9-2.3,0.9-4
		c0-2.1-0.7-3.9-2.2-5.2c-1.5-1.3-3.3-2-5.7-2c-1.9,0-3.5,0.5-5,1.6c-1.5,1.1-2.6,2.6-3.2,4.5l-9.9-2.6c0.6-2,1.5-3.8,2.6-5.3
		c1.1-1.5,2.5-2.7,4-3.7c1.6-1,3.3-1.7,5.1-2.1c1.9-0.5,3.8-0.7,5.8-0.7c2.4,0,4.6,0.3,6.8,0.9c2.1,0.6,4,1.5,5.6,2.8
		c1.6,1.2,2.9,2.8,3.9,4.6c1,1.8,1.4,4,1.4,6.4c0,3-0.8,5.6-2.5,7.9c-1.7,2.3-4,3.8-6.9,4.6v0.2c3.5,0.5,6.2,2,8,4.5
		c1.8,2.5,2.7,5.5,2.7,8.9c0,2.6-0.5,5-1.5,7s-2.4,3.7-4.1,5.1s-3.7,2.4-6,3.1s-4.6,1.1-7,1.1c-2.3,0-4.4-0.2-6.5-0.7
		c-2-0.5-3.9-1.3-5.5-2.3c-1.6-1-3.1-2.4-4.2-4c-1.2-1.6-2.1-3.6-2.7-5.9l10-2.6c0.6,2.3,1.6,4.1,3,5.3c1.5,1.2,3.4,1.9,5.9,1.9
		c1.2,0,2.4-0.2,3.5-0.6c1.1-0.4,2.1-1,3-1.8c0.9-0.8,1.5-1.7,2-2.7c0.5-1.1,0.7-2.2,0.7-3.5c0-1.8-0.4-3.2-1.1-4.3
		c-0.8-1.1-1.7-2-2.9-2.6c-1.2-0.6-2.5-1-3.9-1.2c-1.5-0.2-2.9-0.3-4.3-0.3h-2.3V432.7z"/>
</g>
<g enable-background="new    ">
	<path fill="#FFFFFF" d="M690.8,418.9h-22.2l-0.2,11c0.7-0.3,1.6-0.4,2.8-0.5c1.1-0.1,2.2-0.2,3.2-0.2c2.7,0,5.2,0.4,7.4,1.3
		c2.3,0.9,4.2,2.1,5.8,3.7c1.6,1.6,2.9,3.5,3.8,5.8c0.9,2.2,1.4,4.8,1.4,7.6c0,3-0.5,5.6-1.5,8c-1,2.4-2.4,4.4-4.2,6
		s-3.9,2.9-6.3,3.8c-2.4,0.9-5.1,1.3-7.9,1.3c-4.4,0-8.2-1-11.3-3.1c-3.1-2.1-5.3-5.2-6.6-9.5l9.8-2.6c0.6,2,1.7,3.5,3.2,4.7
		c1.5,1.1,3.5,1.7,5.8,1.7c1.4,0,2.7-0.2,3.9-0.7c1.2-0.5,2.2-1.1,3-2c0.9-0.9,1.5-1.9,2-3c0.5-1.1,0.7-2.4,0.7-3.7
		c0-1.9-0.4-3.6-1.1-4.9s-1.6-2.5-2.8-3.3c-1.2-0.9-2.6-1.5-4.1-1.9c-1.6-0.4-3.2-0.6-4.9-0.6c-2,0-4,0.2-6,0.7
		c-2,0.5-3.8,1.1-5.5,1.9l0.5-29.8h31.4V418.9z"/>
</g>
<g enable-background="new    ">
	<path fill="#FFFFFF" d="M698.9,436c0-1.2,0.2-2.3,0.7-3.3c0.4-1,1.1-1.9,1.8-2.7c0.8-0.8,1.7-1.4,2.7-1.8c1-0.4,2.1-0.7,3.3-0.7
		c1.2,0,2.3,0.2,3.3,0.7c1,0.4,1.9,1.1,2.7,1.8c0.8,0.8,1.4,1.7,1.8,2.7c0.4,1,0.7,2.1,0.7,3.3c0,1.2-0.2,2.3-0.7,3.3
		c-0.4,1-1.1,1.9-1.8,2.7c-0.8,0.8-1.7,1.4-2.7,1.8c-1,0.4-2.1,0.7-3.3,0.7c-1.2,0-2.3-0.2-3.3-0.7c-1-0.4-1.9-1.1-2.7-1.8
		c-0.8-0.8-1.4-1.7-1.8-2.7C699.1,438.3,698.9,437.2,698.9,436z M711.6,436c0-1.2-0.4-2.1-1.2-2.9s-1.8-1.2-2.9-1.2
		c-1.2,0-2.1,0.4-2.9,1.2s-1.2,1.8-1.2,2.9c0,1.2,0.4,2.1,1.2,2.9s1.8,1.2,2.9,1.2c1.2,0,2.1-0.4,2.9-1.2S711.6,437.2,711.6,436z
		 M726.1,426.5l3.8,1.7l-19.1,33.8l-3.8-1.7L726.1,426.5z M720.8,452.6c0-1.2,0.2-2.3,0.7-3.3c0.4-1,1.1-1.9,1.8-2.7
		c0.8-0.8,1.7-1.4,2.7-1.8c1-0.4,2.1-0.7,3.3-0.7c1.2,0,2.3,0.2,3.3,0.7c1,0.4,1.9,1.1,2.7,1.8c0.8,0.8,1.4,1.7,1.8,2.7
		c0.4,1,0.7,2.1,0.7,3.3c0,1.2-0.2,2.3-0.7,3.3c-0.4,1-1.1,1.9-1.8,2.7c-0.8,0.8-1.7,1.4-2.7,1.8c-1,0.4-2.1,0.7-3.3,0.7
		c-1.2,0-2.3-0.2-3.3-0.7c-1-0.4-1.9-1.1-2.7-1.8c-0.8-0.8-1.4-1.7-1.8-2.7C721,454.9,720.8,453.8,720.8,452.6z M733.5,452.6
		c0-1.2-0.4-2.1-1.2-2.9s-1.8-1.2-2.9-1.2c-1.2,0-2.1,0.4-2.9,1.2s-1.2,1.8-1.2,2.9c0,1.2,0.4,2.1,1.2,2.9s1.8,1.2,2.9,1.2
		c1.2,0,2.1-0.4,2.9-1.2S733.5,453.8,733.5,452.6z"/>
</g>
<g enable-background="new    ">
	<path fill="#FFFFFF" d="M627,389.8h0.1l10.1-34.3h4.9l10.1,34.3h0.1l9.5-34.3h4.5l-11.8,40.1h-4.8l-10.1-34.3h-0.1l-10.1,34.3h-4.8
		l-11.8-40.1h4.5L627,389.8z"/>
	<path fill="#FFFFFF" d="M681.3,379.3v-0.7c0-4.6-2.2-6.9-6.8-6.9c-3.1,0-5.8,1.1-8.1,3.1l-2.3-2.7c2.4-2.5,6.2-3.9,11.2-3.9
		c5.2,0,9.7,2.9,9.7,9.4v11.8c0,2,0.2,4.5,0.5,5.9h-3.6c-0.2-1.3-0.3-2.9-0.3-4.3h-0.1c-2.2,3.5-5.1,5-9.3,5c-4.7,0-9.1-2.6-9.1-7.8
		c0-8.6,10.1-9.2,16.5-9.2H681.3z M679.4,382.4c-3.8,0-12.4,0.3-12.4,5.6c0,3.5,3.2,4.9,6.2,4.9c5.4,0,8-3.9,8-8.6v-1.9H679.4z"/>
	<path fill="#FFFFFF" d="M694.3,395.6h-3.7v-42.8h3.7V395.6z"/>
	<path fill="#FFFFFF" d="M704,395.6h-3.7v-42.8h3.7V395.6z"/>
	<path fill="#FFFFFF" d="M723,375.3c-1.1-2.2-3-3.6-5.7-3.6c-2.6,0-5.5,1.1-5.5,4c0,2.5,1.8,3.4,5.2,4.2l3.8,0.9
		c3.7,0.8,6.5,3.5,6.5,7.3c0,5.8-5.2,8.2-10.3,8.2c-4,0-7.7-1.4-10.2-5.2l3.2-2.2c1.5,2.4,3.9,4,7,4c3.1,0,6.2-1.4,6.2-4.4
		c0-2.7-2.3-3.6-5-4.2l-3.6-0.9c-1.8-0.5-6.8-1.9-6.8-7c0-5.5,4.8-8,9.8-8c3.7,0,7.1,1.3,8.8,4.8L723,375.3z"/>
</g>
</svg>
