<?xml version="1.0" encoding="utf-8"?>
<!-- Generator: Adobe Illustrator 16.0.4, SVG Export Plug-In . SVG Version: 6.00 Build 0)  -->
<!DOCTYPE svg PUBLIC "-//W3C//DTD SVG 1.1//EN" "http://www.w3.org/Graphics/SVG/1.1/DTD/svg11.dtd">
<svg version="1.1" id="Layer_1" xmlns="http://www.w3.org/2000/svg" xmlns:xlink="http://www.w3.org/1999/xlink" x="0px" y="0px"
	 width="451.937px" height="340.5px" viewBox="160.063 451.5 451.937 340.5" enable-background="new 160.063 451.5 451.937 340.5"
	 xml:space="preserve">
<rect x="-1672.831" y="-331.481" fill="#7C001A" width="458.889" height="483.035"/>
<g enable-background="new    ">
	<path fill="#FFFFFF" d="M81.585,683.354h2.146c1.163,0,2.415-0.09,3.488-0.179c1.163-0.179,2.146-0.447,3.041-0.895
		c0.895-0.447,1.61-1.162,2.236-2.057c0.626-0.895,0.805-2.058,0.805-3.577c0-1.879-0.626-3.488-1.968-4.651
		c-1.341-1.162-2.951-1.788-5.098-1.788c-1.699,0-3.13,0.447-4.472,1.431s-2.325,2.325-2.862,4.024l-8.854-2.325
		c0.537-1.789,1.341-3.398,2.325-4.74c0.984-1.341,2.236-2.414,3.667-3.309c1.431-0.895,2.951-1.521,4.561-1.878
		c1.699-0.447,3.398-0.627,5.187-0.627c2.146,0,4.114,0.269,6.082,0.806c1.878,0.536,3.578,1.341,5.008,2.504
		c1.431,1.073,2.594,2.504,3.488,4.114c0.894,1.609,1.252,3.577,1.252,5.724c0,2.683-0.715,5.008-2.236,7.065
		c-1.521,2.057-3.578,3.398-6.171,4.113v0.18c3.13,0.447,5.545,1.788,7.155,4.024c1.61,2.235,2.415,4.919,2.415,7.959
		c0,2.326-0.447,4.472-1.341,6.261c-0.895,1.789-2.146,3.31-3.667,4.562s-3.309,2.146-5.366,2.772
		c-2.057,0.626-4.114,0.983-6.26,0.983c-2.057,0-3.935-0.179-5.813-0.626c-1.789-0.447-3.488-1.162-4.918-2.057
		c-1.431-0.895-2.772-2.146-3.756-3.578c-1.073-1.431-1.878-3.219-2.415-5.276l8.944-2.325c0.537,2.057,1.431,3.667,2.683,4.74
		c1.342,1.073,3.041,1.699,5.277,1.699c1.073,0,2.146-0.179,3.13-0.537c0.983-0.357,1.878-0.894,2.683-1.609
		c0.805-0.716,1.342-1.521,1.789-2.415c0.447-0.983,0.626-1.968,0.626-3.13c0-1.609-0.358-2.862-0.984-3.846
		c-0.715-0.983-1.521-1.789-2.594-2.325c-1.073-0.537-2.236-0.895-3.488-1.073c-1.341-0.179-2.594-0.269-3.846-0.269h-2.057v-7.87
		H81.585z"/>
</g>
<g enable-background="new    ">
	<path fill="#FFFFFF" d="M137.392,671.012h-19.854l-0.179,9.838c0.626-0.269,1.431-0.357,2.504-0.447
		c0.984-0.09,1.967-0.179,2.862-0.179c2.415,0,4.651,0.357,6.618,1.162c2.057,0.806,3.756,1.878,5.187,3.31
		c1.431,1.431,2.594,3.13,3.399,5.187c0.805,1.968,1.252,4.293,1.252,6.798c0,2.683-0.447,5.008-1.342,7.154
		c-0.894,2.146-2.146,3.936-3.756,5.366s-3.488,2.594-5.635,3.398c-2.146,0.805-4.561,1.163-7.065,1.163
		c-3.935,0-7.334-0.895-10.106-2.772c-2.772-1.879-4.74-4.651-5.902-8.497l8.765-2.325c0.537,1.789,1.52,3.131,2.862,4.204
		c1.341,0.983,3.13,1.52,5.187,1.52c1.252,0,2.415-0.179,3.488-0.626s1.968-0.983,2.683-1.788c0.805-0.805,1.342-1.699,1.789-2.684
		c0.447-0.983,0.626-2.146,0.626-3.309c0-1.699-0.358-3.22-0.984-4.383c-0.626-1.162-1.431-2.235-2.504-2.951
		c-1.073-0.805-2.325-1.342-3.667-1.699c-1.431-0.357-2.862-0.536-4.382-0.536c-1.789,0-3.578,0.179-5.366,0.626
		s-3.398,0.983-4.919,1.699l0.447-26.651h28.083v7.423H137.392z"/>
</g>
<g enable-background="new    ">
	<path fill="#FFFFFF" d="M142.668,686.305c0-1.073,0.179-2.057,0.626-2.951c0.358-0.895,0.984-1.699,1.61-2.415
		c0.716-0.715,1.521-1.252,2.415-1.609c0.894-0.357,1.878-0.626,2.951-0.626s2.057,0.179,2.951,0.626
		c0.895,0.357,1.699,0.983,2.415,1.609c0.715,0.716,1.252,1.521,1.61,2.415c0.357,0.895,0.626,1.878,0.626,2.951
		s-0.179,2.058-0.626,2.951c-0.358,0.895-0.984,1.699-1.61,2.415c-0.716,0.716-1.521,1.252-2.415,1.61
		c-0.894,0.357-1.878,0.626-2.951,0.626s-2.057-0.18-2.951-0.626c-0.895-0.358-1.699-0.984-2.415-1.61
		c-0.715-0.716-1.252-1.521-1.61-2.415C142.937,688.362,142.668,687.378,142.668,686.305z M154.027,686.305
		c0-1.073-0.358-1.878-1.073-2.594c-0.715-0.715-1.61-1.073-2.594-1.073c-1.073,0-1.878,0.358-2.594,1.073
		c-0.715,0.716-1.073,1.61-1.073,2.594c0,1.073,0.357,1.878,1.073,2.594c0.716,0.716,1.61,1.073,2.594,1.073
		c1.073,0,1.878-0.357,2.594-1.073S154.027,687.378,154.027,686.305z M166.995,677.809l3.398,1.521l-17.082,30.229l-3.398-1.521
		L166.995,677.809z M162.255,701.151c0-1.073,0.179-2.058,0.626-2.951c0.357-0.895,0.984-1.7,1.61-2.415
		c0.715-0.716,1.52-1.252,2.415-1.61c0.895-0.357,1.878-0.626,2.951-0.626s2.057,0.179,2.952,0.626
		c0.894,0.358,1.699,0.984,2.415,1.61c0.715,0.715,1.252,1.521,1.61,2.415c0.358,0.894,0.626,1.878,0.626,2.951
		s-0.179,2.057-0.626,2.951c-0.358,0.895-0.984,1.699-1.61,2.415c-0.715,0.715-1.521,1.252-2.415,1.609
		c-0.895,0.357-1.878,0.626-2.952,0.626s-2.057-0.179-2.951-0.626c-0.895-0.357-1.699-0.983-2.415-1.609
		c-0.716-0.716-1.252-1.521-1.61-2.415C162.434,703.208,162.255,702.225,162.255,701.151z M173.613,701.151
		c0-1.073-0.357-1.879-1.073-2.594c-0.715-0.716-1.61-1.073-2.593-1.073c-1.073,0-1.878,0.357-2.594,1.073s-1.073,1.609-1.073,2.594
		c0,1.073,0.357,1.878,1.073,2.594c0.715,0.715,1.61,1.073,2.594,1.073c1.073,0,1.878-0.358,2.593-1.073
		C173.255,703.029,173.613,702.225,173.613,701.151z"/>
</g>
<g enable-background="new    ">
	<path fill="#FFFFFF" d="M82.032,644.986h0.089l9.033-30.676h4.382l9.033,30.676h0.089l8.497-30.676h4.024l-10.553,35.863h-4.293
		l-9.033-30.677l0,0l-9.033,30.677h-4.293l-10.553-35.863h4.024L82.032,644.986z"/>
	<path fill="#FFFFFF" d="M130.685,635.596v-0.626c0-4.114-1.968-6.171-6.082-6.171c-2.772,0-5.187,0.983-7.244,2.772l-2.057-2.415
		c2.146-2.236,5.545-3.488,10.017-3.488c4.65,0,8.675,2.594,8.675,8.407v10.554c0,1.788,0.179,4.024,0.447,5.276h-3.22
		c-0.179-1.163-0.268-2.594-0.268-3.846h-0.089c-1.968,3.13-4.561,4.472-8.317,4.472c-4.204,0-8.139-2.325-8.139-6.976
		c0-7.691,9.033-8.229,14.757-8.229h1.521V635.596z M128.896,638.368c-3.398,0-11.09,0.269-11.09,5.008
		c0,3.131,2.862,4.383,5.545,4.383c4.83,0,7.155-3.488,7.155-7.691v-1.699H128.896z"/>
	<path fill="#FFFFFF" d="M142.311,650.174h-3.309v-38.278h3.309V650.174z"/>
	<path fill="#FFFFFF" d="M150.896,650.174h-3.309v-38.278h3.309V650.174z"/>
	<path fill="#FFFFFF" d="M167.979,632.019c-0.984-1.968-2.683-3.22-5.098-3.22c-2.325,0-4.919,0.983-4.919,3.577
		c0,2.235,1.61,3.041,4.65,3.756l3.398,0.806c3.309,0.715,5.813,3.13,5.813,6.528c0,5.188-4.65,7.334-9.212,7.334
		c-3.577,0-6.886-1.253-9.122-4.651l2.862-1.967c1.341,2.146,3.488,3.577,6.26,3.577s5.545-1.252,5.545-3.936
		c0-2.414-2.057-3.22-4.472-3.756l-3.22-0.805c-1.609-0.447-6.082-1.699-6.082-6.261c0-4.919,4.293-7.154,8.765-7.154
		c3.309,0,6.35,1.162,7.871,4.292L167.979,632.019z"/>
</g>
<g>
	<g>
		<defs>
			<rect id="SVGID_1_" x="427.875" y="528.363" width="297.012" height="274.117"/>
		</defs>
		<clipPath id="SVGID_2_">
			<use xlink:href="#SVGID_1_"  overflow="visible"/>
		</clipPath>
		<g clip-path="url(#SVGID_2_)">
			<g>
				<path fill="#0B2F6B" d="M428.77,585.78h77.36v-24.147c0-4.024,2.236-7.333,6.261-8.943c4.472-1.609,8.317-1.252,11.806,1.61
					l79.864,106.427c2.236,1.789,3.488,4.472,3.488,6.887c0,2.861-1.252,5.455-3.488,7.334l-79.864,107.679
					c-3.488,2.861-7.513,3.488-11.806,1.788c-4.472-1.788-6.261-4.65-6.261-8.943v-24.146H363.214l51.425-84.516l-39.978-66.986
					h26.473l0.269,4.739h9.48v-11.537h16.992L428.77,585.78z"/>
			</g>
		</g>
	</g>
</g>
<g enable-background="new    ">
	<path fill="#FFFFFF" d="M458.551,683.354h2.146c1.163,0,2.415-0.09,3.488-0.179c1.162-0.179,2.146-0.447,3.041-0.895
		s1.609-1.162,2.235-2.057s0.806-2.058,0.806-3.577c0-1.879-0.627-3.488-1.968-4.651c-1.342-1.162-2.951-1.788-5.098-1.788
		c-1.699,0-3.131,0.447-4.472,1.431c-1.342,0.983-2.326,2.325-2.862,4.024l-8.854-2.325c0.537-1.789,1.342-3.398,2.326-4.74
		c0.983-1.341,2.235-2.414,3.577-3.309c1.431-0.895,2.951-1.521,4.561-1.878c1.699-0.447,3.398-0.627,5.188-0.627
		c2.146,0,4.114,0.269,6.081,0.806c1.879,0.536,3.578,1.341,5.009,2.504c1.431,1.073,2.594,2.504,3.488,4.114
		c0.894,1.609,1.252,3.577,1.252,5.724c0,2.683-0.716,5.008-2.236,7.065c-1.521,2.057-3.577,3.398-6.171,4.113v0.18
		c3.131,0.447,5.545,1.788,7.155,4.024c1.609,2.235,2.414,4.919,2.414,7.959c0,2.326-0.446,4.472-1.341,6.261
		s-2.146,3.31-3.667,4.562s-3.31,2.146-5.366,2.772s-4.114,0.983-6.261,0.983c-2.057,0-3.935-0.179-5.812-0.626
		c-1.789-0.447-3.488-1.162-4.919-2.057c-1.432-0.895-2.772-2.146-3.757-3.578c-1.073-1.431-1.878-3.219-2.414-5.276l8.943-2.325
		c0.536,2.057,1.431,3.667,2.683,4.74c1.342,1.073,3.041,1.699,5.276,1.699c1.073,0,2.146-0.179,3.131-0.537
		c0.983-0.357,1.878-0.894,2.683-1.609s1.342-1.521,1.789-2.415c0.447-0.983,0.626-1.968,0.626-3.13
		c0-1.609-0.358-2.862-0.984-3.846c-0.715-0.983-1.52-1.789-2.593-2.325c-1.073-0.537-2.236-0.895-3.488-1.073
		c-1.342-0.179-2.594-0.269-3.846-0.269h-2.057v-7.87H458.551z"/>
</g>
<g enable-background="new    ">
	<path fill="#FFFFFF" d="M514.358,671.012h-19.854l-0.179,9.838c0.626-0.269,1.431-0.357,2.504-0.447
		c0.983-0.09,1.968-0.179,2.862-0.179c2.414,0,4.65,0.357,6.617,1.162c2.058,0.806,3.757,1.878,5.188,3.31
		c1.431,1.431,2.594,3.13,3.398,5.187c0.805,1.968,1.252,4.293,1.252,6.798c0,2.683-0.447,5.008-1.341,7.154
		c-0.895,2.146-2.146,3.936-3.757,5.366c-1.609,1.431-3.487,2.594-5.634,3.398s-4.562,1.163-7.065,1.163
		c-3.936,0-7.334-0.895-10.106-2.772c-2.772-1.879-4.74-4.651-5.902-8.497l8.765-2.325c0.536,1.789,1.521,3.131,2.861,4.204
		c1.342,0.983,3.131,1.52,5.188,1.52c1.252,0,2.415-0.179,3.488-0.626s1.967-0.983,2.683-1.788c0.805-0.805,1.342-1.699,1.789-2.684
		c0.447-0.983,0.626-2.146,0.626-3.309c0-1.699-0.357-3.22-0.984-4.383c-0.626-1.162-1.431-2.235-2.504-2.951
		c-1.073-0.805-2.325-1.342-3.667-1.699c-1.431-0.357-2.861-0.536-4.382-0.536c-1.789,0-3.577,0.179-5.366,0.626
		s-3.398,0.983-4.919,1.699l0.447-26.651h28.082v7.423H514.358z"/>
</g>
<g enable-background="new    ">
	<path fill="#FFFFFF" d="M521.603,686.305c0-1.073,0.179-2.057,0.626-2.951c0.357-0.895,0.983-1.699,1.609-2.415
		c0.716-0.715,1.521-1.252,2.415-1.609s1.878-0.626,2.951-0.626s2.058,0.179,2.951,0.626c0.895,0.357,1.699,0.983,2.415,1.609
		c0.716,0.716,1.252,1.521,1.61,2.415c0.357,0.895,0.626,1.878,0.626,2.951s-0.18,2.058-0.626,2.951
		c-0.358,0.895-0.984,1.699-1.61,2.415c-0.716,0.716-1.521,1.252-2.415,1.61c-0.894,0.357-1.878,0.626-2.951,0.626
		s-2.057-0.18-2.951-0.626c-0.895-0.358-1.699-0.984-2.415-1.61c-0.715-0.716-1.252-1.521-1.609-2.415
		C521.781,688.362,521.603,687.378,521.603,686.305z M532.961,686.305c0-1.073-0.358-1.878-1.073-2.594
		c-0.716-0.715-1.61-1.073-2.594-1.073c-1.073,0-1.878,0.358-2.594,1.073c-0.716,0.716-1.073,1.61-1.073,2.594
		c0,1.073,0.357,1.878,1.073,2.594s1.609,1.073,2.594,1.073c1.073,0,1.878-0.357,2.594-1.073
		C532.603,688.183,532.961,687.378,532.961,686.305z M545.929,677.809l3.398,1.521l-17.082,30.229l-3.398-1.521L545.929,677.809z
		 M541.188,701.151c0-1.073,0.179-2.058,0.626-2.951c0.357-0.895,0.984-1.7,1.61-2.415c0.715-0.716,1.52-1.252,2.414-1.61
		c0.895-0.357,1.878-0.626,2.951-0.626s2.058,0.179,2.952,0.626c0.894,0.358,1.699,0.984,2.414,1.61
		c0.716,0.715,1.252,1.521,1.61,2.415c0.357,0.894,0.626,1.878,0.626,2.951s-0.179,2.057-0.626,2.951
		c-0.358,0.895-0.984,1.699-1.61,2.415c-0.715,0.715-1.521,1.252-2.414,1.609c-0.895,0.357-1.879,0.626-2.952,0.626
		s-2.057-0.179-2.951-0.626c-0.895-0.357-1.699-0.983-2.414-1.609c-0.716-0.716-1.253-1.521-1.61-2.415
		C541.367,703.208,541.188,702.225,541.188,701.151z M552.547,701.151c0-1.073-0.357-1.879-1.073-2.594
		c-0.716-0.716-1.61-1.073-2.594-1.073c-1.073,0-1.878,0.357-2.594,1.073s-1.073,1.609-1.073,2.594c0,1.073,0.357,1.878,1.073,2.594
		c0.716,0.715,1.61,1.073,2.594,1.073c1.073,0,1.878-0.358,2.594-1.073C552.189,703.029,552.547,702.225,552.547,701.151z"/>
</g>
<g enable-background="new    ">
	<path fill="#FFFFFF" d="M457.299,644.986h0.09l9.032-30.676h4.383l9.032,30.676h0.09l8.496-30.676h4.024l-10.553,35.863h-4.293
		l-9.033-30.677h-0.089l-9.033,30.677h-4.293L444.6,614.311h4.024L457.299,644.986z"/>
	<path fill="#FFFFFF" d="M505.862,635.596v-0.626c0-4.114-1.968-6.171-6.082-6.171c-2.772,0-5.188,0.983-7.244,2.772l-2.057-2.415
		c2.146-2.236,5.545-3.488,10.017-3.488c4.65,0,8.675,2.594,8.675,8.407v10.554c0,1.788,0.179,4.024,0.447,5.276h-3.22
		c-0.179-1.163-0.269-2.594-0.269-3.846h-0.089c-1.968,3.13-4.562,4.472-8.317,4.472c-4.203,0-8.139-2.325-8.139-6.976
		c0-7.691,9.033-8.229,14.757-8.229h1.521V635.596z M504.163,638.368c-3.399,0-11.09,0.269-11.09,5.008
		c0,3.131,2.861,4.383,5.545,4.383c4.829,0,7.154-3.488,7.154-7.691v-1.699H504.163z"/>
	<path fill="#FFFFFF" d="M517.488,650.174h-3.309v-38.278h3.309V650.174z"/>
	<path fill="#FFFFFF" d="M526.163,650.174h-3.309v-38.278h3.309V650.174z"/>
	<path fill="#FFFFFF" d="M543.156,632.019c-0.984-1.968-2.684-3.22-5.098-3.22c-2.325,0-4.919,0.983-4.919,3.577
		c0,2.235,1.609,3.041,4.65,3.756l3.398,0.806c3.31,0.715,5.813,3.13,5.813,6.528c0,5.188-4.65,7.334-9.212,7.334
		c-3.577,0-6.887-1.253-9.122-4.651l2.861-1.967c1.342,2.146,3.488,3.577,6.261,3.577s5.545-1.252,5.545-3.936
		c0-2.414-2.057-3.22-4.472-3.756l-3.22-0.805c-1.609-0.447-6.081-1.699-6.081-6.261c0-4.919,4.292-7.154,8.764-7.154
		c3.31,0,6.351,1.162,7.871,4.292L543.156,632.019z"/>
</g>
<g>
	<g>
		<path fill="#0B2F6B" d="M-418.155,284.632v-59.116c0-0.089-0.089-0.179-0.179-0.179h-24.863c-4.024,0-7.333-2.236-8.943-6.26
			c-1.61-4.472-1.252-8.317,1.61-11.806l0,0l106.427-79.865l0,0c1.789-2.236,4.472-3.488,6.887-3.488
			c2.862,0,5.455,1.252,7.333,3.488l0,0l107.679,79.865l0,0c2.862,3.488,3.488,7.513,1.789,11.806
			c-1.789,4.472-4.651,6.26-8.943,6.26h-23.969c-0.089,0-0.179,0.089-0.179,0.179v124.493c0,0.09-0.179,0.179-0.268,0.179
			l-84.158-51.246c-0.089,0-0.089,0-0.179,0l-65.734,39.798c-0.089,0.089-0.268,0-0.268-0.179v-26.025
			c0-0.09-0.805-0.179-0.716-0.179l4.382-0.268c0.089,0,1.073-0.089,1.073-0.179v-9.033c0-0.089-0.089-0.179-0.179-0.179h-12.074
			c-0.089,0,0.715-0.089,0.715-0.179v-16.725c0-0.089-0.089-0.179-0.179-0.179l-7.87-0.895
			C-418.959,284.812-418.155,284.722-418.155,284.632z"/>
	</g>
</g>
<g>
	<polygon fill="none" stroke="#575756" stroke-width="6.8948" points="247.396,481.679 235.859,481.679 235.859,464.687 
		222.176,464.687 222.176,481.679 210.46,481.679 210.46,491.159 247.396,491.159 	"/>
	<polyline fill="none" stroke="#0B2F6B" stroke-width="6.8948" points="190.784,572.008 190.784,581.13 190.784,687.109 
		190.784,759.016 308.212,759.016 425.639,759.016 425.639,687.109 425.639,580.951 425.639,572.008 425.639,571.471 
		438.16,579.252 445.314,579.252 445.314,571.023 445.314,563.959 445.314,563.959 445.314,555.73 308.212,470.231 242.656,511.192 
		242.656,491.428 215.379,491.428 215.379,528.274 171.198,555.73 171.198,563.959 171.198,571.023 171.198,579.252 
		177.548,579.252 	"/>
</g>
<g>
	<g>
		<polygon fill="none" stroke="#0B2F6B" stroke-width="6.8948" points="242.656,521.299 215.379,538.56 215.379,491.428 
			242.656,491.428 		"/>
		<rect x="210.46" y="481.679" fill="none" stroke="#0B2F6B" stroke-width="6.8948" width="36.937" height="9.48"/>
	</g>
	<g>
		<polygon fill="none" stroke="#0B2F6B" stroke-width="6.8948" points="242.656,522.282 215.379,539.543 215.379,491.428 
			242.656,491.428 		"/>
		<rect x="222.176" y="464.687" fill="none" stroke="#0B2F6B" stroke-width="6.8948" width="13.684" height="17.171"/>
		<rect x="210.46" y="481.679" fill="none" stroke="#0B2F6B" stroke-width="6.8948" width="36.937" height="9.48"/>
	</g>
</g>
<path fill="#0B2F6B" d="M340.051,659.922v98.02h-63.588v-98.02l31.838-19.766L340.051,659.922z M284.422,758.031h47.669v-87.467
	h-47.669V758.031z"/>
<rect x="289.699" y="709.647" fill="none" stroke="#0B2F6B" stroke-width="4.4106" width="15.919" height="43.107"/>
<rect x="310.447" y="709.647" fill="none" stroke="#0B2F6B" stroke-width="4.4106" width="15.92" height="43.107"/>
<rect x="289.699" y="675.931" fill="none" stroke="#0B2F6B" stroke-width="4.4106" width="15.919" height="28.977"/>
<rect x="310.447" y="675.931" fill="none" stroke="#0B2F6B" stroke-width="4.4106" width="15.92" height="28.977"/>
<g>
	<g>
		<polygon fill="#0B2F6B" stroke="#0B2F6B" stroke-width="2.2053" points="445.314,571.023 308.212,484.451 169.41,571.023 
			169.41,555.73 308.212,470.231 445.314,555.73 		"/>
	</g>
	<polygon fill="none" stroke="#0B2F6B" stroke-width="8.8212" points="179.337,579.252 308.212,498.225 438.16,579.252 
		444.42,579.252 444.42,563.959 308.212,477.028 172.092,562.527 172.092,579.252 177.816,579.252 	"/>
</g>
<g>
	<g enable-background="new    ">
		<path fill="#FFFFFF" d="M-386.495,267.193c0-0.089,0-0.089,0.09-0.089l19.139-18.513c0.537-0.537,1.163-1.163,1.699-1.789
			c0.626-0.626,1.163-1.252,1.61-1.968c0.269-0.447,0.537-0.895,0.805-1.252c0.537-0.984,0.983-2.683,0.894-3.756
			c-0.089-0.805-0.268-1.521-0.537-2.236c-0.357-0.805-0.894-1.431-1.61-2.057c-0.626-0.537-1.431-0.984-2.236-1.252
			c-0.894-0.268-1.789-0.447-2.772-0.447c-2.057,0-3.846,0.626-5.187,1.789c-1.341,1.163-2.146,2.772-2.415,4.74
			c0,0.089-0.09,0.179-0.179,0.179l-8.496-0.626c-0.089,0-0.179-0.089-0.179-0.179c0.179-2.236,0.716-4.114,1.61-5.813
			c0.895-1.699,2.057-3.219,3.488-4.382c1.431-1.163,3.13-2.057,5.008-2.683c1.878-0.626,3.935-0.895,6.171-0.895
			s4.293,0.268,6.26,0.895c1.968,0.537,3.578,1.431,5.008,2.593c1.431,1.163,2.594,2.594,3.398,4.382
			c0.805,1.789,1.252,3.846,1.252,6.171c0,3.13-0.716,5.813-2.146,8.049c-1.431,2.236-3.22,4.382-5.456,6.439l-14.936,13.862
			c-0.089,0.089,0,0.268,0.089,0.268h22.269c0.09,0,0.179,0.089,0.179,0.179v7.154c0,0.09-0.089,0.179-0.179,0.179h-32.644
			c-0.089,0-0.179-0.089-0.179-0.179v-8.764H-386.495z"/>
	</g>
	<g enable-background="new    ">
		<path fill="#FFFFFF" d="M-319.508,234.191h-19.497c-0.089,0-0.179,0.089-0.179,0.179l-0.179,9.391
			c0,0.089,0.089,0.179,0.179,0.179c0.626-0.179,1.341-0.357,2.236-0.447c0.984-0.089,1.968-0.179,2.862-0.179
			c2.415,0,4.651,0.358,6.618,1.163c1.968,0.805,3.756,1.878,5.188,3.309c1.431,1.431,2.593,3.13,3.398,5.188
			c0.805,1.967,1.252,4.293,1.252,6.797c0,2.683-0.447,5.008-1.341,7.155c-0.895,2.146-2.146,3.935-3.756,5.366
			c-1.61,1.431-3.488,2.593-5.634,3.398c-2.146,0.805-4.562,1.163-7.065,1.163c-3.935,0-7.334-0.895-10.106-2.772
			c-2.683-1.789-4.651-4.561-5.813-8.317c0-0.089,0-0.179,0.089-0.179l8.497-2.325c0.089,0,0.179,0,0.179,0.089
			c0.537,1.699,1.521,3.041,2.772,4.024c1.341,0.984,3.13,1.521,5.187,1.521c1.252,0,2.415-0.179,3.488-0.626
			c1.073-0.447,1.967-0.983,2.683-1.789c0.805-0.805,1.342-1.699,1.789-2.683c0.447-0.983,0.626-2.146,0.626-3.309
			c0-1.7-0.358-3.22-0.984-4.383c-0.626-1.252-1.431-2.235-2.504-2.951c-1.073-0.805-2.326-1.341-3.667-1.699
			c-1.431-0.357-2.862-0.537-4.382-0.537c-1.789,0-3.577,0.179-5.366,0.626c-1.699,0.358-3.22,0.895-4.65,1.61
			c-0.089,0.089-0.269,0-0.269-0.179l0.447-26.204c0-0.09,0.089-0.179,0.179-0.179h27.725c0.089,0,0.179,0.089,0.179,0.179v7.154
			C-319.33,234.102-319.419,234.191-319.508,234.191z"/>
	</g>
	<g enable-background="new    ">
		<path fill="#FFFFFF" d="M-314.053,249.574c0-1.073,0.179-2.057,0.626-2.952c0.357-0.894,0.983-1.699,1.61-2.415
			c0.715-0.715,1.52-1.252,2.415-1.61s1.878-0.626,2.951-0.626s2.057,0.179,2.952,0.626c0.894,0.358,1.699,0.984,2.415,1.61
			c0.715,0.715,1.252,1.521,1.61,2.415c0.358,0.895,0.626,1.878,0.626,2.952s-0.179,2.057-0.626,2.951
			c-0.358,0.895-0.984,1.699-1.61,2.415c-0.715,0.716-1.521,1.252-2.415,1.61c-0.895,0.358-1.878,0.626-2.952,0.626
			s-2.057-0.179-2.951-0.626c-0.895-0.357-1.699-0.983-2.415-1.61c-0.716-0.715-1.252-1.52-1.61-2.415
			C-313.874,251.631-314.053,250.647-314.053,249.574z M-302.695,249.574c0-1.073-0.358-1.878-1.073-2.594s-1.61-1.073-2.594-1.073
			c-1.073,0-1.878,0.358-2.593,1.073c-0.716,0.715-1.073,1.61-1.073,2.594c0,1.073,0.357,1.878,1.073,2.593
			c0.715,0.716,1.61,1.073,2.593,1.073c1.073,0,1.878-0.357,2.594-1.073C-303.053,251.452-302.695,250.558-302.695,249.574z
			 M-289.548,241.167l3.13,1.431c0.09,0,0.09,0.179,0.09,0.269l-16.993,29.96c0,0.089-0.179,0.089-0.179,0.089l-3.13-1.431
			c-0.089,0-0.089-0.179-0.089-0.268l16.993-29.96C-289.727,241.078-289.637,241.078-289.548,241.167z M-294.467,264.331
			c0-1.073,0.179-2.057,0.626-2.951c0.358-0.894,0.984-1.699,1.61-2.415c0.715-0.716,1.521-1.252,2.415-1.61
			c0.895-0.358,1.878-0.626,2.952-0.626s2.057,0.179,2.951,0.626c0.895,0.358,1.699,0.984,2.415,1.61
			c0.716,0.715,1.252,1.521,1.61,2.415c0.358,0.895,0.626,1.878,0.626,2.951c0,1.073-0.179,2.057-0.626,2.952
			c-0.357,0.894-0.984,1.699-1.61,2.415c-0.715,0.715-1.52,1.252-2.415,1.61s-1.878,0.626-2.951,0.626s-2.057-0.179-2.952-0.626
			c-0.894-0.358-1.699-0.984-2.415-1.61c-0.715-0.715-1.252-1.521-1.61-2.415C-294.288,266.388-294.467,265.404-294.467,264.331z
			 M-283.108,264.331c0-1.073-0.358-1.878-1.073-2.593c-0.716-0.716-1.61-1.073-2.594-1.073c-1.073,0-1.878,0.357-2.594,1.073
			c-0.715,0.715-1.073,1.61-1.073,2.593c0,1.073,0.358,1.878,1.073,2.594s1.61,1.073,2.594,1.073c1.073,0,1.878-0.358,2.594-1.073
			C-283.466,266.298-283.108,265.404-283.108,264.331z"/>
	</g>
	<g enable-background="new    ">
		<path fill="#FFFFFF" d="M-387.031,213.353h-3.31c-0.089,0-0.179-0.089-0.179-0.179v-35.505c0-0.09,0.089-0.179,0.179-0.179h10.911
			c7.334,0,11.806,3.13,11.806,9.57c0,4.919-3.22,8.675-8.944,9.211c-0.089,0-0.179,0.179-0.089,0.269l10.017,16.545
			c0.09,0.089,0,0.268-0.179,0.268h-4.024c-0.089,0-0.089,0-0.179-0.089l-9.748-16.545c0-0.089-0.089-0.089-0.179-0.089h-5.813
			c-0.089,0-0.179,0.089-0.179,0.179v16.367C-386.853,213.264-386.942,213.353-387.031,213.353z M-386.853,193.141
			c0,0.089,0.089,0.179,0.179,0.179h6.35c6.528,0,8.764-2.862,8.764-6.26s-2.236-6.261-8.764-6.261h-6.35
			c-0.089,0-0.179,0.09-0.179,0.179V193.141z"/>
	</g>
	<g enable-background="new    ">
		<path fill="#FFFFFF" d="M-354.209,213.979c-7.333,0-12.61-5.276-12.61-12.431s5.187-12.432,12.61-12.432
			c7.423,0,12.61,5.277,12.61,12.432C-341.599,208.613-346.786,213.979-354.209,213.979z M-354.209,192.068
			c-5.456,0-8.943,4.114-8.943,9.391c0,5.276,3.488,9.391,8.943,9.391c5.545,0,8.943-4.114,8.943-9.391
			C-345.176,196.182-348.664,192.068-354.209,192.068z"/>
		<path fill="#FFFFFF" d="M-325.948,213.979c-7.333,0-12.61-5.276-12.61-12.431s5.188-12.432,12.61-12.432s12.61,5.277,12.61,12.432
			C-313.337,208.613-318.525,213.979-325.948,213.979z M-325.948,192.068c-5.456,0-8.943,4.114-8.943,9.391
			c0,5.276,3.488,9.391,8.943,9.391c5.545,0,8.943-4.114,8.943-9.391C-316.915,196.182-320.403,192.068-325.948,192.068z"/>
	</g>
	<g enable-background="new    ">
		<path fill="#FFFFFF" d="M-299.564,192.694h-5.277c-0.089,0-0.179,0.089-0.179,0.179v20.302c0,0.089-0.089,0.179-0.179,0.179
			h-3.041c-0.089,0-0.179-0.089-0.179-0.179v-20.302c0-0.089-0.089-0.179-0.179-0.179h-4.65c-0.089,0-0.179-0.089-0.179-0.179
			v-2.683c0-0.09,0.089-0.179,0.179-0.179h4.65c0.09,0,0.179-0.089,0.179-0.179v-6.35c0-6.26,3.13-8.675,7.959-8.675
			c0.895,0,1.789,0.179,2.683,0.357c0.089,0,0.179,0.09,0.089,0.179l-0.537,2.683c0,0.089-0.089,0.179-0.179,0.089
			c-0.805-0.179-1.61-0.358-2.415-0.358c-3.667,0-4.292,2.594-4.292,6.082v5.903c0,0.089,0.089,0.179,0.179,0.179h5.276
			c0.09,0,0.179,0.089,0.179,0.179v2.683C-299.386,192.604-299.475,192.694-299.564,192.694z"/>
		<path fill="#FFFFFF" d="M-283.556,195.198c-0.09,0.089-0.179,0-0.269-0.089c-0.984-1.878-2.683-3.041-5.008-3.041
			s-4.919,0.984-4.919,3.577c0,2.236,1.61,3.041,4.651,3.756l3.398,0.805c3.309,0.716,5.813,3.13,5.813,6.529
			c0,5.188-4.65,7.333-9.211,7.333c-3.578,0-6.797-1.252-9.033-4.472c-0.089-0.089,0-0.179,0-0.268l2.594-1.789
			c0.089-0.09,0.179,0,0.269,0.089c1.789,2.683,4.65,4.114,8.675,3.041c1.878-0.537,3.22-2.236,2.951-4.114
			c-0.268-1.968-2.236-2.683-4.472-3.22l-3.219-0.805c-1.61-0.447-6.082-1.699-6.082-6.261c0-4.919,4.292-7.155,8.764-7.155
			c3.22,0,6.261,1.163,7.871,4.114c0,0.089,0,0.179-0.09,0.268L-283.556,195.198z"/>
	</g>
</g>
<g>
	<path fill="#0B2F6B" d="M382.8,680.938h17.44v-17.439H382.8V680.938z M361.067,680.938h17.439v-17.439h-17.439V680.938z
		 M382.8,701.688h17.44v-17.439H382.8V701.688z M361.067,701.688h17.439v-17.439h-17.439V701.688z M406.947,707.411h-52.677v-50.083
		h52.677V707.411z"/>
	<rect x="351.855" y="704.907" fill="#0B2F6B" width="57.596" height="6.976"/>
</g>
<g>
	<path fill="#0B2F6B" d="M240.421,680.938h17.439v-17.439h-17.439V680.938z M218.599,680.938h17.439v-17.439h-17.439V680.938z
		 M240.421,701.688h17.439v-17.439h-17.439V701.688z M218.599,701.688h17.439v-17.439h-17.439V701.688z M264.567,707.411h-52.677
		v-50.083h52.677V707.411z"/>
	<rect x="209.387" y="704.907" fill="#0B2F6B" width="57.596" height="6.976"/>
</g>
<g>
	<path fill="#0B2F6B" d="M382.8,600.358h17.44v-17.439H382.8V600.358z M361.067,600.358h17.439v-17.439h-17.439V600.358z
		 M382.8,621.107h17.44v-17.439H382.8V621.107z M361.067,621.107h17.439v-17.439h-17.439V621.107z M406.947,626.831h-52.677v-50.083
		h52.677V626.831z"/>
	<rect x="351.855" y="624.148" fill="#0B2F6B" width="57.596" height="6.976"/>
</g>
<g>
	<path fill="#0B2F6B" d="M240.421,600.18h17.439V582.74h-17.439V600.18z M218.599,600.18h17.439V582.74h-17.439V600.18z
		 M240.421,621.018h17.439v-17.439h-17.439V621.018z M218.599,621.018h17.439v-17.439h-17.439V621.018z M264.567,626.741h-52.677
		v-50.083h52.677V626.741z"/>
	<rect x="209.387" y="624.059" fill="#0B2F6B" width="57.596" height="6.976"/>
</g>
<polygon fill="#FFFFFF" stroke="#0B2F6B" stroke-width="4" points="308.212,649.011 283.438,664.482 333.074,664.482 "/>
<line fill="none" stroke="#0B2F6B" stroke-width="6.6159" x1="308.212" y1="649.011" x2="308.212" y2="664.482"/>
</svg>
