<?xml version="1.0" encoding="utf-8"?>
<!-- Generator: Adobe Illustrator 17.1.0, SVG Export Plug-In . SVG Version: 6.00 Build 0)  -->
<!DOCTYPE svg PUBLIC "-//W3C//DTD SVG 1.1//EN" "http://www.w3.org/Graphics/SVG/1.1/DTD/svg11.dtd">
<svg version="1.1" id="Layer_1" xmlns="http://www.w3.org/2000/svg" xmlns:xlink="http://www.w3.org/1999/xlink" x="0px" y="0px"
	 viewBox="117.2 178.4 684.3 379" enable-background="new 117.2 178.4 684.3 379" xml:space="preserve">
<rect x="-1884.3" y="-645" fill="#7C001A" width="513.1" height="540.1"/>
<g>
	<defs>
		<rect id="SVGID_1_" x="-6.2" y="266.4" width="332.1" height="306.5"/>
	</defs>
	<clipPath id="SVGID_2_">
		<use xlink:href="#SVGID_1_"  overflow="visible"/>
	</clipPath>
	<g clip-path="url(#SVGID_2_)">
		<g>
			<path fill="#0B2F6B" d="M324.9,508.7h-86.5v27c0,4.5-2.5,8.2-7,10c-5,1.8-9.3,1.4-13.2-1.8l-89.3-119c-2.5-2-3.9-5-3.9-7.7
				c0-3.2,1.4-6.1,3.9-8.2l89.3-120.4c3.9-3.2,8.4-3.9,13.2-2c5,2,7,5.2,7,10v27h159.8l-57.5,94.5l44.7,74.9h-29.6l-0.3-5.3h-10.6
				v12.9h-19L324.9,508.7z"/>
		</g>
	</g>
</g>
<g enable-background="new    ">
	<path fill="#FFFFFF" d="M206.9,432.7h2.4c1.3,0,2.7-0.1,3.9-0.2c1.3-0.2,2.4-0.5,3.4-1c1-0.5,1.8-1.3,2.5-2.3s0.9-2.3,0.9-4
		c0-2.1-0.7-3.9-2.2-5.2c-1.5-1.3-3.3-2-5.7-2c-1.9,0-3.5,0.5-5,1.6c-1.5,1.1-2.6,2.6-3.2,4.5l-9.9-2.6c0.6-2,1.5-3.8,2.6-5.3
		c1.1-1.5,2.5-2.7,4.1-3.7c1.6-1,3.3-1.7,5.1-2.1c1.9-0.5,3.8-0.7,5.8-0.7c2.4,0,4.6,0.3,6.8,0.9c2.1,0.6,4,1.5,5.6,2.8
		c1.6,1.2,2.9,2.8,3.9,4.6c1,1.8,1.4,4,1.4,6.4c0,3-0.8,5.6-2.5,7.9c-1.7,2.3-4,3.8-6.9,4.6v0.2c3.5,0.5,6.2,2,8,4.5
		c1.8,2.5,2.7,5.5,2.7,8.9c0,2.6-0.5,5-1.5,7s-2.4,3.7-4.1,5.1c-1.7,1.4-3.7,2.4-6,3.1s-4.6,1.1-7,1.1c-2.3,0-4.4-0.2-6.5-0.7
		c-2-0.5-3.9-1.3-5.5-2.3c-1.6-1-3.1-2.4-4.2-4c-1.2-1.6-2.1-3.6-2.7-5.9l10-2.6c0.6,2.3,1.6,4.1,3,5.3c1.5,1.2,3.4,1.9,5.9,1.9
		c1.2,0,2.4-0.2,3.5-0.6c1.1-0.4,2.1-1,3-1.8c0.9-0.8,1.5-1.7,2-2.7c0.5-1.1,0.7-2.2,0.7-3.5c0-1.8-0.4-3.2-1.1-4.3
		c-0.8-1.1-1.7-2-2.9-2.6c-1.2-0.6-2.5-1-3.9-1.2c-1.5-0.2-2.9-0.3-4.3-0.3h-2.3V432.7z"/>
</g>
<g enable-background="new    ">
	<path fill="#FFFFFF" d="M269.3,418.9h-22.2l-0.2,11c0.7-0.3,1.6-0.4,2.8-0.5c1.1-0.1,2.2-0.2,3.2-0.2c2.7,0,5.2,0.4,7.4,1.3
		c2.3,0.9,4.2,2.1,5.8,3.7c1.6,1.6,2.9,3.5,3.8,5.8c0.9,2.2,1.4,4.8,1.4,7.6c0,3-0.5,5.6-1.5,8c-1,2.4-2.4,4.4-4.2,6
		s-3.9,2.9-6.3,3.8c-2.4,0.9-5.1,1.3-7.9,1.3c-4.4,0-8.2-1-11.3-3.1c-3.1-2.1-5.3-5.2-6.6-9.5l9.8-2.6c0.6,2,1.7,3.5,3.2,4.7
		c1.5,1.1,3.5,1.7,5.8,1.7c1.4,0,2.7-0.2,3.9-0.7c1.2-0.5,2.2-1.1,3-2c0.9-0.9,1.5-1.9,2-3c0.5-1.1,0.7-2.4,0.7-3.7
		c0-1.9-0.4-3.6-1.1-4.9s-1.6-2.5-2.8-3.3c-1.2-0.9-2.6-1.5-4.1-1.9c-1.6-0.4-3.2-0.6-4.9-0.6c-2,0-4,0.2-6,0.7
		c-2,0.5-3.8,1.1-5.5,1.9l0.5-29.8h31.4V418.9z"/>
</g>
<g enable-background="new    ">
	<path fill="#FFFFFF" d="M275.2,436c0-1.2,0.2-2.3,0.7-3.3c0.4-1,1.1-1.9,1.8-2.7c0.8-0.8,1.7-1.4,2.7-1.8c1-0.4,2.1-0.7,3.3-0.7
		c1.2,0,2.3,0.2,3.3,0.7c1,0.4,1.9,1.1,2.7,1.8c0.8,0.8,1.4,1.7,1.8,2.7c0.4,1,0.7,2.1,0.7,3.3c0,1.2-0.2,2.3-0.7,3.3
		c-0.4,1-1.1,1.9-1.8,2.7c-0.8,0.8-1.7,1.4-2.7,1.8c-1,0.4-2.1,0.7-3.3,0.7c-1.2,0-2.3-0.2-3.3-0.7c-1-0.4-1.9-1.1-2.7-1.8
		c-0.8-0.8-1.4-1.7-1.8-2.7C275.5,438.3,275.2,437.2,275.2,436z M287.9,436c0-1.2-0.4-2.1-1.2-2.9s-1.8-1.2-2.9-1.2
		c-1.2,0-2.1,0.4-2.9,1.2s-1.2,1.8-1.2,2.9c0,1.2,0.4,2.1,1.2,2.9s1.8,1.2,2.9,1.2c1.2,0,2.1-0.4,2.9-1.2S287.9,437.2,287.9,436z
		 M302.4,426.5l3.8,1.7l-19.1,33.8l-3.8-1.7L302.4,426.5z M297.1,452.6c0-1.2,0.2-2.3,0.7-3.3c0.4-1,1.1-1.9,1.8-2.7
		c0.8-0.8,1.7-1.4,2.7-1.8c1-0.4,2.1-0.7,3.3-0.7c1.2,0,2.3,0.2,3.3,0.7c1,0.4,1.9,1.1,2.7,1.8c0.8,0.8,1.4,1.7,1.8,2.7
		c0.4,1,0.7,2.1,0.7,3.3c0,1.2-0.2,2.3-0.7,3.3c-0.4,1-1.1,1.9-1.8,2.7c-0.8,0.8-1.7,1.4-2.7,1.8c-1,0.4-2.1,0.7-3.3,0.7
		c-1.2,0-2.3-0.2-3.3-0.7c-1-0.4-1.9-1.1-2.7-1.8c-0.8-0.8-1.4-1.7-1.8-2.7C297.3,454.9,297.1,453.8,297.1,452.6z M309.8,452.6
		c0-1.2-0.4-2.1-1.2-2.9s-1.8-1.2-2.9-1.2c-1.2,0-2.1,0.4-2.9,1.2s-1.2,1.8-1.2,2.9c0,1.2,0.4,2.1,1.2,2.9s1.8,1.2,2.9,1.2
		c1.2,0,2.1-0.4,2.9-1.2S309.8,453.8,309.8,452.6z"/>
</g>
<g enable-background="new    ">
	<path fill="#FFFFFF" d="M207.4,389.8h0.1l10.1-34.3h4.9l10.1,34.3h0.1l9.5-34.3h4.5l-11.8,40.1h-4.8l-10.1-34.3H220l-10.1,34.3
		h-4.8l-11.8-40.1h4.5L207.4,389.8z"/>
	<path fill="#FFFFFF" d="M261.8,379.3v-0.7c0-4.6-2.2-6.9-6.8-6.9c-3.1,0-5.8,1.1-8.1,3.1l-2.3-2.7c2.4-2.5,6.2-3.9,11.2-3.9
		c5.2,0,9.7,2.9,9.7,9.4v11.8c0,2,0.2,4.5,0.5,5.9h-3.6c-0.2-1.3-0.3-2.9-0.3-4.3h-0.1c-2.2,3.5-5.1,5-9.3,5c-4.7,0-9.1-2.6-9.1-7.8
		c0-8.6,10.1-9.2,16.5-9.2H261.8z M259.8,382.4c-3.8,0-12.4,0.3-12.4,5.6c0,3.5,3.2,4.9,6.2,4.9c5.4,0,8-3.9,8-8.6v-1.9H259.8z"/>
	<path fill="#FFFFFF" d="M274.8,395.6h-3.7v-42.8h3.7V395.6z"/>
	<path fill="#FFFFFF" d="M284.4,395.6h-3.7v-42.8h3.7V395.6z"/>
	<path fill="#FFFFFF" d="M303.5,375.3c-1.1-2.2-3-3.6-5.7-3.6c-2.6,0-5.5,1.1-5.5,4c0,2.5,1.8,3.4,5.2,4.2l3.8,0.9
		c3.7,0.8,6.5,3.5,6.5,7.3c0,5.8-5.2,8.2-10.3,8.2c-4,0-7.7-1.4-10.2-5.2l3.2-2.2c1.5,2.4,3.9,4,7,4c3.1,0,6.2-1.4,6.2-4.4
		c0-2.7-2.3-3.6-5-4.2l-3.6-0.9c-1.8-0.5-6.8-1.9-6.8-7c0-5.5,4.8-8,9.8-8c3.7,0,7.1,1.3,8.8,4.8L303.5,375.3z"/>
</g>
<g>
	<defs>
		<rect id="SVGID_3_" x="594.1" y="259.4" width="332.1" height="306.5"/>
	</defs>
	<clipPath id="SVGID_4_">
		<use xlink:href="#SVGID_3_"  overflow="visible"/>
	</clipPath>
	<g clip-path="url(#SVGID_4_)">
		<g>
			<path fill="#0B2F6B" d="M595.1,323.6h86.5v-27c0-4.5,2.5-8.2,7-10c5-1.8,9.3-1.4,13.2,1.8l89.3,119c2.5,2,3.9,5,3.9,7.7
				c0,3.2-1.4,6.1-3.9,8.2l-89.3,120.4c-3.9,3.2-8.4,3.9-13.2,2c-5-2-7-5.2-7-10v-27H521.8l57.5-94.5l-44.7-74.9h29.6l0.3,5.3h10.6
				v-12.9h19L595.1,323.6z"/>
		</g>
	</g>
</g>
<g enable-background="new    ">
	<path fill="#FFFFFF" d="M628.4,432.7h2.4c1.3,0,2.7-0.1,3.9-0.2c1.3-0.2,2.4-0.5,3.4-1c1-0.5,1.8-1.3,2.5-2.3s0.9-2.3,0.9-4
		c0-2.1-0.7-3.9-2.2-5.2c-1.5-1.3-3.3-2-5.7-2c-1.9,0-3.5,0.5-5,1.6c-1.5,1.1-2.6,2.6-3.2,4.5l-9.9-2.6c0.6-2,1.5-3.8,2.6-5.3
		c1.1-1.5,2.5-2.7,4-3.7c1.6-1,3.3-1.7,5.1-2.1c1.9-0.5,3.8-0.7,5.8-0.7c2.4,0,4.6,0.3,6.8,0.9c2.1,0.6,4,1.5,5.6,2.8
		c1.6,1.2,2.9,2.8,3.9,4.6c1,1.8,1.4,4,1.4,6.4c0,3-0.8,5.6-2.5,7.9c-1.7,2.3-4,3.8-6.9,4.6v0.2c3.5,0.5,6.2,2,8,4.5
		c1.8,2.5,2.7,5.5,2.7,8.9c0,2.6-0.5,5-1.5,7s-2.4,3.7-4.1,5.1s-3.7,2.4-6,3.1s-4.6,1.1-7,1.1c-2.3,0-4.4-0.2-6.5-0.7
		c-2-0.5-3.9-1.3-5.5-2.3c-1.6-1-3.1-2.4-4.2-4c-1.2-1.6-2.1-3.6-2.7-5.9l10-2.6c0.6,2.3,1.6,4.1,3,5.3c1.5,1.2,3.4,1.9,5.9,1.9
		c1.2,0,2.4-0.2,3.5-0.6c1.1-0.4,2.1-1,3-1.8c0.9-0.8,1.5-1.7,2-2.7c0.5-1.1,0.7-2.2,0.7-3.5c0-1.8-0.4-3.2-1.1-4.3
		c-0.8-1.1-1.7-2-2.9-2.6c-1.2-0.6-2.5-1-3.9-1.2c-1.5-0.2-2.9-0.3-4.3-0.3h-2.3V432.7z"/>
</g>
<g enable-background="new    ">
	<path fill="#FFFFFF" d="M690.8,418.9h-22.2l-0.2,11c0.7-0.3,1.6-0.4,2.8-0.5c1.1-0.1,2.2-0.2,3.2-0.2c2.7,0,5.2,0.4,7.4,1.3
		c2.3,0.9,4.2,2.1,5.8,3.7c1.6,1.6,2.9,3.5,3.8,5.8c0.9,2.2,1.4,4.8,1.4,7.6c0,3-0.5,5.6-1.5,8c-1,2.4-2.4,4.4-4.2,6
		s-3.9,2.9-6.3,3.8c-2.4,0.9-5.1,1.3-7.9,1.3c-4.4,0-8.2-1-11.3-3.1c-3.1-2.1-5.3-5.2-6.6-9.5l9.8-2.6c0.6,2,1.7,3.5,3.2,4.7
		c1.5,1.1,3.5,1.7,5.8,1.7c1.4,0,2.7-0.2,3.9-0.7c1.2-0.5,2.2-1.1,3-2c0.9-0.9,1.5-1.9,2-3c0.5-1.1,0.7-2.4,0.7-3.7
		c0-1.9-0.4-3.6-1.1-4.9s-1.6-2.5-2.8-3.3c-1.2-0.9-2.6-1.5-4.1-1.9c-1.6-0.4-3.2-0.6-4.9-0.6c-2,0-4,0.2-6,0.7
		c-2,0.5-3.8,1.1-5.5,1.9l0.5-29.8h31.4V418.9z"/>
</g>
<g enable-background="new    ">
	<path fill="#FFFFFF" d="M698.9,436c0-1.2,0.2-2.3,0.7-3.3c0.4-1,1.1-1.9,1.8-2.7c0.8-0.8,1.7-1.4,2.7-1.8c1-0.4,2.1-0.7,3.3-0.7
		c1.2,0,2.3,0.2,3.3,0.7c1,0.4,1.9,1.1,2.7,1.8c0.8,0.8,1.4,1.7,1.8,2.7c0.4,1,0.7,2.1,0.7,3.3c0,1.2-0.2,2.3-0.7,3.3
		c-0.4,1-1.1,1.9-1.8,2.7c-0.8,0.8-1.7,1.4-2.7,1.8c-1,0.4-2.1,0.7-3.3,0.7c-1.2,0-2.3-0.2-3.3-0.7c-1-0.4-1.9-1.1-2.7-1.8
		c-0.8-0.8-1.4-1.7-1.8-2.7C699.1,438.3,698.9,437.2,698.9,436z M711.6,436c0-1.2-0.4-2.1-1.2-2.9s-1.8-1.2-2.9-1.2
		c-1.2,0-2.1,0.4-2.9,1.2s-1.2,1.8-1.2,2.9c0,1.2,0.4,2.1,1.2,2.9s1.8,1.2,2.9,1.2c1.2,0,2.1-0.4,2.9-1.2S711.6,437.2,711.6,436z
		 M726.1,426.5l3.8,1.7l-19.1,33.8l-3.8-1.7L726.1,426.5z M720.8,452.6c0-1.2,0.2-2.3,0.7-3.3c0.4-1,1.1-1.9,1.8-2.7
		c0.8-0.8,1.7-1.4,2.7-1.8c1-0.4,2.1-0.7,3.3-0.7c1.2,0,2.3,0.2,3.3,0.7c1,0.4,1.9,1.1,2.7,1.8c0.8,0.8,1.4,1.7,1.8,2.7
		c0.4,1,0.7,2.1,0.7,3.3c0,1.2-0.2,2.3-0.7,3.3c-0.4,1-1.1,1.9-1.8,2.7c-0.8,0.8-1.7,1.4-2.7,1.8c-1,0.4-2.1,0.7-3.3,0.7
		c-1.2,0-2.3-0.2-3.3-0.7c-1-0.4-1.9-1.1-2.7-1.8c-0.8-0.8-1.4-1.7-1.8-2.7C721,454.9,720.8,453.8,720.8,452.6z M733.5,452.6
		c0-1.2-0.4-2.1-1.2-2.9s-1.8-1.2-2.9-1.2c-1.2,0-2.1,0.4-2.9,1.2s-1.2,1.8-1.2,2.9c0,1.2,0.4,2.1,1.2,2.9s1.8,1.2,2.9,1.2
		c1.2,0,2.1-0.4,2.9-1.2S733.5,453.8,733.5,452.6z"/>
</g>
<g enable-background="new    ">
	<path fill="#FFFFFF" d="M627,389.8h0.1l10.1-34.3h4.9l10.1,34.3h0.1l9.5-34.3h4.5l-11.8,40.1h-4.8l-10.1-34.3h-0.1l-10.1,34.3h-4.8
		l-11.8-40.1h4.5L627,389.8z"/>
	<path fill="#FFFFFF" d="M681.3,379.3v-0.7c0-4.6-2.2-6.9-6.8-6.9c-3.1,0-5.8,1.1-8.1,3.1l-2.3-2.7c2.4-2.5,6.2-3.9,11.2-3.9
		c5.2,0,9.7,2.9,9.7,9.4v11.8c0,2,0.2,4.5,0.5,5.9h-3.6c-0.2-1.3-0.3-2.9-0.3-4.3h-0.1c-2.2,3.5-5.1,5-9.3,5c-4.7,0-9.1-2.6-9.1-7.8
		c0-8.6,10.1-9.2,16.5-9.2H681.3z M679.4,382.4c-3.8,0-12.4,0.3-12.4,5.6c0,3.5,3.2,4.9,6.2,4.9c5.4,0,8-3.9,8-8.6v-1.9H679.4z"/>
	<path fill="#FFFFFF" d="M694.3,395.6h-3.7v-42.8h3.7V395.6z"/>
	<path fill="#FFFFFF" d="M704,395.6h-3.7v-42.8h3.7V395.6z"/>
	<path fill="#FFFFFF" d="M723,375.3c-1.1-2.2-3-3.6-5.7-3.6c-2.6,0-5.5,1.1-5.5,4c0,2.5,1.8,3.4,5.2,4.2l3.8,0.9
		c3.7,0.8,6.5,3.5,6.5,7.3c0,5.8-5.2,8.2-10.3,8.2c-4,0-7.7-1.4-10.2-5.2l3.2-2.2c1.5,2.4,3.9,4,7,4c3.1,0,6.2-1.4,6.2-4.4
		c0-2.7-2.3-3.6-5-4.2l-3.6-0.9c-1.8-0.5-6.8-1.9-6.8-7c0-5.5,4.8-8,9.8-8c3.7,0,7.1,1.3,8.8,4.8L723,375.3z"/>
</g>
<g>
	<g>
		<path fill="#0B2F6B" d="M-481.4,43.9v-66.1c0-0.1-0.1-0.2-0.2-0.2h-27.8c-4.5,0-8.2-2.5-10-7c-1.8-5-1.4-9.3,1.8-13.2c0,0,0,0,0,0
			l119-89.3c0,0,0,0,0,0c2-2.5,5-3.9,7.7-3.9c3.2,0,6.1,1.4,8.2,3.9c0,0,0,0,0,0l120.4,89.3c0,0,0,0,0,0c3.2,3.9,3.9,8.4,2,13.2
			c-2,5-5.2,7-10,7h-26.8c-0.1,0-0.2,0.1-0.2,0.2V117c0,0.1-0.2,0.2-0.3,0.2l-94.1-57.3c-0.1,0-0.1,0-0.2,0l-73.5,44.5
			c-0.1,0.1-0.3,0-0.3-0.2V75.1c0-0.1-0.9-0.2-0.8-0.2l4.9-0.3c0.1,0,1.2-0.1,1.2-0.2V64.3c0-0.1-0.1-0.2-0.2-0.2h-13.5
			c-0.1,0,0.8-0.1,0.8-0.2V45.2c0-0.1-0.1-0.2-0.2-0.2l-8.8-1C-482.3,44.1-481.4,44-481.4,43.9z"/>
	</g>
</g>
<g>
	<polygon fill="none" stroke="#575756" stroke-width="6.8948" points="392.3,207.2 379.4,207.2 379.4,188.2 364.1,188.2 
		364.1,207.2 351,207.2 351,217.8 392.3,217.8 	"/>
	<polyline fill="none" stroke="#0B2F6B" stroke-width="6.8948" points="329,308.2 329,318.4 329,436.9 329,517.3 460.3,517.3 
		591.6,517.3 591.6,436.9 591.6,318.2 591.6,308.2 591.6,307.6 605.6,316.3 613.6,316.3 613.6,307.1 613.6,299.2 613.6,299.2 
		613.6,290 460.3,194.4 387,240.2 387,218.1 356.5,218.1 356.5,259.3 307.1,290 307.1,299.2 307.1,307.1 307.1,316.3 314.2,316.3 	
		"/>
</g>
<g>
	<g>
		<polygon fill="none" stroke="#0B2F6B" stroke-width="6.8948" points="387,251.5 356.5,270.8 356.5,218.1 387,218.1 		"/>
		<rect x="351" y="207.2" fill="none" stroke="#0B2F6B" stroke-width="6.8948" width="41.3" height="10.6"/>
	</g>
	<g>
		<polygon fill="none" stroke="#0B2F6B" stroke-width="6.8948" points="387,252.6 356.5,271.9 356.5,218.1 387,218.1 		"/>
		<rect x="364.1" y="188.2" fill="none" stroke="#0B2F6B" stroke-width="6.8948" width="15.3" height="19.2"/>
		<rect x="351" y="207.2" fill="none" stroke="#0B2F6B" stroke-width="6.8948" width="41.3" height="10.6"/>
	</g>
</g>
<path fill="#0B2F6B" d="M495.9,406.5v109.6h-71.1V406.5l35.6-22.1L495.9,406.5z M433.7,516.2H487v-97.8h-53.3V516.2z"/>
<rect x="439.6" y="462.1" fill="none" stroke="#0B2F6B" stroke-width="4.4106" width="17.8" height="48.2"/>
<rect x="462.8" y="462.1" fill="none" stroke="#0B2F6B" stroke-width="4.4106" width="17.8" height="48.2"/>
<rect x="439.6" y="424.4" fill="none" stroke="#0B2F6B" stroke-width="4.4106" width="17.8" height="32.4"/>
<rect x="462.8" y="424.4" fill="none" stroke="#0B2F6B" stroke-width="4.4106" width="17.8" height="32.4"/>
<g>
	<g>
		<polygon fill="#0B2F6B" stroke="#0B2F6B" stroke-width="2.2053" points="613.6,307.1 460.3,210.3 305.1,307.1 305.1,290 
			460.3,194.4 613.6,290 		"/>
	</g>
	<polygon fill="none" stroke="#0B2F6B" stroke-width="8.8212" points="316.2,316.3 460.3,225.7 605.6,316.3 612.6,316.3 
		612.6,299.2 460.3,202 308.1,297.6 308.1,316.3 314.5,316.3 	"/>
</g>
<g>
	<g enable-background="new    ">
		<path fill="#FFFFFF" d="M-446,24.4c0-0.1,0-0.1,0.1-0.1l21.4-20.7c0.6-0.6,1.3-1.3,1.9-2c0.7-0.7,1.3-1.4,1.8-2.2
			c0.3-0.5,0.6-1,0.9-1.4c0.6-1.1,1.1-3,1-4.2c-0.1-0.9-0.3-1.7-0.6-2.5c-0.4-0.9-1-1.6-1.8-2.3c-0.7-0.6-1.6-1.1-2.5-1.4
			c-1-0.3-2-0.5-3.1-0.5c-2.3,0-4.3,0.7-5.8,2c-1.5,1.3-2.4,3.1-2.7,5.3c0,0.1-0.1,0.2-0.2,0.2l-9.5-0.7c-0.1,0-0.2-0.1-0.2-0.2
			c0.2-2.5,0.8-4.6,1.8-6.5c1-1.9,2.3-3.6,3.9-4.9c1.6-1.3,3.5-2.3,5.6-3c2.1-0.7,4.4-1,6.9-1s4.8,0.3,7,1c2.2,0.6,4,1.6,5.6,2.9
			c1.6,1.3,2.9,2.9,3.8,4.9c0.9,2,1.4,4.3,1.4,6.9c0,3.5-0.8,6.5-2.4,9c-1.6,2.5-3.6,4.9-6.1,7.2l-16.7,15.5c-0.1,0.1,0,0.3,0.1,0.3
			h24.9c0.1,0,0.2,0.1,0.2,0.2v8c0,0.1-0.1,0.2-0.2,0.2h-36.5c-0.1,0-0.2-0.1-0.2-0.2V24.4z"/>
	</g>
	<g enable-background="new    ">
		<path fill="#FFFFFF" d="M-371.1-12.5h-21.8c-0.1,0-0.2,0.1-0.2,0.2l-0.2,10.5c0,0.1,0.1,0.2,0.2,0.2c0.7-0.2,1.5-0.4,2.5-0.5
			c1.1-0.1,2.2-0.2,3.2-0.2c2.7,0,5.2,0.4,7.4,1.3s4.2,2.1,5.8,3.7c1.6,1.6,2.9,3.5,3.8,5.8c0.9,2.2,1.4,4.8,1.4,7.6
			c0,3-0.5,5.6-1.5,8c-1,2.4-2.4,4.4-4.2,6s-3.9,2.9-6.3,3.8c-2.4,0.9-5.1,1.3-7.9,1.3c-4.4,0-8.2-1-11.3-3.1c-3-2-5.2-5.1-6.5-9.3
			c0-0.1,0-0.2,0.1-0.2l9.5-2.6c0.1,0,0.2,0,0.2,0.1c0.6,1.9,1.7,3.4,3.1,4.5c1.5,1.1,3.5,1.7,5.8,1.7c1.4,0,2.7-0.2,3.9-0.7
			c1.2-0.5,2.2-1.1,3-2c0.9-0.9,1.5-1.9,2-3c0.5-1.1,0.7-2.4,0.7-3.7c0-1.9-0.4-3.6-1.1-4.9c-0.7-1.4-1.6-2.5-2.8-3.3
			c-1.2-0.9-2.6-1.5-4.1-1.9c-1.6-0.4-3.2-0.6-4.9-0.6c-2,0-4,0.2-6,0.7c-1.9,0.4-3.6,1-5.2,1.8c-0.1,0.1-0.3,0-0.3-0.2l0.5-29.3
			c0-0.1,0.1-0.2,0.2-0.2h31c0.1,0,0.2,0.1,0.2,0.2v8C-370.9-12.6-371-12.5-371.1-12.5z"/>
	</g>
	<g enable-background="new    ">
		<path fill="#FFFFFF" d="M-365,4.7c0-1.2,0.2-2.3,0.7-3.3c0.4-1,1.1-1.9,1.8-2.7c0.8-0.8,1.7-1.4,2.7-1.8c1-0.4,2.1-0.7,3.3-0.7
			c1.2,0,2.3,0.2,3.3,0.7c1,0.4,1.9,1.1,2.7,1.8c0.8,0.8,1.4,1.7,1.8,2.7c0.4,1,0.7,2.1,0.7,3.3s-0.2,2.3-0.7,3.3
			c-0.4,1-1.1,1.9-1.8,2.7c-0.8,0.8-1.7,1.4-2.7,1.8c-1,0.4-2.1,0.7-3.3,0.7c-1.2,0-2.3-0.2-3.3-0.7c-1-0.4-1.9-1.1-2.7-1.8
			c-0.8-0.8-1.4-1.7-1.8-2.7C-364.8,7-365,5.9-365,4.7z M-352.3,4.7c0-1.2-0.4-2.1-1.2-2.9c-0.8-0.8-1.8-1.2-2.9-1.2
			c-1.2,0-2.1,0.4-2.9,1.2c-0.8,0.8-1.2,1.8-1.2,2.9c0,1.2,0.4,2.1,1.2,2.9c0.8,0.8,1.8,1.2,2.9,1.2c1.2,0,2.1-0.4,2.9-1.2
			C-352.7,6.8-352.3,5.8-352.3,4.7z M-337.6-4.7l3.5,1.6c0.1,0,0.1,0.2,0.1,0.3l-19,33.5c0,0.1-0.2,0.1-0.2,0.1l-3.5-1.6
			c-0.1,0-0.1-0.2-0.1-0.3l19-33.5C-337.8-4.8-337.7-4.8-337.6-4.7z M-343.1,21.2c0-1.2,0.2-2.3,0.7-3.3c0.4-1,1.1-1.9,1.8-2.7
			c0.8-0.8,1.7-1.4,2.7-1.8c1-0.4,2.1-0.7,3.3-0.7c1.2,0,2.3,0.2,3.3,0.7c1,0.4,1.9,1.1,2.7,1.8c0.8,0.8,1.4,1.7,1.8,2.7
			c0.4,1,0.7,2.1,0.7,3.3s-0.2,2.3-0.7,3.3c-0.4,1-1.1,1.9-1.8,2.7c-0.8,0.8-1.7,1.4-2.7,1.8c-1,0.4-2.1,0.7-3.3,0.7
			c-1.2,0-2.3-0.2-3.3-0.7c-1-0.4-1.9-1.1-2.7-1.8c-0.8-0.8-1.4-1.7-1.8-2.7C-342.9,23.5-343.1,22.4-343.1,21.2z M-330.4,21.2
			c0-1.2-0.4-2.1-1.2-2.9c-0.8-0.8-1.8-1.2-2.9-1.2c-1.2,0-2.1,0.4-2.9,1.2c-0.8,0.8-1.2,1.8-1.2,2.9c0,1.2,0.4,2.1,1.2,2.9
			c0.8,0.8,1.8,1.2,2.9,1.2c1.2,0,2.1-0.4,2.9-1.2C-330.8,23.4-330.4,22.4-330.4,21.2z"/>
	</g>
	<g enable-background="new    ">
		<path fill="#FFFFFF" d="M-446.6-35.8h-3.7c-0.1,0-0.2-0.1-0.2-0.2v-39.7c0-0.1,0.1-0.2,0.2-0.2h12.2c8.2,0,13.2,3.5,13.2,10.7
			c0,5.5-3.6,9.7-10,10.3c-0.1,0-0.2,0.2-0.1,0.3l11.2,18.5c0.1,0.1,0,0.3-0.2,0.3h-4.5c-0.1,0-0.1,0-0.2-0.1l-10.9-18.5
			c0-0.1-0.1-0.1-0.2-0.1h-6.5c-0.1,0-0.2,0.1-0.2,0.2V-36C-446.4-35.9-446.5-35.8-446.6-35.8z M-446.4-58.4c0,0.1,0.1,0.2,0.2,0.2
			h7.1c7.3,0,9.8-3.2,9.8-7s-2.5-7-9.8-7h-7.1c-0.1,0-0.2,0.1-0.2,0.2V-58.4z"/>
	</g>
	<g enable-background="new    ">
		<path fill="#FFFFFF" d="M-409.9-35.1c-8.2,0-14.1-5.9-14.1-13.9c0-8,5.8-13.9,14.1-13.9c8.3,0,14.1,5.9,14.1,13.9
			C-395.8-41.1-401.6-35.1-409.9-35.1z M-409.9-59.6c-6.1,0-10,4.6-10,10.5c0,5.9,3.9,10.5,10,10.5c6.2,0,10-4.6,10-10.5
			C-399.8-55-403.7-59.6-409.9-59.6z"/>
		<path fill="#FFFFFF" d="M-378.3-35.1c-8.2,0-14.1-5.9-14.1-13.9c0-8,5.8-13.9,14.1-13.9c8.3,0,14.1,5.9,14.1,13.9
			C-364.2-41.1-370-35.1-378.3-35.1z M-378.3-59.6c-6.1,0-10,4.6-10,10.5c0,5.9,3.9,10.5,10,10.5c6.2,0,10-4.6,10-10.5
			C-368.2-55-372.1-59.6-378.3-59.6z"/>
	</g>
	<g enable-background="new    ">
		<path fill="#FFFFFF" d="M-348.8-58.9h-5.9c-0.1,0-0.2,0.1-0.2,0.2V-36c0,0.1-0.1,0.2-0.2,0.2h-3.4c-0.1,0-0.2-0.1-0.2-0.2v-22.7
			c0-0.1-0.1-0.2-0.2-0.2h-5.2c-0.1,0-0.2-0.1-0.2-0.2v-3c0-0.1,0.1-0.2,0.2-0.2h5.2c0.1,0,0.2-0.1,0.2-0.2v-7.1
			c0-7,3.5-9.7,8.9-9.7c1,0,2,0.2,3,0.4c0.1,0,0.2,0.1,0.1,0.2l-0.6,3c0,0.1-0.1,0.2-0.2,0.1c-0.9-0.2-1.8-0.4-2.7-0.4
			c-4.1,0-4.8,2.9-4.8,6.8v6.6c0,0.1,0.1,0.2,0.2,0.2h5.9c0.1,0,0.2,0.1,0.2,0.2v3C-348.6-59-348.7-58.9-348.8-58.9z"/>
		<path fill="#FFFFFF" d="M-330.9-56.1c-0.1,0.1-0.2,0-0.3-0.1c-1.1-2.1-3-3.4-5.6-3.4c-2.6,0-5.5,1.1-5.5,4c0,2.5,1.8,3.4,5.2,4.2
			l3.8,0.9c3.7,0.8,6.5,3.5,6.5,7.3c0,5.8-5.2,8.2-10.3,8.2c-4,0-7.6-1.4-10.1-5c-0.1-0.1,0-0.2,0-0.3l2.9-2c0.1-0.1,0.2,0,0.3,0.1
			c2,3,5.2,4.6,9.7,3.4c2.1-0.6,3.6-2.5,3.3-4.6c-0.3-2.2-2.5-3-5-3.6l-3.6-0.9c-1.8-0.5-6.8-1.9-6.8-7c0-5.5,4.8-8,9.8-8
			c3.6,0,7,1.3,8.8,4.6c0,0.1,0,0.2-0.1,0.3L-330.9-56.1z"/>
	</g>
</g>
<g>
	<path fill="#0B2F6B" d="M543.7,430h19.5v-19.5h-19.5V430z M519.4,430h19.5v-19.5h-19.5V430z M543.7,453.2h19.5v-19.5h-19.5V453.2z
		 M519.4,453.2h19.5v-19.5h-19.5V453.2z M570.7,459.6h-58.9v-56h58.9V459.6z"/>
	<rect x="509.1" y="456.8" fill="#0B2F6B" width="64.4" height="7.8"/>
</g>
<g>
	<path fill="#0B2F6B" d="M384.5,430H404v-19.5h-19.5V430z M360.1,430h19.5v-19.5h-19.5V430z M384.5,453.2H404v-19.5h-19.5V453.2z
		 M360.1,453.2h19.5v-19.5h-19.5V453.2z M411.5,459.6h-58.9v-56h58.9V459.6z"/>
	<rect x="349.8" y="456.8" fill="#0B2F6B" width="64.4" height="7.8"/>
</g>
<g>
	<path fill="#0B2F6B" d="M543.7,339.9h19.5v-19.5h-19.5V339.9z M519.4,339.9h19.5v-19.5h-19.5V339.9z M543.7,363.1h19.5v-19.5h-19.5
		V363.1z M519.4,363.1h19.5v-19.5h-19.5V363.1z M570.7,369.5h-58.9v-56h58.9V369.5z"/>
	<rect x="509.1" y="366.5" fill="#0B2F6B" width="64.4" height="7.8"/>
</g>
<g>
	<path fill="#0B2F6B" d="M384.5,339.7H404v-19.5h-19.5V339.7z M360.1,339.7h19.5v-19.5h-19.5V339.7z M384.5,363H404v-19.5h-19.5V363
		z M360.1,363h19.5v-19.5h-19.5V363z M411.5,369.4h-58.9v-56h58.9V369.4z"/>
	<rect x="349.8" y="366.4" fill="#0B2F6B" width="64.4" height="7.8"/>
</g>
<polygon fill="#FFFFFF" stroke="#0B2F6B" stroke-width="4" points="460.3,394.3 432.6,411.6 488.1,411.6 "/>
<line fill="none" stroke="#0B2F6B" stroke-width="6.6159" x1="460.3" y1="394.3" x2="460.3" y2="411.6"/>
</svg>
