<?xml version="1.0" encoding="utf-8"?>
<!-- Generator: Adobe Illustrator 17.1.0, SVG Export Plug-In . SVG Version: 6.00 Build 0)  -->
<!DOCTYPE svg PUBLIC "-//W3C//DTD SVG 1.1//EN" "http://www.w3.org/Graphics/SVG/1.1/DTD/svg11.dtd">
<svg version="1.1" id="Layer_1" xmlns="http://www.w3.org/2000/svg" xmlns:xlink="http://www.w3.org/1999/xlink" x="0px" y="0px"
	 viewBox="0 0 483 253" enable-background="new 0 0 483 253" xml:space="preserve">
<polygon fill="#3A1E14" points="6,195.7 234.8,65.4 478.4,121.3 257.3,243.7 "/>
<g>
	<polygon fill="#612B13" points="250,69.2 27.9,190.5 27.9,124.6 250,7.1 	"/>
	<polygon fill="#A55A32" points="249.5,7.4 28.4,125.5 5.9,120.8 228.8,5.4 	"/>
	<polygon fill="#4F2817" points="28.6,190.5 6,186.9 6,120.8 28.6,125.5 	"/>
</g>
<g>
	<polygon fill="#612B13" points="358.1,93.7 145.1,212.1 145.1,146.2 359,31.7 	"/>
	<polygon fill="#A55A32" points="359,32.1 145.1,146.1 122.5,141.4 337.6,29.4 	"/>
	<polygon fill="#4F2817" points="145.1,212.1 122.5,208.4 122.5,141.4 145.1,146.2 	"/>
</g>
<g>
	<polygon fill="#612B13" points="478.4,112.5 257.3,234.8 257.3,168.9 478.4,50.8 	"/>
	<polygon fill="#A55A32" points="478.4,51.1 257.3,168.8 234.8,164.2 455.8,48.2 	"/>
	<polygon fill="#4F2817" points="257.3,234.8 234.8,231.2 234.8,164.2 257.3,168.9 	"/>
</g>
<polygon fill="#4F2817" points="6,185.6 6,198.7 257.3,246.7 257.3,233.6 "/>
<polygon fill="#4F2817" points="478.4,111.3 478.4,124.3 257.3,246.7 257.3,233.7 "/>
</svg>
