<?xml version="1.0" encoding="utf-8"?>
<!-- Generator: Adobe Illustrator 17.1.0, SVG Export Plug-In . SVG Version: 6.00 Build 0)  -->
<!DOCTYPE svg PUBLIC "-//W3C//DTD SVG 1.1//EN" "http://www.w3.org/Graphics/SVG/1.1/DTD/svg11.dtd">
<svg version="1.1" id="Layer_1" xmlns="http://www.w3.org/2000/svg" xmlns:xlink="http://www.w3.org/1999/xlink" x="0px" y="0px"
	 viewBox="0 0 483 253" enable-background="new 0 0 483 253" xml:space="preserve">
<polygon fill="#3A1E14" points="31.7,478.3 260.4,348 504,403.9 282.9,526.3 "/>
<g>
	<polygon fill="#612B13" points="275.6,351.8 53.5,473.1 53.5,407.2 275.6,289.7 	"/>
	<polygon fill="#A55A32" points="275.1,290 54,408.1 31.5,403.4 254.4,288 	"/>
	<polygon fill="#4F2817" points="54.2,473.1 31.7,469.5 31.7,403.4 54.2,408.1 	"/>
</g>
<g>
	<polygon fill="#612B13" points="383.7,376.3 170.7,494.7 170.7,428.8 384.6,314.3 	"/>
	<polygon fill="#A55A32" points="384.6,314.7 170.7,428.7 148.1,424 363.2,312 	"/>
	<polygon fill="#4F2817" points="170.7,494.7 148.1,491 148.1,424 170.7,428.8 	"/>
</g>
<g>
	<polygon fill="#612B13" points="504,395.1 282.9,517.4 282.9,451.5 504,333.4 	"/>
	<polygon fill="#A55A32" points="504,333.7 282.9,451.4 260.4,446.8 481.4,330.8 	"/>
	<polygon fill="#4F2817" points="282.9,517.4 260.4,513.8 260.4,446.8 282.9,451.5 	"/>
</g>
<polygon fill="#4F2817" points="31.7,468.2 31.7,481.3 282.9,529.3 282.9,516.2 "/>
<polygon fill="#4F2817" points="504,393.9 504,406.9 282.9,529.3 282.9,516.3 "/>
<g>
	<polygon fill="#C69977" stroke="#AE855E" stroke-width="2" stroke-linejoin="round" stroke-miterlimit="10" points="130.1,247.8 
		90.3,238.2 90,189.3 129.8,198.8 	"/>
	<polygon fill="#AE855E" stroke="#AE855E" stroke-width="2" stroke-linejoin="round" stroke-miterlimit="10" points="244.7,186.7 
		204.9,177.1 204.6,128.2 244.4,137.7 	"/>
	<g>
		<polygon fill="#EAB883" stroke="#AE855E" stroke-width="1.9424" stroke-linejoin="round" stroke-miterlimit="10" points="
			243.3,187.3 243.3,137.2 272.4,121.2 272.4,170.8 		"/>
		<polygon fill="#AE855E" stroke="#AE855E" stroke-width="1.9424" stroke-linejoin="round" stroke-miterlimit="10" points="
			242.7,187.3 204.9,177.8 204.6,129.2 242.4,138.7 		"/>
	</g>
	<polygon fill="#EAB883" stroke="#AE855E" stroke-width="2" stroke-linejoin="round" stroke-miterlimit="10" points="243.1,187.1 
		188.2,216.5 188.2,167.2 243.1,137.7 	"/>
	<polygon fill="#AE855E" stroke="#AE855E" stroke-width="2" stroke-linejoin="round" stroke-miterlimit="10" points="243,137.2 
		188.1,166.6 147.5,156.6 202.4,127.2 	"/>
	<polygon fill="#AE855E" stroke="#AE855E" stroke-width="2" stroke-linejoin="round" stroke-miterlimit="10" points="187.6,216.5 
		147.8,207 147.5,158 187.3,167.6 	"/>
	<polygon fill="#EAB883" stroke="#AE855E" stroke-width="2" stroke-linejoin="round" stroke-miterlimit="10" points="186.1,218.2 
		131.2,247.6 131.2,198.3 186.1,168.9 	"/>
	<linearGradient id="SVGID_1_" gradientUnits="userSpaceOnUse" x1="133.1246" y1="196.7753" x2="143.1246" y2="160.2753">
		<stop  offset="0" style="stop-color:#D6A274"/>
		<stop  offset="0.3384" style="stop-color:#D3A072"/>
		<stop  offset="0.607" style="stop-color:#AE855E"/>
	</linearGradient>
	<polygon fill="url(#SVGID_1_)" stroke="#AE855E" stroke-width="2" stroke-linejoin="round" stroke-miterlimit="10" points="
		186,168.3 131.1,197.7 90.5,187.8 145.4,158.3 	"/>
	<polygon fill="#AE855E" stroke="#AE855E" stroke-width="2" stroke-linejoin="round" stroke-miterlimit="10" points="217.2,148 
		177.4,138.5 177.1,89.5 216.9,99.1 	"/>
	<g>
		<polygon fill="#EAB883" stroke="#AE855E" stroke-width="2" stroke-linejoin="round" stroke-miterlimit="10" points="271.7,119.6 
			216.8,149 216.8,99.7 271.7,70.2 		"/>
		<polygon fill="#EAB883" stroke="#AE855E" stroke-width="2" stroke-linejoin="round" stroke-miterlimit="10" points="214.7,150.7 
			159.8,180.1 159.8,130.8 214.7,101.4 		"/>
		<linearGradient id="SVGID_2_" gradientUnits="userSpaceOnUse" x1="159.6195" y1="137.0116" x2="169.6195" y2="100.5116">
			<stop  offset="0" style="stop-color:#D6A274"/>
			<stop  offset="0.3384" style="stop-color:#D3A072"/>
			<stop  offset="0.607" style="stop-color:#AE855E"/>
		</linearGradient>
		<polygon fill="url(#SVGID_2_)" stroke="#AE855E" stroke-width="2" stroke-linejoin="round" stroke-miterlimit="10" points="
			214.6,100.8 159.7,130.2 119.1,120.3 174,90.8 		"/>
		<polygon fill="#C69977" stroke="#AE855E" stroke-width="2" stroke-linejoin="round" stroke-miterlimit="10" points="159.2,180.1 
			119.4,170.6 119.1,121.6 158.9,131.2 		"/>
	</g>
	<polygon fill="#AE855E" stroke="#AE855E" stroke-width="2" stroke-linejoin="round" stroke-miterlimit="10" points="271.9,69.4 
		217,98.8 177.1,91.1 232,61.7 	"/>
	<g>
		<polygon fill="#EAB883" stroke="#AE855E" stroke-width="2" stroke-linejoin="round" stroke-miterlimit="10" points="240.3,84.4 
			240.3,35.1 271,19 271,67.9 		"/>
		<polygon fill="#D6A274" stroke="#AE855E" stroke-width="2" stroke-linejoin="round" stroke-miterlimit="10" points="270.3,19 
			240.2,34.5 199.6,24.6 227,9.9 		"/>
		<polygon fill="#AE855E" stroke="#AE855E" stroke-width="2" stroke-linejoin="round" stroke-miterlimit="10" points="239.7,84.4 
			199.9,74.9 199.6,25.9 239.4,35.5 		"/>
	</g>
	<g>
		<polygon fill="#EAB883" stroke="#AE855E" stroke-width="2" stroke-linejoin="round" stroke-miterlimit="10" points="238.2,86.1 
			183.3,115.6 183.3,66.2 238.2,36.8 		"/>
		<polygon fill="#D6A274" stroke="#AE855E" stroke-width="2" stroke-linejoin="round" stroke-miterlimit="10" points="238.1,36.2 
			183.2,65.6 142.6,55.7 197.5,26.2 		"/>
		<polygon fill="#C69977" stroke="#AE855E" stroke-width="2" stroke-linejoin="round" stroke-miterlimit="10" points="182.7,115.6 
			142.9,106 142.6,57.1 182.4,66.6 		"/>
	</g>
</g>
<g>
	<polygon fill="#C69977" stroke="#AE855E" stroke-width="2" stroke-linejoin="round" stroke-miterlimit="10" points="245.8,247.8 
		206,238.2 205.7,189.3 245.5,198.8 	"/>
	<polygon fill="#AE855E" stroke="#AE855E" stroke-width="2" stroke-linejoin="round" stroke-miterlimit="10" points="360.4,186.7 
		320.6,177.1 320.3,128.2 360.1,137.7 	"/>
	<g>
		<polygon fill="#EAB883" stroke="#AE855E" stroke-width="1.9424" stroke-linejoin="round" stroke-miterlimit="10" points="
			359,187.3 359,137.2 388.1,121.2 388.1,170.8 		"/>
		<polygon fill="#AE855E" stroke="#AE855E" stroke-width="1.9424" stroke-linejoin="round" stroke-miterlimit="10" points="
			358.4,187.3 320.6,177.8 320.3,129.2 358.1,138.7 		"/>
	</g>
	<polygon fill="#EAB883" stroke="#AE855E" stroke-width="2" stroke-linejoin="round" stroke-miterlimit="10" points="358.8,187.1 
		303.9,216.5 303.9,167.2 358.8,137.7 	"/>
	<polygon fill="#AE855E" stroke="#AE855E" stroke-width="2" stroke-linejoin="round" stroke-miterlimit="10" points="358.7,137.2 
		303.8,166.6 263.2,156.6 318.1,127.2 	"/>
	<polygon fill="#AE855E" stroke="#AE855E" stroke-width="2" stroke-linejoin="round" stroke-miterlimit="10" points="303.3,216.5 
		263.5,207 263.2,158 303,167.6 	"/>
	<polygon fill="#EAB883" stroke="#AE855E" stroke-width="2" stroke-linejoin="round" stroke-miterlimit="10" points="301.8,218.2 
		246.9,247.6 246.9,198.3 301.8,168.9 	"/>
	<linearGradient id="SVGID_3_" gradientUnits="userSpaceOnUse" x1="248.8115" y1="196.7753" x2="258.8115" y2="160.2753">
		<stop  offset="0" style="stop-color:#D6A274"/>
		<stop  offset="0.3384" style="stop-color:#D3A072"/>
		<stop  offset="0.607" style="stop-color:#AE855E"/>
	</linearGradient>
	<polygon fill="url(#SVGID_3_)" stroke="#AE855E" stroke-width="2" stroke-linejoin="round" stroke-miterlimit="10" points="
		301.7,168.3 246.8,197.7 206.2,187.8 261.1,158.3 	"/>
	<polygon fill="#AE855E" stroke="#AE855E" stroke-width="2" stroke-linejoin="round" stroke-miterlimit="10" points="332.9,148 
		293.1,138.5 292.8,89.5 332.6,99.1 	"/>
	<g>
		<polygon fill="#EAB883" stroke="#AE855E" stroke-width="2" stroke-linejoin="round" stroke-miterlimit="10" points="387.4,119.6 
			332.5,149 332.5,99.7 387.4,70.2 		"/>
		<polygon fill="#EAB883" stroke="#AE855E" stroke-width="2" stroke-linejoin="round" stroke-miterlimit="10" points="330.4,150.7 
			275.5,180.1 275.5,130.8 330.4,101.4 		"/>
		<linearGradient id="SVGID_4_" gradientUnits="userSpaceOnUse" x1="275.3065" y1="137.0116" x2="285.3065" y2="100.5116">
			<stop  offset="0" style="stop-color:#D6A274"/>
			<stop  offset="0.3384" style="stop-color:#D3A072"/>
			<stop  offset="0.607" style="stop-color:#AE855E"/>
		</linearGradient>
		<polygon fill="url(#SVGID_4_)" stroke="#AE855E" stroke-width="2" stroke-linejoin="round" stroke-miterlimit="10" points="
			330.3,100.8 275.4,130.2 234.8,120.3 289.7,90.8 		"/>
		<polygon fill="#C69977" stroke="#AE855E" stroke-width="2" stroke-linejoin="round" stroke-miterlimit="10" points="274.9,180.1 
			235.1,170.6 234.8,121.6 274.6,131.2 		"/>
	</g>
	<polygon fill="#AE855E" stroke="#AE855E" stroke-width="2" stroke-linejoin="round" stroke-miterlimit="10" points="387.6,69.4 
		332.7,98.8 292.8,91.1 347.7,61.7 	"/>
	<g>
		<polygon fill="#EAB883" stroke="#AE855E" stroke-width="2" stroke-linejoin="round" stroke-miterlimit="10" points="356,84.4 
			356,35.1 386.7,19 386.7,67.9 		"/>
		<polygon fill="#D6A274" stroke="#AE855E" stroke-width="2" stroke-linejoin="round" stroke-miterlimit="10" points="386,19 
			355.9,34.5 315.3,24.6 342.7,9.9 		"/>
		<polygon fill="#AE855E" stroke="#AE855E" stroke-width="2" stroke-linejoin="round" stroke-miterlimit="10" points="355.4,84.4 
			315.6,74.9 315.3,25.9 355.1,35.5 		"/>
	</g>
	<g>
		<polygon fill="#EAB883" stroke="#AE855E" stroke-width="2" stroke-linejoin="round" stroke-miterlimit="10" points="353.9,86.1 
			299,115.6 299,66.2 353.9,36.8 		"/>
		<polygon fill="#D6A274" stroke="#AE855E" stroke-width="2" stroke-linejoin="round" stroke-miterlimit="10" points="353.8,36.2 
			298.9,65.6 258.3,55.7 313.2,26.2 		"/>
		<polygon fill="#C69977" stroke="#AE855E" stroke-width="2" stroke-linejoin="round" stroke-miterlimit="10" points="298.4,115.6 
			258.6,106 258.3,57.1 298.1,66.6 		"/>
	</g>
</g>
</svg>
