<?xml version="1.0" encoding="utf-8"?>
<!-- Generator: Adobe Illustrator 17.1.0, SVG Export Plug-In . SVG Version: 6.00 Build 0)  -->
<!DOCTYPE svg PUBLIC "-//W3C//DTD SVG 1.1//EN" "http://www.w3.org/Graphics/SVG/1.1/DTD/svg11.dtd">
<svg version="1.1" id="Layer_1" xmlns="http://www.w3.org/2000/svg" xmlns:xlink="http://www.w3.org/1999/xlink" x="0px" y="0px"
	 viewBox="0 0 347 595.3" enable-background="new 0 0 347 595.3" xml:space="preserve">
<path fill="#203468" d="M79,137c-10.4,0-20.8-6.9-24.3-17.4C50,105.7,57,91.8,69.7,87.2l113.5-41.7c13.9-4.6,27.8,2.3,32.4,15.1
	c4.6,13.9-2.3,27.8-15.1,32.4L87.1,134.7C84.8,137,81.3,137,79,137z"/>
<path fill="#203468" d="M59.3,221.5c-10.4,0-20.8-6.9-24.3-17.4c-4.6-13.9,2.3-27.8,15.1-32.4l228.1-82.2
	c13.9-4.6,27.8,2.3,32.4,15.1c4.6,13.9-2.3,27.8-15.1,32.4L67.4,219.2C65.1,221.5,61.6,221.5,59.3,221.5z"/>
<path fill="#203468" d="M127.6,333.9c-11.6,0-22-8.1-25.5-19.7c-1.2-4.6-22-13.9-45.2-15.1c-11.6-1.2-22-10.4-23.2-22
	S39.6,254,50,249.3l228.1-82.2c13.9-4.6,27.8,2.3,32.4,15.1c4.6,13.9-2.3,27.8-15.1,32.4l-161,57.9c8.1,6.9,15.1,16.2,18.5,29
	c3.5,13.9-4.6,27.8-18.5,31.3C131.1,333.9,129.9,333.9,127.6,333.9z"/>
<path fill="#203468" d="M217.9,333.9c-2.3,0-4.6,0-5.8-1.2c-13.9-3.5-22-17.4-18.5-31.3c11.6-46.3,78.7-53.3,91.5-54.4
	c13.9-1.2,26.6,9.3,27.8,24.3c1.2,13.9-9.3,26.6-24.3,27.8c-23.2,1.2-44,10.4-45.2,15.1C239.9,325.8,229.5,333.9,217.9,333.9z"/>
<path fill="none" stroke="#203468" stroke-width="31.4417" stroke-linecap="round" stroke-linejoin="round" stroke-miterlimit="10" d="
	M278.2,362.8h-51H182h-6.9h-45.2H79c-9.3,0-17.4,5.8-17.4,15.1v55.6c0,4.6,3.5,9.3,6.9,11.6l48.6,46.3v44c0,9.3,3.5,15.1,12.7,15.1
	h97.3c9.3,0,12.7-5.8,12.7-15.1v-44l48.6-46.3c3.5-3.5,6.9-6.9,6.9-11.6v-55.6C294.4,369.8,287.4,362.8,278.2,362.8z"/>
</svg>
