<?xml version="1.0" encoding="utf-8"?>
<!-- Generator: Adobe Illustrator 18.0.0, SVG Export Plug-In . SVG Version: 6.00 Build 0)  -->
<!DOCTYPE svg PUBLIC "-//W3C//DTD SVG 1.1//EN" "http://www.w3.org/Graphics/SVG/1.1/DTD/svg11.dtd">
<svg version="1.1" id="Layer_6" xmlns="http://www.w3.org/2000/svg" xmlns:xlink="http://www.w3.org/1999/xlink" x="0px" y="0px"
	 viewBox="0 0 190 190" enable-background="new 0 0 190 190" xml:space="preserve">
<g>
	<path fill="#0B2F6B" d="M64,40.5c-3.5,0-6.8-2.2-8-5.6c-1.6-4.4,0.7-9.3,5.1-10.9l37.7-13.6c4.4-1.6,9.3,0.7,10.9,5.1
		c1.6,4.4-0.7,9.3-5.1,10.9L66.9,40C66,40.4,65,40.5,64,40.5z"/>
	<path fill="#0B2F6B" d="M57.5,68.3c-3.5,0-6.8-2.2-8-5.6c-1.6-4.4,0.7-9.3,5.1-10.9L130,24.6c4.4-1.6,9.3,0.7,10.9,5.1
		c1.6,4.4-0.7,9.3-5.1,10.9L60.4,67.8C59.4,68.1,58.5,68.3,57.5,68.3z"/>
	<path fill="#0B2F6B" d="M80.2,105.4c-3.8,0-7.3-2.6-8.2-6.4c-0.4-1.6-7.4-4.6-15-5.1c-4-0.3-7.3-3.3-7.8-7.3
		c-0.5-4,1.8-7.8,5.5-9.2L130,50.1c4.4-1.6,9.3,0.7,10.9,5.1c1.6,4.4-0.7,9.3-5.1,10.9L82.5,85.3c2.8,2.4,5,5.5,6,9.5
		c1.1,4.6-1.6,9.2-6.2,10.3C81.6,105.3,80.9,105.4,80.2,105.4z"/>
	<path fill="#0B2F6B" d="M110.3,105.4c-0.7,0-1.4-0.1-2.1-0.3c-4.6-1.1-7.3-5.8-6.2-10.3c3.9-15.4,26-17.7,30.4-18
		c4.8-0.3,8.7,3.2,9.1,7.9c0.3,4.7-3.2,8.7-7.9,9.1c-7.6,0.5-14.6,3.5-15,5.1C117.5,102.8,114.1,105.4,110.3,105.4z"/>
	
		<path fill="none" stroke="#0B2F6B" stroke-width="7.6617" stroke-linecap="round" stroke-linejoin="round" stroke-miterlimit="10" d="
		M130,115.2h-17H97.9h-2H80.9h-17c-3.1,0-5.6,2.1-5.6,5.2v18.5c0,1.5,1.3,2.9,2.3,4l16.1,15.4v14.7c0,3.1,1.2,4.8,4.3,4.8H113
		c3.1,0,4.1-1.7,4.1-4.8v-14.7l16.1-15.4c1-1,2.3-2.4,2.3-4v-18.5C135.4,117.3,133.1,115.2,130,115.2z"/>
</g>
</svg>
