<?xml version="1.0" encoding="utf-8"?>
<!-- Generator: Adobe Illustrator 18.0.0, SVG Export Plug-In . SVG Version: 6.00 Build 0)  -->
<!DOCTYPE svg PUBLIC "-//W3C//DTD SVG 1.1//EN" "http://www.w3.org/Graphics/SVG/1.1/DTD/svg11.dtd">
<svg version="1.1" id="_x31_" xmlns="http://www.w3.org/2000/svg" xmlns:xlink="http://www.w3.org/1999/xlink" x="0px" y="0px"
	 viewBox="0 0 267.5 52.3" enable-background="new 0 0 267.5 52.3" xml:space="preserve">
<path fill="#F0F0F0" d="M243.1,47.3c11.6,0,20.9-9.4,20.9-20.9s-9.4-20.9-20.9-20.9c0,0-216.9-0.4-216.8,0
	c-11.6,0-20.9,9.4-20.9,20.9s9.4,20.9,20.9,20.9H243.1z"/>
<circle fill="#549F00" cx="26.3" cy="26.4" r="20.9"/>
<g>
	<path fill="#777777" d="M67.4,30.9h7.6v1.3h-9V18.1h8.8v1.3h-7.3v4.8h6.9v1.3h-6.9V30.9z"/>
	<path fill="#777777" d="M77.3,25c0-0.7-0.1-1.4-0.1-2.1h1.4v1.4h0c0.6-1.1,1.9-1.7,3-1.7c1,0,2.4,0.3,3,1.9
		c0.5-1.2,1.8-1.9,3.1-1.9c2.4,0,3.5,1.3,3.5,3.7v5.9h-1.3v-5.5c0-1.9-0.5-2.9-2.4-2.9c-2,0-2.6,1.7-2.6,3.4v5h-1.3v-5.5
		c0-1.9-0.5-2.9-2.4-2.9c-0.3,0-2.6,0.2-2.6,3.6v4.8h-1.3V25z"/>
	<path fill="#777777" d="M100.3,26.5v-0.2c0-1.6-0.8-2.4-2.4-2.4c-1.1,0-2.1,0.4-2.9,1.1L94.3,24c0.9-0.9,2.2-1.4,4-1.4
		c1.8,0,3.4,1,3.4,3.3v4.2c0,0.7,0.1,1.6,0.2,2.1h-1.3c-0.1-0.5-0.1-1-0.1-1.5h0c-0.8,1.2-1.8,1.8-3.3,1.8c-1.7,0-3.2-0.9-3.2-2.7
		c0-3,3.6-3.2,5.8-3.2H100.3z M99.7,27.6c-1.3,0-4.4,0.1-4.4,2c0,1.2,1.1,1.7,2.2,1.7c1.9,0,2.8-1.4,2.8-3v-0.7H99.7z"/>
	<path fill="#777777" d="M105.7,20.2c-0.5,0-1-0.4-1-1s0.5-1,1-1s1,0.4,1,1S106.2,20.2,105.7,20.2z M106.3,32.3H105v-9.4h1.3V32.3z"
		/>
	<path fill="#777777" d="M111.1,32.3h-1.3V17.1h1.3V32.3z"/>
	<path fill="#777777" d="M119.9,25c0-0.7-0.1-1.4-0.1-2.1h1.4v1.4h0c0.6-1.1,1.9-1.7,3-1.7c1,0,2.4,0.3,3,1.9
		c0.5-1.2,1.8-1.9,3.1-1.9c2.4,0,3.5,1.3,3.5,3.7v5.9h-1.3v-5.5c0-1.9-0.5-2.9-2.4-2.9c-2,0-2.6,1.7-2.6,3.4v5h-1.3v-5.5
		c0-1.9-0.5-2.9-2.4-2.9c-0.3,0-2.6,0.2-2.6,3.6v4.8h-1.3V25z"/>
	<path fill="#777777" d="M137.8,27.9c0.2,1.9,1.6,3.4,3.4,3.4c1.4,0,2.5-0.8,3-1.6l1,0.8c-1.1,1.4-2.5,2-4,2c-2.8,0-4.8-2.1-4.8-4.9
		c0-2.8,2.1-4.9,4.7-4.9c2.8,0,4.5,2.1,4.5,4.7v0.6H137.8z M144.2,26.8c0-1.8-1.1-3-3-3c-1.7,0-3.3,1.5-3.3,3H144.2z"/>
	<path fill="#777777" d="M158.4,24.1h-2.7v5.5c0,1.4,0.5,1.7,1.4,1.7c0.5,0,1-0.1,1.4-0.4l0.1,1.2c-0.5,0.2-1.1,0.3-1.8,0.3
		c-1,0-2.3-0.4-2.3-2.5v-5.9h-2v-1.2h2v-2.6h1.3v2.6h2.7V24.1z"/>
	<path fill="#777777" d="M160.2,17.1h1.3v7.3h0c0.6-1,1.9-1.7,3.1-1.7c2.4,0,3.5,1.3,3.5,3.7v5.9h-1.3v-5.2c0-2.1-0.6-3.2-2.5-3.2
		c-0.3,0-2.8,0.2-2.8,3.6v4.8h-1.3V17.1z"/>
	<path fill="#777777" d="M172.3,20.2c-0.5,0-1-0.4-1-1s0.5-1,1-1c0.5,0,1,0.4,1,1S172.8,20.2,172.3,20.2z M173,32.3h-1.3v-9.4h1.3
		V32.3z"/>
	<path fill="#777777" d="M181.1,25.1c-0.4-0.8-1.1-1.3-2-1.3c-0.9,0-1.9,0.4-1.9,1.4c0,0.9,0.6,1.2,1.8,1.5l1.3,0.3
		c1.3,0.3,2.3,1.2,2.3,2.6c0,2-1.8,2.9-3.6,2.9c-1.4,0-2.7-0.5-3.6-1.8l1.1-0.8c0.5,0.8,1.4,1.4,2.5,1.4c1.1,0,2.2-0.5,2.2-1.6
		c0-0.9-0.8-1.3-1.8-1.5l-1.3-0.3c-0.6-0.2-2.4-0.7-2.4-2.5c0-1.9,1.7-2.8,3.5-2.8c1.3,0,2.5,0.5,3.1,1.7L181.1,25.1z"/>
	<path fill="#777777" d="M199.6,38h-1.3v-7.3h0c-0.9,1.3-2.4,1.8-3.6,1.8c-2.9,0-5-2.1-5-4.9c0-2.8,2.1-4.9,5-4.9
		c1.2,0,2.8,0.5,3.6,1.8h0v-1.6h1.3V38z M194.6,31.3c2.2,0,3.7-1.6,3.7-3.7c0-2.1-1.6-3.7-3.7-3.7c-2.2,0-3.5,1.6-3.5,3.7
		C191,29.7,192.4,31.3,194.6,31.3z"/>
	<path fill="#777777" d="M209.2,32.3c-0.1-0.5-0.1-1-0.1-1.5h0c-0.6,1-1.9,1.7-3.1,1.7c-2.4,0-3.5-1.3-3.5-3.7v-5.9h1.3v5.2
		c0,2.1,0.6,3.2,2.5,3.2c0.3,0,2.8-0.2,2.8-3.6v-4.8h1.3v7.3c0,0.5,0.1,1.4,0.1,2.1H209.2z"/>
	<path fill="#777777" d="M218.1,32.5c-2.9,0-5-2.1-5-4.9c0-2.8,2.1-4.9,5-4.9c2.9,0,5,2.1,5,4.9C223,30.4,221,32.5,218.1,32.5z
		 M218.1,23.8c-2.2,0-3.5,1.6-3.5,3.7c0,2.1,1.4,3.7,3.5,3.7c2.2,0,3.5-1.6,3.5-3.7C221.6,25.5,220.2,23.8,218.1,23.8z"/>
	<path fill="#777777" d="M230.3,24.1h-2.7v5.5c0,1.4,0.5,1.7,1.4,1.7c0.5,0,1-0.1,1.4-0.4l0.1,1.2c-0.5,0.2-1.1,0.3-1.8,0.3
		c-1,0-2.3-0.4-2.3-2.5v-5.9h-2v-1.2h2v-2.6h1.3v2.6h2.7V24.1z"/>
	<path fill="#777777" d="M233,27.9c0.2,1.9,1.6,3.4,3.4,3.4c1.4,0,2.5-0.8,3-1.6l1,0.8c-1.1,1.4-2.5,2-4,2c-2.8,0-4.8-2.1-4.8-4.9
		c0-2.8,2.1-4.9,4.7-4.9c2.8,0,4.5,2.1,4.5,4.7v0.6H233z M239.4,26.8c0-1.8-1.1-3-3-3c-1.7,0-3.3,1.5-3.3,3H239.4z"/>
</g>
<text transform="matrix(1 0 0 1 17 32.25)" fill="#FFFFFF" font-family="'FontAwesome'" font-size="18"></text>
</svg>
