<?xml version="1.0" encoding="utf-8"?>
<!-- Generator: Adobe Illustrator 18.0.0, SVG Export Plug-In . SVG Version: 6.00 Build 0)  -->
<!DOCTYPE svg PUBLIC "-//W3C//DTD SVG 1.1//EN" "http://www.w3.org/Graphics/SVG/1.1/DTD/svg11.dtd">
<svg version="1.1" xmlns="http://www.w3.org/2000/svg" xmlns:xlink="http://www.w3.org/1999/xlink" x="0px" y="0px"
	 viewBox="0 0 111.3 111.3" enable-background="new 0 0 111.3 111.3" xml:space="preserve">
<g id="Layer_1" display="none">
	<circle display="inline" fill="#F2F2F2" cx="55.6" cy="56.2" r="54.5"/>
</g>
<g id="Empty_x5F_Home">
	<g>
		<path fill="none" stroke="#0B2F6B" stroke-width="3.4471" stroke-linecap="round" stroke-miterlimit="10" d="M67,27.8H26.5
			c-2.1,0-2.9,1.5-2.9,3.5v15.2v0.4v53.6c0,2.1,0.9,3.9,2.9,3.9H67c2.1,0,3.1-1.8,3.1-3.9V31.3C70.1,29.3,69.1,27.8,67,27.8z"/>
		<circle fill="#0B2F6B" cx="46.9" cy="94.3" r="4.3"/>
	</g>
	<g>
		<path fill="#0B2F6B" d="M58.5,55.6c-0.3-0.2-0.6-0.3-0.9-0.3c-0.5,0-0.9,0.2-1.3,0.6s-0.5,0.8-0.5,1.3c0,0.5,0.2,0.9,0.5,1.3
			c0.4,0.4,0.8,0.6,1.3,0.6c0.3,0,0.6-0.1,0.9-0.2c0.3-0.2,0.5-0.4,0.7-0.7c0.2-0.3,0.2-0.6,0.2-0.9c0-0.3-0.1-0.6-0.2-0.9
			C59,56,58.8,55.8,58.5,55.6z"/>
		<path fill="#0B2F6B" d="M62.6,33.8H31.1c-0.9,0-1.6,0.7-1.6,1.6v49.3c0,0.9,0.7,1.6,1.6,1.6h31.6c0.9,0,1.6-0.7,1.6-1.6V35.3
			C64.2,34.5,63.5,33.8,62.6,33.8z M42,69c-0.2,0.2-0.3,0.2-0.6,0.2h-7.1c-0.3,0-0.6-0.1-0.7-0.2c-0.2-0.2-0.2-0.3-0.2-0.5
			c0-0.2,0.1-0.5,0.4-0.8l5.1-6.9c0.7-0.9,1.1-1.8,1.1-2.6c0-0.4-0.1-0.8-0.3-1.2c-0.2-0.4-0.5-0.6-0.8-0.8s-0.7-0.3-1.2-0.3
			c-0.6,0-1.1,0.1-1.5,0.4c-0.4,0.3-0.7,0.7-0.9,1.2c-0.2,0.5-0.3,1.1-0.3,1.7c0,0.3-0.1,0.5-0.2,0.6C34.5,60,34.3,60,34.1,60
			c-0.6,0-0.9-0.4-0.9-1.1c0-0.6,0.1-1.2,0.3-1.8c0.2-0.6,0.5-1.1,0.9-1.5c0.4-0.4,0.9-0.8,1.5-1c0.6-0.2,1.3-0.4,2-0.4
			c0.8,0,1.5,0.2,2.1,0.5c0.6,0.3,1.1,0.8,1.4,1.4c0.3,0.6,0.5,1.2,0.5,1.8c0,0.5-0.1,1-0.2,1.5c-0.1,0.5-0.4,1-0.8,1.6l-4.9,6.6
			h5.6c0.2,0,0.4,0.1,0.6,0.2c0.2,0.2,0.2,0.3,0.2,0.6C42.3,68.7,42.2,68.9,42,69z M53.2,65c-0.2,0.9-0.6,1.7-1,2.4
			c-0.4,0.6-1,1.1-1.5,1.5c-0.6,0.3-1.2,0.5-1.9,0.5c-0.7,0-1.3-0.2-1.9-0.5c-0.6-0.3-1.1-0.8-1.6-1.5c-0.5-0.7-0.8-1.5-1.1-2.4
			s-0.4-2-0.4-3.1c0-1.2,0.1-2.2,0.4-3.1c0.2-0.9,0.6-1.7,1.1-2.4c0.5-0.7,1-1.2,1.5-1.5c0.6-0.3,1.2-0.5,1.9-0.5
			c0.7,0,1.3,0.2,1.9,0.5c0.6,0.3,1.1,0.8,1.5,1.5c0.4,0.6,0.8,1.4,1,2.4c0.2,0.9,0.4,2,0.4,3.2C53.6,63,53.5,64.1,53.2,65z
			 M60.2,58.7c-0.3,0.5-0.6,0.8-1.1,1.1c-0.5,0.3-0.9,0.4-1.5,0.4c-0.5,0-1-0.1-1.5-0.4c-0.5-0.3-0.8-0.6-1.1-1.1
			c-0.3-0.5-0.4-1-0.4-1.5c0-0.8,0.3-1.5,0.9-2.1c0.6-0.6,1.3-0.9,2.1-0.9c0.5,0,1,0.1,1.5,0.4c0.4,0.3,0.8,0.6,1.1,1.1
			c0.3,0.5,0.4,1,0.4,1.5S60.4,58.3,60.2,58.7z"/>
		<path fill="#0B2F6B" d="M50.8,57.3c-0.3-0.5-0.6-0.8-0.9-1.1c-0.4-0.2-0.7-0.4-1.1-0.4c-0.6,0-1,0.2-1.5,0.6c-0.4,0.4-0.8,1.1-1,2
			c-0.3,0.9-0.4,2-0.4,3.3c0,1.3,0.1,2.5,0.4,3.3c0.3,0.9,0.6,1.5,1,2c0.4,0.4,0.9,0.7,1.5,0.7c0.6,0,1.1-0.2,1.5-0.7
			c0.4-0.4,0.8-1.1,1-2c0.3-0.9,0.4-2,0.4-3.3c0-1-0.1-1.9-0.2-2.7C51.3,58.4,51.1,57.8,50.8,57.3z"/>
	</g>
	<g>
		<defs>
			<polygon id="SVGID_1_" points="34.7,-8.8 34.7,27.8 70.4,27.8 70.4,64.3 96.9,64.3 96.9,27.8 96.9,-8.8 			"/>
		</defs>
		<clipPath id="SVGID_2_">
			<use xlink:href="#SVGID_1_"  overflow="visible"/>
		</clipPath>
		<g clip-path="url(#SVGID_2_)">
			<g>
				<g>
					<path fill="none" stroke="#0B2F6B" stroke-width="1.581" d="M91.6,32.1c0-14.2-11.5-25.7-25.7-25.7S40.2,17.9,40.2,32.1
						s11.5,25.7,25.7,25.7C80.1,57.8,91.6,46.3,91.6,32.1z"/>
					<path fill="none" stroke="#0B2F6B" stroke-width="2.4434" d="M83.8,32.1c0-9.9-8-17.9-17.9-17.9s-17.9,8-17.9,17.9
						s8,17.9,17.9,17.9S83.8,41.9,83.8,32.1z"/>
					
						<path fill="none" stroke="#0B2F6B" stroke-width="2.7933" stroke-linecap="round" stroke-linejoin="round" stroke-miterlimit="10" d="
						M75.9,32.1c0-5.5-4.5-10-10-10c-5.5,0-10,4.5-10,10s4.5,10,10,10C71.5,42.1,75.9,37.6,75.9,32.1z"/>
				</g>
			</g>
		</g>
	</g>
</g>
</svg>
