<?xml version="1.0" encoding="utf-8"?>
<!-- Generator: Adobe Illustrator 18.0.0, SVG Export Plug-In . SVG Version: 6.00 Build 0)  -->
<!DOCTYPE svg PUBLIC "-//W3C//DTD SVG 1.1//EN" "http://www.w3.org/Graphics/SVG/1.1/DTD/svg11.dtd">
<svg version="1.1" id="Layer_7" xmlns="http://www.w3.org/2000/svg" xmlns:xlink="http://www.w3.org/1999/xlink" x="0px" y="0px"
	 viewBox="0 0 190 190" enable-background="new 0 0 190 190" xml:space="preserve">
<path fill="none" stroke="#0B2F6B" stroke-width="5.2563" stroke-linecap="round" stroke-linejoin="round" stroke-miterlimit="10" d="
	M25.4,146.6c-30.3-23.8,9-73.3,9-73.3l1.8,11c18.6-19.9,8.1-45.8,8.1-45.8C90,59,90.9,94.7,90.9,94.7c6.4-8.5,6.1-16.2,6.1-16.2
	c22.5,37.1,9.9,57.6-4.3,68.1"/>
<path fill="#0B2F6B" d="M73.6,151.2c27.6-22.9-7.2-69.2-7.2-69.2S63.1,118.9,53,98c-29.5,39.5-2.8,53.2-2.8,53.2
	S62.4,160.5,73.6,151.2z"/>
<g>
	<path fill="#0B2F6B" d="M127.5,58c-2.4,0-4.6-1.5-5.5-3.9c-1.1-3,0.5-6.4,3.5-7.5l25.9-9.3c3-1.1,6.4,0.5,7.5,3.5
		c1.1,3-0.5,6.4-3.5,7.5l-25.9,9.3C128.8,57.9,128.1,58,127.5,58z"/>
	<path fill="#0B2F6B" d="M123,77c-2.4,0-4.6-1.5-5.5-3.9c-1.1-3,0.5-6.4,3.5-7.5L172.8,47c3-1.1,6.4,0.5,7.5,3.5
		c1.1,3-0.5,6.4-3.5,7.5L125,76.7C124.3,76.9,123.7,77,123,77z"/>
	<path fill="#0B2F6B" d="M138.6,102.5c-2.6,0-5-1.8-5.7-4.4c-0.3-1.1-5.1-3.2-10.3-3.5c-2.7-0.2-5-2.3-5.4-5
		c-0.4-2.7,1.2-5.4,3.8-6.3l51.7-18.7c3-1.1,6.4,0.5,7.5,3.5c1.1,3-0.5,6.4-3.5,7.5l-36.6,13.2c1.9,1.7,3.4,3.8,4.1,6.5
		c0.8,3.1-1.1,6.3-4.2,7.1C139.5,102.4,139,102.5,138.6,102.5z"/>
	<path fill="#0B2F6B" d="M159.2,102.5c-0.5,0-0.9-0.1-1.4-0.2c-3.1-0.8-5-4-4.2-7.1c2.6-10.6,17.8-12.1,20.8-12.3
		c3.3-0.2,6,2.2,6.2,5.4c0.2,3.2-2.2,6-5.4,6.2c-5.2,0.4-10,2.4-10.3,3.5C164.2,100.7,161.8,102.5,159.2,102.5z"/>
	
		<path fill="none" stroke="#0B2F6B" stroke-width="5.2563" stroke-linecap="round" stroke-linejoin="round" stroke-miterlimit="10" d="
		M172.7,109.2h-11.7h-10.3h-1.3h-10.3h-11.7c-2.1,0-3.9,1.4-3.9,3.5v12.7c0,1.1,0.9,2,1.6,2.7l11,10.5v10.1c0,2.1,0.8,3.3,2.9,3.3
		h22c2.1,0,2.8-1.2,2.8-3.3v-10.1l11-10.5c0.7-0.7,1.6-1.7,1.6-2.7v-12.7C176.5,110.6,174.8,109.2,172.7,109.2z"/>
</g>
</svg>
