<?xml version="1.0" encoding="utf-8"?>
<!-- Generator: Adobe Illustrator 18.0.0, SVG Export Plug-In . SVG Version: 6.00 Build 0)  -->
<!DOCTYPE svg PUBLIC "-//W3C//DTD SVG 1.1//EN" "http://www.w3.org/Graphics/SVG/1.1/DTD/svg11.dtd">
<svg version="1.1" id="Layer_1" xmlns="http://www.w3.org/2000/svg" xmlns:xlink="http://www.w3.org/1999/xlink" x="0px" y="0px"
	 width="1618.7px" height="800px" viewBox="-169.4 0 1618.7 800" enable-background="new -169.4 0 1618.7 800" xml:space="preserve"
	>
<rect x="-169.8" fill="#48646F" width="1620.8" height="801.4"/>
<g>
	<path fill="#3C555E" d="M806.5,504.3c-1.3-2.2-4-2.9-6.2-1.6L782.5,513l-7.6-13.2l18.3-10.7c2.2-1.3,2.9-4,1.6-6.2l-0.3-0.5
		c-1.3-2.2-4-2.9-6.2-1.6l-18.3,10.7l-0.5-1c-5.3-8.9-11.5-10.7-20.5-5.4l-24.5,14.3c-8.9,5.3-12.1,25.3-6.8,34.2l0.2,0.3
		c-23.6,13.7-50.6,21.2-78,21.2c-85.7,0-155.2-69.6-155.2-155.2S554,244.8,639.7,244.8c83.4,0,151.7,66.1,155.1,148.7h-23.4
		c-1.1-6.7-2.5-12.6-3.5-16.2c-4-14.3-22.8-30.6-40.9-42.3c-18.1-11.8-60.5-7.2-92.3-7.2c-31.8,0-52.1,24-62.4,34.4
		s-28.7,7.8-50.1,15c-21.5,7.2-17.5,17.5-18.1,43c-0.5,18,6.8,20.4,13.1,20.9h12.7c0.2-17,14-30.9,31-30.9s30.9,13.7,31,30.7
		l100.5-0.2c0.2-17,14-30.6,31-30.6s30.7,13.7,31,30.6h8c11.8,0,13.1-17.2,11.3-34.1h28.2c3.7,0,6.5-2.9,6.5-6.5
		c0-92.8-75.5-168.3-168.3-168.3S471.7,307.2,471.7,400S547.2,568.3,640,568.3c29.8,0,59.1-8,84.5-22.9l0.5,0.8
		c5.3,8.9,24.4,16.1,33.3,11l24.5-14.3c8.9-5.3,10.7-11.5,5.4-20.5l-0.5-1l17.8-10.3c2.2-1.3,2.9-4,1.6-6.2L806.5,504.3z"/>
	<circle fill="#3C555E" cx="722.8" cy="441.1" r="22.9"/>
	<circle fill="#3C555E" cx="560.4" cy="441.1" r="22.9"/>
</g>
</svg>
