<?xml version="1.0" encoding="utf-8"?>
<!-- Generator: Adobe Illustrator 18.0.0, SVG Export Plug-In . SVG Version: 6.00 Build 0)  -->
<!DOCTYPE svg PUBLIC "-//W3C//DTD SVG 1.1//EN" "http://www.w3.org/Graphics/SVG/1.1/DTD/svg11.dtd">
<svg version="1.1" xmlns="http://www.w3.org/2000/svg" xmlns:xlink="http://www.w3.org/1999/xlink" x="0px" y="0px"
	 viewBox="0 0 111.3 111.3" enable-background="new 0 0 111.3 111.3" xml:space="preserve">
<g id="Layer_1" display="none">
	<circle display="inline" fill="#F2F2F2" cx="55.6" cy="56.2" r="54.5"/>
</g>
<g id="Exit_Fees">
	<g>
		<g>
			<path fill="#0B2F6B" d="M45.6,8c0.9,0,1.8,0.3,2.4,1c1.3,1.3,1.3,3.5,0,4.8L31.4,30.5h56.7c0,0,0,0,0,0c1.9,0,3.4,1.5,3.4,3.4
				c0,1.9-1.5,3.4-3.4,3.4H31.4L48,53.9c1.3,1.3,1.3,3.5,0,4.8c-0.7,0.7-1.5,1-2.4,1s-1.8-0.3-2.4-1L20.8,36.3
				c-0.3-0.3-0.5-0.7-0.7-1.1c0,0,0,0,0-0.1c-0.4-0.8-0.3-1.8,0-2.6c0,0,0,0,0,0c0.2-0.4,0.4-0.7,0.7-1.1L43.2,9
				C43.9,8.4,44.7,8,45.6,8 M45.6,5.7c-1.5,0-3,0.6-4.1,1.7L19.1,29.8c-0.5,0.5-0.9,1.1-1.2,1.7c0,0.1-0.1,0.1-0.1,0.2
				c-0.6,1.4-0.6,3,0,4.4c0,0.1,0.1,0.1,0.1,0.2c0.3,0.6,0.7,1.2,1.2,1.7l22.4,22.4c1.1,1.1,2.5,1.7,4.1,1.7s3-0.6,4.1-1.7
				c1.1-1.1,1.7-2.5,1.7-4.1c0-1.5-0.6-3-1.7-4.1L37.1,39.7h51.1c3.2,0,5.8-2.6,5.8-5.8c0-1.5-0.6-3-1.7-4.1
				c-1.1-1.1-2.5-1.7-4.1-1.7H37.1l12.6-12.6c2.2-2.2,2.2-5.9,0-8.1C48.6,6.3,47.2,5.7,45.6,5.7L45.6,5.7z"/>
		</g>
		
			<path fill="#0B2F6B" stroke="#0B2F6B" stroke-width="2.3398" stroke-linecap="round" stroke-linejoin="round" stroke-miterlimit="10" d="
			M91.3,79.4C91.3,79.4,91.3,79.3,91.3,79.4c0.4-0.9,0.4-1.8,0-2.7c0,0,0,0,0-0.1c-0.2-0.4-0.4-0.7-0.7-1c0,0,0,0,0,0L68.1,53.1
			c-1.3-1.3-3.5-1.3-4.8,0s-1.3,3.5,0,4.8l16.6,16.6H23.2c-1.9,0-3.4,1.5-3.4,3.4c0,0.9,0.4,1.8,1,2.4c0.6,0.6,1.5,1,2.4,1h56.7
			L63.3,98c-1.3,1.3-1.3,3.5,0,4.8c1.3,1.3,3.5,1.3,4.8,0l22.4-22.4C90.9,80.1,91.1,79.8,91.3,79.4z"/>
	</g>
</g>
</svg>
