<?xml version="1.0" encoding="utf-8"?>
<!-- Generator: Adobe Illustrator 18.0.0, SVG Export Plug-In . SVG Version: 6.00 Build 0)  -->
<!DOCTYPE svg PUBLIC "-//W3C//DTD SVG 1.1//EN" "http://www.w3.org/Graphics/SVG/1.1/DTD/svg11.dtd">
<svg version="1.1" xmlns="http://www.w3.org/2000/svg" xmlns:xlink="http://www.w3.org/1999/xlink" x="0px" y="0px"
	 viewBox="0 0 111.3 111.3" enable-background="new 0 0 111.3 111.3" xml:space="preserve">
<g id="Layer_1" display="none">
	<circle display="inline" fill="#F2F2F2" cx="55.6" cy="56.2" r="54.5"/>
</g>
<g id="Fix_n_Fall">
	
		<path fill="none" stroke="#0B2F6B" stroke-width="4.986" stroke-linecap="round" stroke-linejoin="round" stroke-miterlimit="10" d="
		M30.2,50.9V35.8C30.2,21.6,41.8,10,56,10s25.8,11.6,25.8,25.8v5.1"/>
	
		<path fill="none" stroke="#0B2F6B" stroke-width="4.986" stroke-linecap="round" stroke-linejoin="round" stroke-miterlimit="10" d="
		M91.4,103.5H20.7c-2.7,0-4.9-2.2-4.9-4.9V56.5c0-2.7,2.2-4.9,4.9-4.9h70.7c2.7,0,4.9,2.2,4.9,4.9v42.1
		C96.3,101.3,94.1,103.5,91.4,103.5z"/>
	<path fill="#0B2F6B" d="M63.8,73.7c0-4.3-3.5-7.7-7.7-7.7s-7.7,3.5-7.7,7.7c0,2.7,1.4,5,3.5,6.4v6.4c0,2.3,1.9,4.2,4.2,4.2
		c2.3,0,4.2-1.9,4.2-4.2v-6.4C62.4,78.7,63.8,76.4,63.8,73.7z"/>
</g>
</svg>
