<?xml version="1.0" encoding="utf-8"?>
<!-- Generator: Adobe Illustrator 18.0.0, SVG Export Plug-In . SVG Version: 6.00 Build 0)  -->
<!DOCTYPE svg PUBLIC "-//W3C//DTD SVG 1.1//EN" "http://www.w3.org/Graphics/SVG/1.1/DTD/svg11.dtd">
<svg version="1.1" xmlns="http://www.w3.org/2000/svg" xmlns:xlink="http://www.w3.org/1999/xlink" x="0px" y="0px"
	 viewBox="0 0 111.3 111.3" enable-background="new 0 0 111.3 111.3" xml:space="preserve">
<g id="Layer_1" display="none">
	<circle display="inline" fill="#F2F2F2" cx="55.6" cy="56.2" r="54.5"/>
</g>
<g id="Fix__x26__Reward">
	<g>
		<path fill="#0B2F6B" d="M16.4,74.1h21c0.7,0,1.2,0.2,1.6,0.6c0.4,0.4,0.6,0.9,0.6,1.4c0,0.5-0.2,1-0.6,1.4c-0.4,0.4-1,0.6-1.6,0.6
			H12.8c-0.7,0-1.3-0.2-1.7-0.6c-0.4-0.4-0.6-0.8-0.6-1.4c0-0.7,0.4-1.5,1.3-2.3c1.2-1.2,2.2-2.3,3-3.3s1.5-2.2,2.1-3.6
			c0.6-1.4,0.8-2.8,0.8-4.3c0-1.4-0.2-2.9-0.7-4.5h-6.6c-0.7,0-1.2-0.2-1.6-0.6c-0.4-0.4-0.6-0.9-0.6-1.5c0-0.5,0.2-1,0.6-1.4
			c0.4-0.4,1-0.6,1.6-0.6h5.3c-1.3-2.3-2.2-4.1-2.6-5.2c-0.5-1.1-0.7-2.4-0.7-3.6c0-2.1,0.5-4,1.6-5.6c1.1-1.6,2.5-2.9,4.5-3.8
			c1.9-0.9,4.1-1.4,6.5-1.4c2,0,3.9,0.4,5.6,1.1c1.7,0.7,3.2,1.7,4.4,2.8c1.2,1.1,2.1,2.4,2.7,3.6s0.9,2.5,0.9,3.6
			c0,0.6-0.2,1.1-0.5,1.5c-0.3,0.4-0.8,0.6-1.4,0.6c-0.9,0-1.6-0.5-1.9-1.5c-0.8-2.5-2-4.4-3.6-5.8c-1.6-1.3-3.6-2-6.2-2
			c-2.2,0-4.1,0.6-5.6,1.8c-1.5,1.2-2.2,3.1-2.2,5.5c0,1,0.2,2,0.6,3.1c0.4,1.1,1.2,2.8,2.4,5.2h7.3c0.7,0,1.2,0.2,1.6,0.6
			c0.4,0.4,0.6,0.8,0.6,1.4c0,0.6-0.2,1.1-0.6,1.5c-0.4,0.4-1,0.6-1.6,0.6h-6.1c0.4,1.4,0.7,3,0.7,4.8c0,1.9-0.5,3.7-1.4,5.5
			C19.8,70.2,18.4,72.1,16.4,74.1z"/>
		<path fill="#0B2F6B" d="M49.2,51.9l2.2-14.3c0.2-1,0.4-1.7,0.8-2.1c0.4-0.5,1-0.7,1.8-0.7h12.9c0.7,0,1.2,0.2,1.6,0.6
			s0.6,0.9,0.6,1.4c0,0.5-0.2,1-0.6,1.4c-0.4,0.4-1,0.6-1.6,0.6H55.5l-1.9,12.6c1.4-0.7,2.9-1.1,4.7-1.1c2.1,0,4,0.6,5.8,1.7
			c1.8,1.1,3.2,2.7,4.3,4.6c1,2,1.6,4.1,1.6,6.6c0,3-0.6,5.7-1.7,8c-1.1,2.3-2.7,4.1-4.7,5.4c-2,1.3-4.3,1.9-6.9,1.9
			c-1.6,0-3.2-0.2-4.6-0.7c-1.4-0.5-2.7-1.1-3.8-1.9c-1.1-0.8-2-1.5-2.6-2.3c-0.6-0.7-0.9-1.3-0.9-1.8c0-0.5,0.2-0.9,0.6-1.4
			c0.4-0.5,0.9-0.7,1.5-0.7c0.4,0,0.8,0.2,1.3,0.7c0.5,0.5,1.1,1,1.9,1.7c0.8,0.7,1.7,1.2,2.7,1.7c1,0.5,2.3,0.7,3.7,0.7
			c2.7,0,4.8-1,6.3-3c1.6-2,2.3-4.6,2.3-7.7c0-1.9-0.3-3.5-1-4.9c-0.7-1.4-1.7-2.5-3-3.3c-1.3-0.8-2.8-1.2-4.5-1.2
			c-0.8,0-1.5,0.1-2,0.2c-0.5,0.2-1.2,0.5-2.1,0.9c-1,0.4-1.7,0.6-2.2,0.6c-0.4,0-0.8-0.2-1.1-0.5c-0.3-0.3-0.5-0.7-0.5-1.1
			C48.9,54.2,49,53.3,49.2,51.9z"/>
		<path fill="#0B2F6B" d="M90.2,78.4c-1.6,0-3.2-0.4-4.8-1.2c-1.6-0.8-3.1-2.1-4.4-3.8c-1.3-1.7-2.4-4-3.2-6.8s-1.2-6.2-1.2-10.2
			c0-4,0.4-7.4,1.2-10.2c0.8-2.8,1.9-5.1,3.2-6.9c1.3-1.7,2.8-3,4.4-3.8c1.6-0.8,3.2-1.2,4.8-1.2c1.6,0,3.2,0.4,4.8,1.2
			c1.6,0.8,3.1,2,4.4,3.8c1.4,1.7,2.4,4,3.2,6.9c0.8,2.8,1.2,6.2,1.2,10.2c0,4-0.4,7.4-1.2,10.2c-0.8,2.8-1.9,5.1-3.2,6.9
			c-1.4,1.7-2.8,3-4.4,3.8S91.8,78.4,90.2,78.4z M90.2,38.4c-1.5,0-2.8,0.5-3.9,1.4c-1.1,0.9-2.1,2.2-2.8,3.8
			c-0.7,1.6-1.3,3.5-1.7,5.7c-0.4,2.1-0.5,4.6-0.5,7.2c0,2.7,0.2,5.1,0.5,7.2c0.4,2.1,0.9,4,1.7,5.7c0.8,1.6,1.7,2.9,2.8,3.8
			c1.1,0.9,2.4,1.3,3.9,1.3c2.9,0,5.2-1.6,6.7-4.9c1.5-3.3,2.3-7.6,2.3-13.1c0-2.6-0.2-5-0.6-7.3s-0.9-4.1-1.7-5.7
			c-0.7-1.6-1.7-2.8-2.8-3.7C93,38.8,91.7,38.4,90.2,38.4z"/>
	</g>
</g>
</svg>
