<?xml version="1.0" encoding="utf-8"?>
<!-- Generator: Adobe Illustrator 17.1.0, SVG Export Plug-In . SVG Version: 6.00 Build 0)  -->
<!DOCTYPE svg PUBLIC "-//W3C//DTD SVG 1.1//EN" "http://www.w3.org/Graphics/SVG/1.1/DTD/svg11.dtd">
<svg version="1.1" id="Layer_1" xmlns="http://www.w3.org/2000/svg" xmlns:xlink="http://www.w3.org/1999/xlink" x="0px" y="0px"
	 viewBox="111 0 627 572.3" enable-background="new 111 0 627 572.3" xml:space="preserve">
<g id="Original">
	<g>
		<path fill="#FFFFFF" d="M429.1,77.1c100.7,0,183,82.3,183,183.9s-81.8,183.9-183,183.9c-100.7,0-183-82.3-183-183.9
			S328.5,77.1,429.1,77.1 M429.1,12.8C292.6,12.8,181.8,124,181.8,261s110.8,248.3,247.3,248.3S676.5,398,676.5,261
			C676.5,123.5,565.7,12.8,429.1,12.8L429.1,12.8z"/>
	</g>
	
		<circle fill="none" stroke="#000000" stroke-width="3.0838" stroke-linecap="round" stroke-linejoin="bevel" stroke-miterlimit="10" cx="428.7" cy="260.6" r="258.4"/>
	<circle fill="#00B1EB" cx="428.7" cy="260.6" r="168.3"/>
	<g>
		<path fill="#FFFFFF" d="M566.1,187.5c-1.4-0.5-2.8-0.9-4.6-1.4l0,0l-167.8-50.6c-19.3-5.5-42.8,2.8-53.3,29.4
			c-9.7,25.3,0.9,47.4,19.3,54.2l2.8,0.9h-0.9l-103.4,77.7l209.2,91.9c0,0,67.1-60.2,103.4-100.2c9.2-10.1,17-23.4,19.3-29.9
			C600.2,235.7,598.3,199.9,566.1,187.5z"/>
		
			<path fill="none" stroke="#000000" stroke-width="3.0838" stroke-linecap="round" stroke-linejoin="round" stroke-miterlimit="10" d="
			M548.2,239.9c-6.9,14.3-18.4,5.1-14.7-7.8c3.7-12.9,14.3-17.5,21.1-14.7c10.1,4.1,14.3,16.6,9.2,29.4c-5.5,14.7-21.1,21.6-32.6,17
			c-14.3-5.5-16.1-24.4-11-38.2c7.4-18.8,25.3-29.4,40.5-23.4c17,6.9,23.9,29.4,15.6,51c-9.7,24.4-30.8,35.4-50.1,27.6
			c-20.7-7.8-31.7-33.6-20.2-62.5c11.5-29.9,39.5-39.1,60.2-30.8c32.2,12.4,34,48.7,23.9,72.2c-2.3,6-10.6,19.8-19.3,29.9
			c-36.3,40-103.4,100.2-103.4,100.2l-209.2-91.9l103-77.7"/>
		
			<path fill="none" stroke="#000000" stroke-width="3.0838" stroke-linecap="round" stroke-linejoin="round" stroke-miterlimit="10" d="
			M526.1,281.2l-166.4-62.1c-18.4-7.4-28.5-29-18.8-54.7c10.1-26.7,34-34.9,53.3-29.4L562,185.6"/>
	</g>
	<g>
		<path d="M125.3,248.1l0.5-5.5l7.4-1.4l0.9-10.1l-6.9-2.8l0.5-5.5l30.3,12.4l-0.5,5.5L125.3,248.1z M138.1,240.3l12-2.3l-11.5-4.1
			L138.1,240.3z"/>
		<path d="M123.4,270.7l-0.5,5.5c-0.9,0-1.4,0.5-1.4,0.9c-0.5,0.5-0.5,1.4-0.5,2.3c0,1.4,0.5,2.3,0.9,2.8c0.5,0.5,0.9,0.5,1.4,0.9
			c0.5,0,1.4,0,2.8,0h3.2c-2.3-1.4-3.7-3.2-4.1-5.1c0-2.3,0.9-4.6,3.7-6c1.8-1.4,4.6-1.8,7.4-2.3c3.7,0,6.9,0.5,8.7,1.8
			c2.3,1.4,3.2,3.2,3.2,5.1c0,2.3-0.9,4.1-3.2,5.5h3.2l0.5,4.6l-20.2,0.5c-2.8,0-4.6,0-6,0c-1.4-0.5-2.3-0.9-3.2-1.4
			c-0.9-0.5-1.4-1.4-1.8-2.3c-0.5-0.9-0.9-2.3-0.9-4.1c0-3.2,0.5-5.1,1.4-6.4c1.4-1.4,2.8-2.3,5.1-2.3
			C123,270.7,123.4,270.7,123.4,270.7z M137.2,273.9c-2.3,0-4.1,0.5-5.1,1.4c-0.9,0.9-1.4,1.8-1.4,2.8c0,1.4,0.9,2.3,1.8,2.8
			c1.4,0.9,2.8,0.9,5.1,0.9s4.1-0.5,5.1-1.4c0.9-0.9,1.4-1.8,1.4-3.2c0-1.4-0.5-1.8-1.8-2.8C140.9,274.3,139.5,273.9,137.2,273.9z"
			/>
		<path d="M138.6,295.5c1.8-0.5,4.1,0,6,0.5c1.8,0.5,3.7,1.4,4.6,2.8c1.4,1.4,1.8,2.8,2.3,4.6c0.5,2.8-0.5,5.1-2.3,7.4
			c-1.8,1.8-4.6,3.2-7.8,3.7s-6.4,0-8.7-1.4c-2.3-1.4-4.1-3.2-4.1-6c-0.5-1.8,0-3.2,0.5-5.1c0.9-1.8,1.8-2.8,3.7-4.1
			C134,296.4,135.8,296,138.6,295.5z M139,300.1c-2.3,0.5-3.7,0.9-5.1,1.8c-0.9,0.9-1.4,2.3-1.4,3.2c0,1.4,0.9,2.3,2.3,2.8
			c1.4,0.5,3.2,0.9,5.5,0.5c2.3-0.5,3.7-0.9,5.1-1.8c0.9-0.9,1.4-2.3,1.4-3.2c0-1.4-0.9-2.3-2.3-2.8
			C143.2,300.1,141.3,300.1,139,300.1z"/>
		<path d="M133.1,330l20.2-12.4l1.4,5.1l-10.6,6l-3.7,1.8c0.9,0,1.8,0,1.8,0c0.5,0,1.4,0,1.8,0l12,0.5l1.4,4.6l-23.9-1.8L133.1,330z
			"/>
		<path d="M148.2,357.6l0.5,5.1c-2.3,0-4.1-0.5-5.5-1.4c-1.4-0.9-2.8-2.3-3.2-4.1c-0.9-3.2-0.5-5.5,1.4-7.8c1.4-1.8,3.7-3.2,6.9-4.1
			c3.7-1.4,6.4-1.4,9.2-0.5c2.3,0.9,4.1,2.3,5.1,4.6c0.9,2.8,0.5,5.1-0.9,6.9c-1.8,2.3-4.6,4.1-9.2,5.5l-3.7-11.5
			c-1.8,0.5-2.8,1.4-3.7,2.3c-0.9,0.9-0.9,1.8-0.5,3.2c0.5,0.9,0.5,1.4,1.4,1.4C146.4,357.6,147.3,357.6,148.2,357.6z M154.2,355.7
			c1.8-0.5,2.8-1.4,3.2-2.3c0.5-0.9,0.9-1.8,0.5-2.8c-0.5-0.9-0.9-1.8-2.3-1.8c-0.9-0.5-2.3-0.5-4.1,0.5L154.2,355.7z"/>
		<path d="M148.2,377.8l-1.8-4.6l20.7-8.7l1.8,4.1l-2.8,1.4c1.8,0,2.8,0.5,3.7,0.9c0.5,0.5,1.4,0.9,1.4,1.8c0.5,0.9,0.5,2.3,0,3.2
			l-5.5,0.5c0.5-0.9,0.5-1.8,0-2.3c-0.5-0.5-0.5-0.9-1.4-1.4c-0.5-0.5-1.4-0.5-2.8,0c-1.4,0-3.7,0.9-7.4,2.8L148.2,377.8z"/>
		<path d="M161.6,405.8l-2.3-4.1l10.6-5.5c2.3-0.9,3.7-1.8,4.1-2.3c0.5-0.5,0.9-0.9,0.9-1.8c0-0.5,0-1.4,0-1.8
			c-0.5-0.9-0.9-1.4-1.8-1.4c-0.9-0.5-1.8-0.5-2.8,0c-0.9,0-2.8,0.9-4.6,1.8l-9.2,4.6l-2.3-4.1l20.2-10.1l1.8,4.1l-2.8,1.4
			c3.2,0.5,5.1,1.4,6,3.7c0.5,0.9,0.9,1.8,0.5,2.8c0,0.9-0.5,1.8-0.9,2.8c-0.5,0.9-0.9,1.4-1.8,1.8c-0.9,0.5-1.8,1.4-3.7,1.8
			L161.6,405.8z"/>
		<path d="M185.9,403.1l2.3,3.7l-2.8,1.8c2.8,0,5.1,0.9,6,2.8c0.5,0.9,0.9,1.8,0.9,3.2c0,0.9-0.5,2.3-0.9,3.2c1.4,0,2.8,0.5,3.7,0.5
			c0.9,0.5,1.8,0.9,2.3,1.8c0.9,0.9,0.9,2.3,0.9,3.2c0,0.9-0.5,2.3-1.4,3.2c-0.5,0.9-1.8,1.8-3.7,2.8l-12,7.8l-2.8-4.1l11-6.9
			c1.8-1.4,3.2-2.3,3.2-2.8c0.5-0.9,0.5-1.8,0-2.3c-0.5-0.5-0.9-0.9-1.8-1.4c-0.9,0-1.4,0-2.8,0c-0.9,0.5-2.3,0.9-4.1,2.3l-9.2,6
			l-2.8-4.1l10.6-6.9c1.8-1.4,3.2-1.8,3.2-2.8c0.5-0.5,0.9-0.9,0.9-1.4c0-0.5,0-0.9-0.5-1.4c-0.5-0.5-0.9-0.9-1.8-1.4
			c-0.9,0-1.4,0-2.3,0c-0.9,0.5-2.3,0.9-4.1,2.3l-9.2,6l-2.8-4.1L185.9,403.1z"/>
		<path d="M200.7,450l2.3,4.1c-2.3,0.9-4.1,1.4-5.5,0.9c-1.8-0.5-3.2-1.4-4.6-2.8c-1.8-2.3-2.3-5.1-1.4-7.8c0.9-2.3,2.3-4.1,5.1-6.4
			c2.8-2.3,5.5-3.7,8.3-3.7s4.6,0.9,6.4,2.8c1.8,2.3,2.3,4.6,1.4,6.9c-0.9,2.8-2.8,5.5-6.4,8.3l-7.4-9.2c-1.4,0.9-2.3,2.3-2.3,3.7
			c-0.5,1.4,0,2.3,0.5,3.2c0.5,0.5,0.9,0.9,1.8,0.9C198.4,450.9,199.3,450.4,200.7,450z M205.2,446.3c1.4-0.9,2.3-2.3,2.3-3.2
			c0.5-0.9,0-1.8-0.5-2.8c-0.5-0.9-1.4-1.4-2.8-0.9c-1.4,0-2.3,0.5-3.7,1.8L205.2,446.3z"/>
		<path d="M215.8,477.5l-3.2-3.7l8.3-7.8c1.8-1.8,2.8-2.8,3.2-3.7c0.5-0.5,0.5-1.4,0.5-1.8c0-0.5-0.5-0.9-0.9-1.8
			c-0.5-0.5-1.4-0.9-2.3-0.9c-0.9,0-1.8,0-2.8,0.5s-2.3,1.4-4.1,3.2l-7.4,6.9l-3.2-3.7L220,449l3.2,3.2l-2.3,2.3
			c2.8-0.5,5.1,0,6.9,1.8c0.9,0.9,1.4,1.8,1.4,2.8c0.5,0.9,0.5,1.8,0,2.8c0,0.9-0.5,1.8-1.4,2.3c-0.5,0.9-1.4,1.8-2.8,3.2
			L215.8,477.5z"/>
		<path d="M245.2,473.9l-3.2,3.7l-2.3-2.3l-6,6.9c-1.4,1.4-1.8,2.3-2.3,2.3c0,0.5,0,0.5,0,0.9c0,0.5,0,0.5,0.5,0.9
			c0.5,0.5,0.9,0.5,1.8,0.9l-2.8,3.7c-1.4-0.5-2.3-0.9-3.2-1.8c-0.5-0.5-0.9-1.4-1.4-1.8c-0.5-0.9-0.5-1.4,0-1.8
			c0-0.5,0.5-1.4,0.9-2.3c0.5-0.5,1.4-1.8,2.8-3.2l6.4-7.4l-1.8-1.4l3.2-3.7l1.8,1.4l3.2-3.2l6,0.5l-5.5,6L245.2,473.9z"/>
		<path d="M248.5,505.1l13.3-18.4l3.7,2.8l-13.3,18.4L248.5,505.1z M263.6,484.4l3.2-4.6l3.7,2.8l-3.2,4.6L263.6,484.4z"/>
		<path d="M275.1,523.1l-4.1-2.8l6-9.7c1.4-2.3,1.8-3.7,2.3-4.1c0-0.9,0-1.4,0-1.8c0-0.5-0.5-0.9-0.9-1.4c-0.9-0.5-1.4-0.5-2.3-0.5
			s-1.8,0.5-2.3,1.4c-0.9,0.5-1.8,2.3-3.2,4.1l-5.5,8.7l-4.1-2.8l12-19.3l3.7,2.3l-1.8,2.8c2.8-1.4,5.1-1.4,6.9,0
			c0.9,0.5,1.4,1.4,2.3,2.3c0.5,0.9,0.9,1.8,0.9,2.8c0,0.9,0,1.8-0.5,2.8c-0.5,0.9-0.9,2.3-1.8,3.7L275.1,523.1z"/>
		<path d="M284.3,528.1l10.6-20.2l4.1,2.3l-10.6,20.2L284.3,528.1z M296.3,505.1l2.8-5.1l4.1,2.3l-2.8,5.1L296.3,505.1z"/>
		<path d="M314.7,517.5l-1.8,4.1l-2.8-1.4l-3.7,8.3c-0.9,1.8-1.4,2.8-1.4,2.8c0,0.5,0,0.5,0,0.9c0,0.5,0.5,0.5,0.5,0.5
			c0.5,0,0.9,0.5,1.8,0.5l-1.4,4.6c-1.4,0-2.8,0-3.7-0.9c-0.9-0.5-1.4-0.9-1.8-1.4c-0.5-0.5-0.9-1.4-0.9-1.8c0-0.5,0-1.4,0.5-2.3
			c0-0.5,0.9-1.8,1.8-3.7l4.1-8.7l-1.8-0.9l1.8-4.1l1.8,0.9l1.8-4.1l6-1.4l-3.2,7.4L314.7,517.5z"/>
		<path d="M313.3,541.5l8.3-21.1l4.6,1.8l-8.3,21.1L313.3,541.5z M322.9,517.5l1.8-5.1l4.6,1.8l-1.8,5.1L322.9,517.5z"/>
		<path d="M335.8,533.2l-3.7-2.3c0.9-1.8,2.3-3.2,3.7-3.7s3.2-0.5,5.5,0c1.8,0.5,3.2,1.4,4.1,2.3s1.4,1.8,1.4,2.8
			c0,0.9-0.5,2.8-0.9,5.5l-2.3,6.4c-0.5,1.8-0.9,3.2-0.9,4.1s0,1.8,0,3.2l-4.6-1.4c0-0.5,0-0.9,0-1.8c0-0.5,0-0.5,0-0.9
			c-0.9,0.9-2.3,0.9-3.2,1.4c-0.9,0-1.8,0-3.2,0c-1.8-0.5-2.8-1.8-3.7-3.2c-0.5-1.4-0.5-3.2,0-5.1c0.5-1.4,0.9-2.3,1.8-3.2
			c0.9-0.9,1.8-1.4,2.8-1.4c0.9-0.5,2.3-0.5,4.1,0c2.3,0,4.1,0,5.1,0v-0.5c0.5-0.9,0.5-1.8,0-2.8c-0.5-0.5-0.9-0.9-2.3-1.4
			c-0.9-0.5-1.4-0.5-2.3,0C336.7,531.8,336.3,532.3,335.8,533.2z M340.4,540.1c-0.5,0-1.8,0-3.2,0c-1.4,0-2.3,0-2.8,0
			c-0.9,0.5-1.4,0.9-1.4,1.8c-0.5,0.9-0.5,1.4,0,2.3c0.5,0.9,0.9,1.4,1.4,1.4c0.9,0.5,1.8,0,2.8-0.5c0.9-0.5,1.4-0.9,1.8-1.4
			c0.5-0.5,0.5-1.4,0.9-2.8L340.4,540.1z"/>
		<path d="M364.8,534.6l-1.4,4.6l-3.2-0.9l-2.3,8.7c-0.5,1.8-0.5,2.8-0.9,3.2c0,0.5,0,0.5,0,0.9c0,0.5,0.5,0.5,0.9,0.5
			c0.5,0,0.9,0,1.8,0l-0.9,4.6c-1.4,0.5-2.3,0.5-3.7,0c-0.9,0-1.4-0.5-2.3-0.9c-0.5-0.5-0.9-0.9-0.9-1.8c0-0.5,0-1.4,0-2.3
			c0-0.9,0.5-2.3,0.9-4.1l2.3-9.7l-2.3-0.5l1.4-4.6l2.3,0.5l0.9-4.1l5.5-2.3l-1.8,7.8L364.8,534.6z"/>
		<path d="M368,558.5l4.6-22.1l4.6,0.9l-4.6,22.1L368,558.5z M372.6,533.2l0.9-5.5l4.6,0.9l-0.9,5.5L372.6,533.2z"/>
		<path d="M387.8,561.7l-4.1-23.4l5.1,0.5l1.8,12l0.5,4.1c0.5-0.9,0.5-1.4,0.9-1.8c0.5-0.5,0.5-1.4,0.9-1.8l5.1-11l5.1,0.5
			l-10.1,21.6L387.8,561.7z"/>
		<path d="M419,557.1l4.6,1.4c-0.9,2.3-1.8,3.7-3.2,5.1c-1.4,0.9-3.2,1.4-5.1,1.4c-3.2,0-5.5-1.4-6.9-4.1c-0.9-2.3-1.4-4.6-1.4-7.8
			c0-3.7,0.9-6.4,2.8-8.7c1.8-1.8,3.7-3.2,6-2.8c2.8,0,4.6,1.4,6.4,3.7c1.4,2.3,1.8,5.5,1.8,10.1l-12-0.5c0,1.8,0.5,3.2,0.9,4.1
			c0.9,0.9,1.4,1.4,2.8,1.4c0.9,0,1.4,0,1.8-0.5C418.1,558.9,418.6,558.5,419,557.1z M419.5,551.1c0-1.8-0.5-3.2-0.9-4.1
			c-0.5-0.9-1.4-1.4-2.3-1.4s-1.8,0.5-2.8,1.4c-0.9,0.9-0.9,2.3-1.4,3.7L419.5,551.1z"/>
		<path d="M454.9,540.5l0.5,4.6l-3.2,0.5l0.9,9.2c0,1.8,0.5,2.8,0.5,3.2c0,0.5,0.5,0.5,0.5,0.9c0.5,0,0.5,0.5,0.9,0.5
			s0.9-0.5,1.8-0.9l0.9,4.6c-0.9,0.5-2.3,0.9-3.7,1.4c-0.9,0-1.8,0-2.3-0.5c-0.9-0.5-1.4-0.9-1.8-1.4s-0.5-1.4-0.9-2.3
			c0-0.5-0.5-2.3-0.5-4.1l-0.9-9.7h-2.3l-0.5-4.6h2.3l-0.5-4.6l4.6-3.7l0.5,7.8L454.9,540.5z"/>
		<path d="M462.7,551.1c-0.5-1.8,0-4.1,0.5-6c0.5-1.8,1.4-3.7,2.8-4.6c1.4-1.4,2.8-1.8,4.6-2.3c2.8-0.5,5.1,0.5,7.4,2.3
			c1.8,1.8,3.2,4.6,3.7,7.8c0.5,3.2,0,6.4-1.4,8.7s-3.2,4.1-6,4.1c-1.8,0.5-3.2,0-5.1-0.5c-1.8-0.9-2.8-1.8-4.1-3.7
			C463.6,555.7,463.2,553.4,462.7,551.1z M467.3,550.6c0.5,2.3,0.9,3.7,1.8,5.1c0.9,0.9,2.3,1.4,3.2,1.4c1.4,0,2.3-0.9,2.8-2.3
			c0.5-1.4,0.9-3.2,0.5-5.5s-0.9-3.7-1.8-5.1c-0.9-0.9-2.3-1.4-3.2-1.4c-1.4,0-2.3,0.9-2.8,2.3C467.3,546.5,467.3,548.3,467.3,550.6
			z"/>
		<path d="M500.4,532.7l4.1-1.4l0.9,2.8c0.9-2.8,2.3-4.6,4.1-5.1c0.9-0.5,2.3-0.5,3.2,0c0.9,0.5,1.8,0.9,2.8,1.8
			c0.5-1.4,0.9-2.3,1.8-3.2c0.9-0.9,1.4-1.4,2.8-1.8s2.3-0.5,3.7,0c0.9,0.5,1.8,0.9,2.8,2.3c0.5,0.9,1.4,2.3,1.8,4.1l4.6,13.8
			l-4.6,1.4l-3.7-12.4c-0.5-2.3-1.4-3.7-1.8-4.1s-1.4-0.9-2.3-0.5c-0.5,0-1.4,0.5-1.4,1.4c-0.5,0.5-0.5,1.4-0.5,2.8
			c0,0.9,0.5,2.8,0.9,4.6l3.2,10.6l-4.6,1.4l-3.7-12c-0.5-2.3-1.4-3.2-1.4-4.1c-0.5-0.5-0.9-0.9-1.4-0.9c-0.5,0-0.9,0-1.4,0
			c-0.9,0-1.4,0.5-1.8,1.4c-0.5,0.5-0.5,1.4-0.5,2.3c0,0.9,0.5,2.3,0.9,4.6l3.2,10.6l-4.6,1.4L500.4,532.7z"/>
		<path d="M539.5,526.3l-4.6,0.9c-0.5-2.3-0.5-4.1,0.5-5.5c0.5-1.4,2.3-2.8,4.1-3.7c1.8-0.9,3.7-1.4,4.6-0.9c1.4,0,2.3,0.5,2.8,1.4
			c0.9,0.9,1.8,2.3,2.8,4.6l2.8,6.4c0.9,1.8,1.4,3.2,1.8,4.1c0.5,0.9,1.4,1.8,1.8,2.3l-4.1,1.8c-0.5-0.5-0.5-0.9-0.9-1.4
			c0-0.5-0.5-0.5-0.5-0.5c-0.5,1.4-0.9,2.3-1.4,3.2c-0.5,0.9-1.4,1.4-2.3,1.8c-1.8,0.9-3.2,0.9-4.6,0c-1.4-0.9-2.8-1.8-3.2-3.7
			c-0.5-1.4-0.9-2.3-0.9-3.2c0-0.9,0.5-2.3,0.9-2.8c0.5-0.9,1.4-1.8,2.8-2.8c1.8-1.4,3.2-2.3,3.7-3.2l-0.5-0.5
			c-0.5-0.9-0.9-1.8-1.4-1.8c-0.5-0.5-1.4,0-2.8,0.5c-0.9,0.5-1.4,0.9-1.4,1.4C539.5,524.4,539.5,525.4,539.5,526.3z M547.3,528.1
			c-0.5,0.5-1.4,0.9-2.3,1.8c-0.9,0.9-1.8,1.4-1.8,1.8c-0.5,0.9-0.5,1.4,0,2.3c0.5,0.9,0.9,1.4,1.4,1.8c0.9,0.5,1.4,0.5,2.3,0
			c0.9-0.5,1.4-0.9,1.8-1.8c0.5-0.9,0.5-1.4,0.5-2.3c0-0.5-0.5-1.4-0.9-2.8L547.3,528.1z"/>
		<path d="M565.7,531.8L551,504.2l4.1-2.3l7.8,14.7l1.4-9.7l5.1-2.8l-1.4,10.1l12.4,9.7l-4.6,2.3l-8.7-6.9l-0.5,3.7l3.2,6.4
			L565.7,531.8z"/>
		<path d="M592.8,507.4l4.6-1.8c0.5,2.3,0.9,4.1,0.5,6c-0.5,1.8-1.4,3.2-3.2,4.1c-2.8,1.8-5.5,1.8-7.8,0.5c-2.3-0.9-4.1-2.8-5.5-5.5
			c-1.8-3.2-2.8-6-2.8-8.7c0-2.8,1.4-4.6,3.2-6c2.3-1.4,4.6-1.8,7.4-0.5c2.3,0.9,5.1,3.7,7.4,7.4l-10.1,6.4c0.9,1.4,2.3,2.3,3.2,2.8
			c1.4,0.5,2.3,0.5,3.2-0.5c0.5-0.5,0.9-0.9,1.4-1.8C593.3,509.7,593.3,508.8,592.8,507.4z M589.6,502.4c-0.9-1.4-1.8-2.3-3.2-2.8
			c-0.9-0.5-1.8-0.5-2.8,0c-0.9,0.5-1.4,1.4-1.4,2.8s0.5,2.3,1.4,3.7L589.6,502.4z"/>
		<path d="M603.8,469.3l7.4,8.7c-0.5-2.8,0.5-4.6,1.8-6c0.9-0.9,1.8-1.4,2.8-1.4c0.9,0,1.8,0,2.8,0s1.8,0.9,2.3,1.4
			c0.9,0.5,1.8,1.8,3.2,3.2l8.7,10.1l-3.2,2.8l-7.8-9.2c-1.4-1.8-2.8-2.8-3.2-3.2c-0.5-0.5-0.9-0.5-1.8-0.5c-0.5,0-1.4,0.5-1.8,0.9
			c-0.5,0.5-0.9,1.4-0.9,1.8c0,0.9,0,1.8,0.5,2.8c0.5,0.9,1.4,2.3,2.3,3.7l7.4,8.7l-3.7,3.2l-20.2-23.9L603.8,469.3z"/>
		<path d="M631.9,470.2c-1.4-1.4-2.8-3.2-3.2-5.1c-0.9-1.8-0.9-3.7-0.9-5.5c0.5-1.8,0.9-3.2,2.3-4.6c1.8-1.8,4.1-2.8,6.9-2.3
			c2.8,0.5,5.5,1.8,7.8,4.1s3.7,5.1,4.1,7.8c0.5,2.8-0.5,5.1-2.3,7.4c-1.4,1.4-2.8,1.8-4.1,2.3c-1.8,0.5-3.7,0.5-5.5-0.5
			C635.6,473.4,633.7,472,631.9,470.2z M635.6,467c1.8,1.4,3.2,2.3,4.6,2.8c1.4,0,2.8,0,3.7-0.9c0.9-0.9,1.4-2.3,0.9-3.7
			s-1.4-2.8-2.8-4.6c-1.4-1.4-3.2-2.3-4.6-2.8c-1.4,0-2.8,0-3.7,0.9c-0.9,0.9-1.4,2.3-0.9,3.7C632.8,464.2,633.7,465.6,635.6,467z"
			/>
		<path d="M642,444l2.8-3.7l2.3,1.8c-0.9-2.8-0.9-5.1,0.5-6.4c0.9-0.9,1.4-1.4,2.8-1.8c0.9-0.5,2.3-0.5,3.2,0
			c-0.5-1.4-0.5-2.8-0.5-3.7c0-0.9,0.5-1.8,0.9-2.8c0.9-0.9,1.8-1.8,2.8-1.8c0.9-0.5,2.3-0.5,3.7,0c0.9,0.5,2.3,1.4,4.1,2.3
			l11.5,8.7l-2.8,3.7l-10.1-7.8c-1.8-1.4-3.2-2.3-3.7-2.3c-0.9,0-1.8,0-2.3,0.9c-0.5,0.5-0.5,1.4-0.5,1.8c0,0.9,0.5,1.4,0.9,2.3
			c0.5,0.9,1.8,1.8,3.7,3.2l8.7,6.9l-2.8,3.7l-9.7-7.8c-1.8-1.4-2.8-2.3-3.7-2.3c-0.5-0.5-0.9-0.5-1.4-0.5s-0.9,0.5-1.4,0.9
			c-0.5,0.5-0.5,1.4-0.5,1.8c0,0.9,0.5,1.4,0.9,2.3c0.5,0.9,1.8,1.8,3.7,3.2l8.7,6.9l-2.8,3.7L642,444z"/>
		<path d="M681.5,414.6l3.2-3.7c1.4,1.8,2.3,3.2,2.8,5.1c0.5,1.8,0,3.2-1.4,5.1c-1.8,2.8-4.1,4.1-6.9,3.7c-2.3,0-5.1-0.9-7.4-2.8
			c-3.2-1.8-5.1-4.1-6.4-6.4c-0.9-2.3-0.9-4.6,0.5-6.9c1.4-2.3,3.7-3.7,6.4-3.7c2.8,0,6,0.9,9.7,3.7l-6.4,10.1
			c1.4,0.9,2.8,1.4,4.1,1.4c1.4,0,2.3-0.5,2.8-1.4c0.5-0.5,0.5-1.4,0.5-1.8C682.9,416.4,682.5,415.5,681.5,414.6z M676.9,411.3
			c-1.4-0.9-2.8-1.4-4.1-1.4c-0.9,0-1.8,0.5-2.3,1.4s-0.5,1.8,0,2.8s1.4,1.8,2.8,2.8L676.9,411.3z"/>
		<path d="M688.9,404.5l1.4-4.6c0.9,0.5,2.3,0.5,2.8,0c0.9-0.5,1.4-0.9,1.8-1.8c0.5-0.9,0.9-1.8,0.5-2.8c0-0.5-0.5-0.9-0.9-1.4
			c-0.5,0-0.9-0.5-1.4,0c-0.5,0-0.9,0.5-1.4,0.9c-2.8,2.8-4.6,4.6-6,5.1c-1.8,0.9-3.7,0.5-5.5-0.5c-1.8-0.9-2.8-2.3-3.7-4.1
			c-0.5-1.8-0.5-3.7,0.9-6c0.9-2.3,2.3-3.7,3.7-4.1c1.4-0.5,3.2-0.5,5.1,0l-0.9,4.6c-0.9-0.5-1.8,0-2.3,0c-0.5,0.5-1.4,0.9-1.8,1.8
			c-0.5,0.9-0.9,1.8-0.5,2.8c0,0.5,0.5,0.9,0.9,0.9c0.5,0,0.9,0,1.4,0c0.5,0,1.8-1.4,3.7-3.2c1.8-1.8,3.2-3.2,4.6-3.7
			c1.4-0.5,2.8,0,4.6,0.9s3.2,2.3,3.7,4.1c0.9,1.8,0.5,4.1-0.9,6.4c-0.9,2.3-2.8,3.7-4.1,4.1C693,404.9,690.7,404.9,688.9,404.5z"/>
		<path d="M713.7,365.4l-23.4-1.4l1.4-4.6l15.2,1.4l-13.3-7.4l1.4-4.6l15.2,1.8l-12.9-7.8l1.4-4.6l19.8,12.4l-1.4,4.6l-14.7-1.4
			l12.9,7.4L713.7,365.4z"/>
		<path d="M707.7,330l-1.8,4.1c-1.8-0.9-3.2-2.3-4.1-3.7c-0.9-1.4-0.9-3.2-0.5-5.5c0.5-2.3,1.4-3.7,1.8-4.6c0.9-0.9,1.8-1.4,2.8-1.4
			c0.9,0,2.8,0,5.5,0.5l6.9,1.8c1.8,0.5,3.2,0.9,4.1,0.9c0.9,0,1.8,0,3.2,0l-0.9,4.6c-0.5,0-0.9,0-1.8,0c-0.5,0-0.5,0-0.9,0
			c0.9,0.9,1.4,1.8,1.4,3.2c0.5,0.9,0.5,1.8,0,3.2c-0.5,1.8-1.4,3.2-2.8,3.7c-1.4,0.9-3.2,0.9-5.1,0.5c-1.4-0.5-2.3-0.9-3.2-1.4
			c-0.9-0.9-1.4-1.4-1.8-2.8c-0.5-0.9-0.5-2.3-0.5-4.1c0-2.3,0-4.1-0.5-5.1h-0.5c-0.9-0.5-1.8,0-2.8,0c-0.5,0.5-0.9,0.9-1.4,2.3
			c0,0.9,0,1.4,0,2.3C706.4,329.1,706.8,329.5,707.7,330z M714.2,324.9c0,0.5,0,1.8,0,3.2c0,1.4,0,2.3,0.5,2.8
			c0.5,0.9,0.9,1.4,1.8,1.4c0.9,0,1.4,0,2.3-0.5c0.9-0.5,0.9-0.9,1.4-1.8c0-0.9,0-1.8-0.5-2.8s-0.9-1.4-1.8-1.4
			c-0.5-0.5-1.4-0.5-2.8-0.9H714.2z"/>
		<path d="M728.4,307.9l-0.9,4.6l-22.5-3.7l0.9-4.6l3.2,0.5c-1.4-0.9-2.3-1.8-2.8-2.3c-0.5-0.5-0.5-1.4-0.5-2.3s0.9-1.8,1.8-2.8
			l5.1,2.3c-0.9,0.9-1.4,1.4-1.4,1.8c0,0.5,0,1.4,0.5,1.8c0.5,0.5,1.4,0.9,2.3,1.4c1.4,0.5,3.7,0.9,7.4,1.4L728.4,307.9z"/>
		<path d="M708.2,291.8l0.5-4.6h3.2c-2.3-1.8-3.2-3.7-3.2-6c0-1.4,0.5-2.3,0.9-2.8c0.5-0.9,1.4-1.4,2.8-1.8
			c-0.9-0.9-1.8-1.8-2.8-2.8c-0.5-0.9-0.9-1.8-0.9-3.2c0-1.4,0.5-2.3,1.4-3.2c0.9-0.9,1.8-1.4,3.2-1.8c0.9-0.5,2.8-0.5,4.6,0
			l14.3,0.9l-0.5,4.6l-12.9-0.9c-2.3,0-3.7,0-4.6,0c-0.9,0.5-1.4,0.9-1.4,1.8c0,0.5,0,1.4,0.5,1.8s1.4,0.9,2.3,1.4
			c0.9,0.5,2.3,0.5,4.6,0.9l11,0.9l-0.5,4.6l-12.4-0.9c-2.3,0-3.7,0-4.1,0c-0.5,0-0.9,0.5-1.4,0.9c-0.5,0.5-0.5,0.9-0.5,1.4
			c0,0.9,0,1.4,0.5,1.8s0.9,0.9,2.3,1.4c0.9,0.5,2.3,0.5,4.6,0.9l11,0.9l-0.5,4.6L708.2,291.8z"/>
		<path d="M724.8,245.4l0.9-4.6c2.3,0.5,4.1,1.4,5.1,2.8c1.4,1.4,1.8,2.8,1.8,5.1c0,3.2-0.9,5.5-3.7,7.4c-1.8,1.4-4.6,1.8-7.8,2.3
			c-3.7,0-6.9-0.5-8.7-1.8c-2.3-1.4-3.2-3.2-3.2-6c0-2.8,0.9-5.1,3.2-6.4c2.3-1.8,5.5-2.3,10.1-2.8l0.5,12c1.8,0,3.2-0.5,4.1-1.4
			c0.9-0.9,1.4-1.8,1.4-2.8s-0.5-1.4-0.9-1.8C726.6,246.3,725.7,245.8,724.8,245.4z M718.3,245.4c-1.8,0-3.2,0.5-4.1,1.4
			c-0.9,0.9-1.4,1.4-1.4,2.8c0,0.9,0.5,1.8,1.4,2.8c0.9,0.5,2.3,0.9,4.1,0.9V245.4z"/>
		<path d="M730.3,226.1l0.5,4.6l-22.5,2.8l-0.5-4.6l3.2-0.5c-1.4-0.5-2.8-0.9-3.2-1.8c-0.5-0.5-0.9-1.4-0.9-1.8c0-0.9,0-2.3,0.9-3.2
			l5.5,0.9c-0.5,0.9-0.9,1.8-0.9,2.3s0.5,1.4,0.9,1.8c0.5,0.5,1.4,0.5,2.8,0.9c1.4,0,3.7,0,7.8-0.5L730.3,226.1z"/>
	</g>
	<path fill="#4CA22F" stroke="#FFFFFF" stroke-width="1.6821" stroke-linecap="round" stroke-linejoin="round" d="M322.9,267.9
		c0,0,30.8,15.2,53.8,61.6c0,0,15.2,33.6,29.9,17c10.6-12,17.5-27.6,17.5-27.6s48.7-105.3,105.3-149c0,0,14.3-10.6,6.9-19.3
		c-6.4-7.8-14.7-6-18.4-5.1c-3.7,0.9-68.5,25.3-122.3,122.3c0,0-33.6-37.7-65.3-21.1C330.3,245.8,310.1,257.8,322.9,267.9z"/>
	<circle cx="214.9" cy="260.6" r="11"/>
	<circle cx="640.2" cy="260.6" r="11"/>
</g>
<g id="FREE_INSULATION">
	<g>
		<path d="M209.8,200.8l7.8,2.3l2.8-11l10.1,2.8l-2.8,11l17.9,5.1l-2.8,9.7l-45.5-12.9l6-21.6l10.1,2.8L209.8,200.8z"/>
		<path d="M266.4,160.8l-5.5,11.5l-20.7,0.5l0,0l16.1,7.8l-4.6,9.2l-42.3-20.7l6.9-13.8c3.2-6.9,10.1-10.1,19.3-6
			c6,2.8,9.7,8.3,8.3,13.8L266.4,160.8z M232.8,169.5l0.5-0.9c1.4-3.2,2.3-6.9-2.3-9.2c-4.6-2.3-6.9,0.9-8.3,3.7l-0.5,0.9
			L232.8,169.5z"/>
		<path d="M246.6,125.8l6.4,4.6l6.9-9.2l8.3,6.4l-6.9,9.2l6.4,5.1l7.4-9.7l8.3,6.4l-13.3,17.9l-37.7-28.5l13.3-17.9l8.3,6.4
			L246.6,125.8z"/>
		<path d="M271.9,96.9l5.5,5.5l8.3-7.8l7.4,7.4l-8.3,8.3l5.5,6l8.7-8.3l7.4,7.4l-16.1,15.6l-32.6-34.5l16.1-15.6l7.4,7.4L271.9,96.9
			z"/>
		<path d="M342.7,91.4l-9.2,5.1L311,55l9.2-5.1L342.7,91.4z"/>
		<path d="M336.7,41.3l9.7-3.2l26.7,21.6l0,0l-8.7-27.6l9.7-3.2l14.7,45.1l-9.7,3.2l-26.7-21.6l0,0l8.7,27.6l-9.7,3.2L336.7,41.3z"
			/>
		<path d="M415.8,36.2c-1.8-1.8-4.6-2.8-6.9-2.3c-1.8,0-4.1,1.8-4.1,4.1c0.5,2.8,3.2,3.7,5.1,4.1l2.8,0.5c5.5,1.4,10.1,4.1,11,12
			c0.5,4.6,0,9.7-2.8,12.9c-2.8,3.2-6.9,5.1-10.6,5.5c-5.1,0.5-10.1-0.9-14.3-4.1l3.2-10.1c2.8,2.3,6,4.1,9.7,4.1
			c2.3,0,4.6-1.8,4.6-5.1c-0.5-3.2-4.6-4.1-6.9-4.6c-6.9-1.8-11.5-3.7-12.4-12.9c-0.9-9.7,4.1-16.1,12-17c4.1-0.5,8.7,0.5,12.4,2.8
			L415.8,36.2z"/>
		<path d="M471.4,27l-2.8,26.2c-0.5,6-1.4,12-6,16.1c-3.7,3.7-9.2,4.1-13.3,3.7c-4.6-0.5-9.7-2.3-12.4-6.4c-3.2-5.1-2.8-11-2.3-17
			l2.8-26.2l10.1,0.9l-2.8,24.8c-0.5,6-0.9,12.9,5.5,13.3c6.4,0.9,7.8-6,8.3-12l2.8-24.8L471.4,27z"/>
		<path d="M488.4,69.8l11.5,3.7l-3.2,10.1l-21.6-6.9l13.8-45.1l9.7,3.2L488.4,69.8z"/>
		<path d="M516,83.1l-6.4,6l-9.7-5.1l35.9-34.5l9.7,5.5l-9.2,48.7l-9.7-5.1l1.8-8.3L516,83.1z M534,64.7L534,64.7l-11,11l7.4,4.1
			L534,64.7z"/>
		<path d="M551,115.7l-7.8-6.4l23-29l-6.4-5.1l6.4-8.3l21.1,17l-6.4,8.3l-6.4-5.1L551,115.7z"/>
		<path d="M569.8,134.1l-6.9-7.4l34.5-32.2l6.9,7.4L569.8,134.1z"/>
		<path d="M620.4,163.1c-12.9,8.3-26.7,6.4-33.6-4.1c-6.9-10.6-2.8-23.9,10.1-32.2c12-7.8,26.2-4.6,32.2,5.1
			C635.1,141,632.3,155.3,620.4,163.1z M602.5,135.5c-6.9,4.6-9.2,12-6,17c3.2,5.1,11,6,17.9,1.8c5.5-3.7,7.8-11,4.6-16.1
			C615.8,133.2,608,131.8,602.5,135.5z"/>
		<path d="M647.1,167.7l3.2,9.7L628.7,204l0,0l27.6-9.2l3.2,9.7l-45.1,14.7l-3.2-9.7l21.6-26.7l0,0l-27.6,9.2l-3.2-9.7L647.1,167.7z
			"/>
	</g>
	<g>
		<path d="M235.6,314.3l-7.8,2.3l3.2,10.6l-10.1,2.8l-3.2-10.6l-17.9,5.1l-2.8-9.7l45.5-12.9l6,21.6l-10.1,2.8L235.6,314.3z"/>
		<path d="M224.6,381.9l-5.5-11.5l12-16.6l0,0l-16.1,8.3l-4.6-9.2l42.3-21.1l6.9,13.8c3.7,6.9,2.3,14.3-6.9,18.8
			c-6,2.8-12.4,2.8-15.6-1.8L224.6,381.9z M237.9,350.2l0.5,0.9c1.4,3.2,3.7,6,8.3,3.7s3.7-6,2.3-9.2l-0.5-0.9L237.9,350.2z"/>
		<path d="M268.2,380.1l-6.4,4.6l6.9,9.2l-8.3,6.4l-6.9-9.2l-6.4,5.1l7.4,9.7l-8.3,6.4l-13.3-17.9l37.7-28.5l13.3,17.9l-8.3,6.4
			L268.2,380.1z"/>
		<path d="M290.8,405.8l-5.5,5.5l8.7,7.8l-7.4,7.4l-8.3-7.8l-5.5,6l8.7,8.3l-7.4,7.4l-16.1-15.2l32.2-34.5l16.1,15.2l-6.9,7.4
			L290.8,405.8z"/>
		<path d="M320.6,471.6l-9.2-5.1l22.5-41.4l9.2,5.1L320.6,471.6z"/>
		<path d="M351.9,435.3l9.7,3.2l9.2,33.1l0,0l8.7-27.6l9.7,3.2l-14.3,45.1l-9.7-3.2l-9.2-33.1l0,0l-8.7,27.6l-9.7-3.2L351.9,435.3z"
			/>
		<path d="M419,462.4c-1.8-1.8-4.1-3.7-6.4-3.7c-1.8,0-4.6,0.9-4.6,3.7c-0.5,2.8,2.3,4.1,4.1,5.1l2.3,1.4c5.1,2.3,9.2,6,8.7,13.8
			c-0.5,4.6-1.8,9.2-5.1,12.4c-3.2,2.8-7.4,3.7-11.5,3.2c-5.1-0.5-9.7-2.8-13.3-6.4l5.1-9.7c2.3,2.8,5.1,5.5,8.7,5.5
			c2.3,0,5.1-0.9,5.5-4.1s-3.7-5.1-5.5-6c-6-2.8-10.1-5.1-9.2-14.3c0.9-9.7,6.9-15.2,14.7-14.7c4.1,0.5,8.7,2.3,12,5.1L419,462.4z"
			/>
		<path d="M467.3,446.7l3.2,26.2c0.5,6,1.4,12-2.3,17c-2.8,4.1-7.8,6-12.4,6.9c-4.6,0.5-9.7-0.5-13.3-3.7c-4.6-4.1-5.5-10.1-6-16.1
			l-3.2-26.2l10.1-1.4l2.8,24.8c0.9,6,1.8,12.9,8.3,12c6.4-0.9,6-7.4,5.5-13.3l-2.8-24.8L467.3,446.7z"/>
		<path d="M497.2,476.2l11.5-3.7l3.2,10.1l-21.6,6.9L476,444.4l9.7-3.2L497.2,476.2z"/>
		<path d="M531.7,464.7l1.4,8.3l-9.7,5.1l-9.2-48.7l9.7-5.5l35.4,34.5l-9.7,5.1l-6-6L531.7,464.7z M526.1,439.9L526.1,439.9
			l3.2,15.2l7.4-4.1L526.1,439.9z"/>
		<path d="M581.3,441.7l-7.8,6.4l-23-28.5l-6.4,5.5l-6.4-8.3l21.1-17l6.4,8.3l-6.4,5.5L581.3,441.7z"/>
		<path d="M605.2,418.2l-6.9,7.4l-34.5-32.2l6.9-7.4L605.2,418.2z"/>
		<path d="M619,356.2c12.9,8.3,17,21.6,10.1,32.2c-6.9,10.6-20.7,12.4-33.6,4.1c-12-7.8-14.7-22.1-8.7-31.3
			C593.3,352,607.1,348.4,619,356.2z M601.5,384.2c6.9,4.6,14.7,3.2,17.9-1.8c3.2-5.1,0.9-12.4-6-17c-5.5-3.7-13.3-2.3-16.6,2.8
			C593.7,373.2,596,380.5,601.5,384.2z"/>
		<path d="M602.5,337.8l3.2-9.7l33.1-8.7l0,0l-27.6-8.7l3.2-9.7l45.1,14.7l-3.2,9.7l-33.1,8.7l0,0l27.6,8.7l-3.2,9.7L602.5,337.8z"
			/>
	</g>
</g>
</svg>
