<?xml version="1.0" encoding="utf-8"?>
<!-- Generator: Adobe Illustrator 18.1.0, SVG Export Plug-In . SVG Version: 6.00 Build 0)  -->
<!DOCTYPE svg PUBLIC "-//W3C//DTD SVG 1.1//EN" "http://www.w3.org/Graphics/SVG/1.1/DTD/svg11.dtd">
<svg version="1.1" id="Layer_2" xmlns="http://www.w3.org/2000/svg" xmlns:xlink="http://www.w3.org/1999/xlink" x="0px" y="0px"
	 viewBox="0 390.2 320 214.8" enable-background="new 0 390.2 320 214.8" xml:space="preserve">
<g>
	<path fill="none" stroke="#FFFFFF" stroke-width="2" stroke-linecap="round" stroke-linejoin="round" stroke-miterlimit="10" d="
		M51.3,571.4c-43.8-34.7,13-106.3,13-106.3l2.7,16c27-29,11.8-66.3,11.8-66.3c66.3,29.7,67.8,81.5,67.8,81.5
		c9.1-12.2,8.8-23.6,8.8-23.6c32.8,53.7,14.5,83.4-6.1,98.7"/>
	<path fill="#FFFFFF" d="M208.3,441.5c-3.4,0-6.9-2.3-8-5.7c-1.5-4.6,0.8-9.1,5-10.7l37.3-13.7c4.6-1.5,9.1,0.8,10.7,5
		c1.5,4.6-0.8,9.1-5,10.7L211,440.8C210.2,441.5,209,441.5,208.3,441.5z"/>
	<path fill="#FFFFFF" d="M201.8,469.3c-3.4,0-6.9-2.3-8-5.7c-1.5-4.6,0.8-9.1,5-10.7l75-27c4.6-1.5,9.1,0.8,10.7,5
		c1.5,4.6-0.8,9.1-5,10.7l-75,27C203.7,469.3,202.6,469.3,201.8,469.3z"/>
	<path fill="#FFFFFF" d="M224.3,506.2c-3.8,0-7.2-2.7-8.4-6.5c-0.4-1.5-7.2-4.6-14.9-5c-3.8-0.4-7.2-3.4-7.6-7.2s1.9-7.6,5.3-9.1
		l75-27c4.6-1.5,9.1,0.8,10.7,5c1.5,4.6-0.8,9.1-5,10.7l-53,19c2.7,2.3,5,5.3,6.1,9.5c1.1,4.6-1.5,9.1-6.1,10.3
		C225.4,506.2,225,506.2,224.3,506.2z"/>
	<path fill="#FFFFFF" d="M254,506.2c-0.8,0-1.5,0-1.9-0.4c-4.6-1.1-7.2-5.7-6.1-10.3c3.8-15.2,25.9-17.5,30.1-17.9
		c4.6-0.4,8.8,3,9.1,8c0.4,4.6-3,8.8-8,9.1c-7.6,0.4-14.5,3.4-14.9,5C261.2,503.5,257.8,506.2,254,506.2z"/>
	
		<path fill="none" stroke="#FFFFFF" stroke-width="1.9197" stroke-linecap="round" stroke-linejoin="round" stroke-miterlimit="10" d="
		M273.8,515.7H257h-14.9h-2.3h-14.9h-16.8c-3,0-5.7,1.9-5.7,5V539c0,1.5,1.1,3,2.3,3.8l16,15.2v14.5c0,3,1.1,5,4.2,5h32
		c3,0,4.2-1.9,4.2-5V558l16-15.2c1.1-1.1,2.3-2.3,2.3-3.8v-18.3C279.1,518,276.8,515.7,273.8,515.7z"/>
	<path fill="#FFFFFF" d="M119.5,578.2c40-33.1-10.7-100.2-10.7-100.2s-4.6,53.3-19.4,23.2c-42.7,57.1-4.2,77-4.2,77
		S103.1,591.9,119.5,578.2z"/>
</g>
</svg>
