<?xml version="1.0" encoding="utf-8"?>
<!-- Generator: Adobe Illustrator 18.0.0, SVG Export Plug-In . SVG Version: 6.00 Build 0)  -->
<!DOCTYPE svg PUBLIC "-//W3C//DTD SVG 1.1//EN" "http://www.w3.org/Graphics/SVG/1.1/DTD/svg11.dtd">
<svg version="1.1" id="Layer_2" xmlns="http://www.w3.org/2000/svg" xmlns:xlink="http://www.w3.org/1999/xlink" x="0px" y="0px"
	 viewBox="124 319.9 84 70" enable-background="new 124 319.9 84 70" xml:space="preserve">
<path fill="none" stroke="#0A306A" stroke-width="2" stroke-linecap="round" stroke-linejoin="round" stroke-miterlimit="10" d="
	M136.5,371.4c-11.5-9.1,3.4-27.9,3.4-27.9l0.7,4.2c7.1-7.6,3.1-17.4,3.1-17.4c17.4,7.8,17.8,21.4,17.8,21.4c2.4-3.2,2.3-6.2,2.3-6.2
	c8.6,14.1,3.8,21.9-1.6,25.9"/>
<path fill="#0A306A" d="M177.7,337.3c-0.9,0-1.8-0.6-2.1-1.5c-0.4-1.2,0.2-2.4,1.3-2.8l9.8-3.6c1.2-0.4,2.4,0.2,2.8,1.3
	c0.4,1.2-0.2,2.4-1.3,2.8l-9.8,3.6C178.2,337.3,177.9,337.3,177.7,337.3z"/>
<path fill="#0A306A" d="M176,344.6c-0.9,0-1.8-0.6-2.1-1.5c-0.4-1.2,0.2-2.4,1.3-2.8l19.7-7.1c1.2-0.4,2.4,0.2,2.8,1.3
	c0.4,1.2-0.2,2.4-1.3,2.8l-19.7,7.1C176.5,344.6,176.2,344.6,176,344.6z"/>
<path fill="#0A306A" d="M181.9,354.3c-1,0-1.9-0.7-2.2-1.7c-0.1-0.4-1.9-1.2-3.9-1.3c-1-0.1-1.9-0.9-2-1.9c-0.1-1,0.5-2,1.4-2.4
	l19.7-7.1c1.2-0.4,2.4,0.2,2.8,1.3c0.4,1.2-0.2,2.4-1.3,2.8l-13.9,5c0.7,0.6,1.3,1.4,1.6,2.5c0.3,1.2-0.4,2.4-1.6,2.7
	C182.2,354.3,182.1,354.3,181.9,354.3z"/>
<path fill="#0A306A" d="M189.7,354.3c-0.2,0-0.4,0-0.5-0.1c-1.2-0.3-1.9-1.5-1.6-2.7c1-4,6.8-4.6,7.9-4.7c1.2-0.1,2.3,0.8,2.4,2.1
	c0.1,1.2-0.8,2.3-2.1,2.4c-2,0.1-3.8,0.9-3.9,1.3C191.6,353.6,190.7,354.3,189.7,354.3z"/>
<path fill="none" stroke="#0A306A" stroke-width="1.9197" stroke-linecap="round" stroke-linejoin="round" stroke-miterlimit="10" d="
	M194.9,356.8h-4.4h-3.9H186h-3.9h-4.4c-0.8,0-1.5,0.5-1.5,1.3v4.8c0,0.4,0.3,0.8,0.6,1l4.2,4v3.8c0,0.8,0.3,1.3,1.1,1.3h8.4
	c0.8,0,1.1-0.5,1.1-1.3v-3.8l4.2-4c0.3-0.3,0.6-0.6,0.6-1v-4.8C196.3,357.4,195.7,356.8,194.9,356.8z"/>
<path fill="#0A306A" d="M154.4,373.2c10.5-8.7-2.8-26.3-2.8-26.3s-1.2,14-5.1,6.1c-11.2,15-1.1,20.2-1.1,20.2
	S150.1,376.8,154.4,373.2z"/>
</svg>
