<?xml version="1.0" encoding="utf-8"?>
<!-- Generator: Adobe Illustrator 18.1.0, SVG Export Plug-In . SVG Version: 6.00 Build 0)  -->
<!DOCTYPE svg PUBLIC "-//W3C//DTD SVG 1.1//EN" "http://www.w3.org/Graphics/SVG/1.1/DTD/svg11.dtd">
<svg version="1.1" id="Layer_2" xmlns="http://www.w3.org/2000/svg" xmlns:xlink="http://www.w3.org/1999/xlink" x="0px" y="0px"
	 viewBox="0 0 320 1024" enable-background="new 0 0 320 1024" xml:space="preserve">
<path fill="none" stroke="#FFFFFF" stroke-width="2" stroke-linecap="round" stroke-linejoin="round" stroke-miterlimit="10" d="
	M46.3,550.7c-43.8-34.7,13-106.3,13-106.3l2.7,16c27-29,11.8-66.3,11.8-66.3c66.3,29.7,67.8,81.5,67.8,81.5
	c9.1-12.2,8.8-23.6,8.8-23.6c32.8,53.7,14.5,83.4-6.1,98.7"/>
<path fill="#FFFFFF" d="M203.3,420.8c-3.4,0-6.9-2.3-8-5.7c-1.5-4.6,0.8-9.1,5-10.7l37.3-13.7c4.6-1.5,9.1,0.8,10.7,5
	c1.5,4.6-0.8,9.1-5,10.7L206,420.1C205.2,420.8,204,420.8,203.3,420.8z"/>
<path fill="#FFFFFF" d="M196.8,448.6c-3.4,0-6.9-2.3-8-5.7c-1.5-4.6,0.8-9.1,5-10.7l75-27c4.6-1.5,9.1,0.8,10.7,5
	c1.5,4.6-0.8,9.1-5,10.7l-75,27C198.7,448.6,197.6,448.6,196.8,448.6z"/>
<path fill="#FFFFFF" d="M219.3,485.5c-3.8,0-7.2-2.7-8.4-6.5c-0.4-1.5-7.2-4.6-14.9-5c-3.8-0.4-7.2-3.4-7.6-7.2s1.9-7.6,5.3-9.1
	l75-27c4.6-1.5,9.1,0.8,10.7,5c1.5,4.6-0.8,9.1-5,10.7l-53,19c2.7,2.3,5,5.3,6.1,9.5c1.1,4.6-1.5,9.1-6.1,10.3
	C220.4,485.5,220,485.5,219.3,485.5z"/>
<path fill="#FFFFFF" d="M249,485.5c-0.8,0-1.5,0-1.9-0.4c-4.6-1.1-7.2-5.7-6.1-10.3c3.8-15.2,25.9-17.5,30.1-17.9
	c4.6-0.4,8.8,3,9.1,8c0.4,4.6-3,8.8-8,9.1c-7.6,0.4-14.5,3.4-14.9,5C256.2,482.8,252.8,485.5,249,485.5z"/>
<path fill="none" stroke="#FFFFFF" stroke-width="1.9197" stroke-linecap="round" stroke-linejoin="round" stroke-miterlimit="10" d="
	M268.8,495H252h-14.9h-2.3h-14.9h-16.8c-3,0-5.7,1.9-5.7,5v18.3c0,1.5,1.1,3,2.3,3.8l16,15.2v14.5c0,3,1.1,5,4.2,5h32
	c3,0,4.2-1.9,4.2-5v-14.5l16-15.2c1.1-1.1,2.3-2.3,2.3-3.8V500C274.1,497.3,271.8,495,268.8,495z"/>
<path fill="#FFFFFF" d="M114.5,557.5c40-33.1-10.7-100.2-10.7-100.2s-4.6,53.3-19.4,23.2c-42.7,57.1-4.2,77-4.2,77
	S98.1,571.2,114.5,557.5z"/>
</svg>
