<?xml version="1.0" encoding="utf-8"?>
<!-- Generator: Adobe Illustrator 18.0.0, SVG Export Plug-In . SVG Version: 6.00 Build 0)  -->
<!DOCTYPE svg PUBLIC "-//W3C//DTD SVG 1.1//EN" "http://www.w3.org/Graphics/SVG/1.1/DTD/svg11.dtd">
<svg version="1.1" id="Layer_1" xmlns="http://www.w3.org/2000/svg" xmlns:xlink="http://www.w3.org/1999/xlink" x="0px" y="0px"
	 width="1618.7px" height="800px" viewBox="-169.4 0 1618.7 800" enable-background="new -169.4 0 1618.7 800" xml:space="preserve"
	>
<rect x="-169.8" fill="#267238" width="1620.8" height="801.4"/>
<g opacity="0.25">
	<path fill="#19552A" d="M405,553.7c-3.4-1.3-5.6-3.4-6.2-6.7c-0.6-0.6-1.5-5.8-2.4-15.7c-0.9-9.9-0.2-23.9,1.9-41.9
		c1.5-16.6,6.5-37.4,14.6-62.6s21.5-53.5,40.2-85.1c19.4-32.5,41.3-56.8,65.8-72.9c23.4-15.5,47.9-23.2,73.3-22.8
		c27.3,0.9,53.3,10.8,77.8,29c24.5,18.5,46.2,44.3,64.5,77.6c1.3,2.2,1.5,4.5,0.6,6.9c-0.9,2.4-2.4,4.3-4.5,5.4
		c-2.2,1.3-4.5,1.5-6.9,0.9c-2.4-0.6-4.3-2.2-6-4.3c-16.6-30.5-35.7-54.2-57.6-70.7c-21.9-16.8-44.7-25.6-68.6-26.4
		c-21.5-0.2-42.6,6.5-63,20c-21.9,14.6-41.9,36.8-60,66.7c-24.5,42.6-40,78.9-46.4,109.2c-6.5,30.1-9,52.5-7.3,66.7
		c15.3-11.2,32.3-19.6,51-25.2c19.1-6,39.3-9,61.1-9c18.1,0.2,32.9,1.7,44.5,4.1c11.6,2.4,18.3,4.1,19.8,4.9
		c61.9,18.5,109.7,18.5,143,0.4c13.1-8,23-17.4,29.9-28.2s11.4-21.1,13.5-30.5l1.5-6.2c0.6-3.9,0.9-8.8,0.9-15.3
		c-0.6-16.8-5.8-33.1-15.3-49c-1.3-2.2-1.7-4.5-1.3-6.9c0.4-2.4,1.7-4.3,4.1-5.8c2.2-1.5,4.5-1.7,7.1-1.3c2.6,0.6,4.5,2.2,5.8,4.3
		c12.5,22.1,18.5,41.3,18.1,57.2c-0.2,15.9-1.5,25.2-3.4,28.2c-2.6,11.2-8,23-15.9,35.9c-8,12.9-20,24.1-35.9,33.5
		c-19.4,10.5-42.4,15.7-69,15.7c-26,0-55.7-4.9-88.6-14.8c-0.2-0.2-6-1.7-17-4.1c-11-2.4-24.9-3.7-42.1-4.1
		c-19.8,0-38.1,2.8-55.3,8.2c-21.5,7.1-40.6,17.8-57.2,32.5c-1.9,1.5-3.9,2.4-6.2,2.4C407,554.1,405.9,554.1,405,553.7z M461.1,466
		c-1.5-1.5-1.7-3.4-0.4-5.2c20-22.6,44.5-41.7,73.3-57.6c32.5-17.4,69.2-30.5,110.5-39.1c28.4-5.8,54.8-7.5,79.6-5.8
		c2.2,0.2,3.2,1.7,3,4.1s-1.5,3.7-4.1,3.7c-23.9-1.5-49.5,0.2-77.2,5.8c-40.6,8.2-76.8,21.1-108.2,38.7
		c-28.4,15.3-52,33.8-71.4,55.7c-0.6,0.6-1.5,0.9-2.8,0.9C462.6,467,461.8,466.6,461.1,466z M865.8,479.9c0.2-0.6-1.5-6-5.8-16.3
		c-4.1-10.3-11.2-22.4-21.5-35.9c-12.5-15.5-26.7-28.2-42.8-38.1c-20.6-12.5-44.1-20-70.1-22.8c-2.8-0.2-4.9-1.5-6.5-3.4
		c-1.5-1.9-2.2-4.3-1.9-6.9c0.2-2.8,1.3-4.9,3-6.5c1.9-1.5,4.3-2.2,7.1-1.9c29.2,3.2,55.3,11.8,78.1,25.8
		c18.5,11.2,34.4,25.4,47.7,42.8c11.4,15.3,19.4,28.6,23.9,40s6.7,17.6,6.7,18.5c0.6,2.8,0.2,5.4-0.9,7.3c-1.3,2.2-3.2,3.4-5.8,4.1
		l-2.4,0.4C870.5,486.6,867.3,484.2,865.8,479.9z"/>
</g>
</svg>
