<?xml version="1.0" encoding="utf-8"?>
<!-- Generator: Adobe Illustrator 18.0.0, SVG Export Plug-In . SVG Version: 6.00 Build 0)  -->
<!DOCTYPE svg PUBLIC "-//W3C//DTD SVG 1.1//EN" "http://www.w3.org/Graphics/SVG/1.1/DTD/svg11.dtd">
<svg version="1.1" id="Layer_1" xmlns="http://www.w3.org/2000/svg" xmlns:xlink="http://www.w3.org/1999/xlink" x="0px" y="0px"
	 width="1618.7px" height="800px" viewBox="-169.4 0 1618.7 800" enable-background="new -169.4 0 1618.7 800" xml:space="preserve"
	>
<rect x="-169.8" fill="#EC6E05" width="1620.8" height="801.4"/>
<path opacity="0.27" fill="#B55621" enable-background="new    " d="M535.3,246.4c-0.3-0.6-0.3-1.4-0.3-1.9
	C535,244.8,535.3,245.6,535.3,246.4 M535,242c0,0.6,0,1.1,0,1.9C534.7,243.1,534.7,242.5,535,242 M535.3,240c0,0.3-0.3,0.8-0.3,1.4
	C535,240.9,535,240.3,535.3,240 M535.6,237.8c-0.3,0.3-0.3,0.8-0.3,1.1C535.3,238.6,535.3,238.4,535.6,237.8 M536.7,234.2
	c-0.3,0.3-0.3,0.6-0.6,1.1C536.4,235,536.7,234.5,536.7,234.2 M537.5,232.8c-0.3,0.3-0.3,0.6-0.6,0.8
	C537.3,233.3,537.5,233.1,537.5,232.8 M536.1,235.6c-0.3,0.6-0.3,1.1-0.6,1.7C535.6,236.7,535.9,236.1,536.1,235.6 M539.8,231.1
	c-0.3,0.3-0.6,0.3-1.1,0.6C539.2,231.4,539.5,231.4,539.8,231.1 M538.6,232c-0.3,0.3-0.3,0.3-0.6,0.6
	C538.1,232.2,538.4,232.2,538.6,232 M540.9,231.1c-0.3,0-0.6,0-0.8,0.3C540.3,231.4,540.3,231.1,540.9,231.1L540.9,231.1 M542,231.4
	c-0.3-0.3-0.3-0.3-0.6-0.3C541.7,231.1,542,231.4,542,231.4 M543.4,232.2c-0.3-0.3-0.6-0.3-0.8-0.6
	C542.8,231.7,543.1,232,543.4,232.2 M544.8,233.6c-0.3-0.6-0.6-1.1-1.1-1.4C544.2,232.8,544.5,233.3,544.8,233.6 M550.6,240.9
	c-0.8-1.1-1.9-1.9-2.8-3.1C548.9,238.9,549.8,240,550.6,240.9 M558.1,248.1c-1.1-0.6-1.9-1.7-2.8-2.2
	C556.2,246.4,557.3,247.3,558.1,248.1 M562.3,251.4c-1.1-0.6-1.9-1.4-2.8-1.9C560.6,250,561.5,250.6,562.3,251.4 M567,254.5
	c-1.1-0.6-1.9-1.1-2.8-1.9C565.1,253.4,566.2,253.9,567,254.5 M572.3,257.3c-1.1-0.6-1.9-1.1-2.8-1.7
	C570.4,256.4,571.2,257,572.3,257.3 M577.6,260.3c-1.1-0.3-1.9-0.8-2.8-1.1C575.6,259.2,576.8,259.8,577.6,260.3 M583.4,262.8
	c-1.1-0.3-1.9-0.6-2.8-1.1C581.5,262,582.6,262.3,583.4,262.8 M589.6,265.1c-1.1-0.3-1.9-0.6-2.8-1.1
	C587.6,264.5,588.4,264.5,589.6,265.1 M596.2,267c-1.1-0.3-1.9-0.6-3.1-0.8C594.3,266.5,595.4,266.7,596.2,267 M603.5,268.7
	c-1.1-0.3-1.9-0.3-3.1-0.6C601.2,268.4,602.4,268.4,603.5,268.7 M610.7,270.1c-1.1-0.3-1.9-0.3-3.1-0.6
	C608.8,269.8,609.9,270.1,610.7,270.1 M618.5,271.2c-1.1-0.3-2.2-0.3-3.6-0.3C616.3,271.2,617.7,271.2,618.5,271.2 M626.8,272
	c-1.1-0.3-2.5-0.3-3.6-0.3C624.3,272,625.7,272,626.8,272 M635.5,272.3c-1.1,0-2.8,0-3.9-0.3C632.7,272.3,634.4,272.3,635.5,272.3
	 M554.2,244.5c-0.8-0.8-1.9-1.7-2.8-2.8C552.3,242.8,553.1,243.6,554.2,244.5 M731.2,239.2c0.3-0.3,0.8-0.8,1.1-1.1
	C732,238.4,731.5,238.9,731.2,239.2 M736.5,232.5c-0.3,0.3-0.6,0.8-1.1,1.4C735.6,233.3,736.2,232.8,736.5,232.5 M737.9,231.4
	c-0.3,0.3-0.6,0.3-0.8,0.6C737,232,737.6,231.7,737.9,231.4 M739,231.1c-0.3,0-0.6,0.3-0.6,0.3C738.4,231.4,738.4,231.1,739,231.1
	 M741.2,231.7c-0.3-0.3-0.6-0.3-1.1-0.6C740.9,231.4,740.9,231.4,741.2,231.7 M740.1,231.1c-0.3-0.3-0.6-0.3-0.8-0.3h0.3
	C739.8,231.1,739.8,231.1,740.1,231.1 M742.3,232.5c-0.3-0.3-0.3-0.3-0.6-0.6C741.7,232.2,742,232.2,742.3,232.5 M743.4,234.2
	c0.3,0.3,0.3,0.8,0.6,1.1C743.7,235,743.7,234.5,743.4,234.2 M742.6,232.8c0.3,0.3,0.3,0.6,0.6,0.8
	C743.1,233.3,742.6,233.1,742.6,232.8 M744.8,239.2c0-0.3-0.3-0.8-0.3-1.1C744.8,238.4,744.8,238.6,744.8,239.2 M745.1,241.1
	c0-0.3,0-1.1-0.3-1.4C745.1,240.3,745.1,240.9,745.1,241.1 M744.5,237.2c-0.3-0.6-0.3-1.1-0.6-1.7
	C744.3,236.1,744.5,236.7,744.5,237.2 M744.8,246.4c0.3-0.6,0.3-1.4,0.3-2.2C745.1,244.8,744.8,245.6,744.8,246.4 M745.1,243.9
	c0-0.6,0-1.1,0-1.9C745.4,242.5,745.4,243.1,745.1,243.9 M743.7,251.2c0.3-0.6,0.3-1.1,0.6-1.7C744,250,744,250.6,743.7,251.2
	 M744.5,248.6c0.3-0.6,0.3-1.1,0.3-1.7C744.8,247.5,744.5,248.1,744.5,248.6 M736.2,262.3c0.3-0.3,0.6-0.6,0.8-1.1
	C736.7,261.7,736.5,262,736.2,262.3 M739.5,258.1c1.1-1.4,1.9-2.8,2.8-4.5c0.3-0.6,0.6-1.4,1.1-1.9c-0.3,0.6-0.6,1.4-1.1,1.9
	C741.7,255.3,740.6,256.7,739.5,258.1 M732.3,266.2c0.3-0.3,0.6-0.6,0.8-0.8C732.8,265.6,732.6,266.2,732.3,266.2 M653.8,295.1
	c-1.7,0.3-3.1,0.3-4.7,0.3C650.5,295.4,652.2,295.1,653.8,295.1 M662.2,294.3c-1.4,0.3-2.8,0.3-4.5,0.6
	C659.4,294.6,660.8,294.6,662.2,294.3 M670.5,292.9c-1.4,0.3-2.8,0.3-4.2,0.6C667.7,293.7,669.1,293.2,670.5,292.9 M678.6,291.5
	c-1.1,0.3-2.5,0.6-3.6,0.8C675.8,292,676.9,291.8,678.6,291.5 M685.8,289.8c-1.1,0.3-1.9,0.6-3.3,0.8
	C683.6,290.4,684.7,289.8,685.8,289.8 M693.1,287.6c-1.1,0.3-1.9,0.6-2.8,0.8C691.1,288.2,691.9,287.9,693.1,287.6 M700,285.1
	c-0.8,0.3-1.7,0.6-2.5,0.8C698.3,285.9,698.9,285.4,700,285.1 M706.4,282.6c-0.6,0.3-1.1,0.6-1.9,0.8
	C705.3,283.1,705.9,282.9,706.4,282.6 M712.5,279.5c-0.6,0.3-1.1,0.6-1.7,0.8C711.7,280.1,712.3,279.8,712.5,279.5 M718.4,276.5
	c-0.3,0.3-0.8,0.6-1.1,0.6C717.3,277,717.8,276.7,718.4,276.5 M723.4,273.1c-0.3,0.3-0.6,0.3-1.1,0.6
	C722.8,273.4,723.4,273.1,723.4,273.1 M728.7,269.2c-0.3,0.3-0.6,0.6-1.1,0.8C728.1,269.8,728.4,269.5,728.7,269.2 M722.8,247.3
	c0.6-0.6,1.1-1.1,1.9-1.7C724.2,246.4,723.7,246.7,722.8,247.3 M718.4,250.9c0.6-0.6,1.4-1.1,1.9-1.7
	C719.8,249.8,719.2,250.3,718.4,250.9 M713.6,254.2c0.8-0.6,1.7-1.1,2.5-1.7C715,253.4,714.2,253.7,713.6,254.2 M708.4,257.3
	c0.8-0.3,1.7-0.8,2.8-1.4C710,256.4,709.2,256.7,708.4,257.3 M702.8,260.1c0.8-0.3,1.9-0.8,2.8-1.1
	C704.5,259.2,703.9,259.8,702.8,260.1 M696.7,262.8c0.8-0.3,1.9-0.6,2.8-1.1C698.6,262,697.8,262.3,696.7,262.8 M690.6,265.1
	c1.1-0.3,1.9-0.6,2.8-1.1C692.5,264.5,691.7,264.5,690.6,265.1 M683.9,267c1.1-0.3,1.9-0.6,3.1-0.8
	C685.8,266.5,684.7,266.7,683.9,267 M676.9,269c1.1-0.3,1.9-0.3,3.1-0.6C678.9,268.4,677.8,268.4,676.9,269 M669.4,270.1
	c1.1-0.3,2.2-0.3,3.3-0.6C671.4,269.8,670.5,270.1,669.4,270.1 M661.3,271.2c1.1-0.3,2.5-0.3,3.6-0.3
	C663.8,271.2,662.7,271.2,661.3,271.2 M653.3,272c1.1-0.3,2.8-0.3,3.6-0.3C655.8,272,654.7,272,653.3,272 M644.6,272.3
	c1.1,0,2.8,0,3.9-0.3C647.4,272.3,646,272.3,644.6,272.3 M727.3,243.4c0.6-0.6,1.1-1.1,1.7-1.7C728.4,242.5,727.6,243.1,727.3,243.4
	 M626.6,295.1c1.7,0.3,3.1,0.3,4.7,0.3C629.6,295.4,628,295.1,626.6,295.1 M617.9,294.3c1.4,0.3,3.1,0.3,4.5,0.6
	C621,294.6,619.3,294.6,617.9,294.3 M609.9,292.9c1.4,0.3,2.8,0.6,4.2,0.6C612.4,293.7,611,293.2,609.9,292.9 M601.8,291.5
	c1.1,0.3,2.8,0.6,3.9,0.8C604.3,292,603.2,291.8,601.8,291.5 M594.3,289.8c1.1,0.3,1.9,0.6,3.3,0.8
	C596.5,290.4,595.4,289.8,594.3,289.8 M587.1,287.6c1.1,0.3,1.9,0.6,2.8,0.8C589,288.2,588.2,287.9,587.1,287.6 M580.1,285.1
	c0.8,0.3,1.7,0.6,2.2,0.8C581.8,285.9,581.2,285.4,580.1,285.1 M574,282.6c0.6,0.3,1.1,0.6,1.9,0.8
	C575.1,283.1,574.5,282.9,574,282.6 M567.9,279.5c0.3,0.3,0.8,0.3,1.1,0.6C568.7,280.4,568.4,280.1,567.9,279.5 M562.3,276.7
	c0.3,0.3,0.6,0.3,0.8,0.6C562.8,277,562.3,276.7,562.3,276.7 M557,273.1c0.3,0.3,0.3,0.3,0.6,0.3C557.3,273.4,557,273.4,557,273.1
	 M552.3,269.8c0.3,0.3,0.3,0.3,0.3,0.3C552.3,270.1,552.3,269.8,552.3,269.8 M640.2,295.4L640.2,295.4L640.2,295.4
	c-1.9,0-3.3-0.3-4.7-0.3C636.9,295.4,638.5,295.4,640.2,295.4c1.4,0,3.1,0,4.5-0.3C643.3,295.4,641.9,295.4,640.2,295.4
	 M547.5,266.2C547.8,266.2,547.8,266.2,547.5,266.2C547.8,266.2,547.8,266.2,547.5,266.2 M543.9,262L543.9,262
	C543.9,262.3,543.9,262,543.9,262 M535.9,249.5c0.3,0.6,0.3,1.1,0.6,1.7C536.4,250.6,536.1,250,535.9,249.5 M535.3,247.3
	c0.3,0.6,0.3,1.1,0.3,1.7C535.6,248.1,535.6,247.5,535.3,247.3 M536.7,251.7c0.3,0.6,0.6,1.4,1.1,1.9c0.8,1.4,1.7,2.8,2.8,4.5
	c-1.1-1.4-1.9-2.8-2.8-4.5C537.5,253.1,537.3,252.5,536.7,251.7 M639.6,298.4L639.6,298.4h0.6h0.3c47-0.3,89.9-17.8,104.1-43.1
	c4.5-7.8,3.9-17.2,1.1-22.5c-1.7-3.1-3.9-4.5-6.4-4.5c-1.7,0-3.9,0.6-6.4,3.9c-16.7,23.6-50.4,37.6-92.9,37.6s-76.5-13.9-92.9-37.6
	c-2.2-3.3-4.7-3.9-6.4-3.9c-2.8,0-4.7,1.7-6.4,4.5c-2.8,5.3-3.6,14.7,1.1,22.5C549.8,280.6,592.6,298.4,639.6,298.4 M512.2,301.5
	c0-0.3-0.3-1.1-0.3-1.4C512.2,300.7,512.2,301.2,512.2,301.5 M512.8,304.3c-0.3-0.6-0.3-1.4-0.3-1.9
	C512.5,303.2,512.8,303.7,512.8,304.3 M513.6,306.8c-0.3-0.6-0.6-1.7-0.6-2.2C512.8,305.1,513.3,306,513.6,306.8 M512.2,298.2
	c-0.3,0.6-0.3,1.1-0.3,1.7C512.2,299.3,512.2,298.4,512.2,298.2 M513.3,295.4c-0.3,0.3-0.3,0.6-0.3,0.8
	C513,295.9,513.3,295.4,513.3,295.4 M512.8,296.5c-0.3,0.3-0.3,0.8-0.3,1.4C512.5,297.3,512.8,296.8,512.8,296.5 M514.2,294
	c-0.3,0.3-0.6,0.6-0.8,1.1C513.6,294.6,514.2,294.3,514.2,294 M515.3,293.2c-0.3,0.3-0.6,0.3-0.8,0.6
	C514.7,293.7,515,293.4,515.3,293.2 M516.7,292.9c-0.3,0.3-0.6,0.3-0.8,0.3C515.8,292.9,516.1,292.9,516.7,292.9 M518.1,292.3
	c-0.3,0-0.6,0-1.1,0.3C517.2,292.6,517.5,292.3,518.1,292.3L518.1,292.3 M519.2,292.9c-0.3,0-0.3,0-0.6-0.3
	C518.9,292.6,518.9,292.6,519.2,292.9 M520.6,293.2c-0.3-0.3-0.3-0.3-0.6-0.3C520.3,293.2,520.6,293.2,520.6,293.2 M522.2,294
	c-0.3-0.3-0.3-0.3-0.6-0.3C521.7,294,521.7,294,522.2,294 M759.3,292.9c-0.3,0-0.3,0.3-0.3,0.3S759,293.2,759.3,292.9 M760.7,292.6
	c-0.3,0-0.3,0-0.6,0.3C760.4,292.6,760.7,292.6,760.7,292.6 M757.6,294L757.6,294L757.6,294 M762.9,292.6c-0.3-0.3-0.6-0.3-1.1-0.3
	l0,0C762.1,292.3,762.3,292.6,762.9,292.6 M764.3,293.2c0.3,0.3,0.6,0.3,0.8,0.6C764.6,293.7,764.6,293.4,764.3,293.2 M762.9,292.9
	c0.3,0.3,0.6,0.3,0.8,0.3C763.7,292.9,763.2,292.9,762.9,292.9 M766.5,296.2c-0.3-0.3-0.3-0.6-0.3-1.1
	C766.2,295.4,766.5,295.9,766.5,296.2 M766,295.1c-0.3-0.3-0.6-0.6-0.8-1.1C765.4,294.3,765.7,294.6,766,295.1 M767.1,297.9
	c-0.3-0.3-0.3-1.1-0.3-1.4C767.1,296.8,767.1,297.6,767.1,297.9 M767.3,299.8c0-0.6,0-1.1-0.3-1.7
	C767.3,298.4,767.3,299.3,767.3,299.8 M767.1,301.5c0-0.3,0.3-1.1,0.3-1.4C767.3,300.7,767.3,301.2,767.1,301.5 M766.8,304.3
	c0.3-0.6,0.3-1.4,0.3-1.9C767.1,303.2,767.1,303.7,766.8,304.3 M766,306.8c0.3-0.6,0.6-1.7,0.6-2.2C766.5,305.1,766.2,306,766,306.8
	 M762.9,312.6c0.6-0.8,1.1-1.7,1.7-2.8C763.7,310.7,763.2,311.5,762.9,312.6 M764.6,309c0.3-0.6,0.6-1.1,0.8-1.9
	C765.4,307.9,765.1,308.7,764.6,309 M652.7,360.5c-0.6,0-1.4,0.3-2.2,0.3C651.3,360.8,651.9,360.5,652.7,360.5 M747.3,304.8
	c0.3-0.3,0.3-0.3,0.3-0.3C747.9,304.3,747.6,304.6,747.3,304.8 M742.9,308.5L742.9,308.5L742.9,308.5 M659.1,336.3
	C659.4,336.3,659.4,336.3,659.1,336.3C659.4,336.3,659.4,336.3,659.1,336.3 M647.2,336.8c0.8,0,1.7,0,2.8,0
	C648.8,336.8,648,336.8,647.2,336.8 M629.6,336.8c0.8,0,1.7,0,2.8,0C631.6,336.8,630.7,336.8,629.6,336.8 M531.7,304.3
	C531.7,304.6,531.7,304.6,531.7,304.3C531.7,304.6,531.7,304.3,531.7,304.3 M626.6,360.5c0.6,0,1.7,0.3,2.2,0.3
	C628.2,360.8,627.4,360.5,626.6,360.5 M618.5,359.9L618.5,359.9L618.5,359.9 M635.2,360.8c1.7,0,3.1,0.3,4.5,0.3
	c1.7,0,3.1-0.3,4.5-0.3c-1.7,0-3.1,0.3-4.5,0.3l0,0l0,0C638.2,360.8,636.6,360.8,635.2,360.8 M527.2,300.1c0.3,0.3,0.3,0.3,0.3,0.3
	C527.5,300.1,527.2,300.1,527.2,300.1 M752,300.4c0.3-0.3,0.3-0.3,0.3-0.3C752,300.1,752,300.1,752,300.4 M513.9,307.4
	c0.3,0.6,0.6,1.1,0.8,1.9C514.2,308.7,514.2,307.9,513.9,307.4 M515,310.1c0.3,0.8,1.1,1.7,1.7,2.8
	C515.8,311.5,515.6,310.7,515,310.1 M639.6,363.8L639.6,363.8L639.6,363.8L639.6,363.8c54.5,0,104.9-20,125.2-49.2
	c7.2-10.3,5-17.2,3.9-19.8c-1.4-3.1-4.5-5-7.2-5s-5.3,1.4-7.5,4.2c-19.5,24.8-63.4,40.3-114.3,40.3c-50.9,0-94.9-15.3-114.3-40.3
	c-1.9-2.8-4.7-4.2-7.5-4.2c-3.1,0-5.8,1.9-7.2,5c-1.1,2.5-3.1,9.5,3.9,19.8C534.7,343.8,585.4,363.8,639.6,363.8 M498,361.9
	c0-0.6-0.3-1.1-0.3-1.7C497.7,361,497.7,361.6,498,361.9 M498,356.9c0,0.3-0.3,0.8-0.3,1.1C497.7,357.7,497.7,357.2,498,356.9
	 M498.3,354.6c-0.3,0.3-0.3,1.1-0.3,1.4C498.3,355.8,498.3,355.2,498.3,354.6 M498.9,353.5c-0.3,0.3-0.3,0.6-0.3,1.1
	C498.6,354.1,498.6,353.8,498.9,353.5 M499.4,352.4c-0.3,0.3-0.3,0.3-0.3,0.6C499.1,353,499.1,352.7,499.4,352.4 M497.7,358.5
	c0,0.3,0,0.8,0,1.1C497.7,359.4,497.7,359.1,497.7,358.5 M500.2,351.6c-0.3,0.3-0.3,0.3-0.6,0.6C500,351.9,500,351.6,500.2,351.6
	 M500.5,351.3c0.3-0.3,0.6-0.3,0.8-0.3C501.1,351,500.8,351.3,500.5,351.3 M502.5,350.8c-0.3,0-0.6,0-0.6,0S501.9,350.8,502.5,350.8
	C502.2,350.8,502.5,350.8,502.5,350.8 M503.6,351.3c-0.3-0.3-0.6-0.3-0.6-0.3S503.3,351,503.6,351.3 M504.7,351.9
	c-0.3-0.3-0.6-0.3-0.8-0.6C504.1,351.3,504.7,351.6,504.7,351.9 M506.6,353.3c-0.3-0.3-1.1-0.8-1.4-1.1
	C505.5,352.4,506.4,353,506.6,353.3 M536.4,376.6c-0.3-0.3-0.3-0.3-0.6-0.3C536.1,376.4,536.1,376.6,536.4,376.6 M544.2,381.1
	c-0.3-0.3-0.8-0.3-1.1-0.6C543.4,380.5,543.9,380.8,544.2,381.1 M552.8,385.3c-0.6-0.3-1.1-0.6-1.9-0.8
	C551.4,384.7,552.3,385,552.8,385.3 M570.6,392.8c-1.1-0.3-1.9-0.6-3.1-1.1C568.7,391.9,569.5,392.5,570.6,392.8 M580.1,395.5
	c-1.1-0.3-2.2-0.6-3.6-1.1C577.9,395.3,579,395.5,580.1,395.5 M590.1,398.6c-1.1-0.3-2.8-0.6-3.9-0.8
	C587.6,398.1,588.7,398.1,590.1,398.6 M600.4,400.8c-1.4-0.3-2.8-0.3-4.5-0.6C597.3,400.3,598.7,400.3,600.4,400.8 M611,402.5
	c-1.7-0.3-3.1-0.3-4.5-0.6C608.2,401.9,609.9,402.2,611,402.5 M622.4,403.6c-1.7-0.3-3.3-0.3-5-0.3
	C619.1,403.6,620.7,403.6,622.4,403.6 M634.1,404.2c-1.7,0-3.6,0-5.3-0.3C630.5,404.2,632.1,404.2,634.1,404.2 M561.5,389.1
	c-0.8-0.3-1.7-0.6-2.5-1.1C559.8,388.6,560.6,388.9,561.5,389.1 M709.2,392.8c1.1-0.3,2.2-0.6,3.3-1.1
	C711.7,391.9,710.3,392.5,709.2,392.8 M699.7,395.8c1.1-0.3,2.5-0.6,3.6-1.1C702.2,395.3,701.1,395.5,699.7,395.8 M690,398.6
	c1.1-0.3,2.8-0.6,3.9-1.1C692.8,398.1,691.4,398.1,690,398.6 M679.7,400.8c1.4-0.3,3.1-0.6,4.5-0.8
	C682.5,400.3,681.1,400.3,679.7,400.8 M669.1,402.5c1.7-0.3,3.1-0.3,4.7-0.6C672.2,401.9,670.5,402.2,669.1,402.5 M658,403.6
	c1.7-0.3,3.6-0.3,5-0.3C661.1,403.6,659.4,403.6,658,403.6 M646,404.2c1.7,0,3.6,0,5.3-0.3C649.9,404.2,648,404.2,646,404.2
	 M729.5,384.4c-0.8,0.3-1.7,0.6-2.8,1.1C727.6,385.3,728.7,384.7,729.5,384.4 M737,380.5c-0.6,0.3-1.4,0.6-1.9,1.1
	C735.6,381.4,736.5,380.5,737,380.5 M744.5,376.1c-0.3,0.3-1.1,0.6-1.4,0.8C743.4,376.6,744,376.6,744.5,376.1 M751.2,371.9
	c-0.3,0.3-0.3,0.3-0.6,0.3C750.7,371.9,751.2,371.9,751.2,371.9 M757.6,367.2L757.6,367.2L757.6,367.2 M721.2,388.3
	c-1.1,0.3-1.9,0.6-2.8,1.1C719.2,388.9,720.3,388.6,721.2,388.3 M776.2,351.3c-0.3,0.3-0.6,0.3-0.8,0.6
	C775.7,351.6,776,351.3,776.2,351.3 M777.4,351c-0.3,0-0.6,0.3-0.6,0.3C776.8,351,777.1,351,777.4,351 M774.9,352.1
	c-0.3,0.3-0.8,0.6-1.4,1.1C774,353,774.6,352.4,774.9,352.1 M778.8,350.8c-0.3,0-0.3,0-0.6,0c0.3,0,0.3,0,0.3,0
	C778.2,350.8,778.5,350.8,778.8,350.8 M778.8,351c0.3,0.3,0.6,0.3,0.8,0.3C779.6,351.3,779.3,351,778.8,351 M780.4,352.1
	c-0.3-0.3-0.3-0.3-0.6-0.6C780.1,351.6,780.4,351.9,780.4,352.1 M781.3,353c-0.3-0.3-0.3-0.3-0.3-0.6C781,352.7,781.3,353,781.3,353
	 M781.8,354.6c-0.3-0.3-0.3-0.6-0.3-1.1C781.5,353.8,781.5,354.1,781.8,354.6 M782.1,356.3c-0.3-0.6-0.3-1.1-0.3-1.7
	C782.1,355.2,782.1,355.8,782.1,356.3 M782.4,358c0-0.3-0.3-0.8-0.3-1.1C782.4,357.2,782.4,357.7,782.4,358 M782.4,359.9
	c0-0.3,0-0.8,0-1.1C782.4,359.1,782.4,359.4,782.4,359.9 M782.1,362.2c0.3-0.6,0.3-1.1,0.3-1.9C782.4,361,782.4,361.6,782.1,362.2
	 M781.3,366.6c0.3-0.6,0.3-1.1,0.3-1.7C781.5,365.5,781.5,366.1,781.3,366.6 M780.4,368.8c0.3-0.6,0.3-1.1,0.6-1.7
	C781,367.7,780.7,368.3,780.4,368.8 M782.1,364.4c0.3-0.6,0.3-1.4,0.3-1.9C782.1,363,782.1,363.8,782.1,364.4 M776.5,376.1
	c0.3-0.3,0.3-0.6,0.6-1.1C777.1,375.5,776.8,375.8,776.5,376.1 M774.9,378.6c0.3-0.3,0.3-0.3,0.3-0.3
	C774.9,378.3,774.9,378.3,774.9,378.6 M778.2,373.8c0.3-0.6,0.8-1.7,1.1-2.2c0.3-0.6,0.6-1.4,1.1-1.9c-0.3,0.6-0.6,1.4-1.1,1.9
	C779,372.5,778.8,373,778.2,373.8 M772.6,381.1C772.9,380.8,772.9,380.8,772.6,381.1C772.6,380.8,772.6,380.8,772.6,381.1
	 M770.1,383.6c0.3-0.3,0.3-0.3,0.6-0.6C770.7,383,770.4,383.3,770.1,383.6 M767.6,386.1c0.3-0.3,0.6-0.3,0.6-0.6
	C768.2,385.3,767.9,385.8,767.6,386.1 M764.8,388.6c0.3-0.3,0.3-0.3,0.6-0.3C765.1,388,765.1,388.3,764.8,388.6 M761.8,390.8
	c0.3-0.3,0.3-0.3,0.3-0.3L761.8,390.8 M758.4,393.3c0.3-0.3,0.3-0.3,0.6-0.3C759,393,758.7,393.3,758.4,393.3 M755.1,395.5
	c0.3-0.3,0.3-0.3,0.3-0.3C755.1,395.5,755.1,395.5,755.1,395.5 M751.2,398.1c0.3-0.3,0.3-0.3,0.6-0.3
	C751.8,398.1,751.5,398.1,751.2,398.1 M747.3,400.3c0.3,0,0.3-0.3,0.3-0.3C747.9,400.3,747.6,400.3,747.3,400.3 M743.1,402.8
	C743.4,402.8,743.4,402.5,743.1,402.8C743.7,402.8,743.4,402.8,743.1,402.8 M739.2,405c0.3-0.3,0.3-0.3,0.6-0.3
	C739.2,405,739.2,405,739.2,405 M734.5,407.5c0.3-0.3,0.3-0.3,0.6-0.3C735.3,407,734.8,407.2,734.5,407.5 M730.1,409.5
	c0.3-0.3,0.3-0.3,0.6-0.3C730.6,409.2,730.3,409.2,730.1,409.5 M725.3,411.7c0.3-0.3,0.6-0.3,0.8-0.3
	C725.9,411.4,725.6,411.4,725.3,411.7 M720.3,413.6c0.3-0.3,0.6-0.3,0.8-0.3C721.2,413.4,720.6,413.6,720.3,413.6 M715.3,415.3
	c0.3-0.3,0.6-0.3,0.8-0.3C715.9,415.3,715.6,415.3,715.3,415.3 M710,417.2c0.3-0.3,0.6-0.3,1.1-0.3C710.9,417,710.3,417.2,710,417.2
	 M704.7,419.2c0.3-0.3,0.6-0.3,1.1-0.3C705.6,418.6,705.3,418.9,704.7,419.2 M699.2,420.6c0.3-0.3,0.8-0.3,1.1-0.3
	C700,420.3,699.7,420.6,699.2,420.6 M693.6,422.3c0.3-0.3,0.8-0.3,1.4-0.3C694.7,422,694.2,422,693.6,422.3 M688.1,423.4
	c0.6-0.3,1.1-0.3,1.7-0.3C689.2,423.4,688.6,423.4,688.1,423.4 M682.2,424.8c0.6-0.3,1.1-0.3,1.7-0.3
	C683.6,424.5,683,424.8,682.2,424.8 M676.4,425.9c0.6-0.3,1.4-0.3,1.9-0.3C677.8,425.6,676.9,425.6,676.4,425.9 M670.5,426.7
	c0.6-0.3,1.4-0.3,2.2-0.3C671.9,426.7,671.4,426.7,670.5,426.7 M664.4,427.5c0.8-0.3,1.7-0.3,2.5-0.3
	C666.1,427.3,665.2,427.5,664.4,427.5 M658.3,428.1c0.8-0.3,1.7-0.3,2.8-0.3C660.2,428.1,659.4,428.1,658.3,428.1 M652.4,428.7
	c1.1,0,1.9-0.3,2.8-0.3C654.1,428.7,653.3,428.7,652.4,428.7 M646,428.9c1.1,0,1.9-0.3,3.1-0.3C648.3,428.9,647.2,428.9,646,428.9
	 M631,428.9c1.1,0,1.9,0.3,3.1,0.3C633,428.9,631.8,428.9,631,428.9 M624.9,428.7c1.1,0.3,1.9,0.3,2.8,0.3
	C627.1,428.7,626,428.7,624.9,428.7 M619.1,428.1c0.8,0.3,1.9,0.3,2.8,0.3C621,428.1,620.2,428.1,619.1,428.1 M613.2,427.3
	c0.8,0.3,1.7,0.3,2.5,0.3C614.9,427.5,614,427.3,613.2,427.3 M607.4,426.4c0.6,0.3,1.7,0.3,2.2,0.3
	C609,426.7,608.2,426.7,607.4,426.4 M601.8,425.6c0.6,0.3,1.4,0.3,1.9,0.3C603.2,425.6,602.4,425.6,601.8,425.6 M596.2,424.2
	c0.6,0.3,1.1,0.3,1.9,0.3C597.1,424.8,596.5,424.5,596.2,424.2 M590.4,423.4c0.6,0.3,1.1,0.3,1.7,0.3
	C591.5,423.4,591,423.4,590.4,423.4 M584.8,421.7c0.3,0.3,1.1,0.3,1.4,0.3C585.9,422,585.4,422,584.8,421.7 M579.5,420
	c0.3,0.3,1.1,0.3,1.4,0.3C580.4,420.6,579.8,420.3,579.5,420 M574.3,418.6c0.3,0.3,0.8,0.3,1.1,0.3
	C575.1,418.9,574.5,418.6,574.3,418.6 M569,417c0.3,0.3,0.6,0.3,1.1,0.3C569.8,417.2,569.5,417,569,417 M564,415
	c0.3,0.3,0.6,0.3,1.1,0.3C564.5,415.3,564.2,415.3,564,415 M558.7,413.1c0.3,0.3,0.8,0.3,1.1,0.3
	C559.5,413.6,559.2,413.1,558.7,413.1 M553.7,411.1c0.3,0.3,0.6,0.3,1.1,0.6C554.5,411.4,554.2,411.1,553.7,411.1 M548.9,408.9
	c0.3,0.3,0.6,0.3,1.1,0.6C549.8,409.2,549.5,409.2,548.9,408.9 M544.5,406.7c0.3,0.3,0.6,0.3,1.1,0.6
	C545,407.2,544.8,407,544.5,406.7 M539.8,404.5c0.3,0.3,0.8,0.3,1.1,0.6C540.9,405,540.3,404.7,539.8,404.5 M535.6,402.2
	c0.3,0.3,0.8,0.3,1.1,0.6C536.4,402.8,536.1,402.2,535.6,402.2 M531.7,399.7c0.3,0.3,0.8,0.6,1.1,0.6
	C532.5,400.3,532,400,531.7,399.7 M527.2,397.2c0.6,0.3,1.1,0.6,1.7,1.1C528.4,398.1,527.8,397.5,527.2,397.2 M523.6,394.7
	c0.6,0.3,1.1,0.6,1.7,1.1C524.5,395.3,523.9,395,523.6,394.7 M520,391.9c0.6,0.3,1.1,0.8,1.7,1.1C521.1,393,520.6,392.5,520,391.9
	 M516.7,389.7c0.6,0.3,1.1,0.8,1.7,1.1C518.1,390.5,517.5,390,516.7,389.7 M513.3,386.9c0.6,0.6,1.1,1.1,1.9,1.7
	C514.7,387.8,514.2,387.2,513.3,386.9 M510.5,383.9c0.6,0.6,1.1,1.1,1.9,1.9C511.9,385.3,511.1,384.7,510.5,383.9 M640.2,428.9
	L640.2,428.9L640.2,428.9c-1.1,0-2.2,0-3.3,0C638,428.9,639.1,428.9,640.2,428.9c0.8,0,1.9,0,3.1,0
	C642.1,428.9,641.3,428.9,640.2,428.9 M508.3,381.9c0.6,0.6,1.1,1.1,1.7,1.7C509.4,383,508.9,382.2,508.3,381.9 M503.9,376.6
	c0.3,0.6,0.8,1.1,1.4,1.9C505,378,504.7,377.5,503.9,376.6 M502.2,374.1c0.3,0.6,1.1,1.4,1.4,2.2
	C503.3,375.5,502.5,374.7,502.2,374.1 M506.4,379.4c0.3,0.6,0.8,1.1,1.4,1.7C507.2,380.5,506.6,380,506.4,379.4 M499.1,367.2
	c0.3,0.3,0.3,1.1,0.3,1.4C499.4,368.3,499.1,367.7,499.1,367.2 M498.6,364.9c0.3,0.3,0.3,1.1,0.3,1.4
	C498.6,366.1,498.6,365.5,498.6,364.9 M498,362.4c0.3,0.6,0.3,1.1,0.3,1.9C498.3,363.8,498.3,363,498,362.4 M500,369.7
	c0.3,0.6,0.6,1.4,0.8,1.9s0.8,1.7,1.1,2.2c-0.3-0.8-0.8-1.7-1.1-2.2C500.5,370.8,500,370.2,500,369.7 M639.6,432
	C639.6,432,639.9,432,639.6,432h0.6c0,0,0,0,0.3,0c69.6-0.3,129.1-34.5,141.3-59.3c3.6-7.5,4.5-16.7,1.7-21.4
	c-1.1-2.2-3.1-3.6-5.3-3.6c-1.9,0-4.5,1.1-6.4,3.3c-9.5,9.7-26.2,23.4-51.2,34.2c-24.5,10.6-51.7,16.1-80.1,16.1
	c-28.7,0-55.6-5.3-80.1-16.1c-25-10.9-42-24.5-51.2-34.2c-1.9-1.9-4.5-3.3-6.4-3.3c-2.2,0-4.2,1.1-5.3,3.6c-2.8,5-1.9,13.9,1.7,21.4
	C510.5,397.5,570.4,432,639.6,432 M479.9,422c-0.3-0.6-0.3-1.4-0.3-1.9C479.7,420.6,479.9,421.1,479.9,422 M479.4,417.8
	c0,0.6,0,1.1,0,1.7C479.4,418.6,479.4,418.4,479.4,417.8 M479.7,415.9c0,0.3-0.3,0.8-0.3,1.1C479.7,416.7,479.7,416.1,479.7,415.9
	 M480.5,412c-0.3,0.3-0.3,1.1-0.3,1.4C480.2,413.1,480.2,412.5,480.5,412 M481.3,410.6c-0.3,0.3-0.3,0.6-0.3,1.1
	C481.1,411.4,481.1,411.1,481.3,410.6 M481.9,409.7c-0.3,0.3-0.3,0.3-0.6,0.6C481.9,410,481.9,409.7,481.9,409.7 M479.9,413.6
	c-0.3,0.3-0.3,0.8-0.3,1.1C479.9,414.5,479.9,414.2,479.9,413.6 M484.1,408.3c-0.3,0.3-0.6,0.3-1.1,0.3
	C483.6,408.3,483.8,408.3,484.1,408.3 M483,408.9c-0.3,0.3-0.6,0.3-0.6,0.6C482.7,409.2,482.7,408.9,483,408.9 M484.9,408.3
	c-0.3,0-0.6,0-0.6,0C484.7,408.3,484.7,408.3,484.9,408.3L484.9,408.3 M486.3,408.3c-0.3-0.3-0.3-0.3-0.6-0.3
	C485.8,408.3,486.1,408.3,486.3,408.3 M487.5,409.2c-0.3-0.3-0.6-0.3-0.6-0.3S487.5,408.9,487.5,409.2 M489.1,410.6
	c-0.3-0.3-0.6-0.8-1.1-1.1C488.3,409.7,488.6,410,489.1,410.6 M793.2,408.9c-0.3,0.3-0.6,0.3-0.6,0.3
	C792.7,408.9,792.9,408.9,793.2,408.9 M794.3,408.3c-0.3,0-0.3,0.3-0.6,0.3C793.8,408.3,794.1,408.3,794.3,408.3 M792.1,409.5
	c-0.3,0.3-0.6,0.6-1.1,1.1C791.3,410,791.5,409.7,792.1,409.5 M796.8,408.9c-0.3-0.3-0.6-0.3-1.1-0.3
	C796,408.3,796.6,408.3,796.8,408.9 M795.4,408.3c-0.3,0-0.6,0-0.6,0c0.3,0,0.3,0,0.3,0H795.4 M797.7,409.2
	c-0.3-0.3-0.6-0.3-0.6-0.6C796.8,408.9,797.4,409.2,797.7,409.2 M798.5,410.3c-0.3-0.3-0.3-0.3-0.6-0.6
	C797.9,409.7,798.2,410,798.5,410.3 M799.3,411.7c-0.3-0.3-0.3-0.6-0.6-1.1C798.8,411.1,798.8,411.4,799.3,411.7 M799.9,413.6
	c-0.3-0.6-0.3-1.1-0.3-1.4C799.3,412.5,799.6,413.1,799.9,413.6 M800.2,417c0-0.3,0-0.8-0.3-1.1C800.2,416.1,800.2,416.7,800.2,417
	 M800.2,415.3c0-0.3-0.3-0.8-0.3-1.1C799.9,414.2,800.2,414.5,800.2,415.3 M799.9,422c0.3-0.6,0.3-1.4,0.3-1.9
	C800.2,420.6,800.2,421.1,799.9,422 M800.2,419.2c0-0.6,0-1.1,0-1.7C800.2,418.4,800.2,418.6,800.2,419.2 M798.5,426.7
	c0.3-0.6,0.3-1.1,0.6-1.7C799.1,425.6,798.8,426.2,798.5,426.7 M797.1,430c0.3-0.8,0.6-1.7,1.1-2.8
	C797.9,428.7,797.7,429.2,797.1,430 M799.3,424.2c0.3-0.6,0.3-1.1,0.3-1.7C799.6,423.4,799.3,423.9,799.3,424.2 M480.8,425
	c0.3,0.6,0.3,1.1,0.6,1.7C481.1,426.2,481.1,425.6,480.8,425 M480.2,422.5c0.3,0.6,0.3,1.1,0.3,1.7
	C480.2,423.9,480.2,423.4,480.2,422.5 M481.6,427.5c0.3,0.8,0.6,1.7,1.1,2.8C482.4,429.2,481.9,428.7,481.6,427.5 M639.9,501.3
	L639.9,501.3c79.3,0,143.3-35.6,160-69.8c3.9-8.3,4.5-17,1.4-22.3c-1.4-2.8-3.6-3.9-6.1-3.9c-1.4,0-3.6,0.6-6.1,3.3
	c-15.9,18.1-62.3,60.7-148.8,60.7h-0.3c-86.5,0-132.7-42.3-148.8-60.7c-2.5-2.8-4.5-3.3-6.1-3.3c-2.5,0-4.5,1.4-6.1,3.9
	c-3.1,5.3-2.8,13.9,1.4,22.3C496.9,465.9,560.9,501.3,639.9,501.3 M817.7,483.7c0.3-0.6,0.3-1.1,0.3-1.7
	C818,482.9,818,483.2,817.7,483.7 M818.3,481.5c0.3-1.7,0.3-3.1,0.3-4.5C818.8,478.5,818.5,480.1,818.3,481.5 M816.9,486.2
	c0.3-0.6,0.3-1.1,0.6-1.7C817.4,485.1,817.1,485.7,816.9,486.2 M815.2,489.3c0.3-0.6,0.8-1.7,1.1-2.2
	C816,487.6,815.8,488.5,815.2,489.3 M462.4,484.9c0.3,0.6,0.3,1.1,0.6,1.7C463,485.7,462.7,485.1,462.4,484.9 M463.2,487.1
	c0.3,0.6,0.6,1.7,1.1,2.2C464.1,488.5,463.8,487.6,463.2,487.1 M461.6,482.4c0.3,0.6,0.3,1.1,0.3,1.7
	C462.1,483.2,461.9,482.9,461.6,482.4 M461.3,479.3c0,0.6,0.3,1.4,0.3,1.9C461.3,481,461.3,480.1,461.3,479.3 M461.3,477.1
	c0,0.6,0,1.4,0.3,1.9C461.3,478.5,461.3,477.6,461.3,477.1 M461.3,475.1c0,0.3-0.3,0.8-0.3,1.4C461.3,476,461.3,475.4,461.3,475.1
	 M461.6,472.9c-0.3,0.3-0.3,0.8-0.3,1.1C461.3,473.7,461.3,473.5,461.6,472.9 M462.1,470.9c-0.3,0.3-0.3,1.1-0.3,1.7
	C461.9,472.1,462.1,471.5,462.1,470.9 M463,469.3c-0.3,0.3-0.3,0.8-0.6,1.4C462.4,470.1,462.7,469.8,463,469.3 M463.8,468.2
	c-0.3,0.3-0.3,0.6-0.6,0.8C463.2,468.7,463.5,468.2,463.8,468.2 M466,466.5c-0.3,0.3-0.6,0.3-1.1,0.3
	C465.2,466.8,465.7,466.8,466,466.5 M464.6,467.3c-0.3,0.3-0.3,0.3-0.6,0.6C464.4,467.6,464.6,467.3,464.6,467.3 M467.1,466.5
	c-0.3,0-0.6,0-1.1,0.3C466.3,466.5,466.9,466.5,467.1,466.5C466.9,466.5,467.1,466.5,467.1,466.5 M468.3,466.8
	c-0.3-0.3-0.6-0.3-0.8-0.3C467.7,466.5,468,466.5,468.3,466.8 M469.6,467.3c-0.3-0.3-0.6-0.3-0.8-0.6
	C469.1,466.8,469.4,467.1,469.6,467.3 M471,469c-0.3-0.6-0.8-0.8-1.1-1.1C470.5,467.9,470.8,468.2,471,469 M809.9,467.6
	c-0.3,0.3-0.8,0.6-1.1,1.1C809.1,468.2,809.6,467.9,809.9,467.6 M811.3,466.8c-0.3,0.3-0.6,0.3-0.8,0.6
	C810.5,467.1,811,466.8,811.3,466.8 M812.4,466.5c-0.3,0-0.6,0.3-0.8,0.3C811.9,466.5,811.9,466.5,812.4,466.5 M814.9,466.8
	c-0.3-0.3-0.6-0.3-1.1-0.3C814.4,466.8,814.6,466.8,814.9,466.8 M813.8,466.5c-0.3-0.3-0.6-0.3-1.1-0.3h0.3
	C813.3,466.5,813.5,466.5,813.8,466.5 M816,467.9c-0.3-0.3-0.3-0.3-0.6-0.6C815.5,467.3,815.8,467.6,816,467.9 M816.6,469
	c-0.3-0.3-0.3-0.6-0.6-0.8C816.3,468.2,816.6,468.7,816.6,469 M817.4,470.7c-0.3-0.6-0.3-1.1-0.6-1.4
	C817.1,469.8,817.4,470.1,817.4,470.7 M818.3,472.6c-0.3-0.6-0.3-1.1-0.3-1.7C818,471.5,818,472.1,818.3,472.6 M818.5,474.6
	c0-0.3-0.3-0.8-0.3-1.1C818.5,473.5,818.5,473.7,818.5,474.6 M818.8,476.5c0-0.3,0-1.1-0.3-1.4C818.5,475.4,818.8,476,818.8,476.5
	 M819.7,468.2c-1.7-3.1-3.9-5-6.7-5c-1.7,0-3.9,0.6-6.4,3.6c-49,60.9-125.2,69.8-166.4,69.8h-0.3c-41.2,0-117.4-9.2-166.4-69.8
	c-2.5-3.1-4.7-3.6-6.4-3.6c-2.8,0-5,1.7-6.7,5c-2.8,5-3.1,14.2,1.9,22.5c24.5,40.1,93.2,81,177.5,81h0.3c84.3,0,153-40.6,177.5-81
	C822.7,482.4,822.2,473.5,819.7,468.2"/>
</svg>
