<?xml version="1.0" encoding="utf-8"?>
<!-- Generator: Adobe Illustrator 17.1.0, SVG Export Plug-In . SVG Version: 6.00 Build 0)  -->
<!DOCTYPE svg PUBLIC "-//W3C//DTD SVG 1.1//EN" "http://www.w3.org/Graphics/SVG/1.1/DTD/svg11.dtd">
<svg version="1.1" id="Layer_1" xmlns="http://www.w3.org/2000/svg" xmlns:xlink="http://www.w3.org/1999/xlink" x="0px" y="0px"
	 viewBox="0 0 776 284" enable-background="new 0 0 776 284" xml:space="preserve">
<g>
	<path fill="#FF8300" d="M723.5,151.1c-0.2-17.3-11.6-28.1-30.1-28.1c-17.5,0-28.4,11.1-30.6,28.1H723.5z M662.8,173.3
		c2,17.5,15.3,28.1,31.8,28.1c14.8,0,24.4-6.9,31.8-16l21.2,16c-13.8,17-31.3,23.7-50,23.7c-35.7,0-64.3-24.9-64.3-62.1
		c0-37.2,28.6-62.1,64.3-62.1c33,0,55.5,23.2,55.5,64.3v8.1H662.8z M510.4,103.8h32.3l31.6,82.8h0.5l31.8-82.8h30.3l-46.6,118.3
		h-31.6L510.4,103.8z M468.2,103.8h29.6v118.3h-29.6V103.8z M369,120.3h0.5c4.7-9.9,16.5-19.5,34.8-19.5c31.8,0,43.1,22.4,43.1,46.6
		v74.7h-29.6v-59.9c0-13.1-1-34.8-21.7-34.8c-19.5,0-27.1,14.3-27.1,30.1v64.6h-29.6V35.7H369V120.3z M75.5,36.7
		c-0.1-0.5-0.1-1-0.2-1.5C75.3,35.7,75.4,36.2,75.5,36.7 M75.3,33.6c0,0.4,0,0.9,0,1.3C75.2,34.5,75.2,34.1,75.3,33.6 M75.4,32.2
		c0,0.3-0.1,0.6-0.1,1C75.3,32.8,75.3,32.5,75.4,32.2 M75.6,30.7c-0.1,0.3-0.1,0.6-0.2,0.9C75.5,31.3,75.5,31,75.6,30.7 M76.5,28.1
		c-0.1,0.3-0.3,0.5-0.4,0.8C76.3,28.7,76.4,28.4,76.5,28.1 M77.1,27.3c-0.1,0.2-0.3,0.4-0.4,0.6C76.9,27.6,77,27.4,77.1,27.3
		 M76.1,29.2c-0.1,0.4-0.3,0.8-0.4,1.2C75.8,29.9,75.9,29.5,76.1,29.2 M78.7,26c-0.2,0.1-0.5,0.2-0.7,0.4
		C78.2,26.2,78.4,26.1,78.7,26 M77.8,26.6c-0.2,0.1-0.3,0.3-0.5,0.4C77.5,26.8,77.6,26.7,77.8,26.6 M79.4,26c-0.2,0-0.4,0-0.6,0.1
		c0.2,0,0.3-0.1,0.5-0.1C79.3,26,79.4,26,79.4,26 M80.2,26.2C80,26.1,79.9,26,79.7,26C79.9,26,80,26.1,80.2,26.2 M81.1,26.7
		c-0.2-0.2-0.4-0.3-0.6-0.4C80.7,26.4,80.9,26.6,81.1,26.7 M82.1,27.9c-0.3-0.4-0.5-0.7-0.8-1C81.6,27.2,81.9,27.5,82.1,27.9
		 M86.2,32.9c-0.6-0.7-1.3-1.4-1.8-2.1C84.9,31.5,85.5,32.2,86.2,32.9 M91.4,37.9c-0.7-0.5-1.3-1.1-1.9-1.6
		C90.1,36.8,90.8,37.3,91.4,37.9 M94.5,40.2c-0.7-0.5-1.4-1-2-1.5C93.1,39.2,93.8,39.7,94.5,40.2 M97.8,42.4c-0.7-0.4-1.4-0.8-2-1.3
		C96.4,41.6,97.1,42,97.8,42.4 M101.3,44.4c-0.7-0.4-1.4-0.7-2-1.1C99.9,43.7,100.6,44.1,101.3,44.4 M105.1,46.4
		c-0.7-0.3-1.3-0.6-2-0.9C103.7,45.7,104.4,46,105.1,46.4 M109.2,48.1c-0.7-0.3-1.4-0.5-2-0.8C107.8,47.6,108.5,47.8,109.2,48.1
		 M113.5,49.7c-0.7-0.2-1.3-0.4-2-0.7C112.1,49.3,112.8,49.5,113.5,49.7 M118.1,51.1c-0.7-0.2-1.4-0.4-2.1-0.6
		C116.8,50.8,117.5,50.9,118.1,51.1 M123.1,52.3c-0.7-0.2-1.5-0.3-2.2-0.5C121.6,52,122.4,52.2,123.1,52.3 M128.3,53.3
		c-0.7-0.1-1.5-0.2-2.2-0.4C126.8,53.1,127.5,53.2,128.3,53.3 M133.8,54.1c-0.8-0.1-1.6-0.2-2.4-0.3C132.2,54,133,54,133.8,54.1
		 M139.5,54.7c-0.9-0.1-1.7-0.1-2.6-0.2C137.8,54.6,138.7,54.6,139.5,54.7 M145.6,54.9c-0.9,0-1.8,0-2.7-0.1
		C143.7,54.9,144.7,54.9,145.6,54.9 M88.7,35.4c-0.6-0.6-1.3-1.2-1.9-1.8C87.4,34.2,88,34.8,88.7,35.4 M212.5,31.7
		c0.3-0.3,0.6-0.6,0.8-0.9C213,31.1,212.7,31.4,212.5,31.7 M216.3,27c-0.3,0.3-0.5,0.6-0.8,1C215.7,27.5,216,27.2,216.3,27
		 M217.1,26.3c-0.2,0.1-0.4,0.3-0.6,0.4C216.7,26.6,216.9,26.4,217.1,26.3 M217.9,26c-0.2,0-0.4,0.1-0.5,0.2
		C217.6,26.1,217.7,26,217.9,26 M219.6,26.4c-0.2-0.2-0.5-0.3-0.7-0.4C219.2,26.1,219.4,26.2,219.6,26.4 M218.8,26
		c-0.2-0.1-0.4-0.1-0.6-0.1c0,0,0.1,0,0.1,0C218.5,26,218.6,26,218.8,26 M220.3,27c-0.2-0.2-0.3-0.3-0.5-0.5
		C220,26.7,220.1,26.8,220.3,27 M221.1,28.1c0.1,0.3,0.3,0.6,0.4,0.9C221.3,28.7,221.2,28.4,221.1,28.1 M220.5,27.2
		c0.1,0.2,0.3,0.4,0.4,0.6C220.8,27.6,220.6,27.4,220.5,27.2 M222.2,31.7c0-0.3-0.1-0.6-0.2-0.9C222.1,31,222.1,31.3,222.2,31.7
		 M222.3,33.1c0-0.3,0-0.7-0.1-1C222.3,32.5,222.3,32.8,222.3,33.1 M221.9,30.3c-0.1-0.4-0.2-0.8-0.4-1.2
		C221.7,29.5,221.8,29.9,221.9,30.3 M222.2,36.7c0.1-0.5,0.1-1,0.2-1.6C222.3,35.7,222.2,36.2,222.2,36.7 M222.3,35
		c0-0.5,0-0.9,0-1.4C222.4,34.1,222.4,34.5,222.3,35 M221.3,39.9c0.1-0.4,0.3-0.7,0.4-1.1C221.5,39.2,221.4,39.6,221.3,39.9
		 M221.8,38.3c0.1-0.4,0.2-0.8,0.3-1.1C222,37.5,221.9,37.9,221.8,38.3 M216,47.8c0.2-0.2,0.4-0.5,0.6-0.7
		C216.4,47.4,216.3,47.6,216,47.8 M218.4,44.9c0.7-1,1.4-2,1.9-3c0.3-0.5,0.5-1,0.7-1.5c-0.2,0.5-0.5,1-0.7,1.5
		C219.8,43,219.1,44,218.4,44.9 M213.3,50.6c0.2-0.2,0.4-0.4,0.6-0.6C213.7,50.2,213.5,50.4,213.3,50.6 M158.3,70.8
		c-1.1,0.1-2.2,0.2-3.3,0.2C156.1,70.9,157.2,70.8,158.3,70.8 M164.2,70.2c-1,0.1-2,0.3-3.1,0.4C162.2,70.4,163.2,70.3,164.2,70.2
		 M170,69.3c-1,0.2-1.9,0.3-2.9,0.5C168.1,69.7,169.1,69.5,170,69.3 M175.6,68.3c-0.9,0.2-1.7,0.4-2.6,0.6
		C173.8,68.7,174.7,68.4,175.6,68.3 M180.8,67c-0.8,0.2-1.5,0.4-2.3,0.6C179.3,67.4,180.1,67.2,180.8,67 M185.9,65.5
		c-0.7,0.2-1.3,0.4-2,0.6C184.6,65.9,185.2,65.7,185.9,65.5 M190.7,63.8c-0.6,0.2-1.1,0.4-1.7,0.6C189.6,64.3,190.1,64,190.7,63.8
		 M195.2,61.9c-0.5,0.2-0.9,0.4-1.4,0.6C194.3,62.4,194.8,62.2,195.2,61.9 M199.5,59.9c-0.4,0.2-0.7,0.4-1.1,0.6
		C198.8,60.3,199.2,60.1,199.5,59.9 M203.5,57.7c-0.3,0.2-0.6,0.4-0.8,0.5C202.9,58.1,203.2,57.9,203.5,57.7 M207.2,55.4
		c-0.2,0.2-0.4,0.3-0.7,0.5C206.8,55.7,207,55.5,207.2,55.4 M210.8,52.7c-0.2,0.2-0.4,0.4-0.7,0.6C210.3,53.1,210.5,52.9,210.8,52.7
		 M206.8,37.3c0.4-0.4,0.9-0.7,1.3-1.1C207.7,36.6,207.3,36.9,206.8,37.3 M203.6,39.8c0.5-0.4,1-0.7,1.5-1.1
		C204.6,39.1,204.1,39.5,203.6,39.8 M200.2,42.2c0.6-0.4,1.1-0.7,1.7-1.1C201.3,41.5,200.7,41.8,200.2,42.2 M196.5,44.3
		c0.6-0.3,1.2-0.6,1.8-1C197.7,43.7,197.1,44,196.5,44.3 M192.6,46.3c0.6-0.3,1.3-0.6,1.9-0.9C193.9,45.7,193.3,46,192.6,46.3
		 M188.5,48.1c0.6-0.3,1.3-0.5,2-0.8C189.8,47.6,189.1,47.8,188.5,48.1 M184.1,49.7c0.7-0.2,1.4-0.4,2-0.7
		C185.5,49.3,184.8,49.5,184.1,49.7 M179.4,51.1c0.7-0.2,1.4-0.4,2.1-0.6C180.8,50.8,180.1,50.9,179.4,51.1 M174.5,52.4
		c0.7-0.2,1.5-0.3,2.2-0.5C176,52,175.2,52.2,174.5,52.4 M169.3,53.4c0.8-0.1,1.6-0.2,2.3-0.4C170.8,53.1,170,53.2,169.3,53.4
		 M163.7,54.1c0.8-0.1,1.7-0.2,2.5-0.3C165.4,54,164.6,54,163.7,54.1 M158,54.7c0.9-0.1,1.8-0.1,2.6-0.2
		C159.8,54.6,158.9,54.6,158,54.7 M152,54.9c0.9,0,1.9,0,2.8-0.1C153.9,54.9,152.9,54.9,152,54.9 M209.8,34.6
		c0.4-0.4,0.7-0.7,1.1-1.1C210.5,33.9,210.1,34.3,209.8,34.6 M139.3,70.7c1.1,0.1,2.2,0.2,3.3,0.2C141.5,70.9,140.4,70.8,139.3,70.7
		 M133.3,70.2c1,0.1,2.1,0.3,3.1,0.4C135.4,70.4,134.4,70.3,133.3,70.2 M127.5,69.3c1,0.2,1.9,0.4,2.9,0.5
		C129.5,69.7,128.5,69.5,127.5,69.3 M122,68.3c0.9,0.2,1.8,0.4,2.7,0.6C123.8,68.7,122.9,68.4,122,68.3 M116.8,67
		c0.8,0.2,1.5,0.4,2.3,0.6C118.3,67.4,117.5,67.2,116.8,67 M111.7,65.5c0.7,0.2,1.3,0.4,2,0.6C113,65.9,112.4,65.7,111.7,65.5
		 M106.9,63.8c0.6,0.2,1.1,0.4,1.6,0.6C108,64.3,107.5,64,106.9,63.8 M102.5,62c0.4,0.2,0.8,0.4,1.3,0.6
		C103.3,62.4,102.9,62.2,102.5,62 M98.3,60c0.3,0.2,0.6,0.3,0.9,0.5C98.9,60.4,98.6,60.2,98.3,60 M94.3,57.9
		c0.2,0.1,0.4,0.3,0.6,0.4C94.7,58.1,94.5,58,94.3,57.9 M90.6,55.5c0.2,0.1,0.3,0.2,0.5,0.3C90.9,55.7,90.7,55.6,90.6,55.5 M87.2,53
		c0.1,0.1,0.2,0.2,0.3,0.3C87.4,53.2,87.3,53.1,87.2,53 M148.9,71.1c0,0-0.1,0-0.1,0c0,0-0.1,0-0.1,0c-1.1,0-2.1-0.1-3.2-0.1
		c1.1,0,2.2,0.1,3.3,0.1c1.1,0,2.2,0,3.3-0.1C151,71.1,150,71.1,148.9,71.1 M84.1,50.4c0.1,0.1,0.1,0.2,0.2,0.2
		C84.3,50.5,84.2,50.5,84.1,50.4 M81.5,47.7c0,0,0.1,0.1,0.1,0.1C81.5,47.8,81.5,47.7,81.5,47.7 M75.9,38.8c0.1,0.4,0.2,0.7,0.4,1.1
		C76.2,39.6,76.1,39.2,75.9,38.8 M75.5,37.2c0.1,0.4,0.2,0.7,0.2,1.1C75.7,37.9,75.6,37.5,75.5,37.2 M76.5,40.4
		c0.2,0.5,0.5,1,0.7,1.5c0.6,1,1.2,2,1.9,3c-0.7-1-1.4-2-1.9-3C77,41.4,76.7,40.9,76.5,40.4 M148.5,73.2L148.5,73.2h0.5h0.1
		C182,73.1,212,60.7,222,43c3.1-5.5,2.7-12.1,0.8-15.9c-1.1-2.1-2.7-3.2-4.5-3.2c-1.1,0-2.8,0.5-4.4,2.8
		c-11.6,16.6-35.3,26.2-65.1,26.3c-29.8,0-53.5-9.6-65.1-26.3c-1.6-2.3-3.3-2.8-4.4-2.8c-1.8,0-3.3,1.1-4.5,3.2
		c-2,3.7-2.4,10.4,0.8,15.9C85.6,60.7,115.6,73.1,148.5,73.2 M59.3,75.4c0-0.3-0.1-0.7-0.1-1C59.3,74.7,59.3,75.1,59.3,75.4
		 M59.7,77.2c-0.1-0.5-0.2-1-0.3-1.4C59.5,76.3,59.6,76.8,59.7,77.2 M60.3,78.9c-0.2-0.5-0.4-1.1-0.5-1.6
		C59.8,77.8,60,78.4,60.3,78.9 M59.4,72.9c-0.1,0.4-0.1,0.8-0.1,1.2C59.3,73.6,59.3,73.2,59.4,72.9 M60.1,70.9
		c-0.1,0.2-0.2,0.4-0.3,0.6C59.9,71.3,60,71.1,60.1,70.9 M59.7,71.8c-0.1,0.3-0.2,0.6-0.3,1C59.5,72.4,59.6,72.1,59.7,71.8 M60.8,70
		c-0.2,0.2-0.4,0.4-0.6,0.7C60.4,70.4,60.6,70.2,60.8,70 M61.5,69.5c-0.2,0.1-0.4,0.3-0.6,0.5C61.1,69.7,61.3,69.6,61.5,69.5
		 M62.3,69.1c-0.2,0.1-0.4,0.1-0.6,0.2C61.9,69.2,62.1,69.2,62.3,69.1 M63.3,68.9c-0.3,0-0.5,0-0.8,0.1C62.8,69,63,68.9,63.3,68.9
		C63.3,68.9,63.3,68.9,63.3,68.9 M64.3,69.1c-0.1,0-0.3,0-0.4-0.1C64,69,64.1,69,64.3,69.1 M65.2,69.5c-0.1-0.1-0.3-0.1-0.4-0.2
		C65,69.4,65.1,69.4,65.2,69.5 M66.2,70.1C66,70,65.9,70,65.8,69.9C65.9,70,66,70,66.2,70.1 M232.2,69.3c-0.1,0-0.2,0.1-0.3,0.1
		C232,69.4,232.1,69.4,232.2,69.3 M233.2,69c-0.1,0-0.3,0-0.4,0.1C233,69,233.1,69,233.2,69 M231,70.1C231,70.1,231,70.1,231,70.1
		C231,70.1,231,70.1,231,70.1 M234.6,69c-0.3-0.1-0.5-0.1-0.8-0.1c0,0,0,0,0,0C234.1,68.9,234.3,69,234.6,69 M235.6,69.5
		c0.2,0.1,0.4,0.3,0.6,0.5C236,69.7,235.8,69.6,235.6,69.5 M234.8,69.1c0.2,0.1,0.4,0.1,0.6,0.2C235.2,69.2,235,69.2,234.8,69.1
		 M237.3,71.5c-0.1-0.2-0.2-0.4-0.3-0.7C237.1,71.1,237.2,71.3,237.3,71.5 M236.8,70.7c-0.2-0.3-0.4-0.5-0.6-0.7
		C236.5,70.2,236.6,70.4,236.8,70.7 M237.7,72.8c-0.1-0.3-0.2-0.7-0.3-1C237.5,72.1,237.6,72.5,237.7,72.8 M237.8,74.1
		c0-0.4,0-0.8-0.1-1.2C237.8,73.2,237.8,73.6,237.8,74.1 M237.7,75.4c0-0.3,0.1-0.7,0.1-1C237.8,74.7,237.8,75.1,237.7,75.4
		 M237.4,77.3c0.1-0.5,0.2-1,0.3-1.4C237.6,76.3,237.5,76.8,237.4,77.3 M236.8,78.9c0.2-0.5,0.4-1.1,0.5-1.6
		C237.2,77.8,237.1,78.4,236.8,78.9 M234.6,83c0.4-0.6,0.8-1.2,1.1-1.8C235.4,81.7,235,82.3,234.6,83 M236,80.6
		c0.2-0.4,0.4-0.9,0.6-1.3C236.4,79.8,236.2,80.2,236,80.6 M157.6,116.5c-0.5,0-1,0.1-1.6,0.1C156.6,116.6,157.1,116.5,157.6,116.5
		 M223.9,77.5c0.1-0.1,0.2-0.2,0.3-0.2C224.1,77.3,224,77.4,223.9,77.5 M220.7,80.1C220.7,80.1,220.7,80.1,220.7,80.1
		C220.7,80.1,220.7,80.1,220.7,80.1 M162.1,99.5C162.2,99.5,162.2,99.5,162.1,99.5C162.2,99.5,162.2,99.5,162.1,99.5 M153.7,100
		c0.6,0,1.2,0,1.8,0C154.9,99.9,154.3,99.9,153.7,100 M141.6,99.9c0.6,0,1.2,0,1.8,0C142.8,99.9,142.2,99.9,141.6,99.9 M72.9,77.2
		c0.1,0.1,0.2,0.1,0.2,0.2C73,77.4,72.9,77.3,72.9,77.2 M139.4,116.5c0.5,0,1.1,0.1,1.6,0.1C140.5,116.6,139.9,116.5,139.4,116.5
		 M133.6,116.1C133.6,116.1,133.6,116.1,133.6,116.1C133.6,116.1,133.6,116.1,133.6,116.1 M145.4,116.7c1.1,0,2.1,0.1,3.2,0.1
		c1.1,0,2.1-0.1,3.2-0.1c-1.1,0-2.1,0.1-3.2,0.1c0,0,0,0,0,0c0,0,0,0,0,0C147.5,116.8,146.4,116.7,145.4,116.7 M69.8,74.2
		c0.1,0.1,0.2,0.2,0.3,0.3C70,74.4,69.9,74.3,69.8,74.2 M227,74.5c0.1-0.1,0.2-0.2,0.3-0.3C227.2,74.3,227.1,74.4,227,74.5
		 M60.5,79.4c0.2,0.4,0.4,0.8,0.6,1.3C60.8,80.2,60.6,79.8,60.5,79.4 M61.3,81.2c0.3,0.6,0.7,1.2,1.1,1.8
		C62,82.3,61.7,81.7,61.3,81.2 M148.5,118.8L148.5,118.8L148.5,118.8L148.5,118.8c38.2,0,73.4-13.9,87.7-34.6
		c5-7.2,3.6-12.1,2.7-13.8c-1-2.2-3-3.5-5.1-3.5c-1.9,0-3.8,1-5.2,2.9c-13.7,17.4-44.3,28.2-80,28.2c-35.7,0-66.3-10.8-80-28.2
		c-1.5-1.9-3.3-2.9-5.2-2.9c-2.2,0-4.1,1.3-5.1,3.5c-0.8,1.7-2.2,6.6,2.7,13.8C75.2,104.9,110.4,118.8,148.5,118.8 M49.4,117.6
		c0-0.4-0.1-0.7-0.1-1.1C49.3,116.9,49.3,117.2,49.4,117.6 M49.4,113.9c0,0.3-0.1,0.6-0.1,0.9C49.3,114.5,49.3,114.2,49.4,113.9
		 M49.6,112.5c-0.1,0.3-0.2,0.7-0.2,1C49.5,113.2,49.5,112.9,49.6,112.5 M50,111.6c-0.1,0.2-0.2,0.5-0.3,0.7
		C49.8,112.1,49.9,111.9,50,111.6 M50.4,110.9c-0.1,0.2-0.2,0.3-0.3,0.5C50.2,111.2,50.3,111,50.4,110.9 M49.3,115.2
		c0,0.3,0,0.6,0,0.9C49.3,115.8,49.3,115.5,49.3,115.2 M51,110.3c-0.2,0.1-0.3,0.3-0.4,0.4C50.7,110.5,50.8,110.4,51,110.3
		 M51.1,110.2c0.2-0.1,0.4-0.2,0.6-0.3C51.5,109.9,51.3,110,51.1,110.2 M52.5,109.8c-0.2,0-0.4,0-0.5,0c0.1,0,0.2-0.1,0.4-0.1
		C52.3,109.8,52.4,109.8,52.5,109.8 M53.3,110c-0.2-0.1-0.4-0.1-0.5-0.2C52.9,109.9,53.1,109.9,53.3,110 M54.2,110.5
		c-0.2-0.1-0.4-0.3-0.6-0.4C53.8,110.2,54,110.4,54.2,110.5 M55.5,111.5c-0.3-0.3-0.7-0.6-1-0.9C54.8,110.9,55.1,111.2,55.5,111.5
		 M76.3,127.8c-0.1-0.1-0.3-0.2-0.4-0.3C76,127.6,76.1,127.7,76.3,127.8 M81.8,130.9c-0.3-0.2-0.6-0.3-0.9-0.5
		C81.2,130.6,81.5,130.8,81.8,130.9 M87.7,133.9c-0.5-0.2-0.9-0.4-1.4-0.6C86.8,133.5,87.2,133.7,87.7,133.9 M100.2,139.1
		c-0.7-0.3-1.4-0.5-2.1-0.7C98.8,138.6,99.5,138.8,100.2,139.1 M106.8,141.2c-0.8-0.2-1.6-0.5-2.4-0.7
		C105.2,140.8,106,141,106.8,141.2 M113.7,143.1c-0.9-0.2-1.8-0.4-2.7-0.6C112,142.7,112.9,142.9,113.7,143.1 M121,144.7
		c-1-0.2-2-0.3-3-0.5C119,144.3,120,144.5,121,144.7 M128.5,145.9c-1.1-0.1-2.2-0.3-3.2-0.4C126.4,145.6,127.5,145.7,128.5,145.9
		 M136.4,146.7c-1.2-0.1-2.3-0.2-3.5-0.3C134,146.6,135.2,146.6,136.4,146.7 M144.5,147.2c-1.2,0-2.5,0-3.7-0.1
		C142,147.1,143.3,147.1,144.5,147.2 M93.8,136.6c-0.6-0.2-1.2-0.5-1.7-0.7C92.6,136.1,93.2,136.4,93.8,136.6 M197.2,139.1
		c0.8-0.3,1.6-0.5,2.3-0.8C198.8,138.6,198,138.9,197.2,139.1 M190.6,141.3c0.9-0.3,1.7-0.5,2.6-0.8
		C192.3,140.8,191.5,141,190.6,141.3 M183.7,143.1c0.9-0.2,1.9-0.4,2.8-0.7C185.6,142.7,184.7,142.9,183.7,143.1 M176.5,144.7
		c1-0.2,2.1-0.4,3.1-0.6C178.5,144.3,177.5,144.5,176.5,144.7 M169,145.9c1.1-0.1,2.2-0.3,3.3-0.4
		C171.2,145.6,170.1,145.7,169,145.9 M161.2,146.7c1.2-0.1,2.4-0.2,3.5-0.3C163.5,146.6,162.3,146.6,161.2,146.7 M153.1,147.2
		c1.2,0,2.5,0,3.8-0.1C155.6,147.1,154.3,147.1,153.1,147.2 M211.3,133.3c-0.6,0.3-1.2,0.5-1.8,0.8
		C210.1,133.8,210.7,133.5,211.3,133.3 M216.7,130.5c-0.5,0.3-1,0.5-1.4,0.7C215.7,131,216.2,130.7,216.7,130.5 M221.8,127.5
		c-0.3,0.2-0.7,0.4-1,0.6C221.1,127.9,221.4,127.7,221.8,127.5 M226.5,124.4c-0.1,0.1-0.3,0.2-0.4,0.3
		C226.2,124.6,226.4,124.5,226.5,124.4 M230.9,121.3C230.9,121.3,230.9,121.3,230.9,121.3C230.9,121.3,230.9,121.3,230.9,121.3
		 M205.6,135.9c-0.7,0.3-1.3,0.5-2,0.8C204.2,136.4,204.9,136.2,205.6,135.9 M244,110.1c-0.2,0.1-0.4,0.2-0.6,0.4
		C243.6,110.4,243.8,110.2,244,110.1 M244.9,109.9c-0.2,0-0.4,0.1-0.5,0.2C244.5,109.9,244.7,109.9,244.9,109.9 M243.1,110.7
		c-0.3,0.2-0.6,0.5-1,0.9C242.5,111.2,242.8,110.9,243.1,110.7 M245.7,109.8c-0.2,0-0.3,0-0.5,0c0.1,0,0.1,0,0.2,0
		C245.4,109.8,245.6,109.8,245.7,109.8 M245.9,109.9c0.2,0.1,0.4,0.2,0.6,0.3C246.3,110,246.1,109.9,245.9,109.9 M247,110.7
		c-0.1-0.2-0.3-0.3-0.4-0.4C246.8,110.4,246.9,110.5,247,110.7 M247.5,111.4c-0.1-0.2-0.2-0.3-0.3-0.5
		C247.3,111,247.4,111.2,247.5,111.4 M247.9,112.4c-0.1-0.3-0.2-0.5-0.3-0.7C247.7,111.9,247.8,112.1,247.9,112.4 M248.2,113.6
		c-0.1-0.4-0.1-0.7-0.2-1.1C248.1,112.9,248.1,113.2,248.2,113.6 M248.3,114.8c0-0.3-0.1-0.6-0.1-0.9
		C248.3,114.2,248.3,114.5,248.3,114.8 M248.3,116.1c0-0.3,0-0.6,0-0.9C248.4,115.5,248.4,115.8,248.3,116.1 M248.2,117.7
		c0.1-0.4,0.1-0.9,0.1-1.3C248.3,116.9,248.3,117.3,248.2,117.7 M247.6,120.8c0.1-0.4,0.2-0.7,0.3-1.1
		C247.8,120,247.7,120.4,247.6,120.8 M247.1,122.3c0.1-0.4,0.3-0.7,0.4-1.1C247.3,121.6,247.2,122,247.1,122.3 M248,119.3
		c0.1-0.5,0.2-1,0.2-1.4C248.1,118.3,248.1,118.8,248,119.3 M244.3,127.5c0.2-0.3,0.3-0.5,0.5-0.8
		C244.6,127,244.4,127.3,244.3,127.5 M243,129.2c0.1-0.1,0.2-0.2,0.3-0.3C243.2,129,243.1,129.1,243,129.2 M245.4,125.9
		c0.3-0.5,0.6-1.1,0.9-1.6c0.2-0.5,0.5-1,0.7-1.5c-0.2,0.5-0.4,1-0.7,1.5C246,124.8,245.7,125.3,245.4,125.9 M241.5,130.9
		c0.1-0.1,0.1-0.1,0.2-0.2C241.6,130.8,241.6,130.8,241.5,130.9 M239.9,132.6c0.1-0.1,0.3-0.3,0.4-0.4
		C240.1,132.3,240,132.5,239.9,132.6 M238.1,134.3c0.2-0.2,0.4-0.3,0.5-0.5C238.4,134,238.3,134.2,238.1,134.3 M236.1,136.1
		c0.1-0.1,0.3-0.2,0.4-0.3C236.3,135.8,236.2,136,236.1,136.1 M233.9,137.8c0.1-0.1,0.2-0.1,0.3-0.2
		C234.1,137.6,234,137.7,233.9,137.8 M231.7,139.5c0.1-0.1,0.2-0.2,0.4-0.3C231.9,139.3,231.8,139.4,231.7,139.5 M229.2,141.2
		c0.1-0.1,0.2-0.2,0.3-0.2C229.4,141,229.3,141.1,229.2,141.2 M226.6,142.9c0.1-0.1,0.3-0.2,0.4-0.3
		C226.9,142.7,226.8,142.8,226.6,142.9 M223.9,144.5c0.1,0,0.2-0.1,0.3-0.2C224.1,144.4,224,144.5,223.9,144.5 M221,146.2
		c0.1,0,0.2-0.1,0.3-0.1C221.2,146.1,221.1,146.1,221,146.2 M218.1,147.8c0.1-0.1,0.3-0.1,0.4-0.2
		C218.3,147.6,218.2,147.7,218.1,147.8 M214.9,149.3c0.2-0.1,0.3-0.2,0.5-0.2C215.3,149.1,215.1,149.2,214.9,149.3 M211.7,150.8
		c0.1-0.1,0.3-0.1,0.4-0.2C212,150.7,211.9,150.7,211.7,150.8 M208.4,152.3c0.2-0.1,0.4-0.2,0.6-0.2
		C208.8,152.1,208.6,152.2,208.4,152.3 M204.9,153.7c0.2-0.1,0.4-0.2,0.6-0.3C205.4,153.5,205.2,153.6,204.9,153.7 M201.4,155
		c0.2-0.1,0.4-0.2,0.6-0.2C201.8,154.9,201.6,154.9,201.4,155 M197.8,156.3c0.2-0.1,0.5-0.2,0.7-0.2
		C198.2,156.1,198,156.2,197.8,156.3 M194,157.5c0.3-0.1,0.5-0.2,0.8-0.3C194.6,157.3,194.3,157.4,194,157.5 M190.2,158.6
		c0.3-0.1,0.6-0.2,0.9-0.3C190.8,158.4,190.5,158.5,190.2,158.6 M186.3,159.7c0.3-0.1,0.6-0.2,1-0.3
		C187,159.5,186.7,159.6,186.3,159.7 M182.4,160.6c0.4-0.1,0.7-0.2,1.1-0.3C183.1,160.5,182.7,160.5,182.4,160.6 M178.3,161.5
		c0.4-0.1,0.8-0.2,1.2-0.3C179.2,161.3,178.8,161.4,178.3,161.5 M174.2,162.3c0.5-0.1,1-0.2,1.5-0.3
		C175.2,162.1,174.7,162.2,174.2,162.3 M170.1,162.9c0.5-0.1,1-0.2,1.6-0.2C171.1,162.8,170.6,162.9,170.1,162.9 M165.9,163.5
		c0.6-0.1,1.1-0.1,1.7-0.2C167,163.3,166.5,163.4,165.9,163.5 M161.6,163.9c0.6-0.1,1.2-0.1,1.8-0.2
		C162.9,163.8,162.3,163.9,161.6,163.9 M157.4,164.3c0.7,0,1.3-0.1,2-0.1C158.7,164.2,158,164.2,157.4,164.3 M153,164.5
		c0.7,0,1.4-0.1,2.1-0.1C154.5,164.4,153.8,164.4,153,164.5 M142.4,164.4c0.7,0,1.4,0.1,2.2,0.1
		C143.8,164.4,143.1,164.4,142.4,164.4 M138.2,164.1c0.7,0.1,1.4,0.1,2,0.2C139.6,164.2,138.9,164.2,138.2,164.1 M134.1,163.7
		c0.6,0.1,1.3,0.1,1.9,0.2C135.3,163.9,134.7,163.8,134.1,163.7 M130,163.3c0.6,0.1,1.2,0.2,1.7,0.2
		C131.1,163.4,130.6,163.3,130,163.3 M125.9,162.7c0.5,0.1,1.1,0.2,1.6,0.3C127,162.9,126.4,162.8,125.9,162.7 M121.9,162
		c0.5,0.1,1,0.2,1.5,0.3C122.9,162.2,122.4,162.1,121.9,162 M118,161.2c0.4,0.1,0.9,0.2,1.3,0.3C118.8,161.4,118.4,161.3,118,161.2
		 M114.1,160.4c0.4,0.1,0.7,0.2,1.1,0.3C114.9,160.5,114.5,160.4,114.1,160.4 M110.2,159.4c0.3,0.1,0.7,0.2,1,0.3
		C110.9,159.6,110.6,159.5,110.2,159.4 M106.4,158.3c0.3,0.1,0.7,0.2,1,0.3C107,158.5,106.7,158.4,106.4,158.3 M102.6,157.2
		c0.3,0.1,0.6,0.2,0.9,0.3C103.3,157.4,103,157.3,102.6,157.2 M99,156c0.3,0.1,0.5,0.2,0.8,0.3C99.6,156.2,99.3,156.1,99,156
		 M95.4,154.7c0.3,0.1,0.5,0.2,0.8,0.3C95.9,154.9,95.7,154.8,95.4,154.7 M91.8,153.3c0.3,0.1,0.6,0.2,0.8,0.3
		C92.4,153.6,92.1,153.4,91.8,153.3 M88.4,151.9c0.3,0.1,0.5,0.2,0.8,0.4C89,152.2,88.7,152,88.4,151.9 M85.1,150.5
		c0.3,0.1,0.5,0.2,0.8,0.4C85.6,150.7,85.4,150.6,85.1,150.5 M81.9,148.9c0.3,0.1,0.5,0.3,0.8,0.4C82.4,149.2,82.1,149,81.9,148.9
		 M78.7,147.3c0.3,0.2,0.6,0.3,0.9,0.5C79.3,147.6,79,147.4,78.7,147.3 M75.7,145.7c0.3,0.2,0.6,0.3,0.9,0.5
		C76.3,146,76,145.8,75.7,145.7 M72.8,144c0.3,0.2,0.6,0.4,0.9,0.5C73.4,144.4,73.1,144.2,72.8,144 M69.9,142.2
		c0.4,0.2,0.7,0.5,1.1,0.7C70.6,142.7,70.3,142.4,69.9,142.2 M67.3,140.4c0.4,0.3,0.7,0.5,1.1,0.8C68,140.9,67.6,140.7,67.3,140.4
		 M64.8,138.6c0.4,0.3,0.8,0.6,1.2,0.9C65.6,139.2,65.2,138.9,64.8,138.6 M62.5,136.9c0.4,0.3,0.7,0.6,1.1,0.9
		C63.3,137.5,62.9,137.2,62.5,136.9 M60.2,134.9c0.4,0.4,0.9,0.8,1.3,1.1C61.1,135.7,60.6,135.3,60.2,134.9 M58.2,133
		c0.5,0.4,0.9,0.9,1.4,1.3C59.1,133.9,58.6,133.5,58.2,133 M148.9,164.5c0,0-0.1,0-0.1,0c0,0-0.1,0-0.1,0c-0.7,0-1.4,0-2.1,0
		c0.7,0,1.4,0,2.2,0c0.7,0,1.4,0,2.2,0C150.3,164.5,149.6,164.5,148.9,164.5 M56.6,131.5c0.4,0.4,0.7,0.8,1.1,1.2
		C57.3,132.2,57,131.8,56.6,131.5 M53.6,127.9c0.3,0.4,0.6,0.8,1,1.3C54.3,128.8,54,128.4,53.6,127.9 M52.3,126c0.3,0.5,0.7,1,1,1.6
		C53,127,52.6,126.5,52.3,126 M55.1,129.8c0.3,0.4,0.6,0.8,1,1.1C55.7,130.5,55.4,130.2,55.1,129.8 M50.2,121.3
		c0.1,0.3,0.2,0.7,0.3,1C50.4,122,50.3,121.6,50.2,121.3 M49.7,119.7c0.1,0.3,0.2,0.7,0.3,1C49.9,120.4,49.8,120.1,49.7,119.7
		 M49.4,117.9c0.1,0.5,0.1,0.9,0.2,1.4C49.5,118.8,49.5,118.3,49.4,117.9 M50.7,122.8c0.2,0.5,0.4,1,0.6,1.5
		c0.3,0.5,0.6,1.1,0.9,1.6c-0.3-0.6-0.6-1.1-0.9-1.6C51.1,123.7,50.9,123.3,50.7,122.8 M148.5,166.6
		C148.5,166.6,148.6,166.6,148.5,166.6l0.5,0c0,0,0,0,0.1,0c48.6-0.2,90.4-24.2,98.9-41.4c2.6-5.3,3.1-11.6,1.1-15
		c-0.9-1.6-2.2-2.4-3.8-2.4c-1.5,0-3,0.8-4.5,2.3c-6.6,6.7-18.3,16.3-35.9,23.9c-17.2,7.4-36.1,11.2-56.1,11.3
		c-20,0-38.9-3.8-56.1-11.3c-17.6-7.6-29.3-17.2-35.9-23.9c-1.5-1.5-3-2.3-4.5-2.3c-1.6,0-2.9,0.9-3.8,2.4c-2,3.5-1.5,9.8,1.1,15
		C58.2,142.4,99.9,166.4,148.5,166.6 M36.8,159.5c-0.1-0.5-0.2-1-0.2-1.5C36.6,158.5,36.7,159,36.8,159.5 M36.5,156.5
		c0,0.4,0,0.8,0,1.2C36.5,157.3,36.5,156.9,36.5,156.5 M36.6,155.2c0,0.3-0.1,0.6-0.1,0.9C36.6,155.8,36.6,155.5,36.6,155.2
		 M37.2,152.5c-0.1,0.3-0.2,0.7-0.3,1C37,153.2,37.1,152.9,37.2,152.5 M37.7,151.7c-0.1,0.2-0.2,0.4-0.3,0.7
		C37.4,152.1,37.6,151.9,37.7,151.7 M38.2,150.9c-0.1,0.1-0.3,0.3-0.4,0.5C38,151.2,38.1,151.1,38.2,150.9 M36.8,153.8
		c-0.1,0.3-0.1,0.6-0.2,0.9C36.7,154.4,36.8,154.1,36.8,153.8 M39.7,150c-0.2,0.1-0.5,0.1-0.7,0.3C39.2,150.1,39.5,150.1,39.7,150
		 M38.9,150.3c-0.2,0.1-0.4,0.3-0.5,0.4C38.6,150.6,38.8,150.4,38.9,150.3 M40.4,150c-0.2,0-0.4,0-0.5,0c0.1,0,0.2,0,0.4,0
		C40.3,149.9,40.4,149.9,40.4,150 M41.2,150.1c-0.2-0.1-0.3-0.1-0.5-0.1C40.9,150,41,150.1,41.2,150.1 M42,150.6
		c-0.2-0.1-0.4-0.2-0.5-0.3C41.7,150.3,41.9,150.5,42,150.6 M43.1,151.6c-0.3-0.3-0.5-0.6-0.8-0.8C42.6,151,42.8,151.2,43.1,151.6
		 M255.9,150.3c-0.2,0.1-0.4,0.2-0.5,0.3C255.5,150.5,255.7,150.3,255.9,150.3 M256.7,150c-0.2,0-0.3,0.1-0.5,0.1
		C256.4,150.1,256.5,150,256.7,150 M255.1,150.8c-0.3,0.2-0.5,0.5-0.8,0.8C254.5,151.2,254.8,151,255.1,150.8 M258.4,150.3
		c-0.2-0.1-0.4-0.2-0.7-0.3C257.9,150.1,258.2,150.1,258.4,150.3 M257.5,150c-0.2,0-0.4,0-0.5,0c0.1,0,0.1,0,0.2,0
		C257.3,149.9,257.4,150,257.5,150 M259,150.7c-0.2-0.2-0.4-0.3-0.5-0.4C258.6,150.4,258.8,150.6,259,150.7 M259.5,151.4
		c-0.1-0.2-0.3-0.3-0.4-0.5C259.3,151.1,259.4,151.2,259.5,151.4 M260.1,152.3c-0.1-0.2-0.2-0.5-0.4-0.7
		C259.8,151.9,259.9,152.1,260.1,152.3 M260.5,153.6c-0.1-0.4-0.2-0.7-0.3-1C260.3,152.9,260.4,153.2,260.5,153.6 M260.8,156.1
		c0-0.3,0-0.6-0.1-0.9C260.8,155.5,260.8,155.8,260.8,156.1 M260.7,154.8c0-0.3-0.1-0.6-0.2-0.9
		C260.6,154.1,260.7,154.4,260.7,154.8 M260.6,159.5c0.1-0.5,0.2-1,0.2-1.5C260.8,158.5,260.7,159,260.6,159.5 M260.8,157.7
		c0-0.4,0-0.8,0-1.2C260.9,156.9,260.8,157.3,260.8,157.7 M259.7,162.9c0.1-0.4,0.3-0.8,0.4-1.2C260,162.1,259.8,162.5,259.7,162.9
		 M258.7,165.2c0.3-0.6,0.5-1.2,0.8-1.8C259.3,164.1,259,164.6,258.7,165.2 M260.2,161.2c0.1-0.4,0.2-0.8,0.3-1.2
		C260.4,160.4,260.3,160.8,260.2,161.2 M37.3,161.7c0.1,0.4,0.2,0.8,0.4,1.2C37.6,162.5,37.4,162.1,37.3,161.7 M36.9,160
		c0.1,0.4,0.2,0.8,0.3,1.2C37,160.8,37,160.4,36.9,160 M37.9,163.5c0.2,0.6,0.5,1.2,0.8,1.8C38.4,164.6,38.1,164.1,37.9,163.5
		 M148.6,215h0.2c55.2,0,100.1-24.9,111.7-48.9c2.7-5.7,3.1-11.8,1-15.5c-1-1.8-2.6-2.8-4.3-2.8c-1,0-2.6,0.4-4.3,2.3
		c-11.1,12.7-43.6,42.4-104.1,42.4h-0.2c-60.5,0-92.9-29.7-104.1-42.4c-1.7-1.9-3.2-2.3-4.3-2.3c-1.7,0-3.2,1-4.3,2.8
		c-2.1,3.7-1.8,9.8,1,15.5C48.5,190.2,93.4,215,148.6,215 M273.1,202.8c0.1-0.4,0.2-0.8,0.3-1.1
		C273.3,202.1,273.2,202.4,273.1,202.8 M273.5,201.2c0.2-1.1,0.3-2.1,0.3-3.1C273.8,199.1,273.7,200.1,273.5,201.2 M272.5,204.5
		c0.2-0.4,0.3-0.8,0.4-1.1C272.8,203.7,272.6,204.1,272.5,204.5 M271.4,206.6c0.3-0.5,0.6-1.1,0.8-1.6
		C272,205.5,271.7,206.1,271.4,206.6 M24.5,203.4c0.1,0.4,0.3,0.8,0.4,1.1C24.8,204.1,24.6,203.7,24.5,203.4 M25.1,205
		c0.3,0.5,0.5,1.1,0.8,1.6C25.7,206.1,25.4,205.5,25.1,205 M24,201.7c0.1,0.4,0.2,0.7,0.3,1.1C24.2,202.4,24.1,202.1,24,201.7
		 M23.7,199.7c0,0.5,0.1,1,0.2,1.5C23.8,200.7,23.7,200.2,23.7,199.7 M23.6,198.1c0,0.5,0,1,0.1,1.5
		C23.6,199.1,23.6,198.6,23.6,198.1 M23.7,196.7c0,0.3-0.1,0.6-0.1,1C23.6,197.3,23.6,197,23.7,196.7 M23.9,195.3
		c-0.1,0.3-0.1,0.6-0.2,0.9C23.8,195.9,23.8,195.6,23.9,195.3 M24.3,193.8c-0.1,0.3-0.2,0.7-0.3,1.1
		C24.1,194.5,24.2,194.1,24.3,193.8 M24.8,192.7c-0.2,0.3-0.3,0.6-0.5,1C24.5,193.3,24.7,193,24.8,192.7 M25.4,191.9
		c-0.1,0.2-0.3,0.4-0.4,0.6C25.1,192.2,25.3,192,25.4,191.9 M27,190.7c-0.2,0.1-0.5,0.2-0.7,0.3C26.5,190.9,26.8,190.8,27,190.7
		 M26.1,191.2c-0.2,0.1-0.3,0.3-0.5,0.4C25.8,191.5,25.9,191.3,26.1,191.2 M27.8,190.6c-0.3,0-0.5,0-0.8,0.1
		C27.2,190.6,27.5,190.6,27.8,190.6C27.7,190.6,27.8,190.6,27.8,190.6 M28.6,190.8c-0.2-0.1-0.4-0.1-0.6-0.1
		C28.2,190.7,28.4,190.7,28.6,190.8 M29.5,191.3c-0.2-0.1-0.4-0.3-0.6-0.4C29.1,191,29.3,191.1,29.5,191.3 M30.6,192.4
		c-0.3-0.4-0.6-0.6-0.9-0.9C30.1,191.7,30.3,192,30.6,192.4 M267.6,191.5c-0.3,0.2-0.6,0.5-0.9,0.9C267,192,267.3,191.7,267.6,191.5
		 M268.5,190.9c-0.2,0.1-0.4,0.2-0.6,0.4C268.1,191.1,268.3,191,268.5,190.9 M269.3,190.6c-0.2,0-0.4,0.1-0.6,0.1
		C269,190.7,269.1,190.7,269.3,190.6 M271.1,191c-0.2-0.1-0.5-0.3-0.7-0.3C270.6,190.8,270.9,190.9,271.1,191 M270.4,190.7
		c-0.3-0.1-0.5-0.1-0.8-0.1c0,0,0.1,0,0.1,0C269.9,190.6,270.1,190.6,270.4,190.7 M271.8,191.6c-0.1-0.2-0.3-0.3-0.4-0.4
		C271.5,191.3,271.6,191.5,271.8,191.6 M272.4,192.4c-0.1-0.2-0.3-0.4-0.4-0.6C272.1,192,272.3,192.2,272.4,192.4 M273,193.7
		c-0.1-0.4-0.3-0.7-0.5-1C272.7,193,272.9,193.3,273,193.7 M273.4,194.9c-0.1-0.4-0.2-0.8-0.3-1.1
		C273.2,194.1,273.3,194.5,273.4,194.9 M273.6,196.2c0-0.3-0.1-0.6-0.2-0.9C273.6,195.6,273.6,195.9,273.6,196.2 M273.8,197.7
		c0-0.3,0-0.7-0.1-1C273.7,197,273.8,197.3,273.8,197.7 M274.4,191.9c-1.1-2.2-2.8-3.4-4.7-3.4c-1.1,0-2.7,0.4-4.4,2.5
		c-34.2,42.6-87.7,48.9-116.5,48.9h-0.2c-28.8,0-82.2-6.4-116.5-48.9c-1.7-2.1-3.3-2.5-4.4-2.5c-1.9,0-3.6,1.2-4.7,3.4
		c-1.8,3.5-2.2,10,1.4,15.8c17.1,28.1,65.2,56.5,124.2,56.5h0.2c59,0,107.1-28.4,124.2-56.5C276.5,201.9,276.2,195.5,274.4,191.9"/>
</g>
</svg>
