<?xml version="1.0" encoding="utf-8"?>
<!-- Generator: Adobe Illustrator 18.0.0, SVG Export Plug-In . SVG Version: 6.00 Build 0)  -->
<!DOCTYPE svg PUBLIC "-//W3C//DTD SVG 1.1//EN" "http://www.w3.org/Graphics/SVG/1.1/DTD/svg11.dtd">
<svg version="1.1" id="Insulation" xmlns="http://www.w3.org/2000/svg" xmlns:xlink="http://www.w3.org/1999/xlink" x="0px" y="0px"
	 viewBox="0 0 111.3 111.3" enable-background="new 0 0 111.3 111.3" xml:space="preserve">
<circle fill="#00AAED" cx="55.6" cy="56.1" r="54.4"/>
<g>
	<defs>
		<circle id="SVGID_1_" cx="55.6" cy="56.1" r="54.4"/>
	</defs>
	<clipPath id="SVGID_2_">
		<use xlink:href="#SVGID_1_"  overflow="visible"/>
	</clipPath>
	<polygon clip-path="url(#SVGID_2_)" fill="#0092D3" points="76.9,39.7 74.4,42.2 55.5,23.3 22.4,56.4 33,67.1 33,81.7 34,82.6 
		32.6,84 81.1,132.5 125.4,88.2 	"/>
</g>
<g>
	<g>
		<path fill="none" stroke="#FFFFFF" stroke-width="3.4316" stroke-linecap="round" stroke-miterlimit="10" d="M33.1,46.4v34.3
			c0,2.2,1.2,2.7,2.5,2.7h39.9c1.3,0,2.5-0.3,2.5-2.7V46.4"/>
	</g>
	<g>
		
			<polyline fill="none" stroke="#FFFFFF" stroke-width="2.5542" stroke-linecap="round" stroke-linejoin="round" stroke-miterlimit="10" points="
			38.9,77.5 38.9,51.1 55.6,34.4 72.4,51.1 72.4,77.5 		"/>
	</g>
	<g>
		
			<line fill="none" stroke="#FFFFFF" stroke-width="6.8632" stroke-linecap="round" stroke-linejoin="round" stroke-miterlimit="10" x1="55.6" y1="23.3" x2="86.3" y2="54.1"/>
		
			<line fill="none" stroke="#FFFFFF" stroke-width="6.8632" stroke-linecap="round" stroke-linejoin="round" stroke-miterlimit="10" x1="55.6" y1="23.3" x2="24.9" y2="54.1"/>
	</g>
</g>
</svg>
