<?xml version="1.0" encoding="utf-8"?>
<!-- Generator: Adobe Illustrator 17.1.0, SVG Export Plug-In . SVG Version: 6.00 Build 0)  -->
<!DOCTYPE svg PUBLIC "-//W3C//DTD SVG 1.1//EN" "http://www.w3.org/Graphics/SVG/1.1/DTD/svg11.dtd">
<svg version="1.1" id="Layer_1" xmlns="http://www.w3.org/2000/svg" xmlns:xlink="http://www.w3.org/1999/xlink" x="0px" y="0px"
	 viewBox="0 0 144.3 29.2" enable-background="new 0 0 144.3 29.2" xml:space="preserve">
<g>
	<linearGradient id="SVGID_1_" gradientUnits="userSpaceOnUse" x1="3.0107" y1="12.2223" x2="142.5069" y2="12.2223">
		<stop  offset="0" style="stop-color:#302D7F"/>
		<stop  offset="0.2099" style="stop-color:#0064A9"/>
		<stop  offset="0.5" style="stop-color:#00B1EB"/>
		<stop  offset="1" style="stop-color:#DDDD2B"/>
	</linearGradient>
	<path fill="url(#SVGID_1_)" d="M22.9,20.6V8.1c0-1.1-0.5-1.5-1.6-1.5c-1.3,0-3.7,0.7-5.5,1.7v12.4H13V8.1c0-1.1-0.5-1.5-1.6-1.5
		c-1.2,0-3.7,0.7-5.5,1.7v12.4H3.1V4.2h2.3l0.3,1.4c1.8-0.9,4.7-1.8,6.6-1.8c1.7,0,2.7,0.6,3.1,1.8c2-0.9,4.7-1.8,6.8-1.8
		c2.6,0,3.6,1.7,3.6,4.2v12.6H22.9z"/>
	<linearGradient id="SVGID_2_" gradientUnits="userSpaceOnUse" x1="3.0105" y1="15.7119" x2="142.5031" y2="15.7119">
		<stop  offset="0" style="stop-color:#302D7F"/>
		<stop  offset="0.2099" style="stop-color:#0064A9"/>
		<stop  offset="0.5" style="stop-color:#00B1EB"/>
		<stop  offset="1" style="stop-color:#DDDD2B"/>
	</linearGradient>
	<path fill="url(#SVGID_2_)" d="M35.1,20.6h-1.2L28.6,4.2h2.8l4.5,14.2l4.6-14.2h2.8l-5.4,16.4l-2.3,6.6h-2.7L35.1,20.6z"/>
	<linearGradient id="SVGID_3_" gradientUnits="userSpaceOnUse" x1="3.0051" y1="12.391" x2="142.5148" y2="12.391">
		<stop  offset="0" style="stop-color:#302D7F"/>
		<stop  offset="0.2099" style="stop-color:#0064A9"/>
		<stop  offset="0.5" style="stop-color:#00B1EB"/>
		<stop  offset="1" style="stop-color:#DDDD2B"/>
	</linearGradient>
	<path fill="url(#SVGID_3_)" d="M57.9,17.6c1.6,0,3.2-0.2,5-0.8l0.6,3.1c-1.9,0.7-4.1,1-6,1c-5.2,0-6.9-2.4-6.9-6.3v-4.3
		c0-3.5,1.6-6.4,6.8-6.4s6.4,3.1,6.4,6.6V14h-9.1v0.8C54.7,16.8,55.5,17.6,57.9,17.6z M54.7,10.7H60V9.8c0-1.6-0.5-2.6-2.5-2.6
		c-2,0-2.7,1.1-2.7,2.6V10.7z"/>
	<linearGradient id="SVGID_4_" gradientUnits="userSpaceOnUse" x1="3.0114" y1="12.2223" x2="142.5047" y2="12.2223">
		<stop  offset="0" style="stop-color:#302D7F"/>
		<stop  offset="0.2099" style="stop-color:#0064A9"/>
		<stop  offset="0.5" style="stop-color:#00B1EB"/>
		<stop  offset="1" style="stop-color:#DDDD2B"/>
	</linearGradient>
	<path fill="url(#SVGID_4_)" d="M76.5,20.6V9.1c0-0.9-0.4-1.3-1.3-1.3c-1,0-2.8,0.6-4.3,1.4v11.4h-4.1V4.2h3.1l0.4,1.4
		c2.1-1,4.7-1.7,6.6-1.7c2.7,0,3.7,1.9,3.7,4.9v11.9H76.5z"/>
	<linearGradient id="SVGID_5_" gradientUnits="userSpaceOnUse" x1="3.0048" y1="12.391" x2="142.5092" y2="12.391">
		<stop  offset="0" style="stop-color:#302D7F"/>
		<stop  offset="0.2099" style="stop-color:#0064A9"/>
		<stop  offset="0.5" style="stop-color:#00B1EB"/>
		<stop  offset="1" style="stop-color:#DDDD2B"/>
	</linearGradient>
	<path fill="url(#SVGID_5_)" d="M90.9,17.6c1.6,0,3.2-0.2,5-0.8l0.6,3.1c-1.9,0.7-4.1,1-6,1c-5.2,0-6.9-2.4-6.9-6.3v-4.3
		c0-3.5,1.6-6.4,6.8-6.4c5.3,0,6.4,3.1,6.4,6.6V14h-9.1v0.8C87.6,16.8,88.4,17.6,90.9,17.6z M87.6,10.7h5.2V9.8
		c0-1.6-0.5-2.6-2.5-2.6c-2,0-2.7,1.1-2.7,2.6V10.7z"/>
	<linearGradient id="SVGID_6_" gradientUnits="userSpaceOnUse" x1="3.0143" y1="12.2223" x2="142.5042" y2="12.2223">
		<stop  offset="0" style="stop-color:#302D7F"/>
		<stop  offset="0.2099" style="stop-color:#0064A9"/>
		<stop  offset="0.5" style="stop-color:#00B1EB"/>
		<stop  offset="1" style="stop-color:#DDDD2B"/>
	</linearGradient>
	<path fill="url(#SVGID_6_)" d="M108.1,7.6c-1.6,0.7-2.9,1.4-4.4,2.4v10.6h-4.1V4.2h3.5l0.3,1.8c0.9-0.6,2.9-1.8,4.3-2.2L108.1,7.6z
		"/>
	<linearGradient id="SVGID_7_" gradientUnits="userSpaceOnUse" x1="3.0049" y1="15.7129" x2="142.5053" y2="15.7129">
		<stop  offset="0" style="stop-color:#302D7F"/>
		<stop  offset="0.2099" style="stop-color:#0064A9"/>
		<stop  offset="0.5" style="stop-color:#00B1EB"/>
		<stop  offset="1" style="stop-color:#DDDD2B"/>
	</linearGradient>
	<path fill="url(#SVGID_7_)" d="M114.3,20.4c-3.5,0-5-2.2-5-5.6v-4.3c0-4,1.2-6.6,7.6-6.6c1.6,0,4.3,0.2,6.4,0.6v17.4
		c0,3.3-2,5.8-6.9,5.8c-1.8,0-4.3-0.3-6-0.9l0.6-3.3c1.8,0.4,3.2,0.6,5.2,0.6c2.2,0,3-0.7,3-2.4v-2.2C118,20,116.1,20.4,114.3,20.4z
		 M119.2,7.5c-0.7-0.1-1.6-0.1-2.5-0.1c-2.7,0-3.2,1.1-3.2,3v4.6c0,1.3,0.6,2,2.1,2c1.1,0,2.6-0.5,3.6-0.9V7.5z"/>
	<linearGradient id="SVGID_8_" gradientUnits="userSpaceOnUse" x1="2.9978" y1="15.7119" x2="142.5065" y2="15.7119">
		<stop  offset="0" style="stop-color:#302D7F"/>
		<stop  offset="0.2099" style="stop-color:#0064A9"/>
		<stop  offset="0.5" style="stop-color:#00B1EB"/>
		<stop  offset="1" style="stop-color:#DDDD2B"/>
	</linearGradient>
	<path fill="url(#SVGID_8_)" d="M136,20.6l-2.2,6.6h-3.9l2.1-6.6h-1.5l-5.2-16.4h4.2l3.7,12.5L137,4.2h4.2L136,20.6z"/>
</g>
</svg>
