<?xml version="1.0" encoding="utf-8"?>
<!-- Generator: Adobe Illustrator 18.0.0, SVG Export Plug-In . SVG Version: 6.00 Build 0)  -->
<!DOCTYPE svg PUBLIC "-//W3C//DTD SVG 1.1//EN" "http://www.w3.org/Graphics/SVG/1.1/DTD/svg11.dtd">
<svg version="1.1" id="three" xmlns="http://www.w3.org/2000/svg" xmlns:xlink="http://www.w3.org/1999/xlink" x="0px" y="0px"
	 viewBox="0 0 111.3 111.3" enable-background="new 0 0 111.3 111.3" xml:space="preserve">
<circle fill="#00AAED" cx="55.7" cy="56" r="54.3"/>
<g>
	<defs>
		<circle id="SVGID_1_" cx="55.7" cy="56" r="54.3"/>
	</defs>
	<clipPath id="SVGID_2_">
		<use xlink:href="#SVGID_1_"  overflow="visible"/>
	</clipPath>
	<path clip-path="url(#SVGID_2_)" fill="#0092D3" d="M65.6,35.7l-1.4,2.5c-1.9-1.5-5.2-3.3-10.6-3.3c-9.7,0-15.6,6.9-15.6,6.9l14,14
		l-2.7,3.3L62.1,72l-4.4,7.5L45.9,67.7L38.4,71l2.8,6l42.6,42.6l32.9-32.9L65.6,35.7z"/>
</g>
<g>
	<path fill="#FFFFFF" d="M49.2,51.7h2.1c4.7,0,9.4-0.7,9.4-6.6c0-3.7-2.9-6.4-6.9-6.4c-3.3,0-6.1,2-7.2,5.3l-8.7-2.3
		c2.1-7.2,8.4-10.4,15.5-10.4c8.3,0,15.5,4.4,15.5,12.9c0,5.2-3.1,9.6-8.3,10.9v0.1c6.1,0.9,9.4,5.8,9.4,11.7
		c0,9.2-7.7,14.3-16.3,14.3c-7.9,0-14.5-3.3-16.6-11.3l8.7-2.3c1,4,3.5,6.3,7.9,6.3s8.1-3.1,8.1-7.6c0-6.3-5.7-7.4-10.7-7.4h-2V51.7
		z"/>
</g>
</svg>
