<?xml version="1.0" encoding="utf-8"?>
<!-- Generator: Adobe Illustrator 18.0.0, SVG Export Plug-In . SVG Version: 6.00 Build 0)  -->
<!DOCTYPE svg PUBLIC "-//W3C//DTD SVG 1.1//EN" "http://www.w3.org/Graphics/SVG/1.1/DTD/svg11.dtd">
<svg version="1.1" xmlns="http://www.w3.org/2000/svg" xmlns:xlink="http://www.w3.org/1999/xlink" x="0px" y="0px"
	 viewBox="0 0 111.3 111.3" enable-background="new 0 0 111.3 111.3" xml:space="preserve">
<g id="Layer_1" display="none">
	<circle display="inline" fill="#F2F2F2" cx="55.6" cy="56.2" r="54.5"/>
</g>
<g id="Breakdowns">
	<g>
		<g>
			
				<path fill="#FFFFFF" stroke="#0B2F6B" stroke-width="4.1456" stroke-linecap="round" stroke-linejoin="round" stroke-miterlimit="10" d="
				M104.4,87.2c0,2.8-2.3,5.1-5.1,5.1H29.1c-2.8,0-5.1-2.3-5.1-5.1V48.5c0-2.8,2.3-5.1,5.1-5.1h70.2c2.8,0,5.1,2.3,5.1,5.1V87.2z"/>
			<path fill="none" stroke="#0B2F6B" stroke-width="6.2184" stroke-linejoin="round" stroke-miterlimit="10" d="M47.5,44.1V33.8
				c0-3.4,2.8-6.2,6.2-6.2h21c3.4,0,6.2,2.8,6.2,6.2v10.4"/>
			<g>
				<rect x="39.1" y="55.9" fill="#0B2F6B" width="9.2" height="11.9"/>
				<rect x="80.1" y="55.9" fill="#0B2F6B" width="9.2" height="11.9"/>
			</g>
		</g>
		<line fill="none" stroke="#0B2F6B" stroke-width="2.0728" stroke-miterlimit="10" x1="23.9" y1="62.1" x2="104.4" y2="62.1"/>
	</g>
	<g>
		
			<circle fill="#FFFFFF" stroke="#0B2F6B" stroke-width="4.1456" stroke-linecap="round" stroke-linejoin="round" stroke-miterlimit="10" cx="32" cy="52.6" r="24.7"/>
		<g>
			<path fill="#FFFFFF" d="M32,36.8c-8.7,0-15.8,7.1-15.8,15.8S23.2,68.4,32,68.4"/>
			<g>
				<path fill="none" stroke="#0B2F6B" stroke-width="3.7723" stroke-miterlimit="10" d="M32,36.8c-1.2,0-2.3,0.1-3.4,0.4"/>
				
					<path fill="none" stroke="#0B2F6B" stroke-width="3.7723" stroke-miterlimit="10" stroke-dasharray="3.8948,3.8948,3.8948,3.8948" d="
					M24.9,38.4c-4.1,2-7.1,5.8-8.3,10.3"/>
				
					<path fill="none" stroke="#0B2F6B" stroke-width="3.7723" stroke-miterlimit="10" stroke-dasharray="3.8948,3.8948,3.8948,3.8948,3.8948,3.8948" d="
					M16.3,50.6c-0.1,0.6-0.1,1.3-0.1,1.9c0,6.9,4.4,12.7,10.5,14.9"/>
				<path fill="none" stroke="#0B2F6B" stroke-width="3.7723" stroke-miterlimit="10" d="M28.6,68c1.1,0.2,2.2,0.4,3.4,0.4"/>
			</g>
		</g>
		<circle fill="#0B2F6B" cx="32" cy="52.6" r="3.6"/>
		
			<line fill="none" stroke="#0B2F6B" stroke-width="2.0728" stroke-linecap="round" stroke-linejoin="round" stroke-miterlimit="10" x1="32" y1="49" x2="32" y2="42.6"/>
		<rect x="28.2" y="20.7" fill="#0B2F6B" width="7.6" height="7.6"/>
		
			<rect x="8.3" y="28.9" transform="matrix(0.7071 -0.7071 0.7071 0.7071 -19.5964 18.1508)" fill="#0B2F6B" width="7.6" height="7.6"/>
		<rect x="25.9" y="18.3" fill="#0B2F6B" width="12" height="4.5"/>
	</g>
</g>
</svg>
