<?xml version="1.0" encoding="utf-8"?>
<!-- Generator: Adobe Illustrator 17.1.0, SVG Export Plug-In . SVG Version: 6.00 Build 0)  -->
<!DOCTYPE svg PUBLIC "-//W3C//DTD SVG 1.1//EN" "http://www.w3.org/Graphics/SVG/1.1/DTD/svg11.dtd">
<svg version="1.1" id="Layer_1" xmlns="http://www.w3.org/2000/svg" xmlns:xlink="http://www.w3.org/1999/xlink" x="0px" y="0px"
	 viewBox="0 0 214 283.3" enable-background="new 0 0 214 283.3" xml:space="preserve">
<g>
	<path fill="#203468" d="M51.4,211.3c1.3-7.4,2.5-14.7,2.5-23c0-4.5-0.4-8.1-1.1-14.5H23.3c-1-6.3-1.6-10.8-2-14.6
		c-0.4-3.8-0.5-7.6-0.5-11.2c0-3.3,0.2-7.3,0.5-10.9c0.4-3.6,1-7.7,2-14.1H45c-0.5-6.3-0.8-8.4-1.1-13.4c-0.2-5-0.4-9.6-0.4-14.3
		c0-9.9,1.7-19.6,5.2-29.2c3.4-9.6,8.7-18.1,15.8-25.7c7.1-7.6,16.1-13.7,27-18.4c10.9-4.7,23.8-7.1,38.7-7.1
		c12.5,0,23.6,1.1,33.2,3.2c9.6,2.1,19,5.2,28.2,9.2c-0.5,6.9-1.8,14.7-3.9,23.4c-2.1,8.8-5.6,18-10.3,27.7
		c-5.4-2.6-11.4-5.1-17.8-7.5c-6.4-2.4-14.1-3.6-23.1-3.6c-5.9,0-10.9,1-14.9,3c-4,2-7.3,4.6-9.8,7.6c-2.5,3.1-4.3,6.5-5.3,10.1
		c-1.1,3.7-1.6,7.3-1.6,10.8c0,4.5,0.2,8.5,0.7,12.8c0.5,4.4,0.9,11.1,1.4,11.1h51.5c0.9,6.3,1.6,10.8,2,14.5
		c0.4,3.7,0.5,7.6,0.5,11.4c0,3.3-0.2,7.3-0.5,10.8c-0.4,3.6-1,7.7-2,14l-44.2,0c0,0,0.6,12.4-0.8,24.3c-0.8,6.7-3.2,13.8-5.8,20.1
		h82c1.2,0,1.9,9.5,2.1,14c0.2,4.5,0.4,7.8,0.4,11.1c0,3.8-0.1,6.8-0.4,11.2c-0.2,4.4-0.9,8.1-2.1,14.4h-163
		C26.9,268.9,46.5,238.3,51.4,211.3z"/>
</g>
</svg>
