<?xml version="1.0" encoding="utf-8"?>
<!-- Generator: Adobe Illustrator 17.1.0, SVG Export Plug-In . SVG Version: 6.00 Build 0)  -->
<!DOCTYPE svg PUBLIC "-//W3C//DTD SVG 1.1//EN" "http://www.w3.org/Graphics/SVG/1.1/DTD/svg11.dtd">
<svg version="1.1" id="Layer_1" xmlns="http://www.w3.org/2000/svg" xmlns:xlink="http://www.w3.org/1999/xlink" x="0px" y="0px"
	 viewBox="0 0 333 259.3" enable-background="new 0 0 333 259.3" xml:space="preserve">
<g>
	<path fill="#516874" stroke="#516874" stroke-width="2.8129" stroke-miterlimit="10" d="M324.8,215.9c0-1.3-0.9-3-0.9-3l0,0
		c0-0.4-0.4-0.9-0.4-0.9l-41.8-27.1c-0.4-0.9-1.3-1.7-1.7-2.2h-4.3c4.3,0,8.2-3.4,8.2-8.2L284.3,41c0-4.3-3.4-8.2-8.2-8.2l-218-0.4
		c-4.3,0-8.2,3.4-8.2,8.2l-0.4,133.6c0,4.3,3.4,8.2,8.2,8.2h-4.3c-0.9,0.4-1.3,1.3-1.7,2.2L9.5,211.6c0,0-0.4,0.4-0.4,0.9l0,0
		c0,0-1.3,1.7-0.9,3l0,0c0,0,0,0,0,0.4c0,0.9,1.3,4.3,1.7,4.7c0,0,5.6,5.6,15.5,5.6l283.9,0.4c9.9,0,15.5-5.6,15.5-5.6
		C323.5,220.2,324.4,216.8,324.8,215.9L324.8,215.9L324.8,215.9z"/>
	<path fill="#F2F1F0" stroke="#516874" stroke-width="0.9376" d="M283,174.6c0,4.3-3.4,8.2-8.2,8.2l-218-0.4c-4.3,0-8.2-3.4-8.2-8.2
		l0.4-133.6c0-4.3,3.4-8.2,8.2-8.2l218,0.4c4.3,0,8.2,3.4,8.2,8.2L283,174.6z"/>
	<path fill="#516874" d="M270.5,48.3l-209-0.4c-0.9,0-1.7,0.9-1.7,1.7l-0.4,118.5c0,0.9,0.9,1.7,1.7,1.7l209,0.4
		c0.9,0,1.7-0.9,1.7-1.7l0.4-118.5C272.3,49.2,271.4,48.3,270.5,48.3z"/>
	<path fill="#F2F1F0" d="M271,168.5c0,0.4-0.4,0.9-0.9,0.9l-209-0.4c-0.4,0-0.9-0.4-0.9-0.9l0.4-118.5c0-0.4,0.4-0.9,0.9-0.9
		l209,0.4c0.4,0,0.9,0.4,0.9,0.9L271,168.5z"/>
	<path fill="#F2F1F0" d="M165.8,213.3L7.7,212.1c0,0,2.2,13.8,15.9,13.8l283.9,0.4c15.9,0.4,15.9-13.8,15.9-13.8L165.8,213.3z"/>
	<path fill="#F2F1F0" d="M323.1,212.5l-41.8-27.1c-0.4-0.9-1.3-1.7-1.7-2.2l-227.1-0.4c-0.9,0.4-1.3,1.3-1.7,2.2L8.6,212.1
		c0,0-2.6,1.7,3.4,2.2l307.6,0.4C325.7,214.2,323.1,212.5,323.1,212.5z"/>
	<polygon fill="#F2F1F0" points="274,214.2 279.2,182.8 52.1,182.3 83.6,213.8 	"/>
	<path fill="#31B7EA" d="M205.9,209.5c-0.4-0.9-3.4-5.6-3.4-5.6s-0.9-1.3-3.9-1.3h-32.7l0,0h-32.7c-3,0-3.9,1.3-3.9,1.3
		s-3,4.7-3.4,5.6c-0.4,0.9,0,0.9,0,0.9h79.7C205.5,210.3,206.3,210.3,205.9,209.5z"/>
	<g>
		
			<path fill="#464646" stroke="#464646" stroke-width="0.9376" stroke-linecap="round" stroke-linejoin="round" stroke-miterlimit="10" d="
			M129.2,189.2C129.2,189.2,129.7,189.7,129.2,189.2c0.4,0,0.4,0,0.4,0l0,0l-0.9,1.7l0,0c0,0,0,0-0.4,0h-0.4h-0.4H118h-0.4h-0.4
			c0,0,0,0-0.4,0l0,0l0.9-1.7l0,0c0,0,0,0,0.4,0h0.4h0.4h9.5C128.8,189.2,129.2,189.2,129.2,189.2z"/>
		
			<path fill="#464646" stroke="#464646" stroke-width="0.9376" stroke-linecap="round" stroke-linejoin="round" stroke-miterlimit="10" d="
			M104.2,194.4l1.3-1.7l0,0c0,0,0,0,0.4,0h0.4h0.4h9.5h0.4h0.4c0,0,0,0,0.4,0l0,0l-0.9,1.7l0,0c0,0,0,0-0.4,0h-0.4h-0.4h-9.9h-0.4
			C104.7,194.4,104.7,194.4,104.2,194.4L104.2,194.4L104.2,194.4z"/>
		
			<path fill="#464646" stroke="#464646" stroke-width="0.9376" stroke-linecap="round" stroke-linejoin="round" stroke-miterlimit="10" d="
			M102.5,191.4L102.5,191.4l1.3-1.7l0,0c0,0,0,0,0.4,0h0.4h0.4h9.5h0.4h0.4l0,0l0,0l-0.9,1.7l0,0c0,0,0,0-0.4,0h-0.4h-0.4h-9.5h-0.4
			C102.9,191.8,102.5,191.4,102.5,191.4L102.5,191.4z"/>
		
			<path fill="#464646" stroke="#464646" stroke-width="0.9376" stroke-linecap="round" stroke-linejoin="round" stroke-miterlimit="10" d="
			M109.8,197.4l1.3-2.2l0,0c0,0,0,0,0.4,0h0.4h0.4h9.9h0.4h0.4c0,0,0,0,0.4,0l0,0l-0.9,2.2l0,0c0,0,0,0-0.4,0h-0.4h-0.4h-10.3h-0.4
			C110.3,197.8,110.3,197.4,109.8,197.4C110.3,197.4,109.8,197.4,109.8,197.4L109.8,197.4z"/>
		
			<path fill="#464646" stroke="#464646" stroke-width="0.9376" stroke-linecap="round" stroke-linejoin="round" stroke-miterlimit="10" d="
			M89.2,194.4l1.7-1.7l0,0c0,0,0,0,0.4,0h0.4h0.4h9.5h0.4h0.4l0,0l0,0l-1.3,1.7l0,0c0,0,0,0-0.4,0h-0.4h-0.4H90h-0.4
			C89.6,194.4,89.2,194.4,89.2,194.4L89.2,194.4L89.2,194.4z"/>
		
			<path fill="#464646" stroke="#464646" stroke-width="0.9376" stroke-linecap="round" stroke-linejoin="round" stroke-miterlimit="10" d="
			M90.4,198.3l-1.7,2.2l0,0h-0.4h-0.4h-0.4H76.7h-0.4h-0.4l0,0l0,0l2.2-2.2l0,0h0.4h0.4h0.4h10.3H90C90,198.3,90,198.3,90.4,198.3
			L90.4,198.3L90.4,198.3z"/>
		
			<path fill="#464646" stroke="#464646" stroke-width="0.9376" stroke-linecap="round" stroke-linejoin="round" stroke-miterlimit="10" d="
			M74.9,197.4h-0.4h-0.4H63.7h-0.4h-0.4l0,0l0,0l2.2-2.2l0,0h0.4h0.4h0.4h9.9h0.4h0.4l0,0l0,0L74.9,197.4
			C75.8,197.4,75.8,197.4,74.9,197.4C75.4,197.4,75.4,197.4,74.9,197.4z"/>
		
			<path fill="#464646" stroke="#464646" stroke-width="0.9376" stroke-linecap="round" stroke-linejoin="round" stroke-miterlimit="10" d="
			M74.5,198.3l-2.2,2.2c0,0,0,0-0.4,0h-0.4h-0.4h-0.4H59.9h-0.4H59l0,0l0,0l2.6-2.2c0,0,0,0,0.4,0h0.4h0.4h0.4h10.3h0.4H74.5
			L74.5,198.3L74.5,198.3z"/>
		
			<path fill="#464646" stroke="#464646" stroke-width="0.9376" stroke-linecap="round" stroke-linejoin="round" stroke-miterlimit="10" d="
			M120.2,194.4C120.2,194.4,119.7,194.4,120.2,194.4c-0.4,0-0.4,0-0.4,0l0,0l0.9-1.7l0,0c0,0,0,0,0.4,0h0.4h0.4h9.5h0.4h0.4
			c0,0,0,0,0.4,0l0,0l-0.9,1.7l0,0c0,0,0,0-0.4,0h-0.4h-0.4h-9.9C120.6,194.4,120.2,194.4,120.2,194.4z"/>
		
			<path fill="#464646" stroke="#464646" stroke-width="0.9376" stroke-linecap="round" stroke-linejoin="round" stroke-miterlimit="10" d="
			M106.4,198.7l-1.3,2.2l0,0c0,0,0,0-0.4,0h-0.4h-0.4H93h-0.4h-0.4c0,0,0,0-0.4,0l0,0l1.7-2.2l0,0c0,0,0,0,0.4,0h0.4h0.4h10.3h0.4
			C106,198.3,106,198.3,106.4,198.7C106,198.3,106,198.3,106.4,198.7C106.4,198.3,106.4,198.3,106.4,198.7z"/>
		
			<path fill="#464646" stroke="#464646" stroke-width="0.9376" stroke-linecap="round" stroke-linejoin="round" stroke-miterlimit="10" d="
			M248.6,185.3L248.6,185.3c0.4,0,0.4,0,0.4,0h0.4h7.8h0.4h0.4h0.4l0,0l0.9,0.9l0,0l0,0c0,0,0,0-0.4,0h-0.4h-7.8h-0.4h-0.4h-0.4l0,0
			L248.6,185.3L248.6,185.3z"/>
		
			<path fill="#464646" stroke="#464646" stroke-width="0.9376" stroke-linecap="round" stroke-linejoin="round" stroke-miterlimit="10" d="
			M211.1,185.3L211.1,185.3c0.4,0,0.4,0,0.4,0h0.4h7.8h0.4h0.4c0,0,0,0,0.4,0l0,0l0.4,0.9l0,0l0,0c0,0,0,0-0.4,0h-0.4h-7.8h-0.4
			h-0.4h-0.4l0,0L211.1,185.3C210.7,185.3,210.7,185.3,211.1,185.3z"/>
		
			<path fill="#464646" stroke="#464646" stroke-width="0.9376" stroke-linecap="round" stroke-linejoin="round" stroke-miterlimit="10" d="
			M82.7,188.8l1.7-1.7l0,0c0,0,0,0,0.4,0h0.4h0.4h9h0.4h0.4l0,0l0,0l-1.3,1.7l0,0c0,0,0,0-0.4,0h-0.4H93h-9.5h-0.4
			C83.1,188.8,83.1,188.8,82.7,188.8L82.7,188.8L82.7,188.8z"/>
		
			<path fill="#464646" stroke="#464646" stroke-width="0.9376" stroke-linecap="round" stroke-linejoin="round" stroke-miterlimit="10" d="
			M84,186.2l0.9-0.9l0,0c0,0,0,0,0.4,0h0.4h0.4h7.8h0.4h0.4l0,0l0,0l-0.9,0.9l0,0c0,0,0,0-0.4,0H93h-0.4h-7.8h-0.4
			C84.4,186.2,84,186.2,84,186.2L84,186.2L84,186.2z"/>
		
			<path fill="#464646" stroke="#464646" stroke-width="0.9376" stroke-linecap="round" stroke-linejoin="round" stroke-miterlimit="10" d="
			M209.8,187.1L209.8,187.1c0.4,0,0.4,0,0.4,0h0.4h9h0.4h0.4h0.4l0,0l1.3,1.7l0,0l0,0c0,0,0,0-0.4,0h-0.4h-9.5h-0.4h-0.4h-0.4l0,0
			L209.8,187.1L209.8,187.1z"/>
		
			<path fill="#464646" stroke="#464646" stroke-width="0.9376" stroke-linecap="round" stroke-linejoin="round" stroke-miterlimit="10" d="
			M93,195.3l-1.7,2.2l0,0c0,0,0,0-0.4,0h-0.4H90H79.7h-0.4h-0.4l0,0l0,0l1.7-2.2l0,0c0,0,0,0,0.4,0h0.4h0.4h9.9h0.4
			C92.6,195.3,92.6,195.3,93,195.3L93,195.3L93,195.3z"/>
		
			<path fill="#464646" stroke="#464646" stroke-width="0.9376" stroke-linecap="round" stroke-linejoin="round" stroke-miterlimit="10" d="
			M260.2,187.1L260.2,187.1l2.2,1.7l0,0l0,0c0,0,0,0-0.4,0h-0.4h-20.7h-0.4h-0.4h-0.4l0,0l-1.3-1.7l0,0l0,0c0,0,0,0,0.4,0h0.4h19.8
			h0.4C259.3,187.1,259.8,187.1,260.2,187.1C259.8,187.1,259.8,187.1,260.2,187.1z"/>
		
			<path fill="#464646" stroke="#464646" stroke-width="0.9376" stroke-linecap="round" stroke-linejoin="round" stroke-miterlimit="10" d="
			M73.6,194.4l1.7-1.7l0,0c0,0,0,0,0.4,0h0.4h0.4h9.5h0.4H87l0,0l0,0l-1.7,1.7l0,0c0,0,0,0-0.4,0h-0.4H84h-9.9H73.6
			C74.1,194.4,74.1,194.4,73.6,194.4C74.1,194.4,73.6,194.4,73.6,194.4L73.6,194.4z"/>
		
			<path fill="#464646" stroke="#464646" stroke-width="0.9376" stroke-linecap="round" stroke-linejoin="round" stroke-miterlimit="10" d="
			M135.3,194.4L135.3,194.4c-0.4,0-0.4,0-0.4,0l0,0l0.9-1.7l0,0c0,0,0,0,0.4,0h0.4h0.4h9.5h0.4h0.4c0,0,0,0,0.4,0l0,0l-0.4,1.7l0,0
			c0,0,0,0-0.4,0h-0.4H146h-9.9C135.7,194.8,135.7,194.8,135.3,194.4z"/>
		
			<path fill="#464646" stroke="#464646" stroke-width="0.9376" stroke-linecap="round" stroke-linejoin="round" stroke-miterlimit="10" d="
			M158.1,189.7L158.1,189.7c0.4,0,0.4,0,0.4,0l0,0v1.7l0,0c0,0,0,0-0.4,0h-0.4h-0.4h-9.5h-0.4h-0.4c0,0,0,0-0.4,0l0,0l0.4-1.7l0,0
			c0,0,0,0,0.4,0h0.4h0.4h9.5C157.7,189.7,157.7,189.7,158.1,189.7z"/>
		
			<path fill="#464646" stroke="#464646" stroke-width="0.9376" stroke-linecap="round" stroke-linejoin="round" stroke-miterlimit="10" d="
			M143.4,189.7C143.9,189.7,143.9,189.7,143.4,189.7c0.4,0,0.4,0,0.4,0l0,0l-0.4,1.7l0,0c0,0,0,0-0.4,0h-0.4h-0.4h-9.5h-0.4h-0.4
			c0,0,0,0-0.4,0l0,0l0.9-1.7l0,0c0,0,0,0,0.4,0h0.4h0.4h9.5C143.4,189.2,143.4,189.2,143.4,189.7z"/>
		
			<path fill="#464646" stroke="#464646" stroke-width="0.9376" stroke-linecap="round" stroke-linejoin="round" stroke-miterlimit="10" d="
			M141.7,195.3L141.7,195.3C142.1,195.3,142.1,195.3,141.7,195.3c0.4,0,0.9-0.4,0.9-0.4h0.4h9.9h0.4h0.4c0,0,0,0,0.4,0l0,0l-0.4,2.2
			l0,0c0,0,0,0-0.4,0h-0.4h-0.4h-10.3h-0.4h-0.4c0,0,0,0-0.4,0l0,0L141.7,195.3z"/>
		
			<path fill="#464646" stroke="#464646" stroke-width="0.9376" stroke-linecap="round" stroke-linejoin="round" stroke-miterlimit="10" d="
			M126.6,195.3L126.6,195.3c0.4,0,0.4,0,0.4,0h0.4h0.4h9.9h0.4h0.4c0,0,0,0,0.4,0l0,0l-0.4,2.2l0,0c0,0,0,0-0.4,0h-0.4h-0.4h-10.3
			h-0.4h-0.4c0,0,0,0-0.4,0l0,0L126.6,195.3z"/>
		
			<path fill="#464646" stroke="#464646" stroke-width="0.9376" stroke-linecap="round" stroke-linejoin="round" stroke-miterlimit="10" d="
			M171.9,189.7h0.4h0.4c0,0,0,0,0.4,0l0,0v1.7l0,0c0,0,0,0-0.4,0h-0.4h-0.4h-9.5H162h-0.4c0,0,0,0-0.4,0l0,0v-1.7l0,0c0,0,0,0,0.4,0
			h0.4h0.4H171.9z"/>
		
			<path fill="#464646" stroke="#464646" stroke-width="0.9376" stroke-linecap="round" stroke-linejoin="round" stroke-miterlimit="10" d="
			M186.1,189.7h0.4h0.4c0,0,0,0,0.4,0l0,0l0.4,1.7l0,0c0,0,0,0-0.4,0H187h-0.4H177h-0.4h-0.4c0,0,0,0-0.4,0l0,0v-1.7l0,0
			c0,0,0,0,0.4,0h0.4h0.4H186.1z"/>
		
			<path fill="#464646" stroke="#464646" stroke-width="0.9376" stroke-linecap="round" stroke-linejoin="round" stroke-miterlimit="10" d="
			M172.7,195.3L172.7,195.3c0.4,0,0.4,0,0.9,0h0.4h9.9h0.4h0.4h0.4l0,0l0.4,2.2l0,0c0,0,0,0-0.4,0h-0.4h-0.4H174h-0.4h-0.4h-0.4l0,0
			V195.3C172.3,195.3,172.3,195.3,172.7,195.3z"/>
		
			<path fill="#464646" stroke="#464646" stroke-width="0.9376" stroke-linecap="round" stroke-linejoin="round" stroke-miterlimit="10" d="
			M157.2,195.3L157.2,195.3L157.2,195.3c0.4,0,0.9-0.4,0.9-0.4h0.4h9.9h0.4h0.4c0,0,0,0,0.4,0l0,0v2.2l0,0c0,0,0,0-0.4,0h-0.4h-0.4
			h-10.3h-0.4h-0.4c0,0,0,0-0.4,0l0,0L157.2,195.3z"/>
		
			<path fill="#464646" stroke="#464646" stroke-width="0.9376" stroke-linecap="round" stroke-linejoin="round" stroke-miterlimit="10" d="
			M166.3,194.8h-0.4h-0.4c0,0,0,0-0.4,0l0,0v-1.7l0,0c0,0,0,0,0.4,0h0.4h0.4h9.5h0.4h0.4c0,0,0,0,0.4,0l0,0l0.4,1.7l0,0
			c0,0,0,0-0.4,0h-0.4h-0.4H166.3z"/>
		
			<path fill="#464646" stroke="#464646" stroke-width="0.9376" stroke-linecap="round" stroke-linejoin="round" stroke-miterlimit="10" d="
			M150.8,194.8C150.3,194.4,150.3,194.4,150.8,194.8c-0.4,0-0.4,0-0.9,0l0,0l0.4-1.7l0,0c0,0,0,0,0.4,0h0.4h0.4h9.5h0.4h0.4
			c0,0,0,0,0.4,0l0,0v1.7l0,0c0,0,0,0-0.4,0h-0.4h-0.4h-9.9C150.8,194.8,150.8,194.8,150.8,194.8z"/>
		
			<path fill="#464646" stroke="#464646" stroke-width="0.9376" stroke-linecap="round" stroke-linejoin="round" stroke-miterlimit="10" d="
			M108.5,195.3l-1.3,2.2l0,0c0,0,0,0-0.4,0h-0.4H106H95.6h-0.4h-0.4c0,0,0,0-0.4,0l0,0l1.7-2.2l0,0c0,0,0,0,0.4,0h0.4h0.4h9.9h0.4
			C107.7,195.3,108.1,195.3,108.5,195.3C108.1,195.3,108.1,195.3,108.5,195.3L108.5,195.3z"/>
		
			<path fill="#464646" stroke="#464646" stroke-width="0.9376" stroke-linecap="round" stroke-linejoin="round" stroke-miterlimit="10" d="
			M165.4,188.8L165.4,188.8c-0.4,0-0.4,0-0.4,0h-0.4h-9.5h-0.4h-0.4c0,0,0,0-0.4,0l0,0l0.4-1.7l0,0c0,0,0,0,0.4,0h0.4h0.4h9h0.4h0.4
			c0,0,0,0,0.4,0l0,0L165.4,188.8L165.4,188.8z"/>
		
			<path fill="#464646" stroke="#464646" stroke-width="0.9376" stroke-linecap="round" stroke-linejoin="round" stroke-miterlimit="10" d="
			M109.4,186.2l0.4-0.9l0,0c0,0,0,0,0.4,0h0.4h0.4h7.8h0.4h0.4l0,0l0,0l-0.4,0.9l0,0c0,0,0,0-0.4,0h-0.4H118h-7.8h-0.4
			C109.8,186.2,109.8,186.2,109.4,186.2L109.4,186.2L109.4,186.2z"/>
		
			<path fill="#464646" stroke="#464646" stroke-width="0.9376" stroke-linecap="round" stroke-linejoin="round" stroke-miterlimit="10" d="
			M147.7,185.3L147.7,185.3C148.2,185.3,148.2,185.3,147.7,185.3c0.4,0,0.4,0,0.9,0h0.4h7.8h0.4h0.4c0,0,0,0,0.4,0l0,0v0.9l0,0
			c0,0,0,0-0.4,0h-0.4h-0.4H149h-0.4h-0.4c0,0,0,0-0.4,0l0,0V185.3z"/>
		
			<path fill="#464646" stroke="#464646" stroke-width="0.9376" stroke-linecap="round" stroke-linejoin="round" stroke-miterlimit="10" d="
			M135.3,185.3L135.3,185.3C135.3,185.3,135.3,184.9,135.3,185.3c0.4,0,0.4,0,0.9,0h0.4h7.8h0.4h0.4c0,0,0,0,0.4,0l0,0l-0.4,0.9l0,0
			c0,0,0,0-0.4,0h-0.4h-0.4h-7.8h-0.4h-0.4c0,0,0,0-0.4,0l0,0L135.3,185.3z"/>
		
			<path fill="#464646" stroke="#464646" stroke-width="0.9376" stroke-linecap="round" stroke-linejoin="round" stroke-miterlimit="10" d="
			M122.8,188.8L122.8,188.8h-0.4h-0.4h-0.4H112h-0.4h-0.4l0,0l0,0l0.9-1.7l0,0c0,0,0,0,0.4,0h0.4h0.4h9h0.4h0.4c0,0,0,0,0.4,0l0,0
			L122.8,188.8z"/>
		
			<path fill="#464646" stroke="#464646" stroke-width="0.9376" stroke-linecap="round" stroke-linejoin="round" stroke-miterlimit="10" d="
			M137,188.8L137,188.8C137,188.8,136.5,188.8,137,188.8c-0.4,0-0.9,0-0.9,0h-0.4h-9.5h-0.4h-0.4c0,0,0,0-0.4,0l0,0l0.9-1.7l0,0
			c0,0,0,0,0.4,0h0.4h0.4h9h0.4h0.4c0,0,0,0,0.4,0l0,0L137,188.8z"/>
		
			<path fill="#464646" stroke="#464646" stroke-width="0.9376" stroke-linecap="round" stroke-linejoin="round" stroke-miterlimit="10" d="
			M122.8,185.3L122.8,185.3C122.8,184.9,122.8,184.9,122.8,185.3c0.4,0,0.9,0,0.9,0h0.4h7.8h0.4h0.4c0,0,0,0,0.4,0l0,0l-0.4,0.9l0,0
			c0,0,0,0-0.4,0h-0.4h-0.4h-7.8h-0.4h-0.4c0,0,0,0-0.4,0l0,0L122.8,185.3z"/>
		
			<path fill="#464646" stroke="#464646" stroke-width="0.9376" stroke-linecap="round" stroke-linejoin="round" stroke-miterlimit="10" d="
			M151.2,188.8L151.2,188.8L151.2,188.8c-0.4,0-0.4,0-0.9,0h-0.4h-9.5H140h-0.4c0,0,0,0-0.4,0l0,0l0.4-1.7l0,0c0,0,0,0,0.4,0h0.4
			h0.4h9h0.4h0.4c0,0,0,0,0.4,0l0,0V188.8z"/>
		
			<path fill="#464646" stroke="#464646" stroke-width="0.9376" stroke-linecap="round" stroke-linejoin="round" stroke-miterlimit="10" d="
			M160.2,185.3L160.2,185.3C160.7,185.3,160.7,185.3,160.2,185.3c0.4,0,0.4,0,0.9,0h0.4h7.8h0.4h0.4c0,0,0,0,0.4,0l0,0v0.9l0,0
			c0,0,0,0-0.4,0h-0.4h-0.4h-7.8h-0.4h-0.4c0,0,0,0-0.4,0l0,0V185.3z"/>
		
			<path fill="#464646" stroke="#464646" stroke-width="0.9376" stroke-linecap="round" stroke-linejoin="round" stroke-miterlimit="10" d="
			M196,187.1C196,187.1,196.4,187.1,196,187.1c0.4,0,0.9,0,0.9,0h9h0.4h0.4c0,0,0,0,0.4,0l0,0l0.9,1.7l0,0c0,0,0,0-0.4,0h-0.4h-0.4
			h-9.5h-0.4h-0.4c0,0,0,0-0.4,0l0,0L196,187.1L196,187.1L196,187.1z"/>
		
			<path fill="#464646" stroke="#464646" stroke-width="0.9376" stroke-linecap="round" stroke-linejoin="round" stroke-miterlimit="10" d="
			M181.8,187.1L181.8,187.1C182.2,187.1,182.2,187.1,181.8,187.1c0.4,0,0.4,0,0.9,0h0.4h9h0.4h0.4c0,0,0,0,0.4,0l0,0l0.4,1.7l0,0
			c0,0,0,0-0.4,0H193h-0.4h-9.5h-0.4h-0.4c0,0,0,0-0.4,0l0,0V187.1z"/>
		
			<path fill="#464646" stroke="#464646" stroke-width="0.9376" stroke-linecap="round" stroke-linejoin="round" stroke-miterlimit="10" d="
			M185.7,185.3L185.7,185.3c0.4,0,0.4,0,0.4,0h0.4h7.8h0.4h0.4c0,0,0,0,0.4,0l0,0l0.4,0.9l0,0c0,0,0,0-0.4,0h-0.4h-0.4H187h-0.4
			h-0.4c0,0,0,0-0.4,0l0,0V185.3L185.7,185.3z"/>
		
			<path fill="#464646" stroke="#464646" stroke-width="0.9376" stroke-linecap="round" stroke-linejoin="round" stroke-miterlimit="10" d="
			M198.2,185.3C198.2,185.3,198.6,185.3,198.2,185.3c0.4,0,0.4,0,0.4,0h0.4h7.8h0.4h0.4c0,0,0,0,0.4,0l0,0l0.4,0.9l0,0
			c0,0,0,0-0.4,0c0,0,0,0-0.4,0h-0.4h-7.8H199h-0.4c0,0,0,0-0.4,0l0,0V185.3L198.2,185.3z"/>
		
			<path fill="#464646" stroke="#464646" stroke-width="0.9376" stroke-linecap="round" stroke-linejoin="round" stroke-miterlimit="10" d="
			M173.2,185.3L173.2,185.3c0.4,0,0.4,0,0.4,0h0.4h7.8h0.4h0.4c0,0,0,0,0.4,0l0,0v0.9l0,0c0,0,0,0-0.4,0h-0.4h-0.4H174h-0.4h-0.4
			c0,0,0,0-0.4,0l0,0L173.2,185.3L173.2,185.3z"/>
		
			<path fill="#464646" stroke="#464646" stroke-width="0.9376" stroke-linecap="round" stroke-linejoin="round" stroke-miterlimit="10" d="
			M179.6,188.8L179.6,188.8c-0.4,0-0.4,0-0.4,0h-0.4h-9.5h-0.4h-0.4c0,0,0,0-0.4,0l0,0v-1.7l0,0c0,0,0,0,0.4,0h0.4h0.4h9h0.4h0.4
			c0,0,0,0,0.4,0l0,0V188.8L179.6,188.8z"/>
		
			<path fill="#464646" stroke="#464646" stroke-width="0.9376" stroke-linecap="round" stroke-linejoin="round" stroke-miterlimit="10" d="
			M46.9,194l2.6-1.7c0,0,0,0,0.4,0h0.4h0.4h0.4h21.5h0.4h0.4l0,0l0,0l-2.2,1.7l0,0h-0.4h-0.4h-0.4h-22h-0.4
			C47.4,194.4,47.4,194.4,46.9,194C46.9,194.4,46.9,194.4,46.9,194C46.9,194.4,46.9,194.4,46.9,194z"/>
		
			<path fill="#464646" stroke="#464646" stroke-width="0.9376" stroke-linecap="round" stroke-linejoin="round" stroke-miterlimit="10" d="
			M59,197.4h-0.4H44.3h-0.4h-0.4l0,0l0,0l2.6-2.2c0,0,0,0,0.4,0h0.4h0.4h0.4h13.8H62h0.4l0,0l0,0l-2.2,2.2c0,0,0,0-0.4,0h-0.4H59z"
			/>
		
			<path fill="#464646" stroke="#464646" stroke-width="0.9376" stroke-linecap="round" stroke-linejoin="round" stroke-miterlimit="10" d="
			M50.8,191.4l2.2-1.7l0,0h0.4h0.4h0.4h16.8h0.4h0.4l0,0l0,0l-2.2,1.7l0,0c0,0,0,0-0.4,0h-0.4h-0.4H51.2H50.8
			C51.2,191.4,51.2,191.4,50.8,191.4L50.8,191.4L50.8,191.4z"/>
		
			<path fill="#464646" stroke="#464646" stroke-width="0.9376" stroke-linecap="round" stroke-linejoin="round" stroke-miterlimit="10" d="
			M292.1,201.3L292.1,201.3c-0.4,0-0.4,0-0.4,0h-0.4h-10.8H280h-0.4h-0.4c0,0,0,0-0.4,0l-2.6-2.2l0,0l0,0c0,0,0,0,0.4,0h0.4h10.3
			h0.4h0.4h0.4c0,0,0,0,0.4,0L292.1,201.3L292.1,201.3z"/>
		
			<path fill="#464646" stroke="#464646" stroke-width="0.9376" stroke-linecap="round" stroke-linejoin="round" stroke-miterlimit="10" d="
			M58.6,198.3l-2.6,2.2c0,0,0,0-0.4,0h-0.4h-0.4h-0.4H39.6h-0.4h-0.4l0,0l0,0l3-2.2c0,0,0,0,0.4,0h0.4h0.4h0.4h14.2h0.4
			C58.6,198.3,58.6,198.3,58.6,198.3L58.6,198.3C59,198.3,59,198.3,58.6,198.3z"/>
		
			<path fill="#464646" stroke="#464646" stroke-width="0.9376" stroke-linecap="round" stroke-linejoin="round" stroke-miterlimit="10" d="
			M54.3,188.4l2.2-1.7l0,0c0,0,0,0,0.4,0h0.4h0.4h9h0.4h0.4l0,0l0,0l-1.7,2.2l0,0c0,0,0,0-0.4,0H65h-0.4h-9.5h-0.4
			C54.7,188.8,54.7,188.8,54.3,188.4C54.3,188.8,54.3,188.8,54.3,188.4C54.3,188.8,54.3,188.8,54.3,188.4z"/>
		
			<path fill="#464646" stroke="#464646" stroke-width="0.9376" stroke-linecap="round" stroke-linejoin="round" stroke-miterlimit="10" d="
			M109,186.6C109.4,186.6,109.4,186.6,109,186.6c0.4,0,0.4,0,0.4,0l0,0l-1.3,1.7l0,0c0,0,0,0-0.4,0h-0.4h-0.4h-9.5h-0.4h-0.4l0,0
			l0,0l1.3-1.7l0,0c0,0,0,0,0.4,0h0.4h0.4h9C109,186.6,109,186.6,109,186.6z"/>
		
			<path fill="#464646" stroke="#464646" stroke-width="0.9376" stroke-linecap="round" stroke-linejoin="round" stroke-miterlimit="10" d="
			M87.9,191.4L87.9,191.4l1.7-1.7l0,0c0,0,0,0,0.4,0h0.4h0.4h9.5h0.4h0.4l0,0l0,0l-1.3,1.7l0,0c0,0,0,0-0.4,0h-0.4h-0.4h-9.5h-0.4
			C88.3,191.4,87.9,191.4,87.9,191.4L87.9,191.4z"/>
		
			<path fill="#464646" stroke="#464646" stroke-width="0.9376" stroke-linecap="round" stroke-linejoin="round" stroke-miterlimit="10" d="
			M186.1,200.9L186.1,200.9c-0.4,0-0.4,0-0.9,0h-0.4H109h-0.4h-0.4c0,0,0,0-0.4,0l0,0l1.3-2.2l0,0c0,0,0,0,0.4,0h0.4h0.4h73.7h0.4
			h0.4h0.4l0,0L186.1,200.9L186.1,200.9z"/>
		
			<path fill="#464646" stroke="#464646" stroke-width="0.9376" stroke-linecap="round" stroke-linejoin="round" stroke-miterlimit="10" d="
			M73.2,191.4L73.2,191.4C72.8,191.4,72.8,191.4,73.2,191.4l1.7-2.2l0,0c0,0,0,0,0.4,0h0.4h0.4h9.5h0.4h0.4l0,0l0,0l-1.7,1.7l0,0
			c0,0,0,0-0.4,0H84h-0.4h-9.5C73.6,191.4,73.6,191.4,73.2,191.4L73.2,191.4z"/>
		
			<path fill="#464646" stroke="#464646" stroke-width="0.9376" stroke-linecap="round" stroke-linejoin="round" stroke-miterlimit="10" d="
			M57.7,185.8l1.3-0.9l0,0c0,0,0,0,0.4,0h0.4h0.4h9h0.4h0.4l0,0l0,0l-0.9,0.9l0,0c0,0,0,0-0.4,0h-0.4H68h-9h-0.4
			C58.1,186.2,58.1,186.2,57.7,185.8C57.7,186.2,57.7,186.2,57.7,185.8C57.7,186.2,57.7,186.2,57.7,185.8z"/>
		
			<path fill="#464646" stroke="#464646" stroke-width="0.9376" stroke-linecap="round" stroke-linejoin="round" stroke-miterlimit="10" d="
			M68.5,188.8l1.7-1.7l0,0c0,0,0,0,0.4,0h0.4h0.4h9H81h0.4l0,0l0,0l-1.7,1.7l0,0c0,0,0,0-0.4,0h-0.4h-0.4h-9.5H68.5
			C68.9,188.8,68.9,188.8,68.5,188.8L68.5,188.8L68.5,188.8z"/>
		
			<path fill="#464646" stroke="#464646" stroke-width="0.9376" stroke-linecap="round" stroke-linejoin="round" stroke-miterlimit="10" d="
			M71.1,186.2l0.9-0.9l0,0c0,0,0,0,0.4,0h0.4h0.4H81h0.4h0.4l0,0l0,0l-0.9,0.9l0,0c0,0,0,0-0.4,0h-0.4h-0.4h-7.8h-0.4
			C71.5,186.2,71.5,186.2,71.1,186.2L71.1,186.2L71.1,186.2z"/>
		
			<path fill="#464646" stroke="#464646" stroke-width="0.9376" stroke-linecap="round" stroke-linejoin="round" stroke-miterlimit="10" d="
			M96.5,186.2l0.9-0.9l0,0c0,0,0,0,0.4,0h0.4h0.4h7.8h0.4h0.4l0,0l0,0l-0.4,0.9l0,0c0,0,0,0-0.4,0H106h-0.4h-7.8h-0.4
			C96.9,186.2,96.9,186.2,96.5,186.2C96.9,186.2,96.5,186.2,96.5,186.2L96.5,186.2z"/>
		
			<path fill="#464646" stroke="#464646" stroke-width="0.9376" stroke-linecap="round" stroke-linejoin="round" stroke-miterlimit="10" d="
			M219.7,197.8L219.7,197.8l-1.3-2.2l0,0c0,0,0,0,0.4,0h0.4h0.4h9.9h0.4h0.4h0.4l0,0l1.3,2.2l0,0c0,0,0,0-0.4,0h-0.4h-0.4h-10.3
			h-0.4C220.6,197.8,220.1,197.8,219.7,197.8C220.1,197.8,219.7,197.8,219.7,197.8z"/>
		
			<path fill="#464646" stroke="#464646" stroke-width="0.9376" stroke-linecap="round" stroke-linejoin="round" stroke-miterlimit="10" d="
			M209.8,192.7C209.8,192.2,209.8,192.2,209.8,192.7c0.4,0,0.4,0,0.4,0h0.4h9.5h0.4h0.4h0.4l0,0l1.3,1.7l0,0c0,0,0,0-0.4,0h-0.4
			h-0.4h-9.9h-0.4h-0.4h-0.4l0,0L209.8,192.7L209.8,192.7z"/>
		
			<path fill="#464646" stroke="#464646" stroke-width="0.9376" stroke-linecap="round" stroke-linejoin="round" stroke-miterlimit="10" d="
			M250.3,192.2h0.4h0.4h0.4l0,0l1.7,2.2l0,0l0,0c0,0,0,0-0.4,0h-0.4h-9.9h-0.4h-0.4h-0.4l0,0l-1.7-1.7l0,0l0,0c0,0,0,0,0.4,0h0.4
			L250.3,192.2z"/>
		
			<path fill="#464646" stroke="#464646" stroke-width="0.9376" stroke-linecap="round" stroke-linejoin="round" stroke-miterlimit="10" d="
			M218.4,200.9C218.4,201.3,218.4,201.3,218.4,200.9c-0.4,0-0.4,0-0.4,0h-0.4h-10.8h-0.4h-0.4h-0.4l0,0l-0.9-2.2l0,0c0,0,0,0,0.4,0
			h0.4h0.4h10.3h0.4h0.4h0.4l0,0L218.4,200.9L218.4,200.9z"/>
		
			<path fill="#464646" stroke="#464646" stroke-width="0.9376" stroke-linecap="round" stroke-linejoin="round" stroke-miterlimit="10" d="
			M224.9,192.7L224.9,192.7c0.4,0,0.4,0,0.4,0h0.4h9.5h0.4h0.4h0.4l0,0l1.7,1.7l0,0c0,0,0,0-0.4,0h-0.4h-0.4H227h-0.4h-0.4h-0.4l0,0
			L224.9,192.7L224.9,192.7z"/>
		
			<path fill="#464646" stroke="#464646" stroke-width="0.9376" stroke-linecap="round" stroke-linejoin="round" stroke-miterlimit="10" d="
			M246.4,191.8L246.4,191.8c-0.4,0-0.4,0-0.4,0h-0.4h-9.5h-0.4h-0.4h-0.4l0,0l-1.3-1.7l0,0l0,0c0,0,0,0,0.4,0h0.4h9.5h0.4h0.4h0.4
			l0,0L246.4,191.8L246.4,191.8z"/>
		
			<path fill="#464646" stroke="#464646" stroke-width="0.9376" stroke-linecap="round" stroke-linejoin="round" stroke-miterlimit="10" d="
			M255.9,194.8L255.9,194.8l-2.6-2.6h-0.4h-0.4H252h-0.4h-0.9h-0.4h-0.4h-0.4l0,0l-1.7-1.7l0,0l0,0c0,0,0,0,0.4,0h0.4h12.9h0.4h0.4
			h0.4l0,0l5.2,4.7l0,0l0,0c0,0,0,0-0.4,0h-0.4h-9.9h-0.4C256.8,194.8,256.3,194.8,255.9,194.8C256.3,194.8,255.9,194.8,255.9,194.8
			z"/>
		
			<path fill="#464646" stroke="#464646" stroke-width="0.9376" stroke-linecap="round" stroke-linejoin="round" stroke-miterlimit="10" d="
			M195.1,192.2L195.1,192.2c0.4,0,0.4,0,0.4,0h0.4h9.5h0.4h0.4h0.4l0,0l0.9,1.7l0,0c0,0,0,0-0.4,0h-0.4h-0.4h-9.9H196h-0.4h-0.4l0,0
			L195.1,192.2C194.7,192.7,194.7,192.7,195.1,192.2z"/>
		
			<path fill="#464646" stroke="#464646" stroke-width="0.9376" stroke-linecap="round" stroke-linejoin="round" stroke-miterlimit="10" d="
			M203.8,197.4l-0.9-2.2l0,0c0,0,0,0,0.4,0h0.4h0.4h9.9h0.4h0.4h0.4l0,0l1.3,2.2l0,0c0,0,0,0-0.4,0h-0.4h-0.4h-10.3h-0.4h-0.4
			C204.2,197.8,204.2,197.8,203.8,197.4C204.2,197.8,203.8,197.8,203.8,197.4z"/>
		
			<path fill="#464646" stroke="#464646" stroke-width="0.9376" stroke-linecap="round" stroke-linejoin="round" stroke-miterlimit="10" d="
			M188.2,197.4l-0.4-2.2l0,0c0,0,0,0,0.4,0h0.4h0.4h9.9h0.4h0.4h0.4l0,0l0.9,2.2l0,0c0,0,0,0-0.4,0h-0.4h-0.4h-10.3h-0.4h-0.4
			C188.7,197.8,188.7,197.8,188.2,197.4C188.2,197.8,188.2,197.4,188.2,197.4z"/>
		
			<path fill="#464646" stroke="#464646" stroke-width="0.9376" stroke-linecap="round" stroke-linejoin="round" stroke-miterlimit="10" d="
			M181.8,194.8h-0.4h-0.4c0,0,0,0-0.4,0l0,0l-0.4-1.7l0,0c0,0,0,0,0.4,0h0.4h0.4h9.5h0.4h0.4h0.4l0,0l0.4,1.7l0,0c0,0,0,0-0.4,0
			h-0.4h-0.4H181.8z"/>
		
			<path fill="#464646" stroke="#464646" stroke-width="0.9376" stroke-linecap="round" stroke-linejoin="round" stroke-miterlimit="10" d="
			M191.7,191.8h-0.4h-0.4h-0.4l0,0l-0.4-1.7l0,0c0,0,0,0,0.4,0h0.4h0.4h9.5h0.4h0.4h0.4l0,0l0.9,1.7l0,0c0,0,0,0-0.4,0H202h-0.4
			H191.7z"/>
		
			<path fill="#464646" stroke="#464646" stroke-width="0.9376" stroke-linecap="round" stroke-linejoin="round" stroke-miterlimit="10" d="
			M202.5,200.9C202,200.9,202,201.3,202.5,200.9c-0.4,0-0.4,0-0.9,0h-0.4h-10.8H190h-0.4h-0.4l0,0l-0.4-2.2l0,0c0,0,0,0,0.4,0h0.4
			h0.4h10.3h0.4h0.4h0.4l0,0L202.5,200.9L202.5,200.9z"/>
		
			<path fill="#464646" stroke="#464646" stroke-width="0.9376" stroke-linecap="round" stroke-linejoin="round" stroke-miterlimit="10" d="
			M243.4,201.3L243.4,201.3c-0.4,0-0.4,0-0.4,0h-0.4h-19h-0.4h-0.4h-0.4l0,0l-1.3-2.2l0,0c0,0,0,0,0.4,0h0.4h0.4h18.5h0.4h0.4h0.4
			l0,0L243.4,201.3C243.4,200.9,243.4,201.3,243.4,201.3z"/>
		
			<path fill="#464646" stroke="#464646" stroke-width="0.9376" stroke-linecap="round" stroke-linejoin="round" stroke-miterlimit="10" d="
			M275.7,201.3L275.7,201.3c-0.4,0-0.4,0-0.4,0h-0.4h-10.8h-0.4h-0.4h-0.4c0,0,0,0-0.4,0l-2.2-2.2l0,0l0,0h0.4h0.4h10.3h0.4h0.4h0.4
			c0,0,0,0,0.4,0L275.7,201.3L275.7,201.3z"/>
		
			<path fill="#464646" stroke="#464646" stroke-width="0.9376" stroke-linecap="round" stroke-linejoin="round" stroke-miterlimit="10" d="
			M233.9,195.7C233.9,195.3,233.9,195.3,233.9,195.7c0.4,0,0.4,0,0.4,0h0.4h18.1h0.4h0.4h0.4l0,0l2.2,2.2l0,0l0,0h-0.4h-0.4h-18.5
			h-0.4h-0.4h-0.4l0,0L233.9,195.7L233.9,195.7z"/>
		
			<path fill="#464646" stroke="#464646" stroke-width="0.9376" stroke-linecap="round" stroke-linejoin="round" stroke-miterlimit="10" d="
			M260.6,185.3L260.6,185.3c0.4,0,0.4,0,0.4,0h0.4h9h0.4h0.4h0.4l0,0l1.3,0.9l0,0l0,0c0,0,0,0-0.4,0h-0.4h-9h-0.4h-0.4h-0.4l0,0
			L260.6,185.3L260.6,185.3z"/>
		
			<path fill="#464646" stroke="#464646" stroke-width="0.9376" stroke-linecap="round" stroke-linejoin="round" stroke-miterlimit="10" d="
			M234.8,187.1C235.2,187.1,235.2,187.1,234.8,187.1l1.7,1.7l0,0l0,0c0,0,0,0-0.4,0h-0.4h-9.5h-0.4h-0.4h-0.4l0,0l-1.3-1.7l0,0l0,0
			c0,0,0,0,0.4,0h0.4h9h0.4C234.3,187.1,234.3,187.1,234.8,187.1L234.8,187.1z"/>
		
			<path fill="#464646" stroke="#464646" stroke-width="0.9376" stroke-linecap="round" stroke-linejoin="round" stroke-miterlimit="10" d="
			M236.1,185.3L236.1,185.3c0.4,0,0.4,0,0.4,0h0.4h7.8h0.4h0.4h0.4l0,0l0.9,0.9l0,0l0,0c0,0,0,0-0.4,0H246h-7.8h-0.4h-0.4h-0.4l0,0
			L236.1,185.3L236.1,185.3z"/>
		
			<path fill="#464646" stroke="#464646" stroke-width="0.9376" stroke-linecap="round" stroke-linejoin="round" stroke-miterlimit="10" d="
			M221.4,191.8H221h-0.4h-0.4l0,0l-1.3-1.7l0,0c0,0,0,0,0.4,0c0,0,0,0,0.4,0h0.4h9.5h0.4h0.4h0.4l0,0l1.3,1.7l0,0l0,0h-0.4h-0.4
			H221.4z"/>
		
			<path fill="#464646" stroke="#464646" stroke-width="0.9376" stroke-linecap="round" stroke-linejoin="round" stroke-miterlimit="10" d="
			M223.6,185.3L223.6,185.3c0.4,0,0.4,0,0.4,0h0.4h7.8h0.4h0.4h0.4l0,0l0.9,0.9l0,0l0,0c0,0,0,0-0.4,0h-0.4h-7.8h-0.4h-0.4h-0.4l0,0
			L223.6,185.3L223.6,185.3z"/>
		
			<path fill="#464646" stroke="#464646" stroke-width="0.9376" stroke-linecap="round" stroke-linejoin="round" stroke-miterlimit="10" d="
			M273.1,187.1h0.4h0.4l0,0l2.2,1.7l0,0l0,0c0,0,0,0-0.4,0h-0.4h-9.5h-0.4h-0.4h-0.4l0,0l-2.2-1.7l0,0l0,0c0,0,0,0,0.4,0h0.4h9
			C273.1,187.1,273.1,187.1,273.1,187.1z"/>
		
			<path fill="#464646" stroke="#464646" stroke-width="0.9376" stroke-linecap="round" stroke-linejoin="round" stroke-miterlimit="10" d="
			M206.3,191.8h-0.4h-0.4h-0.4l0,0l-0.9-1.7l0,0c0,0,0,0,0.4,0h0.4h0.4h9.5h0.4h0.4h0.4l0,0l0.9,1.7l0,0c0,0,0,0-0.4,0h-0.4h-0.4
			H206.3z"/>
		
			<path fill="#464646" stroke="#464646" stroke-width="0.9376" stroke-linecap="round" stroke-linejoin="round" stroke-miterlimit="10" d="
			M259.3,197.8L259.3,197.8l-2.2-2.2l0,0l0,0c0,0,0,0,0.4,0h0.4h9.9h0.4h0.4h0.4c0,0,0,0,0.4,0l2.2,2.2l0,0l0,0c0,0,0,0-0.4,0H271
			h-10.3h-0.4C260.2,197.8,259.8,197.8,259.3,197.8C259.8,197.8,259.8,197.8,259.3,197.8z"/>
		
			<path fill="#464646" stroke="#464646" stroke-width="0.9376" stroke-linecap="round" stroke-linejoin="round" stroke-miterlimit="10" d="
			M276.6,189.7h0.4h0.4c0,0,0,0,0.4,0l2.2,1.7l0,0l0,0c0,0,0,0-0.4,0h-0.4h-9.5h-0.4h-0.4h-0.4l0,0l-2.2-1.7l0,0l0,0c0,0,0,0,0.4,0
			h0.4H276.6C276.1,189.7,276.6,189.7,276.6,189.7z"/>
		
			<path fill="#464646" stroke="#464646" stroke-width="0.9376" stroke-linecap="round" stroke-linejoin="round" stroke-miterlimit="10" d="
			M259.3,201.3L259.3,201.3c-0.4,0-0.4,0-0.4,0h-0.4h-10.8h-0.4h-0.4h-0.4l0,0l-1.7-2.2l0,0l0,0h0.4h0.4h10.3h0.4h0.4h0.4l0,0
			L259.3,201.3C259.3,200.9,259.3,201.3,259.3,201.3z"/>
		
			<path fill="#464646" stroke="#464646" stroke-width="0.9376" stroke-linecap="round" stroke-linejoin="round" stroke-miterlimit="10" d="
			M276.1,197.8h-0.4h-0.4c0,0,0,0-0.4,0l-2.6-2.2l0,0l0,0c0,0,0,0,0.4,0h0.4h9.9h0.4h0.4h0.4c0,0,0,0,0.4,0l2.6,2.2l0,0l0,0
			c0,0,0,0-0.4,0h-0.4H276.1L276.1,197.8z"/>
		
			<path fill="#464646" stroke="#464646" stroke-width="0.9376" stroke-linecap="round" stroke-linejoin="round" stroke-miterlimit="10" d="
			M280,192.7h0.4h0.4c0,0,0,0,0.4,0l2.6,2.2l0,0l0,0c0,0,0,0-0.4,0H283h-9.9h-0.4h-0.4h-0.4l0,0l-2.2-2.2l0,0l0,0c0,0,0,0,0.4,0h0.4
			H280C280,192.7,280,192.7,280,192.7z"/>
	</g>
	<g>
		<path fill="#F2F1F0" d="M129.2,188.8C129.2,188.8,129.7,188.8,129.2,188.8c0.4,0,0.4,0,0.4,0l0,0l-0.9,1.7l0,0c0,0,0,0-0.4,0h-0.4
			h-0.4H118h-0.4h-0.4c0,0,0,0-0.4,0l0,0l0.9-1.7l0,0c0,0,0,0,0.4,0h0.4h0.4h9.5C128.8,188.8,129.2,188.8,129.2,188.8z"/>
		<path fill="#F2F1F0" d="M104.2,193.5l1.3-1.7l0,0c0,0,0,0,0.4,0h0.4h0.4h9.5h0.4h0.4c0,0,0,0,0.4,0l0,0l-0.9,1.7l0,0
			c0,0,0,0-0.4,0h-0.4h-0.4h-9.9h-0.4C104.7,194,104.7,194,104.2,193.5L104.2,193.5L104.2,193.5z"/>
		<path fill="#F2F1F0" d="M102.5,190.9C102.5,190.9,102.5,190.5,102.5,190.9l1.3-1.7l0,0c0,0,0,0,0.4,0h0.4h0.4h9.5h0.4h0.4l0,0l0,0
			l-0.9,1.7l0,0c0,0,0,0-0.4,0h-0.4h-0.4h-9.5h-0.4C102.9,190.9,102.5,190.9,102.5,190.9L102.5,190.9z"/>
		<path fill="#F2F1F0" d="M109.8,196.5l1.3-2.2l0,0c0,0,0,0,0.4,0h0.4h0.4h9.9h0.4h0.4c0,0,0,0,0.4,0l0,0l-0.9,2.2l0,0
			c0,0,0,0-0.4,0h-0.4h-0.4h-10.3h-0.4C110.3,197,110.3,197,109.8,196.5C110.3,197,109.8,197,109.8,196.5L109.8,196.5z"/>
		<path fill="#F2F1F0" d="M89.2,193.5l1.7-1.7l0,0c0,0,0,0,0.4,0h0.4h0.4h9.5h0.4h0.4l0,0l0,0l-1.3,1.7l0,0c0,0,0,0-0.4,0h-0.4h-0.4
			H90h-0.4C89.6,194,89.2,194,89.2,193.5L89.2,193.5L89.2,193.5z"/>
		<path fill="#F2F1F0" d="M90.4,197.8l-1.7,2.2l0,0h-0.4h-0.4h-0.4H76.7h-0.4h-0.4l0,0l0,0l2.2-2.2l0,0h0.4h0.4h0.4h10.3H90
			C90,197.4,90,197.4,90.4,197.8C90.4,197.4,90.4,197.4,90.4,197.8L90.4,197.8z"/>
		<path fill="#F2F1F0" d="M74.9,197h-0.4h-0.4H63.7h-0.4h-0.4l0,0l0,0l2.2-2.2l0,0h0.4h0.4h0.4h9.9h0.4h0.4l0,0l0,0L74.9,197
			C75.8,196.5,75.8,196.5,74.9,197C75.4,197,75.4,197,74.9,197z"/>
		<path fill="#F2F1F0" d="M74.5,197.8l-2.2,2.2c0,0,0,0-0.4,0h-0.4h-0.4h-0.4H59.9h-0.4H59l0,0l0,0l2.6-2.2c0,0,0,0,0.4,0h0.4h0.4
			h0.4h10.3h0.4C74.1,197.4,74.5,197.4,74.5,197.8C74.5,197.4,74.5,197.4,74.5,197.8L74.5,197.8z"/>
		<path fill="#F2F1F0" d="M120.2,194C120.2,194,119.7,194,120.2,194c-0.4,0-0.4,0-0.4,0l0,0l0.9-1.7l0,0c0,0,0,0,0.4,0h0.4h0.4h9.5
			h0.4h0.4c0,0,0,0,0.4,0l0,0l-0.9,1.7l0,0c0,0,0,0-0.4,0h-0.4h-0.4h-9.9C120.6,194,120.2,194,120.2,194z"/>
		<path fill="#F2F1F0" d="M106.4,197.8l-1.3,2.2l0,0c0,0,0,0-0.4,0h-0.4h-0.4H93h-0.4h-0.4c0,0,0,0-0.4,0l0,0l1.7-2.2l0,0
			c0,0,0,0,0.4,0h0.4h0.4h10.3h0.4C106,197.4,106,197.4,106.4,197.8C106,197.4,106.4,197.8,106.4,197.8L106.4,197.8z"/>
		<path fill="#F2F1F0" d="M248.6,184.5L248.6,184.5c0.4,0,0.4,0,0.4,0h0.4h7.8h0.4h0.4h0.4l0,0l0.9,0.9l0,0l0,0c0,0,0,0-0.4,0h-0.4
			h-7.8h-0.4h-0.4h-0.4l0,0L248.6,184.5C248.6,184.9,248.6,184.9,248.6,184.5z"/>
		<path fill="#F2F1F0" d="M211.1,184.5L211.1,184.5c0.4,0,0.4,0,0.4,0h0.4h7.8h0.4h0.4c0,0,0,0,0.4,0l0,0l0.4,0.9l0,0l0,0
			c0,0,0,0-0.4,0h-0.4h-7.8h-0.4h-0.4h-0.4l0,0L211.1,184.5C210.7,184.5,210.7,184.5,211.1,184.5z"/>
		<path fill="#F2F1F0" d="M82.7,187.9l1.7-1.7l0,0c0,0,0,0,0.4,0h0.4h0.4h9h0.4h0.4l0,0l0,0l-1.3,1.7l0,0c0,0,0,0-0.4,0h-0.4H93
			h-9.5h-0.4C83.1,187.9,83.1,187.9,82.7,187.9L82.7,187.9L82.7,187.9z"/>
		<path fill="#F2F1F0" d="M84,185.3l0.9-0.9l0,0c0,0,0,0,0.4,0h0.4h0.4h7.8h0.4h0.4l0,0l0,0l-0.9,0.9l0,0c0,0,0,0-0.4,0H93h-0.4
			h-7.8h-0.4C84.4,185.3,84,185.3,84,185.3L84,185.3L84,185.3z"/>
		<path fill="#F2F1F0" d="M209.8,186.2L209.8,186.2c0.4,0,0.4,0,0.4,0h0.4h9h0.4h0.4h0.4l0,0l1.3,1.7l0,0l0,0c0,0,0,0-0.4,0h-0.4
			h-9.5h-0.4h-0.4h-0.4l0,0L209.8,186.2C209.8,186.6,209.8,186.2,209.8,186.2z"/>
		<path fill="#F2F1F0" d="M93,194.4l-1.7,2.2l0,0c0,0,0,0-0.4,0h-0.4H90H79.7h-0.4h-0.4l0,0l0,0l1.7-2.2l0,0c0,0,0,0,0.4,0h0.4h0.4
			h9.9h0.4C92.6,194.4,92.6,194.4,93,194.4L93,194.4L93,194.4z"/>
		<path fill="#F2F1F0" d="M260.2,186.6L260.2,186.6l2.2,1.7l0,0l0,0c0,0,0,0-0.4,0h-0.4h-20.7h-0.4h-0.4h-0.4l0,0l-1.3-1.7l0,0l0,0
			c0,0,0,0,0.4,0h0.4h19.8h0.4C259.3,186.2,259.8,186.2,260.2,186.6C259.8,186.6,259.8,186.6,260.2,186.6z"/>
		<path fill="#F2F1F0" d="M73.6,193.5l1.7-1.7l0,0c0,0,0,0,0.4,0h0.4h0.4h9.5h0.4H87l0,0l0,0l-1.7,1.7l0,0c0,0,0,0-0.4,0h-0.4H84
			h-9.9H73.6C74.1,194,74.1,193.5,73.6,193.5C74.1,193.5,73.6,193.5,73.6,193.5L73.6,193.5z"/>
		<path fill="#F2F1F0" d="M135.3,194L135.3,194c-0.4,0-0.4,0-0.4,0l0,0l0.9-1.7l0,0c0,0,0,0,0.4,0h0.4h0.4h9.5h0.4h0.4
			c0,0,0,0,0.4,0l0,0l-0.4,1.7l0,0c0,0,0,0-0.4,0h-0.4H146h-9.9C135.7,194,135.7,194,135.3,194z"/>
		<path fill="#F2F1F0" d="M158.1,188.8L158.1,188.8c0.4,0,0.4,0,0.4,0l0,0v1.7l0,0c0,0,0,0-0.4,0h-0.4h-0.4h-9.5h-0.4h-0.4
			c0,0,0,0-0.4,0l0,0l0.4-1.7l0,0c0,0,0,0,0.4,0h0.4h0.4h9.5C157.7,188.8,157.7,188.8,158.1,188.8z"/>
		<path fill="#F2F1F0" d="M143.4,188.8C143.9,188.8,143.9,188.8,143.4,188.8c0.4,0,0.4,0,0.4,0l0,0l-0.4,1.7l0,0c0,0,0,0-0.4,0h-0.4
			h-0.4h-9.5h-0.4h-0.4c0,0,0,0-0.4,0l0,0l0.9-1.7l0,0c0,0,0,0,0.4,0h0.4h0.4h9.5C143.4,188.8,143.4,188.8,143.4,188.8z"/>
		<path fill="#F2F1F0" d="M141.7,194.8L141.7,194.8C142.1,194.4,142.1,194.4,141.7,194.8c0.4,0,0.9-0.4,0.9-0.4h0.4h9.9h0.4h0.4
			c0,0,0,0,0.4,0l0,0l-0.4,2.2l0,0c0,0,0,0-0.4,0h-0.4h-0.4h-10.3h-0.4h-0.4c0,0,0,0-0.4,0l0,0L141.7,194.8z"/>
		<path fill="#F2F1F0" d="M126.6,194.8C126.6,194.8,126.6,194.4,126.6,194.8c0.4,0,0.4,0,0.4,0h0.4h0.4h9.9h0.4h0.4c0,0,0,0,0.4,0
			l0,0l-0.4,2.2l0,0c0,0,0,0-0.4,0h-0.4h-0.4h-10.3h-0.4h-0.4c0,0,0,0-0.4,0l0,0L126.6,194.8z"/>
		<path fill="#F2F1F0" d="M171.9,188.8h0.4h0.4c0,0,0,0,0.4,0l0,0v1.7l0,0c0,0,0,0-0.4,0h-0.4h-0.4h-9.5H162h-0.4c0,0,0,0-0.4,0l0,0
			v-1.7l0,0c0,0,0,0,0.4,0h0.4h0.4H171.9z"/>
		<path fill="#F2F1F0" d="M186.1,188.8h0.4h0.4c0,0,0,0,0.4,0l0,0l0.4,1.7l0,0c0,0,0,0-0.4,0H187h-0.4H177h-0.4h-0.4c0,0,0,0-0.4,0
			l0,0v-1.7l0,0c0,0,0,0,0.4,0h0.4h0.4H186.1z"/>
		<path fill="#F2F1F0" d="M172.7,194.8C172.7,194.8,172.7,194.4,172.7,194.8c0.4,0,0.4,0,0.9,0h0.4h9.9h0.4h0.4h0.4l0,0l0.4,2.2l0,0
			c0,0,0,0-0.4,0h-0.4h-0.4H174h-0.4h-0.4h-0.4l0,0V194.8C172.3,194.8,172.3,194.8,172.7,194.8z"/>
		<path fill="#F2F1F0" d="M157.2,194.8L157.2,194.8C157.2,194.4,157.2,194.4,157.2,194.8c0.4,0,0.9-0.4,0.9-0.4h0.4h9.9h0.4h0.4
			c0,0,0,0,0.4,0l0,0v2.2l0,0c0,0,0,0-0.4,0h-0.4h-0.4h-10.3h-0.4h-0.4c0,0,0,0-0.4,0l0,0L157.2,194.8z"/>
		<path fill="#F2F1F0" d="M166.3,194h-0.4h-0.4c0,0,0,0-0.4,0l0,0v-1.7l0,0c0,0,0,0,0.4,0h0.4h0.4h9.5h0.4h0.4c0,0,0,0,0.4,0l0,0
			l0.4,1.7l0,0c0,0,0,0-0.4,0h-0.4h-0.4H166.3z"/>
		<path fill="#F2F1F0" d="M150.8,194C150.3,194,150.3,194,150.8,194c-0.4,0-0.4,0-0.9,0l0,0l0.4-1.7l0,0c0,0,0,0,0.4,0h0.4h0.4h9.5
			h0.4h0.4c0,0,0,0,0.4,0l0,0v1.7l0,0c0,0,0,0-0.4,0h-0.4h-0.4h-9.9C150.8,194,150.8,194,150.8,194z"/>
		<path fill="#F2F1F0" d="M108.5,194.8l-1.3,2.2l0,0c0,0,0,0-0.4,0h-0.4H106H95.6h-0.4h-0.4c0,0,0,0-0.4,0l0,0l1.7-2.2l0,0
			c0,0,0,0,0.4,0h0.4h0.4h9.9h0.4C107.7,194.4,108.1,194.4,108.5,194.8C108.1,194.4,108.1,194.4,108.5,194.8
			C108.5,194.4,108.5,194.4,108.5,194.8z"/>
		<path fill="#F2F1F0" d="M165.4,188.4L165.4,188.4c-0.4,0-0.4,0-0.4,0h-0.4h-9.5h-0.4h-0.4c0,0,0,0-0.4,0l0,0l0.4-1.7l0,0
			c0,0,0,0,0.4,0h0.4h0.4h9h0.4h0.4c0,0,0,0,0.4,0l0,0L165.4,188.4C165.4,187.9,165.4,188.4,165.4,188.4z"/>
		<path fill="#F2F1F0" d="M109.4,185.3l0.4-0.9l0,0c0,0,0,0,0.4,0h0.4h0.4h7.8h0.4h0.4l0,0l0,0l-0.4,0.9l0,0c0,0,0,0-0.4,0h-0.4H118
			h-7.8h-0.4C109.8,185.8,109.8,185.3,109.4,185.3L109.4,185.3L109.4,185.3z"/>
		<path fill="#F2F1F0" d="M147.7,184.5L147.7,184.5C148.2,184.5,148.2,184.5,147.7,184.5c0.4,0,0.4,0,0.9,0h0.4h7.8h0.4h0.4
			c0,0,0,0,0.4,0l0,0v0.9l0,0c0,0,0,0-0.4,0h-0.4h-0.4H149h-0.4h-0.4c0,0,0,0-0.4,0l0,0V184.5z"/>
		<path fill="#F2F1F0" d="M135.3,184.5L135.3,184.5L135.3,184.5c0.4,0,0.4,0,0.9,0h0.4h7.8h0.4h0.4c0,0,0,0,0.4,0l0,0l-0.4,0.9l0,0
			c0,0,0,0-0.4,0h-0.4h-0.4h-7.8h-0.4h-0.4c0,0,0,0-0.4,0l0,0L135.3,184.5z"/>
		<path fill="#F2F1F0" d="M122.8,187.9L122.8,187.9h-0.4h-0.4h-0.4H112h-0.4h-0.4l0,0l0,0l0.9-1.7l0,0c0,0,0,0,0.4,0h0.4h0.4h9h0.4
			h0.4c0,0,0,0,0.4,0l0,0L122.8,187.9z"/>
		<path fill="#F2F1F0" d="M137,187.9L137,187.9C137,187.9,136.5,188.4,137,187.9c-0.4,0-0.9,0-0.9,0h-0.4h-9.5h-0.4h-0.4
			c0,0,0,0-0.4,0l0,0l0.9-1.7l0,0c0,0,0,0,0.4,0h0.4h0.4h9h0.4h0.4c0,0,0,0,0.4,0l0,0L137,187.9z"/>
		<path fill="#F2F1F0" d="M122.8,184.5L122.8,184.5L122.8,184.5c0.4,0,0.9,0,0.9,0h0.4h7.8h0.4h0.4c0,0,0,0,0.4,0l0,0l-0.4,0.9l0,0
			c0,0,0,0-0.4,0h-0.4h-0.4h-7.8h-0.4h-0.4c0,0,0,0-0.4,0l0,0L122.8,184.5z"/>
		<path fill="#F2F1F0" d="M151.2,187.9L151.2,187.9C151.2,188.4,151.2,188.4,151.2,187.9c-0.4,0-0.4,0-0.9,0h-0.4h-9.5H140h-0.4
			c0,0,0,0-0.4,0l0,0l0.4-1.7l0,0c0,0,0,0,0.4,0h0.4h0.4h9h0.4h0.4c0,0,0,0,0.4,0l0,0V187.9z"/>
		<path fill="#F2F1F0" d="M160.2,184.5L160.2,184.5C160.7,184.5,160.7,184.5,160.2,184.5c0.4,0,0.4,0,0.9,0h0.4h7.8h0.4h0.4
			c0,0,0,0,0.4,0l0,0v0.9l0,0c0,0,0,0-0.4,0h-0.4h-0.4h-7.8h-0.4h-0.4c0,0,0,0-0.4,0l0,0V184.5z"/>
		<path fill="#F2F1F0" d="M196,186.2C196,186.2,196.4,186.2,196,186.2c0.4,0,0.9,0,0.9,0h9h0.4h0.4c0,0,0,0,0.4,0l0,0l0.9,1.7l0,0
			c0,0,0,0-0.4,0h-0.4h-0.4h-9.5h-0.4h-0.4c0,0,0,0-0.4,0l0,0V186.2L196,186.2L196,186.2z"/>
		<path fill="#F2F1F0" d="M181.8,186.2L181.8,186.2C182.2,186.2,182.2,186.2,181.8,186.2c0.4,0,0.4,0,0.9,0h0.4h9h0.4h0.4
			c0,0,0,0,0.4,0l0,0l0.4,1.7l0,0c0,0,0,0-0.4,0H193h-0.4h-9.5h-0.4h-0.4c0,0,0,0-0.4,0l0,0V186.2z"/>
		<path fill="#F2F1F0" d="M185.7,184.5L185.7,184.5c0.4,0,0.4,0,0.4,0h0.4h7.8h0.4h0.4c0,0,0,0,0.4,0l0,0l0.4,0.9l0,0c0,0,0,0-0.4,0
			h-0.4h-0.4H187h-0.4h-0.4c0,0,0,0-0.4,0l0,0V184.5L185.7,184.5z"/>
		<path fill="#F2F1F0" d="M198.2,184.5C198.2,184.5,198.6,184.5,198.2,184.5c0.4,0,0.4,0,0.4,0h0.4h7.8h0.4h0.4c0,0,0,0,0.4,0l0,0
			l0.4,0.9l0,0c0,0,0,0-0.4,0c0,0,0,0-0.4,0h-0.4h-7.8H199h-0.4c0,0,0,0-0.4,0l0,0V184.5L198.2,184.5z"/>
		<path fill="#F2F1F0" d="M173.2,184.5L173.2,184.5c0.4,0,0.4,0,0.4,0h0.4h7.8h0.4h0.4c0,0,0,0,0.4,0l0,0v0.9l0,0c0,0,0,0-0.4,0
			h-0.4h-0.4H174h-0.4h-0.4c0,0,0,0-0.4,0l0,0L173.2,184.5L173.2,184.5z"/>
		<path fill="#F2F1F0" d="M179.6,188.4L179.6,188.4c-0.4,0-0.4,0-0.4,0h-0.4h-9.5h-0.4h-0.4c0,0,0,0-0.4,0l0,0v-1.7l0,0
			c0,0,0,0,0.4,0h0.4h0.4h9h0.4h0.4c0,0,0,0,0.4,0l0,0V188.4L179.6,188.4z"/>
		<path fill="#F2F1F0" d="M46.9,193.5l2.6-1.7c0,0,0,0,0.4,0h0.4h0.4h0.4h21.5h0.4h0.4l0,0l0,0l-2.2,1.7l0,0h-0.4h-0.4h-0.4h-22
			h-0.4C47.4,193.5,47.4,193.5,46.9,193.5L46.9,193.5L46.9,193.5z"/>
		<path fill="#F2F1F0" d="M59,197h-0.4H44.3h-0.4h-0.4l0,0l0,0l2.6-2.2c0,0,0,0,0.4,0h0.4h0.4h0.4h13.8H62h0.4l0,0l0,0l-2.2,2.2
			c0,0,0,0-0.4,0h-0.4H59z"/>
		<path fill="#F2F1F0" d="M50.8,190.5l2.2-1.7l0,0h0.4h0.4h0.4h16.8h0.4h0.4l0,0l0,0l-2.2,1.7l0,0c0,0,0,0-0.4,0h-0.4h-0.4H51.2
			H50.8C51.2,190.9,51.2,190.9,50.8,190.5L50.8,190.5L50.8,190.5z"/>
		<path fill="#F2F1F0" d="M292.1,200.4L292.1,200.4c-0.4,0-0.4,0-0.4,0h-0.4h-10.8H280h-0.4h-0.4c0,0,0,0-0.4,0l-2.6-2.2l0,0l0,0
			c0,0,0,0,0.4,0h0.4h10.3h0.4h0.4h0.4c0,0,0,0,0.4,0L292.1,200.4L292.1,200.4z"/>
		<path fill="#F2F1F0" d="M58.6,197.8L56,200c0,0,0,0-0.4,0h-0.4h-0.4h-0.4H39.6h-0.4h-0.4l0,0l0,0l3-2.2c0,0,0,0,0.4,0h0.4h0.4h0.4
			h14.2h0.4C58.6,197.4,58.6,197.4,58.6,197.8C58.6,197.4,58.6,197.4,58.6,197.8C59,197.4,59,197.8,58.6,197.8z"/>
		<path fill="#F2F1F0" d="M54.3,187.9l2.2-1.7l0,0c0,0,0,0,0.4,0h0.4h0.4h9h0.4h0.4l0,0l0,0l-2.2,1.7l0,0c0,0,0,0-0.4,0h-0.4h-0.4
			h-9.5H54.3C54.7,187.9,54.7,187.9,54.3,187.9L54.3,187.9L54.3,187.9z"/>
		<path fill="#F2F1F0" d="M109,186.2C109.4,186.2,109.4,186.2,109,186.2c0.4,0,0.4,0,0.4,0l0,0l-1.3,1.7l0,0c0,0,0,0-0.4,0h-0.4
			h-0.4h-9.5h-0.4h-0.4l0,0l0,0l1.3-1.7l0,0c0,0,0,0,0.4,0h0.4h0.4h9C109,186.2,109,186.2,109,186.2z"/>
		<path fill="#F2F1F0" d="M87.9,190.9C87.9,190.5,87.9,190.5,87.9,190.9l1.7-1.7l0,0c0,0,0,0,0.4,0h0.4h0.4h9.5h0.4h0.4l0,0l0,0
			l-1.3,1.7l0,0c0,0,0,0-0.4,0h-0.4h-0.4h-9.5h-0.4C88.3,190.9,87.9,190.9,87.9,190.9L87.9,190.9z"/>
		<path fill="#F2F1F0" d="M186.1,200.4L186.1,200.4c-0.4,0-0.4,0-0.9,0h-0.4H109h-0.4h-0.4c0,0,0,0-0.4,0l0,0l1.3-2.2l0,0
			c0,0,0,0,0.4,0h0.4h0.4h73.7h0.4h0.4h0.4l0,0L186.1,200.4C186.1,200,186.1,200.4,186.1,200.4z"/>
		<path fill="#F2F1F0" d="M73.2,190.9L73.2,190.9C72.8,190.5,72.8,190.5,73.2,190.9l1.7-2.2l0,0c0,0,0,0,0.4,0h0.4h0.4h9.5h0.4h0.4
			l0,0l0,0l-1.7,1.7l0,0c0,0,0,0-0.4,0H84h-0.4h-9.5C73.6,190.9,73.6,190.9,73.2,190.9L73.2,190.9z"/>
		<path fill="#F2F1F0" d="M57.7,185.3l1.3-0.9l0,0c0,0,0,0,0.4,0h0.4h0.4h9h0.4h0.4l0,0l0,0l-0.9,0.9l0,0c0,0,0,0-0.4,0h-0.4H68h-9
			h-0.4C58.1,185.3,58.1,185.3,57.7,185.3L57.7,185.3L57.7,185.3z"/>
		<path fill="#F2F1F0" d="M68.5,187.9l1.7-1.7l0,0c0,0,0,0,0.4,0h0.4h0.4h9H81h0.4l0,0l0,0l-1.7,1.7l0,0c0,0,0,0-0.4,0h-0.4h-0.4
			h-9.5H68.5C68.9,187.9,68.9,187.9,68.5,187.9L68.5,187.9L68.5,187.9z"/>
		<path fill="#F2F1F0" d="M71.1,185.3l0.9-0.9l0,0c0,0,0,0,0.4,0h0.4h0.4H81h0.4h0.4l0,0l0,0l-0.9,0.9l0,0c0,0,0,0-0.4,0h-0.4h-0.4
			h-7.8h-0.4C71.5,185.3,71.5,185.3,71.1,185.3L71.1,185.3L71.1,185.3z"/>
		<path fill="#F2F1F0" d="M96.5,185.3l0.9-0.9l0,0c0,0,0,0,0.4,0h0.4h0.4h7.8h0.4h0.4l0,0l0,0l-0.4,0.9l0,0c0,0,0,0-0.4,0H106h-0.4
			h-7.8h-0.4C96.9,185.3,96.9,185.3,96.5,185.3C96.9,185.3,96.5,185.3,96.5,185.3L96.5,185.3z"/>
		<path fill="#F2F1F0" d="M219.7,197L219.7,197l-1.3-2.2l0,0c0,0,0,0,0.4,0h0.4h0.4h9.9h0.4h0.4h0.4l0,0l1.3,2.2l0,0c0,0,0,0-0.4,0
			h-0.4h-0.4h-10.3h-0.4C220.6,197,220.1,197,219.7,197C220.1,197,219.7,197,219.7,197z"/>
		<path fill="#F2F1F0" d="M209.8,191.8L209.8,191.8c0.4,0,0.4,0,0.4,0h0.4h9.5h0.4h0.4h0.4l0,0l1.3,1.7l0,0c0,0,0,0-0.4,0h-0.4h-0.4
			h-9.9h-0.4h-0.4h-0.4l0,0L209.8,191.8L209.8,191.8z"/>
		<path fill="#F2F1F0" d="M250.3,191.8h0.4h0.4h0.4l0,0l1.7,1.7l0,0l0,0c0,0,0,0-0.4,0h-0.4h-9.9h-0.4h-0.4h-0.4l0,0l-1.7-1.7l0,0
			l0,0c0,0,0,0,0.4,0h0.4H250.3z"/>
		<path fill="#F2F1F0" d="M218.4,200.4L218.4,200.4c-0.4,0-0.4,0-0.4,0h-0.4h-10.8h-0.4h-0.4h-0.4l0,0l-0.9-2.2l0,0c0,0,0,0,0.4,0
			h0.4h0.4h10.3h0.4h0.4h0.4l0,0L218.4,200.4L218.4,200.4z"/>
		<path fill="#F2F1F0" d="M224.9,191.8L224.9,191.8c0.4,0,0.4,0,0.4,0h0.4h9.5h0.4h0.4h0.4l0,0l1.7,1.7l0,0c0,0,0,0-0.4,0h-0.4h-0.4
			H227h-0.4h-0.4h-0.4l0,0L224.9,191.8L224.9,191.8z"/>
		<path fill="#F2F1F0" d="M246.4,190.9L246.4,190.9c-0.4,0-0.4,0-0.4,0h-0.4h-9.5h-0.4h-0.4h-0.4l0,0l-1.3-1.7l0,0l0,0
			c0,0,0,0,0.4,0h0.4h9.5h0.4h0.4h0.4l0,0L246.4,190.9L246.4,190.9z"/>
		<path fill="#F2F1F0" d="M255.9,194L255.9,194l-2.6-2.6h-0.4h-0.4H252h-0.4h-0.9h-0.4h-0.4h-0.4l0,0l-1.7-1.7l0,0l0,0
			c0,0,0,0,0.4,0h0.4h12.9h0.4h0.4h0.4l0,0l5.2,4.7l0,0l0,0c0,0,0,0-0.4,0h-0.4h-9.9h-0.4C256.8,194,256.3,194,255.9,194
			C256.3,194,255.9,194,255.9,194z"/>
		<path fill="#F2F1F0" d="M195.1,191.8L195.1,191.8c0.4,0,0.4,0,0.4,0h0.4h9.5h0.4h0.4h0.4l0,0l0.9,1.7l0,0c0,0,0,0-0.4,0h-0.4h-0.4
			h-9.9H196h-0.4h-0.4l0,0L195.1,191.8C194.7,191.8,194.7,191.8,195.1,191.8z"/>
		<path fill="#F2F1F0" d="M203.8,197l-0.9-2.2l0,0c0,0,0,0,0.4,0h0.4h0.4h9.9h0.4h0.4h0.4l0,0l1.3,2.2l0,0c0,0,0,0-0.4,0h-0.4h-0.4
			h-10.3h-0.4h-0.4C204.2,197,204.2,197,203.8,197C204.2,197,203.8,197,203.8,197z"/>
		<path fill="#F2F1F0" d="M188.2,197l-0.4-2.2l0,0c0,0,0,0,0.4,0h0.4h0.4h9.9h0.4h0.4h0.4l0,0l0.9,2.2l0,0c0,0,0,0-0.4,0h-0.4h-0.4
			h-10.3h-0.4h-0.4C188.7,197,188.7,197,188.2,197L188.2,197z"/>
		<path fill="#F2F1F0" d="M181.8,194h-0.4h-0.4c0,0,0,0-0.4,0l0,0l-0.4-1.7l0,0c0,0,0,0,0.4,0h0.4h0.4h9.5h0.4h0.4h0.4l0,0l0.4,1.7
			l0,0c0,0,0,0-0.4,0h-0.4h-0.4H181.8z"/>
		<path fill="#F2F1F0" d="M191.7,190.9h-0.4h-0.4h-0.4l0,0l-0.4-1.7l0,0c0,0,0,0,0.4,0h0.4h0.4h9.5h0.4h0.4h0.4l0,0l0.9,1.7l0,0
			c0,0,0,0-0.4,0H202h-0.4H191.7z"/>
		<path fill="#F2F1F0" d="M202.5,200.4C202,200.4,202,200.4,202.5,200.4c-0.4,0-0.4,0-0.9,0h-0.4h-10.8H190h-0.4h-0.4l0,0l-0.4-2.2
			l0,0c0,0,0,0,0.4,0h0.4h0.4h10.3h0.4h0.4h0.4l0,0L202.5,200.4L202.5,200.4z"/>
		<path fill="#F2F1F0" d="M243.4,200.4L243.4,200.4c-0.4,0-0.4,0-0.4,0h-0.4h-19h-0.4h-0.4h-0.4l0,0l-1.3-2.2l0,0c0,0,0,0,0.4,0h0.4
			h0.4h18.5h0.4h0.4h0.4l0,0L243.4,200.4L243.4,200.4z"/>
		<path fill="#F2F1F0" d="M275.7,200.4L275.7,200.4c-0.4,0-0.4,0-0.4,0h-0.4h-10.8h-0.4h-0.4h-0.4c0,0,0,0-0.4,0l-2.2-2.2l0,0l0,0
			h0.4h0.4h10.3h0.4h0.4h0.4c0,0,0,0,0.4,0L275.7,200.4L275.7,200.4z"/>
		<path fill="#F2F1F0" d="M233.9,194.8L233.9,194.8c0.4,0,0.4,0,0.4,0h0.4h18.1h0.4h0.4h0.4l0,0l2.2,2.2l0,0l0,0h-0.4h-0.4h-18.5
			h-0.4h-0.4h-0.4l0,0L233.9,194.8L233.9,194.8z"/>
		<path fill="#F2F1F0" d="M260.6,184.9C260.6,184.5,260.6,184.5,260.6,184.9c0.4,0,0.4,0,0.4,0h0.4h9h0.4h0.4h0.4l0,0l1.3,0.9l0,0
			l0,0c0,0,0,0-0.4,0h-0.4h-9h-0.4h-0.4h-0.4l0,0L260.6,184.9L260.6,184.9z"/>
		<path fill="#F2F1F0" d="M234.8,186.6C235.2,186.6,235.2,186.6,234.8,186.6l1.7,1.7l0,0l0,0c0,0,0,0-0.4,0h-0.4h-9.5h-0.4h-0.4
			h-0.4l0,0l-1.3-1.7l0,0l0,0c0,0,0,0,0.4,0h0.4h9h0.4C234.3,186.2,234.3,186.2,234.8,186.6C234.8,186.2,234.8,186.6,234.8,186.6z"
			/>
		<path fill="#F2F1F0" d="M236.1,184.5L236.1,184.5c0.4,0,0.4,0,0.4,0h0.4h7.8h0.4h0.4h0.4l0,0l0.9,0.9l0,0l0,0c0,0,0,0-0.4,0H246
			h-7.8h-0.4h-0.4h-0.4l0,0L236.1,184.5C236.1,184.9,236.1,184.9,236.1,184.5z"/>
		<path fill="#F2F1F0" d="M221.4,191.4H221h-0.4h-0.4l0,0l-1.3-1.7l0,0c0,0,0,0,0.4,0c0,0,0,0,0.4,0h0.4h9.5h0.4h0.4h0.4l0,0
			l1.3,1.7l0,0l0,0h-0.4h-0.4H221.4z"/>
		<path fill="#F2F1F0" d="M223.6,184.5L223.6,184.5c0.4,0,0.4,0,0.4,0h0.4h7.8h0.4h0.4h0.4l0,0l0.9,0.9l0,0l0,0c0,0,0,0-0.4,0h-0.4
			h-7.8h-0.4h-0.4h-0.4l0,0L223.6,184.5L223.6,184.5z"/>
		<path fill="#F2F1F0" d="M273.1,186.2h0.4h0.4l0,0l2.2,1.7l0,0l0,0c0,0,0,0-0.4,0h-0.4h-9.5h-0.4h-0.4h-0.4l0,0l-2.2-1.7l0,0l0,0
			c0,0,0,0,0.4,0h0.4h9C273.1,186.2,273.1,186.2,273.1,186.2z"/>
		<path fill="#F2F1F0" d="M206.3,190.9h-0.4h-0.4h-0.4l0,0l-0.9-1.7l0,0c0,0,0,0,0.4,0h0.4h0.4h9.5h0.4h0.4h0.4l0,0l0.9,1.7l0,0
			c0,0,0,0-0.4,0h-0.4h-0.4H206.3z"/>
		<path fill="#F2F1F0" d="M259.3,197L259.3,197l-2.2-2.2l0,0l0,0c0,0,0,0,0.4,0h0.4h9.9h0.4h0.4h0.4c0,0,0,0,0.4,0l2.2,2.2l0,0l0,0
			c0,0,0,0-0.4,0H271h-10.3h-0.4C260.2,197.4,259.8,197.4,259.3,197C259.8,197,259.8,197,259.3,197z"/>
		<path fill="#F2F1F0" d="M276.6,189.2h0.4h0.4c0,0,0,0,0.4,0l2.2,1.7l0,0l0,0c0,0,0,0-0.4,0h-0.4h-9.5h-0.4h-0.4h-0.4l0,0l-2.2-1.7
			l0,0l0,0c0,0,0,0,0.4,0h0.4H276.6C276.1,188.8,276.6,188.8,276.6,189.2z"/>
		<path fill="#F2F1F0" d="M259.3,200.4L259.3,200.4c-0.4,0-0.4,0-0.4,0h-0.4h-10.8h-0.4h-0.4h-0.4l0,0l-1.7-2.2l0,0l0,0h0.4h0.4
			h10.3h0.4h0.4h0.4l0,0L259.3,200.4L259.3,200.4z"/>
		<path fill="#F2F1F0" d="M276.1,197.4h-0.4h-0.4c0,0,0,0-0.4,0l-2.6-2.2l0,0l0,0c0,0,0,0,0.4,0h0.4h9.9h0.4h0.4h0.4c0,0,0,0,0.4,0
			l2.6,2.2l0,0l0,0c0,0,0,0-0.4,0h-0.4H276.1L276.1,197.4z"/>
		<path fill="#F2F1F0" d="M280,191.8h0.4h0.4c0,0,0,0,0.4,0l2.6,1.7l0,0l0,0c0,0,0,0-0.4,0H283h-9.9h-0.4h-0.4h-0.4l0,0l-2.2-1.7
			l0,0l0,0c0,0,0,0,0.4,0h0.4H280C280,191.8,280,191.8,280,191.8z"/>
	</g>
	
		<path fill="#464646" stroke="#464646" stroke-width="0.9376" stroke-linecap="round" stroke-linejoin="round" stroke-miterlimit="10" d="
		M180.9,220.2c0,0.4-0.4,0.9-0.9,0.9h-26.3c-0.4,0-0.9-0.4-0.9-0.9l0,0c0-0.4,0.4-0.9,0.9-0.9h26.3
		C180.5,219.4,180.9,219.8,180.9,220.2L180.9,220.2z"/>
	
		<rect x="68" y="179.3" transform="matrix(-1 -2.095134e-03 2.095134e-03 -1 151.6541 361.8032)" fill="#464646" stroke="#464646" stroke-width="0.9376" stroke-linecap="round" stroke-linejoin="round" stroke-miterlimit="10" width="15.9" height="3"/>
	
		<rect x="248.6" y="179.7" transform="matrix(-1 -2.095134e-03 2.095134e-03 -1 512.6943 363.0429)" fill="#464646" stroke="#464646" stroke-width="0.9376" stroke-linecap="round" stroke-linejoin="round" stroke-miterlimit="10" width="15.9" height="3"/>
	
		<path fill="none" stroke="#464646" stroke-width="0.9376" stroke-linecap="round" stroke-linejoin="round" stroke-miterlimit="10" d="
		M271,168.5c0,0.4-0.4,0.9-0.9,0.9l-209-0.4c-0.4,0-0.9-0.4-0.9-0.9l0.4-118.5c0-0.4,0.4-0.9,0.9-0.9l209,0.4c0.4,0,0.9,0.4,0.9,0.9
		L271,168.5z"/>
	<path fill="none" stroke="#464646" stroke-width="0.9376" stroke-miterlimit="10" d="M283,174.6c0,4.3-3.4,8.2-8.2,8.2l-218-0.4
		c-4.3,0-8.2-3.4-8.2-8.2l0.4-133.6c0-4.3,3.4-8.2,8.2-8.2l218,0.4c4.3,0,8.2,3.4,8.2,8.2L283,174.6z"/>
	<g>
		
			<linearGradient id="SVGID_1_" gradientUnits="userSpaceOnUse" x1="-135.3751" y1="311.1824" x2="-84.4136" y2="311.1824" gradientTransform="matrix(2.2975 0 0 -2.2975 409.9386 816.0463)">
			<stop  offset="0" style="stop-color:#3CB9E6"/>
			<stop  offset="0.6687" style="stop-color:#56BB69"/>
			<stop  offset="1" style="stop-color:#82C566"/>
		</linearGradient>
		<path fill="url(#SVGID_1_)" d="M212.8,129.8c-0.4,0-0.9,0-1.3-0.4l-30.6-12.5c-0.4,0-0.4-0.4-0.9-0.4l-31.5-24.1l-28.9,12.5
			c-1.3,0.4-3,0-3.9-1.3L98.6,77.2c-0.9-1.3-0.4-3,0.9-4.3c1.3-0.9,3-0.4,4.3,0.9l15.9,24.1l28.4-12.1c0.9-0.4,2.2-0.4,3,0.4
			l32.3,25l30.2,12.5c1.7,0.4,2.2,2.2,1.7,3.9C215.4,129.3,214.1,129.8,212.8,129.8L212.8,129.8z"/>
		
			<line fill="none" stroke="#526975" stroke-width="0.9716" stroke-linecap="round" stroke-linejoin="round" x1="100.8" y1="149.6" x2="230.9" y2="149.6"/>
		
			<line fill="none" stroke="#526975" stroke-width="0.3239" stroke-linecap="round" stroke-linejoin="round" x1="100.8" y1="137.5" x2="230.9" y2="137.5"/>
		
			<line fill="none" stroke="#526975" stroke-width="0.3239" stroke-linecap="round" stroke-linejoin="round" x1="100.8" y1="125.5" x2="230.9" y2="125.5"/>
		
			<line fill="none" stroke="#526975" stroke-width="0.3239" stroke-linecap="round" stroke-linejoin="round" x1="100.8" y1="113.4" x2="230.9" y2="113.4"/>
		
			<line fill="none" stroke="#526975" stroke-width="0.3239" stroke-linecap="round" stroke-linejoin="round" x1="100.8" y1="101.3" x2="230.9" y2="101.3"/>
		
			<line fill="none" stroke="#526975" stroke-width="0.3239" stroke-linecap="round" stroke-linejoin="round" x1="100.8" y1="89.3" x2="230.9" y2="89.3"/>
		
			<line fill="none" stroke="#526975" stroke-width="0.3239" stroke-linecap="round" stroke-linejoin="round" x1="100.8" y1="77.2" x2="230.9" y2="77.2"/>
		
			<line fill="none" stroke="#526975" stroke-width="0.3239" stroke-linecap="round" stroke-linejoin="round" x1="100.8" y1="65.1" x2="230.9" y2="65.1"/>
		
			<line fill="none" stroke="#526975" stroke-width="0.3239" stroke-linecap="round" stroke-linejoin="round" x1="165.8" y1="65.1" x2="165.8" y2="149.6"/>
		
			<line fill="none" stroke="#526975" stroke-width="0.3239" stroke-linecap="round" stroke-linejoin="round" x1="198.2" y1="65.1" x2="198.2" y2="149.6"/>
		
			<line fill="none" stroke="#526975" stroke-width="0.3239" stroke-linecap="round" stroke-linejoin="round" x1="230.9" y1="65.1" x2="230.9" y2="149.6"/>
		<circle fill="#526975" cx="165.8" cy="156" r="2.2"/>
		<circle fill="#526975" cx="198.2" cy="156" r="2.2"/>
		<circle fill="#526975" cx="230.9" cy="156" r="2.2"/>
	</g>
</g>
</svg>
