<?xml version="1.0" encoding="utf-8"?>
<!-- Generator: Adobe Illustrator 18.0.0, SVG Export Plug-In . SVG Version: 6.00 Build 0)  -->
<!DOCTYPE svg PUBLIC "-//W3C//DTD SVG 1.1//EN" "http://www.w3.org/Graphics/SVG/1.1/DTD/svg11.dtd">
<svg version="1.1" id="Layer_1" xmlns="http://www.w3.org/2000/svg" xmlns:xlink="http://www.w3.org/1999/xlink" x="0px" y="0px"
	 width="1618.7px" height="800px" viewBox="-169.4 0 1618.7 800" enable-background="new -169.4 0 1618.7 800" xml:space="preserve"
	>
<rect x="-169.8" fill="#019AB6" width="1620.8" height="801.4"/>
<g>
	<path fill="#008FA9" d="M793,454.1v85.2c0,8-2.7,14.3-8,19.8c-5.3,5.3-12,8.2-20.1,8.4H430.2c-8-0.2-14.3-3-19.8-8.4
		c-5.3-5.3-8.2-11.8-8.4-19.8V346.7c0.2-8.2,3-14.8,8.4-20.1c5.3-5.3,11.8-8,19.8-8h226.8c6.5-25.1,19.8-45.6,39.2-61.4
		c19.8-15.8,42.8-23.9,69.8-24.5c31.7,1,57.8,12,79.3,32.9c20.9,20.9,32.1,47.5,32.9,79.6c0,15.2-2.9,29.5-8.4,42.8
		c-5.5,13.3-13.9,25.7-24.5,36.3C830.6,439.2,813.2,448.9,793,454.1z M765.1,552.5c3.6-0.2,6.8-1.7,9.5-4c2.7-2.7,3.8-5.5,3.8-9.1
		V346.7c0-3.6-1.3-6.8-3.8-9.5c-2.5-2.7-5.7-3.8-9.5-3.8H430.2c-3.6,0-6.8,1.3-9.1,3.8c-2.7,2.7-3.8,5.7-4,9.5v192.5
		c0.2,3.6,1.7,6.8,4,9.1c2.7,2.7,5.5,3.8,9.1,4h146.9c-1.1-1.1-1.9-2.9-1.9-4.8c0-1.9,0.6-3.4,1.9-4.8c1.1-1.1,2.9-1.9,4.8-1.9h41.2
		c1.9,0,3.4,0.6,4.8,1.9c1.1,1.1,1.9,2.9,1.9,4.8c0,1.9-0.6,3.4-1.9,4.8h68.6C736.7,552.5,759.6,552.5,765.1,552.5z M766,500.8
		c0,3.8-1.3,7.2-3.8,9.7c-2.7,2.7-6.1,3.8-9.9,4h-311c-3.8-0.2-7.2-1.9-9.9-4.4c-2.7-2.3-3.8-5.7-3.8-9.5V359.4
		c0-3.8,1.3-7.2,3.8-9.9c2.7-2.7,6.1-3.8,9.9-3.8H752c3.8,0,7.2,1.3,9.9,3.8c2.7,2.7,3.8,6.1,3.8,9.9v141.2h0.4V500.8z M584.9,472.5
		c0-1.1,0.2-2.3,0.6-3.2c0.4-1,1-1.7,1.7-1.9l0.4-0.4c8-10.6,11.6-22.4,11.6-35.7c-0.2-17.3-6.3-31.7-17.7-42.8
		c-11.6-11.4-25.8-17.1-42.6-17.5c-17.1,0.2-31,6.3-42.4,17.5c-11.4,11.4-17.1,25.7-17.5,42.8c0,13.3,3.8,25.5,11.6,35.7l0.4,0.4
		c0.2,0.2,0.6,1,1.3,1.9c0.6,1,1,2.1,1,3.2c0,1.1-0.6,2.3-2.3,3.2l-8.7,7.2c-1,1.1-1,2.7,0,3.6c0.6,0.6,1.1,1,1.9,1
		c1,0,1.1-0.2,1.9-0.4l8.4-7.2c2.1-1.7,3.4-3.2,3.8-4.9s0.4-3.2,0.2-4.4c-0.6-2.9-1.9-5.1-3.6-6.8c-7-9.7-10.6-20.5-10.6-32.5
		c0.2-15.8,5.7-28.9,16-39.2s23.6-15.6,39.2-16c15.4,0.2,28.5,5.7,38.8,16c10.3,10.3,15.6,23.6,16,39.2c0,12-3.4,22.8-10.6,32.5
		c-1.9,1.9-3,4-3.6,6.8c-0.2,1.1-0.2,2.9,0.2,4.4c0.4,1.7,1.9,3.2,3.8,4.9l8.4,7.2c0.6,0.2,1.1,0.4,1.9,0.4c0.6,0,1.1-0.2,1.9-1
		c1-1.1,0.6-2.7-0.4-3.6l-8.9-7.2C585.8,475,584.9,473.8,584.9,472.5z M556.7,434.5c2.7-5.3,3.2-10.6,2.1-15.8
		c-1.1-5.3-2.9-9.9-5.3-13.9l-12.4-19c-0.2-0.6-1-1-1.9-1c-0.6,0-1.1,0.2-1.9,1l-12,19c-6.5,13.7-7.8,23.8-3.2,30
		c4.4,6.5,7,9.5,8.4,9.5l2.9,1.3c1.9,0.6,3.8,1,6.5,1c3,0,6.1-0.6,8.7-2.3c0.2,0,1.3-0.6,3.2-2.3
		C553.5,440.6,555.2,437.9,556.7,434.5z M539.1,391.4l10.1,15.8c6.1,11.6,7,20,3.6,25.1c-3.4,5.3-5.7,8.2-6.8,8.4l-1.3,0.4
		c1.1-1,2.1-2.7,2.3-4.9c0.2-2.3-0.4-5.3-2.3-8.9l-5.1-8.4l-5.5,8.4c-1.9,3.6-2.7,6.7-2.1,8.9c0.6,2.3,1.1,3.8,2.1,4.9l-1.3-0.4
		c-1.7-0.2-3.8-3.2-7-8.6c-3.2-5.3-2.1-13.7,3.4-24.9l5.1-8C537,394.6,538.9,391.7,539.1,391.4z M766.4,239.7
		c-25.1,0.2-46.9,8-65.2,22.4c-18.4,14.6-30.6,33.5-36.9,56.6H690c6.1-16,15.6-29.1,29.3-39c13.7-9.9,29.5-15,47.5-15.4
		c22.6,0.6,41.4,8.6,56.8,23.8s23.4,34.4,23.9,57.2c-0.2,18.1-5.5,33.6-15.4,47.3c-9.9,13.3-22.8,23.2-39,29.1v26
		c18.2-4.9,34.4-14.3,47.9-27.8c10.1-9.9,18.1-21.1,23.4-33.8c5.3-12.5,8-26.2,8-40.5c-1-29.7-11.4-54.5-31-74.7
		C820.9,250.7,796.2,240.2,766.4,239.7z M673.1,417.4c0.6,0.2,1.1,0.2,1.3-0.2c0.2-0.4,0.2-1,0-1.1c-2.7-2.1-3.8-5.1-4.4-8.6
		s0.2-7,1.9-10.8c1.7-3.6,3.2-6.7,4.9-8.7l0.4,2.3c0,0.2,0.2,0.4,0.6,0.6c0.4,0.2,1,0,1.1-0.2c3-3.4,4.9-6.8,5.1-10.1
		c0.2-3.4,0.2-6.3-0.4-8.4c8.2,4.8,12.9,9.5,15,14.3c1.9,4.9,2.9,7.8,2.7,8.2c-0.2,0.6,0,1,0.4,1.1c0.4,0.2,1,0,1.1-0.6
		c1.1-1.7,2.1-3,2.3-4c6.1,10.8,4.9,19.4-2.9,25.7c-0.6,0.2-0.6,0.6-0.4,1.1c0.2,0.6,0.6,0.6,1,0.6l1-0.4c3.4-2.1,5.7-5.7,7-10.8
		c1.3-5.1-0.4-11.8-5.3-20c-0.2-0.6-0.6-1-1.1-0.6s-0.6,0.4-0.6,0.6c0,0.2-0.2,1.7-1,4c-0.6-2.9-2.3-6.5-5.3-10.6
		c-3-4.4-8.2-8.4-15.2-11.6c-0.6-0.2-1.1-0.2-1.3,0.2c-0.2,0.4-0.2,1,0,1.1c0.2,0.2,0.6,2.1,1.1,5.5c0.6,3.4-0.4,7-3,11.2l-0.4-2.3
		c0-0.2-0.2-0.4-0.6-0.6c-0.4-0.2-1,0-1.3,0.4s-2.1,3-4.9,8c-2.9,4.9-3.8,10.1-3.6,16C668.1,411.7,669.8,414.9,673.1,417.4z
		 M675.5,454.5c-1.7,1-2.1,2.1-1.7,3.4c0.4,1.3,1.3,2.1,3,2.1h1l24.5-8.7c1.7-1,2.1-2.1,1.3-3.6c-0.6-1.7-1.7-2.1-3.2-1.9l-12.4,4.8
		C680.7,452.7,676.5,454.3,675.5,454.5z M674,466c0.2,1.7,1.1,2.3,2.3,2.3c2.9,0.2,4.4,1,4.9,2.1c0.4,1.1,1.3,1.7,3,1.7h0.4
		c1.7-0.2,2.3-1.1,2.1-2.9c-0.2-1.7-1-2.9-2.1-3.6l17.7-6.1c1.7-1,2.1-2.1,1.3-3.6c-0.6-1.7-1.7-2.1-3.2-1.9l-25.1,9.1
		C674,463.6,673.6,464.7,674,466z M703.3,477.5c0-1.9-1-3-2.9-3.2h-21.9c-1.9,0.2-2.9,1.3-2.9,3.2v6.1c0,1.1,0.2,2.1,1,2.3l4.8,4.8
		v4c0.2,1.1,0.6,2.1,1.3,2.3c0.6,0.2,1.1,0.4,1.3,0.4h10.6c1.1,0.2,2.1-0.6,2.3-2.9v-4l5.1-4.8c0.6-0.6,1-1.3,1-2.3v-6.1
		L703.3,477.5L703.3,477.5z M677.6,445.7c-1.7,0.6-2.1,1.7-1.7,3c0.4,1.3,1.3,2.1,3,2.1h1l12-4c1.7-1,2.1-2.1,1.3-3.6
		c-0.6-1.7-1.7-2.1-3.2-1.9l-6.1,2.3C680.5,444.6,678.2,445.3,677.6,445.7z M700.3,476.9c0.2,0,0.4,0.2,0.4,0.4v6.1l-5.5,5.5
		c-0.2,0-0.4,0.2-0.4,1v5.1h-10.6v-5.1c0-0.2-0.2-0.6-0.4-1l-5.5-5.5v-6.1c0-0.2,0.2-0.4,0.4-0.4h11.2
		C696.1,476.9,699.5,476.9,700.3,476.9z M684.3,418.7c3.8,1.7,7.2,1.7,9.7,0c5.3-6.1,6.3-12.2,3-19c-3.2-6.8-5.3-10.6-5.7-11.2
		c0,1-0.4,3.2-1.3,6.8s-2.7,3.6-4.8,0c-5.5,8.4-7.2,14.3-5.3,18.1C681.6,417,683.1,418.7,684.3,418.7z M701.4,468.3
		c1.9-0.2,2.9-1.1,2.7-2.9c-0.2-1.7-1.1-2.7-3-2.9c-1,0-2.7,0.4-4.9,1.1c-2.3,0.6-3.8,2.3-4.9,4.9c-0.2,1.7,0.2,2.7,1.9,3.2h1
		c1.1,0,2.1-0.4,2.7-1.7C696.8,469.5,698.4,468.7,701.4,468.3z M725.9,318.7c4.4-6.8,9.9-12.2,17.1-16c6.8-3.8,14.8-5.7,23.6-5.7
		c13.7,0.2,24.9,5.1,33.8,14.1c8.9,9.1,13.7,20.3,13.7,33.6c0.2,13.3-4.4,24.9-13.7,34.4c-2.1,2.7-4.8,4.8-7.2,6.1v25.1
		c13.3-5.5,23.9-14.1,31.9-25.7c8-11.6,11.8-24.5,11.8-39.3c-0.2-20.1-7-36.9-20.5-50c-13.3-13.1-30-20.1-49.8-20.7
		c-15.2,0.2-28.7,4.4-39.7,12.2c-11.6,8-20.1,18.4-25.7,31.9h12.4C720.8,318.7,725,318.7,725.9,318.7z M765.1,318.7
		c8.2,0,14.8,2.7,20.1,8c5.3,5.3,8,12,8,20.1v23.4c6.5-7,9.7-15.4,9.7-24.5c-0.2-10.6-3.8-19-10.6-26c-6.8-6.8-15.2-10.1-25.5-10.1
		c-10.3,0-18.4,3.2-25.5,9.7h12C760.3,318.7,764.3,318.7,765.1,318.7z"/>
</g>
</svg>
