<?xml version="1.0" encoding="utf-8"?>
<!-- Generator: Adobe Illustrator 17.1.0, SVG Export Plug-In . SVG Version: 6.00 Build 0)  -->
<!DOCTYPE svg PUBLIC "-//W3C//DTD SVG 1.1//EN" "http://www.w3.org/Graphics/SVG/1.1/DTD/svg11.dtd">
<svg version="1.1" id="Layer_1" xmlns="http://www.w3.org/2000/svg" xmlns:xlink="http://www.w3.org/1999/xlink" x="0px" y="0px"
	 viewBox="0 0 808 418.3" enable-background="new 0 0 808 418.3" xml:space="preserve">
<rect x="-8" y="-16.1" fill="#015667" width="847" height="627.3"/>
<path fill="none" stroke="#0D4854" stroke-width="0.2072" d="M516,114.7C516,51.4,464.7,0,401.3,0S286.6,51.3,286.6,114.7
	s51.3,114.7,114.7,114.7S516,178.1,516,114.7z"/>
<path fill="none" stroke="#0D4854" stroke-width="0.3625" d="M498.5,114.7c0-53.7-43.5-97.2-97.2-97.2s-97.2,43.5-97.2,97.2
	s43.5,97.2,97.2,97.2S498.5,168.4,498.5,114.7z"/>
<path fill="none" stroke="#0D4854" stroke-width="0.5179" d="M481,114.7c0-43.9-35.6-79.7-79.7-79.7s-79.7,35.6-79.7,79.7
	s35.6,79.7,79.7,79.7S481,158.8,481,114.7z"/>
<path fill="none" stroke="#0D4854" stroke-width="0.6733" d="M463.4,114.7c0-34.3-27.8-62.1-62.1-62.1s-62.1,27.8-62.1,62.1
	s27.8,62.1,62.1,62.1C435.6,177,463.4,149.1,463.4,114.7z"/>
<path fill="none" stroke="#0D4854" stroke-width="0.8286" d="M446,114.7c0-24.6-19.9-44.6-44.6-44.6s-44.6,19.9-44.6,44.6
	s19.9,44.6,44.6,44.6S446,139.5,446,114.7z"/>
<path fill="#014D5B" d="M404.5,394.7c0,1.6-1.4,3-3,3h-257c-3.9,0-7-3.2-7-7V114.2c0-3.9,3.2-7,7-7h252.9c3.9,0,7,3.2,7,7v280.5
	H404.5z"/>
<path fill="none" d="M404.5,394.7c0,1.6-1.4,3-3,3h-261c-1.6,0-3-1.4-3-3V110.2c0-1.6,1.4-3,3-3h260.9c1.6,0,3,1.4,3,3v284.5H404.5z
	"/>
<path fill="#014D5B" d="M349.2,169.8c0-2.7-2.2-4.9-4.9-4.9H197.6c-2.7,0-4.9,2.2-4.9,4.9v54.7c0,2.7,2.2,4.9,4.9,4.9h146.6
	c2.7,0,4.9-2.2,4.9-4.9V169.8z"/>
<path fill="#015667" d="M410,300.5c0,3-2.5,5.6-5.6,5.6h-267c-3,0-5.6-2.5-5.6-5.6l0,0c0-3,2.5-5.6,5.6-5.6h267.1
	C407.5,294.8,410,297.4,410,300.5L410,300.5z"/>
<path fill="#015667" d="M358.9,224.5c0,8.1-6.6,14.6-14.6,14.6H197.6c-8.1,0-14.6-6.6-14.6-14.6v-54.7c0-8.1,6.6-14.6,14.6-14.6
	h146.6c8.1,0,14.6,6.6,14.6,14.6V224.5z M349.2,169.8c0-2.7-2.2-4.9-4.9-4.9H197.6c-2.7,0-4.9,2.2-4.9,4.9v54.7
	c0,2.7,2.2,4.9,4.9,4.9h146.6c2.7,0,4.9-2.2,4.9-4.9V169.8z"/>
<rect x="206.2" y="187.2" fill="#015667" width="25.9" height="19.9"/>
<rect x="232.1" y="187.2" fill="#015667" width="25.9" height="19.9"/>
<rect x="258" y="187.2" fill="#015667" width="25.9" height="19.9"/>
<rect x="283.9" y="187.2" fill="#015667" width="25.9" height="19.9"/>
<rect x="309.8" y="187.2" fill="#015667" width="25.9" height="19.9"/>
<rect x="318.1" y="295.4" fill="#454545" stroke="#454545" stroke-width="0.3798" width="77.6" height="22"/>
<polyline fill="#506873" points="658.9,257.6 657.5,257.6 315.3,257.6 "/>
<path fill="#014D5B" d="M658.9,456.6c21.4,0,23.8-27.2,26.3-42.7c4.2-25.7,6.7-52,6.7-78.2c0-25.3-2.5-50.7-6.3-75.7
	c-2.6-16.4-3.6-45.6-26.7-45.6h-1.4H315.2c-23.1,0-24.1,29.2-26.7,45.6c-3.9,25-6.3,50.5-6.3,75.7c0,26,2.5,52.4,6.7,78.2
	c2.6,15.5,4.9,42.7,26.3,42.7c1.2,0,342.2,0,342.2,0H658.9z"/>
<path fill="none" d="M658.9,456.6c21.4,0,23.8-27.2,26.3-42.7c4.2-25.7,6.7-52,6.7-78.2c0-25.3-2.5-50.7-6.3-75.7
	c-2.6-16.4-3.6-45.6-26.7-45.6h-1.4H315.2c-23.1,0-24.1,29.2-26.7,45.6c-3.9,25-6.3,50.5-6.3,75.7c0,26,2.5,52.4,6.7,78.2
	c2.6,15.5,4.9,42.7,26.3,42.7c1.2,0,342.2,0,342.2,0H658.9z"/>
<path fill="#015667" d="M466.8,244.7c-3,0-5.5-2.5-5.5-5.5c0-3,2.5-5.5,5.5-5.5c3,0,5.5,2.5,5.5,5.5
	C472.3,242.2,469.9,244.7,466.8,244.7z"/>
<path fill="#015667" d="M477.8,238.5c-2.5,0-4.3-2-4.3-4.3c0-2.5,2-4.3,4.3-4.3c2.5,0,4.3,2,4.3,4.3
	C482.2,236.5,480.3,238.5,477.8,238.5z"/>
<path fill="#015667" d="M487,233.9c-2.1,0-3.8-1.6-3.8-3.8c0-2.1,1.6-3.8,3.8-3.8c2.1,0,3.8,1.6,3.8,3.8
	C490.7,232.3,489.1,233.9,487,233.9z"/>
<path fill="#015667" d="M495.3,231.4c-1.8,0-3.2-1.4-3.2-3.2s1.4-3.2,3.2-3.2s3.2,1.4,3.2,3.2C498.3,230,496.9,231.4,495.3,231.4z"
	/>
<path fill="#015667" d="M502.9,230.9c-1.4,0-2.5-1.2-2.5-2.5c0-1.4,1.2-2.5,2.5-2.5c1.4,0,2.5,1.2,2.5,2.5
	C505.4,229.7,504.3,230.9,502.9,230.9z"/>
<path fill="#015667" d="M509,232c-1.1,0-1.9-0.8-1.9-1.9c0-1.1,0.8-1.9,1.9-1.9c1.1,0,1.9,0.8,1.9,1.9
	C510.9,231.2,510.1,232,509,232z"/>
<g>
	<rect x="350.4" y="254.1" fill="#34AEC5" width="271.8" height="161.3"/>
	<rect x="350.4" y="254.1" fill="#015667" width="271.8" height="161.3"/>
</g>
<path fill="#015667" stroke="#0A4C5A" d="M487.1,387.3c-0.1,0-0.7,0-1.5,0l-38.9-0.7c-0.7,0-1.4-0.7-1.5-1.4c0,0-2.9-28.2-2.9-38.1
	c0-9.8,2.9-38.1,2.9-38.1c0.1-0.7,0.7-1.4,1.5-1.4l38.9-0.8c0.7,0,1.4,0,1.5,0c0.1,0,0.7,0,1.5,0l38.9,0.7c0.7,0,1.4,0.7,1.5,1.4
	c0,0,2.9,28.2,2.9,38.1c0,9.8-2.9,38.1-2.9,38.1c-0.1,0.7-0.7,1.4-1.5,1.4l-38.9,0.7C487.9,387.3,487.2,387.3,487.1,387.3z"/>
<path fill="#015667" stroke="#0A4C5A" d="M397.2,379.2c-0.1,0-0.6,0-1.2,0l-31.1-0.6c-0.6,0-1.2-0.5-1.2-1.1c0,0-2.3-22.6-2.3-30.5
	c0-7.9,2.3-30.5,2.3-30.5c0.1-0.6,0.6-1.1,1.2-1.2l31.1-0.6c0.6,0,1.2,0,1.2,0s0.6,0,1.2,0l31.1,0.6c0.6,0,1.2,0.5,1.2,1.2
	c0,0,2.3,22.6,2.3,30.5c0,7.9-2.3,30.5-2.3,30.5c-0.1,0.6-0.6,1.1-1.2,1.1l-31.1,0.6C397.8,379.2,397.3,379.2,397.2,379.2z"/>
<path fill="#015667" stroke="#0A4C5A" d="M577.1,379.2c-0.1,0-0.6,0-1.2,0l-31.1-0.6c-0.6,0-1.2-0.5-1.2-1.1c0,0-2.3-22.6-2.3-30.5
	c0-7.9,2.3-30.5,2.3-30.5c0.1-0.6,0.6-1.1,1.2-1.2l31.1-0.6c0.6,0,1.2,0,1.2,0s0.6,0,1.2,0l31.1,0.6c0.6,0,1.2,0.5,1.2,1.2
	c0,0,2.3,22.6,2.3,30.5c0,7.9-2.3,30.5-2.3,30.5c-0.1,0.6-0.6,1.1-1.2,1.1l-31.1,0.6C577.7,379.2,577.1,379.2,577.1,379.2z"/>
<path fill="#014D5B" d="M460.3,334.5c6.4,0,7.7,6.7,7.7,11.7c0,4.8-1.4,11.7-7.7,11.7c-6.4,0-7.7-6.9-7.7-11.7
	C452.4,341.1,453.8,334.5,460.3,334.5z M460.3,355.1c4.2,0,4.7-6.1,4.7-9c0-3.2-0.5-9-4.7-9c-4.2,0-4.7,5.9-4.7,9
	C455.6,349.1,455.9,355.1,460.3,355.1z"/>
<path fill="#014D5B" d="M469,355.6c0-1.2,0.9-2.1,2.1-2.1c1.2,0,2.1,0.9,2.1,2.1c0,1.2-0.9,2.1-2.1,2.1
	C470,357.7,469,356.6,469,355.6z"/>
<path fill="#014D5B" d="M482,334.5c6.4,0,7.7,6.7,7.7,11.7c0,4.8-1.4,11.7-7.7,11.7c-6.4,0-7.7-6.9-7.7-11.7
	C474.2,341.1,475.6,334.5,482,334.5z M482,355.1c4.3,0,4.7-6.1,4.7-9c0-3.2-0.5-9-4.7-9c-4.2,0-4.7,5.9-4.7,9
	C477.2,349.1,477.7,355.1,482,355.1z"/>
<path fill="#014D5B" d="M492,354.1l9-9c1.3-1.2,2.5-2.8,2.5-4.6c0-2.2-1.8-3.6-3.9-3.6c-2.2,0-3.8,1.3-4.1,3.5l-3.3-0.4
	c0.6-4,3.5-5.9,7.5-5.9c3.9,0,7.1,2.1,7.1,6.2c0,2.9-1.9,5.2-4,7l-7.4,7.1h11.4v2.7h-14.8v-3.2H492z"/>
<path fill="#014D5B" d="M515.2,338.3l-4.1,3.9l-1.8-2.1l6.3-5.2h2.7v22.6h-3v-19.2H515.2z"/>
<path fill="#014D5B" d="M561.7,336.5c5.3,0,6.3,5.5,6.3,9.5c0,3.9-1.2,9.5-6.3,9.5c-5.3,0-6.3-5.6-6.3-9.5
	C555.4,342,556.6,336.5,561.7,336.5z M561.7,353.3c3.5,0,3.9-4.9,3.9-7.3c0-2.6-0.4-7.3-3.9-7.3s-3.9,4.8-3.9,7.3
	C558,348.4,558.3,353.3,561.7,353.3z"/>
<path fill="#014D5B" d="M570.8,353.6c0-0.9,0.8-1.8,1.8-1.8s1.8,0.8,1.8,1.8c0,0.9-0.8,1.8-1.8,1.8
	C571.5,355.3,570.8,354.5,570.8,353.6z"/>
<path fill="#014D5B" d="M583.1,336.5c5.3,0,6.3,5.5,6.3,9.5c0,3.9-1.2,9.5-6.3,9.5c-5.3,0-6.3-5.6-6.3-9.5
	C576.7,342,577.8,336.5,583.1,336.5z M583.1,353.3c3.5,0,3.9-4.9,3.9-7.3c0-2.6-0.4-7.3-3.9-7.3s-3.9,4.8-3.9,7.3
	C579.2,348.4,579.6,353.3,583.1,353.3z"/>
<path fill="#014D5B" d="M596.8,339.6l-3.4,3.2L592,341l5.2-4.2h2.2v18.4h-2.5v-15.6H596.8z"/>
<path fill="#014D5B" d="M373.6,352.5l7.4-7.3c1.1-0.9,2-2.2,2-3.8c0-1.9-1.4-2.9-3.2-2.9c-1.8,0-3,1.1-3.4,2.8l-2.7-0.2
	c0.5-3.3,2.9-4.8,6.1-4.8c3.2,0,5.7,1.8,5.7,5c0,2.5-1.5,4.1-3.2,5.7l-6.1,5.9h9.3v2.2h-12.1v-2.7H373.6z"/>
<path fill="#014D5B" d="M388.9,353.6c0-0.9,0.8-1.8,1.8-1.8s1.8,0.8,1.8,1.8c0,0.9-0.8,1.8-1.8,1.8
	C389.7,355.3,388.9,354.5,388.9,353.6z"/>
<path fill="#014D5B" d="M406.7,339.1h-7.5l-0.1,4.6c0.5-0.2,1.9-0.4,2.5-0.4c3.4,0,5.7,2.5,5.7,6.1s-2.9,6.1-6.4,6.1
	c-2.5,0-4.7-1.3-5.5-3.8l2.5-0.8c0.7,1.6,1.8,2.3,3.4,2.3c2,0,3.6-1.4,3.6-3.8c0-2.7-1.8-4-4.5-4c-0.9,0-2.6,0.4-3.8,0.9l0.2-9.7
	h9.8V339.1z"/>
<path fill="#014D5B" d="M417,348.1L417,348.1c-0.7,0.2-1.4,0.5-2.1,0.5c-2.7,0-5.7-1.8-5.7-5.9s2.8-6.2,6.3-6.2
	c3.4,0,6.3,2.3,6.3,5.9c0,2.2-0.7,3.6-1.9,5.4l-4.7,7.4h-2.9L417,348.1z M415.5,338.7c-2.2,0-3.9,1.6-3.9,3.9s1.5,3.9,3.9,3.9
	c2.2,0,3.9-1.6,3.9-3.9C419.4,340.2,417.8,338.7,415.5,338.7z"/>
<path fill="none" stroke="#0A4C5A" stroke-width="0.8286" d="M536.8,299.3c-0.1,0.4-0.5,0.6-0.8,0.6c-32.7-5.6-66.1-5.6-98.7,0
	c-0.4,0.1-0.7-0.2-0.8-0.6c-1.4-8.3-2.9-16.6-4.3-24.8c-0.1-0.4,0.2-0.7,0.6-0.8c35.6-6.1,72.1-6.1,107.7,0c0.4,0.1,0.7,0.5,0.6,0.8
	C539.7,282.8,538.2,291,536.8,299.3z"/>
<path fill="#014D5B" d="M504.3,290.5c-2.2-0.1-6-0.4-8.2-0.5c-16.9-0.6-33.8,0.5-50.5,3c-2.2,0.4-4.3-1.2-4.8-3.4
	c-0.5-2.6-0.9-5.2-1.3-7.7c-0.4-2.2,1.2-4.3,3.6-4.8c17.7-2.8,35.6-3.9,53.4-3.3c2.3,0.1,6.3,0.2,8.7,0.5L504.3,290.5z"/>
<g>
	<path fill="#014D5B" d="M224.1,197.2c0,2.7-2.2,4.9-4.9,4.9c-2.7,0-4.9-2.2-4.9-4.9s2.2-4.9,4.9-4.9S224.1,194.4,224.1,197.2z"/>
	<path fill="#014D5B" d="M250,197.2c0,2.7-2.2,4.9-4.9,4.9c-2.7,0-4.9-2.2-4.9-4.9s2.2-4.9,4.9-4.9C247.8,192.3,250,194.4,250,197.2
		z"/>
	<path fill="#014D5B" d="M275.8,197.2c0,2.7-2.2,4.9-4.9,4.9s-4.9-2.2-4.9-4.9s2.2-4.9,4.9-4.9C273.7,192.3,275.8,194.4,275.8,197.2
		z"/>
	<path fill="#014D5B" d="M301.7,197.2c0,2.7-2.2,4.9-4.9,4.9c-2.7,0-4.9-2.2-4.9-4.9s2.2-4.9,4.9-4.9
		C299.5,192.3,301.7,194.4,301.7,197.2z"/>
	<path fill="#014D5B" d="M322.7,191.4c2.7,0,4.9-1.5,4.9-3.3h-9.8C317.7,190,320,191.4,322.7,191.4z"/>
	<path fill="#014D5B" d="M322.7,203c-2.7,0-4.9,1.4-4.9,3.3h9.8C327.6,204.5,325.4,203,322.7,203z"/>
</g>
</svg>
