<?xml version="1.0" encoding="utf-8"?>
<!-- Generator: Adobe Illustrator 17.1.0, SVG Export Plug-In . SVG Version: 6.00 Build 0)  -->
<!DOCTYPE svg PUBLIC "-//W3C//DTD SVG 1.1//EN" "http://www.w3.org/Graphics/SVG/1.1/DTD/svg11.dtd">
<svg version="1.1" id="Layer_1" xmlns="http://www.w3.org/2000/svg" xmlns:xlink="http://www.w3.org/1999/xlink" x="0px" y="0px"
	 viewBox="162.1 0 511.5 595.3" enable-background="new 162.1 0 511.5 595.3" xml:space="preserve">
<g>
	<g>
		<rect x="511.7" y="457.3" fill="#F1F0F0" width="94.3" height="42.1"/>
		
			<rect x="511.4" y="374.4" fill="#F1F0F0" stroke="#FFFFFF" stroke-width="0.949" stroke-miterlimit="10" width="94.3" height="42.1"/>
		<rect x="511.7" y="415.2" fill="#F1F0F0" width="94.3" height="42.1"/>
		
			<rect x="511.4" y="372.9" fill="none" stroke="#454545" stroke-width="0.949" stroke-linecap="round" stroke-linejoin="round" width="94.3" height="126.5"/>
	</g>
	<g>
		
			<line fill="none" stroke="#516973" stroke-width="0.4745" stroke-linecap="round" stroke-linejoin="round" x1="521.7" y1="421.4" x2="563.9" y2="421.4"/>
		
			<line fill="none" stroke="#516973" stroke-width="0.4745" stroke-linecap="round" stroke-linejoin="round" x1="521.7" y1="425.7" x2="563.9" y2="425.7"/>
		
			<line fill="none" stroke="#516973" stroke-width="0.4745" stroke-linecap="round" stroke-linejoin="round" x1="521.7" y1="429.9" x2="563.9" y2="429.9"/>
		
			<line fill="none" stroke="#516973" stroke-width="0.4745" stroke-linecap="round" stroke-linejoin="round" x1="521.7" y1="434" x2="563.9" y2="434"/>
	</g>
	<g>
		
			<line fill="none" stroke="#516973" stroke-width="0.4745" stroke-linecap="round" stroke-linejoin="round" x1="521.7" y1="438.7" x2="563.9" y2="438.7"/>
		
			<line fill="none" stroke="#516973" stroke-width="0.4745" stroke-linecap="round" stroke-linejoin="round" x1="521.7" y1="443" x2="563.9" y2="443"/>
		
			<line fill="none" stroke="#516973" stroke-width="0.4745" stroke-linecap="round" stroke-linejoin="round" x1="521.7" y1="447" x2="563.9" y2="447"/>
		
			<line fill="none" stroke="#516973" stroke-width="0.4745" stroke-linecap="round" stroke-linejoin="round" x1="521.7" y1="451.3" x2="563.9" y2="451.3"/>
	</g>
	<g>
		
			<line fill="none" stroke="#516973" stroke-width="0.4745" stroke-linecap="round" stroke-linejoin="round" x1="521.7" y1="468.2" x2="563.9" y2="468.2"/>
		
			<line fill="none" stroke="#516973" stroke-width="0.4745" stroke-linecap="round" stroke-linejoin="round" x1="521.7" y1="472.4" x2="563.9" y2="472.4"/>
	</g>
	<g>
		
			<line fill="none" stroke="#516973" stroke-width="0.4745" stroke-linecap="round" stroke-linejoin="round" x1="521.7" y1="395.3" x2="539.5" y2="395.3"/>
		
			<line fill="none" stroke="#516973" stroke-width="0.4745" stroke-linecap="round" stroke-linejoin="round" x1="521.7" y1="399.6" x2="539.5" y2="399.6"/>
		
			<line fill="none" stroke="#516973" stroke-width="0.4745" stroke-linecap="round" stroke-linejoin="round" x1="521.7" y1="403.9" x2="539.5" y2="403.9"/>
		
			<line fill="none" stroke="#516973" stroke-width="0.4745" stroke-linecap="round" stroke-linejoin="round" x1="521.7" y1="407.9" x2="539.5" y2="407.9"/>
	</g>
	<g>
		
			<line fill="none" stroke="#516973" stroke-width="0.4745" stroke-linecap="round" stroke-linejoin="round" x1="576.9" y1="476.5" x2="594.6" y2="476.5"/>
		
			<line fill="none" stroke="#516973" stroke-width="0.4745" stroke-linecap="round" stroke-linejoin="round" x1="576.9" y1="480.8" x2="594.6" y2="480.8"/>
	</g>
	<rect x="575.5" y="406.9" fill="#29B7EB" width="20.5" height="44.4"/>
	<rect x="575.5" y="459" fill="#29B7EB" width="20.5" height="12.4"/>
	<g>
		<ellipse fill="#F1F0F0" stroke="#516874" stroke-width="0.4745" cx="512.8" cy="449.8" rx="26.5" ry="25.4"/>
		<ellipse fill="none" stroke="#516874" stroke-width="0.2372" cx="512.8" cy="449.8" rx="22.9" ry="22"/>
		<g>
			<path fill="none" stroke="#516874" stroke-width="0.4745" d="M503.7,458.6c1.6-1.1,3.6-2.8,3.6-4.7c0-0.6-0.2-1.5-0.4-2.1h-3.6
				v-3.4h2.2c-0.7-1.1-1.3-2.4-1.3-3.6c0-4.7,4.4-6.8,8.7-6.8c5.3,0,8.9,2.8,8.7,7.9h-5.6c0-1.7-0.7-3.4-2.7-3.4
				c-1.8,0-2.9,0.9-2.9,2.6c0,0.9,0.7,2.6,1.3,3.2h4v3.4h-2.9c0.2,0.4,0.2,0.9,0.2,1.3c0,1.3-0.7,2.8-2.2,3.8l0,0
				c0.7-0.4,1.6-0.6,2.4-0.6c1.1,0,2.7,0.6,4,0.6c1.3,0,2-0.4,2.9-1.5l2.2,4.1c-2,1.9-3.8,2.4-5.8,2.4c-2.2,0-4.7-1.3-7.1-1.3
				c-1.3,0-2.4,0.6-3.6,1.3L503.7,458.6z"/>
		</g>
	</g>
	<g>
		<ellipse fill="#F1F0F0" stroke="#516874" stroke-width="0.4745" cx="522.3" cy="459" rx="26.5" ry="25.4"/>
		<ellipse fill="none" stroke="#516874" stroke-width="0.2372" cx="522.3" cy="459" rx="22.9" ry="22"/>
		<g>
			<path fill="none" stroke="#454545" stroke-width="0.4745" d="M513.2,467.7c1.6-1.1,3.6-2.8,3.6-4.7c0-0.6-0.2-1.5-0.4-2.1h-3.6
				v-3.4h2.2c-0.7-1.1-1.3-2.4-1.3-3.6c0-4.7,4.4-6.8,8.7-6.8c5.3,0,8.9,2.8,8.7,7.9h-5.6c0-1.7-0.7-3.4-2.7-3.4
				c-1.8,0-2.9,0.9-2.9,2.6c0,0.9,0.7,2.6,1.3,3.2h4v3.4h-2.9c0.2,0.4,0.2,0.9,0.2,1.3c0,1.3-0.7,2.8-2.2,3.8l0,0
				c0.7-0.4,1.6-0.6,2.4-0.6c1.1,0,2.7,0.6,4,0.6s2-0.4,2.9-1.5l2.2,4.1c-2,1.9-3.8,2.4-5.8,2.4c-2.2,0-4.7-1.3-7.1-1.3
				c-1.3,0-2.4,0.6-3.6,1.3L513.2,467.7z"/>
		</g>
	</g>
</g>
<g>
	<path fill="#506874" stroke="#506874" stroke-width="1.5" stroke-miterlimit="10" d="M374.9,493.6c0-0.7-0.5-1.6-0.5-1.6l0,0
		c0-0.2-0.2-0.5-0.2-0.5L352,477.1c-0.2-0.5-0.7-0.9-0.9-1.1h-2.3c2.3,0,4.4-1.8,4.4-4.4l0.2-71.2c0-2.3-1.8-4.4-4.4-4.4l-116.3-0.2
		c-2.3,0-4.4,1.8-4.4,4.4l-0.2,71.2c0,2.3,1.8,4.4,4.4,4.4h-2.3c-0.5,0.2-0.7,0.7-0.9,1.1l-22.5,14.5c0,0-0.2,0.2-0.2,0.5l0,0
		c0,0-0.7,0.9-0.5,1.6l0,0c0,0,0,0,0,0.2c0,0.5,0.7,2.3,0.9,2.5c0,0,3,3,8.3,3l151.4,0.2c5.3,0,8.3-3,8.3-3
		C374.2,495.9,374.7,494.1,374.9,493.6L374.9,493.6L374.9,493.6z"/>
	<path fill="#F1F0F0" stroke="#506874" stroke-width="0.5" d="M352.6,471.6c0,2.3-1.8,4.4-4.4,4.4L232,475.7c-2.3,0-4.4-1.8-4.4-4.4
		l0.2-71.2c0-2.3,1.8-4.4,4.4-4.4l116.3,0.2c2.3,0,4.4,1.8,4.4,4.4L352.6,471.6z"/>
	<path fill="#506874" d="M346,404.2L234.6,404c-0.5,0-0.9,0.5-0.9,0.9l-0.2,63.2c0,0.5,0.5,0.9,0.9,0.9l111.4,0.2
		c0.5,0,0.9-0.5,0.9-0.9l0.2-63.2C346.9,404.7,346.4,404.2,346,404.2z"/>
	<path fill="#F1F0F0" d="M346.2,468.3c0,0.2-0.2,0.5-0.5,0.5l-111.4-0.2c-0.2,0-0.5-0.2-0.5-0.5l0.2-63.2c0-0.2,0.2-0.5,0.5-0.5
		l111.4,0.2c0.2,0,0.5,0.2,0.5,0.5L346.2,468.3z"/>
	<path fill="#F1F0F0" d="M290.1,492.2l-84.3-0.7c0,0,1.1,7.4,8.5,7.4l151.4,0.2c8.5,0.2,8.5-7.4,8.5-7.4L290.1,492.2z"/>
	<path fill="#F1F0F0" d="M374,491.8l-22.3-14.5c-0.2-0.5-0.7-0.9-0.9-1.1l-121.1-0.2c-0.5,0.2-0.7,0.7-0.9,1.1l-22.5,14.5
		c0,0-1.4,0.9,1.8,1.1l164,0.2C375.4,492.7,374,491.8,374,491.8z"/>
	<polygon fill="#F1F0F0" points="347.8,492.7 350.6,475.9 229.5,475.7 246.3,492.5 	"/>
	<path fill="#29B7EB" d="M311.5,490.2c-0.2-0.5-1.8-3-1.8-3s-0.5-0.7-2.1-0.7h-17.5l0,0h-17.5c-1.6,0-2.1,0.7-2.1,0.7
		s-1.6,2.5-1.8,3c-0.2,0.5,0,0.5,0,0.5h42.5C311.3,490.6,311.7,490.6,311.5,490.2z"/>
	<g>
		
			<path fill="#454545" stroke="#454545" stroke-width="0.5" stroke-linecap="round" stroke-linejoin="round" stroke-miterlimit="10" d="
			M270.6,479.4C270.6,479.4,270.9,479.6,270.6,479.4c0.2,0,0.2,0,0.2,0l0,0l-0.5,0.9l0,0c0,0,0,0-0.2,0h-0.2h-0.2h-5.1h-0.2h-0.2
			c0,0,0,0-0.2,0l0,0l0.5-0.9l0,0c0,0,0,0,0.2,0h0.2h0.2h5.1C270.4,479.4,270.6,479.4,270.6,479.4z"/>
		
			<path fill="#454545" stroke="#454545" stroke-width="0.5" stroke-linecap="round" stroke-linejoin="round" stroke-miterlimit="10" d="
			M257.3,482.1l0.7-0.9l0,0c0,0,0,0,0.2,0h0.2h0.2h5.1h0.2h0.2c0,0,0,0,0.2,0l0,0l-0.5,0.9l0,0c0,0,0,0-0.2,0h-0.2h-0.2H258h-0.2
			C257.5,482.1,257.5,482.1,257.3,482.1L257.3,482.1L257.3,482.1z"/>
		
			<path fill="#454545" stroke="#454545" stroke-width="0.5" stroke-linecap="round" stroke-linejoin="round" stroke-miterlimit="10" d="
			M256.4,480.5L256.4,480.5l0.7-0.9l0,0c0,0,0,0,0.2,0h0.2h0.2h5.1h0.2h0.2l0,0l0,0l-0.5,0.9l0,0c0,0,0,0-0.2,0h-0.2h-0.2h-5.1h-0.2
			C256.6,480.8,256.4,480.5,256.4,480.5L256.4,480.5z"/>
		
			<path fill="#454545" stroke="#454545" stroke-width="0.5" stroke-linecap="round" stroke-linejoin="round" stroke-miterlimit="10" d="
			M260.3,483.7l0.7-1.1l0,0c0,0,0,0,0.2,0h0.2h0.2h5.3h0.2h0.2c0,0,0,0,0.2,0l0,0l-0.5,1.1l0,0c0,0,0,0-0.2,0h-0.2h-0.2H261h-0.2
			C260.5,484,260.5,483.7,260.3,483.7C260.5,483.7,260.3,483.7,260.3,483.7L260.3,483.7z"/>
		
			<path fill="#454545" stroke="#454545" stroke-width="0.5" stroke-linecap="round" stroke-linejoin="round" stroke-miterlimit="10" d="
			M249.3,482.1l0.9-0.9l0,0c0,0,0,0,0.2,0h0.2h0.2h5.1h0.2h0.2l0,0l0,0l-0.7,0.9l0,0c0,0,0,0-0.2,0h-0.2H255h-5.3h-0.2
			C249.5,482.1,249.3,482.1,249.3,482.1L249.3,482.1L249.3,482.1z"/>
		
			<path fill="#454545" stroke="#454545" stroke-width="0.5" stroke-linecap="round" stroke-linejoin="round" stroke-miterlimit="10" d="
			M249.9,484.2l-0.9,1.1l0,0h-0.2h-0.2h-0.2h-5.7h-0.2h-0.2l0,0l0,0l1.1-1.1l0,0h0.2h0.2h0.2h5.5h0.2
			C249.7,484.2,249.7,484.2,249.9,484.2L249.9,484.2L249.9,484.2z"/>
		
			<path fill="#454545" stroke="#454545" stroke-width="0.5" stroke-linecap="round" stroke-linejoin="round" stroke-miterlimit="10" d="
			M241.7,483.7h-0.2h-0.2h-5.5h-0.2h-0.2l0,0l0,0l1.1-1.1l0,0h0.2h0.2h0.2h5.3h0.2h0.2l0,0l0,0L241.7,483.7
			C242.1,483.7,242.1,483.7,241.7,483.7C241.9,483.7,241.9,483.7,241.7,483.7z"/>
		
			<path fill="#454545" stroke="#454545" stroke-width="0.5" stroke-linecap="round" stroke-linejoin="round" stroke-miterlimit="10" d="
			M241.4,484.2l-1.1,1.1c0,0,0,0-0.2,0h-0.2h-0.2h-0.2h-5.7h-0.2h-0.2l0,0l0,0l1.4-1.1c0,0,0,0,0.2,0h0.2h0.2h0.2h5.5h0.2H241.4
			L241.4,484.2L241.4,484.2z"/>
		
			<path fill="#454545" stroke="#454545" stroke-width="0.5" stroke-linecap="round" stroke-linejoin="round" stroke-miterlimit="10" d="
			M265.8,482.1C265.8,482.1,265.6,482.1,265.8,482.1c-0.2,0-0.2,0-0.2,0l0,0l0.5-0.9l0,0c0,0,0,0,0.2,0h0.2h0.2h5.1h0.2h0.2
			c0,0,0,0,0.2,0l0,0l-0.5,0.9l0,0c0,0,0,0-0.2,0h-0.2h-0.2H266C266,482.1,265.8,482.1,265.8,482.1z"/>
		
			<path fill="#454545" stroke="#454545" stroke-width="0.5" stroke-linecap="round" stroke-linejoin="round" stroke-miterlimit="10" d="
			M258.4,484.4l-0.7,1.1l0,0c0,0,0,0-0.2,0h-0.2h-0.2h-5.7h-0.2h-0.2c0,0,0,0-0.2,0l0,0l0.9-1.1l0,0c0,0,0,0,0.2,0h0.2h0.2h5.5h0.2
			C258.2,484.2,258.2,484.2,258.4,484.4C258.2,484.2,258.2,484.2,258.4,484.4C258.4,484.2,258.4,484.2,258.4,484.4z"/>
		
			<path fill="#454545" stroke="#454545" stroke-width="0.5" stroke-linecap="round" stroke-linejoin="round" stroke-miterlimit="10" d="
			M334.3,477.3L334.3,477.3c0.2,0,0.2,0,0.2,0h0.2h4.1h0.2h0.2h0.2l0,0l0.5,0.5l0,0l0,0c0,0,0,0-0.2,0h-0.2h-4.1h-0.2H335h-0.2l0,0
			L334.3,477.3L334.3,477.3z"/>
		
			<path fill="#454545" stroke="#454545" stroke-width="0.5" stroke-linecap="round" stroke-linejoin="round" stroke-miterlimit="10" d="
			M314.3,477.3L314.3,477.3c0.2,0,0.2,0,0.2,0h0.2h4.1h0.2h0.2c0,0,0,0,0.2,0l0,0l0.2,0.5l0,0l0,0c0,0,0,0-0.2,0h-0.2h-4.1H315h-0.2
			h-0.2l0,0L314.3,477.3C314,477.3,314,477.3,314.3,477.3z"/>
		
			<path fill="#454545" stroke="#454545" stroke-width="0.5" stroke-linecap="round" stroke-linejoin="round" stroke-miterlimit="10" d="
			M245.8,479.1l0.9-0.9l0,0c0,0,0,0,0.2,0h0.2h0.2h4.8h0.2h0.2l0,0l0,0l-0.7,0.9l0,0c0,0,0,0-0.2,0h-0.2h-0.2h-5.1H246
			C246,479.1,246,479.1,245.8,479.1L245.8,479.1L245.8,479.1z"/>
		
			<path fill="#454545" stroke="#454545" stroke-width="0.5" stroke-linecap="round" stroke-linejoin="round" stroke-miterlimit="10" d="
			M246.5,477.8l0.5-0.5l0,0c0,0,0,0,0.2,0h0.2h0.2h4.1h0.2h0.2l0,0l0,0l-0.5,0.5l0,0c0,0,0,0-0.2,0h-0.2h-0.2H247h-0.2
			C246.7,477.8,246.5,477.8,246.5,477.8L246.5,477.8L246.5,477.8z"/>
		
			<path fill="#454545" stroke="#454545" stroke-width="0.5" stroke-linecap="round" stroke-linejoin="round" stroke-miterlimit="10" d="
			M313.6,478.2L313.6,478.2c0.2,0,0.2,0,0.2,0h0.2h4.8h0.2h0.2h0.2l0,0l0.7,0.9l0,0l0,0c0,0,0,0-0.2,0h-0.2h-5.1h-0.2h-0.2H314l0,0
			L313.6,478.2L313.6,478.2z"/>
		
			<path fill="#454545" stroke="#454545" stroke-width="0.5" stroke-linecap="round" stroke-linejoin="round" stroke-miterlimit="10" d="
			M251.3,482.6l-0.9,1.1l0,0c0,0,0,0-0.2,0h-0.2h-0.2h-5.5H244h-0.2l0,0l0,0l0.9-1.1l0,0c0,0,0,0,0.2,0h0.2h0.2h5.3h0.2
			C251.1,482.6,251.1,482.6,251.3,482.6L251.3,482.6L251.3,482.6z"/>
		
			<path fill="#454545" stroke="#454545" stroke-width="0.5" stroke-linecap="round" stroke-linejoin="round" stroke-miterlimit="10" d="
			M340.5,478.2L340.5,478.2l1.1,0.9l0,0l0,0c0,0,0,0-0.2,0h-0.2h-11h-0.2h-0.2h-0.2l0,0l-0.7-0.9l0,0l0,0c0,0,0,0,0.2,0h0.2h10.6
			h0.2C340,478.2,340.2,478.2,340.5,478.2C340.2,478.2,340.2,478.2,340.5,478.2z"/>
		
			<path fill="#454545" stroke="#454545" stroke-width="0.5" stroke-linecap="round" stroke-linejoin="round" stroke-miterlimit="10" d="
			M241,482.1l0.9-0.9l0,0c0,0,0,0,0.2,0h0.2h0.2h5.1h0.2h0.2l0,0l0,0l-0.9,0.9l0,0c0,0,0,0-0.2,0h-0.2h-0.2h-5.3H241
			C241.2,482.1,241.2,482.1,241,482.1C241.2,482.1,241,482.1,241,482.1L241,482.1z"/>
		
			<path fill="#454545" stroke="#454545" stroke-width="0.5" stroke-linecap="round" stroke-linejoin="round" stroke-miterlimit="10" d="
			M273.8,482.1L273.8,482.1c-0.2,0-0.2,0-0.2,0l0,0l0.5-0.9l0,0c0,0,0,0,0.2,0h0.2h0.2h5.1h0.2h0.2c0,0,0,0,0.2,0l0,0l-0.2,0.9l0,0
			c0,0,0,0-0.2,0h-0.2h-0.2h-5.3C274.1,482.4,274.1,482.4,273.8,482.1z"/>
		
			<path fill="#454545" stroke="#454545" stroke-width="0.5" stroke-linecap="round" stroke-linejoin="round" stroke-miterlimit="10" d="
			M286,479.6L286,479.6c0.2,0,0.2,0,0.2,0l0,0v0.9l0,0c0,0,0,0-0.2,0h-0.2h-0.2h-5.1h-0.2H280c0,0,0,0-0.2,0l0,0l0.2-0.9l0,0
			c0,0,0,0,0.2,0h0.2h0.2h5.1C285.8,479.6,285.8,479.6,286,479.6z"/>
		
			<path fill="#454545" stroke="#454545" stroke-width="0.5" stroke-linecap="round" stroke-linejoin="round" stroke-miterlimit="10" d="
			M278.2,479.6C278.4,479.6,278.4,479.6,278.2,479.6c0.2,0,0.2,0,0.2,0l0,0l-0.2,0.9l0,0c0,0,0,0-0.2,0h-0.2h-0.2h-5.1h-0.2H272
			c0,0,0,0-0.2,0l0,0l0.5-0.9l0,0c0,0,0,0,0.2,0h0.2h0.2h5.1C278.2,479.4,278.2,479.4,278.2,479.6z"/>
		
			<path fill="#454545" stroke="#454545" stroke-width="0.5" stroke-linecap="round" stroke-linejoin="round" stroke-miterlimit="10" d="
			M277.3,482.6L277.3,482.6C277.5,482.6,277.5,482.6,277.3,482.6c0.2,0,0.5-0.2,0.5-0.2h0.2h5.3h0.2h0.2c0,0,0,0,0.2,0l0,0l-0.2,1.1
			l0,0c0,0,0,0-0.2,0h-0.2H283h-5.5h-0.2h-0.2c0,0,0,0-0.2,0l0,0L277.3,482.6z"/>
		
			<path fill="#454545" stroke="#454545" stroke-width="0.5" stroke-linecap="round" stroke-linejoin="round" stroke-miterlimit="10" d="
			M269.2,482.6L269.2,482.6c0.2,0,0.2,0,0.2,0h0.2h0.2h5.3h0.2h0.2c0,0,0,0,0.2,0l0,0l-0.2,1.1l0,0c0,0,0,0-0.2,0h-0.2H275h-5.5
			h-0.2H269c0,0,0,0-0.2,0l0,0L269.2,482.6z"/>
		
			<path fill="#454545" stroke="#454545" stroke-width="0.5" stroke-linecap="round" stroke-linejoin="round" stroke-miterlimit="10" d="
			M293.4,479.6h0.2h0.2c0,0,0,0,0.2,0l0,0v0.9l0,0c0,0,0,0-0.2,0h-0.2h-0.2h-5.1h-0.2h-0.2c0,0,0,0-0.2,0l0,0v-0.9l0,0
			c0,0,0,0,0.2,0h0.2h0.2H293.4z"/>
		
			<path fill="#454545" stroke="#454545" stroke-width="0.5" stroke-linecap="round" stroke-linejoin="round" stroke-miterlimit="10" d="
			M300.9,479.6h0.2h0.2c0,0,0,0,0.2,0l0,0l0.2,0.9l0,0c0,0,0,0-0.2,0h-0.2h-0.2h-5.1h-0.2h-0.2c0,0,0,0-0.2,0l0,0v-0.9l0,0
			c0,0,0,0,0.2,0h0.2h0.2H300.9z"/>
		
			<path fill="#454545" stroke="#454545" stroke-width="0.5" stroke-linecap="round" stroke-linejoin="round" stroke-miterlimit="10" d="
			M293.8,482.6L293.8,482.6c0.2,0,0.2,0,0.5,0h0.2h5.3h0.2h0.2h0.2l0,0l0.2,1.1l0,0c0,0,0,0-0.2,0h-0.2H300h-5.5h-0.2h-0.2h-0.2l0,0
			V482.6C293.6,482.6,293.6,482.6,293.8,482.6z"/>
		
			<path fill="#454545" stroke="#454545" stroke-width="0.5" stroke-linecap="round" stroke-linejoin="round" stroke-miterlimit="10" d="
			M285.6,482.6L285.6,482.6L285.6,482.6c0.2,0,0.5-0.2,0.5-0.2h0.2h5.3h0.2h0.2c0,0,0,0,0.2,0l0,0v1.1l0,0c0,0,0,0-0.2,0h-0.2h-0.2
			H286h-0.2h-0.2c0,0,0,0-0.2,0l0,0L285.6,482.6z"/>
		
			<path fill="#454545" stroke="#454545" stroke-width="0.5" stroke-linecap="round" stroke-linejoin="round" stroke-miterlimit="10" d="
			M290.4,482.4h-0.2h-0.2c0,0,0,0-0.2,0l0,0v-0.9l0,0c0,0,0,0,0.2,0h0.2h0.2h5.1h0.2h0.2c0,0,0,0,0.2,0l0,0l0.2,0.9l0,0
			c0,0,0,0-0.2,0h-0.2h-0.2H290.4z"/>
		
			<path fill="#454545" stroke="#454545" stroke-width="0.5" stroke-linecap="round" stroke-linejoin="round" stroke-miterlimit="10" d="
			M282.1,482.4C281.9,482.1,281.9,482.1,282.1,482.4c-0.2,0-0.2,0-0.5,0l0,0l0.2-0.9l0,0c0,0,0,0,0.2,0h0.2h0.2h5.1h0.2h0.2
			c0,0,0,0,0.2,0l0,0v0.9l0,0c0,0,0,0-0.2,0h-0.2h-0.2h-5.3C282.1,482.4,282.1,482.4,282.1,482.4z"/>
		
			<path fill="#454545" stroke="#454545" stroke-width="0.5" stroke-linecap="round" stroke-linejoin="round" stroke-miterlimit="10" d="
			M259.6,482.6l-0.7,1.1l0,0c0,0,0,0-0.2,0h-0.2h-0.2h-5.5h-0.2h-0.2c0,0,0,0-0.2,0l0,0l0.9-1.1l0,0c0,0,0,0,0.2,0h0.2h0.2h5.3h0.2
			C259.1,482.6,259.4,482.6,259.6,482.6C259.4,482.6,259.4,482.6,259.6,482.6L259.6,482.6z"/>
		
			<path fill="#454545" stroke="#454545" stroke-width="0.5" stroke-linecap="round" stroke-linejoin="round" stroke-miterlimit="10" d="
			M289.9,479.1L289.9,479.1c-0.2,0-0.2,0-0.2,0h-0.2h-5.1h-0.2h-0.2c0,0,0,0-0.2,0l0,0l0.2-0.9l0,0c0,0,0,0,0.2,0h0.2h0.2h4.8h0.2
			h0.2c0,0,0,0,0.2,0l0,0L289.9,479.1L289.9,479.1z"/>
		
			<path fill="#454545" stroke="#454545" stroke-width="0.5" stroke-linecap="round" stroke-linejoin="round" stroke-miterlimit="10" d="
			M260.1,477.8l0.2-0.5l0,0c0,0,0,0,0.2,0h0.2h0.2h4.1h0.2h0.2l0,0l0,0l-0.2,0.5l0,0c0,0,0,0-0.2,0h-0.2h-0.2h-4.1h-0.2
			C260.3,477.8,260.3,477.8,260.1,477.8L260.1,477.8L260.1,477.8z"/>
		
			<path fill="#454545" stroke="#454545" stroke-width="0.5" stroke-linecap="round" stroke-linejoin="round" stroke-miterlimit="10" d="
			M280.5,477.3L280.5,477.3C280.7,477.3,280.7,477.3,280.5,477.3c0.2,0,0.2,0,0.5,0h0.2h4.1h0.2h0.2c0,0,0,0,0.2,0l0,0v0.5l0,0
			c0,0,0,0-0.2,0h-0.2h-0.2h-4.1H281h-0.2c0,0,0,0-0.2,0l0,0V477.3z"/>
		
			<path fill="#454545" stroke="#454545" stroke-width="0.5" stroke-linecap="round" stroke-linejoin="round" stroke-miterlimit="10" d="
			M273.8,477.3L273.8,477.3C273.8,477.3,273.8,477.1,273.8,477.3c0.2,0,0.2,0,0.5,0h0.2h4.1h0.2h0.2c0,0,0,0,0.2,0l0,0l-0.2,0.5l0,0
			c0,0,0,0-0.2,0h-0.2h-0.2h-4.1h-0.2h-0.2c0,0,0,0-0.2,0l0,0L273.8,477.3z"/>
		
			<path fill="#454545" stroke="#454545" stroke-width="0.5" stroke-linecap="round" stroke-linejoin="round" stroke-miterlimit="10" d="
			M267.2,479.1L267.2,479.1h-0.2h-0.2h-0.2h-5.1h-0.2H261l0,0l0,0l0.5-0.9l0,0c0,0,0,0,0.2,0h0.2h0.2h4.8h0.2h0.2c0,0,0,0,0.2,0l0,0
			L267.2,479.1z"/>
		
			<path fill="#454545" stroke="#454545" stroke-width="0.5" stroke-linecap="round" stroke-linejoin="round" stroke-miterlimit="10" d="
			M274.8,479.1L274.8,479.1C274.8,479.1,274.5,479.1,274.8,479.1c-0.2,0-0.5,0-0.5,0h-0.2H269h-0.2h-0.2c0,0,0,0-0.2,0l0,0l0.5-0.9
			l0,0c0,0,0,0,0.2,0h0.2h0.2h4.8h0.2h0.2c0,0,0,0,0.2,0l0,0L274.8,479.1z"/>
		
			<path fill="#454545" stroke="#454545" stroke-width="0.5" stroke-linecap="round" stroke-linejoin="round" stroke-miterlimit="10" d="
			M267.2,477.3L267.2,477.3C267.2,477.1,267.2,477.1,267.2,477.3c0.2,0,0.5,0,0.5,0h0.2h4.1h0.2h0.2c0,0,0,0,0.2,0l0,0l-0.2,0.5l0,0
			c0,0,0,0-0.2,0H272h-0.2h-4.1h-0.2h-0.2c0,0,0,0-0.2,0l0,0L267.2,477.3z"/>
		
			<path fill="#454545" stroke="#454545" stroke-width="0.5" stroke-linecap="round" stroke-linejoin="round" stroke-miterlimit="10" d="
			M282.3,479.1L282.3,479.1L282.3,479.1c-0.2,0-0.2,0-0.5,0h-0.2h-5.1h-0.2h-0.2c0,0,0,0-0.2,0l0,0l0.2-0.9l0,0c0,0,0,0,0.2,0h0.2
			h0.2h4.8h0.2h0.2c0,0,0,0,0.2,0l0,0V479.1z"/>
		
			<path fill="#454545" stroke="#454545" stroke-width="0.5" stroke-linecap="round" stroke-linejoin="round" stroke-miterlimit="10" d="
			M287.2,477.3L287.2,477.3C287.4,477.3,287.4,477.3,287.2,477.3c0.2,0,0.2,0,0.5,0h0.2h4.1h0.2h0.2c0,0,0,0,0.2,0l0,0v0.5l0,0
			c0,0,0,0-0.2,0h-0.2H292h-4.1h-0.2h-0.2c0,0,0,0-0.2,0l0,0V477.3z"/>
		
			<path fill="#454545" stroke="#454545" stroke-width="0.5" stroke-linecap="round" stroke-linejoin="round" stroke-miterlimit="10" d="
			M306.2,478.2C306.2,478.2,306.5,478.2,306.2,478.2c0.2,0,0.5,0,0.5,0h4.8h0.2h0.2c0,0,0,0,0.2,0l0,0l0.5,0.9l0,0c0,0,0,0-0.2,0
			h-0.2H312h-5.1h-0.2h-0.2c0,0,0,0-0.2,0l0,0L306.2,478.2L306.2,478.2L306.2,478.2z"/>
		
			<path fill="#454545" stroke="#454545" stroke-width="0.5" stroke-linecap="round" stroke-linejoin="round" stroke-miterlimit="10" d="
			M298.7,478.2L298.7,478.2C298.9,478.2,298.9,478.2,298.7,478.2c0.2,0,0.2,0,0.5,0h0.2h4.8h0.2h0.2c0,0,0,0,0.2,0l0,0l0.2,0.9l0,0
			c0,0,0,0-0.2,0h-0.2h-0.2h-5.1h-0.2h-0.2c0,0,0,0-0.2,0l0,0V478.2z"/>
		
			<path fill="#454545" stroke="#454545" stroke-width="0.5" stroke-linecap="round" stroke-linejoin="round" stroke-miterlimit="10" d="
			M300.7,477.3L300.7,477.3c0.2,0,0.2,0,0.2,0h0.2h4.1h0.2h0.2c0,0,0,0,0.2,0l0,0l0.2,0.5l0,0c0,0,0,0-0.2,0h-0.2h-0.2h-4.1h-0.2
			h-0.2c0,0,0,0-0.2,0l0,0V477.3L300.7,477.3z"/>
		
			<path fill="#454545" stroke="#454545" stroke-width="0.5" stroke-linecap="round" stroke-linejoin="round" stroke-miterlimit="10" d="
			M307.4,477.3C307.4,477.3,307.6,477.3,307.4,477.3c0.2,0,0.2,0,0.2,0h0.2h4.1h0.2h0.2c0,0,0,0,0.2,0l0,0l0.2,0.5l0,0
			c0,0,0,0-0.2,0c0,0,0,0-0.2,0h-0.2h-4.1h-0.2h-0.2c0,0,0,0-0.2,0l0,0V477.3L307.4,477.3z"/>
		
			<path fill="#454545" stroke="#454545" stroke-width="0.5" stroke-linecap="round" stroke-linejoin="round" stroke-miterlimit="10" d="
			M294.1,477.3L294.1,477.3c0.2,0,0.2,0,0.2,0h0.2h4.1h0.2h0.2c0,0,0,0,0.2,0l0,0v0.5l0,0c0,0,0,0-0.2,0h-0.2h-0.2h-4.1h-0.2h-0.2
			c0,0,0,0-0.2,0l0,0L294.1,477.3L294.1,477.3z"/>
		
			<path fill="#454545" stroke="#454545" stroke-width="0.5" stroke-linecap="round" stroke-linejoin="round" stroke-miterlimit="10" d="
			M297.5,479.1L297.5,479.1c-0.2,0-0.2,0-0.2,0H297H292h-0.2h-0.2c0,0,0,0-0.2,0l0,0v-0.9l0,0c0,0,0,0,0.2,0h0.2h0.2h4.8h0.2h0.2
			c0,0,0,0,0.2,0l0,0V479.1L297.5,479.1z"/>
		
			<path fill="#454545" stroke="#454545" stroke-width="0.5" stroke-linecap="round" stroke-linejoin="round" stroke-miterlimit="10" d="
			M226.7,481.9l1.4-0.9c0,0,0,0,0.2,0h0.2h0.2h0.2h11.5h0.2h0.2l0,0l0,0l-1.1,0.9l0,0h-0.2h-0.2h-0.2h-11.7h-0.2
			C227,482.1,227,482.1,226.7,481.9C226.7,482.1,226.7,482.1,226.7,481.9C226.7,482.1,226.7,482.1,226.7,481.9z"/>
		
			<path fill="#454545" stroke="#454545" stroke-width="0.5" stroke-linecap="round" stroke-linejoin="round" stroke-miterlimit="10" d="
			M233.2,483.7h-0.2h-7.6h-0.2h-0.2l0,0l0,0l1.4-1.1c0,0,0,0,0.2,0h0.2h0.2h0.2h7.4h0.2h0.2l0,0l0,0l-1.1,1.1c0,0,0,0-0.2,0h-0.2
			H233.2z"/>
		
			<path fill="#454545" stroke="#454545" stroke-width="0.5" stroke-linecap="round" stroke-linejoin="round" stroke-miterlimit="10" d="
			M228.8,480.5l1.1-0.9l0,0h0.2h0.2h0.2h9h0.2h0.2l0,0l0,0l-1.1,0.9l0,0c0,0,0,0-0.2,0h-0.2h-0.2H229H228.8
			C229,480.5,229,480.5,228.8,480.5L228.8,480.5L228.8,480.5z"/>
		
			<path fill="#454545" stroke="#454545" stroke-width="0.5" stroke-linecap="round" stroke-linejoin="round" stroke-miterlimit="10" d="
			M357.5,485.8L357.5,485.8c-0.2,0-0.2,0-0.2,0H357h-5.7H351h-0.2h-0.2c0,0,0,0-0.2,0l-1.4-1.1l0,0l0,0c0,0,0,0,0.2,0h0.2h5.5h0.2
			h0.2h0.2c0,0,0,0,0.2,0L357.5,485.8L357.5,485.8z"/>
		
			<path fill="#454545" stroke="#454545" stroke-width="0.5" stroke-linecap="round" stroke-linejoin="round" stroke-miterlimit="10" d="
			M232.9,484.2l-1.4,1.1c0,0,0,0-0.2,0h-0.2h-0.2h-0.2h-7.8h-0.2h-0.2l0,0l0,0l1.6-1.1c0,0,0,0,0.2,0h0.2h0.2h0.2h7.6h0.2
			C232.9,484.2,232.9,484.2,232.9,484.2L232.9,484.2C233.2,484.2,233.2,484.2,232.9,484.2z"/>
		
			<path fill="#454545" stroke="#454545" stroke-width="0.5" stroke-linecap="round" stroke-linejoin="round" stroke-miterlimit="10" d="
			M230.6,478.9l1.1-0.9l0,0c0,0,0,0,0.2,0h0.2h0.2h4.8h0.2h0.2l0,0l0,0l-0.9,1.1l0,0c0,0,0,0-0.2,0h-0.2h-0.2h-5.1h-0.2
			C230.9,479.1,230.9,479.1,230.6,478.9C230.6,479.1,230.6,479.1,230.6,478.9C230.6,479.1,230.6,479.1,230.6,478.9z"/>
		
			<path fill="#454545" stroke="#454545" stroke-width="0.5" stroke-linecap="round" stroke-linejoin="round" stroke-miterlimit="10" d="
			M259.8,478C260.1,478,260.1,478,259.8,478c0.2,0,0.2,0,0.2,0l0,0l-0.7,0.9l0,0c0,0,0,0-0.2,0h-0.2h-0.2h-5.1h-0.2h-0.2l0,0l0,0
			l0.7-0.9l0,0c0,0,0,0,0.2,0h0.2h0.2h4.8C259.8,478,259.8,478,259.8,478z"/>
		
			<path fill="#454545" stroke="#454545" stroke-width="0.5" stroke-linecap="round" stroke-linejoin="round" stroke-miterlimit="10" d="
			M248.6,480.5L248.6,480.5l0.9-0.9l0,0c0,0,0,0,0.2,0h0.2h0.2h5.1h0.2h0.2l0,0l0,0l-0.7,0.9l0,0c0,0,0,0-0.2,0h-0.2h-0.2h-5.1H249
			C248.8,480.5,248.6,480.5,248.6,480.5L248.6,480.5z"/>
		
			<path fill="#454545" stroke="#454545" stroke-width="0.5" stroke-linecap="round" stroke-linejoin="round" stroke-miterlimit="10" d="
			M300.9,485.6L300.9,485.6c-0.2,0-0.2,0-0.5,0h-0.2h-40.4h-0.2h-0.2c0,0,0,0-0.2,0l0,0l0.7-1.1l0,0c0,0,0,0,0.2,0h0.2h0.2h39.3h0.2
			h0.2h0.2l0,0L300.9,485.6L300.9,485.6z"/>
		
			<path fill="#454545" stroke="#454545" stroke-width="0.5" stroke-linecap="round" stroke-linejoin="round" stroke-miterlimit="10" d="
			M240.8,480.5L240.8,480.5C240.5,480.5,240.5,480.5,240.8,480.5l0.9-1.1l0,0c0,0,0,0,0.2,0h0.2h0.2h5.1h0.2h0.2l0,0l0,0l-0.9,0.9
			l0,0c0,0,0,0-0.2,0h-0.2h-0.2h-5.1C241,480.5,241,480.5,240.8,480.5L240.8,480.5z"/>
		
			<path fill="#454545" stroke="#454545" stroke-width="0.5" stroke-linecap="round" stroke-linejoin="round" stroke-miterlimit="10" d="
			M232.5,477.5l0.7-0.5l0,0c0,0,0,0,0.2,0h0.2h0.2h4.8h0.2h0.2l0,0l0,0l-0.5,0.5l0,0c0,0,0,0-0.2,0h-0.2H238h-4.8h-0.2
			C232.7,477.8,232.7,477.8,232.5,477.5C232.5,477.8,232.5,477.8,232.5,477.5C232.5,477.8,232.5,477.8,232.5,477.5z"/>
		
			<path fill="#454545" stroke="#454545" stroke-width="0.5" stroke-linecap="round" stroke-linejoin="round" stroke-miterlimit="10" d="
			M238.2,479.1l0.9-0.9l0,0c0,0,0,0,0.2,0h0.2h0.2h4.8h0.2h0.2l0,0l0,0l-0.9,0.9l0,0c0,0,0,0-0.2,0h-0.2h-0.2h-5.1H238.2
			C238.5,479.1,238.5,479.1,238.2,479.1L238.2,479.1L238.2,479.1z"/>
		
			<path fill="#454545" stroke="#454545" stroke-width="0.5" stroke-linecap="round" stroke-linejoin="round" stroke-miterlimit="10" d="
			M239.6,477.8l0.5-0.5l0,0c0,0,0,0,0.2,0h0.2h0.2h4.1h0.2h0.2l0,0l0,0l-0.5,0.5l0,0c0,0,0,0-0.2,0h-0.2h-0.2h-4.1h-0.2
			C239.8,477.8,239.8,477.8,239.6,477.8L239.6,477.8L239.6,477.8z"/>
		
			<path fill="#454545" stroke="#454545" stroke-width="0.5" stroke-linecap="round" stroke-linejoin="round" stroke-miterlimit="10" d="
			M253.2,477.8l0.5-0.5l0,0c0,0,0,0,0.2,0h0.2h0.2h4.1h0.2h0.2l0,0l0,0l-0.2,0.5l0,0c0,0,0,0-0.2,0h-0.2H258h-4.1h-0.2
			C253.4,477.8,253.4,477.8,253.2,477.8C253.4,477.8,253.2,477.8,253.2,477.8L253.2,477.8z"/>
		
			<path fill="#454545" stroke="#454545" stroke-width="0.5" stroke-linecap="round" stroke-linejoin="round" stroke-miterlimit="10" d="
			M318.9,484L318.9,484l-0.7-1.1l0,0c0,0,0,0,0.2,0h0.2h0.2h5.3h0.2h0.2h0.2l0,0l0.7,1.1l0,0c0,0,0,0-0.2,0h-0.2h-0.2h-5.5h-0.2
			C319.3,484,319.1,484,318.9,484C319.1,484,318.9,484,318.9,484z"/>
		
			<path fill="#454545" stroke="#454545" stroke-width="0.5" stroke-linecap="round" stroke-linejoin="round" stroke-miterlimit="10" d="
			M313.6,481.2C313.6,481,313.6,481,313.6,481.2c0.2,0,0.2,0,0.2,0h0.2h5.1h0.2h0.2h0.2l0,0l0.7,0.9l0,0c0,0,0,0-0.2,0H320h-0.2
			h-5.3h-0.2H314h-0.2l0,0L313.6,481.2L313.6,481.2z"/>
		
			<path fill="#454545" stroke="#454545" stroke-width="0.5" stroke-linecap="round" stroke-linejoin="round" stroke-miterlimit="10" d="
			M335.2,481h0.2h0.2h0.2l0,0l0.9,1.1l0,0l0,0c0,0,0,0-0.2,0h-0.2H331h-0.2h-0.2h-0.2l0,0l-0.9-0.9l0,0l0,0c0,0,0,0,0.2,0h0.2
			L335.2,481z"/>
		
			<path fill="#454545" stroke="#454545" stroke-width="0.5" stroke-linecap="round" stroke-linejoin="round" stroke-miterlimit="10" d="
			M318.2,485.6C318.2,485.8,318.2,485.8,318.2,485.6c-0.2,0-0.2,0-0.2,0h-0.2H312h-0.2h-0.2h-0.2l0,0l-0.5-1.1l0,0c0,0,0,0,0.2,0
			h0.2h0.2h5.5h0.2h0.2h0.2l0,0L318.2,485.6L318.2,485.6z"/>
		
			<path fill="#454545" stroke="#454545" stroke-width="0.5" stroke-linecap="round" stroke-linejoin="round" stroke-miterlimit="10" d="
			M321.6,481.2L321.6,481.2c0.2,0,0.2,0,0.2,0h0.2h5.1h0.2h0.2h0.2l0,0l0.9,0.9l0,0c0,0,0,0-0.2,0h-0.2h-0.2h-5.3h-0.2h-0.2h-0.2
			l0,0L321.6,481.2L321.6,481.2z"/>
		
			<path fill="#454545" stroke="#454545" stroke-width="0.5" stroke-linecap="round" stroke-linejoin="round" stroke-miterlimit="10" d="
			M333.1,480.8L333.1,480.8c-0.2,0-0.2,0-0.2,0h-0.2h-5.1h-0.2h-0.2h-0.2l0,0l-0.7-0.9l0,0l0,0c0,0,0,0,0.2,0h0.2h5.1h0.2h0.2h0.2
			l0,0L333.1,480.8L333.1,480.8z"/>
		
			<path fill="#454545" stroke="#454545" stroke-width="0.5" stroke-linecap="round" stroke-linejoin="round" stroke-miterlimit="10" d="
			M338.2,482.4L338.2,482.4l-1.4-1.4h-0.2h-0.2h-0.2h-0.2h-0.5h-0.2H335h-0.2l0,0l-0.9-0.9l0,0l0,0c0,0,0,0,0.2,0h0.2h6.9h0.2h0.2
			h0.2l0,0l2.8,2.5l0,0l0,0c0,0,0,0-0.2,0h-0.2h-5.3h-0.2C338.6,482.4,338.4,482.4,338.2,482.4C338.4,482.4,338.2,482.4,338.2,482.4
			z"/>
		
			<path fill="#454545" stroke="#454545" stroke-width="0.5" stroke-linecap="round" stroke-linejoin="round" stroke-miterlimit="10" d="
			M305.8,481L305.8,481c0.2,0,0.2,0,0.2,0h0.2h5.1h0.2h0.2h0.2l0,0l0.5,0.9l0,0c0,0,0,0-0.2,0H312h-0.2h-5.3h-0.2H306h-0.2l0,0
			L305.8,481C305.5,481.2,305.5,481.2,305.8,481z"/>
		
			<path fill="#454545" stroke="#454545" stroke-width="0.5" stroke-linecap="round" stroke-linejoin="round" stroke-miterlimit="10" d="
			M310.4,483.7l-0.5-1.1l0,0c0,0,0,0,0.2,0h0.2h0.2h5.3h0.2h0.2h0.2l0,0l0.7,1.1l0,0c0,0,0,0-0.2,0h-0.2h-0.2h-5.5h-0.2h-0.2
			C310.6,484,310.6,484,310.4,483.7C310.6,484,310.4,484,310.4,483.7z"/>
		
			<path fill="#454545" stroke="#454545" stroke-width="0.5" stroke-linecap="round" stroke-linejoin="round" stroke-miterlimit="10" d="
			M302.1,483.7l-0.2-1.1l0,0c0,0,0,0,0.2,0h0.2h0.2h5.3h0.2h0.2h0.2l0,0l0.5,1.1l0,0c0,0,0,0-0.2,0h-0.2h-0.2h-5.5h-0.2h-0.2
			C302.3,484,302.3,484,302.1,483.7C302.1,484,302.1,483.7,302.1,483.7z"/>
		
			<path fill="#454545" stroke="#454545" stroke-width="0.5" stroke-linecap="round" stroke-linejoin="round" stroke-miterlimit="10" d="
			M298.7,482.4h-0.2h-0.2c0,0,0,0-0.2,0l0,0l-0.2-0.9l0,0c0,0,0,0,0.2,0h0.2h0.2h5.1h0.2h0.2h0.2l0,0l0.2,0.9l0,0c0,0,0,0-0.2,0
			h-0.2h-0.2H298.7z"/>
		
			<path fill="#454545" stroke="#454545" stroke-width="0.5" stroke-linecap="round" stroke-linejoin="round" stroke-miterlimit="10" d="
			M303.9,480.8h-0.2h-0.2h-0.2l0,0l-0.2-0.9l0,0c0,0,0,0,0.2,0h0.2h0.2h5.1h0.2h0.2h0.2l0,0l0.5,0.9l0,0c0,0,0,0-0.2,0h-0.2h-0.2
			H303.9z"/>
		
			<path fill="#454545" stroke="#454545" stroke-width="0.5" stroke-linecap="round" stroke-linejoin="round" stroke-miterlimit="10" d="
			M309.7,485.6C309.4,485.6,309.4,485.8,309.7,485.6c-0.2,0-0.2,0-0.5,0H309h-5.7H303h-0.2h-0.2l0,0l-0.2-1.1l0,0c0,0,0,0,0.2,0h0.2
			h0.2h5.5h0.2h0.2h0.2l0,0L309.7,485.6L309.7,485.6z"/>
		
			<path fill="#454545" stroke="#454545" stroke-width="0.5" stroke-linecap="round" stroke-linejoin="round" stroke-miterlimit="10" d="
			M331.5,485.8L331.5,485.8c-0.2,0-0.2,0-0.2,0H331h-10.1h-0.2h-0.2h-0.2l0,0l-0.7-1.1l0,0c0,0,0,0,0.2,0h0.2h0.2h9.9h0.2h0.2h0.2
			l0,0L331.5,485.8C331.5,485.6,331.5,485.8,331.5,485.8z"/>
		
			<path fill="#454545" stroke="#454545" stroke-width="0.5" stroke-linecap="round" stroke-linejoin="round" stroke-miterlimit="10" d="
			M348.7,485.8L348.7,485.8c-0.2,0-0.2,0-0.2,0h-0.2h-5.7h-0.2h-0.2h-0.2c0,0,0,0-0.2,0l-1.1-1.1l0,0l0,0h0.2h0.2h5.5h0.2h0.2h0.2
			c0,0,0,0,0.2,0L348.7,485.8L348.7,485.8z"/>
		
			<path fill="#454545" stroke="#454545" stroke-width="0.5" stroke-linecap="round" stroke-linejoin="round" stroke-miterlimit="10" d="
			M326.4,482.8C326.4,482.6,326.4,482.6,326.4,482.8c0.2,0,0.2,0,0.2,0h0.2h9.6h0.2h0.2h0.2l0,0l1.1,1.1l0,0l0,0h-0.2h-0.2h-9.9
			h-0.2h-0.2h-0.2l0,0L326.4,482.8L326.4,482.8z"/>
		
			<path fill="#454545" stroke="#454545" stroke-width="0.5" stroke-linecap="round" stroke-linejoin="round" stroke-miterlimit="10" d="
			M340.7,477.3L340.7,477.3c0.2,0,0.2,0,0.2,0h0.2h4.8h0.2h0.2h0.2l0,0l0.7,0.5l0,0l0,0c0,0,0,0-0.2,0h-0.2h-4.8h-0.2h-0.2h-0.2l0,0
			L340.7,477.3L340.7,477.3z"/>
		
			<path fill="#454545" stroke="#454545" stroke-width="0.5" stroke-linecap="round" stroke-linejoin="round" stroke-miterlimit="10" d="
			M326.9,478.2C327.1,478.2,327.1,478.2,326.9,478.2l0.9,0.9l0,0l0,0c0,0,0,0-0.2,0h-0.2h-5.1h-0.2h-0.2h-0.2l0,0l-0.7-0.9l0,0l0,0
			c0,0,0,0,0.2,0h0.2h4.8h0.2C326.7,478.2,326.7,478.2,326.9,478.2L326.9,478.2z"/>
		
			<path fill="#454545" stroke="#454545" stroke-width="0.5" stroke-linecap="round" stroke-linejoin="round" stroke-miterlimit="10" d="
			M327.6,477.3L327.6,477.3c0.2,0,0.2,0,0.2,0h0.2h4.1h0.2h0.2h0.2l0,0l0.5,0.5l0,0l0,0c0,0,0,0-0.2,0h-0.2h-4.1h-0.2h-0.2h-0.2l0,0
			L327.6,477.3L327.6,477.3z"/>
		
			<path fill="#454545" stroke="#454545" stroke-width="0.5" stroke-linecap="round" stroke-linejoin="round" stroke-miterlimit="10" d="
			M319.8,480.8h-0.2h-0.2h-0.2l0,0l-0.7-0.9l0,0c0,0,0,0,0.2,0c0,0,0,0,0.2,0h0.2h5.1h0.2h0.2h0.2l0,0l0.7,0.9l0,0l0,0h-0.2h-0.2
			H319.8z"/>
		
			<path fill="#454545" stroke="#454545" stroke-width="0.5" stroke-linecap="round" stroke-linejoin="round" stroke-miterlimit="10" d="
			M320.9,477.3L320.9,477.3c0.2,0,0.2,0,0.2,0h0.2h4.1h0.2h0.2h0.2l0,0l0.5,0.5l0,0l0,0c0,0,0,0-0.2,0h-0.2h-4.1h-0.2h-0.2h-0.2l0,0
			L320.9,477.3L320.9,477.3z"/>
		
			<path fill="#454545" stroke="#454545" stroke-width="0.5" stroke-linecap="round" stroke-linejoin="round" stroke-miterlimit="10" d="
			M347.4,478.2h0.2h0.2l0,0l1.1,0.9l0,0l0,0c0,0,0,0-0.2,0h-0.2h-5.1h-0.2H343h-0.2l0,0l-1.1-0.9l0,0l0,0c0,0,0,0,0.2,0h0.2h4.8
			C347.4,478.2,347.4,478.2,347.4,478.2z"/>
		
			<path fill="#454545" stroke="#454545" stroke-width="0.5" stroke-linecap="round" stroke-linejoin="round" stroke-miterlimit="10" d="
			M311.7,480.8h-0.2h-0.2h-0.2l0,0l-0.5-0.9l0,0c0,0,0,0,0.2,0h0.2h0.2h5.1h0.2h0.2h0.2l0,0l0.5,0.9l0,0c0,0,0,0-0.2,0H317h-0.2
			H311.7z"/>
		
			<path fill="#454545" stroke="#454545" stroke-width="0.5" stroke-linecap="round" stroke-linejoin="round" stroke-miterlimit="10" d="
			M340,484L340,484l-1.1-1.1l0,0l0,0c0,0,0,0,0.2,0h0.2h5.3h0.2h0.2h0.2c0,0,0,0,0.2,0l1.1,1.1l0,0l0,0c0,0,0,0-0.2,0h-0.2h-5.5
			h-0.2C340.5,484,340.2,484,340,484C340.2,484,340.2,484,340,484z"/>
		
			<path fill="#454545" stroke="#454545" stroke-width="0.5" stroke-linecap="round" stroke-linejoin="round" stroke-miterlimit="10" d="
			M349.2,479.6h0.2h0.2c0,0,0,0,0.2,0l1.1,0.9l0,0l0,0c0,0,0,0-0.2,0h-0.2h-5.1h-0.2h-0.2h-0.2l0,0l-1.1-0.9l0,0l0,0c0,0,0,0,0.2,0
			h0.2H349.2C349,479.6,349.2,479.6,349.2,479.6z"/>
		
			<path fill="#454545" stroke="#454545" stroke-width="0.5" stroke-linecap="round" stroke-linejoin="round" stroke-miterlimit="10" d="
			M340,485.8L340,485.8c-0.2,0-0.2,0-0.2,0h-0.2h-5.7h-0.2h-0.2h-0.2l0,0l-0.9-1.1l0,0l0,0h0.2h0.2h5.5h0.2h0.2h0.2l0,0L340,485.8
			C340,485.6,340,485.8,340,485.8z"/>
		
			<path fill="#454545" stroke="#454545" stroke-width="0.5" stroke-linecap="round" stroke-linejoin="round" stroke-miterlimit="10" d="
			M349,484h-0.2h-0.2c0,0,0,0-0.2,0l-1.4-1.1l0,0l0,0c0,0,0,0,0.2,0h0.2h5.3h0.2h0.2h0.2c0,0,0,0,0.2,0l1.4,1.1l0,0l0,0
			c0,0,0,0-0.2,0h-0.2H349L349,484z"/>
		
			<path fill="#454545" stroke="#454545" stroke-width="0.5" stroke-linecap="round" stroke-linejoin="round" stroke-miterlimit="10" d="
			M351,481.2h0.2h0.2c0,0,0,0,0.2,0l1.4,1.1l0,0l0,0c0,0,0,0-0.2,0h-0.2h-5.3h-0.2h-0.2h-0.2l0,0l-1.1-1.1l0,0l0,0c0,0,0,0,0.2,0
			h0.2H351C351,481.2,351,481.2,351,481.2z"/>
	</g>
	<g>
		<path fill="#F1F0F0" d="M270.6,479.1C270.6,479.1,270.9,479.1,270.6,479.1c0.2,0,0.2,0,0.2,0l0,0l-0.5,0.9l0,0c0,0,0,0-0.2,0h-0.2
			h-0.2h-5.1h-0.2h-0.2c0,0,0,0-0.2,0l0,0l0.5-0.9l0,0c0,0,0,0,0.2,0h0.2h0.2h5.1C270.4,479.1,270.6,479.1,270.6,479.1z"/>
		<path fill="#F1F0F0" d="M257.3,481.7l0.7-0.9l0,0c0,0,0,0,0.2,0h0.2h0.2h5.1h0.2h0.2c0,0,0,0,0.2,0l0,0l-0.5,0.9l0,0
			c0,0,0,0-0.2,0h-0.2h-0.2H258h-0.2C257.5,481.9,257.5,481.9,257.3,481.7L257.3,481.7L257.3,481.7z"/>
		<path fill="#F1F0F0" d="M256.4,480.3C256.4,480.3,256.4,480.1,256.4,480.3l0.7-0.9l0,0c0,0,0,0,0.2,0h0.2h0.2h5.1h0.2h0.2l0,0l0,0
			l-0.5,0.9l0,0c0,0,0,0-0.2,0h-0.2h-0.2h-5.1h-0.2C256.6,480.3,256.4,480.3,256.4,480.3L256.4,480.3z"/>
		<path fill="#F1F0F0" d="M260.3,483.3l0.7-1.1l0,0c0,0,0,0,0.2,0h0.2h0.2h5.3h0.2h0.2c0,0,0,0,0.2,0l0,0l-0.5,1.1l0,0
			c0,0,0,0-0.2,0h-0.2h-0.2H261h-0.2C260.5,483.5,260.5,483.5,260.3,483.3C260.5,483.5,260.3,483.5,260.3,483.3L260.3,483.3z"/>
		<path fill="#F1F0F0" d="M249.3,481.7l0.9-0.9l0,0c0,0,0,0,0.2,0h0.2h0.2h5.1h0.2h0.2l0,0l0,0l-0.7,0.9l0,0c0,0,0,0-0.2,0h-0.2H255
			h-5.3h-0.2C249.5,481.9,249.3,481.9,249.3,481.7L249.3,481.7L249.3,481.7z"/>
		<path fill="#F1F0F0" d="M249.9,484l-0.9,1.1l0,0h-0.2h-0.2h-0.2h-5.7h-0.2h-0.2l0,0l0,0l1.1-1.1l0,0h0.2h0.2h0.2h5.5h0.2
			C249.7,483.7,249.7,483.7,249.9,484C249.9,483.7,249.9,483.7,249.9,484L249.9,484z"/>
		<path fill="#F1F0F0" d="M241.7,483.5h-0.2h-0.2h-5.5h-0.2h-0.2l0,0l0,0l1.1-1.1l0,0h0.2h0.2h0.2h5.3h0.2h0.2l0,0l0,0L241.7,483.5
			C242.1,483.3,242.1,483.3,241.7,483.5C241.9,483.5,241.9,483.5,241.7,483.5z"/>
		<path fill="#F1F0F0" d="M241.4,484l-1.1,1.1c0,0,0,0-0.2,0h-0.2h-0.2h-0.2h-5.7h-0.2h-0.2l0,0l0,0l1.4-1.1c0,0,0,0,0.2,0h0.2h0.2
			h0.2h5.5h0.2C241.2,483.7,241.4,483.7,241.4,484C241.4,483.7,241.4,483.7,241.4,484L241.4,484z"/>
		<path fill="#F1F0F0" d="M265.8,481.9C265.8,481.9,265.6,481.9,265.8,481.9c-0.2,0-0.2,0-0.2,0l0,0l0.5-0.9l0,0c0,0,0,0,0.2,0h0.2
			h0.2h5.1h0.2h0.2c0,0,0,0,0.2,0l0,0l-0.5,0.9l0,0c0,0,0,0-0.2,0h-0.2h-0.2H266C266,481.9,265.8,481.9,265.8,481.9z"/>
		<path fill="#F1F0F0" d="M258.4,484l-0.7,1.1l0,0c0,0,0,0-0.2,0h-0.2h-0.2h-5.7h-0.2h-0.2c0,0,0,0-0.2,0l0,0l0.9-1.1l0,0
			c0,0,0,0,0.2,0h0.2h0.2h5.5h0.2C258.2,483.7,258.2,483.7,258.4,484C258.2,483.7,258.4,484,258.4,484L258.4,484z"/>
		<path fill="#F1F0F0" d="M334.3,476.8L334.3,476.8c0.2,0,0.2,0,0.2,0h0.2h4.1h0.2h0.2h0.2l0,0l0.5,0.5l0,0l0,0c0,0,0,0-0.2,0h-0.2
			h-4.1h-0.2H335h-0.2l0,0L334.3,476.8C334.3,477.1,334.3,477.1,334.3,476.8z"/>
		<path fill="#F1F0F0" d="M314.3,476.8L314.3,476.8c0.2,0,0.2,0,0.2,0h0.2h4.1h0.2h0.2c0,0,0,0,0.2,0l0,0l0.2,0.5l0,0l0,0
			c0,0,0,0-0.2,0h-0.2h-4.1H315h-0.2h-0.2l0,0L314.3,476.8C314,476.8,314,476.8,314.3,476.8z"/>
		<path fill="#F1F0F0" d="M245.8,478.7l0.9-0.9l0,0c0,0,0,0,0.2,0h0.2h0.2h4.8h0.2h0.2l0,0l0,0l-0.7,0.9l0,0c0,0,0,0-0.2,0h-0.2
			h-0.2h-5.1H246C246,478.7,246,478.7,245.8,478.7L245.8,478.7L245.8,478.7z"/>
		<path fill="#F1F0F0" d="M246.5,477.3l0.5-0.5l0,0c0,0,0,0,0.2,0h0.2h0.2h4.1h0.2h0.2l0,0l0,0l-0.5,0.5l0,0c0,0,0,0-0.2,0h-0.2
			h-0.2H247h-0.2C246.7,477.3,246.5,477.3,246.5,477.3L246.5,477.3L246.5,477.3z"/>
		<path fill="#F1F0F0" d="M313.6,477.8L313.6,477.8c0.2,0,0.2,0,0.2,0h0.2h4.8h0.2h0.2h0.2l0,0l0.7,0.9l0,0l0,0c0,0,0,0-0.2,0h-0.2
			h-5.1h-0.2h-0.2H314l0,0L313.6,477.8C313.6,478,313.6,477.8,313.6,477.8z"/>
		<path fill="#F1F0F0" d="M251.3,482.1l-0.9,1.1l0,0c0,0,0,0-0.2,0h-0.2h-0.2h-5.5H244h-0.2l0,0l0,0l0.9-1.1l0,0c0,0,0,0,0.2,0h0.2
			h0.2h5.3h0.2C251.1,482.1,251.1,482.1,251.3,482.1L251.3,482.1L251.3,482.1z"/>
		<path fill="#F1F0F0" d="M340.5,478L340.5,478l1.1,0.9l0,0l0,0c0,0,0,0-0.2,0h-0.2h-11h-0.2h-0.2h-0.2l0,0l-0.7-0.9l0,0l0,0
			c0,0,0,0,0.2,0h0.2h10.6h0.2C340,477.8,340.2,477.8,340.5,478C340.2,478,340.2,478,340.5,478z"/>
		<path fill="#F1F0F0" d="M241,481.7l0.9-0.9l0,0c0,0,0,0,0.2,0h0.2h0.2h5.1h0.2h0.2l0,0l0,0l-0.9,0.9l0,0c0,0,0,0-0.2,0h-0.2h-0.2
			h-5.3H241C241.2,481.9,241.2,481.7,241,481.7C241.2,481.7,241,481.7,241,481.7L241,481.7z"/>
		<path fill="#F1F0F0" d="M273.8,481.9L273.8,481.9c-0.2,0-0.2,0-0.2,0l0,0l0.5-0.9l0,0c0,0,0,0,0.2,0h0.2h0.2h5.1h0.2h0.2
			c0,0,0,0,0.2,0l0,0l-0.2,0.9l0,0c0,0,0,0-0.2,0h-0.2h-0.2h-5.3C274.1,481.9,274.1,481.9,273.8,481.9z"/>
		<path fill="#F1F0F0" d="M286,479.1L286,479.1c0.2,0,0.2,0,0.2,0l0,0v0.9l0,0c0,0,0,0-0.2,0h-0.2h-0.2h-5.1h-0.2H280c0,0,0,0-0.2,0
			l0,0l0.2-0.9l0,0c0,0,0,0,0.2,0h0.2h0.2h5.1C285.8,479.1,285.8,479.1,286,479.1z"/>
		<path fill="#F1F0F0" d="M278.2,479.1C278.4,479.1,278.4,479.1,278.2,479.1c0.2,0,0.2,0,0.2,0l0,0l-0.2,0.9l0,0c0,0,0,0-0.2,0h-0.2
			h-0.2h-5.1h-0.2H272c0,0,0,0-0.2,0l0,0l0.5-0.9l0,0c0,0,0,0,0.2,0h0.2h0.2h5.1C278.2,479.1,278.2,479.1,278.2,479.1z"/>
		<path fill="#F1F0F0" d="M277.3,482.4L277.3,482.4C277.5,482.1,277.5,482.1,277.3,482.4c0.2,0,0.5-0.2,0.5-0.2h0.2h5.3h0.2h0.2
			c0,0,0,0,0.2,0l0,0l-0.2,1.1l0,0c0,0,0,0-0.2,0h-0.2H283h-5.5h-0.2h-0.2c0,0,0,0-0.2,0l0,0L277.3,482.4z"/>
		<path fill="#F1F0F0" d="M269.2,482.4C269.2,482.4,269.2,482.1,269.2,482.4c0.2,0,0.2,0,0.2,0h0.2h0.2h5.3h0.2h0.2c0,0,0,0,0.2,0
			l0,0l-0.2,1.1l0,0c0,0,0,0-0.2,0h-0.2H275h-5.5h-0.2H269c0,0,0,0-0.2,0l0,0L269.2,482.4z"/>
		<path fill="#F1F0F0" d="M293.4,479.1h0.2h0.2c0,0,0,0,0.2,0l0,0v0.9l0,0c0,0,0,0-0.2,0h-0.2h-0.2h-5.1h-0.2h-0.2c0,0,0,0-0.2,0
			l0,0v-0.9l0,0c0,0,0,0,0.2,0h0.2h0.2H293.4z"/>
		<path fill="#F1F0F0" d="M300.9,479.1h0.2h0.2c0,0,0,0,0.2,0l0,0l0.2,0.9l0,0c0,0,0,0-0.2,0h-0.2h-0.2h-5.1h-0.2h-0.2
			c0,0,0,0-0.2,0l0,0v-0.9l0,0c0,0,0,0,0.2,0h0.2h0.2H300.9z"/>
		<path fill="#F1F0F0" d="M293.8,482.4C293.8,482.4,293.8,482.1,293.8,482.4c0.2,0,0.2,0,0.5,0h0.2h5.3h0.2h0.2h0.2l0,0l0.2,1.1l0,0
			c0,0,0,0-0.2,0h-0.2H300h-5.5h-0.2h-0.2h-0.2l0,0V482.4C293.6,482.4,293.6,482.4,293.8,482.4z"/>
		<path fill="#F1F0F0" d="M285.6,482.4L285.6,482.4C285.6,482.1,285.6,482.1,285.6,482.4c0.2,0,0.5-0.2,0.5-0.2h0.2h5.3h0.2h0.2
			c0,0,0,0,0.2,0l0,0v1.1l0,0c0,0,0,0-0.2,0h-0.2h-0.2H286h-0.2h-0.2c0,0,0,0-0.2,0l0,0L285.6,482.4z"/>
		<path fill="#F1F0F0" d="M290.4,481.9h-0.2h-0.2c0,0,0,0-0.2,0l0,0V481l0,0c0,0,0,0,0.2,0h0.2h0.2h5.1h0.2h0.2c0,0,0,0,0.2,0l0,0
			l0.2,0.9l0,0c0,0,0,0-0.2,0h-0.2h-0.2H290.4z"/>
		<path fill="#F1F0F0" d="M282.1,481.9C281.9,481.9,281.9,481.9,282.1,481.9c-0.2,0-0.2,0-0.5,0l0,0l0.2-0.9l0,0c0,0,0,0,0.2,0h0.2
			h0.2h5.1h0.2h0.2c0,0,0,0,0.2,0l0,0v0.9l0,0c0,0,0,0-0.2,0h-0.2h-0.2h-5.3C282.1,481.9,282.1,481.9,282.1,481.9z"/>
		<path fill="#F1F0F0" d="M259.6,482.4l-0.7,1.1l0,0c0,0,0,0-0.2,0h-0.2h-0.2h-5.5h-0.2h-0.2c0,0,0,0-0.2,0l0,0l0.9-1.1l0,0
			c0,0,0,0,0.2,0h0.2h0.2h5.3h0.2C259.1,482.1,259.4,482.1,259.6,482.4C259.4,482.1,259.4,482.1,259.6,482.4
			C259.6,482.1,259.6,482.1,259.6,482.4z"/>
		<path fill="#F1F0F0" d="M289.9,478.9L289.9,478.9c-0.2,0-0.2,0-0.2,0h-0.2h-5.1h-0.2h-0.2c0,0,0,0-0.2,0l0,0l0.2-0.9l0,0
			c0,0,0,0,0.2,0h0.2h0.2h4.8h0.2h0.2c0,0,0,0,0.2,0l0,0L289.9,478.9C289.9,478.7,289.9,478.9,289.9,478.9z"/>
		<path fill="#F1F0F0" d="M260.1,477.3l0.2-0.5l0,0c0,0,0,0,0.2,0h0.2h0.2h4.1h0.2h0.2l0,0l0,0l-0.2,0.5l0,0c0,0,0,0-0.2,0h-0.2
			h-0.2h-4.1h-0.2C260.3,477.5,260.3,477.3,260.1,477.3L260.1,477.3L260.1,477.3z"/>
		<path fill="#F1F0F0" d="M280.5,476.8L280.5,476.8C280.7,476.8,280.7,476.8,280.5,476.8c0.2,0,0.2,0,0.5,0h0.2h4.1h0.2h0.2
			c0,0,0,0,0.2,0l0,0v0.5l0,0c0,0,0,0-0.2,0h-0.2h-0.2h-4.1H281h-0.2c0,0,0,0-0.2,0l0,0V476.8z"/>
		<path fill="#F1F0F0" d="M273.8,476.8L273.8,476.8L273.8,476.8c0.2,0,0.2,0,0.5,0h0.2h4.1h0.2h0.2c0,0,0,0,0.2,0l0,0l-0.2,0.5l0,0
			c0,0,0,0-0.2,0h-0.2h-0.2h-4.1h-0.2h-0.2c0,0,0,0-0.2,0l0,0L273.8,476.8z"/>
		<path fill="#F1F0F0" d="M267.2,478.7L267.2,478.7h-0.2h-0.2h-0.2h-5.1h-0.2H261l0,0l0,0l0.5-0.9l0,0c0,0,0,0,0.2,0h0.2h0.2h4.8
			h0.2h0.2c0,0,0,0,0.2,0l0,0L267.2,478.7z"/>
		<path fill="#F1F0F0" d="M274.8,478.7L274.8,478.7C274.8,478.7,274.5,478.9,274.8,478.7c-0.2,0-0.5,0-0.5,0h-0.2H269h-0.2h-0.2
			c0,0,0,0-0.2,0l0,0l0.5-0.9l0,0c0,0,0,0,0.2,0h0.2h0.2h4.8h0.2h0.2c0,0,0,0,0.2,0l0,0L274.8,478.7z"/>
		<path fill="#F1F0F0" d="M267.2,476.8L267.2,476.8L267.2,476.8c0.2,0,0.5,0,0.5,0h0.2h4.1h0.2h0.2c0,0,0,0,0.2,0l0,0l-0.2,0.5l0,0
			c0,0,0,0-0.2,0H272h-0.2h-4.1h-0.2h-0.2c0,0,0,0-0.2,0l0,0L267.2,476.8z"/>
		<path fill="#F1F0F0" d="M282.3,478.7L282.3,478.7C282.3,478.9,282.3,478.9,282.3,478.7c-0.2,0-0.2,0-0.5,0h-0.2h-5.1h-0.2h-0.2
			c0,0,0,0-0.2,0l0,0l0.2-0.9l0,0c0,0,0,0,0.2,0h0.2h0.2h4.8h0.2h0.2c0,0,0,0,0.2,0l0,0V478.7z"/>
		<path fill="#F1F0F0" d="M287.2,476.8L287.2,476.8C287.4,476.8,287.4,476.8,287.2,476.8c0.2,0,0.2,0,0.5,0h0.2h4.1h0.2h0.2
			c0,0,0,0,0.2,0l0,0v0.5l0,0c0,0,0,0-0.2,0h-0.2H292h-4.1h-0.2h-0.2c0,0,0,0-0.2,0l0,0V476.8z"/>
		<path fill="#F1F0F0" d="M306.2,477.8C306.2,477.8,306.5,477.8,306.2,477.8c0.2,0,0.5,0,0.5,0h4.8h0.2h0.2c0,0,0,0,0.2,0l0,0
			l0.5,0.9l0,0c0,0,0,0-0.2,0h-0.2H312h-5.1h-0.2h-0.2c0,0,0,0-0.2,0l0,0V477.8L306.2,477.8L306.2,477.8z"/>
		<path fill="#F1F0F0" d="M298.7,477.8L298.7,477.8C298.9,477.8,298.9,477.8,298.7,477.8c0.2,0,0.2,0,0.5,0h0.2h4.8h0.2h0.2
			c0,0,0,0,0.2,0l0,0l0.2,0.9l0,0c0,0,0,0-0.2,0h-0.2h-0.2h-5.1h-0.2h-0.2c0,0,0,0-0.2,0l0,0V477.8z"/>
		<path fill="#F1F0F0" d="M300.7,476.8L300.7,476.8c0.2,0,0.2,0,0.2,0h0.2h4.1h0.2h0.2c0,0,0,0,0.2,0l0,0l0.2,0.5l0,0c0,0,0,0-0.2,0
			h-0.2h-0.2h-4.1h-0.2h-0.2c0,0,0,0-0.2,0l0,0V476.8L300.7,476.8z"/>
		<path fill="#F1F0F0" d="M307.4,476.8C307.4,476.8,307.6,476.8,307.4,476.8c0.2,0,0.2,0,0.2,0h0.2h4.1h0.2h0.2c0,0,0,0,0.2,0l0,0
			l0.2,0.5l0,0c0,0,0,0-0.2,0c0,0,0,0-0.2,0h-0.2h-4.1h-0.2h-0.2c0,0,0,0-0.2,0l0,0V476.8L307.4,476.8z"/>
		<path fill="#F1F0F0" d="M294.1,476.8L294.1,476.8c0.2,0,0.2,0,0.2,0h0.2h4.1h0.2h0.2c0,0,0,0,0.2,0l0,0v0.5l0,0c0,0,0,0-0.2,0
			h-0.2h-0.2h-4.1h-0.2h-0.2c0,0,0,0-0.2,0l0,0L294.1,476.8L294.1,476.8z"/>
		<path fill="#F1F0F0" d="M297.5,478.9L297.5,478.9c-0.2,0-0.2,0-0.2,0H297H292h-0.2h-0.2c0,0,0,0-0.2,0l0,0V478l0,0c0,0,0,0,0.2,0
			h0.2h0.2h4.8h0.2h0.2c0,0,0,0,0.2,0l0,0V478.9L297.5,478.9z"/>
		<path fill="#F1F0F0" d="M226.7,481.7l1.4-0.9c0,0,0,0,0.2,0h0.2h0.2h0.2h11.5h0.2h0.2l0,0l0,0l-1.1,0.9l0,0h-0.2h-0.2h-0.2h-11.7
			h-0.2C227,481.7,227,481.7,226.7,481.7L226.7,481.7L226.7,481.7z"/>
		<path fill="#F1F0F0" d="M233.2,483.5h-0.2h-7.6h-0.2h-0.2l0,0l0,0l1.4-1.1c0,0,0,0,0.2,0h0.2h0.2h0.2h7.4h0.2h0.2l0,0l0,0
			l-1.1,1.1c0,0,0,0-0.2,0h-0.2H233.2z"/>
		<path fill="#F1F0F0" d="M228.8,480.1l1.1-0.9l0,0h0.2h0.2h0.2h9h0.2h0.2l0,0l0,0l-1.1,0.9l0,0c0,0,0,0-0.2,0h-0.2h-0.2H229H228.8
			C229,480.3,229,480.3,228.8,480.1L228.8,480.1L228.8,480.1z"/>
		<path fill="#F1F0F0" d="M357.5,485.3L357.5,485.3c-0.2,0-0.2,0-0.2,0H357h-5.7H351h-0.2h-0.2c0,0,0,0-0.2,0l-1.4-1.1l0,0l0,0
			c0,0,0,0,0.2,0h0.2h5.5h0.2h0.2h0.2c0,0,0,0,0.2,0L357.5,485.3L357.5,485.3z"/>
		<path fill="#F1F0F0" d="M232.9,484l-1.4,1.1c0,0,0,0-0.2,0h-0.2h-0.2h-0.2h-7.8h-0.2h-0.2l0,0l0,0l1.6-1.1c0,0,0,0,0.2,0h0.2h0.2
			h0.2h7.6h0.2C232.9,483.7,232.9,483.7,232.9,484C232.9,483.7,232.9,483.7,232.9,484C233.2,483.7,233.2,484,232.9,484z"/>
		<path fill="#F1F0F0" d="M230.6,478.7l1.1-0.9l0,0c0,0,0,0,0.2,0h0.2h0.2h4.8h0.2h0.2l0,0l0,0l-1.1,0.9l0,0c0,0,0,0-0.2,0h-0.2
			h-0.2h-5.1H230.6C230.9,478.7,230.9,478.7,230.6,478.7L230.6,478.7L230.6,478.7z"/>
		<path fill="#F1F0F0" d="M259.8,477.8C260.1,477.8,260.1,477.8,259.8,477.8c0.2,0,0.2,0,0.2,0l0,0l-0.7,0.9l0,0c0,0,0,0-0.2,0h-0.2
			h-0.2h-5.1h-0.2h-0.2l0,0l0,0l0.7-0.9l0,0c0,0,0,0,0.2,0h0.2h0.2h4.8C259.8,477.8,259.8,477.8,259.8,477.8z"/>
		<path fill="#F1F0F0" d="M248.6,480.3C248.6,480.1,248.6,480.1,248.6,480.3l0.9-0.9l0,0c0,0,0,0,0.2,0h0.2h0.2h5.1h0.2h0.2l0,0l0,0
			l-0.7,0.9l0,0c0,0,0,0-0.2,0h-0.2h-0.2h-5.1H249C248.8,480.3,248.6,480.3,248.6,480.3L248.6,480.3z"/>
		<path fill="#F1F0F0" d="M300.9,485.3L300.9,485.3c-0.2,0-0.2,0-0.5,0h-0.2h-40.4h-0.2h-0.2c0,0,0,0-0.2,0l0,0l0.7-1.1l0,0
			c0,0,0,0,0.2,0h0.2h0.2h39.3h0.2h0.2h0.2l0,0L300.9,485.3C300.9,485.1,300.9,485.3,300.9,485.3z"/>
		<path fill="#F1F0F0" d="M240.8,480.3L240.8,480.3C240.5,480.1,240.5,480.1,240.8,480.3l0.9-1.1l0,0c0,0,0,0,0.2,0h0.2h0.2h5.1h0.2
			h0.2l0,0l0,0l-0.9,0.9l0,0c0,0,0,0-0.2,0h-0.2h-0.2h-5.1C241,480.3,241,480.3,240.8,480.3L240.8,480.3z"/>
		<path fill="#F1F0F0" d="M232.5,477.3l0.7-0.5l0,0c0,0,0,0,0.2,0h0.2h0.2h4.8h0.2h0.2l0,0l0,0l-0.5,0.5l0,0c0,0,0,0-0.2,0h-0.2H238
			h-4.8h-0.2C232.7,477.3,232.7,477.3,232.5,477.3L232.5,477.3L232.5,477.3z"/>
		<path fill="#F1F0F0" d="M238.2,478.7l0.9-0.9l0,0c0,0,0,0,0.2,0h0.2h0.2h4.8h0.2h0.2l0,0l0,0l-0.9,0.9l0,0c0,0,0,0-0.2,0h-0.2
			h-0.2h-5.1H238.2C238.5,478.7,238.5,478.7,238.2,478.7L238.2,478.7L238.2,478.7z"/>
		<path fill="#F1F0F0" d="M239.6,477.3l0.5-0.5l0,0c0,0,0,0,0.2,0h0.2h0.2h4.1h0.2h0.2l0,0l0,0l-0.5,0.5l0,0c0,0,0,0-0.2,0h-0.2
			h-0.2h-4.1h-0.2C239.8,477.3,239.8,477.3,239.6,477.3L239.6,477.3L239.6,477.3z"/>
		<path fill="#F1F0F0" d="M253.2,477.3l0.5-0.5l0,0c0,0,0,0,0.2,0h0.2h0.2h4.1h0.2h0.2l0,0l0,0l-0.2,0.5l0,0c0,0,0,0-0.2,0h-0.2H258
			h-4.1h-0.2C253.4,477.3,253.4,477.3,253.2,477.3C253.4,477.3,253.2,477.3,253.2,477.3L253.2,477.3z"/>
		<path fill="#F1F0F0" d="M318.9,483.5L318.9,483.5l-0.7-1.1l0,0c0,0,0,0,0.2,0h0.2h0.2h5.3h0.2h0.2h0.2l0,0l0.7,1.1l0,0
			c0,0,0,0-0.2,0h-0.2h-0.2h-5.5h-0.2C319.3,483.5,319.1,483.5,318.9,483.5C319.1,483.5,318.9,483.5,318.9,483.5z"/>
		<path fill="#F1F0F0" d="M313.6,480.8L313.6,480.8c0.2,0,0.2,0,0.2,0h0.2h5.1h0.2h0.2h0.2l0,0l0.7,0.9l0,0c0,0,0,0-0.2,0H320h-0.2
			h-5.3h-0.2H314h-0.2l0,0L313.6,480.8L313.6,480.8z"/>
		<path fill="#F1F0F0" d="M335.2,480.8h0.2h0.2h0.2l0,0l0.9,0.9l0,0l0,0c0,0,0,0-0.2,0h-0.2H331h-0.2h-0.2h-0.2l0,0l-0.9-0.9l0,0
			l0,0c0,0,0,0,0.2,0h0.2H335.2z"/>
		<path fill="#F1F0F0" d="M318.2,485.3L318.2,485.3c-0.2,0-0.2,0-0.2,0h-0.2H312h-0.2h-0.2h-0.2l0,0l-0.5-1.1l0,0c0,0,0,0,0.2,0h0.2
			h0.2h5.5h0.2h0.2h0.2l0,0L318.2,485.3L318.2,485.3z"/>
		<path fill="#F1F0F0" d="M321.6,480.8L321.6,480.8c0.2,0,0.2,0,0.2,0h0.2h5.1h0.2h0.2h0.2l0,0l0.9,0.9l0,0c0,0,0,0-0.2,0h-0.2h-0.2
			h-5.3h-0.2h-0.2h-0.2l0,0L321.6,480.8L321.6,480.8z"/>
		<path fill="#F1F0F0" d="M333.1,480.3L333.1,480.3c-0.2,0-0.2,0-0.2,0h-0.2h-5.1h-0.2h-0.2h-0.2l0,0l-0.7-0.9l0,0l0,0
			c0,0,0,0,0.2,0h0.2h5.1h0.2h0.2h0.2l0,0L333.1,480.3L333.1,480.3z"/>
		<path fill="#F1F0F0" d="M338.2,481.9L338.2,481.9l-1.4-1.4h-0.2h-0.2h-0.2h-0.2h-0.5h-0.2H335h-0.2l0,0l-0.9-0.9l0,0l0,0
			c0,0,0,0,0.2,0h0.2h6.9h0.2h0.2h0.2l0,0l2.8,2.5l0,0l0,0c0,0,0,0-0.2,0h-0.2h-5.3h-0.2C338.6,481.9,338.4,481.9,338.2,481.9
			C338.4,481.9,338.2,481.9,338.2,481.9z"/>
		<path fill="#F1F0F0" d="M305.8,480.8L305.8,480.8c0.2,0,0.2,0,0.2,0h0.2h5.1h0.2h0.2h0.2l0,0l0.5,0.9l0,0c0,0,0,0-0.2,0H312h-0.2
			h-5.3h-0.2H306h-0.2l0,0L305.8,480.8C305.5,480.8,305.5,480.8,305.8,480.8z"/>
		<path fill="#F1F0F0" d="M310.4,483.5l-0.5-1.1l0,0c0,0,0,0,0.2,0h0.2h0.2h5.3h0.2h0.2h0.2l0,0l0.7,1.1l0,0c0,0,0,0-0.2,0h-0.2
			h-0.2h-5.5h-0.2h-0.2C310.6,483.5,310.6,483.5,310.4,483.5C310.6,483.5,310.4,483.5,310.4,483.5z"/>
		<path fill="#F1F0F0" d="M302.1,483.5l-0.2-1.1l0,0c0,0,0,0,0.2,0h0.2h0.2h5.3h0.2h0.2h0.2l0,0l0.5,1.1l0,0c0,0,0,0-0.2,0h-0.2
			h-0.2h-5.5h-0.2h-0.2C302.3,483.5,302.3,483.5,302.1,483.5L302.1,483.5z"/>
		<path fill="#F1F0F0" d="M298.7,481.9h-0.2h-0.2c0,0,0,0-0.2,0l0,0l-0.2-0.9l0,0c0,0,0,0,0.2,0h0.2h0.2h5.1h0.2h0.2h0.2l0,0
			l0.2,0.9l0,0c0,0,0,0-0.2,0h-0.2h-0.2H298.7z"/>
		<path fill="#F1F0F0" d="M303.9,480.3h-0.2h-0.2h-0.2l0,0l-0.2-0.9l0,0c0,0,0,0,0.2,0h0.2h0.2h5.1h0.2h0.2h0.2l0,0l0.5,0.9l0,0
			c0,0,0,0-0.2,0h-0.2h-0.2H303.9z"/>
		<path fill="#F1F0F0" d="M309.7,485.3C309.4,485.3,309.4,485.3,309.7,485.3c-0.2,0-0.2,0-0.5,0H309h-5.7H303h-0.2h-0.2l0,0
			l-0.2-1.1l0,0c0,0,0,0,0.2,0h0.2h0.2h5.5h0.2h0.2h0.2l0,0L309.7,485.3L309.7,485.3z"/>
		<path fill="#F1F0F0" d="M331.5,485.3L331.5,485.3c-0.2,0-0.2,0-0.2,0H331h-10.1h-0.2h-0.2h-0.2l0,0l-0.7-1.1l0,0c0,0,0,0,0.2,0
			h0.2h0.2h9.9h0.2h0.2h0.2l0,0L331.5,485.3L331.5,485.3z"/>
		<path fill="#F1F0F0" d="M348.7,485.3L348.7,485.3c-0.2,0-0.2,0-0.2,0h-0.2h-5.7h-0.2h-0.2h-0.2c0,0,0,0-0.2,0l-1.1-1.1l0,0l0,0
			h0.2h0.2h5.5h0.2h0.2h0.2c0,0,0,0,0.2,0L348.7,485.3L348.7,485.3z"/>
		<path fill="#F1F0F0" d="M326.4,482.4L326.4,482.4c0.2,0,0.2,0,0.2,0h0.2h9.6h0.2h0.2h0.2l0,0l1.1,1.1l0,0l0,0h-0.2h-0.2h-9.9h-0.2
			h-0.2h-0.2l0,0L326.4,482.4L326.4,482.4z"/>
		<path fill="#F1F0F0" d="M340.7,477.1C340.7,476.8,340.7,476.8,340.7,477.1c0.2,0,0.2,0,0.2,0h0.2h4.8h0.2h0.2h0.2l0,0l0.7,0.5l0,0
			l0,0c0,0,0,0-0.2,0h-0.2h-4.8h-0.2h-0.2h-0.2l0,0L340.7,477.1L340.7,477.1z"/>
		<path fill="#F1F0F0" d="M326.9,478C327.1,478,327.1,478,326.9,478l0.9,0.9l0,0l0,0c0,0,0,0-0.2,0h-0.2h-5.1h-0.2h-0.2h-0.2l0,0
			l-0.7-0.9l0,0l0,0c0,0,0,0,0.2,0h0.2h4.8h0.2C326.7,477.8,326.7,477.8,326.9,478C326.9,477.8,326.9,478,326.9,478z"/>
		<path fill="#F1F0F0" d="M327.6,476.8L327.6,476.8c0.2,0,0.2,0,0.2,0h0.2h4.1h0.2h0.2h0.2l0,0l0.5,0.5l0,0l0,0c0,0,0,0-0.2,0h-0.2
			h-4.1h-0.2h-0.2h-0.2l0,0L327.6,476.8C327.6,477.1,327.6,477.1,327.6,476.8z"/>
		<path fill="#F1F0F0" d="M319.8,480.5h-0.2h-0.2h-0.2l0,0l-0.7-0.9l0,0c0,0,0,0,0.2,0c0,0,0,0,0.2,0h0.2h5.1h0.2h0.2h0.2l0,0
			l0.7,0.9l0,0l0,0h-0.2h-0.2H319.8z"/>
		<path fill="#F1F0F0" d="M320.9,476.8L320.9,476.8c0.2,0,0.2,0,0.2,0h0.2h4.1h0.2h0.2h0.2l0,0l0.5,0.5l0,0l0,0c0,0,0,0-0.2,0h-0.2
			h-4.1h-0.2h-0.2h-0.2l0,0L320.9,476.8L320.9,476.8z"/>
		<path fill="#F1F0F0" d="M347.4,477.8h0.2h0.2l0,0l1.1,0.9l0,0l0,0c0,0,0,0-0.2,0h-0.2h-5.1h-0.2H343h-0.2l0,0l-1.1-0.9l0,0l0,0
			c0,0,0,0,0.2,0h0.2h4.8C347.4,477.8,347.4,477.8,347.4,477.8z"/>
		<path fill="#F1F0F0" d="M311.7,480.3h-0.2h-0.2h-0.2l0,0l-0.5-0.9l0,0c0,0,0,0,0.2,0h0.2h0.2h5.1h0.2h0.2h0.2l0,0l0.5,0.9l0,0
			c0,0,0,0-0.2,0H317h-0.2H311.7z"/>
		<path fill="#F1F0F0" d="M340,483.5L340,483.5l-1.1-1.1l0,0l0,0c0,0,0,0,0.2,0h0.2h5.3h0.2h0.2h0.2c0,0,0,0,0.2,0l1.1,1.1l0,0l0,0
			c0,0,0,0-0.2,0h-0.2h-5.5h-0.2C340.5,483.7,340.2,483.7,340,483.5C340.2,483.5,340.2,483.5,340,483.5z"/>
		<path fill="#F1F0F0" d="M349.2,479.4h0.2h0.2c0,0,0,0,0.2,0l1.1,0.9l0,0l0,0c0,0,0,0-0.2,0h-0.2h-5.1h-0.2h-0.2h-0.2l0,0l-1.1-0.9
			l0,0l0,0c0,0,0,0,0.2,0h0.2H349.2C349,479.1,349.2,479.1,349.2,479.4z"/>
		<path fill="#F1F0F0" d="M340,485.3L340,485.3c-0.2,0-0.2,0-0.2,0h-0.2h-5.7h-0.2h-0.2h-0.2l0,0l-0.9-1.1l0,0l0,0h0.2h0.2h5.5h0.2
			h0.2h0.2l0,0L340,485.3L340,485.3z"/>
		<path fill="#F1F0F0" d="M349,483.7h-0.2h-0.2c0,0,0,0-0.2,0l-1.4-1.1l0,0l0,0c0,0,0,0,0.2,0h0.2h5.3h0.2h0.2h0.2c0,0,0,0,0.2,0
			l1.4,1.1l0,0l0,0c0,0,0,0-0.2,0h-0.2H349L349,483.7z"/>
		<path fill="#F1F0F0" d="M351,480.8h0.2h0.2c0,0,0,0,0.2,0l1.4,0.9l0,0l0,0c0,0,0,0-0.2,0h-0.2h-5.3h-0.2h-0.2h-0.2l0,0l-1.1-0.9
			l0,0l0,0c0,0,0,0,0.2,0h0.2H351C351,480.8,351,480.8,351,480.8z"/>
	</g>
	
		<path fill="#454545" stroke="#454545" stroke-width="0.5" stroke-linecap="round" stroke-linejoin="round" stroke-miterlimit="10" d="
		M298.2,495.9c0,0.2-0.2,0.5-0.5,0.5h-14c-0.2,0-0.5-0.2-0.5-0.5l0,0c0-0.2,0.2-0.5,0.5-0.5h14C298,495.5,298.2,495.7,298.2,495.9
		L298.2,495.9z"/>
	
		<rect x="238" y="474.1" transform="matrix(-1 -2.095134e-03 2.095134e-03 -1 483.499 950.2909)" fill="#454545" stroke="#454545" stroke-width="0.5" stroke-linecap="round" stroke-linejoin="round" stroke-miterlimit="10" width="8.5" height="1.6"/>
	
		<rect x="334.3" y="474.3" transform="matrix(-1 -2.095134e-03 2.095134e-03 -1 676.0286 950.952)" fill="#454545" stroke="#454545" stroke-width="0.5" stroke-linecap="round" stroke-linejoin="round" stroke-miterlimit="10" width="8.5" height="1.6"/>
	<path fill="none" stroke="#454545" stroke-width="0.5" stroke-linecap="round" stroke-linejoin="round" stroke-miterlimit="10" d="
		M346.2,468.3c0,0.2-0.2,0.5-0.5,0.5l-111.4-0.2c-0.2,0-0.5-0.2-0.5-0.5l0.2-63.2c0-0.2,0.2-0.5,0.5-0.5l111.4,0.2
		c0.2,0,0.5,0.2,0.5,0.5L346.2,468.3z"/>
	<path fill="none" stroke="#454545" stroke-width="0.5" stroke-miterlimit="10" d="M352.6,471.6c0,2.3-1.8,4.4-4.4,4.4L232,475.7
		c-2.3,0-4.4-1.8-4.4-4.4l0.2-71.2c0-2.3,1.8-4.4,4.4-4.4l116.3,0.2c2.3,0,4.4,1.8,4.4,4.4L352.6,471.6z"/>
	<g>
		
			<linearGradient id="SVGID_1_" gradientUnits="userSpaceOnUse" x1="76.3355" y1="407.0821" x2="103.5114" y2="407.0821" gradientTransform="matrix(2.2975 0 0 -2.2975 79.0783 1367.6506)">
			<stop  offset="0" style="stop-color:#36B9E7"/>
			<stop  offset="0.6687" style="stop-color:#55BB69"/>
			<stop  offset="1" style="stop-color:#81C565"/>
		</linearGradient>
		<path fill="url(#SVGID_1_)" d="M315.2,447.7c-0.2,0-0.5,0-0.7-0.2l-16.3-6.7c-0.2,0-0.2-0.2-0.5-0.2L281,427.7l-15.4,6.7
			c-0.7,0.2-1.6,0-2.1-0.7l-9.2-14c-0.5-0.7-0.2-1.6,0.5-2.3c0.7-0.5,1.6-0.2,2.3,0.5l8.5,12.9l15.2-6.4c0.5-0.2,1.1-0.2,1.6,0.2
			l17.2,13.3l16.1,6.7c0.9,0.2,1.1,1.1,0.9,2.1C316.6,447.4,315.9,447.7,315.2,447.7L315.2,447.7z"/>
		
			<line fill="none" stroke="#516874" stroke-width="0.5181" stroke-linecap="round" stroke-linejoin="round" x1="255.5" y1="458.2" x2="324.8" y2="458.2"/>
		
			<line fill="none" stroke="#516874" stroke-width="0.1727" stroke-linecap="round" stroke-linejoin="round" x1="255.5" y1="451.8" x2="324.8" y2="451.8"/>
		
			<line fill="none" stroke="#516874" stroke-width="0.1727" stroke-linecap="round" stroke-linejoin="round" x1="255.5" y1="445.4" x2="324.8" y2="445.4"/>
		
			<line fill="none" stroke="#516874" stroke-width="0.1727" stroke-linecap="round" stroke-linejoin="round" x1="255.5" y1="438.9" x2="324.8" y2="438.9"/>
		
			<line fill="none" stroke="#516874" stroke-width="0.1727" stroke-linecap="round" stroke-linejoin="round" x1="255.5" y1="432.5" x2="324.8" y2="432.5"/>
		
			<line fill="none" stroke="#516874" stroke-width="0.1727" stroke-linecap="round" stroke-linejoin="round" x1="255.5" y1="426.1" x2="324.8" y2="426.1"/>
		
			<line fill="none" stroke="#516874" stroke-width="0.1727" stroke-linecap="round" stroke-linejoin="round" x1="255.5" y1="419.6" x2="324.8" y2="419.6"/>
		
			<line fill="none" stroke="#516874" stroke-width="0.1727" stroke-linecap="round" stroke-linejoin="round" x1="255.5" y1="413.2" x2="324.8" y2="413.2"/>
		
			<line fill="none" stroke="#516874" stroke-width="0.1727" stroke-linecap="round" stroke-linejoin="round" x1="290.1" y1="413.2" x2="290.1" y2="458.2"/>
		
			<line fill="none" stroke="#516874" stroke-width="0.1727" stroke-linecap="round" stroke-linejoin="round" x1="307.4" y1="413.2" x2="307.4" y2="458.2"/>
		
			<line fill="none" stroke="#516874" stroke-width="0.1727" stroke-linecap="round" stroke-linejoin="round" x1="324.8" y1="413.2" x2="324.8" y2="458.2"/>
		<circle fill="#516874" cx="290.1" cy="461.7" r="1.1"/>
		<circle fill="#516874" cx="307.4" cy="461.7" r="1.1"/>
		<circle fill="#516874" cx="324.8" cy="461.7" r="1.1"/>
	</g>
</g>
<g>
	<path fill="none" stroke="#29B7EB" stroke-width="1.2462" stroke-linecap="round" stroke-linejoin="round" d="M398,207.4
		c3.6,4.4,9,7.2,15,6.9s11.5-3.3,14.8-8.1"/>
	<path fill="none" stroke="#29B7EB" stroke-width="1.2462" stroke-linecap="round" stroke-linejoin="round" d="M392.2,221.9
		c5.1,6.1,12.6,10,20.7,9.5c8.2-0.2,15.8-4.6,20.7-11.2"/>
	<path fill="none" stroke="#29B7EB" stroke-width="1.2462" stroke-linecap="round" stroke-linejoin="round" d="M386.5,236.3
		c6.4,7.8,16.1,12.5,26.5,12.1c10.7-0.5,20.1-5.9,26.2-14.2"/>
	<path fill="none" stroke="#29B7EB" stroke-width="1.2462" stroke-linecap="round" stroke-linejoin="round" d="M380.9,250.7
		c8,9.5,19.4,15.4,32,14.9c12.9-0.3,24.4-7.2,32.1-17.3"/>
	<path fill="none" stroke="#29B7EB" stroke-width="1.2462" stroke-linecap="round" stroke-linejoin="round" d="M378,265.6
		c8.7,10.5,21.2,16.7,35,16.3c14.2-0.5,26.5-7.6,34.7-18.9"/>
</g>
<g>
	<g>
		<path fill="#223267" d="M373.7,307.8h3.2v-3.2c-1.6-0.2-3.2,0.2-3.2,1.9V307.8z"/>
		<path fill="#223267" d="M369.6,308.9c-3.4,0-5.1,1.2-5.1,4.6v8.3h3.2v-8.3c0-1.6,0.5-1.8,1.8-1.9c0.7,0,1.1,0.2,1.8-0.4
			c0.7-0.4,0.9-1.2,0.9-2.3C371.4,308.9,370.7,308.9,369.6,308.9"/>
		<path fill="#223267" d="M352.7,314.2h4.6c1.8,0,2.3,0.7,2.3,2.3c0,1.8-0.5,2.5-2.3,2.5h-4.6V314.2z M362.8,316.8
			c0-2.8-1.2-3.7-2.8-4.1c1.4-0.5,2.3-1.4,2.3-3.9c0-3.4-1.6-4.6-4.9-4.6h-8.1v17.5h8.5C361,321.8,362.8,320.6,362.8,316.8
			 M352.7,311.6V307h4.1c1.8,0,2.3,0.7,2.3,2.3s-0.5,2.3-2.3,2.3L352.7,311.6L352.7,311.6z"/>
		<path fill="#223267" d="M390.5,307.8h3.2v-3.2c-1.6-0.2-3.2,0.2-3.2,1.9V307.8z"/>
	</g>
	<rect x="390.5" y="309.1" fill="#223267" width="3.2" height="12.9"/>
	<g>
		<path fill="#223267" d="M416.1,308.9c-1.8,0-3.9,0.9-5.1,1.4V304c-1.6-0.2-3.2,0.2-3.2,1.9v15.9h3.2v-9c1.4-0.5,3.2-1.1,4.2-1.1
			c0.9,0,1.4,0.5,1.4,1.4v8.6h3.2v-8.6C419.8,310.3,418.7,308.9,416.1,308.9"/>
	</g>
	<rect x="373.7" y="309.1" fill="#223267" width="3.2" height="12.9"/>
	<g>
		<path fill="#223267" d="M384.1,311.6h2.3c1.8,0,2.3-0.7,2.1-2.5h-4.4v-4.2c-1.6-0.2-3.2,0.2-3.2,1.9v2.3h-2.5v2.5h2.5v5.8
			c0,3.2,1.2,4.6,4.6,4.6c1.1,0,1.9,0,2.6-0.2v-2.5c-0.5,0-1.4,0.2-2.3,0.2c-1.2,0-1.8-0.4-1.8-1.8V311.6z"/>
		<path fill="#223267" d="M398.6,312.6c0-0.9,0.7-1.1,1.4-1.1c1.4,0,2.6,0,3.4,0c1.4,0,2.1-0.7,2.1-2.5c-1.1-0.2-3.2-0.2-5.1-0.2
			c-2.8,0-4.9,1.1-4.9,3.7c0,2.8,1.6,3.5,4.4,3.9c2.6,0.4,3.2,0.5,3.2,1.4c0,1.1-1.2,1.2-2.3,1.2c-1.8,0-3.5-0.2-4.6-0.2l-0.2,2.6
			c1.2,0.2,3,0.2,4.9,0.2c3.4,0,5.5-1.1,5.5-3.7c0-2.6-1.4-3.5-4.2-3.9C399.3,313.7,398.6,313.5,398.6,312.6"/>
		<path fill="#223267" d="M441.3,311.7h-6.7c-0.2,1.9,0.5,2.6,2.1,2.6h1.2v4.4c-0.9,0.2-3,0.4-3.9,0.4c-2.6,0-3.7-1.1-3.7-6.2
			c0-4.9,0.7-6.2,4.9-5.8l2.8,0.2c1.9,0.2,2.6-0.9,2.6-2.5c-1.2-0.2-4.8-0.5-6.2-0.5c-6,0-7.6,1.8-7.6,8.8c0,6.9,1.9,9,7.1,9
			c1.9,0,5.5-0.4,7.4-0.7v-9.7H441.3z"/>
		<path fill="#223267" d="M459.7,312.6c0-0.9,0.7-1.1,1.4-1.1c1.4,0,2.6,0,3.4,0c1.4,0,2.1-0.7,2.1-2.5c-1.1-0.2-3.2-0.2-5.1-0.2
			c-2.8,0-4.9,1.1-4.9,3.7c0,2.8,1.6,3.5,4.4,3.9c2.6,0.4,3.2,0.5,3.2,1.4c0,1.1-1.2,1.2-2.3,1.2c-1.8,0-3.5-0.2-4.6-0.2l-0.2,2.6
			c1.2,0.2,3,0.2,4.9,0.2c3.4,0,5.5-1.1,5.5-3.7c0-2.6-1.4-3.5-4.2-3.9C460.4,313.7,459.7,313.5,459.7,312.6"/>
		<path fill="#223267" d="M451.5,319.5c-0.9,0.2-2.5,0.2-3.9,0.2c-1.2,0-1.4-0.9-1.4-1.6c0-1.2,0.5-1.4,1.9-1.8
			c1.1-0.2,2.1-0.4,3.5-0.4v3.5H451.5z M454.7,313c0-2.6-1.1-4.1-4.4-4.1c-2.1,0-4.8,0.2-6,0.4c0,1.6,0.4,2.5,1.8,2.5
			c0.9,0,2.8-0.2,3.9-0.2c0.9,0,1.4,0.4,1.4,1.4v0.5c-1.4,0-2.8,0.2-3.9,0.4c-2.8,0.4-4.4,1.2-4.4,4.1c0,2.5,1.2,4.1,3.9,4.1
			c2.8,0,6-0.2,7.8-0.4V313z"/>
	</g>
	<g>
		<g>
			<defs>
				<path id="SVGID_2_" d="M457,279.1c0,0-4.4,1.4-6.7,3.5c-1.4,1.2-2.5,2.8-3,4.8c1.6-0.9,3.4-1.4,3.4-1.4l15.7-5.1
					c0,0,0.5,11.8-6.4,17.1c2.1-0.4,4.4-1.2,7.1-2.8c10.4-5.8,9.5-22.4,9.5-22.4L457,279.1z"/>
			</defs>
			<clipPath id="SVGID_3_">
				<use xlink:href="#SVGID_2_"  overflow="visible"/>
			</clipPath>
			
				<linearGradient id="SVGID_4_" gradientUnits="userSpaceOnUse" x1="-142.0566" y1="-156.0712" x2="-141.8997" y2="-156.0712" gradientTransform="matrix(-51.2961 -110.0046 110.0046 -51.2961 10348.7168 -23337.5059)">
				<stop  offset="0" style="stop-color:#209DD8"/>
				<stop  offset="0.4786" style="stop-color:#1F67AA"/>
				<stop  offset="0.8" style="stop-color:#1E4491"/>
				<stop  offset="1" style="stop-color:#322F81"/>
			</linearGradient>
			<polygon clip-path="url(#SVGID_3_)" fill="url(#SVGID_4_)" points="452.8,309.4 437.8,277.1 472.2,261.1 487.2,293.4 			"/>
		</g>
	</g>
	<g>
		<g>
			<defs>
				<path id="SVGID_5_" d="M445.4,288.6c-1.6,1.2-2.5,3.2-2.5,5.3c0,3.9,3.5,7.2,7.8,7.2l0,0c2.1,0,4.8-0.5,8.1-2.5
					c0.4-0.2,0.9-0.5,1.2-0.7c-1.1,0.2-2.1,0.4-3,0.4l0,0c-5.5,0-9.7-4.1-9.7-9c0-0.7,0-1.2,0.2-1.9
					C446.8,287.7,446.1,288.1,445.4,288.6"/>
			</defs>
			<clipPath id="SVGID_6_">
				<use xlink:href="#SVGID_5_"  overflow="visible"/>
			</clipPath>
			
				<linearGradient id="SVGID_7_" gradientUnits="userSpaceOnUse" x1="-159.0937" y1="-152.1802" x2="-158.9367" y2="-152.1802" gradientTransform="matrix(97.7507 56.4363 -56.4363 97.7504 7407.1729 24144.2891)">
				<stop  offset="0" style="stop-color:#DEDD25"/>
				<stop  offset="1" style="stop-color:#09783D"/>
			</linearGradient>
			<polygon clip-path="url(#SVGID_6_)" fill="url(#SVGID_7_)" points="447.1,279.8 466,290.7 455.8,308.6 436.9,297.6 			"/>
		</g>
	</g>
	<polygon fill="#1BAFE5" points="350.4,335.7 354.1,335.7 354.1,336.6 349.3,336.6 349.3,328.1 350.4,328.1 	"/>
	<g>
		<path fill="#1BAFE5" d="M357.3,331.3c-0.9,0-1.4,0.5-1.4,1.4v1.9c0,0.9,0.5,1.4,1.4,1.4c0.9,0,1.4-0.5,1.4-1.4v-1.9
			C358.7,331.7,358.3,331.3,357.3,331.3 M357.3,336.8c-1.8,0-2.5-1.1-2.5-2.3v-1.8c0-1.2,0.7-2.3,2.5-2.3s2.5,1.1,2.5,2.3v1.8
			C359.8,335.7,359.1,336.8,357.3,336.8"/>
		<path fill="#1BAFE5" d="M363.3,331.3c-0.9,0-1.4,0.5-1.4,1.4v1.9c0,0.9,0.5,1.4,1.4,1.4c0.9,0,1.4-0.5,1.4-1.4v-1.9
			C364.7,331.7,364.3,331.3,363.3,331.3 M363.3,336.8c-1.8,0-2.5-1.1-2.5-2.3v-1.8c0-1.2,0.7-2.3,2.5-2.3s2.5,1.1,2.5,2.3v1.8
			C365.8,335.7,365.1,336.8,363.3,336.8"/>
	</g>
	<path fill="#1BAFE5" d="M371.8,330.4l-2.3,3l2.3,3.2h-1.2l-2.3-3.2l2.1-3H371.8z M367,336.6V328l1.1-0.2v8.8H367z"/>
	<path fill="#1BAFE5" d="M373,330.4h1.1v6.2H373V330.4z M373,328h1.1v1.6H373V328z"/>
	<g>
		<path fill="#1BAFE5" d="M379.3,336.6v-4.8c0-0.4-0.2-0.5-0.5-0.5c-0.5,0-1.4,0.4-2.1,0.7v4.8h-1.1v-6.2h0.9l0.2,0.5
			c0.7-0.4,1.8-0.7,2.5-0.7c1.1,0,1.4,0.7,1.4,1.6v4.8h-1.2V336.6z"/>
		<path fill="#1BAFE5" d="M385.3,331.3c-0.4,0-0.9-0.2-1.2-0.2c-1.2,0-1.4,0.5-1.4,1.4v2.1c0,0.7,0.4,0.9,1.1,0.9
			c0.5,0,1.2-0.4,1.8-0.5v-3.7H385.3z M381.6,332.7c0-1.4,0.5-2.3,2.6-2.3c0.5,0,1.4,0,2.3,0.2v6.5c0,1.2-0.7,2.1-2.5,2.1
			c-0.7,0-1.6-0.2-2.1-0.4l0.2-0.9c0.7,0.2,1.4,0.4,1.9,0.4c1.1,0,1.4-0.4,1.4-1.2v-1.1c-0.4,0.2-1.2,0.4-1.9,0.4
			c-1.2,0-1.8-0.7-1.8-1.9v-1.8H381.6z"/>
		<path fill="#1BAFE5" d="M393.6,334.1h-1.6c-0.7,0-0.9,0.2-0.9,0.9c0,0.7,0.2,0.9,0.9,0.9c0.5,0,1.1-0.2,1.6-0.5V334.1z
			 M394.7,336.6h-0.9v-0.5c-0.5,0.4-1.2,0.5-1.9,0.5c-1.2,0-1.6-0.7-1.6-1.8c0-1.2,0.7-1.8,1.9-1.8h1.6v-0.9c0-0.7-0.4-1.1-1.4-1.1
			c-0.5,0-1.4,0.2-1.9,0.2l-0.2-0.9c0.5-0.2,1.4-0.4,2.1-0.4c1.8,0,2.3,0.7,2.3,1.9L394.7,336.6L394.7,336.6z"/>
		<path fill="#1BAFE5" d="M403.4,335.7c-0.4,0.2-0.7,0.2-1.1,0.2c-0.5,0-0.7-0.2-0.7-0.7v-3.9h1.6l0.2-0.9h-1.8v-1.8l-1.1,0.2v1.6
			h-1.1h-0.2h-1.6v-1.1c0-0.7,0.2-0.9,0.9-0.9c0.4,0,0.7,0,1.1,0.2l0.2-0.9c-0.4-0.2-0.9-0.2-1.2-0.2c-1.1,0-1.8,0.5-1.8,1.6v1.1
			h-1.1v0.9h1.1v5.3h1.1v-5.3h1.6l0,0h1.1v4.1c0,1.1,0.5,1.4,1.6,1.4c0.5,0,0.9-0.2,1.2-0.2V335.7z"/>
		<path fill="#1BAFE5" d="M405.5,333.1h2.6v-0.5c0-0.9-0.4-1.4-1.2-1.4c-1.1,0-1.4,0.5-1.4,1.4V333.1z M406.9,335.9
			c0.5,0,1.2-0.2,1.9-0.4l0.2,0.9c-0.5,0.2-1.4,0.4-2.1,0.4c-1.8,0-2.5-0.9-2.5-2.3v-1.9c0-1.2,0.5-2.3,2.5-2.3
			c1.8,0,2.3,1.1,2.3,2.3v1.2h-3.7v0.5C405.5,335.6,405.6,335.9,406.9,335.9"/>
		<path fill="#1BAFE5" d="M413.2,331.3c-0.5,0.4-1.2,0.7-1.8,1.1v4.2h-1.1v-6.2h0.9v0.9c0.5-0.4,1.1-0.7,1.8-1.1L413.2,331.3z"/>
	</g>
	<polygon fill="#1BAFE5" points="418.5,336.6 418,336.6 416.1,330.4 417.1,330.4 418.9,335.9 420.5,330.4 421.5,330.4 419.6,336.6 
		418.7,339.3 417.6,339.3 	"/>
	<g>
		<path fill="#1BAFE5" d="M424.5,331.3c-0.9,0-1.4,0.5-1.4,1.4v1.9c0,0.9,0.5,1.4,1.4,1.4c0.9,0,1.4-0.5,1.4-1.4v-1.9
			C426.1,331.7,425.6,331.3,424.5,331.3 M424.5,336.8c-1.8,0-2.5-1.1-2.5-2.3v-1.8c0-1.2,0.7-2.3,2.5-2.3s2.5,1.1,2.5,2.3v1.8
			C427.2,335.7,426.5,336.8,424.5,336.8"/>
		<path fill="#1BAFE5" d="M429.3,330.4v4.8c0,0.4,0.2,0.5,0.5,0.5c0.5,0,1.4-0.4,2.1-0.7v-4.8h1.1v6.2h-0.9l-0.2-0.5
			c-0.7,0.4-1.8,0.7-2.5,0.7c-1.1,0-1.4-0.7-1.4-1.6v-4.8h1.2V330.4z"/>
		<path fill="#1BAFE5" d="M437.4,331.3c-0.5,0.4-1.2,0.7-1.8,1.1v4.2h-1.1v-6.2h0.9v0.9c0.5-0.4,1.1-0.7,1.8-1.1L437.4,331.3z"/>
	</g>
	<polygon fill="#1BAFE5" points="445.7,336.6 444.3,331.5 442.7,336.6 441.5,336.6 440.1,330.4 441.1,330.4 442.2,335.6 
		443.6,330.4 445,330.4 446.4,335.6 447.5,330.4 448.5,330.4 447.1,336.6 	"/>
	<g>
		<path fill="#1BAFE5" d="M451.7,331.3c-0.9,0-1.4,0.5-1.4,1.4v1.9c0,0.9,0.5,1.4,1.4,1.4c0.9,0,1.4-0.5,1.4-1.4v-1.9
			C453.1,331.7,452.6,331.3,451.7,331.3 M451.7,336.8c-1.8,0-2.5-1.1-2.5-2.3v-1.8c0-1.2,0.7-2.3,2.5-2.3s2.5,1.1,2.5,2.3v1.8
			C454.2,335.7,453.5,336.8,451.7,336.8"/>
		<path fill="#1BAFE5" d="M458.2,331.3c-0.5,0.4-1.2,0.7-1.8,1.1v4.2h-1.1v-6.2h0.9v0.9c0.5-0.4,1.1-0.7,1.8-1.1L458.2,331.3z"/>
	</g>
	<polygon fill="#1BAFE5" points="459.3,336.6 459.3,328 460.4,327.8 460.4,336.6 	"/>
	<g>
		<path fill="#1BAFE5" d="M465.3,331.5c-0.5-0.2-1.2-0.2-1.8-0.2c-0.7,0-1.1,0.4-1.1,1.1v2.5c0,0.7,0.2,0.9,0.9,0.9
			c0.5,0,1.2-0.4,1.8-0.7v-3.5H465.3z M461.6,332.4c0-1.2,0.5-1.9,1.9-1.9c0.5,0,1.2,0.2,1.8,0.2V328l1.1-0.2v8.8h-0.9l-0.2-0.5
			c-0.5,0.4-1.2,0.7-2.1,0.7c-1.2,0-1.8-0.7-1.8-1.9v-2.5H461.6z"/>
	</g>
</g>
<g>
	<g>
		<circle fill="none" stroke="#27B7EA" stroke-width="0.25" cx="405.5" cy="59.4" r="36.5"/>
		<circle fill="none" stroke="#27B7EA" stroke-width="0.4375" cx="405.5" cy="59.4" r="31"/>
		<circle fill="none" stroke="#27B7EA" stroke-width="0.625" cx="405.5" cy="59.4" r="25.3"/>
		<circle fill="none" stroke="#27B7EA" stroke-width="0.8125" cx="405.5" cy="59.4" r="19.8"/>
		<circle fill="none" stroke="#27B7EA" cx="405.5" cy="59.4" r="14.2"/>
	</g>
	<g>
		<g>
			<path fill="#F1F0F0" d="M405.5,139.1c0,3.2-2.8,6-6,6h-73.1c-3.2,0-6-2.8-6-6V58.5c0-3.2,2.8-6,6-6h73.1c3.2,0,6,2.8,6,6V139.1
				L405.5,139.1z"/>
			<path fill="none" stroke="#454545" stroke-width="0.9167" d="M405.5,139.1c0,3.2-2.8,6-6,6h-73.1c-3.2,0-6-2.8-6-6V58.5
				c0-3.2,2.8-6,6-6h73.1c3.2,0,6,2.8,6,6V139.1L405.5,139.1z"/>
		</g>
		<path fill="#454545" stroke="#454545" stroke-width="0.4583" d="M407.4,114.1c0,0.9-0.7,1.8-1.8,1.8h-85c-0.9,0-1.8-0.7-1.8-1.8
			l0,0c0-0.9,0.7-1.8,1.8-1.8h85C406.7,112.5,407.4,113.2,407.4,114.1L407.4,114.1z"/>
		<g>
			<path fill="#F1F0F0" stroke="#516874" stroke-width="0.4583" d="M391.1,89.9c0,2.5-2.1,4.6-4.6,4.6h-46.6c-2.5,0-4.6-2.1-4.6-4.6
				V72.5c0-2.5,2.1-4.6,4.6-4.6h46.6c2.5,0,4.6,2.1,4.6,4.6V89.9z"/>
			<path fill="#F1F0F0" stroke="#516874" stroke-width="0.2292" d="M388.1,89.9c0,0.9-0.7,1.6-1.6,1.6h-46.6c-0.9,0-1.6-0.7-1.6-1.6
				V72.5c0-0.9,0.7-1.6,1.6-1.6h46.6c0.9,0,1.6,0.7,1.6,1.6V89.9z"/>
		</g>
		
			<linearGradient id="SVGID_8_" gradientUnits="userSpaceOnUse" x1="123.647" y1="546.6021" x2="123.647" y2="548.8423" gradientTransform="matrix(2.2975 0 0 -2.2975 79.0783 1367.6506)">
			<stop  offset="0" style="stop-color:#FFFFFF"/>
			<stop  offset="1" style="stop-color:#151410"/>
		</linearGradient>
		<rect x="321.7" y="106.7" fill="url(#SVGID_8_)" width="82.9" height="5.1"/>
		<rect x="342.6" y="78" fill="#454545" stroke="#454545" stroke-width="0.2292" width="8.3" height="6.4"/>
		<circle fill="#F1F0F0" cx="346.5" cy="81.2" r="1.6"/>
		<rect x="350.6" y="78" fill="#454545" stroke="#454545" stroke-width="0.2292" width="8.3" height="6.4"/>
		<circle fill="#F1F0F0" cx="354.8" cy="81.2" r="1.6"/>
		<rect x="358.9" y="78" fill="#454545" stroke="#454545" stroke-width="0.2292" width="8.3" height="6.4"/>
		<circle fill="#F1F0F0" cx="363" cy="81.2" r="1.6"/>
		<rect x="367.2" y="78" fill="#454545" stroke="#454545" stroke-width="0.2292" width="8.3" height="6.4"/>
		<circle fill="#F1F0F0" cx="371.3" cy="81.2" r="1.6"/>
		<rect x="375.4" y="78" fill="#29B7EB" width="8.3" height="6.4"/>
		<path fill="#F1F0F0" d="M379.6,79.4c0.9,0,1.6-0.5,1.6-1.1H378C378,78.9,378.7,79.4,379.6,79.4z"/>
		<path fill="#F1F0F0" d="M379.6,83.1c-0.9,0-1.6,0.5-1.6,1.1h3.2C381.2,83.5,380.5,83.1,379.6,83.1z"/>
		<rect x="350.6" y="126.5" fill="#454545" stroke="#454545" stroke-width="0.4583" width="24.8" height="7.1"/>
	</g>
	<g>
		<g>
			<polyline fill="#506873" points="496.7,101.4 496.3,101.4 387.2,101.4 			"/>
		</g>
		<path fill="#F1F0F0" d="M496.7,164.8c6.9,0,7.6-8.7,8.3-13.6c1.4-8.3,2.1-16.5,2.1-24.8c0-8-0.7-16.1-2.1-24.1
			c-0.9-5.3-1.1-14.5-8.5-14.5h-0.5H387.2c-7.4,0-7.6,9.2-8.5,14.5c-1.1,8-2.1,16.1-2.1,24.1c0,8.3,0.7,16.8,2.1,24.8
			c0.9,4.8,1.6,13.6,8.3,13.6c0.5,0,109.1,0,109.1,0H496.7z"/>
		<path fill="none" stroke="#454545" d="M496.7,164.8c6.9,0,7.6-8.7,8.3-13.6c1.4-8.3,2.1-16.5,2.1-24.8c0-8-0.7-16.1-2.1-24.1
			c-0.9-5.3-1.1-14.5-8.5-14.5h-0.5H387.2c-7.4,0-7.6,9.2-8.5,14.5c-1.1,8-2.1,16.1-2.1,24.1c0,8.3,0.7,16.8,2.1,24.8
			c0.9,4.8,1.6,13.6,8.3,13.6c0.5,0,109.1,0,109.1,0H496.7z"/>
		<g>
			<circle fill="#506873" cx="435.6" cy="95.5" r="1.8"/>
			<circle fill="#506873" cx="439.1" cy="93.9" r="1.4"/>
			<circle fill="#506873" cx="442.1" cy="92.7" r="1.1"/>
			<circle fill="#506873" cx="444.6" cy="92" r="0.9"/>
			<circle fill="#506873" cx="447.1" cy="92" r="0.7"/>
			<circle fill="#506873" cx="449" cy="92.7" r="0.7"/>
		</g>
		<g>
			<g>
				<rect x="398.4" y="100.3" fill="#29B7EB" width="86.6" height="51.5"/>
				<rect x="398.4" y="100.3" fill="none" stroke="#506873" stroke-width="0.5" width="86.6" height="51.5"/>
			</g>
		</g>
		<g>
			<path fill="none" stroke="#FFFFFF" stroke-width="0.4" d="M442.1,142.8c0,0-1.1,0-2.8,0l-7.8-0.2c-1.4,0-2.8-1.4-3-2.8
				c0,0-0.7-6.7-0.7-9.9s0.7-9.9,0.7-9.9c0.2-1.4,1.4-2.8,3-2.8l7.8-0.2c1.4,0,2.8,0,2.8,0s1.1,0,2.8,0l7.8,0.2c1.4,0,2.8,1.4,3,2.8
				c0,0,0.7,6.9,0.7,9.9c0,3.2-0.7,9.9-0.7,9.9c-0.2,1.4-1.4,2.8-3,2.8l-7.8,0.2C443.2,142.8,442.1,142.8,442.1,142.8z"/>
		</g>
		<g>
			<path fill="none" stroke="#FFFFFF" stroke-width="0.4" d="M413.3,140.3c0,0-0.9,0-2.1,0h-6.4c-1.1,0-2.3-0.9-2.3-2.1
				c0,0-0.5-5.5-0.5-7.8c0-2.5,0.5-7.8,0.5-7.8c0.2-1.1,1.1-2.1,2.3-2.3h6.4c1.1,0,2.1,0,2.1,0s0.9,0,2.1,0h6.4
				c1.1,0,2.3,0.9,2.3,2.3c0,0,0.5,5.5,0.5,7.8c0,2.5-0.5,7.8-0.5,7.8c-0.2,1.1-1.1,2.1-2.3,2.1h-6.4
				C414.3,140,413.3,140.3,413.3,140.3z"/>
		</g>
		<g>
			<path fill="none" stroke="#FFFFFF" stroke-width="0.4" d="M470.8,140.3c0,0-0.9,0-2.1,0h-6.4c-1.1,0-2.3-0.9-2.3-2.1
				c0,0-0.5-5.5-0.5-7.8c0-2.5,0.5-7.8,0.5-7.8c0.2-1.1,1.1-2.1,2.3-2.3h6.4c1.1,0,2.1,0,2.1,0s0.9,0,2.1,0h6.4
				c1.1,0,2.3,0.9,2.3,2.3c0,0,0.5,5.5,0.5,7.8c0,2.5-0.5,7.8-0.5,7.8c-0.2,1.1-1.1,2.1-2.3,2.1h-6.4
				C471.7,140,470.8,140.3,470.8,140.3z"/>
		</g>
		<g>
			<path fill="#F1F0F0" d="M433.6,125.8c2.1,0,2.5,2.1,2.5,3.7c0,1.6-0.5,3.7-2.5,3.7s-2.5-2.3-2.5-3.7
				C431,128.1,431.5,125.8,433.6,125.8z M433.6,132.5c1.4,0,1.6-1.8,1.6-2.8s-0.2-2.8-1.6-2.8c-1.4,0-1.6,1.8-1.6,2.8
				C432,130.6,432.2,132.5,433.6,132.5z"/>
			<path fill="#F1F0F0" d="M436.3,132.7c0-0.5,0.2-0.7,0.7-0.7c0.5,0,0.7,0.2,0.7,0.7c0,0.5-0.2,0.7-0.7,0.7
				C436.5,133.4,436.3,132.9,436.3,132.7z"/>
			<path fill="#F1F0F0" d="M440.5,125.8c2.1,0,2.5,2.1,2.5,3.7c0,1.6-0.5,3.7-2.5,3.7s-2.5-2.3-2.5-3.7
				C437.9,128.1,438.4,125.8,440.5,125.8z M440.5,132.5c1.4,0,1.6-1.8,1.6-2.8s-0.2-2.8-1.6-2.8c-1.4,0-1.6,1.8-1.6,2.8
				C438.8,130.6,439.1,132.5,440.5,132.5z"/>
			<path fill="#F1F0F0" d="M443.7,132.2l3-2.8c0.5-0.5,0.7-0.9,0.7-1.4c0-0.7-0.5-1.1-1.1-1.1c-0.7,0-1.1,0.5-1.4,1.1h-1.1
				c0.2-1.4,1.1-1.8,2.3-1.8s2.3,0.7,2.3,2.1c0,0.9-0.7,1.6-1.1,2.3l-2.3,2.3h3.7v0.9h-4.8L443.7,132.2L443.7,132.2z"/>
			<path fill="#F1F0F0" d="M451,127.2l-1.4,1.1l-0.5-0.7l2.1-1.6h0.9v7.1h-0.9v-6H451z"/>
		</g>
		<g>
			<path fill="#F1F0F0" d="M465.7,126.5c1.6,0,2.1,1.8,2.1,3c0,1.1-0.5,3-2.1,3c-1.6,0-2.1-1.8-2.1-3
				C463.9,128.3,464.1,126.5,465.7,126.5z M465.7,132c1.1,0,1.1-1.6,1.1-2.3c0-0.9-0.2-2.3-1.1-2.3c-1.1,0-1.1,1.6-1.1,2.3
				S464.8,132,465.7,132z"/>
			<path fill="#F1F0F0" d="M468.7,132c0-0.2,0.2-0.5,0.5-0.5c0.2,0,0.5,0.2,0.5,0.5c0,0.2-0.2,0.5-0.5,0.5
				C468.9,132.5,468.7,132.2,468.7,132z"/>
			<path fill="#F1F0F0" d="M472.6,126.5c1.6,0,2.1,1.8,2.1,3c0,1.1-0.5,3-2.1,3s-2.1-1.8-2.1-3C470.6,128.3,471,126.5,472.6,126.5z
				 M472.6,132c1.1,0,1.1-1.6,1.1-2.3c0-0.9-0.2-2.3-1.1-2.3c-1.1,0-1.1,1.6-1.1,2.3S471.5,132,472.6,132z"/>
			<path fill="#F1F0F0" d="M477,127.6l-1.1,0.9l-0.5-0.5l1.6-1.4h0.7v5.7H477V127.6z"/>
		</g>
		<g>
			<path fill="#F1F0F0" d="M406,131.8l2.3-2.3c0.2-0.2,0.7-0.7,0.7-1.1c0-0.7-0.5-0.9-0.9-0.9c-0.5,0-0.9,0.5-1.1,0.9H406
				c0.2-1.1,0.9-1.6,1.8-1.6s1.8,0.5,1.8,1.6c0,0.7-0.5,1.4-0.9,1.8l-2.1,1.6h3v0.7h-3.9v-0.7H406z"/>
			<path fill="#F1F0F0" d="M410.8,132c0-0.2,0.2-0.5,0.5-0.5c0.2,0,0.5,0.2,0.5,0.5c0,0.2-0.2,0.5-0.5,0.5
				C411,132.5,410.8,132.2,410.8,132z"/>
			<path fill="#F1F0F0" d="M416.3,127.4H414v1.4c0.2,0,0.7-0.2,0.7-0.2c1.1,0,1.8,0.7,1.8,1.8s-0.9,1.8-2.1,1.8
				c-0.7,0-1.4-0.5-1.8-1.1l0.7-0.2c0.2,0.5,0.5,0.7,1.1,0.7c0.7,0,1.1-0.5,1.1-1.1c0-0.9-0.7-1.4-1.4-1.4c-0.2,0-0.9,0-1.1,0.2v-3
				h3.2L416.3,127.4L416.3,127.4z"/>
			<path fill="#F1F0F0" d="M419.8,130.2L419.8,130.2c-0.2,0-0.5,0.2-0.7,0.2c-0.9,0-1.8-0.5-1.8-1.8c0-1.4,0.9-2.1,2.1-2.1
				s2.1,0.7,2.1,1.8c0,0.7-0.2,1.1-0.7,1.8l-1.4,2.3h-0.9L419.8,130.2z M419.3,127.2c-0.7,0-1.1,0.5-1.1,1.1c0,0.7,0.5,1.1,1.1,1.1
				c0.7,0,1.1-0.5,1.1-1.1C420.5,127.6,420,127.2,419.3,127.2z"/>
		</g>
		<g>
			<path fill="none" stroke="#FFFFFF" stroke-width="0.4" d="M458.1,113.6c-0.2,0.7-0.9,1.1-1.6,1.1c-9.6-1.6-19.5-1.6-29.2,0
				c-0.7,0-1.4-0.5-1.6-1.1c-0.2-1.8-0.7-3.9-0.9-5.7c-0.2-0.7,0.5-1.4,1.1-1.6c10.6-1.6,21.4-1.6,31.9,0c0.7,0.2,1.4,0.9,1.1,1.6
				C458.6,109.7,458.4,111.8,458.1,113.6z"/>
		</g>
		<path fill="#F1F0F0" d="M447.6,112c-0.7,0-1.8,0-2.5-0.2c-5.3-0.2-10.8,0.2-16.1,0.9c-0.7,0-1.4-0.5-1.6-1.1
			c-0.2-0.9-0.2-1.6-0.5-2.5c-0.2-0.7,0.5-1.4,1.1-1.6c5.7-0.9,11.3-1.1,17-1.1c0.7,0,2.1,0,2.8,0.2L447.6,112z"/>
	</g>
</g>
<g>
	<path fill="#454545" d="M352.1,187.3c0.5,0.7,0.9,1.1,1.6,1.6c0.7,0.2,1.4,0.5,2.1,0.5c0.5,0,0.9,0,1.4-0.2
		c0.5-0.2,0.9-0.5,1.1-0.7c0.2-0.2,0.7-0.7,0.7-0.9c0.2-0.5,0.2-0.9,0.2-1.4s-0.2-0.9-0.5-1.4c-0.2-0.5-0.5-0.7-0.9-0.9
		c-0.5-0.2-0.9-0.5-1.4-0.7s-0.9-0.2-1.6-0.5c-0.7-0.2-1.1-0.5-1.6-0.5s-0.9-0.5-1.4-0.9c-0.5-0.5-0.7-0.7-0.9-1.4s-0.5-1.1-0.5-1.8
		s0.2-1.4,0.5-1.8c0.2-0.5,0.7-0.9,1.1-1.4s1.1-0.7,1.6-0.9c0.7-0.2,1.4-0.2,2.1-0.2c0.9,0,1.6,0.2,2.5,0.5c0.7,0.2,1.4,0.9,2.1,1.6
		l-1.4,0.9c-0.5-0.5-0.9-0.9-1.4-1.1c-0.5-0.2-1.1-0.5-1.8-0.5c-0.5,0-0.9,0-1.4,0.2c-0.5,0.2-0.9,0.2-1.1,0.5
		c-0.2,0.2-0.7,0.5-0.7,0.9c-0.2,0.5-0.2,0.9-0.2,1.4c0,0.9,0.2,1.4,0.7,1.8c0.5,0.5,0.9,0.7,1.6,0.9c0.7,0.2,1.4,0.5,2.1,0.7
		c0.7,0.2,1.4,0.5,2.1,0.7s1.1,0.7,1.6,1.4c0.5,0.5,0.7,1.4,0.7,2.3c0,0.7-0.2,1.4-0.5,2.1c-0.2,0.7-0.7,1.1-1.1,1.4
		c-0.5,0.5-0.9,0.7-1.6,0.9c-0.7,0.2-1.1,0.2-1.8,0.2c-1.1,0-2.1-0.2-3-0.5c-0.9-0.5-1.6-0.9-2.3-1.8L352.1,187.3z"/>
	<path fill="#454545" d="M364.1,182.7c0-0.2,0-0.5,0-0.7s0-0.5,0-0.9c0-0.2,0-0.5,0-0.9c0-0.2,0-0.5,0-0.7h1.4c0,0.5,0,0.7,0,1.1
		c0,0.5,0,0.7,0,0.7l0,0c0.2-0.7,0.7-1.1,1.4-1.6c0.7-0.5,1.4-0.7,2.3-0.7c0.7,0,1.4,0.2,1.8,0.5c0.5,0.2,0.9,0.9,1.4,1.8
		c0.2-0.7,0.9-1.4,1.6-1.8c0.7-0.5,1.4-0.5,2.1-0.5c0.9,0,1.6,0.2,2.1,0.5c0.5,0.2,0.9,0.7,1.1,0.9c0.2,0.5,0.5,0.9,0.7,1.4
		c0,0.5,0.2,1.1,0.2,1.6v6.4h-1.4v-6.2c0-0.5,0-0.9-0.2-1.1c0-0.5-0.2-0.7-0.5-1.1c-0.2-0.2-0.5-0.7-0.9-0.7
		c-0.2-0.2-0.7-0.2-1.4-0.2s-1.1,0.2-1.6,0.5c-0.5,0.2-0.7,0.5-0.9,0.9c-0.2,0.5-0.5,0.7-0.5,1.1s-0.2,0.9-0.2,1.1v6h-1.4v-6.4
		c0-0.9-0.2-1.8-0.5-2.3c-0.5-0.7-0.9-0.9-1.6-0.9c-0.5,0-0.9,0-1.4,0.2c-0.5,0.2-0.9,0.5-1.1,0.9c-0.2,0.5-0.7,0.9-0.7,1.4
		c-0.2,0.5-0.2,1.1-0.2,1.8v5.3h-1.6V182.7z"/>
	<path fill="#454545" d="M391.9,185.9c0,0.5,0,0.9,0,1.4c0,0.5,0,0.7,0,1.1c0,0.5,0,0.7,0,0.9c0,0.2,0,0.7,0,0.9h-1.4
		c0-0.5-0.2-1.1-0.2-1.8l0,0c-0.5,0.7-0.9,1.1-1.4,1.6c-0.7,0.2-1.4,0.5-2.3,0.5c-0.5,0-0.9,0-1.4-0.2c-0.5,0-0.9-0.2-1.1-0.5
		c-0.5-0.2-0.7-0.7-0.9-0.9c-0.2-0.2-0.2-0.9-0.2-1.4c0-0.9,0.2-1.4,0.7-1.8c0.5-0.5,0.9-0.9,1.6-1.1c0.7-0.2,1.1-0.5,1.8-0.5
		c0.7,0,1.4,0,1.8,0h1.6v-0.7c0-0.9-0.2-1.6-0.9-2.1c-0.7-0.5-1.4-0.7-2.1-0.7c-1.1,0-2.3,0.5-3.2,1.1l-0.9-0.9
		c0.5-0.5,1.1-0.9,1.8-1.1c0.7-0.2,1.4-0.5,2.1-0.5c1.4,0,2.3,0.2,3,0.9c0.7,0.7,1.1,1.6,1.1,3v2.8H391.9z M389.1,185
		c-0.7,0-1.1,0-1.6,0c-0.5,0-1.1,0.2-1.4,0.5c-0.2,0.2-0.7,0.5-1.1,0.7s-0.5,0.7-0.5,1.1c0,0.2,0,0.7,0.2,0.9
		c0.2,0.2,0.2,0.5,0.5,0.7c0.2,0.2,0.5,0.2,0.7,0.5c0.2,0,0.5,0.2,0.9,0.2c0.7,0,1.4,0,1.8-0.2c0.5-0.2,0.9-0.5,1.1-0.9
		s0.5-0.7,0.7-1.1c0-0.5,0.2-0.9,0.2-1.4V185H389.1z"/>
	<path fill="#454545" d="M395.5,182.7c0-0.2,0-0.5,0-0.7s0-0.5,0-0.9c0-0.2,0-0.5,0-0.9c0-0.2,0-0.5,0-0.7h1.4c0,0.5,0,0.7,0,1.1
		c0,0.5,0,0.7,0,0.7c0.5-0.7,0.9-1.1,1.4-1.6c0.5-0.5,1.1-0.7,2.1-0.7c0.2,0,0.2,0,0.5,0s0.2,0,0.5,0l-0.2,1.4c-0.2,0-0.5,0-0.5,0
		c-0.7,0-1.1,0-1.6,0.2c-0.5,0.2-0.7,0.5-1.1,0.7c-0.2,0.2-0.5,0.7-0.7,1.1c-0.2,0.5-0.2,0.9-0.2,1.4v5.7h-1.4V182.7z"/>
	<path fill="#454545" d="M408.4,181.1h-3v6.9c0,0.5,0.2,0.9,0.5,1.1c0.2,0.2,0.7,0.5,1.1,0.5c0.2,0,0.5,0,0.7,0
		c0.2,0,0.5-0.2,0.7-0.2v1.1c-0.2,0-0.5,0.2-0.9,0.2c-0.2,0-0.7,0.2-0.9,0.2c-0.5,0-0.9,0-1.4-0.2c-0.5-0.2-0.7-0.2-0.9-0.7
		c-0.2-0.2-0.5-0.5-0.5-0.9c0-0.2-0.2-0.7-0.2-1.1v-6.9h-2.3v-1.1h2.3v-3h1.8v3h3V181.1z"/>
	<path fill="#454545" d="M416.9,182.7c0-0.2,0-0.5,0-0.7s0-0.5,0-0.9c0-0.2,0-0.5,0-0.9c0-0.2,0-0.5,0-0.7h1.4c0,0.5,0,0.7,0,1.1
		c0,0.5,0,0.7,0,0.7l0,0c0.2-0.7,0.7-1.1,1.4-1.6s1.4-0.7,2.3-0.7c0.7,0,1.4,0.2,1.8,0.5c0.5,0.2,0.9,0.9,1.4,1.8
		c0.2-0.7,0.9-1.4,1.6-1.8c0.7-0.5,1.4-0.5,2.1-0.5c0.9,0,1.6,0.2,2.1,0.5c0.5,0.2,0.9,0.7,1.1,0.9c0.2,0.5,0.5,0.9,0.7,1.4
		c0,0.5,0.2,1.1,0.2,1.6v6.4h-1.4v-6.2c0-0.5,0-0.9-0.2-1.1c0-0.5-0.2-0.7-0.5-1.1c-0.2-0.2-0.5-0.7-0.9-0.7
		c-0.2-0.2-0.7-0.2-1.4-0.2c-0.7,0-1.1,0.2-1.6,0.5c-0.5,0.2-0.7,0.5-0.9,0.9c-0.2,0.5-0.5,0.7-0.5,1.1s-0.2,0.9-0.2,1.1v6H424v-6.4
		c0-0.9-0.2-1.8-0.5-2.3c-0.5-0.7-0.9-0.9-1.6-0.9c-0.5,0-0.9,0-1.4,0.2c-0.5,0.2-0.9,0.5-1.1,0.9c-0.2,0.5-0.7,0.9-0.7,1.4
		c-0.2,0.5-0.2,1.1-0.2,1.8v5.3h-1.6V182.7z"/>
	<path fill="#454545" d="M445.9,188.4c-0.5,0.9-1.1,1.4-2.1,1.8c-0.7,0.5-1.6,0.5-2.5,0.5s-1.6-0.2-2.3-0.5
		c-0.7-0.2-1.1-0.7-1.6-1.1c-0.5-0.5-0.9-1.1-1.1-1.8s-0.5-1.4-0.5-2.3c0-0.7,0.2-1.6,0.5-2.3s0.7-1.1,1.1-1.8
		c0.5-0.7,1.1-0.9,1.6-1.1c0.7-0.2,1.4-0.5,2.1-0.5c0.9,0,1.6,0.2,2.1,0.5c0.7,0.2,1.1,0.7,1.6,1.1c0.5,0.5,0.7,0.9,0.9,1.6
		c0.2,0.7,0.2,1.1,0.2,1.8v0.9h-9c0,0.2,0,0.7,0.2,1.1c0.2,0.5,0.2,0.9,0.7,1.4c0.2,0.5,0.7,0.7,1.1,1.1c0.5,0.2,1.1,0.5,2.1,0.5
		c0.7,0,1.4-0.2,2.1-0.5c0.7-0.2,1.1-0.7,1.6-1.4L445.9,188.4z M444.7,184.1c0-0.5,0-0.9-0.2-1.4c-0.2-0.5-0.5-0.7-0.7-1.1
		c-0.2-0.2-0.7-0.5-1.1-0.7c-0.5-0.2-0.9-0.2-1.4-0.2c-0.7,0-1.4,0.2-1.8,0.5c-0.5,0.2-0.9,0.7-1.1,1.1c-0.2,0.5-0.5,0.7-0.7,1.1
		c-0.2,0.5-0.2,0.7-0.2,0.7H444.7z"/>
	<path fill="#454545" d="M454.4,181.1h-3v6.9c0,0.5,0.2,0.9,0.5,1.1c0.2,0.2,0.7,0.5,1.1,0.5c0.2,0,0.5,0,0.7,0
		c0.2,0,0.5-0.2,0.7-0.2v1.1c-0.2,0-0.5,0.2-0.9,0.2c-0.2,0-0.7,0.2-0.9,0.2c-0.5,0-0.9,0-1.4-0.2c-0.5-0.2-0.7-0.2-0.9-0.7
		c-0.2-0.2-0.5-0.5-0.5-0.9c0-0.2-0.2-0.7-0.2-1.1v-6.9h-2.3v-1.1h2.3v-3h1.4v3h3v1.1H454.4z"/>
	<path fill="#454545" d="M466.1,188.4c-0.5,0.9-1.1,1.4-2.1,1.8c-0.7,0.5-1.6,0.5-2.5,0.5s-1.6-0.2-2.3-0.5
		c-0.7-0.2-1.1-0.7-1.6-1.1c-0.5-0.5-0.9-1.1-1.1-1.8c-0.2-0.7-0.5-1.4-0.5-2.3c0-0.7,0.2-1.6,0.5-2.3c0.2-0.7,0.7-1.1,1.1-1.8
		c0.5-0.7,1.1-0.9,1.6-1.1c0.7-0.2,1.4-0.5,2.1-0.5c0.9,0,1.6,0.2,2.1,0.5c0.7,0.2,1.1,0.7,1.6,1.1c0.5,0.5,0.7,0.9,0.9,1.6
		c0.2,0.7,0.2,1.1,0.2,1.8v0.9h-9c0,0.2,0,0.7,0.2,1.1c0.2,0.5,0.2,0.9,0.7,1.4c0.2,0.5,0.7,0.7,1.1,1.1c0.5,0.2,1.1,0.5,2.1,0.5
		c0.7,0,1.4-0.2,2.1-0.5c0.7-0.2,1.1-0.7,1.6-1.4L466.1,188.4z M465.2,184.1c0-0.5,0-0.9-0.2-1.4c-0.2-0.5-0.5-0.7-0.7-1.1
		c-0.2-0.2-0.7-0.5-1.1-0.7c-0.5-0.2-0.9-0.2-1.4-0.2c-0.7,0-1.4,0.2-1.8,0.5s-0.9,0.7-1.1,1.1s-0.5,0.7-0.7,1.1
		c-0.2,0.5-0.2,0.7-0.2,0.7H465.2z"/>
	<path fill="#454545" d="M469.5,182.7c0-0.2,0-0.5,0-0.7s0-0.5,0-0.9c0-0.2,0-0.5,0-0.9c0-0.2,0-0.5,0-0.7h1.4c0,0.5,0,0.7,0,1.1
		c0,0.5,0,0.7,0,0.7c0.5-0.7,0.9-1.1,1.4-1.6c0.5-0.5,1.1-0.7,2.1-0.7c0.2,0,0.2,0,0.5,0c0.2,0,0.2,0,0.5,0l-0.2,1.4
		c-0.2,0-0.5,0-0.5,0c-0.7,0-1.1,0-1.6,0.2c-0.5,0.2-0.7,0.5-1.1,0.7c-0.2,0.2-0.5,0.7-0.7,1.1s-0.2,0.9-0.2,1.4v5.7h-1.4V182.7z"/>
</g>
<g>
	<g>
		<path fill="#454545" d="M186.8,530.4c0.5,0.7,0.9,1.1,1.6,1.6c0.7,0.2,1.4,0.5,2.1,0.5c0.5,0,0.9,0,1.4-0.2
			c0.5-0.2,0.9-0.5,1.1-0.7c0.2-0.2,0.7-0.7,0.7-0.9c0.2-0.5,0.2-0.9,0.2-1.4c0-0.5-0.2-0.9-0.5-1.4c-0.2-0.5-0.5-0.7-0.9-0.9
			s-0.9-0.5-1.4-0.7c-0.5-0.2-0.9-0.2-1.6-0.5c-0.7-0.2-1.1-0.5-1.6-0.5s-0.9-0.5-1.4-0.9c-0.5-0.5-0.7-0.7-0.9-1.4
			c-0.2-0.7-0.5-1.1-0.5-1.8s0.2-1.4,0.5-1.8c0.2-0.5,0.7-0.9,1.1-1.4c0.5-0.5,1.1-0.7,1.6-0.9c0.7-0.2,1.4-0.2,2.1-0.2
			c0.9,0,1.6,0.2,2.5,0.5c0.7,0.2,1.4,0.9,2.1,1.6l-1.4,0.9c-0.5-0.5-0.9-0.9-1.4-1.1c-0.5-0.2-1.1-0.5-1.8-0.5
			c-0.5,0-0.9,0-1.4,0.2c-0.5,0.2-0.9,0.2-1.1,0.5c-0.2,0.2-0.7,0.5-0.7,0.9c-0.2,0.5-0.2,0.9-0.2,1.4c0,0.9,0.2,1.4,0.7,1.8
			s0.9,0.7,1.6,0.9c0.7,0.2,1.4,0.5,2.1,0.7c0.7,0.2,1.4,0.5,2.1,0.7c0.7,0.2,1.1,0.7,1.6,1.4c0.5,0.5,0.7,1.4,0.7,2.3
			c0,0.7-0.2,1.4-0.5,2.1c-0.2,0.7-0.7,1.1-1.1,1.4c-0.5,0.5-0.9,0.7-1.6,0.9c-0.7,0.2-1.1,0.2-1.8,0.2c-1.1,0-2.1-0.2-3-0.5
			c-0.9-0.5-1.6-0.9-2.3-1.8L186.8,530.4z"/>
		<path fill="#454545" d="M198.7,525.8c0-0.2,0-0.5,0-0.7c0-0.2,0-0.5,0-0.9c0-0.2,0-0.5,0-0.9c0-0.2,0-0.5,0-0.7h1.4
			c0,0.5,0,0.7,0,1.1s0,0.7,0,0.7l0,0c0.2-0.7,0.7-1.1,1.4-1.6c0.7-0.5,1.4-0.7,2.3-0.7c0.7,0,1.4,0.2,1.8,0.5s0.9,0.9,1.4,1.8
			c0.2-0.7,0.9-1.4,1.6-1.8c0.7-0.5,1.4-0.5,2.1-0.5c0.9,0,1.6,0.2,2.1,0.5c0.5,0.2,0.9,0.7,1.1,0.9c0.2,0.5,0.5,0.9,0.7,1.4
			c0,0.5,0.2,1.1,0.2,1.6v6.4h-1.4v-6.2c0-0.5,0-0.9-0.2-1.1c0-0.5-0.2-0.7-0.5-1.1c-0.2-0.2-0.5-0.7-0.9-0.7
			c-0.2-0.2-0.7-0.2-1.4-0.2s-1.1,0.2-1.6,0.5s-0.7,0.5-0.9,0.9c-0.2,0.5-0.5,0.7-0.5,1.1c0,0.5-0.2,0.9-0.2,1.1v6h-1.4v-6.4
			c0-0.9-0.2-1.8-0.5-2.3c-0.5-0.7-0.9-0.9-1.6-0.9c-0.5,0-0.9,0-1.4,0.2c-0.5,0.2-0.9,0.5-1.1,0.9c-0.2,0.5-0.7,0.9-0.7,1.4
			c-0.2,0.5-0.2,1.1-0.2,1.8v5.3h-1.4v-7.4H198.7z"/>
		<path fill="#454545" d="M226.5,528.8c0,0.5,0,0.9,0,1.4c0,0.5,0,0.7,0,1.1s0,0.7,0,0.9s0,0.7,0,0.9h-1.4c0-0.5-0.2-1.1-0.2-1.8
			l0,0c-0.5,0.7-0.9,1.1-1.4,1.6c-0.7,0.2-1.4,0.5-2.3,0.5c-0.5,0-0.9,0-1.4-0.2c-0.5,0-0.9-0.2-1.1-0.5c-0.5-0.2-0.7-0.7-0.9-0.9
			c-0.2-0.2-0.2-0.9-0.2-1.4c0-0.9,0.2-1.4,0.7-1.8c0.5-0.5,0.9-0.9,1.6-1.1c0.7-0.2,1.1-0.5,1.8-0.5c0.7,0,1.4,0,1.8,0h1.8v-0.7
			c0-0.9-0.2-1.6-0.9-2.1c-0.7-0.5-1.4-0.7-2.1-0.7c-1.1,0-2.3,0.5-3.2,1.1l-0.9-0.9c0.5-0.5,1.1-0.9,1.8-1.1
			c0.7-0.2,1.4-0.5,2.1-0.5c1.4,0,2.3,0.2,3,0.9c0.7,0.7,1.1,1.6,1.1,3v2.8H226.5z M223.8,528.1c-0.7,0-1.1,0-1.6,0
			c-0.5,0-1.1,0.2-1.4,0.5c-0.2,0.2-0.7,0.5-1.1,0.7c-0.5,0.2-0.5,0.7-0.5,1.1c0,0.2,0,0.7,0.2,0.9c0.2,0.2,0.2,0.5,0.5,0.7
			c0.2,0.2,0.5,0.2,0.7,0.5c0.2,0,0.5,0.2,0.9,0.2c0.7,0,1.4,0,1.8-0.2c0.5-0.2,0.9-0.5,1.1-0.9c0.2-0.5,0.5-0.7,0.7-1.1
			c0-0.5,0.2-0.9,0.2-1.4v-0.7h-1.6V528.1z"/>
		<path fill="#454545" d="M230.2,525.8c0-0.2,0-0.5,0-0.7c0-0.2,0-0.5,0-0.9c0-0.2,0-0.5,0-0.9c0-0.2,0-0.5,0-0.7h1.4
			c0,0.5,0,0.7,0,1.1s0,0.7,0,0.7c0.5-0.7,0.9-1.1,1.4-1.6c0.5-0.5,1.1-0.7,2.1-0.7c0.2,0,0.2,0,0.5,0s0.2,0,0.5,0l-0.2,1.4
			c-0.2,0-0.5,0-0.5,0c-0.7,0-1.1,0-1.6,0.2c-0.5,0.2-0.7,0.5-1.1,0.7c-0.2,0.2-0.5,0.7-0.7,1.1c-0.2,0.5-0.2,0.9-0.2,1.4v5.7h-1.4
			C230.2,532.7,230.2,525.8,230.2,525.8z"/>
		<path fill="#454545" d="M243.1,523.9h-3v6.9c0,0.5,0.2,0.9,0.5,1.1c0.2,0.2,0.7,0.5,1.1,0.5c0.2,0,0.5,0,0.7,0
			c0.2,0,0.5-0.2,0.7-0.2v1.1c-0.2,0-0.5,0.2-0.9,0.2c-0.2,0-0.7,0.2-0.9,0.2c-0.5,0-0.9,0-1.4-0.2c-0.5-0.2-0.7-0.2-0.9-0.7
			c-0.2-0.2-0.5-0.5-0.5-0.9c0-0.2-0.2-0.7-0.2-1.1v-6.9h-2.3v-1.1h2.3v-3h1.4v3h3v1.1H243.1z"/>
		<path fill="#454545" d="M252,517.1h9.9v1.4h-8.5v5.7h7.8v1.4h-7.8v6.4h8.7v1.4h-10.3v-16.3H252z"/>
		<path fill="#454545" d="M265.1,525.8c0-0.2,0-0.5,0-0.7c0-0.2,0-0.5,0-0.9c0-0.2,0-0.5,0-0.9c0-0.2,0-0.5,0-0.7h1.4
			c0,0.5,0,0.7,0,1.1s0,0.7,0,0.7l0,0c0.2-0.7,0.7-1.1,1.4-1.6c0.7-0.5,1.4-0.7,2.3-0.7s1.6,0.2,2.1,0.5s0.9,0.7,1.1,0.9
			c0.2,0.5,0.5,0.9,0.7,1.4c0,0.5,0.2,1.1,0.2,1.6v6.4h-1.4v-6.2c0-0.5,0-0.9-0.2-1.1c0-0.5-0.2-0.7-0.5-1.1
			c-0.2-0.2-0.5-0.7-0.9-0.7c-0.2-0.2-0.7-0.2-1.4-0.2c-0.5,0-0.9,0-1.4,0.2c-0.5,0.2-0.9,0.5-1.1,0.9c-0.2,0.5-0.7,0.9-0.7,1.4
			c-0.2,0.5-0.2,1.1-0.2,1.8v5.3h-1.4L265.1,525.8L265.1,525.8z"/>
		<path fill="#454545" d="M287.4,531.3c-0.5,0.9-1.1,1.4-2.1,1.8c-0.7,0.5-1.6,0.5-2.5,0.5s-1.6-0.2-2.3-0.5
			c-0.7-0.2-1.1-0.7-1.6-1.1c-0.5-0.5-0.9-1.1-1.1-1.8c-0.2-0.7-0.5-1.4-0.5-2.3c0-0.7,0.2-1.6,0.5-2.3s0.7-1.1,1.1-1.8
			c0.5-0.7,1.1-0.9,1.6-1.1c0.7-0.2,1.4-0.5,2.1-0.5c0.9,0,1.6,0.2,2.1,0.5c0.7,0.2,1.1,0.7,1.6,1.1c0.5,0.5,0.7,0.9,0.9,1.6
			c0.2,0.7,0.2,1.1,0.2,1.8v0.9h-9c0,0.2,0,0.7,0.2,1.1c0.2,0.5,0.2,0.9,0.7,1.4c0.2,0.5,0.7,0.7,1.1,1.1c0.5,0.2,1.1,0.5,2.1,0.5
			c0.7,0,1.4-0.2,2.1-0.5c0.7-0.2,1.1-0.7,1.6-1.4L287.4,531.3z M286.2,527.2c0-0.5,0-0.9-0.2-1.4c-0.2-0.5-0.5-0.7-0.7-1.1
			c-0.2-0.2-0.7-0.5-1.1-0.7c-0.5-0.2-0.9-0.2-1.4-0.2c-0.7,0-1.4,0.2-1.8,0.5c-0.5,0.2-0.9,0.7-1.1,1.1c-0.2,0.5-0.5,0.7-0.7,1.1
			c-0.2,0.5-0.2,0.7-0.2,0.7H286.2L286.2,527.2z"/>
		<path fill="#454545" d="M290.6,525.8c0-0.2,0-0.5,0-0.7c0-0.2,0-0.5,0-0.9c0-0.2,0-0.5,0-0.9c0-0.2,0-0.5,0-0.7h1.4
			c0,0.5,0,0.7,0,1.1s0,0.7,0,0.7c0.5-0.7,0.9-1.1,1.4-1.6c0.5-0.5,1.1-0.7,2.1-0.7c0.2,0,0.2,0,0.5,0c0.2,0,0.2,0,0.5,0l-0.2,1.4
			c-0.2,0-0.5,0-0.5,0c-0.7,0-1.1,0-1.6,0.2c-0.5,0.2-0.7,0.5-1.1,0.7c-0.2,0.2-0.5,0.7-0.7,1.1c-0.2,0.5-0.2,0.9-0.2,1.4v5.7h-1.4
			V525.8z"/>
		<path fill="#454545" d="M308.5,532.7c0,1.4-0.2,2.3-0.5,3.2c-0.2,0.9-0.9,1.4-1.4,1.8c-0.5,0.5-1.1,0.7-1.8,0.9
			c-0.7,0.2-1.1,0.2-1.8,0.2c-0.7,0-1.1,0-1.6-0.2s-0.9-0.2-1.4-0.5c-0.5-0.2-0.9-0.5-1.1-0.7c-0.5-0.2-0.7-0.7-0.9-0.9l1.1-0.9
			c0.5,0.7,1.1,1.1,1.8,1.6c0.7,0.5,1.6,0.5,2.3,0.5c0.7,0,1.4,0,1.8-0.2c0.5-0.2,0.9-0.5,1.1-0.7c0.2-0.2,0.5-0.7,0.7-0.9
			c0.2-0.5,0.2-0.7,0.5-1.1c0.2-0.5,0.2-0.7,0.2-0.9c0-0.2,0-0.7,0-0.7v-1.4l0,0c-0.5,0.7-0.9,1.1-1.6,1.6c-0.7,0.5-1.4,0.5-2.3,0.5
			c-0.7,0-1.6-0.2-2.3-0.5c-0.7-0.2-1.4-0.7-1.8-1.1s-0.9-1.1-1.1-1.8s-0.5-1.4-0.5-2.1c0-0.7,0.2-1.4,0.5-2.1s0.7-1.1,1.1-1.8
			c0.5-0.5,1.1-0.9,1.8-1.1c0.7-0.2,1.4-0.5,2.3-0.5s1.6,0.2,2.3,0.5c0.7,0.5,1.1,0.9,1.6,1.6l0,0v-2.1h1.4v9.9H308.5z M307.4,527.8
			c0-0.7,0-1.1-0.2-1.6c-0.2-0.5-0.5-0.9-0.9-1.4c-0.5-0.5-0.9-0.7-1.4-0.9c-0.5-0.2-1.1-0.2-1.6-0.2c-0.5,0-1.1,0-1.6,0.2
			c-0.5,0.2-0.9,0.5-1.4,0.9c-0.5,0.5-0.7,0.9-0.9,1.4c-0.2,0.5-0.2,1.1-0.2,1.6c0,0.7,0,1.1,0.2,1.6c0.2,0.5,0.5,0.9,0.9,1.4
			c0.5,0.5,0.9,0.7,1.4,0.9c0.5,0.2,1.1,0.2,1.6,0.2c0.5,0,1.1,0,1.6-0.2c0.5-0.2,0.9-0.5,1.4-0.9c0.5-0.5,0.7-0.9,0.9-1.4
			C307.2,529,307.4,528.5,307.4,527.8z"/>
		<path fill="#454545" d="M315,536.6c-0.2,0.7-0.7,1.1-1.1,1.6c-0.5,0.5-1.1,0.7-1.8,0.7c-0.2,0-0.5,0-0.7,0s-0.5,0-0.7-0.2l0.2-1.4
			c0.2,0,0.5,0.2,0.7,0.2c0.2,0,0.5,0,0.7,0c0.2,0,0.5,0,0.7-0.2c0.2,0,0.5-0.2,0.5-0.5s0.2-0.5,0.5-0.5c0-0.2,0.2-0.5,0.2-0.7
			l0.9-2.5l-4.4-10.6h1.6l3.4,9l3.4-9h1.4L315,536.6z"/>
		<path fill="#454545" d="M329,517.1h4.4c0.2,0,0.5,0,0.9,0s0.7,0,1.1,0.2c0.5,0,0.9,0.2,1.4,0.5c0.5,0.2,0.9,0.5,1.1,0.7
			c0.5,0.2,0.7,0.7,0.9,1.1c0.2,0.5,0.2,1.1,0.2,1.8s-0.2,1.4-0.5,1.8c-0.2,0.5-0.7,0.9-0.9,1.1c-0.5,0.2-0.9,0.5-1.4,0.7
			c-0.5,0.2-0.9,0.2-1.4,0.2l4.8,7.8h-1.8l-4.6-7.8h-2.8v7.8H329L329,517.1L329,517.1z M330.6,524.2h3.2c0.7,0,1.4,0,1.8-0.2
			c0.5-0.2,0.9-0.5,1.1-0.7c0.2-0.2,0.5-0.7,0.5-0.9s0.2-0.7,0.2-0.9c0-0.2,0-0.7-0.2-0.9c0-0.2-0.2-0.7-0.5-0.9
			c-0.2-0.2-0.7-0.5-1.1-0.7c-0.5-0.2-1.1-0.2-1.8-0.2h-3.2V524.2z"/>
		<path fill="#454545" d="M351.5,531.3c-0.5,0.9-1.1,1.4-2.1,1.8c-0.7,0.5-1.6,0.5-2.5,0.5s-1.6-0.2-2.3-0.5
			c-0.7-0.2-1.1-0.7-1.6-1.1c-0.5-0.5-0.9-1.1-1.1-1.8c-0.2-0.7-0.5-1.4-0.5-2.3c0-0.7,0.2-1.6,0.5-2.3c0.2-0.7,0.7-1.1,1.1-1.8
			c0.5-0.7,1.1-0.9,1.6-1.1c0.7-0.2,1.4-0.5,2.1-0.5c0.9,0,1.6,0.2,2.1,0.5c0.7,0.2,1.1,0.7,1.6,1.1c0.5,0.5,0.7,0.9,0.9,1.6
			c0.2,0.7,0.2,1.1,0.2,1.8v0.9h-9c0,0.2,0,0.7,0.2,1.1c0.2,0.5,0.2,0.9,0.7,1.4c0.2,0.5,0.7,0.7,1.1,1.1c0.5,0.2,1.1,0.5,2.1,0.5
			c0.7,0,1.4-0.2,2.1-0.5c0.7-0.2,1.1-0.7,1.6-1.4L351.5,531.3z M350.6,527.2c0-0.5,0-0.9-0.2-1.4c-0.2-0.5-0.5-0.7-0.7-1.1
			c-0.2-0.2-0.7-0.5-1.1-0.7c-0.5-0.2-0.9-0.2-1.4-0.2c-0.7,0-1.4,0.2-1.8,0.5s-0.9,0.7-1.1,1.1s-0.5,0.7-0.7,1.1
			c-0.2,0.5-0.2,0.7-0.2,0.7H350.6L350.6,527.2z"/>
		<path fill="#454545" d="M354.7,522.8h1.4v1.8l0,0c0.2-0.5,0.5-0.7,0.9-0.9c0.2-0.2,0.7-0.5,1.1-0.7c0.5-0.2,0.7-0.2,1.1-0.5
			c0.5,0,0.9-0.2,1.1-0.2c0.9,0,1.6,0.2,2.3,0.5c0.7,0.2,1.4,0.7,1.8,1.1c0.5,0.5,0.9,1.1,1.1,1.8c0.2,0.7,0.5,1.4,0.5,2.3
			c0,0.9-0.2,1.6-0.5,2.3s-0.7,1.4-1.1,1.8c-0.5,0.5-1.1,0.9-1.8,1.1c-0.7,0.2-1.4,0.5-2.3,0.5c-0.5,0-0.9,0-1.1-0.2
			c-0.5,0-0.9-0.2-1.1-0.5c-0.5-0.2-0.7-0.5-1.1-0.7c-0.2-0.2-0.7-0.7-0.9-0.9l0,0v7.1h-1.4V522.8z M355.9,528.1
			c0,0.7,0,1.1,0.2,1.6s0.5,0.9,0.9,1.4c0.5,0.5,0.9,0.7,1.4,0.9c0.5,0.2,1.1,0.2,1.8,0.2c0.7,0,1.1-0.2,1.8-0.2
			c0.5-0.2,0.9-0.5,1.4-0.9c0.5-0.5,0.7-0.9,0.9-1.4c0.2-0.5,0.2-1.1,0.2-1.6c0-0.7,0-1.1-0.2-1.6c-0.2-0.5-0.5-0.9-0.9-1.4
			s-0.9-0.7-1.4-0.9c-0.5-0.2-1.1-0.5-1.8-0.5c-0.7,0-1.1,0.2-1.8,0.5c-0.5,0.2-0.9,0.5-1.4,0.9c-0.5,0.5-0.7,0.9-0.9,1.4
			S355.9,527.4,355.9,528.1z"/>
		<path fill="#454545" d="M368.5,528.1c0-0.9,0.2-1.6,0.5-2.3c0.2-0.7,0.7-1.4,1.1-1.8c0.5-0.5,1.1-0.9,1.8-1.1
			c0.7-0.2,1.4-0.5,2.3-0.5c0.9,0,1.6,0.2,2.3,0.5c0.7,0.2,1.4,0.7,1.8,1.1c0.5,0.5,0.9,1.1,1.1,1.8c0.2,0.7,0.5,1.4,0.5,2.3
			c0,0.9-0.2,1.6-0.5,2.3c-0.2,0.7-0.7,1.4-1.1,1.8c-0.5,0.5-1.1,0.9-1.8,1.1c-0.7,0.2-1.4,0.5-2.3,0.5c-0.9,0-1.6-0.2-2.3-0.5
			c-0.7-0.2-1.4-0.7-1.8-1.1c-0.5-0.5-0.9-1.1-1.1-1.8C368.5,529.7,368.5,528.8,368.5,528.1z M369.9,528.1c0,0.7,0,1.1,0.2,1.6
			c0.2,0.5,0.5,0.9,0.9,1.4c0.5,0.5,0.9,0.7,1.4,0.9c0.5,0.2,1.1,0.2,1.8,0.2c0.7,0,1.1-0.2,1.8-0.2c0.5-0.2,0.9-0.5,1.4-0.9
			c0.5-0.5,0.7-0.9,0.9-1.4c0.2-0.5,0.2-1.1,0.2-1.6c0-0.7,0-1.1-0.2-1.6c-0.2-0.5-0.5-0.9-0.9-1.4s-0.9-0.7-1.4-0.9
			s-1.1-0.5-1.8-0.5c-0.7,0-1.1,0.2-1.8,0.5c-0.5,0.2-0.9,0.5-1.4,0.9c-0.5,0.5-0.7,0.9-0.9,1.4
			C369.9,526.9,369.9,527.4,369.9,528.1z"/>
		<path fill="#454545" d="M382.7,525.8c0-0.2,0-0.5,0-0.7c0-0.2,0-0.5,0-0.9c0-0.2,0-0.5,0-0.9c0-0.2,0-0.5,0-0.7h1.4
			c0,0.5,0,0.7,0,1.1s0,0.7,0,0.7c0.5-0.7,0.9-1.1,1.4-1.6c0.5-0.5,1.1-0.7,2.1-0.7c0.2,0,0.2,0,0.5,0c0.2,0,0.2,0,0.5,0l-0.2,1.4
			c-0.2,0-0.5,0-0.5,0c-0.7,0-1.1,0-1.6,0.2c-0.5,0.2-0.7,0.5-1.1,0.7c-0.2,0.2-0.5,0.7-0.7,1.1c-0.2,0.5-0.2,0.9-0.2,1.4v5.7h-1.4
			L382.7,525.8L382.7,525.8z"/>
		<path fill="#454545" d="M395.6,523.9h-3v6.9c0,0.5,0.2,0.9,0.5,1.1c0.2,0.2,0.7,0.5,1.1,0.5c0.2,0,0.5,0,0.7,0s0.5-0.2,0.7-0.2
			v1.1c-0.2,0-0.5,0.2-0.9,0.2c-0.2,0-0.7,0.2-0.9,0.2c-0.5,0-0.9,0-1.4-0.2c-0.5-0.2-0.7-0.2-0.9-0.7c-0.2-0.2-0.5-0.5-0.5-0.9
			c0-0.2-0.2-0.7-0.2-1.1v-6.9h-2.3v-1.1h2.3v-3h1.4v3h3v1.1H395.6z"/>
	</g>
</g>
<g>
	<g>
		<path fill="#454545" d="M497.9,521.9h1.6l6.9,16.3h-1.6l-1.8-4.4h-8.7l-1.8,4.4h-1.6L497.9,521.9z M498.6,523.5l-3.9,9h7.4
			L498.6,523.5z"/>
		<path fill="#454545" d="M517.2,536.6c-0.5,0.7-1.1,1.1-1.8,1.4c-0.7,0.2-1.4,0.5-2.1,0.5c-0.9,0-1.6-0.2-2.3-0.5
			c-0.7-0.2-1.4-0.7-1.8-1.1c-0.5-0.5-0.9-1.1-1.1-1.8s-0.5-1.4-0.5-2.3c0-0.9,0.2-1.6,0.5-2.3c0.2-0.7,0.7-1.4,1.1-1.8
			c0.5-0.5,1.1-0.9,1.8-1.1c0.7-0.2,1.4-0.5,2.3-0.5c0.7,0,1.6,0.2,2.1,0.5c0.7,0.2,1.1,0.7,1.8,1.4l-1.1,0.9
			c-0.5-0.5-0.9-0.7-1.4-1.1c-0.5-0.2-0.9-0.5-1.6-0.5c-0.7,0-1.1,0.2-1.8,0.5c-0.5,0.2-0.9,0.5-1.4,0.9c-0.5,0.5-0.7,0.9-0.9,1.4
			c-0.2,0.5-0.2,1.1-0.2,1.6c0,0.7,0,1.1,0.2,1.6c0.2,0.5,0.5,0.9,0.9,1.4c0.5,0.5,0.9,0.7,1.4,0.9c0.5,0.2,1.1,0.2,1.8,0.2
			c0.7,0,1.1-0.2,1.6-0.5s0.9-0.7,1.1-1.1L517.2,536.6z"/>
		<path fill="#454545" d="M528.3,536.6c-0.5,0.7-1.1,1.1-1.8,1.4c-0.7,0.2-1.4,0.5-2.1,0.5c-0.9,0-1.6-0.2-2.3-0.5
			c-0.7-0.2-1.4-0.7-1.8-1.1c-0.5-0.5-0.9-1.1-1.1-1.8c-0.2-0.7-0.5-1.4-0.5-2.3c0-0.9,0.2-1.6,0.5-2.3s0.7-1.4,1.1-1.8
			s1.1-0.9,1.8-1.1c0.7-0.2,1.4-0.5,2.3-0.5c0.7,0,1.6,0.2,2.1,0.5c0.7,0.2,1.1,0.7,1.8,1.4l-1.1,0.9c-0.5-0.5-0.9-0.7-1.4-1.1
			c-0.5-0.2-0.9-0.5-1.6-0.5c-0.7,0-1.1,0.2-1.8,0.5c-0.5,0.2-0.9,0.5-1.4,0.9c-0.5,0.5-0.7,0.9-0.9,1.4c-0.2,0.5-0.2,1.1-0.2,1.6
			c0,0.7,0,1.1,0.2,1.6c0.2,0.5,0.5,0.9,0.9,1.4s0.9,0.7,1.4,0.9c0.5,0.2,1.1,0.2,1.8,0.2c0.7,0,1.1-0.2,1.6-0.5
			c0.5-0.2,0.9-0.7,1.1-1.1L528.3,536.6z"/>
		<path fill="#454545" d="M539.5,535.2c0,0.2,0,0.5,0,0.7c0,0.2,0,0.5,0,0.9c0,0.5,0,0.5,0,0.9c0,0.2,0,0.5,0,0.7h-1.4
			c0-0.5,0-0.7,0-1.1s0-0.7,0-0.7l0,0c-0.2,0.7-0.7,1.1-1.4,1.6c-0.7,0.5-1.4,0.7-2.3,0.7c-0.9,0-1.6-0.2-2.1-0.5s-0.9-0.7-1.1-0.9
			c-0.2-0.5-0.5-0.9-0.7-1.4c0-0.5-0.2-1.1-0.2-1.6v-6.9h1.4v6.2c0,0.5,0,0.9,0,1.1s0.2,0.7,0.5,1.1c0.2,0.2,0.5,0.7,0.7,0.7
			c0.5,0.2,0.7,0.2,1.4,0.2c0.5,0,0.9,0,1.4-0.2c0.5-0.2,0.9-0.5,1.1-0.7c0.2-0.5,0.7-0.9,0.7-1.4c0.2-0.5,0.2-1.1,0.2-1.8v-5.3h1.4
			v7.6H539.5z"/>
		<path fill="#454545" d="M543.2,530.6c0-0.2,0-0.5,0-0.7c0-0.2,0-0.5,0-0.9c0-0.2,0-0.5,0-0.9c0-0.2,0-0.5,0-0.7h1.4
			c0,0.5,0,0.7,0,1.1c0,0.5,0,0.7,0,0.7c0.5-0.7,0.9-1.1,1.4-1.6c0.5-0.5,1.1-0.7,2.1-0.7c0.2,0,0.2,0,0.5,0s0.2,0,0.5,0l-0.2,1.4
			c-0.2,0-0.5,0-0.5,0c-0.7,0-1.1,0-1.6,0.2c-0.5,0.2-0.7,0.5-1.1,0.7c-0.2,0.2-0.5,0.7-0.7,1.1c-0.2,0.5-0.2,0.9-0.2,1.4v5.7h-1.4
			L543.2,530.6L543.2,530.6z"/>
		<path fill="#454545" d="M559.1,533.6c0,0.5,0,0.9,0,1.4c0,0.5,0,0.7,0,1.1c0,0.5,0,0.7,0,0.9c0,0.2,0,0.7,0,0.9h-1.4
			c0-0.5-0.2-1.1-0.2-1.8l0,0c-0.5,0.7-0.9,1.1-1.4,1.6c-0.7,0.2-1.4,0.5-2.3,0.5c-0.5,0-0.9,0-1.4-0.2c-0.5,0-0.9-0.2-1.1-0.5
			c-0.5-0.2-0.7-0.7-0.9-0.9s-0.2-0.9-0.2-1.4c0-0.9,0.2-1.4,0.7-1.8c0.5-0.5,0.9-0.9,1.6-1.1c0.7-0.2,1.1-0.5,1.8-0.5
			c0.7,0,1.4,0,1.8,0h1.6v-0.7c0-0.9-0.2-1.6-0.9-2.1c-0.7-0.5-1.4-0.7-2.1-0.7c-1.1,0-2.3,0.5-3.2,1.1l-0.9-0.9
			c0.5-0.5,1.1-0.9,1.8-1.1c0.7-0.2,1.4-0.5,2.1-0.5c1.4,0,2.3,0.2,3,0.9c0.7,0.7,1.1,1.6,1.1,3v2.8H559.1z M556.3,532.9
			c-0.7,0-1.1,0-1.6,0s-1.1,0.2-1.4,0.5c-0.2,0.2-0.7,0.5-1.1,0.7c-0.5,0.2-0.5,0.7-0.5,1.1c0,0.2,0,0.7,0.2,0.9
			c0.2,0.2,0.2,0.5,0.5,0.7c0.2,0.2,0.5,0.2,0.7,0.5c0.2,0,0.5,0.2,0.9,0.2c0.7,0,1.4,0,1.8-0.2c0.5-0.2,0.9-0.5,1.1-0.9
			c0.2-0.5,0.5-0.7,0.7-1.1c0-0.5,0.2-0.9,0.2-1.4v-0.7h-1.6V532.9z"/>
		<path fill="#454545" d="M568,528.8h-3v6.9c0,0.5,0.2,0.9,0.5,1.1c0.2,0.2,0.7,0.5,1.1,0.5c0.2,0,0.5,0,0.7,0
			c0.2,0,0.5-0.2,0.7-0.2v1.1c-0.2,0-0.5,0.2-0.9,0.2c-0.2,0-0.7,0.2-0.9,0.2c-0.5,0-0.9,0-1.4-0.2c-0.5-0.2-0.7-0.2-0.9-0.7
			c-0.2-0.2-0.5-0.5-0.5-0.9c0-0.2-0.2-0.7-0.2-1.1v-6.9h-2.3v-1.1h2.3v-3h1.4v3h3v1.1H568z"/>
		<path fill="#454545" d="M579.7,536.1c-0.5,0.9-1.1,1.4-2.1,1.8c-0.7,0.5-1.6,0.5-2.5,0.5c-0.9,0-1.6-0.2-2.3-0.5s-1.1-0.7-1.6-1.1
			c-0.5-0.5-0.9-1.1-1.1-1.8c-0.2-0.7-0.5-1.4-0.5-2.3c0-0.7,0.2-1.6,0.5-2.3s0.7-1.1,1.1-1.8s1.1-0.9,1.6-1.1
			c0.7-0.2,1.4-0.5,2.1-0.5c0.9,0,1.6,0.2,2.1,0.5c0.7,0.2,1.1,0.7,1.6,1.1s0.7,0.9,0.9,1.6c0.2,0.7,0.2,1.1,0.2,1.8v0.9h-9
			c0,0.2,0,0.7,0.2,1.1c0.2,0.5,0.2,0.9,0.7,1.4c0.2,0.5,0.7,0.7,1.1,1.1c0.5,0.2,1.1,0.5,2.1,0.5c0.7,0,1.4-0.2,2.1-0.5
			c0.7-0.2,1.1-0.7,1.6-1.4L579.7,536.1z M578.8,532c0-0.5,0-0.9-0.2-1.4c-0.2-0.5-0.5-0.7-0.7-1.1c-0.2-0.2-0.7-0.5-1.1-0.7
			c-0.5-0.2-0.9-0.2-1.4-0.2c-0.7,0-1.4,0.2-1.8,0.5s-0.9,0.7-1.1,1.1c-0.2,0.5-0.5,0.7-0.7,1.1s-0.2,0.7-0.2,0.7H578.8L578.8,532z"
			/>
		<path fill="#454545" d="M588.9,520.7h1.4v8.7l0,0c0.2-0.5,0.5-0.7,0.9-0.9c0.2-0.2,0.7-0.5,1.1-0.7c0.5-0.2,0.7-0.2,1.1-0.5
			c0.5,0,0.9-0.2,1.1-0.2c0.9,0,1.6,0.2,2.3,0.5c0.7,0.2,1.4,0.7,1.8,1.1c0.5,0.5,0.9,1.1,1.1,1.8c0.2,0.7,0.5,1.4,0.5,2.3
			c0,0.9-0.2,1.6-0.5,2.3c-0.2,0.7-0.7,1.4-1.1,1.8c-0.5,0.5-1.1,0.9-1.8,1.1c-0.7,0.2-1.4,0.5-2.3,0.5c-0.5,0-0.9,0-1.1-0.2
			c-0.5,0-0.9-0.2-1.1-0.5c-0.5-0.2-0.7-0.5-1.1-0.7c-0.2-0.2-0.7-0.7-0.9-0.9l0,0v1.8h-1.4V520.7z M590.1,532.9
			c0,0.7,0,1.1,0.2,1.6c0.2,0.5,0.5,0.9,0.9,1.4s0.9,0.7,1.4,0.9c0.5,0.2,1.1,0.2,1.8,0.2c0.7,0,1.1-0.2,1.8-0.2
			c0.5-0.2,0.9-0.5,1.4-0.9c0.5-0.5,0.7-0.9,0.9-1.4c0.2-0.5,0.2-1.1,0.2-1.6c0-0.7,0-1.1-0.2-1.6c-0.2-0.5-0.5-0.9-0.9-1.4
			c-0.5-0.5-0.9-0.7-1.4-0.9c-0.5-0.2-1.1-0.5-1.8-0.5c-0.7,0-1.1,0.2-1.8,0.5c-0.5,0.2-0.9,0.5-1.4,0.9c-0.5,0.5-0.7,0.9-0.9,1.4
			C590.1,531.8,590.1,532.2,590.1,532.9z"/>
		<path fill="#454545" d="M603.2,523.3c0-0.2,0-0.5,0.2-0.7c0.2-0.2,0.5-0.2,0.7-0.2s0.5,0,0.7,0.2c0.2,0.2,0.2,0.5,0.2,0.7
			c0,0.2,0,0.5-0.2,0.7c-0.2,0.2-0.5,0.2-0.7,0.2s-0.5,0-0.7-0.2C603.2,523.9,603.2,523.7,603.2,523.3z M603.4,527.6h1.4v10.6h-1.4
			V527.6z"/>
		<path fill="#454545" d="M608.9,520.7h1.4v17.5h-1.4V520.7z"/>
		<path fill="#454545" d="M614.4,520.7h1.4v17.5h-1.4V520.7z"/>
		<path fill="#454545" d="M619.7,535.4c0.2,0.5,0.7,0.9,1.4,1.4c0.5,0.2,1.1,0.5,1.8,0.5c0.2,0,0.7,0,0.9-0.2c0.2,0,0.5-0.2,0.7-0.5
			c0.2-0.2,0.5-0.5,0.5-0.7c0.2-0.2,0.2-0.5,0.2-0.9s-0.2-0.9-0.5-1.1c-0.2-0.2-0.7-0.5-1.1-0.5c-0.5,0-0.9-0.2-1.6-0.5
			c-0.5,0-1.1-0.2-1.6-0.5s-0.9-0.5-1.1-0.9c-0.2-0.5-0.5-0.9-0.5-1.6c0-0.5,0-0.9,0.2-1.4c0.2-0.5,0.5-0.7,0.9-0.9
			c0.5-0.2,0.7-0.5,1.1-0.5c0.5-0.2,0.9-0.2,1.4-0.2c0.9,0,1.6,0.2,2.3,0.5c0.7,0.2,1.1,0.9,1.4,1.6l-1.1,0.7
			c-0.2-0.5-0.7-0.9-0.9-1.1c-0.5-0.2-0.9-0.5-1.6-0.5c-0.2,0-0.5,0-0.7,0.2c-0.2,0.2-0.5,0.2-0.7,0.2c-0.2,0.2-0.5,0.2-0.5,0.5
			c0,0.2-0.2,0.5-0.2,0.7c0,0.5,0.2,0.9,0.5,1.1c0.2,0.2,0.7,0.5,1.1,0.5c0.5,0.2,0.9,0.2,1.6,0.2c0.5,0,1.1,0.2,1.6,0.5
			c0.5,0.2,0.9,0.5,1.1,0.9c0.2,0.5,0.5,0.9,0.5,1.6c0,0.5,0,0.9-0.2,1.4c-0.2,0.5-0.5,0.7-0.9,0.9c-0.5,0.2-0.7,0.5-1.1,0.7
			c-0.5,0.2-0.9,0.2-1.4,0.2c-0.9,0-1.8-0.2-2.5-0.5s-1.4-0.9-1.8-1.6L619.7,535.4z"/>
	</g>
</g>
<g>
	
		<line fill="none" stroke="#29B7EB" stroke-width="1.4932" stroke-linecap="round" stroke-linejoin="round" x1="362.2" y1="344.1" x2="321.8" y2="386.1"/>
	<polyline fill="none" stroke="#29B7EB" stroke-width="1.4932" stroke-linecap="round" stroke-linejoin="round" points="
		319.4,378.9 319.7,388.4 328.8,388.3 	"/>
</g>
<g>
	
		<line fill="none" stroke="#29B7EB" stroke-width="1.4932" stroke-linecap="round" stroke-linejoin="round" x1="455.1" y1="344.1" x2="495.5" y2="386.1"/>
	<polyline fill="none" stroke="#29B7EB" stroke-width="1.4932" stroke-linecap="round" stroke-linejoin="round" points="
		497.9,378.9 497.6,388.4 488.5,388.3 	"/>
</g>
</svg>
