<?xml version="1.0" encoding="utf-8"?>
<!-- Generator: Adobe Illustrator 17.1.0, SVG Export Plug-In . SVG Version: 6.00 Build 0)  -->
<!DOCTYPE svg PUBLIC "-//W3C//DTD SVG 1.1//EN" "http://www.w3.org/Graphics/SVG/1.1/DTD/svg11.dtd">
<svg version="1.1" id="Layer_1" xmlns="http://www.w3.org/2000/svg" xmlns:xlink="http://www.w3.org/1999/xlink" x="0px" y="0px"
	 viewBox="0 0 808 418.3" enable-background="new 0 0 808 418.3" xml:space="preserve">
<rect x="-8" y="-16.1" fill="#015667" width="847" height="627.3"/>
<rect x="142.6" y="198.3" fill="#454545" stroke="#454545" stroke-width="0.5835" width="119.2" height="33.8"/>
<polyline fill="#506873" points="666.2,140.1 664,140.1 138.3,140.1 "/>
<path fill="#014D5B" d="M666.2,445.9c32.9,0,36.5-41.8,40.3-65.5c6.5-39.4,10.3-79.9,10.3-120.1c0-38.9-3.8-78-9.7-116.3
	c-4-25.2-5.6-70-41.1-70h-2.2H138.1c-35.5,0-37.1,44.8-41.1,70c-5.9,38.4-9.7,77.6-9.7,116.3c0,40,3.8,80.5,10.3,120.1
	c4,23.8,7.6,65.5,40.3,65.5c1.8,0,525.7,0,525.7,0H666.2z"/>
<path fill="none" d="M666.2,445.9c32.9,0,36.5-41.8,40.3-65.5c6.5-39.4,10.3-79.9,10.3-120.1c0-38.9-3.8-78-9.7-116.3
	c-4-25.2-5.6-70-41.1-70h-2.2H138.1c-35.5,0-37.1,44.8-41.1,70c-5.9,38.4-9.7,77.6-9.7,116.3c0,40,3.8,80.5,10.3,120.1
	c4,23.8,7.6,65.5,40.3,65.5c1.8,0,525.7,0,525.7,0H666.2z"/>
<path fill="#015667" d="M371.1,120.3c-4.7,0-8.5-3.8-8.5-8.5s3.8-8.5,8.5-8.5c4.7,0,8.5,3.8,8.5,8.5
	C379.5,116.6,375.8,120.3,371.1,120.3z"/>
<path fill="#015667" d="M388,110.8c-3.8,0-6.7-3.1-6.7-6.7c0-3.8,3.1-6.7,6.7-6.7c3.8,0,6.7,3.1,6.7,6.7
	C394.7,107.7,391.8,110.8,388,110.8z"/>
<path fill="#015667" d="M402,103.8c-3.2,0-5.8-2.5-5.8-5.8c0-3.2,2.5-5.8,5.8-5.8c3.2,0,5.8,2.5,5.8,5.8
	C407.8,101.2,405.3,103.8,402,103.8z"/>
<path fill="#015667" d="M414.8,100c-2.7,0-4.9-2.2-4.9-4.9c0-2.7,2.2-4.9,4.9-4.9s4.9,2.2,4.9,4.9C419.5,97.8,417.3,100,414.8,100z"
	/>
<path fill="#015667" d="M426.5,99.1c-2.2,0-3.8-1.8-3.8-3.8c0-2.2,1.8-3.8,3.8-3.8c2.2,0,3.8,1.8,3.8,3.8S428.7,99.1,426.5,99.1z"/>
<path fill="#015667" d="M435.9,100.9c-1.6,0-2.9-1.3-2.9-2.9c0-1.6,1.3-2.9,2.9-2.9s2.9,1.3,2.9,2.9
	C438.8,99.6,437.5,100.9,435.9,100.9z"/>
<g>
	<rect x="192.3" y="134.7" fill="#34AEC5" width="417.5" height="247.7"/>
	<rect x="192.3" y="134.7" fill="#015667" width="417.5" height="247.7"/>
</g>
<path fill="#015667" stroke="#0A4C5A" stroke-width="1.5364" d="M402.2,339.5c-0.2,0-1.1,0-2.3,0l-59.8-1.1c-1.1,0-2.2-1.1-2.3-2.2
	c0,0-4.5-43.4-4.5-58.5s4.5-58.5,4.5-58.5c0.2-1.1,1.1-2.2,2.3-2.2l59.8-1.3c1.1,0,2.2,0,2.3,0c0.2,0,1.1,0,2.3,0l59.8,1.1
	c1.1,0,2.2,1.1,2.3,2.2c0,0,4.5,43.4,4.5,58.5s-4.5,58.5-4.5,58.5c-0.2,1.1-1.1,2.2-2.3,2.2l-59.8,1.1
	C403.5,339.5,402.4,339.5,402.2,339.5z"/>
<path fill="#015667" stroke="#0A4C5A" stroke-width="1.5364" d="M264.1,327c-0.2,0-0.9,0-1.8,0l-47.7-0.9c-0.9,0-1.8-0.7-1.8-1.6
	c0,0-3.6-34.7-3.6-46.8c0-12.1,3.6-46.8,3.6-46.8c0.2-0.9,0.9-1.6,1.8-1.8l47.7-0.9c0.9,0,1.8,0,1.8,0s0.9,0,1.8,0l47.7,0.9
	c0.9,0,1.8,0.7,1.8,1.8c0,0,3.6,34.7,3.6,46.8c0,12.1-3.6,46.8-3.6,46.8c-0.2,0.9-0.9,1.6-1.8,1.6l-47.7,0.9
	C265,327,264.3,327,264.1,327z"/>
<path fill="#015667" stroke="#0A4C5A" stroke-width="1.5364" d="M540.5,327c-0.2,0-0.9,0-1.8,0l-47.7-0.9c-0.9,0-1.8-0.7-1.8-1.6
	c0,0-3.6-34.7-3.6-46.8c0-12.1,3.6-46.8,3.6-46.8c0.2-0.9,0.9-1.6,1.8-1.8l47.7-0.9c0.9,0,1.8,0,1.8,0s0.9,0,1.8,0l47.7,0.9
	c0.9,0,1.8,0.7,1.8,1.8c0,0,3.6,34.7,3.6,46.8c0,12.1-3.6,46.8-3.6,46.8c-0.2,0.9-0.9,1.6-1.8,1.6l-47.7,0.9
	C541.4,327,540.5,327,540.5,327z"/>
<path fill="#014D5B" d="M361,258.3c9.9,0,11.9,10.3,11.9,18c0,7.4-2.2,18-11.9,18c-9.9,0-11.9-10.6-11.9-18
	C348.9,268.5,351.1,258.3,361,258.3z M361,289.9c6.5,0,7.2-9.4,7.2-13.9c0-4.9-0.7-13.9-7.2-13.9s-7.2,9-7.2,13.9
	C353.8,280.8,354.3,289.9,361,289.9z"/>
<path fill="#014D5B" d="M374.5,290.7c0-1.8,1.4-3.2,3.2-3.2s3.2,1.4,3.2,3.2c0,1.8-1.4,3.2-3.2,3.2S374.5,292.3,374.5,290.7z"/>
<path fill="#014D5B" d="M394.5,258.3c9.9,0,11.9,10.3,11.9,18c0,7.4-2.2,18-11.9,18c-9.9,0-11.9-10.6-11.9-18
	C382.4,268.5,384.6,258.3,394.5,258.3z M394.5,289.9c6.7,0,7.2-9.4,7.2-13.9c0-4.9-0.7-13.9-7.2-13.9s-7.2,9-7.2,13.9
	C387.1,280.8,387.8,289.9,394.5,289.9z"/>
<path fill="#014D5B" d="M409.8,288.5l13.9-13.9c2-1.8,3.8-4.3,3.8-7c0-3.4-2.7-5.6-5.9-5.6c-3.4,0-5.8,2-6.3,5.4l-5-0.5
	c0.9-6.1,5.4-9,11.5-9c5.9,0,11,3.2,11,9.5c0,4.5-2.9,7.9-6.1,10.8l-11.3,11h17.5v4.1H410v-4.9H409.8z"/>
<path fill="#014D5B" d="M445.4,264.2l-6.3,5.9l-2.7-3.2l9.7-7.9h4.1v34.7h-4.7v-29.5H445.4z"/>
<path fill="#014D5B" d="M516.9,261.3c8.1,0,9.7,8.5,9.7,14.6c0,5.9-1.8,14.6-9.7,14.6c-8.1,0-9.7-8.6-9.7-14.6
	C507.2,269.8,509,261.3,516.9,261.3z M516.9,287.2c5.4,0,5.9-7.6,5.9-11.2c0-4-0.5-11.2-5.9-11.2c-5.4,0-5.9,7.4-5.9,11.2
	C511.1,279.7,511.7,287.2,516.9,287.2z"/>
<path fill="#014D5B" d="M530.8,287.6c0-1.4,1.3-2.7,2.7-2.7s2.7,1.3,2.7,2.7s-1.3,2.7-2.7,2.7C531.9,290.3,530.8,289,530.8,287.6z"
	/>
<path fill="#014D5B" d="M549.7,261.3c8.1,0,9.7,8.5,9.7,14.6c0,5.9-1.8,14.6-9.7,14.6c-8.1,0-9.7-8.6-9.7-14.6
	C540,269.8,541.6,261.3,549.7,261.3z M549.7,287.2c5.4,0,5.9-7.6,5.9-11.2c0-4-0.5-11.2-5.9-11.2s-5.9,7.4-5.9,11.2
	C543.7,279.7,544.3,287.2,549.7,287.2z"/>
<path fill="#014D5B" d="M570.7,266.2l-5.2,4.9l-2.2-2.7l7.9-6.5h3.4v28.3h-3.8v-23.9H570.7z"/>
<path fill="#014D5B" d="M227.9,286l11.3-11.2c1.6-1.4,3.1-3.4,3.1-5.8c0-2.9-2.2-4.5-4.9-4.5c-2.7,0-4.7,1.6-5.2,4.3l-4.1-0.4
	c0.7-5,4.5-7.4,9.4-7.4c4.9,0,8.8,2.7,8.8,7.7c0,3.8-2.3,6.3-4.9,8.8l-9.4,9h14.2v3.4h-18.5V286H227.9z"/>
<path fill="#014D5B" d="M251.3,287.6c0-1.4,1.3-2.7,2.7-2.7s2.7,1.3,2.7,2.7s-1.3,2.7-2.7,2.7C252.6,290.3,251.3,289,251.3,287.6z"
	/>
<path fill="#014D5B" d="M278.7,265.5h-11.5l-0.2,7c0.7-0.4,2.9-0.5,3.8-0.5c5.2,0,8.8,3.8,8.8,9.4c0,5.6-4.5,9.4-9.9,9.4
	c-3.8,0-7.2-2-8.5-5.8l3.8-1.3c1.1,2.5,2.7,3.6,5.2,3.6c3.1,0,5.6-2.2,5.6-5.8c0-4.1-2.7-6.1-6.8-6.1c-1.4,0-4,0.5-5.8,1.4l0.4-14.9
	h15.1V265.5z"/>
<path fill="#014D5B" d="M294.6,279.1L294.6,279.1c-1.1,0.4-2.2,0.7-3.2,0.7c-4.1,0-8.8-2.7-8.8-9s4.3-9.5,9.7-9.5
	c5.2,0,9.7,3.6,9.7,9c0,3.4-1.1,5.6-2.9,8.3l-7.2,11.3h-4.5L294.6,279.1z M292.2,264.7c-3.4,0-5.9,2.5-5.9,5.9
	c0,3.4,2.3,5.9,5.9,5.9c3.4,0,5.9-2.5,5.9-5.9C298.2,267.1,295.8,264.7,292.2,264.7z"/>
<path fill="none" stroke="#0A4C5A" stroke-width="1.2731" d="M478.6,204.2c-0.2,0.5-0.7,0.9-1.3,0.9c-50.2-8.6-101.5-8.6-151.6,0
	c-0.5,0.2-1.1-0.4-1.3-0.9c-2.2-12.8-4.5-25.6-6.7-38.2c-0.2-0.5,0.4-1.1,0.9-1.3c54.7-9.4,110.7-9.4,165.5,0
	c0.5,0.2,1.1,0.7,0.9,1.3C483.1,178.9,480.7,191.5,478.6,204.2z"/>
<path fill="#014D5B" d="M428.7,190.7c-3.4-0.2-9.2-0.5-12.6-0.7c-25.9-0.9-51.9,0.7-77.6,4.7c-3.4,0.5-6.7-1.8-7.4-5.2
	c-0.7-4-1.4-7.9-2-11.9c-0.5-3.4,1.8-6.7,5.6-7.4c27.2-4.3,54.7-5.9,82.1-5c3.6,0.2,9.7,0.4,13.3,0.7L428.7,190.7z"/>
</svg>
