<?xml version="1.0" encoding="utf-8"?>
<!-- Generator: Adobe Illustrator 17.1.0, SVG Export Plug-In . SVG Version: 6.00 Build 0)  -->
<!DOCTYPE svg PUBLIC "-//W3C//DTD SVG 1.1//EN" "http://www.w3.org/Graphics/SVG/1.1/DTD/svg11.dtd">
<svg version="1.1" id="Layer_1" xmlns="http://www.w3.org/2000/svg" xmlns:xlink="http://www.w3.org/1999/xlink" x="0px" y="0px"
	 viewBox="0 0 841.9 595.3" enable-background="new 0 0 841.9 595.3" xml:space="preserve">
<g>
	<g>
		<circle fill="none" stroke="#2DB7EA" stroke-width="0.4155" cx="391.3" cy="143.8" r="139.4"/>
		<circle fill="none" stroke="#2DB7EA" stroke-width="0.7271" cx="391.3" cy="143.8" r="118.5"/>
		<circle fill="none" stroke="#2DB7EA" stroke-width="1.0388" cx="391.3" cy="143.8" r="96.4"/>
		<circle fill="none" stroke="#2DB7EA" stroke-width="1.3504" cx="391.3" cy="143.8" r="75.3"/>
		<circle fill="none" stroke="#2DB7EA" stroke-width="1.662" cx="391.3" cy="143.8" r="54.4"/>
	</g>
	<g>
		<g>
			<path fill="#F2F1F0" d="M391.3,448c0,12.2-10.6,22.7-22.7,22.7H89.7c-12.2,0-22.7-10.6-22.7-22.7V140.2
				c0-12.2,10.6-22.7,22.7-22.7h278.7c12.2,0,22.7,10.6,22.7,22.7L391.3,448L391.3,448z"/>
			<path fill="none" stroke="#464646" stroke-width="1.5236" d="M391.3,448c0,12.2-10.6,22.7-22.7,22.7H89.7
				c-12.2,0-22.7-10.6-22.7-22.7V140.2c0-12.2,10.6-22.7,22.7-22.7h278.7c12.2,0,22.7,10.6,22.7,22.7L391.3,448L391.3,448z"/>
		</g>
		<path fill="#464646" stroke="#464646" stroke-width="0.7617" d="M398.2,352.5c0,3.4-2.5,7.1-7.1,7.1H66.9c-3.4,0-7.1-2.5-7.1-7.1
			l0,0c0-3.4,2.5-7.1,7.1-7.1h324.4C395.7,346.3,398.2,348.8,398.2,352.5L398.2,352.5z"/>
		<g>
			<path fill="#F2F1F0" stroke="#526975" stroke-width="0.7617" d="M336,260.4c0,9.6-7.8,17.4-17.4,17.4H140.6
				c-9.6,0-17.4-7.8-17.4-17.4v-66.6c0-9.6,7.8-17.4,17.4-17.4h177.9c9.6,0,17.4,7.8,17.4,17.4V260.4z"/>
			<path fill="#F2F1F0" stroke="#526975" stroke-width="0.3809" d="M324.8,260.4c0,3.4-2.5,6.2-6.2,6.2H140.6
				c-3.4,0-6.2-2.5-6.2-6.2v-66.6c0-3.4,2.5-6.2,6.2-6.2h177.9c3.4,0,6.2,2.5,6.2,6.2V260.4z"/>
		</g>
		<rect x="151.2" y="214.8" fill="#464646" stroke="#464646" stroke-width="0.3809" width="31.5" height="24.6"/>
		<circle fill="#F2F1F0" cx="165.9" cy="227.2" r="6.2"/>
		<rect x="181.7" y="214.8" fill="#464646" stroke="#464646" stroke-width="0.3809" width="31.5" height="24.6"/>
		<circle fill="#F2F1F0" cx="197.6" cy="227.2" r="6.2"/>
		<rect x="213.4" y="214.8" fill="#464646" stroke="#464646" stroke-width="0.3809" width="31.5" height="24.6"/>
		<circle fill="#F2F1F0" cx="229" cy="227.2" r="6.2"/>
		<rect x="244.9" y="214.8" fill="#464646" stroke="#464646" stroke-width="0.3809" width="31.5" height="24.6"/>
		<circle fill="#F2F1F0" cx="260.7" cy="227.2" r="6.2"/>
		<rect x="276.5" y="214.8" fill="#31B7EA" width="31.5" height="24.6"/>
		<path fill="#F2F1F0" d="M292.2,220c3.4,0,6.2-1.8,6.2-4.4h-12.2C286.2,218.2,288.7,220,292.2,220z"/>
		<path fill="#F2F1F0" d="M292.2,234c-3.4,0-6.2,1.8-6.2,4.4h12.2C298.4,235.9,295.8,234,292.2,234z"/>
		<rect x="181.7" y="399.8" fill="#464646" stroke="#464646" stroke-width="0.7617" width="94.6" height="27.1"/>
	</g>
	<g>
		<g>
			<polyline fill="#516973" points="739.4,304.3 737.5,304.3 321.1,304.3 			"/>
		</g>
		<path fill="#F2F1F0" d="M739.4,546c26.4,0,28.9-33.3,31.5-51.7c5.3-31.5,7.8-63.1,7.8-94.6c0-30.8-2.5-61.3-7.8-92.1
			c-3.4-20.2-4.4-55.3-32.4-55.3h-1.8H321.1c-28,0-28.9,35.1-32.4,55.3c-4.4,30.8-7.8,61.3-7.8,92.1c0,31.5,2.5,64.1,7.8,94.6
			c3.4,18.4,6.2,51.7,31.5,51.7c1.8,0,416.4,0,416.4,0H739.4z"/>
		<path fill="none" stroke="#464646" stroke-width="1.662" d="M739.4,546c26.4,0,28.9-33.3,31.5-51.7c5.3-31.5,7.8-63.1,7.8-94.6
			c0-30.8-2.5-61.3-7.8-92.1c-3.4-20.2-4.4-55.3-32.4-55.3h-1.8H321.1c-28,0-28.9,35.1-32.4,55.3c-4.4,30.8-7.8,61.3-7.8,92.1
			c0,31.5,2.5,64.1,7.8,94.6c3.4,18.4,6.2,51.7,31.5,51.7c1.8,0,416.4,0,416.4,0H739.4z"/>
		<g>
			<circle fill="#516973" cx="506.1" cy="281.3" r="7.1"/>
			<circle fill="#516973" cx="519.2" cy="275.4" r="5.3"/>
			<circle fill="#516973" cx="530.7" cy="270.8" r="4.4"/>
			<circle fill="#516973" cx="540.3" cy="268.3" r="3.4"/>
			<circle fill="#516973" cx="550" cy="268.3" r="2.5"/>
			<circle fill="#516973" cx="556.9" cy="270.8" r="2.5"/>
		</g>
		<g>
			<g>
				<rect x="364" y="299.7" fill="#31B7EA" width="330.6" height="196.3"/>
				<rect x="364" y="299.7" fill="none" stroke="#516973" stroke-width="0.831" width="330.6" height="196.3"/>
			</g>
		</g>
		<g>
			<path fill="none" stroke="#FFFFFF" stroke-width="0.6648" d="M530.7,462c0,0-4.4,0-10.6,0l-29.8-0.9c-5.3,0-10.6-5.3-11.5-10.6
				c0,0-2.5-25.5-2.5-37.6s2.5-37.6,2.5-37.6c0.9-5.3,5.3-10.6,11.5-10.6l29.8-0.9c5.3,0,10.6,0,10.6,0s4.4,0,10.6,0l29.8,0.9
				c5.3,0,10.6,5.3,11.5,10.6c0,0,2.5,26.4,2.5,37.6c0,12.2-2.5,37.6-2.5,37.6c-0.9,5.3-5.3,10.6-11.5,10.6l-29.8,0.9
				C535,462,530.7,462,530.7,462z"/>
		</g>
		<g>
			<path fill="none" stroke="#FFFFFF" stroke-width="0.6648" d="M420.9,452.4c0,0-3.4,0-7.8,0h-24.6c-4.4,0-8.7-3.4-8.7-7.8
				c0,0-1.8-21.1-1.8-29.8c0-9.6,1.8-29.8,1.8-29.8c0.9-4.4,4.4-7.8,8.7-8.7h24.6c4.4,0,7.8,0,7.8,0s3.4,0,7.8,0h24.6
				c4.4,0,8.7,3.4,8.7,8.7c0,0,1.8,21.1,1.8,29.8c0,9.6-1.8,29.8-1.8,29.8c-0.9,4.4-4.4,7.8-8.7,7.8H429
				C424.6,451.5,420.9,452.4,420.9,452.4z"/>
		</g>
		<g>
			<path fill="none" stroke="#FFFFFF" stroke-width="0.6648" d="M640.2,452.4c0,0-3.4,0-7.8,0h-24.6c-4.4,0-8.7-3.4-8.7-7.8
				c0,0-1.8-21.1-1.8-29.8c0-9.6,1.8-29.8,1.8-29.8c0.9-4.4,4.4-7.8,8.7-8.7h24.6c4.4,0,7.8,0,7.8,0s3.4,0,7.8,0h24.6
				c4.4,0,8.7,3.4,8.7,8.7c0,0,1.8,21.1,1.8,29.8c0,9.6-1.8,29.8-1.8,29.8c-0.9,4.4-4.4,7.8-8.7,7.8H648
				C643.6,451.5,640.2,452.4,640.2,452.4z"/>
		</g>
		<g>
			<path fill="#F2F1F0" d="M498.1,397c7.8,0,9.6,7.8,9.6,14c0,6.2-1.8,14-9.6,14c-7.8,0-9.6-8.7-9.6-14S490.3,397,498.1,397z
				 M498.1,422.5c5.3,0,6.2-7.1,6.2-10.6s-0.9-10.6-6.2-10.6c-5.3,0-6.2,7.1-6.2,10.6C492.1,415.4,493,422.5,498.1,422.5z"/>
			<path fill="#F2F1F0" d="M508.6,423.4c0-1.8,0.9-2.5,2.5-2.5c1.8,0,2.5,0.9,2.5,2.5c0,1.8-0.9,2.5-2.5,2.5
				C509.6,426,508.6,424.4,508.6,423.4z"/>
			<path fill="#F2F1F0" d="M524.5,397c7.8,0,9.6,7.8,9.6,14c0,6.2-1.8,14-9.6,14c-7.8,0-9.6-8.7-9.6-14S516.7,397,524.5,397z
				 M524.5,422.5c5.3,0,6.2-7.1,6.2-10.6s-0.9-10.6-6.2-10.6c-5.3,0-6.2,7.1-6.2,10.6S519.2,422.5,524.5,422.5z"/>
			<path fill="#F2F1F0" d="M536.6,421.6l11.5-10.6c1.8-1.8,2.5-3.4,2.5-5.3c0-2.5-1.8-4.4-4.4-4.4s-4.4,1.8-5.3,4.4h-4.4
				c0.9-5.3,4.4-7.1,8.7-7.1c4.4,0,8.7,2.5,8.7,7.8c0,3.4-2.5,6.2-4.4,8.7l-8.7,8.7h14v3.4h-18.4L536.6,421.6L536.6,421.6z"/>
			<path fill="#F2F1F0" d="M564.9,402.3l-5.3,4.4l-1.8-2.5l7.8-6.2h3.4v27.1h-3.4v-22.7H564.9z"/>
		</g>
		<g>
			<path fill="#F2F1F0" d="M620.9,399.8c6.2,0,7.8,7.1,7.8,11.5s-1.8,11.5-7.8,11.5c-6.2,0-7.8-7.1-7.8-11.5
				C613.8,406.7,614.7,399.8,620.9,399.8z M620.9,420.7c4.4,0,4.4-6.2,4.4-8.7c0-3.4-0.9-8.7-4.4-8.7c-4.4,0-4.4,6.2-4.4,8.7
				S617.5,420.7,620.9,420.7z"/>
			<path fill="#F2F1F0" d="M632.4,420.7c0-0.9,0.9-1.8,1.8-1.8s1.8,0.9,1.8,1.8c0,0.9-0.9,1.8-1.8,1.8
				C633.1,422.5,632.4,421.6,632.4,420.7z"/>
			<path fill="#F2F1F0" d="M647.3,399.8c6.2,0,7.8,7.1,7.8,11.5s-1.8,11.5-7.8,11.5c-6.2,0-7.8-7.1-7.8-11.5
				C639.3,406.7,641.1,399.8,647.3,399.8z M647.3,420.7c4.4,0,4.4-6.2,4.4-8.7c0-3.4-0.9-8.7-4.4-8.7c-4.4,0-4.4,6.2-4.4,8.7
				S642.7,420.7,647.3,420.7z"/>
			<path fill="#F2F1F0" d="M663.8,404.2l-4.4,3.4l-1.8-1.8l6.2-5.3h2.5v21.8h-2.5L663.8,404.2L663.8,404.2z"/>
		</g>
		<g>
			<path fill="#F2F1F0" d="M392.9,420l8.7-8.7c0.9-0.9,2.5-2.5,2.5-4.4c0-2.5-1.8-3.4-3.4-3.4c-1.8,0-3.4,1.8-4.4,3.4h-3.4
				c0.9-4.4,3.4-6.2,7.1-6.2c3.4,0,7.1,1.8,7.1,6.2c0,2.5-1.8,5.3-3.4,7.1l-7.8,6.2h11.5v2.5h-14.9v-2.5h0.5V420z"/>
			<path fill="#F2F1F0" d="M411.3,420.7c0-0.9,0.9-1.8,1.8-1.8s1.8,0.9,1.8,1.8c0,0.9-0.9,1.8-1.8,1.8S411.3,421.6,411.3,420.7z"/>
			<path fill="#F2F1F0" d="M432.4,403.2h-8.7v5.3c0.9,0,2.5-0.9,2.5-0.9c4.4,0,7.1,2.5,7.1,7.1c0,4.4-3.4,7.1-7.8,7.1
				c-2.5,0-5.3-1.8-7.1-4.4l2.5-0.9c0.9,1.8,1.8,2.5,4.4,2.5c2.5,0,4.4-1.8,4.4-4.4c0-3.4-2.5-5.3-5.3-5.3c-0.9,0-3.4,0-4.4,0.9
				v-11.5h12.2L432.4,403.2L432.4,403.2z"/>
			<path fill="#F2F1F0" d="M445.5,413.8L445.5,413.8c-0.9,0-1.8,0.9-2.5,0.9c-3.4,0-7.1-1.8-7.1-7.1c0-5.3,3.4-7.8,7.8-7.8
				s7.8,2.5,7.8,7.1c0,2.5-0.9,4.4-2.5,7.1l-5.3,8.7h-3.4L445.5,413.8z M443.9,402.3c-2.5,0-4.4,1.8-4.4,4.4c0,2.5,1.8,4.4,4.4,4.4
				s4.4-1.8,4.4-4.4S446.4,402.3,443.9,402.3z"/>
		</g>
		<g>
			<path fill="none" stroke="#FFFFFF" stroke-width="0.6648" d="M592,350.7c-0.9,2.5-3.4,4.4-6.2,4.4c-36.7-6.2-74.6-6.2-111.3,0
				c-2.5,0-5.3-1.8-6.2-4.4c-0.9-7.1-2.5-14.9-3.4-21.8c-0.9-2.5,1.8-5.3,4.4-6.2c40.4-6.2,81.5-6.2,121.9,0
				c2.5,0.9,5.3,3.4,4.4,6.2C593.8,335.7,592.9,343.6,592,350.7z"/>
		</g>
		<path fill="#F2F1F0" d="M551.6,344.5c-2.5,0-7.1,0-9.6-0.9c-20.2-0.9-41.1,0.9-61.3,3.4c-2.5,0-5.3-1.8-6.2-4.4
			c-0.9-3.4-0.9-6.2-1.8-9.6c-0.9-2.5,1.8-5.3,4.4-6.2c21.8-3.4,42.9-4.4,65-4.4c2.5,0,7.8,0,10.6,0.9L551.6,344.5z"/>
	</g>
</g>
</svg>
