<?xml version="1.0" encoding="utf-8"?>
<!-- Generator: Adobe Illustrator 18.0.0, SVG Export Plug-In . SVG Version: 6.00 Build 0)  -->
<!DOCTYPE svg PUBLIC "-//W3C//DTD SVG 1.1//EN" "http://www.w3.org/Graphics/SVG/1.1/DTD/svg11.dtd">
<svg version="1.1" id="Layer_1" xmlns="http://www.w3.org/2000/svg" xmlns:xlink="http://www.w3.org/1999/xlink" x="0px" y="0px"
	 viewBox="146 37.9 449.3 342" enable-background="new 146 37.9 449.3 342" xml:space="preserve">
<g>
	<polygon fill="#00933B" points="197,345.9 197,237.5 197,237.5 197,238 195.8,239 192.4,234.1 201.3,227.1 201.3,217.1 
		208.1,217.1 208.1,221.8 214.1,217.1 214.2,217.1 214.2,217.1 214.2,217.2 235.9,234 232.5,239 231.2,238 231.2,345.9 	"/>
	<path fill="#FFFFFF" d="M224.9,340.4h-4.7l-1.9-4.8H214V332h2.9l-2.9-7.8v-5h2.3L224.9,340.4z M214,335.6h-4.3l-1.8,4.8h-4.6
		l8.3-21.3h2.2v5v-0.1l-2.9,7.9h2.9V335.6z"/>
</g>
<g>
	<polygon fill="#06A85D" points="249.5,345.9 249.5,214 248.4,214.9 245,210 253.9,203 253.9,193 260.7,193 260.7,197.7 
		266.2,193.4 266.5,193 266.6,193.1 266.7,193 288.5,210 285.1,214.9 283.8,213.8 283.8,234 283.8,234 284.1,345.7 	"/>
	<path fill="#FFFFFF" d="M266.3,319.1L266.3,319.1c1.8,0,3,0.1,3.9,0.2c0.8,0.1,1.6,0.4,2.2,0.9c0.6,0.4,1.2,1.1,1.6,1.8
		c0.4,0.8,0.6,1.5,0.6,2.5c0,1-0.3,1.9-0.8,2.7c-0.6,0.8-1.3,1.5-2.2,1.9c1.3,0.4,2.3,1.1,3,2c0.7,0.9,1.1,2,1.1,3.2
		c0,1-0.2,1.9-0.7,2.8c-0.4,0.9-1.1,1.6-1.9,2.2c-0.8,0.6-1.8,0.9-2.9,1c-0.6,0.1-2,0.1-4,0.1v-3.6c1.5,0,2.4-0.1,2.8-0.1
		c0.6-0.1,1.2-0.4,1.5-0.8c0.4-0.4,0.6-1.1,0.6-1.8c0-0.6-0.1-1.2-0.5-1.6s-0.8-0.8-1.3-1c-0.5-0.2-1.5-0.3-3.2-0.3v-3.6
		c0.9,0,1.5,0,1.8-0.1c0.8-0.1,1.3-0.4,1.8-0.8c0.4-0.4,0.6-1,0.6-1.7c0-0.6-0.2-1.2-0.6-1.6c-0.4-0.4-0.9-0.6-1.6-0.8
		c-0.3,0-1-0.1-2-0.1v-3.5H266.3z M257.7,319.1h8.5v3.6c-0.5,0-1.1,0-1.7,0h-2.5v4.9h2.9c0.5,0,1,0,1.3,0v3.6c-0.2,0-0.4,0-0.7,0
		h-3.5v5.7h4h0.2v3.6c-0.4,0-0.8,0-1.2,0h-7.4V319.1z"/>
</g>
<g>
	<polygon fill="#8ABD09" points="302.2,345.9 302.2,212.8 302.2,212.8 302.2,192.8 300.9,193.8 297.6,188.9 306.4,181.9 
		306.4,171.9 313.3,171.9 313.3,176.6 319.3,171.9 319.4,171.9 319.4,171.9 319.4,172 341.1,188.9 337.7,193.8 336.4,192.7 
		336.4,345.9 	"/>
	<path fill="#FFFFFF" d="M324.5,332.2l4.2,1.3c-0.6,2.3-1.7,4.1-3.2,5.2c-1.5,1.1-3.4,1.7-5.7,1.7c-2.9,0-5.2-1-7-2.9
		c-1.8-2-2.7-4.6-2.7-7.9c0-3.6,0.9-6.3,2.8-8.3c1.8-2,4.3-2.9,7.3-2.9c2.6,0,4.8,0.8,6.4,2.3c1,0.9,1.7,2.2,2.2,3.9l-4.3,1.1
		c-0.3-1.1-0.8-2-1.6-2.6c-0.8-0.6-1.8-1-2.9-1c-1.6,0-2.9,0.6-3.9,1.7c-1,1.1-1.5,2.9-1.5,5.5c0,2.7,0.5,4.6,1.5,5.7
		c1,1.1,2.2,1.7,3.8,1.7c1.1,0,2.2-0.4,2.9-1.1C323.6,334.9,324.1,333.8,324.5,332.2z"/>
</g>
<g>
	<polygon fill="#FCE80F" points="354.8,345.9 354.8,186.8 354.8,186.8 354.8,166.7 353.5,167.7 350.2,162.8 359,155.8 359,145.8 
		365.9,145.8 365.9,150.5 371.9,145.8 371.9,145.8 371.9,145.8 372,145.9 393.7,162.8 390.3,167.7 389,166.7 389,345.9 	"/>
	<path fill="#FFFFFF" d="M371.9,319.1c1.3,0.1,2.3,0.1,3.1,0.4c1.3,0.4,2.3,1.1,3.2,2c0.9,0.9,1.6,2.1,2,3.4c0.5,1.3,0.7,3,0.7,5
		c0,1.8-0.2,3.3-0.6,4.6c-0.6,1.5-1.3,2.8-2.3,3.8c-0.8,0.7-1.8,1.3-3,1.7c-0.8,0.3-1.8,0.4-3.1,0.4v-3.6c0.6,0,1-0.1,1.3-0.1
		c0.7-0.1,1.3-0.5,1.8-0.9c0.5-0.4,0.8-1.1,1.1-2c0.3-1,0.4-2.2,0.4-3.9c0-1.6-0.1-2.9-0.4-3.8c-0.3-0.9-0.7-1.5-1.3-2
		c-0.6-0.5-1.2-0.8-2-1c-0.2-0.1-0.6-0.1-0.9-0.1L371.9,319.1L371.9,319.1z M362.9,319.1h7.9c0.4,0,0.7,0,1,0v3.6
		c-0.6-0.1-1.5-0.1-2.7-0.1h-2v14.1h3.2c0.5,0,1,0,1.3-0.1v3.6c-0.3,0-0.5,0-0.8,0h-8.1L362.9,319.1L362.9,319.1z"/>
</g>
<g>
	<polygon fill="#F9B71B" points="407.4,345.9 407.4,163.9 407.4,163.9 407.4,143.8 406.1,144.8 402.7,139.9 411.6,132.9 
		411.6,122.9 418.5,122.9 418.5,127.6 424.5,122.9 424.5,122.9 424.5,122.9 424.5,123 446.3,139.9 442.9,144.8 441.6,143.8 
		441.6,345.9 	"/>
	<polygon fill="#FFFFFF" points="416.3,340.4 416.3,319.1 432.2,319.1 432.2,322.7 420.7,322.7 420.7,327.5 431.5,327.5 431.5,331 
		420.7,331 420.7,336.9 432.7,336.9 432.7,340.4 	"/>
</g>
<g>
	<polygon fill="#F08304" points="460,345.9 460,142 460,142 460,121.9 458.7,122.9 455.3,118 464.2,111.1 464.2,101 471.1,101 
		471.1,105.7 477.1,101 477.1,101.1 477.1,101 477.1,101.1 498.9,118 495.5,122.9 494.2,121.9 494.2,142 494.2,345.9 	"/>
	<polygon fill="#FFFFFF" points="469.7,340.4 469.7,319.1 484.5,319.1 484.5,322.7 474.1,322.7 474.1,327.8 483,327.8 483,331.4 
		474.1,331.4 474.1,340.4 	"/>
</g>
<g>
	<polygon fill="#E20E1C" points="512.6,346 512.6,117.7 512.6,117.7 512.6,97.6 511.3,98.6 507.9,93.7 516.8,86.8 516.8,76.7 
		523.7,76.7 523.7,81.4 529.7,76.7 529.7,76.8 529.7,76.7 529.7,76.8 551.5,93.7 548.1,98.6 546.8,97.6 546.8,117.7 546.8,346 	"/>
	<path fill="#FFFFFF" d="M530.4,332.2v-3.6h9.3v8.5c-0.9,0.8-2.2,1.6-3.9,2.3c-1.8,0.6-3.5,1-5.3,1c-2.2,0-4.2-0.5-5.9-1.4
		c-1.7-0.9-2.9-2.2-3.8-4s-1.3-3.6-1.3-5.7c0-2.2,0.5-4.2,1.4-5.9c0.9-1.8,2.3-3,4.1-4c1.4-0.7,3.1-1.1,5.1-1.1
		c2.7,0,4.8,0.6,6.2,1.7c1.5,1.1,2.5,2.7,2.9,4.6l-4.3,0.8c-0.3-1.1-0.8-1.9-1.7-2.5c-0.8-0.6-1.9-0.9-3.2-0.9
		c-1.9,0-3.4,0.6-4.6,1.8c-1.1,1.2-1.7,2.9-1.7,5.3c0,2.5,0.6,4.4,1.7,5.7s2.6,1.9,4.5,1.9c0.9,0,1.8-0.2,2.7-0.6
		c0.9-0.4,1.7-0.8,2.4-1.3v-2.7H530.4L530.4,332.2z"/>
</g>
</svg>
