<?xml version="1.0" encoding="utf-8"?>
<!-- Generator: Adobe Illustrator 18.0.0, SVG Export Plug-In . SVG Version: 6.00 Build 0)  -->
<!DOCTYPE svg PUBLIC "-//W3C//DTD SVG 1.1//EN" "http://www.w3.org/Graphics/SVG/1.1/DTD/svg11.dtd">
<svg version="1.1" id="Switch" xmlns="http://www.w3.org/2000/svg" xmlns:xlink="http://www.w3.org/1999/xlink" x="0px" y="0px"
	 viewBox="0 0 190 190" enable-background="new 0 0 190 190" xml:space="preserve">
<g>
	<path fill="#0B2F6B" d="M169.1,92.5l-55,0c-5.8,0-10.6,4.7-10.6,10.6c0,2.8,1.1,5.5,3.1,7.4c2,2,4.6,3.1,7.4,3.1l29.7,0l-22.3,22.3
		c-9.2,9.2-21.4,14.2-34.5,14.2c-9.6,0-18.8-2.8-26.8-8c-1.7-1.1-3.7-1.7-5.7-1.7c-3.5,0-6.7,1.7-8.6,4.6
		c-3.1,4.7-1.8,11.1,2.9,14.3c11.3,7.5,24.5,11.5,38.1,11.5c18.6,0,36-7.2,49.1-20.2l22.5-22.5l0,30.1c0,2.8,1.1,5.5,3.1,7.5
		c2,2,4.6,3.1,7.5,3.1c5.8,0,10.6-4.7,10.6-10.5l0-55.1C179.6,97.2,174.9,92.5,169.1,92.5z"/>
	<path fill="#0B2F6B" d="M179.6,158.1c0,5.8-4.7,10.5-10.6,10.5c-2.8,0-5.5-1.1-7.5-3.1c-2-2-3.1-4.6-3.1-7.5l0-30.1L136,150.5
		c-13,13-30.5,20.2-49.1,20.2c-13.6,0-26.8-4-38.1-11.5c-4.7-3.1-6-9.6-2.9-14.3c1.9-2.9,5.1-4.6,8.6-4.6c2,0,4,0.6,5.7,1.7
		c7.9,5.3,17.2,8,26.8,8c13,0,25.3-5.1,34.5-14.2l22.3-22.3l-29.7,0c-2.8,0-5.5-1.1-7.4-3.1c-2-2-3.1-4.6-3.1-7.4
		c0-5.8,4.7-10.6,10.6-10.6l55,0c5.8,0,10.6,4.7,10.6,10.5L179.6,158.1z"/>
	
		<path fill="none" stroke="#0B2F6B" stroke-width="6.8963" stroke-linecap="round" stroke-linejoin="round" stroke-miterlimit="10" d="
		M10.4,31.9c0-5.8,4.7-10.5,10.6-10.5c2.8,0,5.5,1.1,7.5,3.1s3.1,4.6,3.1,7.5l0,30.1L54,39.5c13-13,30.5-20.2,49.1-20.2
		c13.6,0,26.8,4,38.1,11.5c4.7,3.1,6,9.6,2.9,14.3c-1.9,2.9-5.1,4.6-8.6,4.6c-2,0-4-0.6-5.7-1.7c-7.9-5.3-17.2-8-26.8-8
		c-13,0-25.3,5.1-34.5,14.2L46.3,76.4l29.7,0c2.8,0,5.5,1.1,7.4,3.1c2,2,3.1,4.6,3.1,7.4c0,5.8-4.7,10.6-10.6,10.6l-55,0
		c-5.8,0-10.6-4.7-10.6-10.5L10.4,31.9z"/>
</g>
</svg>
