<?xml version="1.0" encoding="utf-8"?>
<!-- Generator: Adobe Illustrator 18.0.0, SVG Export Plug-In . SVG Version: 6.00 Build 0)  -->
<!DOCTYPE svg PUBLIC "-//W3C//DTD SVG 1.1//EN" "http://www.w3.org/Graphics/SVG/1.1/DTD/svg11.dtd">
<svg version="1.1" id="Layer_1" xmlns="http://www.w3.org/2000/svg" xmlns:xlink="http://www.w3.org/1999/xlink" x="0px" y="0px"
	 width="1618.7px" height="800px" viewBox="-169.4 0 1618.7 800" enable-background="new -169.4 0 1618.7 800" xml:space="preserve"
	>
<rect x="-169.8" fill="#0B2F6B" stroke="#AE855E" stroke-linejoin="round" stroke-miterlimit="10" width="1620.8" height="801.4"/>
<g>
	<g>
		<path fill="#162352" d="M640.8,325.7c-11.4,0-22.1,2.4-32,6.7l-5.2-2.8l-15.3-8.4l0.4,17.4l0.2,6c-18.1,15.1-29.7,37.6-29.7,63
			c0,45.2,36.8,81.7,81.7,81.7c45.2,0,81.7-36.8,81.7-81.9S685.9,325.7,640.8,325.7z M640.8,473.4c-36.3,0-65.8-29.5-65.8-65.8
			c0-36.3,29.5-66,65.8-66s65.8,29.5,65.8,65.8C706.5,444,677.1,473.4,640.8,473.4z"/>
		<path fill="#162352" d="M640.8,279.3C640.5,279.3,640.5,279.3,640.8,279.3c-34.4,0-66.9,13.3-91.2,37.8
			c-24.3,24.3-37.8,56.8-37.8,91.2s13.3,66.7,37.8,91c0.4,0.4,1.1,0.6,1.7,0.6s1.3-0.2,1.9-0.6l14.4-14.8c0.9-1.1,0.9-2.6,0-3.4
			c-1.1-0.9-2.6-0.9-3.4,0l-12.7,13.1c-21.9-22.8-34-52.2-34.6-83.6H532c1.3,0,2.4-1.1,2.4-2.4c0-1.3-1.1-2.4-2.4-2.4h-15.1
			c0.6-31.4,12.9-60.8,34.6-83.4l12.3,12.3c0.4,0.4,1.1,0.6,1.7,0.6s1.3-0.2,1.7-0.6c0.9-1.1,0.9-2.6,0-3.4L555,318.8
			c22.4-21.5,51.4-33.5,82.6-34.4v18.7c0,1.3,1.1,2.4,2.4,2.4c1.3,0,2.4-1.1,2.4-2.4v-18.7c31.4,0.4,61.1,12.5,83.9,34.2l-12.5,12.5
			c-0.9,1.1-0.9,2.6,0,3.4c0.4,0.4,1.1,0.6,1.7,0.6s1.3-0.2,1.7-0.6l12.5-12.5c21.9,22.6,34.2,52,34.8,83.4l0,0h-16.1
			c-1.3,0-2.4,1.1-2.4,2.4c0,1.3,1.1,2.4,2.4,2.4h16.1l0,0c-0.6,31.4-12.7,61.1-34.6,83.6L716.9,481c-0.9-0.9-2.6-0.9-3.4,0
			c-0.9,0.9-0.9,2.6,0,3.4l14.6,14.8c0.4,0.4,1.1,0.6,1.7,0.6s1.3-0.2,1.7-0.6c24.3-24.3,37.8-56.8,37.8-91.2s-13.3-66.7-37.8-91
			C707.4,292.8,675.2,279.3,640.8,279.3z"/>
		<path fill="#162352" d="M774.1,235.6H505.9c-16.8,0-30.3,13.5-30.3,30.3v268.1c0,16.8,13.5,30.3,30.3,30.3h268.1
			c8.2,0,15.7-3.2,21.5-8.8c5.8-5.8,8.8-13.3,8.8-21.5V265.9C804.4,249.2,790.8,235.6,774.1,235.6z M787.8,534.1
			c0,3.7-1.3,7.1-3.9,9.7c-2.6,2.6-6,4.1-9.9,4.1H505.9c-7.7,0-14-6.2-14-14V265.9c0-7.7,6.2-14,14-14h267.9c7.7,0,14,6.2,14,14
			V534.1z"/>
	</g>
</g>
</svg>
