<?xml version="1.0" encoding="utf-8"?>
<!-- Generator: Adobe Illustrator 18.0.0, SVG Export Plug-In . SVG Version: 6.00 Build 0)  -->
<!DOCTYPE svg PUBLIC "-//W3C//DTD SVG 1.1//EN" "http://www.w3.org/Graphics/SVG/1.1/DTD/svg11.dtd">
<svg version="1.1" id="Electrical_Tips" xmlns="http://www.w3.org/2000/svg" xmlns:xlink="http://www.w3.org/1999/xlink" x="0px"
	 y="0px" viewBox="0 0 111.3 111.3" enable-background="new 0 0 111.3 111.3" xml:space="preserve">
<circle fill="#00AAED" cx="55.8" cy="56.2" r="54.5"/>
<g>
	<defs>
		<circle id="SVGID_1_" cx="55.8" cy="56.2" r="54.5"/>
	</defs>
	<clipPath id="SVGID_2_">
		<use xlink:href="#SVGID_1_"  overflow="visible"/>
	</clipPath>
	<g clip-path="url(#SVGID_2_)">
		<path fill="#0092D3" d="M125,72.1l-0.3,0.3l-53.1,53.1L29.1,83c-1-1-1.6-2.3-1.6-3.8v-46c0-2.9,2.4-5.3,5.3-5.3h46
			c1.5,0,2.8,0.6,3.7,1.6L125,72.1z"/>
	</g>
</g>
<g>
	<path fill="#FFFFFF" d="M78.8,84.5h-46c-2.9,0-5.3-2.4-5.3-5.3v-46c0-2.9,2.4-5.3,5.3-5.3h46c2.9,0,5.3,2.4,5.3,5.3v46
		C84.1,82.1,81.7,84.5,78.8,84.5z M32.8,31.7c-0.8,0-1.5,0.7-1.5,1.5v46c0,0.8,0.7,1.5,1.5,1.5h46c0.8,0,1.5-0.7,1.5-1.5v-46
		c0-0.8-0.7-1.5-1.5-1.5H32.8z"/>
	<rect x="41.3" y="61" fill="#FFFFFF" width="9.7" height="6.7"/>
	<rect x="52.4" y="41" fill="#FFFFFF" width="6.7" height="10.4"/>
	<rect x="60.6" y="61" fill="#FFFFFF" width="10.4" height="6.7"/>
</g>
</svg>
