<?xml version="1.0" encoding="utf-8"?>
<!-- Generator: Adobe Illustrator 18.0.0, SVG Export Plug-In . SVG Version: 6.00 Build 0)  -->
<!DOCTYPE svg PUBLIC "-//W3C//DTD SVG 1.1//EN" "http://www.w3.org/Graphics/SVG/1.1/DTD/svg11.dtd">
<svg version="1.1" id="Layer_1" xmlns="http://www.w3.org/2000/svg" xmlns:xlink="http://www.w3.org/1999/xlink" x="0px" y="0px"
	 width="44.009px" height="44.009px" viewBox="0 0 44.009 44.009" enable-background="new 0 0 44.009 44.009" xml:space="preserve">
<g>
	<path fill="#0099FF" d="M22.0045,2.5359c10.735,0,19.4686,8.7336,19.4686,19.4686s-8.7336,19.4686-19.4686,19.4686
		c-10.735,0-19.4686-8.7336-19.4686-19.4686S11.2695,2.5359,22.0045,2.5359 M22.0045,0.5359
		c-11.8568,0-21.4686,9.6118-21.4686,21.4686s9.6118,21.4686,21.4686,21.4686s21.4686-9.6118,21.4686-21.4686
		S33.8613,0.5359,22.0045,0.5359L22.0045,0.5359z"/>
	<g>
		<path fill="#0099FF" d="M30.9319,23.3671c0,0.6509-0.5283,1.1792-1.1792,1.1792H14.8162c-0.6509,0-1.1792-0.5283-1.1792-1.1792
			v-2.3584c0-0.6509,0.5283-1.1792,1.1792-1.1792h14.9365c0.6509,0,1.1792,0.5283,1.1792,1.1792V23.3671z"/>
	</g>
</g>
</svg>
