<?xml version="1.0" encoding="utf-8"?>
<!-- Generator: Adobe Illustrator 18.0.0, SVG Export Plug-In . SVG Version: 6.00 Build 0)  -->
<!DOCTYPE svg PUBLIC "-//W3C//DTD SVG 1.1//EN" "http://www.w3.org/Graphics/SVG/1.1/DTD/svg11.dtd">
<svg version="1.1" id="Layer_1" xmlns="http://www.w3.org/2000/svg" xmlns:xlink="http://www.w3.org/1999/xlink" x="0px" y="0px"
	 width="44.009px" height="44.009px" viewBox="0 0 44.009 44.009" enable-background="new 0 0 44.009 44.009" xml:space="preserve">
<g>
	<circle fill="#0099FF" cx="22.0045" cy="22.0045" r="21.4686"/>
	<g>
		<path fill="#FFFFFF" d="M30.9163,23.3603c0,0.6509-0.5283,1.1792-1.1787,1.1792h-5.1104v5.1099
			c0,0.6509-0.5283,1.1792-1.1787,1.1792h-2.3584c-0.6514,0-1.1797-0.5283-1.1797-1.1792v-5.1099H14.801
			c-0.6514,0-1.1797-0.5283-1.1797-1.1792v-2.3584c0-0.6509,0.5283-1.1792,1.1797-1.1792h5.1094v-5.1099
			c0-0.6509,0.5283-1.1792,1.1797-1.1792h2.3584c0.6504,0,1.1787,0.5283,1.1787,1.1792v5.1099h5.1104
			c0.6504,0,1.1787,0.5283,1.1787,1.1792V23.3603z"/>
	</g>
</g>
</svg>
