<?xml version="1.0" encoding="utf-8"?>
<!-- Generator: Adobe Illustrator 18.0.0, SVG Export Plug-In . SVG Version: 6.00 Build 0)  -->
<!DOCTYPE svg PUBLIC "-//W3C//DTD SVG 1.1//EN" "http://www.w3.org/Graphics/SVG/1.1/DTD/svg11.dtd">
<svg version="1.1" id="Layer_1" xmlns="http://www.w3.org/2000/svg" xmlns:xlink="http://www.w3.org/1999/xlink" x="0px" y="0px"
	 viewBox="0 0 225 70" enable-background="new 0 0 225 70" xml:space="preserve">
<g>
	<path fill="#F37820" stroke="#F37820" stroke-width="1.5" stroke-miterlimit="10" d="M32.3,27c0,3.9-1.3,6.5-3.9,8
		c-2.4,1.3-6.5,2-12.4,2c-5.2,0-8.7-0.7-10.6-2.2c-1.7-1.3-2.6-3.8-2.6-7.4h6.9c0,1.9,0.4,3.1,1.3,3.6c0.9,0.6,2.9,0.9,5.9,0.9
		c2.6,0,4.3-0.1,5.2-0.3c2.2-0.5,3.4-2.3,3.4-5.4l-0.2-5.8h0c-0.8,1.3-1.9,2.2-3.2,2.6c-1.4,0.4-3.5,0.6-6.3,0.6
		c-4.9,0-8.2-0.7-10-2.1c-1.8-1.4-2.7-4-2.7-8c0-4.4,1.2-7.3,3.5-8.8c1.9-1.2,5.5-1.8,10.9-1.8c6,0,9.9,0.7,11.6,2.2
		c2.2,1.8,3.2,6,3.2,12.6V27z M25.3,13.6c0-2.4-0.6-4-1.8-4.6c-0.9-0.5-2.9-0.8-6.1-0.8c-3.3,0-5.3,0.3-6.2,0.9
		c-0.9,0.6-1.4,2.1-1.4,4.5c0,2.1,0.4,3.4,1.2,4c0.8,0.6,3,0.9,6.4,0.9c3.4,0,5.6-0.2,6.5-0.7C24.9,17.1,25.3,15.8,25.3,13.6z"/>
	<path fill="#F37820" stroke="#F37820" stroke-width="1.5" stroke-miterlimit="10" d="M69,29.6h-4.5v7.1h-6.9v-7.1H36.9v-6.9
		L53.7,3.2h10.8v21.5H69V29.6z M57.6,24.8V7.9h-0.2L42.7,24.8H57.6z"/>
	<path fill="#F37820" stroke="#F37820" stroke-width="1.5" stroke-miterlimit="10" d="M80.7,7.1c0,2.1-0.3,3.3-0.7,3.9
		c-0.5,0.5-1.8,0.8-3.8,0.8c-1.9,0-3.1-0.2-3.6-0.7c-0.6-0.6-0.9-2-0.9-4.2c0-1.9,0.3-3.1,0.9-3.6c0.6-0.5,1.7-0.8,3.6-0.8
		c2.1,0,3.5,0.4,4,1.1C80.5,4.1,80.7,5.2,80.7,7.1z M78.3,7.1c0-0.4,0-0.7,0-0.9c0-0.9-0.1-1.4-0.3-1.6c-0.2-0.2-0.9-0.3-1.9-0.3
		c-1,0-1.6,0.1-1.8,0.4c-0.2,0.3-0.3,1-0.3,2.3c0,1.4,0.1,2.3,0.3,2.6s0.8,0.4,1.8,0.4c1.1,0,1.7-0.1,1.9-0.4
		C78.2,9.3,78.3,8.5,78.3,7.1z M91.5,2.7L78.5,20.8h-2.6l13-18.2H91.5z M95.5,16.3c0,2-0.2,3.3-0.7,3.8C94.3,20.7,93,21,90.9,21
		c-2,0-3.3-0.3-3.8-0.9c-0.4-0.5-0.6-1.8-0.6-3.8c0-1.9,0.2-3,0.6-3.6c0.6-0.7,1.8-1,3.8-1c2,0,3.3,0.3,3.8,0.8
		C95.2,13.1,95.5,14.4,95.5,16.3z M93.1,16.4c0-1.4-0.1-2.2-0.3-2.4c-0.2-0.2-0.9-0.3-2-0.3c-1,0-1.6,0.1-1.8,0.4
		c-0.2,0.2-0.3,1-0.3,2.4c0,1.4,0.1,2.2,0.3,2.5c0.2,0.2,0.8,0.4,1.8,0.4c1.1,0,1.7-0.1,1.9-0.3C93,18.6,93.1,17.8,93.1,16.4z"/>
</g>
<g>
	<path fill="#646462" d="M111.9,21V7.5h5.7c1.4,0,2.5,0.1,3.1,0.4c0.7,0.2,1.2,0.7,1.6,1.3s0.6,1.3,0.6,2.1c0,1-0.3,1.8-0.9,2.5
		c-0.6,0.7-1.5,1.1-2.7,1.2c0.6,0.3,1.1,0.7,1.5,1.1c0.4,0.4,0.9,1.1,1.5,2.2L124,21h-3.3l-2-2.9c-0.7-1-1.2-1.7-1.4-2
		s-0.5-0.5-0.8-0.6s-0.7-0.2-1.4-0.2h-0.6V21H111.9z M114.6,13.2h2c1.3,0,2.1-0.1,2.4-0.2c0.3-0.1,0.6-0.3,0.8-0.6
		c0.2-0.3,0.3-0.6,0.3-1c0-0.5-0.1-0.8-0.4-1.1c-0.2-0.3-0.6-0.5-1-0.5c-0.2,0-0.9,0-2,0h-2.1V13.2z"/>
	<path fill="#646462" d="M131.1,17.8l2.6,0.4c-0.3,0.9-0.9,1.7-1.6,2.2c-0.7,0.5-1.6,0.7-2.7,0.7c-1.7,0-3-0.6-3.8-1.7
		c-0.6-0.9-1-2-1-3.4c0-1.6,0.4-2.9,1.3-3.8c0.8-0.9,1.9-1.4,3.2-1.4c1.5,0,2.6,0.5,3.4,1.4s1.2,2.4,1.2,4.4h-6.5
		c0,0.8,0.2,1.4,0.6,1.8c0.4,0.4,0.9,0.6,1.5,0.6c0.4,0,0.7-0.1,1-0.3C130.8,18.7,131,18.3,131.1,17.8z M131.3,15.2
		c0-0.7-0.2-1.3-0.6-1.7c-0.4-0.4-0.8-0.6-1.3-0.6c-0.6,0-1,0.2-1.4,0.6c-0.4,0.4-0.5,1-0.5,1.7H131.3z"/>
	<path fill="#646462" d="M144.4,14.1l-2.5,0.5c-0.1-0.5-0.3-0.9-0.6-1.1c-0.3-0.3-0.7-0.4-1.2-0.4c-0.6,0-1.2,0.2-1.5,0.7
		c-0.4,0.4-0.6,1.2-0.6,2.2c0,1.2,0.2,2,0.6,2.5c0.4,0.5,0.9,0.7,1.6,0.7c0.5,0,0.9-0.1,1.2-0.4c0.3-0.3,0.5-0.8,0.7-1.4l2.5,0.4
		c-0.3,1.2-0.8,2-1.5,2.6c-0.7,0.6-1.8,0.9-3,0.9c-1.4,0-2.6-0.5-3.4-1.4c-0.8-0.9-1.3-2.1-1.3-3.7c0-1.6,0.4-2.9,1.3-3.8
		c0.9-0.9,2-1.3,3.5-1.3c1.2,0,2.1,0.3,2.8,0.8S144.1,13,144.4,14.1z"/>
	<path fill="#646462" d="M145.8,15.9c0-0.9,0.2-1.7,0.6-2.5c0.4-0.8,1-1.4,1.8-1.8c0.8-0.4,1.6-0.6,2.6-0.6c1.5,0,2.7,0.5,3.6,1.4
		c0.9,1,1.4,2.2,1.4,3.6c0,1.5-0.5,2.7-1.4,3.7s-2.2,1.5-3.6,1.5c-0.9,0-1.7-0.2-2.6-0.6s-1.4-1-1.9-1.8S145.8,17.1,145.8,15.9z
		 M148.5,16.1c0,1,0.2,1.7,0.7,2.2c0.5,0.5,1,0.8,1.7,0.8c0.7,0,1.2-0.3,1.7-0.8c0.5-0.5,0.7-1.3,0.7-2.2c0-1-0.2-1.7-0.7-2.2
		c-0.5-0.5-1-0.8-1.7-0.8c-0.7,0-1.2,0.3-1.7,0.8C148.7,14.4,148.5,15.1,148.5,16.1z"/>
	<path fill="#646462" d="M157.7,11.2h2.4v1.3c0.9-1,1.9-1.6,3-1.6c0.6,0,1.2,0.1,1.6,0.4c0.5,0.3,0.8,0.6,1.1,1.2
		c0.4-0.5,0.9-0.9,1.4-1.2c0.5-0.3,1-0.4,1.6-0.4c0.7,0,1.3,0.1,1.8,0.4c0.5,0.3,0.9,0.7,1.1,1.3c0.2,0.4,0.3,1.1,0.3,2V21h-2.6
		v-5.6c0-1-0.1-1.6-0.3-1.9c-0.2-0.4-0.6-0.6-1.1-0.6c-0.4,0-0.7,0.1-1,0.3c-0.3,0.2-0.5,0.5-0.7,1c-0.1,0.4-0.2,1.1-0.2,2V21h-2.6
		v-5.4c0-1,0-1.6-0.1-1.8c-0.1-0.3-0.2-0.5-0.4-0.6s-0.5-0.2-0.8-0.2c-0.4,0-0.8,0.1-1.1,0.3c-0.3,0.2-0.5,0.5-0.7,0.9
		c-0.1,0.4-0.2,1.1-0.2,2V21h-2.6V11.2z"/>
	<path fill="#646462" d="M174.5,11.2h2.4v1.3c0.9-1,1.9-1.6,3-1.6c0.6,0,1.2,0.1,1.6,0.4c0.5,0.3,0.8,0.6,1.1,1.2
		c0.4-0.5,0.9-0.9,1.4-1.2c0.5-0.3,1-0.4,1.6-0.4c0.7,0,1.3,0.1,1.8,0.4c0.5,0.3,0.9,0.7,1.1,1.3c0.2,0.4,0.3,1.1,0.3,2V21h-2.6
		v-5.6c0-1-0.1-1.6-0.3-1.9c-0.2-0.4-0.6-0.6-1.1-0.6c-0.4,0-0.7,0.1-1,0.3c-0.3,0.2-0.5,0.5-0.7,1c-0.1,0.4-0.2,1.1-0.2,2V21h-2.6
		v-5.4c0-1,0-1.6-0.1-1.8c-0.1-0.3-0.2-0.5-0.4-0.6s-0.5-0.2-0.8-0.2c-0.4,0-0.8,0.1-1.1,0.3c-0.3,0.2-0.5,0.5-0.7,0.9
		c-0.1,0.4-0.2,1.1-0.2,2V21h-2.6V11.2z"/>
	<path fill="#646462" d="M197.1,17.8l2.6,0.4c-0.3,0.9-0.9,1.7-1.6,2.2c-0.7,0.5-1.6,0.7-2.7,0.7c-1.7,0-3-0.6-3.8-1.7
		c-0.6-0.9-1-2-1-3.4c0-1.6,0.4-2.9,1.3-3.8c0.8-0.9,1.9-1.4,3.2-1.4c1.5,0,2.6,0.5,3.4,1.4s1.2,2.4,1.2,4.4h-6.5
		c0,0.8,0.2,1.4,0.6,1.8c0.4,0.4,0.9,0.6,1.5,0.6c0.4,0,0.7-0.1,1-0.3C196.7,18.7,196.9,18.3,197.1,17.8z M197.2,15.2
		c0-0.7-0.2-1.3-0.6-1.7c-0.4-0.4-0.8-0.6-1.3-0.6c-0.6,0-1,0.2-1.4,0.6c-0.4,0.4-0.5,1-0.5,1.7H197.2z"/>
	<path fill="#646462" d="M210.8,21h-2.6v-5c0-1.1-0.1-1.7-0.2-2s-0.3-0.6-0.5-0.7c-0.2-0.2-0.5-0.3-0.9-0.3c-0.4,0-0.8,0.1-1.2,0.4
		c-0.4,0.2-0.6,0.6-0.7,1s-0.2,1.2-0.2,2.2V21h-2.6v-9.8h2.4v1.4c0.9-1.1,1.9-1.7,3.2-1.7c0.6,0,1.1,0.1,1.6,0.3
		c0.5,0.2,0.8,0.5,1.1,0.8c0.2,0.3,0.4,0.7,0.5,1.1c0.1,0.4,0.1,1,0.1,1.7V21z"/>
	<path fill="#646462" d="M222.3,21h-2.4v-1.4c-0.4,0.6-0.9,1-1.4,1.2c-0.5,0.3-1.1,0.4-1.6,0.4c-1.1,0-2.1-0.5-2.9-1.4
		s-1.2-2.2-1.2-3.8c0-1.7,0.4-2.9,1.2-3.8c0.8-0.9,1.8-1.3,3-1.3c1.1,0,2,0.5,2.8,1.4V7.5h2.6V21z M215.4,15.9c0,1,0.1,1.8,0.4,2.3
		c0.4,0.7,1,1,1.7,1c0.6,0,1.1-0.3,1.5-0.8c0.4-0.5,0.6-1.3,0.6-2.3c0-1.1-0.2-1.9-0.6-2.4c-0.4-0.5-0.9-0.7-1.6-0.7
		c-0.6,0-1.1,0.2-1.5,0.7S215.4,14.9,215.4,15.9z"/>
	<path fill="#646462" d="M111.4,28.6h3.4c0.7,0,1.2,0,1.5,0.1c0.3,0.1,0.6,0.2,0.9,0.3c0.3,0.2,0.5,0.4,0.6,0.7
		c0.2,0.3,0.3,0.6,0.3,1c0,0.4-0.1,0.8-0.3,1.1s-0.5,0.6-0.9,0.7c0.5,0.1,0.9,0.4,1.2,0.8c0.3,0.4,0.4,0.8,0.4,1.3
		c0,0.4-0.1,0.8-0.3,1.1s-0.4,0.6-0.7,0.9c-0.3,0.2-0.7,0.3-1.1,0.4c-0.3,0-1,0-2,0.1h-2.9V28.6z M113.1,30v1.9h1.1
		c0.7,0,1.1,0,1.2,0c0.3,0,0.5-0.1,0.7-0.3c0.2-0.2,0.3-0.4,0.3-0.7c0-0.3-0.1-0.5-0.2-0.6c-0.1-0.2-0.4-0.3-0.6-0.3
		c-0.2,0-0.7,0-1.4,0H113.1z M113.1,33.3v2.2h1.6c0.6,0,1,0,1.2-0.1c0.3,0,0.5-0.2,0.6-0.3c0.2-0.2,0.2-0.4,0.2-0.7
		c0-0.3-0.1-0.5-0.2-0.6c-0.1-0.2-0.3-0.3-0.5-0.4c-0.2-0.1-0.7-0.1-1.5-0.1H113.1z"/>
	<path fill="#646462" d="M121.4,37h-1.6v-6.1h1.5v0.9c0.3-0.4,0.5-0.7,0.7-0.8s0.4-0.2,0.7-0.2c0.4,0,0.7,0.1,1.1,0.3l-0.5,1.4
		c-0.3-0.2-0.5-0.3-0.8-0.3c-0.2,0-0.4,0.1-0.6,0.2c-0.2,0.1-0.3,0.3-0.4,0.7c-0.1,0.3-0.1,1-0.1,2V37z"/>
	<path fill="#646462" d="M124.4,30v-1.5h1.6V30H124.4z M124.4,37v-6.1h1.6V37H124.4z"/>
	<path fill="#646462" d="M130.4,30.9v1.3h-1.1v2.5c0,0.5,0,0.8,0,0.9c0,0.1,0.1,0.1,0.1,0.2c0.1,0.1,0.2,0.1,0.3,0.1
		c0.1,0,0.4-0.1,0.6-0.2l0.1,1.2c-0.4,0.2-0.8,0.2-1.3,0.2c-0.3,0-0.6,0-0.8-0.1c-0.2-0.1-0.4-0.2-0.5-0.4c-0.1-0.2-0.2-0.4-0.2-0.6
		c0-0.2-0.1-0.6-0.1-1.1v-2.7H127v-1.3h0.7v-1.2l1.6-0.9v2.1H130.4z"/>
	<path fill="#646462" d="M131.5,30v-1.5h1.6V30H131.5z M131.5,37v-6.1h1.6V37H131.5z"/>
	<path fill="#646462" d="M134.2,35.2l1.6-0.2c0.1,0.3,0.2,0.6,0.4,0.7c0.2,0.2,0.5,0.2,0.9,0.2c0.4,0,0.7-0.1,0.9-0.2
		c0.1-0.1,0.2-0.3,0.2-0.4c0-0.1,0-0.2-0.1-0.3c-0.1-0.1-0.3-0.1-0.5-0.2c-1.3-0.3-2.1-0.5-2.5-0.8c-0.5-0.3-0.7-0.8-0.7-1.4
		c0-0.5,0.2-1,0.6-1.3s1.1-0.5,1.9-0.5c0.8,0,1.5,0.1,1.9,0.4c0.4,0.3,0.7,0.7,0.8,1.2l-1.5,0.3c-0.1-0.2-0.2-0.4-0.4-0.5
		c-0.2-0.1-0.4-0.2-0.8-0.2c-0.4,0-0.7,0.1-0.9,0.2c-0.1,0.1-0.2,0.2-0.2,0.3c0,0.1,0.1,0.2,0.2,0.3c0.1,0.1,0.6,0.3,1.5,0.5
		s1.5,0.4,1.8,0.7c0.3,0.3,0.5,0.7,0.5,1.2c0,0.6-0.2,1-0.7,1.4s-1.2,0.6-2.1,0.6c-0.8,0-1.5-0.2-2-0.5
		C134.7,36.2,134.4,35.8,134.2,35.2z"/>
	<path fill="#646462" d="M142.9,28.6v3.1c0.5-0.6,1.1-0.9,1.9-0.9c0.4,0,0.7,0.1,1,0.2c0.3,0.1,0.5,0.3,0.7,0.5
		c0.2,0.2,0.3,0.5,0.3,0.7c0.1,0.3,0.1,0.7,0.1,1.2V37h-1.6v-3.2c0-0.6,0-1-0.1-1.2s-0.2-0.3-0.3-0.4c-0.2-0.1-0.3-0.2-0.6-0.2
		c-0.3,0-0.5,0.1-0.7,0.2c-0.2,0.1-0.4,0.3-0.5,0.6c-0.1,0.3-0.1,0.6-0.1,1.2v3h-1.6v-8.4H142.9z"/>
	<path fill="#646462" d="M155.7,33.9v-1.4h3.7v3.3c-0.4,0.3-0.9,0.6-1.5,0.9c-0.7,0.3-1.4,0.4-2,0.4c-0.9,0-1.6-0.2-2.3-0.6
		c-0.7-0.4-1.1-0.9-1.5-1.6c-0.3-0.7-0.5-1.4-0.5-2.2c0-0.9,0.2-1.7,0.5-2.3c0.4-0.7,0.9-1.2,1.6-1.6c0.5-0.3,1.2-0.4,2-0.4
		c1,0,1.9,0.2,2.4,0.7c0.6,0.4,1,1,1.1,1.8l-1.7,0.3c-0.1-0.4-0.3-0.7-0.7-1c-0.3-0.2-0.7-0.4-1.2-0.4c-0.7,0-1.3,0.2-1.8,0.7
		c-0.4,0.5-0.7,1.2-0.7,2.1c0,1,0.2,1.7,0.7,2.2c0.4,0.5,1,0.7,1.7,0.7c0.4,0,0.7-0.1,1.1-0.2c0.4-0.1,0.7-0.3,0.9-0.5v-1.1H155.7z"
		/>
	<path fill="#646462" d="M162.1,32.7l-1.5-0.3c0.2-0.6,0.4-1,0.8-1.3c0.4-0.3,1-0.4,1.8-0.4c0.7,0,1.3,0.1,1.6,0.3
		c0.4,0.2,0.6,0.4,0.7,0.6c0.1,0.3,0.2,0.7,0.2,1.4l0,1.9c0,0.5,0,0.9,0.1,1.2c0.1,0.3,0.1,0.5,0.3,0.8h-1.6c0-0.1-0.1-0.3-0.2-0.5
		c0-0.1,0-0.2-0.1-0.2c-0.3,0.3-0.6,0.5-0.9,0.6c-0.3,0.1-0.6,0.2-1,0.2c-0.6,0-1.1-0.2-1.5-0.5c-0.4-0.3-0.5-0.8-0.5-1.3
		c0-0.3,0.1-0.6,0.2-0.9c0.2-0.3,0.4-0.5,0.7-0.6s0.7-0.3,1.3-0.4c0.8-0.1,1.3-0.3,1.6-0.4v-0.2c0-0.3-0.1-0.5-0.2-0.7
		c-0.2-0.1-0.4-0.2-0.9-0.2c-0.3,0-0.5,0.1-0.7,0.2S162.2,32.4,162.1,32.7z M164.2,34c-0.2,0.1-0.5,0.2-1,0.2
		c-0.4,0.1-0.7,0.2-0.9,0.3c-0.2,0.1-0.3,0.3-0.3,0.6c0,0.2,0.1,0.4,0.3,0.6s0.4,0.2,0.6,0.2c0.3,0,0.6-0.1,0.8-0.3
		c0.2-0.1,0.3-0.3,0.4-0.5c0-0.1,0.1-0.4,0.1-0.8V34z"/>
	<path fill="#646462" d="M166.8,35.2l1.6-0.2c0.1,0.3,0.2,0.6,0.4,0.7c0.2,0.2,0.5,0.2,0.9,0.2c0.4,0,0.7-0.1,0.9-0.2
		c0.1-0.1,0.2-0.3,0.2-0.4c0-0.1,0-0.2-0.1-0.3c-0.1-0.1-0.3-0.1-0.5-0.2c-1.3-0.3-2.1-0.5-2.5-0.8c-0.5-0.3-0.7-0.8-0.7-1.4
		c0-0.5,0.2-1,0.6-1.3s1.1-0.5,1.9-0.5c0.8,0,1.5,0.1,1.9,0.4c0.4,0.3,0.7,0.7,0.8,1.2l-1.5,0.3c-0.1-0.2-0.2-0.4-0.4-0.5
		c-0.2-0.1-0.4-0.2-0.8-0.2c-0.4,0-0.7,0.1-0.9,0.2c-0.1,0.1-0.2,0.2-0.2,0.3c0,0.1,0.1,0.2,0.2,0.3c0.1,0.1,0.6,0.3,1.5,0.5
		s1.5,0.4,1.8,0.7c0.3,0.3,0.5,0.7,0.5,1.2c0,0.6-0.2,1-0.7,1.4s-1.2,0.6-2.1,0.6c-0.8,0-1.5-0.2-2-0.5
		C167.3,36.2,167,35.8,166.8,35.2z"/>
	<path fill="#646462" d="M176.8,34.2l1.6-0.2c0.1,0.6,0.3,1,0.6,1.2c0.3,0.3,0.7,0.4,1.2,0.4c0.5,0,1-0.1,1.2-0.3
		c0.3-0.2,0.4-0.5,0.4-0.8c0-0.2-0.1-0.4-0.2-0.5s-0.3-0.3-0.6-0.4c-0.2-0.1-0.7-0.2-1.4-0.4c-0.9-0.2-1.5-0.5-1.9-0.8
		c-0.5-0.5-0.8-1-0.8-1.7c0-0.4,0.1-0.8,0.4-1.2c0.2-0.4,0.6-0.7,1-0.9c0.5-0.2,1-0.3,1.7-0.3c1.1,0,1.8,0.2,2.4,0.7
		c0.5,0.5,0.8,1.1,0.8,1.8l-1.7,0.1c-0.1-0.4-0.2-0.7-0.5-0.9s-0.6-0.3-1.1-0.3c-0.5,0-0.9,0.1-1.2,0.3c-0.2,0.1-0.3,0.3-0.3,0.5
		c0,0.2,0.1,0.4,0.3,0.5c0.2,0.2,0.7,0.4,1.6,0.6c0.8,0.2,1.4,0.4,1.8,0.6c0.4,0.2,0.7,0.5,0.9,0.9c0.2,0.4,0.3,0.8,0.3,1.3
		c0,0.5-0.1,0.9-0.4,1.4c-0.3,0.4-0.6,0.7-1.1,0.9c-0.5,0.2-1.1,0.3-1.8,0.3c-1.1,0-1.9-0.2-2.4-0.7
		C177.2,35.9,176.9,35.2,176.8,34.2z"/>
	<path fill="#646462" d="M188.5,35l1.6,0.3c-0.2,0.6-0.5,1-1,1.3c-0.4,0.3-1,0.5-1.7,0.5c-1.1,0-1.8-0.3-2.3-1
		c-0.4-0.6-0.6-1.3-0.6-2.1c0-1,0.3-1.8,0.8-2.4c0.5-0.6,1.2-0.9,2-0.9c0.9,0,1.6,0.3,2.1,0.9s0.8,1.5,0.8,2.7h-4
		c0,0.5,0.1,0.8,0.4,1.1c0.2,0.3,0.6,0.4,0.9,0.4c0.3,0,0.5-0.1,0.6-0.2C188.3,35.5,188.4,35.3,188.5,35z M188.6,33.4
		c0-0.5-0.1-0.8-0.4-1.1c-0.2-0.2-0.5-0.4-0.8-0.4c-0.4,0-0.6,0.1-0.9,0.4c-0.2,0.3-0.3,0.6-0.3,1H188.6z"/>
	<path fill="#646462" d="M193.1,37h-1.6v-6.1h1.5v0.9c0.3-0.4,0.5-0.7,0.7-0.8s0.4-0.2,0.7-0.2c0.4,0,0.7,0.1,1.1,0.3l-0.5,1.4
		c-0.3-0.2-0.5-0.3-0.8-0.3c-0.2,0-0.4,0.1-0.6,0.2c-0.2,0.1-0.3,0.3-0.4,0.7c-0.1,0.3-0.1,1-0.1,2V37z"/>
	<path fill="#646462" d="M197.8,37l-2.5-6.1h1.7l1.1,3.1l0.3,1c0.1-0.3,0.1-0.4,0.2-0.5c0.1-0.2,0.1-0.3,0.2-0.5l1.2-3.1h1.7
		l-2.4,6.1H197.8z"/>
	<path fill="#646462" d="M202.6,30v-1.5h1.6V30H202.6z M202.6,37v-6.1h1.6V37H202.6z"/>
	<path fill="#646462" d="M211.2,32.7l-1.6,0.3c-0.1-0.3-0.2-0.6-0.4-0.7c-0.2-0.2-0.4-0.2-0.7-0.2c-0.4,0-0.7,0.1-1,0.4
		c-0.2,0.3-0.4,0.7-0.4,1.4c0,0.7,0.1,1.2,0.4,1.5c0.2,0.3,0.6,0.4,1,0.4c0.3,0,0.6-0.1,0.8-0.3c0.2-0.2,0.3-0.5,0.4-0.9l1.6,0.3
		c-0.2,0.7-0.5,1.3-0.9,1.6s-1.1,0.6-1.9,0.6c-0.9,0-1.6-0.3-2.1-0.8c-0.5-0.6-0.8-1.3-0.8-2.3c0-1,0.3-1.8,0.8-2.3
		c0.5-0.6,1.2-0.8,2.2-0.8c0.7,0,1.3,0.2,1.8,0.5C210.7,31.5,211,32,211.2,32.7z"/>
	<path fill="#646462" d="M215.9,35l1.6,0.3c-0.2,0.6-0.5,1-1,1.3c-0.4,0.3-1,0.5-1.7,0.5c-1.1,0-1.8-0.3-2.3-1
		c-0.4-0.6-0.6-1.3-0.6-2.1c0-1,0.3-1.8,0.8-2.4c0.5-0.6,1.2-0.9,2-0.9c0.9,0,1.6,0.3,2.1,0.9s0.8,1.5,0.8,2.7h-4
		c0,0.5,0.1,0.8,0.4,1.1c0.2,0.3,0.6,0.4,0.9,0.4c0.3,0,0.5-0.1,0.6-0.2C215.7,35.5,215.8,35.3,215.9,35z M216,33.4
		c0-0.5-0.1-0.8-0.4-1.1c-0.2-0.2-0.5-0.4-0.8-0.4c-0.4,0-0.6,0.1-0.9,0.4c-0.2,0.3-0.3,0.6-0.3,1H216z"/>
	<path fill="#646462" d="M218.3,35.2L220,35c0.1,0.3,0.2,0.6,0.4,0.7c0.2,0.2,0.5,0.2,0.9,0.2c0.4,0,0.7-0.1,0.9-0.2
		c0.1-0.1,0.2-0.3,0.2-0.4c0-0.1,0-0.2-0.1-0.3c-0.1-0.1-0.3-0.1-0.5-0.2c-1.3-0.3-2.1-0.5-2.5-0.8c-0.5-0.3-0.7-0.8-0.7-1.4
		c0-0.5,0.2-1,0.6-1.3s1.1-0.5,1.9-0.5c0.8,0,1.5,0.1,1.9,0.4c0.4,0.3,0.7,0.7,0.8,1.2l-1.5,0.3c-0.1-0.2-0.2-0.4-0.4-0.5
		c-0.2-0.1-0.4-0.2-0.8-0.2c-0.4,0-0.7,0.1-0.9,0.2c-0.1,0.1-0.2,0.2-0.2,0.3c0,0.1,0.1,0.2,0.2,0.3c0.1,0.1,0.6,0.3,1.5,0.5
		s1.5,0.4,1.8,0.7c0.3,0.3,0.5,0.7,0.5,1.2c0,0.6-0.2,1-0.7,1.4s-1.2,0.6-2.1,0.6c-0.8,0-1.5-0.2-2-0.5
		C218.8,36.2,218.5,35.8,218.3,35.2z"/>
</g>
<g>
	<path fill="#F37820" d="M97.7,53.6c-2.4,0-4.4,2.1-4.4,4.4c0,0.4,0.1,2.6,2.5,4c0.9,0.5,1.1,2,0.3,2.7c-0.1,0.1-0.1,0.4,0.1,0.4
		c0.2,0,0.9-0.2,1.9-0.6c2.2-1,4-3.6,4-6.4C102.1,55.6,100.2,53.6,97.7,53.6z"/>
	<path fill="#3162AD" d="M88.3,47.4c2.4,0,4.4,2.1,4.4,4.4c0,0.4-0.1,2.6-2.5,4c-0.9,0.5-1.1,2-0.3,2.7c0.1,0.1,0.1,0.4-0.1,0.4
		c-0.2,0-0.9-0.2-1.9-0.6c-2.2-1-4-3.6-4-6.4C83.9,49.4,85.9,47.4,88.3,47.4z"/>
	<path fill="#F37820" d="M18.6,53.5c-4.2,0-5.5,2.4-5.5,5.2v3.5c0,3.2,1.4,5.1,5.6,5.1c1.6,0,3.4-0.3,4.9-0.8L23,64
		c-1.4,0.4-2.8,0.6-4,0.6c-2,0-2.6-0.6-2.6-2.2v-0.7h7.4v-2.8C23.8,56,22.8,53.5,18.6,53.5 M20.6,59h-4.2v-0.7
		c0-1.2,0.6-2.1,2.2-2.1s2,0.9,2,2.1V59z"/>
	<path fill="#F37820" d="M31.9,53.5c-4.2,0-5.5,2.4-5.5,5.2v3.5c0,3.2,1.4,5.1,5.6,5.1c1.6,0,3.4-0.3,4.9-0.8L36.4,64
		c-1.4,0.4-2.8,0.6-4,0.6c-2,0-2.6-0.6-2.6-2.2v-0.7h7.4v-2.8C37.1,56,36.2,53.5,31.9,53.5 M34,59h-4.2v-0.7c0-1.2,0.6-2.1,2.2-2.1
		c1.6,0,2,0.9,2,2.1V59z"/>
	<polygon fill="#F37820" points="45.1,63.9 42.1,53.8 38.7,53.8 42.9,67 47.3,67 51.5,53.8 48.1,53.8 	"/>
	<path fill="#F37820" d="M58.9,53.5c-4.5,0-5.8,2.5-5.8,5.2v3.3c0,2.7,1.2,5.2,5.8,5.2c4.5,0,5.8-2.5,5.8-5.2v-3.3
		C64.6,56,63.4,53.5,58.9,53.5 M61.3,62.2c0,1.5-0.7,2.3-2.4,2.3c-1.8,0-2.4-0.8-2.4-2.3v-3.6c0-1.5,0.7-2.3,2.4-2.3
		c1.8,0,2.4,0.8,2.4,2.3V62.2z"/>
	<path fill="#F37820" d="M73.2,53.5c-4.5,0-5.8,2.5-5.8,5.2v3.3c0,2.7,1.2,5.2,5.8,5.2c4.5,0,5.8-2.5,5.8-5.2v-3.3
		C79,56,77.7,53.5,73.2,53.5 M75.7,62.2c0,1.5-0.7,2.3-2.4,2.3c-1.8,0-2.4-0.8-2.4-2.3v-3.6c0-1.5,0.7-2.3,2.4-2.3
		c1.8,0,2.4,0.8,2.4,2.3V62.2z"/>
	<path fill="#F37820" d="M6.2,55.3L6,53.8H3.2V67h3.3l0-8.6c0,0,0.8-0.7,1.9-1.3c1.1-0.5,2.5-0.4,2.5-0.4l0.2-2.8
		c0,0-1.6-0.2-2.8,0.2C7.2,54.5,6.2,55.3,6.2,55.3"/>
</g>
</svg>
