<?xml version="1.0" encoding="utf-8"?>
<!-- Generator: Adobe Illustrator 18.1.1, SVG Export Plug-In . SVG Version: 6.00 Build 0)  -->
<!DOCTYPE svg PUBLIC "-//W3C//DTD SVG 1.1//EN" "http://www.w3.org/Graphics/SVG/1.1/DTD/svg11.dtd">
<svg version="1.1" id="Layer_1" xmlns="http://www.w3.org/2000/svg" xmlns:xlink="http://www.w3.org/1999/xlink" x="0px" y="0px"
	 width="105.6px" height="107px" viewBox="0 0 105.6 107" enable-background="new 0 0 105.6 107" xml:space="preserve">
<circle fill="#0083F5" cx="52.8" cy="52.8" r="52.8"/>
<g>
	<g>
		<path fill="#FFFFFF" d="M82.2,104.9c-1.9,0-3.4-1.5-3.4-3.4v-4.2h-4.2c-1.9,0-3.4-1.5-3.4-3.4v-2.9c0-1.9,1.5-3.4,3.4-3.4h4.2
			v-4.2c0-1.9,1.5-3.4,3.4-3.4H85c1.9,0,3.4,1.5,3.4,3.4v4.2h4.2c1.9,0,3.4,1.5,3.4,3.4v2.9c0,1.9-1.5,3.4-3.4,3.4h-4.2v4.2
			c0,1.9-1.5,3.4-3.4,3.4H82.2z"/>
		<path fill="#0083F5" d="M85,81.8c0.8,0,1.4,0.6,1.4,1.4v6.2h6.2c0.8,0,1.4,0.6,1.4,1.4v2.9c0,0.8-0.6,1.4-1.4,1.4h-6.2v6.2
			c0,0.8-0.6,1.4-1.4,1.4h-2.9c-0.8,0-1.4-0.6-1.4-1.4v-6.2h-6.2c-0.8,0-1.4-0.6-1.4-1.4v-2.9c0-0.8,0.6-1.4,1.4-1.4h6.2v-6.2
			c0-0.8,0.6-1.4,1.4-1.4H85 M85,77.8h-2.9c-3,0-5.4,2.4-5.4,5.4v2.2h-2.2c-3,0-5.4,2.4-5.4,5.4v2.9c0,3,2.4,5.4,5.4,5.4h2.2v2.2
			c0,3,2.4,5.4,5.4,5.4H85c3,0,5.4-2.4,5.4-5.4v-2.2h2.2c3,0,5.4-2.4,5.4-5.4v-2.9c0-3-2.4-5.4-5.4-5.4h-2.2v-2.2
			C90.5,80.3,88,77.8,85,77.8L85,77.8z"/>
	</g>
</g>
</svg>
