<?xml version="1.0" encoding="utf-8"?>
<!-- Generator: Adobe Illustrator 17.1.0, SVG Export Plug-In . SVG Version: 6.00 Build 0)  -->
<!DOCTYPE svg PUBLIC "-//W3C//DTD SVG 1.1//EN" "http://www.w3.org/Graphics/SVG/1.1/DTD/svg11.dtd">
<svg version="1.1" id="Layer_1" xmlns="http://www.w3.org/2000/svg" xmlns:xlink="http://www.w3.org/1999/xlink" x="0px" y="0px"
	 viewBox="0 0 196 197" enable-background="new 0 0 196 197" xml:space="preserve">
<g>
	<path fill="#203468" d="M120.8,112.5v-11c0,0-0.1,0.1-0.1,0.1v-0.1c0.6-0.6,1.1-1.2,1.7-1.9c0,0,0.1-0.1,0.1-0.1
		c2.1-2.4,4-5.1,5.8-7.9c0.1-0.2,0.3-0.5,0.4-0.7c0.4-0.8,0.8-1.5,1.3-2.3c0.2-0.5,0.5-0.9,0.7-1.4c0.4-0.7,0.7-1.5,1-2.2
		c0.2-0.5,0.4-1.1,0.7-1.7c0.3-0.7,0.6-1.4,0.8-2.2c0.4-1.1,0.7-2.2,1-3.3c0-0.1,0.1-0.2,0.1-0.3c3.3,0.8,7.2-3.7,8.7-10.1
		c1.6-6.4,0.2-12.3-3.1-13.2c0,0,0,0-0.1,0c-0.3-0.1-0.6-0.1-1-0.1c-0.2,0-0.4,0.1-0.7,0.1c1.4-7.6,2.2-16.2,0.9-23.3
		c0-0.2-0.1-0.4-0.1-0.6c-0.2-0.9-0.4-1.9-0.7-2.8c-4.7-15.1-18.8-25.1-43.7-25.1c-17.4,0-20.3,7.7-22.9,14.3
		c-7.1,2.5-13,5.4-14.8,11.7c-1.4,4.8-0.6,16.1,1,25.7c-0.1,0-0.3-0.1-0.4-0.1c-0.4,0-0.8,0-1.1,0.1c-3.3,0.9-4.7,6.8-3.1,13.2
		c0.2,0.8,0.4,1.6,0.7,2.3c0.2,0.5,0.4,1,0.6,1.5c0.1,0.2,0.1,0.4,0.2,0.6c0.3,0.6,0.6,1.1,0.9,1.6c0,0.1,0.1,0.2,0.1,0.3
		c0.3,0.5,0.7,1,1.1,1.5c0,0,0,0,0,0c1.5,1.8,3.3,2.7,4.9,2.4c0,0,0,0,0,0c0.3,1.2,0.6,2.4,1,3.6c0.2,0.7,0.5,1.3,0.7,2
		c0.2,0.6,0.5,1.2,0.7,1.8c0.3,0.7,0.6,1.4,0.9,2c0.3,0.5,0.5,1,0.8,1.6c0.4,0.7,0.7,1.4,1.1,2.1c0.2,0.3,0.3,0.5,0.5,0.8
		c0.9,1.6,2,3.1,3,4.6c0.2,0.2,0.3,0.4,0.5,0.6c0.6,0.8,1.2,1.5,1.8,2.2c0.2,0.2,0.4,0.4,0.6,0.6c0.6,0.7,1.2,1.4,1.8,2.1
		c0,0,0,0,0,0c0,0,1.3,8.3,0,11l-11.4,9.3c0,0-0.1,1.2-0.1,3.3c-12.1,3.6-29.2,8.7-29.2,8.7c-5.1,1.9-10.5,5.9-10.3,14.5v12.4
		c0,16.9,32.5,30.7,68.9,31.8l4.9,0v1.8l0.3-1.9c43.5-1,73.6-14.8,73.6-31.8v-12.4c0.2-8.6-5.3-12.6-10.3-14.5l-29.3-8.9
		c0-2-0.1-3.1-0.1-3.1L120.8,112.5z"/>
</g>
</svg>
