<?xml version="1.0" encoding="utf-8"?>
<!-- Generator: Adobe Illustrator 17.1.0, SVG Export Plug-In . SVG Version: 6.00 Build 0)  -->
<!DOCTYPE svg PUBLIC "-//W3C//DTD SVG 1.1//EN" "http://www.w3.org/Graphics/SVG/1.1/DTD/svg11.dtd">
<svg version="1.1" id="Layer_1" xmlns="http://www.w3.org/2000/svg" xmlns:xlink="http://www.w3.org/1999/xlink" x="0px" y="0px"
	 viewBox="0 0 333 259.3" enable-background="new 0 0 333 259.3" xml:space="preserve">
<g>
	<g>
		<rect x="101.1" y="170" fill="#F2F1F0" width="177.7" height="79.3"/>
		
			<rect x="100.7" y="13.8" fill="#F2F1F0" stroke="#FFFFFF" stroke-width="1.7875" stroke-miterlimit="10" width="177.7" height="79.3"/>
		<rect x="101.1" y="90.7" fill="#F2F1F0" width="177.7" height="79.3"/>
		
			<rect x="100.7" y="11" fill="none" stroke="#464646" stroke-width="1.7875" stroke-linecap="round" stroke-linejoin="round" width="177.7" height="238.2"/>
	</g>
	<g>
		
			<line fill="none" stroke="#526A74" stroke-width="0.8938" stroke-linecap="round" stroke-linejoin="round" x1="119.9" y1="102.4" x2="199.6" y2="102.4"/>
		
			<line fill="none" stroke="#526A74" stroke-width="0.8938" stroke-linecap="round" stroke-linejoin="round" x1="119.9" y1="110.4" x2="199.6" y2="110.4"/>
		
			<line fill="none" stroke="#526A74" stroke-width="0.8938" stroke-linecap="round" stroke-linejoin="round" x1="119.9" y1="118.5" x2="199.6" y2="118.5"/>
		
			<line fill="none" stroke="#526A74" stroke-width="0.8938" stroke-linecap="round" stroke-linejoin="round" x1="119.9" y1="126.1" x2="199.6" y2="126.1"/>
	</g>
	<g>
		
			<line fill="none" stroke="#526A74" stroke-width="0.8938" stroke-linecap="round" stroke-linejoin="round" x1="119.9" y1="135" x2="199.6" y2="135"/>
		
			<line fill="none" stroke="#526A74" stroke-width="0.8938" stroke-linecap="round" stroke-linejoin="round" x1="119.9" y1="143" x2="199.6" y2="143"/>
		
			<line fill="none" stroke="#526A74" stroke-width="0.8938" stroke-linecap="round" stroke-linejoin="round" x1="119.9" y1="150.6" x2="199.6" y2="150.6"/>
		
			<line fill="none" stroke="#526A74" stroke-width="0.8938" stroke-linecap="round" stroke-linejoin="round" x1="119.9" y1="158.7" x2="199.6" y2="158.7"/>
	</g>
	<g>
		
			<line fill="none" stroke="#526A74" stroke-width="0.8938" stroke-linecap="round" stroke-linejoin="round" x1="119.9" y1="190.5" x2="199.6" y2="190.5"/>
		
			<line fill="none" stroke="#526A74" stroke-width="0.8938" stroke-linecap="round" stroke-linejoin="round" x1="119.9" y1="198.5" x2="199.6" y2="198.5"/>
	</g>
	<g>
		
			<line fill="none" stroke="#526A74" stroke-width="0.8938" stroke-linecap="round" stroke-linejoin="round" x1="119.9" y1="53.3" x2="153.5" y2="53.3"/>
		
			<line fill="none" stroke="#526A74" stroke-width="0.8938" stroke-linecap="round" stroke-linejoin="round" x1="119.9" y1="61.3" x2="153.5" y2="61.3"/>
		
			<line fill="none" stroke="#526A74" stroke-width="0.8938" stroke-linecap="round" stroke-linejoin="round" x1="119.9" y1="69.4" x2="153.5" y2="69.4"/>
		
			<line fill="none" stroke="#526A74" stroke-width="0.8938" stroke-linecap="round" stroke-linejoin="round" x1="119.9" y1="77" x2="153.5" y2="77"/>
	</g>
	<g>
		
			<line fill="none" stroke="#526A74" stroke-width="0.8938" stroke-linecap="round" stroke-linejoin="round" x1="223.9" y1="206.2" x2="257.4" y2="206.2"/>
		
			<line fill="none" stroke="#526A74" stroke-width="0.8938" stroke-linecap="round" stroke-linejoin="round" x1="223.9" y1="214.2" x2="257.4" y2="214.2"/>
	</g>
	<rect x="221.4" y="75" fill="#31B7EA" width="38.6" height="83.7"/>
	<rect x="221.4" y="173.2" fill="#31B7EA" width="38.6" height="23.3"/>
	<g>
		<ellipse fill="#F2F1F0" stroke="#526975" stroke-width="0.8938" cx="103.2" cy="155.9" rx="49.9" ry="47.9"/>
		<ellipse fill="none" stroke="#526975" stroke-width="0.4469" cx="103.2" cy="155.9" rx="43.2" ry="41.5"/>
		<g>
			<path fill="none" stroke="#526975" stroke-width="0.8938" d="M86,172.4c2.9-2,6.7-5.2,6.7-8.9c0-1.2-0.4-2.8-0.8-4h-6.7v-6.4h4.2
				c-1.3-2-2.5-4.4-2.5-6.8c0-8.9,8.4-12.9,16.3-12.9c10.1,0,16.8,5.2,16.3,14.9H109c0-3.2-1.3-6.4-5-6.4c-3.4,0-5.4,1.6-5.4,4.8
				c0,1.6,1.3,4.8,2.5,6h7.5v6.4h-5.4c0.4,0.8,0.4,1.6,0.4,2.4c0,2.4-1.3,5.2-4.2,7.2l0,0c1.3-0.8,2.9-1.2,4.6-1.2
				c2.1,0,5,1.2,7.5,1.2c2.5,0,3.8-0.8,5.4-2.8l4.2,7.6c-3.8,3.6-7.1,4.4-10.9,4.4c-4.2,0-8.8-2.4-13.4-2.4c-2.5,0-4.6,1.2-6.7,2.4
				L86,172.4z"/>
		</g>
	</g>
	<g>
		<ellipse fill="#F2F1F0" stroke="#526975" stroke-width="0.8938" cx="121.2" cy="173.2" rx="49.9" ry="47.9"/>
		<ellipse fill="none" stroke="#526975" stroke-width="0.4469" cx="121.2" cy="173.2" rx="43.2" ry="41.5"/>
		<g>
			<path fill="none" stroke="#464646" stroke-width="0.8938" d="M104,189.7c2.9-2,6.7-5.2,6.7-8.9c0-1.2-0.4-2.8-0.8-4h-6.7v-6.4
				h4.2c-1.3-2-2.5-4.4-2.5-6.8c0-8.9,8.4-12.9,16.3-12.9c10.1,0,16.8,5.2,16.3,14.9h-10.5c0-3.2-1.3-6.4-5-6.4
				c-3.4,0-5.4,1.6-5.4,4.8c0,1.6,1.3,4.8,2.5,6h7.5v6.4h-5.4c0.4,0.8,0.4,1.6,0.4,2.4c0,2.4-1.3,5.2-4.2,7.2l0,0
				c1.3-0.8,2.9-1.2,4.6-1.2c2.1,0,5,1.2,7.5,1.2c2.5,0,3.8-0.8,5.4-2.8l4.2,7.6c-3.8,3.6-7.1,4.4-10.9,4.4c-4.2,0-8.8-2.4-13.4-2.4
				c-2.5,0-4.6,1.2-6.7,2.4L104,189.7z"/>
		</g>
	</g>
</g>
</svg>
