<?xml version="1.0" encoding="utf-8"?>
<!-- Generator: Adobe Illustrator 17.1.0, SVG Export Plug-In . SVG Version: 6.00 Build 0)  -->
<!DOCTYPE svg PUBLIC "-//W3C//DTD SVG 1.1//EN" "http://www.w3.org/Graphics/SVG/1.1/DTD/svg11.dtd">
<svg version="1.1" id="Layer_1" xmlns="http://www.w3.org/2000/svg" xmlns:xlink="http://www.w3.org/1999/xlink" x="0px" y="0px"
	 viewBox="0 0 841.9 595.3" enable-background="new 0 0 841.9 595.3" xml:space="preserve">
<g>
	<g>
		<path fill="none" stroke="#454545" stroke-width="6.8948" d="M281.6,345H127.6v11.9c0,2-1.1,3.6-3.1,4.4c-2.2,0.8-4.1,0.6-5.8-0.8
			L54.7,308c-1.1-0.9-1.7-2.2-1.7-3.4c0-1.4,0.6-2.7,1.7-3.6l63.9-53c1.7-1.4,3.7-1.7,5.8-0.9c2.2,0.9,3.1,2.3,3.1,4.4v11.9h132.1"
			/>
	</g>
	<g>
		<path fill="none" stroke="#454545" stroke-width="6.8948" d="M566.2,263.3h132.4v-11.9c0-2,1.1-3.6,3.1-4.4
			c2.2-0.8,4.1-0.6,5.8,0.8l63.9,52.4c1.1,0.9,1.7,2.2,1.7,3.4c0,1.4-0.6,2.7-1.7,3.6l-63.9,53c-1.7,1.4-3.7,1.7-5.8,0.9
			c-2.2-0.9-3.1-2.3-3.1-4.4V345l0,0H544.2"/>
	</g>
</g>
<g>
	<g>
		<path fill="none" stroke="#454545" stroke-width="6.8948" d="M373.8,193.2V97.7h-11.9c-2,0-3.6-1.1-4.4-3.1
			c-0.8-2.2-0.6-4.1,0.8-5.8l52.4-63.9c0.9-1.1,2.2-1.7,3.4-1.7c1.4,0,2.7,0.6,3.6,1.7l53,63.9c1.4,1.7,1.7,3.7,0.9,5.8
			c-0.9,2.2-2.3,3.1-4.4,3.1h-11.9v96.2"/>
	</g>
</g>
<g>
	<g>
		<path fill="none" stroke="#454545" stroke-width="6.8948" d="M281.6,480.5H127.7v11.9c0,2-1.1,3.6-3.1,4.4
			c-2.2,0.8-4.1,0.6-5.8-0.8l-63.9-52.4c-1.1-0.9-1.7-2.2-1.7-3.4c0-1.4,0.6-2.7,1.7-3.6l63.9-53c1.7-1.4,3.7-1.7,5.8-0.9
			c2.2,0.9,3.1,2.3,3.1,4.4v11.9h153.9"/>
	</g>
	<g>
		<path fill="none" stroke="#454545" stroke-width="6.8948" d="M544.2,398.8h154.4v-11.9c0-2,1.1-3.6,3.1-4.4
			c2.2-0.8,4.1-0.6,5.8,0.8l63.9,52.4c1.1,0.9,1.7,2.2,1.7,3.4c0,1.4-0.6,2.7-1.7,3.6l-63.9,53c-1.7,1.4-3.7,1.7-5.8,0.9
			c-2.2-0.9-3.1-2.3-3.1-4.4v-11.9l0,0H544.2"/>
	</g>
</g>
<g>
	<polygon fill="none" stroke="#575756" stroke-width="6.8948" points="344.9,170.8 332,170.8 332,151.8 316.7,151.8 316.7,170.8 
		303.6,170.8 303.6,181.4 344.9,181.4 	"/>
	<polyline fill="none" stroke="#454545" stroke-width="6.8948" points="281.6,271.8 281.6,282 281.6,400.5 281.6,480.9 412.9,480.9 
		544.2,480.9 544.2,400.5 544.2,281.8 544.2,271.8 544.2,271.2 558.2,279.9 566.2,279.9 566.2,270.7 566.2,262.8 566.2,262.8 
		566.2,253.6 412.9,158 339.6,203.8 339.6,181.7 309.1,181.7 309.1,222.9 259.6,253.6 259.6,262.8 259.6,270.7 259.6,279.9 
		266.8,279.9 	"/>
</g>
<g>
	<g>
		<polygon fill="none" stroke="#454545" stroke-width="6.8948" points="339.6,215.1 309.1,234.4 309.1,181.7 339.6,181.7 		"/>
		<rect x="303.6" y="170.8" fill="none" stroke="#454545" stroke-width="6.8948" width="41.3" height="10.6"/>
	</g>
	<g>
		<polygon fill="none" stroke="#454545" stroke-width="6.8948" points="339.6,218.2 309.1,237.5 309.1,181.7 339.6,181.7 		"/>
		<rect x="316.7" y="151.8" fill="none" stroke="#454545" stroke-width="6.8948" width="15.3" height="19.2"/>
		<rect x="303.6" y="170.8" fill="none" stroke="#454545" stroke-width="6.8948" width="41.3" height="10.6"/>
	</g>
</g>
<path fill="#454545" d="M448.5,370.1v109.6h-71.1V370.1l35.6-22.1L448.5,370.1z M386.3,479.8h53.3v-97.8h-53.3V479.8z"/>
<rect x="392.2" y="425.7" fill="none" stroke="#454545" stroke-width="4.4106" width="17.8" height="48.2"/>
<rect x="415.4" y="425.7" fill="none" stroke="#454545" stroke-width="4.4106" width="17.8" height="48.2"/>
<rect x="392.2" y="388" fill="none" stroke="#454545" stroke-width="4.4106" width="17.8" height="32.4"/>
<rect x="415.4" y="388" fill="none" stroke="#454545" stroke-width="4.4106" width="17.8" height="32.4"/>
<g>
	<g>
		<polygon fill="#454545" stroke="#454545" stroke-width="2.2053" points="566.2,270.7 412.9,173.9 259.6,270.7 259.6,253.6 
			412.9,158 566.2,253.6 		"/>
	</g>
	<polygon fill="none" stroke="#454545" stroke-width="8.8212" points="268.8,279.9 412.9,189.3 558.2,279.9 566.2,279.9 
		566.2,262.8 566.2,262.8 412.9,165.6 259.6,261.2 259.6,279.9 267.1,279.9 	"/>
</g>
<text transform="matrix(1 0 0 1 389.1005 120.9457)" fill="#575756" font-family="'AvenirLTStd-Heavy'" font-size="34.3044" letter-spacing="-1">2</text>
<text transform="matrix(1 0 0 1 406.8768 120.9457)" fill="#575756" font-family="'AvenirLTStd-Heavy'" font-size="34.3044">5</text>
<text transform="matrix(1 0 0 1 426.2128 117.516)" fill="#575756" font-family="'AvenirLTStd-Heavy'" font-size="20.2708">%</text>
<text transform="matrix(1 0 0 1 384.5546 87.2757)" fill="#575756" font-family="'AvenirLTStd-Book'" font-size="24.9487">Roofs</text>
<text transform="matrix(1 0 0 1 568.8202 313.2572)" fill="#575756" font-family="'AvenirLTStd-Book'" font-size="24.9487">Windows -</text>
<text transform="matrix(1 0 0 1 686.079 313.2572)" fill="#575756" font-family="'AvenirLTStd-Heavy'" font-size="34.3044" letter-spacing="-3">1</text>
<text transform="matrix(1 0 0 1 703.0751 313.2572)" fill="#575756" font-family="'AvenirLTStd-Heavy'" font-size="34.3044">0</text>
<text transform="matrix(1 0 0 1 723.3446 309.8256)" fill="#575756" font-family="'AvenirLTStd-Heavy'" font-size="20.2708">%</text>
<text transform="matrix(1 0 0 1 572.9706 448.3191)" fill="#575756" font-family="'AvenirLTStd-Book'" font-size="24.9487">Draughts -</text>
<text transform="matrix(1 0 0 1 689.7616 448.3191)" fill="#575756" font-family="'AvenirLTStd-Heavy'" font-size="34.3044" letter-spacing="-4">1</text>
<text transform="matrix(1 0 0 1 705.0438 448.3191)" fill="#575756" font-family="'AvenirLTStd-Heavy'" font-size="34.3044">5</text>
<text transform="matrix(1 0 0 1 724.3778 444.8885)" fill="#575756" font-family="'AvenirLTStd-Heavy'" font-size="20.2708">%</text>
<text transform="matrix(1 0 0 1 91.5536 312.7283)" fill="#575756" font-family="'AvenirLTStd-Book'" font-size="24.9487">Walls - </text>
<text transform="matrix(1 0 0 1 172.7938 312.7283)" fill="#575756" font-family="'AvenirLTStd-Heavy'" font-size="34.3044" letter-spacing="-1">3</text>
<text transform="matrix(1 0 0 1 190.5692 312.7283)" fill="#575756" font-family="'AvenirLTStd-Heavy'" font-size="34.3044">5</text>
<text transform="matrix(1 0 0 1 210.0604 309.2992)" fill="#575756" font-family="'AvenirLTStd-Heavy'" font-size="20.2708">%</text>
<text transform="matrix(1 0 0 1 91.5555 445.4012)" fill="#575756" font-family="'AvenirLTStd-Book'" font-size="24.9487">Floors - </text>
<text transform="matrix(1 0 0 1 182.1493 445.4012)" fill="#575756" font-family="'AvenirLTStd-Heavy'" font-size="26.8242" letter-spacing="-3">1</text>
<text transform="matrix(1 0 0 1 194.7802 445.4012)" fill="#575756" font-family="'AvenirLTStd-Heavy'" font-size="26.8242">5</text>
<text transform="matrix(1 0 0 1 209.9061 441.9686)" fill="#575756" font-family="'AvenirLTStd-Heavy'" font-size="20.2708">%</text>
<g>
	<path fill="#454545" d="M496.3,393.6h19.5v-19.5h-19.5V393.6z M472,393.6h19.5v-19.5H472V393.6z M496.3,416.8h19.5v-19.5h-19.5
		V416.8z M472,416.8h19.5v-19.5H472V416.8z M523.3,423.2h-58.9v-56h58.9V423.2z"/>
	<rect x="461.7" y="420.4" fill="#454545" width="64.4" height="7.8"/>
</g>
<g>
	<path fill="#454545" d="M337.1,393.6h19.5v-19.5h-19.5V393.6z M312.7,393.6h19.5v-19.5h-19.5V393.6z M337.1,416.8h19.5v-19.5h-19.5
		V416.8z M312.7,416.8h19.5v-19.5h-19.5V416.8z M364.1,423.2h-58.9v-56h58.9V423.2z"/>
	<rect x="302.4" y="420.4" fill="#454545" width="64.4" height="7.8"/>
</g>
<g>
	<path fill="#454545" d="M496.3,303.5h19.5V284h-19.5V303.5z M472,303.5h19.5V284H472V303.5z M496.3,326.7h19.5v-19.5h-19.5V326.7z
		 M472,326.7h19.5v-19.5H472V326.7z M523.3,333.1h-58.9v-56h58.9V333.1z"/>
	<rect x="461.7" y="330.1" fill="#454545" width="64.4" height="7.8"/>
</g>
<g>
	<path fill="#454545" d="M337.1,303.3h19.5v-19.5h-19.5V303.3z M312.7,303.3h19.5v-19.5h-19.5V303.3z M337.1,326.6h19.5v-19.5h-19.5
		V326.6z M312.7,326.6h19.5v-19.5h-19.5V326.6z M364.1,333h-58.9v-56h58.9V333z"/>
	<rect x="302.4" y="330" fill="#454545" width="64.4" height="7.8"/>
</g>
<polygon fill="#FFFFFF" stroke="#454545" stroke-width="4" points="412.9,357.9 385.2,375.2 440.7,375.2 "/>
<line fill="none" stroke="#454545" stroke-width="6.6159" x1="412.9" y1="357.9" x2="412.9" y2="375.2"/>
</svg>
