<?xml version="1.0" encoding="utf-8"?>
<!-- Generator: Adobe Illustrator 17.1.0, SVG Export Plug-In . SVG Version: 6.00 Build 0)  -->
<!DOCTYPE svg PUBLIC "-//W3C//DTD SVG 1.1//EN" "http://www.w3.org/Graphics/SVG/1.1/DTD/svg11.dtd">
<svg version="1.1" id="Layer_1" xmlns="http://www.w3.org/2000/svg" xmlns:xlink="http://www.w3.org/1999/xlink" x="0px" y="0px"
	 viewBox="0 0 804 422" enable-background="new 0 0 804 422" xml:space="preserve">
<rect x="-20.2" y="-24.2" fill="#48646F" width="834.3" height="457.2"/>
<g>
	<path fill="#3C555E" d="M506.9,310.5c-0.8-1.4-2.5-1.8-3.9-1l-11.2,6.5l-4.8-8.3l11.5-6.7c1.4-0.8,1.8-2.5,1-3.9l-0.2-0.3
		c-0.8-1.4-2.5-1.8-3.9-1l-11.5,6.7l-0.3-0.6c-3.3-5.6-7.2-6.7-12.9-3.4l-15.4,9c-5.6,3.3-7.6,15.9-4.3,21.5l0.1,0.2
		c-14.8,8.6-31.8,13.3-49,13.3c-53.8,0-97.5-43.7-97.5-97.5c0-53.8,43.7-97.5,97.5-97.5c52.4,0,95.3,41.5,97.4,93.4h-14.7
		c-0.7-4.2-1.6-7.9-2.2-10.2c-2.5-9-14.3-19.2-25.7-26.6c-11.4-7.4-38-4.5-58-4.5c-20,0-32.7,15.1-39.2,21.6
		c-6.5,6.5-18,4.9-31.5,9.4c-13.5,4.5-11,11-11.4,27c-0.3,11.3,4.3,12.8,8.2,13.1l8,0c0.1-10.7,8.8-19.4,19.5-19.4
		c10.7,0,19.4,8.6,19.5,19.3l63.1-0.1c0.1-10.7,8.8-19.2,19.5-19.2c10.7,0,19.3,8.6,19.5,19.2l5,0c7.4,0,8.2-10.8,7.1-21.4h17.7
		c2.3,0,4.1-1.8,4.1-4.1c0-58.3-47.4-105.7-105.7-105.7c-58.3,0-105.7,47.4-105.7,105.7c0,58.3,47.4,105.7,105.7,105.7
		c18.7,0,37.1-5,53.1-14.4l0.3,0.5c3.3,5.6,15.3,10.1,20.9,6.9l15.4-9c5.6-3.3,6.7-7.2,3.4-12.9l-0.3-0.6l11.2-6.5
		c1.4-0.8,1.8-2.5,1-3.9L506.9,310.5z"/>
	<circle fill="#3C555E" cx="454.3" cy="270.8" r="14.4"/>
	<circle fill="#3C555E" cx="352.3" cy="270.8" r="14.4"/>
</g>
</svg>
