<?xml version="1.0" encoding="utf-8"?>
<!-- Generator: Adobe Illustrator 17.1.0, SVG Export Plug-In . SVG Version: 6.00 Build 0)  -->
<!DOCTYPE svg PUBLIC "-//W3C//DTD SVG 1.1//EN" "http://www.w3.org/Graphics/SVG/1.1/DTD/svg11.dtd">
<svg version="1.1" xmlns="http://www.w3.org/2000/svg" xmlns:xlink="http://www.w3.org/1999/xlink" x="0px" y="0px"
	 viewBox="0 0 198.4 198.4" enable-background="new 0 0 198.4 198.4" xml:space="preserve">
<g id="Original">
	<g>
		<path fill="#FFFFFF" d="M101.4,49.6c21.9,0,39.8,17.9,39.8,40s-17.8,40-39.8,40c-21.9,0-39.8-17.9-39.8-40S79.5,49.6,101.4,49.6
			 M101.4,35.6c-29.7,0-53.8,24.2-53.8,54c0,29.8,24.1,54,53.8,54c29.7,0,53.8-24.2,53.8-54C155.2,59.7,131.1,35.6,101.4,35.6
			L101.4,35.6z"/>
	</g>
	
		<circle fill="none" stroke="#000000" stroke-width="2.0126" stroke-linecap="round" stroke-linejoin="bevel" stroke-miterlimit="10" cx="101.3" cy="89.5" r="56.2"/>
	<circle fill="#00B1EB" cx="101.3" cy="89.5" r="36.6"/>
	<g>
		<path fill="#FFFFFF" d="M131.2,73.6c-0.3-0.1-0.6-0.2-1-0.3l0,0l-36.5-11c-4.2-1.2-9.3,0.6-11.6,6.4C80,74.2,82.3,79,86.3,80.5
			l0.6,0.2l-0.2,0L64.2,97.6l45.5,20c0,0,14.6-13.1,22.5-21.8c2-2.2,3.7-5.1,4.2-6.5C138.6,84.1,138.2,76.3,131.2,73.6z"/>
		
			<path fill="none" stroke="#000000" stroke-width="2.0126" stroke-linecap="round" stroke-linejoin="round" stroke-miterlimit="10" d="
			M127.3,85c-1.5,3.1-4,1.1-3.2-1.7c0.8-2.8,3.1-3.8,4.6-3.2c2.2,0.9,3.1,3.6,2,6.4c-1.2,3.2-4.6,4.7-7.1,3.7
			c-3.1-1.2-3.5-5.3-2.4-8.3c1.6-4.1,5.5-6.4,8.8-5.1c3.7,1.5,5.2,6.4,3.4,11.1c-2.1,5.3-6.7,7.7-10.9,6c-4.5-1.7-6.9-7.3-4.4-13.6
			c2.5-6.5,8.6-8.5,13.1-6.7c7,2.7,7.4,10.6,5.2,15.7c-0.5,1.3-2.3,4.3-4.2,6.5c-7.9,8.7-22.5,21.8-22.5,21.8l-45.5-20l22.4-16.9"/>
		
			<path fill="none" stroke="#000000" stroke-width="2.0126" stroke-linecap="round" stroke-linejoin="round" stroke-miterlimit="10" d="
			M122.5,94L86.3,80.5c-4-1.6-6.2-6.3-4.1-11.9c2.2-5.8,7.4-7.6,11.6-6.4l36.5,11"/>
	</g>
	<g>
		<path d="M35.3,86.8l0.1-1.2l1.6-0.3l0.2-2.2l-1.5-0.6l0.1-1.2l6.6,2.7l-0.1,1.2L35.3,86.8z M38.1,85.1l2.6-0.5l-2.5-0.9L38.1,85.1
			z"/>
		<path d="M34.9,91.7l-0.1,1.2c-0.2,0-0.3,0.1-0.3,0.2c-0.1,0.1-0.1,0.3-0.1,0.5c0,0.3,0.1,0.5,0.2,0.6c0.1,0.1,0.2,0.1,0.3,0.2
			c0.1,0,0.3,0,0.6,0l0.7,0c-0.5-0.3-0.8-0.7-0.9-1.1c0-0.5,0.2-1,0.8-1.3c0.4-0.3,1-0.4,1.6-0.5c0.8,0,1.5,0.1,1.9,0.4
			c0.5,0.3,0.7,0.7,0.7,1.1c0,0.5-0.2,0.9-0.7,1.2l0.7,0l0.1,1L36,95.3c-0.6,0-1,0-1.3,0c-0.3-0.1-0.5-0.2-0.7-0.3
			c-0.2-0.1-0.3-0.3-0.4-0.5c-0.1-0.2-0.2-0.5-0.2-0.9c0-0.7,0.1-1.1,0.3-1.4c0.3-0.3,0.6-0.5,1.1-0.5
			C34.8,91.7,34.9,91.7,34.9,91.7z M37.9,92.4c-0.5,0-0.9,0.1-1.1,0.3c-0.2,0.2-0.3,0.4-0.3,0.6c0,0.3,0.2,0.5,0.4,0.6
			c0.3,0.2,0.6,0.2,1.1,0.2c0.5,0,0.9-0.1,1.1-0.3c0.2-0.2,0.3-0.4,0.3-0.7c0-0.3-0.1-0.4-0.4-0.6C38.7,92.5,38.4,92.4,37.9,92.4z"
			/>
		<path d="M38.2,97.1c0.4-0.1,0.9,0,1.3,0.1c0.4,0.1,0.8,0.3,1,0.6c0.3,0.3,0.4,0.6,0.5,1c0.1,0.6-0.1,1.1-0.5,1.6
			c-0.4,0.4-1,0.7-1.7,0.8c-0.7,0.1-1.4,0-1.9-0.3c-0.5-0.3-0.9-0.7-0.9-1.3c-0.1-0.4,0-0.7,0.1-1.1c0.2-0.4,0.4-0.6,0.8-0.9
			C37.2,97.3,37.6,97.2,38.2,97.1z M38.3,98.1c-0.5,0.1-0.8,0.2-1.1,0.4c-0.2,0.2-0.3,0.5-0.3,0.7c0,0.3,0.2,0.5,0.5,0.6
			c0.3,0.1,0.7,0.2,1.2,0.1c0.5-0.1,0.8-0.2,1.1-0.4c0.2-0.2,0.3-0.5,0.3-0.7c0-0.3-0.2-0.5-0.5-0.6C39.2,98.1,38.8,98.1,38.3,98.1z
			"/>
		<path d="M37,104.6l4.4-2.7l0.3,1.1l-2.3,1.3l-0.8,0.4c0.2,0,0.4,0,0.4,0c0.1,0,0.3,0,0.4,0l2.6,0.1l0.3,1l-5.2-0.4L37,104.6z"/>
		<path d="M40.3,110.6l0.1,1.1c-0.5,0-0.9-0.1-1.2-0.3c-0.3-0.2-0.6-0.5-0.7-0.9c-0.2-0.7-0.1-1.2,0.3-1.7c0.3-0.4,0.8-0.7,1.5-0.9
			c0.8-0.3,1.4-0.3,2-0.1c0.5,0.2,0.9,0.5,1.1,1c0.2,0.6,0.1,1.1-0.2,1.5c-0.4,0.5-1,0.9-2,1.2l-0.8-2.5c-0.4,0.1-0.6,0.3-0.8,0.5
			c-0.2,0.2-0.2,0.4-0.1,0.7c0.1,0.2,0.1,0.3,0.3,0.3C39.9,110.6,40.1,110.6,40.3,110.6z M41.6,110.2c0.4-0.1,0.6-0.3,0.7-0.5
			c0.1-0.2,0.2-0.4,0.1-0.6c-0.1-0.2-0.2-0.4-0.5-0.4c-0.2-0.1-0.5-0.1-0.9,0.1L41.6,110.2z"/>
		<path d="M40.3,115l-0.4-1l4.5-1.9l0.4,0.9l-0.6,0.3c0.4,0,0.6,0.1,0.8,0.2c0.1,0.1,0.3,0.2,0.3,0.4c0.1,0.2,0.1,0.5,0,0.7
			l-1.2,0.1c0.1-0.2,0.1-0.4,0-0.5c-0.1-0.1-0.1-0.2-0.3-0.3c-0.1-0.1-0.3-0.1-0.6,0c-0.3,0-0.8,0.2-1.6,0.6L40.3,115z"/>
		<path d="M43.2,121.1l-0.5-0.9L45,119c0.5-0.2,0.8-0.4,0.9-0.5c0.1-0.1,0.2-0.2,0.2-0.4c0-0.1,0-0.3,0-0.4
			c-0.1-0.2-0.2-0.3-0.4-0.3c-0.2-0.1-0.4-0.1-0.6,0c-0.2,0-0.6,0.2-1,0.4l-2,1l-0.5-0.9l4.4-2.2l0.4,0.9l-0.6,0.3
			c0.7,0.1,1.1,0.3,1.3,0.8c0.1,0.2,0.2,0.4,0.1,0.6c0,0.2-0.1,0.4-0.2,0.6c-0.1,0.2-0.2,0.3-0.4,0.4c-0.2,0.1-0.4,0.3-0.8,0.4
			L43.2,121.1z"/>
		<path d="M48.5,120.5l0.5,0.8l-0.6,0.4c0.6,0,1.1,0.2,1.3,0.6c0.1,0.2,0.2,0.4,0.2,0.7c0,0.2-0.1,0.5-0.2,0.7
			c0.3,0,0.6,0.1,0.8,0.1c0.2,0.1,0.4,0.2,0.5,0.4c0.2,0.2,0.2,0.5,0.2,0.7c0,0.2-0.1,0.5-0.3,0.7c-0.1,0.2-0.4,0.4-0.8,0.6
			l-2.6,1.7l-0.6-0.9l2.4-1.5c0.4-0.3,0.7-0.5,0.7-0.6c0.1-0.2,0.1-0.4,0-0.5c-0.1-0.1-0.2-0.2-0.4-0.3c-0.2,0-0.3,0-0.6,0
			c-0.2,0.1-0.5,0.2-0.9,0.5l-2,1.3l-0.6-0.9l2.3-1.5c0.4-0.3,0.7-0.4,0.7-0.6c0.1-0.1,0.2-0.2,0.2-0.3c0-0.1,0-0.2-0.1-0.3
			c-0.1-0.1-0.2-0.2-0.4-0.3c-0.2,0-0.3,0-0.5,0c-0.2,0.1-0.5,0.2-0.9,0.5l-2,1.3l-0.6-0.9L48.5,120.5z"/>
		<path d="M51.7,130.7l0.5,0.9c-0.5,0.2-0.9,0.3-1.2,0.2c-0.4-0.1-0.7-0.3-1-0.6c-0.4-0.5-0.5-1.1-0.3-1.7c0.2-0.5,0.5-0.9,1.1-1.4
			c0.6-0.5,1.2-0.8,1.8-0.8c0.6,0,1,0.2,1.4,0.6c0.4,0.5,0.5,1,0.3,1.5c-0.2,0.6-0.6,1.2-1.4,1.8l-1.6-2c-0.3,0.2-0.5,0.5-0.5,0.8
			c-0.1,0.3,0,0.5,0.1,0.7c0.1,0.1,0.2,0.2,0.4,0.2C51.2,130.9,51.4,130.8,51.7,130.7z M52.7,129.9c0.3-0.2,0.5-0.5,0.5-0.7
			c0.1-0.2,0-0.4-0.1-0.6c-0.1-0.2-0.3-0.3-0.6-0.2c-0.3,0-0.5,0.1-0.8,0.4L52.7,129.9z"/>
		<path d="M55,136.7l-0.7-0.8l1.8-1.7c0.4-0.4,0.6-0.6,0.7-0.8c0.1-0.1,0.1-0.3,0.1-0.4c0-0.1-0.1-0.2-0.2-0.4
			c-0.1-0.1-0.3-0.2-0.5-0.2c-0.2,0-0.4,0-0.6,0.1c-0.2,0.1-0.5,0.3-0.9,0.7l-1.6,1.5l-0.7-0.8l3.5-3.4l0.7,0.7l-0.5,0.5
			c0.6-0.1,1.1,0,1.5,0.4c0.2,0.2,0.3,0.4,0.3,0.6c0.1,0.2,0.1,0.4,0,0.6c0,0.2-0.1,0.4-0.3,0.5c-0.1,0.2-0.3,0.4-0.6,0.7L55,136.7z
			"/>
		<path d="M61.4,135.9l-0.7,0.8l-0.5-0.5l-1.3,1.5c-0.3,0.3-0.4,0.5-0.5,0.5c0,0.1,0,0.1,0,0.2c0,0.1,0,0.1,0.1,0.2
			c0.1,0.1,0.2,0.1,0.4,0.2l-0.6,0.8c-0.3-0.1-0.5-0.2-0.7-0.4c-0.1-0.1-0.2-0.3-0.3-0.4c-0.1-0.2-0.1-0.3,0-0.4
			c0-0.1,0.1-0.3,0.2-0.5c0.1-0.1,0.3-0.4,0.6-0.7l1.4-1.6l-0.4-0.3l0.7-0.8l0.4,0.3l0.7-0.7l1.3,0.1l-1.2,1.3L61.4,135.9z"/>
		<path d="M62.1,142.7l2.9-4l0.8,0.6l-2.9,4L62.1,142.7z M65.4,138.2l0.7-1l0.8,0.6l-0.7,1L65.4,138.2z"/>
		<path d="M67.9,146.6L67,146l1.3-2.1c0.3-0.5,0.4-0.8,0.5-0.9c0-0.2,0-0.3,0-0.4c0-0.1-0.1-0.2-0.2-0.3c-0.2-0.1-0.3-0.1-0.5-0.1
			c-0.2,0-0.4,0.1-0.5,0.3c-0.2,0.1-0.4,0.5-0.7,0.9l-1.2,1.9l-0.9-0.6l2.6-4.2l0.8,0.5l-0.4,0.6c0.6-0.3,1.1-0.3,1.5,0
			c0.2,0.1,0.3,0.3,0.5,0.5c0.1,0.2,0.2,0.4,0.2,0.6c0,0.2,0,0.4-0.1,0.6c-0.1,0.2-0.2,0.5-0.4,0.8L67.9,146.6z"/>
		<path d="M69.9,147.7l2.3-4.4l0.9,0.5l-2.3,4.4L69.9,147.7z M72.5,142.7l0.6-1.1l0.9,0.5l-0.6,1.1L72.5,142.7z"/>
		<path d="M76.5,145.4l-0.4,0.9l-0.6-0.3l-0.8,1.8c-0.2,0.4-0.3,0.6-0.3,0.6c0,0.1,0,0.1,0,0.2c0,0.1,0.1,0.1,0.1,0.1
			c0.1,0,0.2,0.1,0.4,0.1l-0.3,1c-0.3,0-0.6,0-0.8-0.2c-0.2-0.1-0.3-0.2-0.4-0.3c-0.1-0.1-0.2-0.3-0.2-0.4c0-0.1,0-0.3,0.1-0.5
			c0-0.1,0.2-0.4,0.4-0.8l0.9-1.9l-0.4-0.2l0.4-0.9l0.4,0.2l0.4-0.9l1.3-0.3l-0.7,1.6L76.5,145.4z"/>
		<path d="M76.2,150.6l1.8-4.6l1,0.4l-1.8,4.6L76.2,150.6z M78.3,145.4l0.4-1.1l1,0.4l-0.4,1.1L78.3,145.4z"/>
		<path d="M81.1,148.8l-0.8-0.5c0.2-0.4,0.5-0.7,0.8-0.8c0.3-0.1,0.7-0.1,1.2,0c0.4,0.1,0.7,0.3,0.9,0.5c0.2,0.2,0.3,0.4,0.3,0.6
			c0,0.2-0.1,0.6-0.2,1.2l-0.5,1.4c-0.1,0.4-0.2,0.7-0.2,0.9c0,0.2,0,0.4,0,0.7l-1-0.3c0-0.1,0-0.2,0-0.4c0-0.1,0-0.1,0-0.2
			c-0.2,0.2-0.5,0.2-0.7,0.3c-0.2,0-0.4,0-0.7,0c-0.4-0.1-0.6-0.4-0.8-0.7c-0.1-0.3-0.1-0.7,0-1.1c0.1-0.3,0.2-0.5,0.4-0.7
			s0.4-0.3,0.6-0.3c0.2-0.1,0.5-0.1,0.9,0c0.5,0,0.9,0,1.1,0l0-0.1c0.1-0.2,0.1-0.4,0-0.6c-0.1-0.1-0.2-0.2-0.5-0.3
			c-0.2-0.1-0.3-0.1-0.5,0C81.3,148.5,81.2,148.6,81.1,148.8z M82.1,150.3c-0.1,0-0.4,0-0.7,0c-0.3,0-0.5,0-0.6,0
			c-0.2,0.1-0.3,0.2-0.3,0.4c-0.1,0.2-0.1,0.3,0,0.5c0.1,0.2,0.2,0.3,0.3,0.3c0.2,0.1,0.4,0,0.6-0.1c0.2-0.1,0.3-0.2,0.4-0.3
			c0.1-0.1,0.1-0.3,0.2-0.6L82.1,150.3z"/>
		<path d="M87.4,149.1l-0.3,1l-0.7-0.2l-0.5,1.9c-0.1,0.4-0.1,0.6-0.2,0.7c0,0.1,0,0.1,0,0.2c0,0.1,0.1,0.1,0.2,0.1
			c0.1,0,0.2,0,0.4,0l-0.2,1c-0.3,0.1-0.5,0.1-0.8,0c-0.2,0-0.3-0.1-0.5-0.2c-0.1-0.1-0.2-0.2-0.2-0.4c0-0.1,0-0.3,0-0.5
			c0-0.2,0.1-0.5,0.2-0.9l0.5-2.1l-0.5-0.1l0.3-1l0.5,0.1l0.2-0.9l1.2-0.5l-0.4,1.7L87.4,149.1z"/>
		<path d="M88.1,154.3l1-4.8l1,0.2l-1,4.8L88.1,154.3z M89.1,148.8l0.2-1.2l1,0.2l-0.2,1.2L89.1,148.8z"/>
		<path d="M92.4,155l-0.9-5.1l1.1,0.1l0.4,2.6l0.1,0.9c0.1-0.2,0.1-0.3,0.2-0.4c0.1-0.1,0.1-0.3,0.2-0.4l1.1-2.4l1.1,0.1l-2.2,4.7
			L92.4,155z"/>
		<path d="M99.2,154l1,0.3c-0.2,0.5-0.4,0.8-0.7,1.1c-0.3,0.2-0.7,0.3-1.1,0.3c-0.7,0-1.2-0.3-1.5-0.9c-0.2-0.5-0.3-1-0.3-1.7
			c0-0.8,0.2-1.4,0.6-1.9c0.4-0.4,0.8-0.7,1.3-0.6c0.6,0,1,0.3,1.4,0.8c0.3,0.5,0.4,1.2,0.4,2.2l-2.6-0.1c0,0.4,0.1,0.7,0.2,0.9
			c0.2,0.2,0.3,0.3,0.6,0.3c0.2,0,0.3,0,0.4-0.1C99,154.4,99.1,154.3,99.2,154z M99.3,152.7c0-0.4-0.1-0.7-0.2-0.9
			c-0.1-0.2-0.3-0.3-0.5-0.3c-0.2,0-0.4,0.1-0.6,0.3c-0.2,0.2-0.2,0.5-0.3,0.8L99.3,152.7z"/>
		<path d="M107,150.4l0.1,1l-0.7,0.1l0.2,2c0,0.4,0.1,0.6,0.1,0.7c0,0.1,0.1,0.1,0.1,0.2c0.1,0,0.1,0.1,0.2,0.1
			c0.1,0,0.2-0.1,0.4-0.2l0.2,1c-0.2,0.1-0.5,0.2-0.8,0.3c-0.2,0-0.4,0-0.5-0.1c-0.2-0.1-0.3-0.2-0.4-0.3c-0.1-0.1-0.1-0.3-0.2-0.5
			c0-0.1-0.1-0.5-0.1-0.9l-0.2-2.1l-0.5,0l-0.1-1l0.5,0l-0.1-1l1-0.8l0.1,1.7L107,150.4z"/>
		<path d="M108.7,152.7c-0.1-0.4,0-0.9,0.1-1.3s0.3-0.8,0.6-1c0.3-0.3,0.6-0.4,1-0.5c0.6-0.1,1.1,0.1,1.6,0.5c0.4,0.4,0.7,1,0.8,1.7
			c0.1,0.7,0,1.4-0.3,1.9c-0.3,0.5-0.7,0.9-1.3,0.9c-0.4,0.1-0.7,0-1.1-0.1c-0.4-0.2-0.6-0.4-0.9-0.8
			C108.9,153.7,108.8,153.2,108.7,152.7z M109.7,152.6c0.1,0.5,0.2,0.8,0.4,1.1c0.2,0.2,0.5,0.3,0.7,0.3c0.3,0,0.5-0.2,0.6-0.5
			c0.1-0.3,0.2-0.7,0.1-1.2c-0.1-0.5-0.2-0.8-0.4-1.1c-0.2-0.2-0.5-0.3-0.7-0.3c-0.3,0-0.5,0.2-0.6,0.5
			C109.7,151.7,109.7,152.1,109.7,152.6z"/>
		<path d="M116.9,148.7l0.9-0.3l0.2,0.6c0.2-0.6,0.5-1,0.9-1.1c0.2-0.1,0.5-0.1,0.7,0c0.2,0.1,0.4,0.2,0.6,0.4
			c0.1-0.3,0.2-0.5,0.4-0.7c0.2-0.2,0.3-0.3,0.6-0.4c0.3-0.1,0.5-0.1,0.8,0c0.2,0.1,0.4,0.2,0.6,0.5c0.1,0.2,0.3,0.5,0.4,0.9l1,3
			l-1,0.3l-0.8-2.7c-0.1-0.5-0.3-0.8-0.4-0.9c-0.1-0.1-0.3-0.2-0.5-0.1c-0.1,0-0.3,0.1-0.3,0.3c-0.1,0.1-0.1,0.3-0.1,0.6
			c0,0.2,0.1,0.6,0.2,1l0.7,2.3l-1,0.3l-0.8-2.6c-0.1-0.5-0.3-0.7-0.3-0.9c-0.1-0.1-0.2-0.2-0.3-0.2c-0.1,0-0.2,0-0.3,0
			c-0.2,0-0.3,0.1-0.4,0.3c-0.1,0.1-0.1,0.3-0.1,0.5c0,0.2,0.1,0.5,0.2,1l0.7,2.3l-1,0.3L116.9,148.7z"/>
		<path d="M125.4,147.3l-1,0.2c-0.1-0.5-0.1-0.9,0.1-1.2c0.1-0.3,0.5-0.6,0.9-0.8c0.4-0.2,0.8-0.3,1-0.2c0.3,0,0.5,0.1,0.6,0.3
			c0.2,0.2,0.4,0.5,0.6,1l0.6,1.4c0.2,0.4,0.3,0.7,0.4,0.9c0.1,0.2,0.3,0.4,0.4,0.5l-0.9,0.4c-0.1-0.1-0.1-0.2-0.2-0.3
			c0-0.1-0.1-0.1-0.1-0.1c-0.1,0.3-0.2,0.5-0.3,0.7c-0.1,0.2-0.3,0.3-0.5,0.4c-0.4,0.2-0.7,0.2-1,0c-0.3-0.2-0.6-0.4-0.7-0.8
			c-0.1-0.3-0.2-0.5-0.2-0.7c0-0.2,0.1-0.5,0.2-0.6c0.1-0.2,0.3-0.4,0.6-0.6c0.4-0.3,0.7-0.5,0.8-0.7l-0.1-0.1
			c-0.1-0.2-0.2-0.4-0.3-0.4c-0.1-0.1-0.3,0-0.6,0.1c-0.2,0.1-0.3,0.2-0.3,0.3C125.4,146.9,125.4,147.1,125.4,147.3z M127.1,147.7
			c-0.1,0.1-0.3,0.2-0.5,0.4c-0.2,0.2-0.4,0.3-0.4,0.4c-0.1,0.2-0.1,0.3,0,0.5c0.1,0.2,0.2,0.3,0.3,0.4c0.2,0.1,0.3,0.1,0.5,0
			c0.2-0.1,0.3-0.2,0.4-0.4c0.1-0.2,0.1-0.3,0.1-0.5c0-0.1-0.1-0.3-0.2-0.6L127.1,147.7z"/>
		<path d="M131.1,148.5l-3.2-6l0.9-0.5l1.7,3.2l0.3-2.1l1.1-0.6l-0.3,2.2l2.7,2.1l-1,0.5l-1.9-1.5l-0.1,0.8l0.7,1.4L131.1,148.5z"/>
		<path d="M137,143.2l1-0.4c0.1,0.5,0.2,0.9,0.1,1.3c-0.1,0.4-0.3,0.7-0.7,0.9c-0.6,0.4-1.2,0.4-1.7,0.1c-0.5-0.2-0.9-0.6-1.2-1.2
			c-0.4-0.7-0.6-1.3-0.6-1.9c0-0.6,0.3-1,0.7-1.3c0.5-0.3,1-0.4,1.6-0.1c0.5,0.2,1.1,0.8,1.6,1.6l-2.2,1.4c0.2,0.3,0.5,0.5,0.7,0.6
			c0.3,0.1,0.5,0.1,0.7-0.1c0.1-0.1,0.2-0.2,0.3-0.4C137.1,143.7,137.1,143.5,137,143.2z M136.3,142.1c-0.2-0.3-0.4-0.5-0.7-0.6
			c-0.2-0.1-0.4-0.1-0.6,0c-0.2,0.1-0.3,0.3-0.3,0.6c0,0.3,0.1,0.5,0.3,0.8L136.3,142.1z"/>
		<path d="M139.4,134.9l1.6,1.9c-0.1-0.6,0.1-1,0.4-1.3c0.2-0.2,0.4-0.3,0.6-0.3c0.2,0,0.4,0,0.6,0s0.4,0.2,0.5,0.3
			c0.2,0.1,0.4,0.4,0.7,0.7l1.9,2.2L145,139l-1.7-2c-0.3-0.4-0.6-0.6-0.7-0.7c-0.1-0.1-0.2-0.1-0.4-0.1c-0.1,0-0.3,0.1-0.4,0.2
			c-0.1,0.1-0.2,0.3-0.2,0.4c0,0.2,0,0.4,0.1,0.6c0.1,0.2,0.3,0.5,0.5,0.8l1.6,1.9l-0.8,0.7l-4.4-5.2L139.4,134.9z"/>
		<path d="M145.5,135.1c-0.3-0.3-0.6-0.7-0.7-1.1c-0.2-0.4-0.2-0.8-0.2-1.2c0.1-0.4,0.2-0.7,0.5-1c0.4-0.4,0.9-0.6,1.5-0.5
			c0.6,0.1,1.2,0.4,1.7,0.9c0.5,0.5,0.8,1.1,0.9,1.7c0.1,0.6-0.1,1.1-0.5,1.6c-0.3,0.3-0.6,0.4-0.9,0.5c-0.4,0.1-0.8,0.1-1.2-0.1
			C146.3,135.8,145.9,135.5,145.5,135.1z M146.3,134.4c0.4,0.3,0.7,0.5,1,0.6c0.3,0,0.6,0,0.8-0.2c0.2-0.2,0.3-0.5,0.2-0.8
			c-0.1-0.3-0.3-0.6-0.6-1c-0.3-0.3-0.7-0.5-1-0.6c-0.3,0-0.6,0-0.8,0.2c-0.2,0.2-0.3,0.5-0.2,0.8
			C145.7,133.8,145.9,134.1,146.3,134.4z"/>
		<path d="M147.7,129.4l0.6-0.8l0.5,0.4c-0.2-0.6-0.2-1.1,0.1-1.4c0.2-0.2,0.3-0.3,0.6-0.4c0.2-0.1,0.5-0.1,0.7,0
			c-0.1-0.3-0.1-0.6-0.1-0.8c0-0.2,0.1-0.4,0.2-0.6c0.2-0.2,0.4-0.4,0.6-0.4c0.2-0.1,0.5-0.1,0.8,0c0.2,0.1,0.5,0.3,0.9,0.5l2.5,1.9
			l-0.6,0.8l-2.2-1.7c-0.4-0.3-0.7-0.5-0.8-0.5c-0.2,0-0.4,0-0.5,0.2c-0.1,0.1-0.1,0.3-0.1,0.4c0,0.2,0.1,0.3,0.2,0.5
			c0.1,0.2,0.4,0.4,0.8,0.7l1.9,1.5l-0.6,0.8l-2.1-1.7c-0.4-0.3-0.6-0.5-0.8-0.5c-0.1-0.1-0.2-0.1-0.3-0.1c-0.1,0-0.2,0.1-0.3,0.2
			c-0.1,0.1-0.1,0.3-0.1,0.4c0,0.2,0.1,0.3,0.2,0.5c0.1,0.2,0.4,0.4,0.8,0.7l1.9,1.5l-0.6,0.8L147.7,129.4z"/>
		<path d="M156.3,123l0.7-0.8c0.3,0.4,0.5,0.7,0.6,1.1c0.1,0.4,0,0.7-0.3,1.1c-0.4,0.6-0.9,0.9-1.5,0.8c-0.5,0-1.1-0.2-1.6-0.6
			c-0.7-0.4-1.1-0.9-1.4-1.4c-0.2-0.5-0.2-1,0.1-1.5c0.3-0.5,0.8-0.8,1.4-0.8c0.6,0,1.3,0.2,2.1,0.8l-1.4,2.2
			c0.3,0.2,0.6,0.3,0.9,0.3c0.3,0,0.5-0.1,0.6-0.3c0.1-0.1,0.1-0.3,0.1-0.4C156.6,123.4,156.5,123.2,156.3,123z M155.3,122.3
			c-0.3-0.2-0.6-0.3-0.9-0.3c-0.2,0-0.4,0.1-0.5,0.3c-0.1,0.2-0.1,0.4,0,0.6c0.1,0.2,0.3,0.4,0.6,0.6L155.3,122.3z"/>
		<path d="M157.9,120.8l0.3-1c0.2,0.1,0.5,0.1,0.6,0c0.2-0.1,0.3-0.2,0.4-0.4c0.1-0.2,0.2-0.4,0.1-0.6c0-0.1-0.1-0.2-0.2-0.3
			c-0.1,0-0.2-0.1-0.3,0c-0.1,0-0.2,0.1-0.3,0.2c-0.6,0.6-1,1-1.3,1.1c-0.4,0.2-0.8,0.1-1.2-0.1c-0.4-0.2-0.6-0.5-0.8-0.9
			c-0.1-0.4-0.1-0.8,0.2-1.3c0.2-0.5,0.5-0.8,0.8-0.9c0.3-0.1,0.7-0.1,1.1,0l-0.2,1c-0.2-0.1-0.4,0-0.5,0c-0.1,0.1-0.3,0.2-0.4,0.4
			c-0.1,0.2-0.2,0.4-0.1,0.6c0,0.1,0.1,0.2,0.2,0.2c0.1,0,0.2,0,0.3,0c0.1,0,0.4-0.3,0.8-0.7c0.4-0.4,0.7-0.7,1-0.8
			c0.3-0.1,0.6,0,1,0.2c0.4,0.2,0.7,0.5,0.8,0.9c0.2,0.4,0.1,0.9-0.2,1.4c-0.2,0.5-0.6,0.8-0.9,0.9
			C158.8,120.9,158.3,120.9,157.9,120.8z"/>
		<path d="M163.3,112.3l-5.1-0.3l0.3-1l3.3,0.3l-2.9-1.6l0.3-1l3.3,0.4l-2.8-1.7l0.3-1l4.3,2.7l-0.3,1l-3.2-0.3l2.8,1.6L163.3,112.3
			z"/>
		<path d="M162,104.6l-0.4,0.9c-0.4-0.2-0.7-0.5-0.9-0.8c-0.2-0.3-0.2-0.7-0.1-1.2c0.1-0.5,0.3-0.8,0.4-1c0.2-0.2,0.4-0.3,0.6-0.3
			c0.2,0,0.6,0,1.2,0.1l1.5,0.4c0.4,0.1,0.7,0.2,0.9,0.2c0.2,0,0.4,0,0.7,0l-0.2,1c-0.1,0-0.2,0-0.4,0c-0.1,0-0.1,0-0.2,0
			c0.2,0.2,0.3,0.4,0.3,0.7c0.1,0.2,0.1,0.4,0,0.7c-0.1,0.4-0.3,0.7-0.6,0.8c-0.3,0.2-0.7,0.2-1.1,0.1c-0.3-0.1-0.5-0.2-0.7-0.3
			c-0.2-0.2-0.3-0.3-0.4-0.6c-0.1-0.2-0.1-0.5-0.1-0.9c0-0.5,0-0.9-0.1-1.1l-0.1,0c-0.2-0.1-0.4,0-0.6,0c-0.1,0.1-0.2,0.2-0.3,0.5
			c0,0.2,0,0.3,0,0.5C161.7,104.4,161.8,104.5,162,104.6z M163.4,103.5c0,0.1,0,0.4,0,0.7c0,0.3,0,0.5,0.1,0.6
			c0.1,0.2,0.2,0.3,0.4,0.3c0.2,0,0.3,0,0.5-0.1c0.2-0.1,0.2-0.2,0.3-0.4c0-0.2,0-0.4-0.1-0.6c-0.1-0.2-0.2-0.3-0.4-0.3
			c-0.1-0.1-0.3-0.1-0.6-0.2L163.4,103.5z"/>
		<path d="M166.5,99.8l-0.2,1l-4.9-0.8l0.2-1l0.7,0.1c-0.3-0.2-0.5-0.4-0.6-0.5c-0.1-0.1-0.1-0.3-0.1-0.5c0-0.2,0.2-0.4,0.4-0.6
			l1.1,0.5c-0.2,0.2-0.3,0.3-0.3,0.4c0,0.1,0,0.3,0.1,0.4c0.1,0.1,0.3,0.2,0.5,0.3c0.3,0.1,0.8,0.2,1.6,0.3L166.5,99.8z"/>
		<path d="M162.1,96.3l0.1-1l0.7,0c-0.5-0.4-0.7-0.8-0.7-1.3c0-0.3,0.1-0.5,0.2-0.6c0.1-0.2,0.3-0.3,0.6-0.4
			c-0.2-0.2-0.4-0.4-0.6-0.6c-0.1-0.2-0.2-0.4-0.2-0.7c0-0.3,0.1-0.5,0.3-0.7c0.2-0.2,0.4-0.3,0.7-0.4c0.2-0.1,0.6-0.1,1,0l3.1,0.2
			l-0.1,1l-2.8-0.2c-0.5,0-0.8,0-1,0c-0.2,0.1-0.3,0.2-0.3,0.4c0,0.1,0,0.3,0.1,0.4c0.1,0.1,0.3,0.2,0.5,0.3c0.2,0.1,0.5,0.1,1,0.2
			l2.4,0.2l-0.1,1l-2.7-0.2c-0.5,0-0.8,0-0.9,0c-0.1,0-0.2,0.1-0.3,0.2c-0.1,0.1-0.1,0.2-0.1,0.3c0,0.2,0,0.3,0.1,0.4
			c0.1,0.1,0.2,0.2,0.5,0.3c0.2,0.1,0.5,0.1,1,0.2l2.4,0.2l-0.1,1L162.1,96.3z"/>
		<path d="M165.7,86.2l0.2-1c0.5,0.1,0.9,0.3,1.1,0.6c0.3,0.3,0.4,0.6,0.4,1.1c0,0.7-0.2,1.2-0.8,1.6c-0.4,0.3-1,0.4-1.7,0.5
			c-0.8,0-1.5-0.1-1.9-0.4c-0.5-0.3-0.7-0.7-0.7-1.3c0-0.6,0.2-1.1,0.7-1.4c0.5-0.4,1.2-0.5,2.2-0.6l0.1,2.6c0.4,0,0.7-0.1,0.9-0.3
			c0.2-0.2,0.3-0.4,0.3-0.6c0-0.2-0.1-0.3-0.2-0.4C166.1,86.4,165.9,86.3,165.7,86.2z M164.3,86.2c-0.4,0-0.7,0.1-0.9,0.3
			c-0.2,0.2-0.3,0.3-0.3,0.6c0,0.2,0.1,0.4,0.3,0.6c0.2,0.1,0.5,0.2,0.9,0.2L164.3,86.2z"/>
		<path d="M166.9,82l0.1,1l-4.9,0.6l-0.1-1l0.7-0.1c-0.3-0.1-0.6-0.2-0.7-0.4c-0.1-0.1-0.2-0.3-0.2-0.4c0-0.2,0-0.5,0.2-0.7l1.2,0.2
			c-0.1,0.2-0.2,0.4-0.2,0.5c0,0.1,0.1,0.3,0.2,0.4c0.1,0.1,0.3,0.1,0.6,0.2c0.3,0,0.8,0,1.7-0.1L166.9,82z"/>
	</g>
	<path fill="#4CA22F" stroke="#FFFFFF" stroke-width="1.0978" stroke-linecap="round" stroke-linejoin="round" d="M78.3,91.1
		c0,0,6.7,3.3,11.7,13.4c0,0,3.3,7.3,6.5,3.7c2.3-2.6,3.8-6,3.8-6s10.6-22.9,22.9-32.4c0,0,3.1-2.3,1.5-4.2c-1.4-1.7-3.2-1.3-4-1.1
		c-0.8,0.2-14.9,5.5-26.6,26.6c0,0-7.3-8.2-14.2-4.6C79.9,86.3,75.5,88.9,78.3,91.1z"/>
	<circle cx="54.8" cy="89.5" r="2.4"/>
	<circle cx="147.3" cy="89.5" r="2.4"/>
</g>
<g id="FREE_INSULATION">
	<g>
		<path d="M53.7,76.5l1.7,0.5l0.6-2.4l2.2,0.6l-0.6,2.4l3.9,1.1l-0.6,2.1L51,78l1.3-4.7l2.2,0.6L53.7,76.5z"/>
		<path d="M66,67.8l-1.2,2.5l-4.5,0.1l0,0l3.5,1.7l-1,2l-9.2-4.5l1.5-3c0.7-1.5,2.2-2.2,4.2-1.3c1.3,0.6,2.1,1.8,1.8,3L66,67.8z
			 M58.7,69.7l0.1-0.2c0.3-0.7,0.5-1.5-0.5-2c-1-0.5-1.5,0.2-1.8,0.8l-0.1,0.2L58.7,69.7z"/>
		<path d="M61.7,60.2l1.4,1l1.5-2l1.8,1.4l-1.5,2l1.4,1.1l1.6-2.1l1.8,1.4l-2.9,3.9l-8.2-6.2l2.9-3.9l1.8,1.4L61.7,60.2z"/>
		<path d="M67.2,53.9l1.2,1.2l1.8-1.7l1.6,1.6L70,56.8l1.2,1.3l1.9-1.8l1.6,1.6l-3.5,3.4l-7.1-7.5l3.5-3.4l1.6,1.6L67.2,53.9z"/>
		<path d="M82.6,52.7l-2,1.1l-4.9-9l2-1.1L82.6,52.7z"/>
		<path d="M81.3,41.8l2.1-0.7l5.8,4.7l0,0l-1.9-6l2.1-0.7l3.2,9.8l-2.1,0.7l-5.8-4.7l0,0l1.9,6l-2.1,0.7L81.3,41.8z"/>
		<path d="M98.5,40.7c-0.4-0.4-1-0.6-1.5-0.5c-0.4,0-0.9,0.4-0.9,0.9c0.1,0.6,0.7,0.8,1.1,0.9l0.6,0.1c1.2,0.3,2.2,0.9,2.4,2.6
			c0.1,1,0,2.1-0.6,2.8c-0.6,0.7-1.5,1.1-2.3,1.2c-1.1,0.1-2.2-0.2-3.1-0.9l0.7-2.2c0.6,0.5,1.3,0.9,2.1,0.9c0.5,0,1-0.4,1-1.1
			c-0.1-0.7-1-0.9-1.5-1C95,44,94,43.6,93.8,41.6c-0.2-2.1,0.9-3.5,2.6-3.7c0.9-0.1,1.9,0.1,2.7,0.6L98.5,40.7z"/>
		<path d="M110.6,38.7l-0.6,5.7c-0.1,1.3-0.3,2.6-1.3,3.5c-0.8,0.8-2,0.9-2.9,0.8c-1-0.1-2.1-0.5-2.7-1.4c-0.7-1.1-0.6-2.4-0.5-3.7
			l0.6-5.7l2.2,0.2l-0.6,5.4c-0.1,1.3-0.2,2.8,1.2,2.9c1.4,0.2,1.7-1.3,1.8-2.6l0.6-5.4L110.6,38.7z"/>
		<path d="M114.3,48l2.5,0.8l-0.7,2.2l-4.7-1.5l3-9.8l2.1,0.7L114.3,48z"/>
		<path d="M120.3,50.9l-1.4,1.3l-2.1-1.1l7.8-7.5l2.1,1.2l-2,10.6l-2.1-1.1l0.4-1.8L120.3,50.9z M124.2,46.9L124.2,46.9l-2.4,2.4
			l1.6,0.9L124.2,46.9z"/>
		<path d="M127.9,58l-1.7-1.4l5-6.3l-1.4-1.1l1.4-1.8l4.6,3.7l-1.4,1.8l-1.4-1.1L127.9,58z"/>
		<path d="M132,62l-1.5-1.6l7.5-7l1.5,1.6L132,62z"/>
		<path d="M143,68.3c-2.8,1.8-5.8,1.4-7.3-0.9c-1.5-2.3-0.6-5.2,2.2-7c2.6-1.7,5.7-1,7,1.1C146.2,63.5,145.6,66.6,143,68.3z
			 M139.1,62.3c-1.5,1-2,2.6-1.3,3.7c0.7,1.1,2.4,1.3,3.9,0.4c1.2-0.8,1.7-2.4,1-3.5S140.3,61.5,139.1,62.3z"/>
		<path d="M148.8,69.3l0.7,2.1l-4.7,5.8l0,0l6-2l0.7,2.1l-9.8,3.2l-0.7-2.1l4.7-5.8l0,0l-6,2l-0.7-2.1L148.8,69.3z"/>
	</g>
	<g>
		<path d="M59.3,101.2l-1.7,0.5l0.7,2.3l-2.2,0.6l-0.7-2.3l-3.9,1.1l-0.6-2.1l9.9-2.8l1.3,4.7l-2.2,0.6L59.3,101.2z"/>
		<path d="M56.9,115.9l-1.2-2.5l2.6-3.6l0,0l-3.5,1.8l-1-2l9.2-4.6l1.5,3c0.8,1.5,0.5,3.1-1.5,4.1c-1.3,0.6-2.7,0.6-3.4-0.4
			L56.9,115.9z M59.8,109l0.1,0.2c0.3,0.7,0.8,1.3,1.8,0.8c1-0.5,0.8-1.3,0.5-2l-0.1-0.2L59.8,109z"/>
		<path d="M66.4,115.5l-1.4,1l1.5,2l-1.8,1.4l-1.5-2l-1.4,1.1l1.6,2.1l-1.8,1.4l-2.9-3.9l8.2-6.2l2.9,3.9l-1.8,1.4L66.4,115.5z"/>
		<path d="M71.3,121.1l-1.2,1.2L72,124l-1.6,1.6l-1.8-1.7l-1.2,1.3l1.9,1.8l-1.6,1.6l-3.5-3.3l7-7.5l3.5,3.3l-1.5,1.6L71.3,121.1z"
			/>
		<path d="M77.8,135.4l-2-1.1l4.9-9l2,1.1L77.8,135.4z"/>
		<path d="M84.6,127.5l2.1,0.7l2,7.2l0,0l1.9-6l2.1,0.7l-3.1,9.8l-2.1-0.7l-2-7.2l0,0l-1.9,6l-2.1-0.7L84.6,127.5z"/>
		<path d="M99.2,133.4c-0.4-0.4-0.9-0.8-1.4-0.8c-0.4,0-1,0.2-1,0.8c-0.1,0.6,0.5,0.9,0.9,1.1l0.5,0.3c1.1,0.5,2,1.3,1.9,3
			c-0.1,1-0.4,2-1.1,2.7c-0.7,0.6-1.6,0.8-2.5,0.7c-1.1-0.1-2.1-0.6-2.9-1.4l1.1-2.1c0.5,0.6,1.1,1.2,1.9,1.2c0.5,0,1.1-0.2,1.2-0.9
			c0.1-0.7-0.8-1.1-1.2-1.3c-1.3-0.6-2.2-1.1-2-3.1c0.2-2.1,1.5-3.3,3.2-3.2c0.9,0.1,1.9,0.5,2.6,1.1L99.2,133.4z"/>
		<path d="M109.7,130l0.7,5.7c0.1,1.3,0.3,2.6-0.5,3.7c-0.6,0.9-1.7,1.3-2.7,1.5c-1,0.1-2.1-0.1-2.9-0.8c-1-0.9-1.2-2.2-1.3-3.5
			l-0.7-5.7l2.2-0.3l0.6,5.4c0.2,1.3,0.4,2.8,1.8,2.6c1.4-0.2,1.3-1.6,1.2-2.9l-0.6-5.4L109.7,130z"/>
		<path d="M116.2,136.4l2.5-0.8l0.7,2.2l-4.7,1.5l-3.1-9.8l2.1-0.7L116.2,136.4z"/>
		<path d="M123.7,133.9l0.3,1.8l-2.1,1.1l-2-10.6l2.1-1.2l7.7,7.5l-2.1,1.1l-1.3-1.3L123.7,133.9z M122.5,128.5L122.5,128.5l0.7,3.3
			l1.6-0.9L122.5,128.5z"/>
		<path d="M134.5,128.9l-1.7,1.4l-5-6.2l-1.4,1.2l-1.4-1.8l4.6-3.7l1.4,1.8l-1.4,1.2L134.5,128.9z"/>
		<path d="M139.7,123.8l-1.5,1.6l-7.5-7l1.5-1.6L139.7,123.8z"/>
		<path d="M142.7,110.3c2.8,1.8,3.7,4.7,2.2,7c-1.5,2.3-4.5,2.7-7.3,0.9c-2.6-1.7-3.2-4.8-1.9-6.8
			C137.1,109.4,140.1,108.6,142.7,110.3z M138.9,116.4c1.5,1,3.2,0.7,3.9-0.4c0.7-1.1,0.2-2.7-1.3-3.7c-1.2-0.8-2.9-0.5-3.6,0.6
			C137.2,114,137.7,115.6,138.9,116.4z"/>
		<path d="M139.1,106.3l0.7-2.1l7.2-1.9l0,0l-6-1.9l0.7-2.1l9.8,3.2l-0.7,2.1l-7.2,1.9l0,0l6,1.9l-0.7,2.1L139.1,106.3z"/>
	</g>
</g>
</svg>
