<?xml version="1.0" encoding="utf-8"?>
<!-- Generator: Adobe Illustrator 18.0.0, SVG Export Plug-In . SVG Version: 6.00 Build 0)  -->
<!DOCTYPE svg PUBLIC "-//W3C//DTD SVG 1.1//EN" "http://www.w3.org/Graphics/SVG/1.1/DTD/svg11.dtd">
<svg version="1.1" id="Heating" xmlns="http://www.w3.org/2000/svg" xmlns:xlink="http://www.w3.org/1999/xlink" x="0px" y="0px"
	 viewBox="0 0 111.3 111.3" enable-background="new 0 0 111.3 111.3" xml:space="preserve">
<circle fill="#00AAED" cx="55.7" cy="56.1" r="54.4"/>
<g>
	<defs>
		<circle id="SVGID_1_" cx="55.7" cy="56.1" r="54.4"/>
	</defs>
	<clipPath id="SVGID_2_">
		<use xlink:href="#SVGID_1_"  overflow="visible"/>
	</clipPath>
	<polygon clip-path="url(#SVGID_2_)" fill="#0092D3" points="76.2,131 32.4,87.2 32.4,67.1 22.4,57 54.9,24.9 58.4,22.1 121.7,85.5 
			"/>
</g>
<g>
	<g>
		<path fill="none" stroke="#FFFFFF" stroke-width="2.6717" stroke-linecap="round" stroke-miterlimit="10" d="M79.1,47.9v35.6
			c0,2.4-1.3,3.4-2.6,3.4"/>
		<path fill="none" stroke="#FFFFFF" stroke-width="2.6717" stroke-linecap="round" stroke-miterlimit="10" d="M32.3,47.9v35.6
			c0,2.3,1.3,3.4,2.6,3.4"/>
	</g>
	<g>
		
			<line fill="none" stroke="#FFFFFF" stroke-width="6.234" stroke-linecap="round" stroke-linejoin="round" stroke-miterlimit="10" x1="55.7" y1="23.9" x2="86.7" y2="54.9"/>
		
			<line fill="none" stroke="#FFFFFF" stroke-width="6.234" stroke-linecap="round" stroke-linejoin="round" stroke-miterlimit="10" x1="55.7" y1="23.9" x2="24.7" y2="54.9"/>
	</g>
	<g>
		<path fill="none" stroke="#FFFFFF" stroke-width="2.6717" stroke-linecap="round" stroke-miterlimit="10" d="M49.5,71.6v13.5
			c0,1-1,1.9-2.1,1.9c-1,0-2.1-0.8-2.1-1.9V71.6"/>
		<path fill="none" stroke="#FFFFFF" stroke-width="2.6717" stroke-linecap="round" stroke-miterlimit="10" d="M49.5,71.6V58
			c0-1,1-1.9,2.1-1.9s2.1,0.8,2.1,1.9v13.5"/>
		<path fill="none" stroke="#FFFFFF" stroke-width="2.6717" stroke-linecap="round" stroke-miterlimit="10" d="M57.8,71.6v13.5
			c0,1-1,1.9-2.1,1.9c-1,0-2.1-0.8-2.1-1.9V71.6"/>
		<path fill="none" stroke="#FFFFFF" stroke-width="2.6717" stroke-linecap="round" stroke-miterlimit="10" d="M57.8,71.6V58
			c0-1,1-1.9,2.1-1.9s2.1,0.8,2.1,1.9v13.5"/>
		<path fill="none" stroke="#FFFFFF" stroke-width="2.6717" stroke-linecap="round" stroke-miterlimit="10" d="M66,71.6v13.5
			c0,1-1,1.9-2.1,1.9c-1,0-2.1-0.8-2.1-1.9V71.6"/>
		<path fill="none" stroke="#FFFFFF" stroke-width="2.6717" stroke-linecap="round" stroke-miterlimit="10" d="M66,71.6V58
			c0-1,1-1.9,2.1-1.9"/>
		<path fill="none" stroke="#FFFFFF" stroke-width="2.6717" stroke-linecap="round" stroke-miterlimit="10" d="M45.4,71.6V58
			c0-1-1-1.9-2.1-1.9S41.2,57,41.2,58V85c0,1-0.8,1.9-1.9,1.9H35"/>
		<path fill="none" stroke="#FFFFFF" stroke-width="2.6717" stroke-linecap="round" stroke-miterlimit="10" d="M68.1,56.2
			c1,0,2.1,0.8,2.1,1.9V85c0,1,0.8,1.9,1.9,1.9h4.4"/>
	</g>
</g>
</svg>
