<?xml version="1.0" encoding="utf-8"?>
<!-- Generator: Adobe Illustrator 17.1.0, SVG Export Plug-In . SVG Version: 6.00 Build 0)  -->
<!DOCTYPE svg PUBLIC "-//W3C//DTD SVG 1.1//EN" "http://www.w3.org/Graphics/SVG/1.1/DTD/svg11.dtd">
<svg version="1.1" id="two" xmlns="http://www.w3.org/2000/svg" xmlns:xlink="http://www.w3.org/1999/xlink" x="0px" y="0px"
	 viewBox="1071.3 82.7 283.5 283.5" enable-background="new 1071.3 82.7 283.5 283.5" xml:space="preserve">
<circle fill="#00AAED" cx="1213" cy="224.4" r="138.3"/>
<g>
	<g>
		<defs>
			<circle id="SVGID_3_" cx="1213" cy="224.4" r="138.3"/>
		</defs>
		<clipPath id="SVGID_1_">
			<use xlink:href="#SVGID_3_"  overflow="visible"/>
		</clipPath>
		<path clip-path="url(#SVGID_1_)" fill="#0092D3" d="M1238.2,172.7l-3.6,6.4c-4.8-3.8-13.2-8.4-27-8.4c-24.7,0-39.7,17.6-39.7,17.6
			l35.7,35.7l-6.9,8.4l32.6,32.9l-11.2,19.1l-30.1-30.1l-19.1,8.4l7.1,15.3l108.5,108.5l83.8-83.8L1238.2,172.7z"/>
	</g>
</g>
<g>
	<path fill="#FFFFFF" d="M1196.4,213.5h5.3c12,0,23.9-1.8,23.9-16.8c0-9.4-7.4-16.3-17.6-16.3c-8.4,0-15.5,5.1-18.3,13.5l-22.2-5.9
		c5.3-18.3,21.4-26.5,39.5-26.5c21.1,0,39.5,11.2,39.5,32.9c0,13.2-7.9,24.4-21.1,27.8v0.3c15.5,2.3,23.9,14.8,23.9,29.8
		c0,23.4-19.6,36.4-41.5,36.4c-20.1,0-36.9-8.4-42.3-28.8l22.2-5.9c2.5,10.2,8.9,16,20.1,16s20.6-7.9,20.6-19.4
		c0-16-14.5-18.8-27.3-18.8h-5.1v-18.3H1196.4z"/>
</g>
</svg>
