<?xml version="1.0" encoding="utf-8"?>
<!-- Generator: Adobe Illustrator 17.1.0, SVG Export Plug-In . SVG Version: 6.00 Build 0)  -->
<!DOCTYPE svg PUBLIC "-//W3C//DTD SVG 1.1//EN" "http://www.w3.org/Graphics/SVG/1.1/DTD/svg11.dtd">
<svg version="1.1" id="Layer_1" xmlns="http://www.w3.org/2000/svg" xmlns:xlink="http://www.w3.org/1999/xlink" x="0px" y="0px"
	 viewBox="0 0 808 418.3" enable-background="new 0 0 808 418.3" xml:space="preserve">
<rect x="-8" y="-16.1" fill="#015667" width="847" height="627.3"/>
<rect x="166.7" y="186.8" fill="#454545" stroke="#454545" stroke-width="0.5294" width="108.1" height="30.7"/>
<polyline fill="#506873" points="641.7,134 639.7,134 162.7,134 "/>
<path fill="#014D5B" d="M641.7,411.4c29.9,0,33.2-37.9,36.6-59.5c5.9-35.8,9.3-72.5,9.3-109c0-35.3-3.4-70.7-8.8-105.5
	c-3.6-22.9-5.1-63.5-37.2-63.5h-2h-477c-32.2,0-33.7,40.7-37.2,63.5c-5.4,34.8-8.8,70.4-8.8,105.5c0,36.3,3.4,73,9.3,109
	c3.6,21.6,6.9,59.5,36.6,59.5c1.6,0,477,0,477,0H641.7z"/>
<path fill="none" d="M641.7,411.4c29.9,0,33.2-37.9,36.6-59.5c5.9-35.8,9.3-72.5,9.3-109c0-35.3-3.4-70.7-8.8-105.5
	c-3.6-22.9-5.1-63.5-37.2-63.5h-2h-477c-32.2,0-33.7,40.7-37.2,63.5c-5.4,34.8-8.8,70.4-8.8,105.5c0,36.3,3.4,73,9.3,109
	c3.6,21.6,6.9,59.5,36.6,59.5c1.6,0,477,0,477,0H641.7z"/>
<path fill="#015667" d="M373.9,116c-4.2,0-7.7-3.4-7.7-7.7s3.4-7.7,7.7-7.7s7.7,3.4,7.7,7.7C381.6,112.6,378.2,116,373.9,116z"/>
<path fill="#015667" d="M389.3,107.4c-3.4,0-6-2.8-6-6c0-3.4,2.8-6,6-6c3.4,0,6,2.8,6,6C395.3,104.6,392.7,107.4,389.3,107.4z"/>
<path fill="#015667" d="M402,101c-2.9,0-5.2-2.3-5.2-5.2c0-2.9,2.3-5.2,5.2-5.2c2.9,0,5.2,2.3,5.2,5.2C407.3,98.7,405,101,402,101z"
	/>
<path fill="#015667" d="M413.6,97.6c-2.5,0-4.4-2-4.4-4.4s2-4.4,4.4-4.4c2.5,0,4.4,2,4.4,4.4C417.9,95.6,415.9,97.6,413.6,97.6z"/>
<path fill="#015667" d="M424.3,96.8c-2,0-3.4-1.6-3.4-3.4c0-2,1.6-3.4,3.4-3.4c2,0,3.4,1.6,3.4,3.4S426.2,96.8,424.3,96.8z"/>
<path fill="#015667" d="M432.7,98.4c-1.5,0-2.6-1.1-2.6-2.6s1.1-2.6,2.6-2.6c1.5,0,2.6,1.1,2.6,2.6
	C435.4,97.2,434.2,98.4,432.7,98.4z"/>
<g>
	<rect x="211.7" y="129.1" fill="#34AEC5" width="378.8" height="224.8"/>
	<rect x="211.7" y="129.1" fill="#015667" width="378.8" height="224.8"/>
</g>
<path fill="#015667" stroke="#0A4C5A" stroke-width="1.3939" d="M402.2,314.8c-0.2,0-1,0-2.1,0l-54.2-1c-1,0-2-1-2.1-2
	c0,0-4.1-39.4-4.1-53.1c0-13.7,4.1-53.1,4.1-53.1c0.2-1,1-2,2.1-2l54.2-1.1c1,0,2,0,2.1,0c0.2,0,1,0,2.1,0l54.2,1c1,0,2,1,2.1,2
	c0,0,4.1,39.4,4.1,53.1c0,13.7-4.1,53.1-4.1,53.1c-0.2,1-1,2-2.1,2l-54.2,1C403.3,314.8,402.4,314.8,402.2,314.8z"/>
<path fill="#015667" stroke="#0A4C5A" stroke-width="1.3939" d="M276.9,303.6c-0.2,0-0.8,0-1.6,0l-43.3-0.8c-0.8,0-1.6-0.7-1.6-1.5
	c0,0-3.3-31.5-3.3-42.5c0-10.9,3.3-42.5,3.3-42.5c0.2-0.8,0.8-1.5,1.6-1.6l43.3-0.8c0.8,0,1.6,0,1.6,0s0.8,0,1.6,0l43.3,0.8
	c0.8,0,1.6,0.7,1.6,1.6c0,0,3.3,31.5,3.3,42.5c0,10.9-3.3,42.5-3.3,42.5c-0.2,0.8-0.8,1.5-1.6,1.5l-43.3,0.8
	C277.7,303.6,277.1,303.6,276.9,303.6z"/>
<path fill="#015667" stroke="#0A4C5A" stroke-width="1.3939" d="M527.7,303.6c-0.2,0-0.8,0-1.6,0l-43.3-0.8c-0.8,0-1.6-0.7-1.6-1.5
	c0,0-3.3-31.5-3.3-42.5c0-10.9,3.3-42.5,3.3-42.5c0.2-0.8,0.8-1.5,1.6-1.6l43.3-0.8c0.8,0,1.6,0,1.6,0s0.8,0,1.6,0l43.3,0.8
	c0.8,0,1.6,0.7,1.6,1.6c0,0,3.3,31.5,3.3,42.5c0,10.9-3.3,42.5-3.3,42.5c-0.2,0.8-0.8,1.5-1.6,1.5l-43.3,0.8
	C528.5,303.6,527.7,303.6,527.7,303.6z"/>
<path fill="#014D5B" d="M364.8,241.2c9,0,10.8,9.3,10.8,16.3c0,6.7-2,16.3-10.8,16.3c-9,0-10.8-9.6-10.8-16.3
	C353.9,250.5,355.8,241.2,364.8,241.2z M364.8,269.9c5.9,0,6.5-8.5,6.5-12.6c0-4.4-0.7-12.6-6.5-12.6s-6.5,8.2-6.5,12.6
	C358.3,261.6,358.8,269.9,364.8,269.9z"/>
<path fill="#014D5B" d="M377,270.6c0-1.6,1.3-2.9,2.9-2.9s2.9,1.3,2.9,2.9s-1.3,2.9-2.9,2.9S377,272,377,270.6z"/>
<path fill="#014D5B" d="M395.2,241.2c9,0,10.8,9.3,10.8,16.3c0,6.7-2,16.3-10.8,16.3c-9,0-10.8-9.6-10.8-16.3
	C384.2,250.5,386.2,241.2,395.2,241.2z M395.2,269.9c6,0,6.5-8.5,6.5-12.6c0-4.4-0.7-12.6-6.5-12.6s-6.5,8.2-6.5,12.6
	C388.5,261.6,389.1,269.9,395.2,269.9z"/>
<path fill="#014D5B" d="M409.1,268.6l12.6-12.6c1.8-1.6,3.4-3.9,3.4-6.4c0-3.1-2.5-5.1-5.4-5.1c-3.1,0-5.2,1.8-5.7,4.9l-4.6-0.5
	c0.8-5.6,4.9-8.2,10.5-8.2c5.4,0,10,2.9,10,8.7c0,4.1-2.6,7.2-5.6,9.8l-10.3,10h15.8v3.8h-20.6v-4.4H409.1z"/>
<path fill="#014D5B" d="M441.4,246.5l-5.7,5.4l-2.5-2.9l8.8-7.2h3.8v31.5h-4.2v-26.8H441.4z"/>
<path fill="#014D5B" d="M506.3,243.9c7.4,0,8.8,7.7,8.8,13.2c0,5.4-1.6,13.2-8.8,13.2c-7.4,0-8.8-7.8-8.8-13.2
	C497.4,251.6,499.1,243.9,506.3,243.9z M506.3,267.5c4.9,0,5.4-6.9,5.4-10.1c0-3.6-0.5-10.1-5.4-10.1c-4.9,0-5.4,6.7-5.4,10.1
	C501,260.6,501.5,267.5,506.3,267.5z"/>
<path fill="#014D5B" d="M518.8,267.8c0-1.3,1.1-2.5,2.5-2.5c1.3,0,2.5,1.1,2.5,2.5c0,1.3-1.1,2.5-2.5,2.5
	C519.8,270.2,518.8,269.1,518.8,267.8z"/>
<path fill="#014D5B" d="M536,243.9c7.4,0,8.8,7.7,8.8,13.2c0,5.4-1.6,13.2-8.8,13.2c-7.4,0-8.8-7.8-8.8-13.2
	C527.2,251.6,528.6,243.9,536,243.9z M536,267.5c4.9,0,5.4-6.9,5.4-10.1c0-3.6-0.5-10.1-5.4-10.1c-4.9,0-5.4,6.7-5.4,10.1
	C530.6,260.6,531.1,267.5,536,267.5z"/>
<path fill="#014D5B" d="M555.1,248.3l-4.7,4.4l-2-2.5l7.2-5.9h3.1v25.6h-3.4v-21.7H555.1z"/>
<path fill="#014D5B" d="M244.1,266.3l10.3-10.1c1.5-1.3,2.8-3.1,2.8-5.2c0-2.6-2-4.1-4.4-4.1c-2.5,0-4.2,1.5-4.7,3.9l-3.8-0.3
	c0.7-4.6,4.1-6.7,8.5-6.7s8,2.5,8,7c0,3.4-2.1,5.7-4.4,8l-8.5,8.2h12.9v3.1h-16.8v-3.8H244.1z"/>
<path fill="#014D5B" d="M265.3,267.8c0-1.3,1.1-2.5,2.5-2.5s2.5,1.1,2.5,2.5c0,1.3-1.1,2.5-2.5,2.5
	C266.5,270.2,265.3,269.1,265.3,267.8z"/>
<path fill="#014D5B" d="M290.1,247.7h-10.5l-0.2,6.4c0.7-0.3,2.6-0.5,3.4-0.5c4.7,0,8,3.4,8,8.5s-4.1,8.5-9,8.5
	c-3.4,0-6.5-1.8-7.7-5.2l3.4-1.1c1,2.3,2.5,3.3,4.7,3.3c2.8,0,5.1-2,5.1-5.2c0-3.8-2.5-5.6-6.2-5.6c-1.3,0-3.6,0.5-5.2,1.3l0.3-13.6
	h13.7V247.7z"/>
<path fill="#014D5B" d="M304.5,260.1L304.5,260.1c-1,0.3-2,0.7-2.9,0.7c-3.8,0-8-2.5-8-8.2c0-5.7,3.9-8.7,8.8-8.7
	c4.7,0,8.8,3.3,8.8,8.2c0,3.1-1,5.1-2.6,7.5l-6.5,10.3H298L304.5,260.1z M302.4,247c-3.1,0-5.4,2.3-5.4,5.4c0,3.1,2.1,5.4,5.4,5.4
	c3.1,0,5.4-2.3,5.4-5.4C307.8,249.2,305.7,247,302.4,247z"/>
<path fill="none" stroke="#0A4C5A" stroke-width="1.1551" d="M471.5,192.1c-0.2,0.5-0.7,0.8-1.1,0.8c-45.6-7.8-92.1-7.8-137.5,0
	c-0.5,0.2-1-0.3-1.1-0.8c-2-11.6-4.1-23.2-6-34.6c-0.2-0.5,0.3-1,0.8-1.1c49.7-8.5,100.5-8.5,150.1,0c0.5,0.2,1,0.7,0.8,1.1
	C475.5,169.1,473.4,180.5,471.5,192.1z"/>
<path fill="#014D5B" d="M426.2,179.9c-3.1-0.2-8.3-0.5-11.4-0.7c-23.5-0.8-47,0.7-70.4,4.2c-3.1,0.5-6-1.6-6.7-4.7
	c-0.7-3.6-1.3-7.2-1.8-10.8c-0.5-3.1,1.6-6,5.1-6.7c24.7-3.9,49.7-5.4,74.5-4.6c3.3,0.2,8.8,0.3,12.1,0.7L426.2,179.9z"/>
</svg>
