<?xml version="1.0" encoding="utf-8"?>
<!-- Generator: Adobe Illustrator 17.1.0, SVG Export Plug-In . SVG Version: 6.00 Build 0)  -->
<!DOCTYPE svg PUBLIC "-//W3C//DTD SVG 1.1//EN" "http://www.w3.org/Graphics/SVG/1.1/DTD/svg11.dtd">
<svg version="1.1" id="Layer_1" xmlns="http://www.w3.org/2000/svg" xmlns:xlink="http://www.w3.org/1999/xlink" x="0px" y="0px"
	 viewBox="0 0 841.9 595.3" enable-background="new 0 0 841.9 595.3" xml:space="preserve">
<rect y="0" fill="#77787B" width="847" height="595.3"/>
<g>
	<path fill="none" stroke="#595959" stroke-width="0.25" d="M547.6,114.4C547.6,38.1,485.6-24,409.1-24S270.7,37.9,270.7,114.4
		s61.9,138.5,138.5,138.5S547.6,190.9,547.6,114.4z"/>
	<path fill="none" stroke="#595959" stroke-width="0.4375" d="M526.4,114.4c0-64.8-52.5-117.2-117.2-117.2S291.9,49.7,291.9,114.4
		s52.5,117.2,117.2,117.2S526.4,179.2,526.4,114.4z"/>
	<path fill="none" stroke="#595959" stroke-width="0.625" d="M505.3,114.4c0-53-43-96.2-96.2-96.2s-96.2,43-96.2,96.2
		s43,96.2,96.2,96.2S505.3,167.6,505.3,114.4z"/>
	<path fill="none" stroke="#595959" stroke-width="0.8125" d="M484.1,114.4c0-41.4-33.5-75-75-75s-75,33.5-75,75s33.5,75,75,75
		C450.6,189.5,484.1,155.9,484.1,114.4z"/>
	<path fill="none" stroke="#595959" d="M463,114.4c0-29.7-24-53.9-53.9-53.9s-53.9,24-53.9,53.9s24,53.9,53.9,53.9
		S463,144.3,463,114.4z"/>
	<path fill="#6D6E71" d="M413,452.3c0,2-1.7,3.7-3.7,3.7H94.3c-2,0-3.7-1.7-3.7-3.7V108.9c0-2,1.7-3.7,3.7-3.7h314.8
		c2,0,3.7,1.7,3.7,3.7v343.4H413z"/>
	<path fill="none" d="M413,452.3c0,2-1.7,3.7-3.7,3.7H94.3c-2,0-3.7-1.7-3.7-3.7V108.9c0-2,1.7-3.7,3.7-3.7h314.8
		c2,0,3.7,1.7,3.7,3.7v343.4H413z"/>
	<path fill="#7A7B7D" d="M346.2,180.9c0-3.3-2.7-5.9-5.9-5.9H163.3c-3.3,0-5.9,2.7-5.9,5.9v66c0,3.3,2.7,5.9,5.9,5.9h176.9
		c3.3,0,5.9-2.7,5.9-5.9V180.9z"/>
	<path fill="#77787B" d="M419.6,338.6c0,3.7-3,6.8-6.8,6.8H90.7c-3.7,0-6.8-3-6.8-6.8l0,0c0-3.7,3-6.8,6.8-6.8H413
		C416.6,331.8,419.6,334.9,419.6,338.6L419.6,338.6z"/>
	<path fill="none" stroke="#7A7B7D" d="M357.9,246.9c0,9.8-7.9,17.7-17.7,17.7H163.3c-9.8,0-17.7-7.9-17.7-17.7v-66
		c0-9.8,7.9-17.7,17.7-17.7h176.9c9.8,0,17.7,7.9,17.7,17.7V246.9z M346.2,180.9c0-3.3-2.7-5.9-5.9-5.9H163.3
		c-3.3,0-5.9,2.7-5.9,5.9v66c0,3.3,2.7,5.9,5.9,5.9h176.9c3.3,0,5.9-2.7,5.9-5.9V180.9z"/>
	<rect x="173.7" y="201.8" fill="#6D6E71" width="31.3" height="24"/>
	<path fill="#7A7B7D" d="M195.3,214c0,3.3-2.7,5.9-5.9,5.9s-5.9-2.7-5.9-5.9c0-3.3,2.7-5.9,5.9-5.9C192.6,208,195.3,210.6,195.3,214
		z"/>
	<rect x="204.9" y="201.8" fill="#6D6E71" width="31.3" height="24"/>
	<path fill="#7A7B7D" d="M226.6,214c0,3.3-2.7,5.9-5.9,5.9s-5.9-2.7-5.9-5.9c0-3.3,2.7-5.9,5.9-5.9S226.6,210.6,226.6,214z"/>
	<rect x="236.2" y="201.8" fill="#6D6E71" width="31.3" height="24"/>
	<path fill="#7A7B7D" d="M257.7,214c0,3.3-2.7,5.9-5.9,5.9s-5.9-2.7-5.9-5.9c0-3.3,2.7-5.9,5.9-5.9C255.1,208,257.7,210.6,257.7,214
		z"/>
	<rect x="267.4" y="201.8" fill="#6D6E71" width="31.3" height="24"/>
	<path fill="#7A7B7D" d="M288.9,214c0,3.3-2.7,5.9-5.9,5.9c-3.3,0-5.9-2.7-5.9-5.9c0-3.3,2.7-5.9,5.9-5.9S288.9,210.6,288.9,214z"/>
	<rect x="298.7" y="201.8" fill="#6D6E71" width="31.3" height="24"/>
	<path fill="#7A7B7D" d="M314.2,206.9c3.3,0,5.9-1.8,5.9-4h-11.9C308.3,205.2,311,206.9,314.2,206.9z"/>
	<path fill="#7A7B7D" d="M314.2,220.9c-3.3,0-5.9,1.7-5.9,4h11.9C320.2,222.8,317.5,220.9,314.2,220.9z"/>
	<rect x="308.7" y="332.5" fill="#454545" stroke="#454545" stroke-width="0.4583" width="93.6" height="26.6"/>
	<polyline fill="#506873" points="720,286.8 718.3,286.8 305.3,286.8 	"/>
	<path fill="#6D6E71" d="M720,527c25.9,0,28.7-32.8,31.7-51.5c5.1-31,8.1-62.8,8.1-94.3c0-30.5-3-61.2-7.6-91.4
		c-3.1-19.8-4.4-55-32.2-55h-1.7h-413c-27.9,0-29.1,35.2-32.2,55c-4.7,30.1-7.6,61-7.6,91.4c0,31.4,3,63.2,8.1,94.3
		c3.1,18.7,5.9,51.5,31.7,51.5c1.4,0,413,0,413,0H720z"/>
	<path fill="none" d="M720,527c25.9,0,28.7-32.8,31.7-51.5c5.1-31,8.1-62.8,8.1-94.3c0-30.5-3-61.2-7.6-91.4
		c-3.1-19.8-4.4-55-32.2-55h-1.7h-413c-27.9,0-29.1,35.2-32.2,55c-4.7,30.1-7.6,61-7.6,91.4c0,31.4,3,63.2,8.1,94.3
		c3.1,18.7,5.9,51.5,31.7,51.5c1.4,0,413,0,413,0H720z"/>
	<path fill="#7A7B7D" d="M488.2,271.3c-3.7,0-6.6-3-6.6-6.6c0-3.7,3-6.6,6.6-6.6s6.6,3,6.6,6.6C494.8,268.3,491.9,271.3,488.2,271.3
		z"/>
	<path fill="#7A7B7D" d="M501.5,263.8c-3,0-5.2-2.4-5.2-5.2c0-3,2.4-5.2,5.2-5.2c3,0,5.2,2.4,5.2,5.2
		C506.7,261.4,504.5,263.8,501.5,263.8z"/>
	<path fill="#7A7B7D" d="M512.5,258.3c-2.5,0-4.5-2-4.5-4.5c0-2.5,2-4.5,4.5-4.5c2.5,0,4.5,2,4.5,4.5S515.1,258.3,512.5,258.3z"/>
	<path fill="#7A7B7D" d="M522.6,255.3c-2.1,0-3.8-1.7-3.8-3.8c0-2.1,1.7-3.8,3.8-3.8s3.8,1.7,3.8,3.8
		C526.2,253.6,524.5,255.3,522.6,255.3z"/>
	<path fill="#7A7B7D" d="M531.7,254.6c-1.7,0-3-1.4-3-3c0-1.7,1.4-3,3-3c1.7,0,3,1.4,3,3S533.4,254.6,531.7,254.6z"/>
	<path fill="#7A7B7D" d="M539.1,256c-1.3,0-2.3-1-2.3-2.3s1-2.3,2.3-2.3c1.3,0,2.3,1,2.3,2.3C541.4,255,540.4,256,539.1,256z"/>
	<g>
		<rect x="347.8" y="282.6" fill="#7A7B7D" width="328" height="194.6"/>
		<rect x="347.8" y="282.6" fill="#7A7B7D" width="328" height="194.6"/>
	</g>
	<path fill="none" stroke="#515151" stroke-width="0.4" d="M512.7,443.4c-0.1,0-0.8,0-1.8,0l-47-0.8c-0.8,0-1.7-0.8-1.8-1.7
		c0,0-3.5-34.1-3.5-46c0-11.9,3.5-46,3.5-46c0.1-0.8,0.8-1.7,1.8-1.7l47-1c0.8,0,1.7,0,1.8,0c0.1,0,0.8,0,1.8,0l47,0.8
		c0.8,0,1.7,0.8,1.8,1.7c0,0,3.5,34.1,3.5,46s-3.5,46-3.5,46c-0.1,0.8-0.8,1.7-1.8,1.7l-47,0.8C513.6,443.4,512.8,443.4,512.7,443.4
		z"/>
	<path fill="none" stroke="#515151" stroke-width="0.4" d="M404.2,433.6c-0.1,0-0.7,0-1.4,0l-37.5-0.7c-0.7,0-1.4-0.6-1.4-1.3
		c0,0-2.8-27.3-2.8-36.8c0-9.5,2.8-36.8,2.8-36.8c0.1-0.7,0.7-1.3,1.4-1.4l37.5-0.7c0.7,0,1.4,0,1.4,0s0.7,0,1.4,0l37.5,0.7
		c0.7,0,1.4,0.6,1.4,1.4c0,0,2.8,27.3,2.8,36.8c0,9.5-2.8,36.8-2.8,36.8c-0.1,0.7-0.7,1.3-1.4,1.3l-37.5,0.7
		C404.9,433.6,404.3,433.6,404.2,433.6z"/>
	<path fill="none" stroke="#515151" stroke-width="0.4" d="M621.3,433.6c-0.1,0-0.7,0-1.4,0l-37.5-0.7c-0.7,0-1.4-0.6-1.4-1.3
		c0,0-2.8-27.3-2.8-36.8c0-9.5,2.8-36.8,2.8-36.8c0.1-0.7,0.7-1.3,1.4-1.4l37.5-0.7c0.7,0,1.4,0,1.4,0s0.7,0,1.4,0l37.5,0.7
		c0.7,0,1.4,0.6,1.4,1.4c0,0,2.8,27.3,2.8,36.8c0,9.5-2.8,36.8-2.8,36.8c-0.1,0.7-0.7,1.3-1.4,1.3l-37.5,0.7
		C622,433.6,621.3,433.6,621.3,433.6z"/>
	<path fill="#6D6E71" d="M480.3,379.6c7.8,0,9.3,8.1,9.3,14.1c0,5.8-1.7,14.1-9.3,14.1c-7.8,0-9.3-8.3-9.3-14.1
		C470.8,387.7,472.5,379.6,480.3,379.6z M480.3,404.5c5.1,0,5.7-7.4,5.7-10.9c0-3.8-0.6-10.9-5.7-10.9c-5.1,0-5.7,7.1-5.7,10.9
		C474.6,397.3,475,404.5,480.3,404.5z"/>
	<path fill="#6D6E71" d="M490.9,405.1c0-1.4,1.1-2.5,2.5-2.5c1.4,0,2.5,1.1,2.5,2.5c0,1.4-1.1,2.5-2.5,2.5
		C492,407.6,490.9,406.3,490.9,405.1z"/>
	<path fill="#6D6E71" d="M506.6,379.6c7.8,0,9.3,8.1,9.3,14.1c0,5.8-1.7,14.1-9.3,14.1c-7.8,0-9.3-8.3-9.3-14.1
		C497.1,387.7,498.8,379.6,506.6,379.6z M506.6,404.5c5.2,0,5.7-7.4,5.7-10.9c0-3.8-0.6-10.9-5.7-10.9c-5.1,0-5.7,7.1-5.7,10.9
		C500.8,397.3,501.3,404.5,506.6,404.5z"/>
	<path fill="#6D6E71" d="M518.6,403.4l10.9-10.9c1.6-1.4,3-3.4,3-5.5c0-2.7-2.1-4.4-4.7-4.4c-2.7,0-4.5,1.6-4.9,4.2l-4-0.4
		c0.7-4.8,4.2-7.1,9.1-7.1c4.7,0,8.6,2.5,8.6,7.5c0,3.5-2.3,6.2-4.8,8.5l-8.9,8.6h13.7v3.3h-17.8v-3.8H518.6z"/>
	<path fill="#6D6E71" d="M546.6,384.3l-4.9,4.7l-2.1-2.5l7.6-6.2h3.3v27.3h-3.7v-23.2H546.6z"/>
	<path fill="#6D6E71" d="M602.7,382c6.4,0,7.6,6.6,7.6,11.5c0,4.7-1.4,11.5-7.6,11.5c-6.4,0-7.6-6.8-7.6-11.5
		C595.1,388.6,596.5,382,602.7,382z M602.7,402.4c4.2,0,4.7-5.9,4.7-8.8c0-3.1-0.4-8.8-4.7-8.8s-4.7,5.8-4.7,8.8
		C598.2,396.4,598.6,402.4,602.7,402.4z"/>
	<path fill="#6D6E71" d="M613.6,402.6c0-1.1,1-2.1,2.1-2.1s2.1,1,2.1,2.1s-1,2.1-2.1,2.1C614.5,404.8,613.6,403.8,613.6,402.6z"/>
	<path fill="#6D6E71" d="M628.5,382c6.4,0,7.6,6.6,7.6,11.5c0,4.7-1.4,11.5-7.6,11.5c-6.4,0-7.6-6.8-7.6-11.5
		C620.8,388.6,622.1,382,628.5,382z M628.5,402.4c4.2,0,4.7-5.9,4.7-8.8c0-3.1-0.4-8.8-4.7-8.8c-4.2,0-4.7,5.8-4.7,8.8
		C623.8,396.4,624.2,402.4,628.5,402.4z"/>
	<path fill="#6D6E71" d="M645,385.8l-4.1,3.8l-1.7-2.1l6.2-5.1h2.7v22.2h-3v-18.8H645z"/>
	<path fill="#6D6E71" d="M375.8,401.4l8.9-8.8c1.3-1.1,2.4-2.7,2.4-4.5c0-2.3-1.7-3.5-3.8-3.5c-2.1,0-3.7,1.3-4.1,3.4l-3.3-0.3
		c0.6-4,3.5-5.8,7.4-5.8c3.8,0,6.9,2.1,6.9,6.1c0,3-1.8,4.9-3.8,6.9l-7.4,7.1h11.2v2.7h-14.6v-3.3H375.8z"/>
	<path fill="#6D6E71" d="M394.1,402.6c0-1.1,1-2.1,2.1-2.1c1.1,0,2.1,1,2.1,2.1s-1,2.1-2.1,2.1C395.1,404.8,394.1,403.8,394.1,402.6
		z"/>
	<path fill="#6D6E71" d="M415.6,385.3h-9.1l-0.1,5.5c0.6-0.3,2.3-0.4,3-0.4c4.1,0,6.9,3,6.9,7.4c0,4.4-3.5,7.4-7.8,7.4
		c-3,0-5.7-1.6-6.6-4.5l3-1c0.8,2,2.1,2.8,4.1,2.8c2.4,0,4.4-1.7,4.4-4.5c0-3.3-2.1-4.8-5.4-4.8c-1.1,0-3.1,0.4-4.5,1.1l0.3-11.7
		h11.9V385.3z"/>
	<path fill="#6D6E71" d="M428.1,396L428.1,396c-0.8,0.3-1.7,0.6-2.5,0.6c-3.3,0-6.9-2.1-6.9-7.1s3.4-7.5,7.6-7.5
		c4.1,0,7.6,2.8,7.6,7.1c0,2.7-0.8,4.4-2.3,6.5l-5.7,8.9h-3.5L428.1,396z M426.2,384.7c-2.7,0-4.7,2-4.7,4.7c0,2.7,1.8,4.7,4.7,4.7
		c2.7,0,4.7-2,4.7-4.7C430.9,386.5,429.1,384.7,426.2,384.7z"/>
	<path fill="none" stroke="#515151" stroke-width="0.4" d="M572.6,337.2c-0.1,0.4-0.6,0.7-1,0.7c-39.5-6.8-79.8-6.8-119.1,0
		c-0.4,0.1-0.8-0.3-1-0.7c-1.7-10-3.5-20.1-5.2-30c-0.1-0.4,0.3-0.8,0.7-1c43-7.4,87-7.4,130,0c0.4,0.1,0.8,0.6,0.7,1
		C576.2,317.2,574.3,327.1,572.6,337.2z"/>
	<path fill="#6D6E71" d="M533.4,326.6c-2.7-0.1-7.2-0.4-9.9-0.6c-20.4-0.7-40.7,0.6-61,3.7c-2.7,0.4-5.2-1.4-5.8-4.1
		c-0.6-3.1-1.1-6.2-1.6-9.3c-0.4-2.7,1.4-5.2,4.4-5.8c21.4-3.4,43-4.7,64.5-4c2.8,0.1,7.6,0.3,10.5,0.6L533.4,326.6z"/>
</g>
</svg>
