<?xml version="1.0" encoding="utf-8"?>
<!-- Generator: Adobe Illustrator 17.1.0, SVG Export Plug-In . SVG Version: 6.00 Build 0)  -->
<!DOCTYPE svg PUBLIC "-//W3C//DTD SVG 1.1//EN" "http://www.w3.org/Graphics/SVG/1.1/DTD/svg11.dtd">
<svg version="1.1" id="Layer_1" xmlns="http://www.w3.org/2000/svg" xmlns:xlink="http://www.w3.org/1999/xlink" x="0px" y="0px"
	 viewBox="0 0 333 259.3" enable-background="new 0 0 333 259.3" xml:space="preserve">
<g>
	<g>
		<circle fill="none" stroke="#2DB7EA" stroke-width="0.4155" cx="153.6" cy="72.6" r="60.7"/>
		<circle fill="none" stroke="#2DB7EA" stroke-width="0.7271" cx="153.6" cy="72.6" r="51.6"/>
		<circle fill="none" stroke="#2DB7EA" stroke-width="1.0388" cx="153.6" cy="72.6" r="42"/>
		<circle fill="none" stroke="#2DB7EA" stroke-width="1.3504" cx="153.6" cy="72.6" r="32.8"/>
		<circle fill="none" stroke="#2DB7EA" stroke-width="1.662" cx="153.6" cy="72.6" r="23.7"/>
	</g>
	<g>
		<g>
			<path fill="#F2F1F0" d="M153.6,205.1c0,5.3-4.6,9.9-9.9,9.9H22.2c-5.3,0-9.9-4.6-9.9-9.9V71c0-5.3,4.6-9.9,9.9-9.9h121.4
				c5.3,0,9.9,4.6,9.9,9.9L153.6,205.1L153.6,205.1z"/>
			<path fill="none" stroke="#464646" stroke-width="1.5236" d="M153.6,205.1c0,5.3-4.6,9.9-9.9,9.9H22.2c-5.3,0-9.9-4.6-9.9-9.9V71
				c0-5.3,4.6-9.9,9.9-9.9h121.4c5.3,0,9.9,4.6,9.9,9.9L153.6,205.1L153.6,205.1z"/>
		</g>
		<path fill="#464646" stroke="#464646" stroke-width="0.7617" d="M156.6,163.5c0,1.5-1.1,3.1-3.1,3.1H12.3c-1.5,0-3.1-1.1-3.1-3.1
			l0,0c0-1.5,1.1-3.1,3.1-3.1h141.3C155.5,160.8,156.6,161.9,156.6,163.5L156.6,163.5z"/>
		<g>
			<path fill="#F2F1F0" stroke="#526975" stroke-width="0.7617" d="M129.5,123.4c0,4.2-3.4,7.6-7.6,7.6H44.4c-4.2,0-7.6-3.4-7.6-7.6
				v-29c0-4.2,3.4-7.6,7.6-7.6h77.5c4.2,0,7.6,3.4,7.6,7.6V123.4z"/>
			<path fill="#F2F1F0" stroke="#526975" stroke-width="0.3809" d="M124.6,123.4c0,1.5-1.1,2.7-2.7,2.7H44.4c-1.5,0-2.7-1.1-2.7-2.7
				v-29c0-1.5,1.1-2.7,2.7-2.7h77.5c1.5,0,2.7,1.1,2.7,2.7V123.4z"/>
		</g>
		
			<linearGradient id="SVGID_1_" gradientUnits="userSpaceOnUse" x1="-142.2474" y1="285.6604" x2="-142.2474" y2="289.3839" gradientTransform="matrix(2.2975 0 0 -2.2975 409.9386 816.0463)">
			<stop  offset="0" style="stop-color:#FFFFFF"/>
			<stop  offset="1" style="stop-color:#171613"/>
		</linearGradient>
		<rect x="14.2" y="151.2" fill="url(#SVGID_1_)" width="137.8" height="8.4"/>
		<rect x="49" y="103.5" fill="#464646" stroke="#464646" stroke-width="0.3809" width="13.7" height="10.7"/>
		<circle fill="#F2F1F0" cx="55.4" cy="108.9" r="2.7"/>
		<rect x="62.3" y="103.5" fill="#464646" stroke="#464646" stroke-width="0.3809" width="13.7" height="10.7"/>
		<circle fill="#F2F1F0" cx="69.2" cy="108.9" r="2.7"/>
		<rect x="76.1" y="103.5" fill="#464646" stroke="#464646" stroke-width="0.3809" width="13.7" height="10.7"/>
		<circle fill="#F2F1F0" cx="82.9" cy="108.9" r="2.7"/>
		<rect x="89.8" y="103.5" fill="#464646" stroke="#464646" stroke-width="0.3809" width="13.7" height="10.7"/>
		<circle fill="#F2F1F0" cx="96.7" cy="108.9" r="2.7"/>
		<rect x="103.6" y="103.5" fill="#31B7EA" width="13.7" height="10.7"/>
		<path fill="#F2F1F0" d="M110.4,105.8c1.5,0,2.7-0.8,2.7-1.9h-5.3C107.8,105,108.9,105.8,110.4,105.8z"/>
		<path fill="#F2F1F0" d="M110.4,111.9c-1.5,0-2.7,0.8-2.7,1.9h5.3C113.1,112.7,112,111.9,110.4,111.9z"/>
		<rect x="62.3" y="184.1" fill="#464646" stroke="#464646" stroke-width="0.7617" width="41.2" height="11.8"/>
	</g>
	<g>
		<g>
			<polyline fill="#516973" points="305.2,142.5 304.4,142.5 123,142.5 			"/>
		</g>
		<path fill="#F2F1F0" d="M305.2,247.8c11.5,0,12.6-14.5,13.7-22.5c2.3-13.7,3.4-27.5,3.4-41.2c0-13.4-1.1-26.7-3.4-40.1
			c-1.5-8.8-1.9-24.1-14.1-24.1H304H123c-12.2,0-12.6,15.3-14.1,24.1c-1.9,13.4-3.4,26.7-3.4,40.1c0,13.7,1.1,27.9,3.4,41.2
			c1.5,8,2.7,22.5,13.7,22.5c0.8,0,181.4,0,181.4,0H305.2z"/>
		<path fill="none" stroke="#464646" stroke-width="1.662" d="M305.2,247.8c11.5,0,12.6-14.5,13.7-22.5c2.3-13.7,3.4-27.5,3.4-41.2
			c0-13.4-1.1-26.7-3.4-40.1c-1.5-8.8-1.9-24.1-14.1-24.1H304H123c-12.2,0-12.6,15.3-14.1,24.1c-1.9,13.4-3.4,26.7-3.4,40.1
			c0,13.7,1.1,27.9,3.4,41.2c1.5,8,2.7,22.5,13.7,22.5c0.8,0,181.4,0,181.4,0H305.2z"/>
		<g>
			<circle fill="#516973" cx="203.6" cy="132.5" r="3.1"/>
			<circle fill="#516973" cx="209.3" cy="129.9" r="2.3"/>
			<circle fill="#516973" cx="214.3" cy="127.9" r="1.9"/>
			<circle fill="#516973" cx="218.5" cy="126.8" r="1.5"/>
			<circle fill="#516973" cx="222.7" cy="126.8" r="1.1"/>
			<circle fill="#516973" cx="225.7" cy="127.9" r="1.1"/>
		</g>
		<g>
			<g>
				<rect x="141.7" y="140.5" fill="#31B7EA" width="144" height="85.5"/>
				<rect x="141.7" y="140.5" fill="none" stroke="#516973" stroke-width="0.831" width="144" height="85.5"/>
			</g>
		</g>
		<g>
			<path fill="none" stroke="#FFFFFF" stroke-width="0.6648" d="M214.3,211.2c0,0-1.9,0-4.6,0l-13-0.4c-2.3,0-4.6-2.3-5-4.6
				c0,0-1.1-11.1-1.1-16.4c0-5.3,1.1-16.4,1.1-16.4c0.4-2.3,2.3-4.6,5-4.6l13-0.4c2.3,0,4.6,0,4.6,0s1.9,0,4.6,0l13,0.4
				c2.3,0,4.6,2.3,5,4.6c0,0,1.1,11.5,1.1,16.4c0,5.3-1.1,16.4-1.1,16.4c-0.4,2.3-2.3,4.6-5,4.6l-13,0.4
				C216.2,211.2,214.3,211.2,214.3,211.2z"/>
		</g>
		<g>
			<path fill="none" stroke="#FFFFFF" stroke-width="0.6648" d="M166.5,207c0,0-1.5,0-3.4,0h-10.7c-1.9,0-3.8-1.5-3.8-3.4
				c0,0-0.8-9.2-0.8-13c0-4.2,0.8-13,0.8-13c0.4-1.9,1.9-3.4,3.8-3.8h10.7c1.9,0,3.4,0,3.4,0s1.5,0,3.4,0h10.7
				c1.9,0,3.8,1.5,3.8,3.8c0,0,0.8,9.2,0.8,13c0,4.2-0.8,13-0.8,13c-0.4,1.9-1.9,3.4-3.8,3.4H170C168.1,206.6,166.5,207,166.5,207z"
				/>
		</g>
		<g>
			<path fill="none" stroke="#FFFFFF" stroke-width="0.6648" d="M262,207c0,0-1.5,0-3.4,0h-10.7c-1.9,0-3.8-1.5-3.8-3.4
				c0,0-0.8-9.2-0.8-13c0-4.2,0.8-13,0.8-13c0.4-1.9,1.9-3.4,3.8-3.8h10.7c1.9,0,3.4,0,3.4,0s1.5,0,3.4,0h10.7
				c1.9,0,3.8,1.5,3.8,3.8c0,0,0.8,9.2,0.8,13c0,4.2-0.8,13-0.8,13c-0.4,1.9-1.9,3.4-3.8,3.4h-10.7C263.5,206.6,262,207,262,207z"/>
		</g>
		<g>
			<path fill="#F2F1F0" d="M200.1,182.9c3.4,0,4.2,3.4,4.2,6.1s-0.8,6.1-4.2,6.1c-3.4,0-4.2-3.8-4.2-6.1S196.7,182.9,200.1,182.9z
				 M200.1,194c2.3,0,2.7-3.1,2.7-4.6c0-1.5-0.4-4.6-2.7-4.6c-2.3,0-2.7,3.1-2.7,4.6C197.5,190.9,197.9,194,200.1,194z"/>
			<path fill="#F2F1F0" d="M204.7,194.4c0-0.8,0.4-1.1,1.1-1.1c0.8,0,1.1,0.4,1.1,1.1c0,0.8-0.4,1.1-1.1,1.1
				C205.1,195.5,204.7,194.8,204.7,194.4z"/>
			<path fill="#F2F1F0" d="M211.6,182.9c3.4,0,4.2,3.4,4.2,6.1s-0.8,6.1-4.2,6.1c-3.4,0-4.2-3.8-4.2-6.1S208.2,182.9,211.6,182.9z
				 M211.6,194c2.3,0,2.7-3.1,2.7-4.6c0-1.5-0.4-4.6-2.7-4.6c-2.3,0-2.7,3.1-2.7,4.6C208.9,190.9,209.3,194,211.6,194z"/>
			<path fill="#F2F1F0" d="M216.9,193.6l5-4.6c0.8-0.8,1.1-1.5,1.1-2.3c0-1.1-0.8-1.9-1.9-1.9s-1.9,0.8-2.3,1.9h-1.9
				c0.4-2.3,1.9-3.1,3.8-3.1c1.9,0,3.8,1.1,3.8,3.4c0,1.5-1.1,2.7-1.9,3.8l-3.8,3.8h6.1v1.5h-8L216.9,193.6L216.9,193.6z"/>
			<path fill="#F2F1F0" d="M229.2,185.2l-2.3,1.9l-0.8-1.1l3.4-2.7h1.5v11.8h-1.5v-9.9H229.2z"/>
		</g>
		<g>
			<path fill="#F2F1F0" d="M253.6,184.1c2.7,0,3.4,3.1,3.4,5s-0.8,5-3.4,5c-2.7,0-3.4-3.1-3.4-5
				C250.5,187.1,250.9,184.1,253.6,184.1z M253.6,193.2c1.9,0,1.9-2.7,1.9-3.8c0-1.5-0.4-3.8-1.9-3.8c-1.9,0-1.9,2.7-1.9,3.8
				S252.1,193.2,253.6,193.2z"/>
			<path fill="#F2F1F0" d="M258.6,193.2c0-0.4,0.4-0.8,0.8-0.8s0.8,0.4,0.8,0.8c0,0.4-0.4,0.8-0.8,0.8
				C258.9,194,258.6,193.6,258.6,193.2z"/>
			<path fill="#F2F1F0" d="M265.1,184.1c2.7,0,3.4,3.1,3.4,5s-0.8,5-3.4,5c-2.7,0-3.4-3.1-3.4-5
				C261.6,187.1,262.4,184.1,265.1,184.1z M265.1,193.2c1.9,0,1.9-2.7,1.9-3.8c0-1.5-0.4-3.8-1.9-3.8c-1.9,0-1.9,2.7-1.9,3.8
				S263.1,193.2,265.1,193.2z"/>
			<path fill="#F2F1F0" d="M272.3,186l-1.9,1.5l-0.8-0.8l2.7-2.3h1.1v9.5h-1.1V186z"/>
		</g>
		<g>
			<path fill="#F2F1F0" d="M154.3,192.9l3.8-3.8c0.4-0.4,1.1-1.1,1.1-1.9c0-1.1-0.8-1.5-1.5-1.5c-0.8,0-1.5,0.8-1.9,1.5h-1.5
				c0.4-1.9,1.5-2.7,3.1-2.7c1.5,0,3.1,0.8,3.1,2.7c0,1.1-0.8,2.3-1.5,3.1l-3.4,2.7h5v1.1h-6.5v-1.1H154.3z"/>
			<path fill="#F2F1F0" d="M162.3,193.2c0-0.4,0.4-0.8,0.8-0.8s0.8,0.4,0.8,0.8c0,0.4-0.4,0.8-0.8,0.8
				C162.7,194,162.3,193.6,162.3,193.2z"/>
			<path fill="#F2F1F0" d="M171.5,185.6h-3.8v2.3c0.4,0,1.1-0.4,1.1-0.4c1.9,0,3.1,1.1,3.1,3.1c0,1.9-1.5,3.1-3.4,3.1
				c-1.1,0-2.3-0.8-3.1-1.9l1.1-0.4c0.4,0.8,0.8,1.1,1.9,1.1s1.9-0.8,1.9-1.9c0-1.5-1.1-2.3-2.3-2.3c-0.4,0-1.5,0-1.9,0.4v-5h5.3
				L171.5,185.6L171.5,185.6z"/>
			<path fill="#F2F1F0" d="M177.2,190.2L177.2,190.2c-0.4,0-0.8,0.4-1.1,0.4c-1.5,0-3.1-0.8-3.1-3.1c0-2.3,1.5-3.4,3.4-3.4
				c1.9,0,3.4,1.1,3.4,3.1c0,1.1-0.4,1.9-1.1,3.1l-2.3,3.8h-1.5L177.2,190.2z M176.5,185.2c-1.1,0-1.9,0.8-1.9,1.9
				c0,1.1,0.8,1.9,1.9,1.9s1.9-0.8,1.9-1.9C178.4,186,177.6,185.2,176.5,185.2z"/>
		</g>
		<g>
			<path fill="none" stroke="#FFFFFF" stroke-width="0.6648" d="M241,162.7c-0.4,1.1-1.5,1.9-2.7,1.9c-16-2.7-32.5-2.7-48.5,0
				c-1.1,0-2.3-0.8-2.7-1.9c-0.4-3.1-1.1-6.5-1.5-9.5c-0.4-1.1,0.8-2.3,1.9-2.7c17.6-2.7,35.5-2.7,53.1,0c1.1,0.4,2.3,1.5,1.9,2.7
				C241.8,156.2,241.4,159.6,241,162.7z"/>
		</g>
		<path fill="#F2F1F0" d="M223.4,160c-1.1,0-3.1,0-4.2-0.4c-8.8-0.4-17.9,0.4-26.7,1.5c-1.1,0-2.3-0.8-2.7-1.9
			c-0.4-1.5-0.4-2.7-0.8-4.2c-0.4-1.1,0.8-2.3,1.9-2.7c9.5-1.5,18.7-1.9,28.3-1.9c1.1,0,3.4,0,4.6,0.4L223.4,160z"/>
	</g>
</g>
</svg>
