<?xml version="1.0" encoding="utf-8"?>
<!-- Generator: Adobe Illustrator 17.1.0, SVG Export Plug-In . SVG Version: 6.00 Build 0)  -->
<!DOCTYPE svg PUBLIC "-//W3C//DTD SVG 1.1//EN" "http://www.w3.org/Graphics/SVG/1.1/DTD/svg11.dtd">
<svg version="1.1" id="Layer_1" xmlns="http://www.w3.org/2000/svg" xmlns:xlink="http://www.w3.org/1999/xlink" x="0px" y="0px"
	 viewBox="0 0 850 567" enable-background="new 0 0 850 567" xml:space="preserve">
<g>
	<polygon fill-rule="evenodd" clip-rule="evenodd" fill="#00933B" points="281.3,507.6 281.3,352.8 281.3,352.8 281.3,353.5 
		279.6,355 274.7,348 287.4,338 287.4,323.7 297.2,323.7 297.2,330.4 305.7,323.7 305.8,323.7 305.8,323.7 305.9,323.8 336.9,347.9 
		332,355 330.2,353.5 330.2,507.6 	"/>
	<path fill="#FFFFFF" d="M321.2,499.8h-6.7l-2.7-6.9h-6.2v-5.1h4.2l-4.2-11.2v-7.2h3.3L321.2,499.8z M305.6,492.9h-6.1l-2.5,6.9
		h-6.6l11.9-30.4h3.2v7.2l0-0.1l-4.1,11.3h4.2V492.9z"/>
</g>
<g>
	<polygon fill-rule="evenodd" clip-rule="evenodd" fill="#06A85D" points="356.2,507.6 356.2,319.3 354.7,320.6 349.8,313.5 
		362.5,303.6 362.5,289.3 372.3,289.3 372.3,296 380.1,289.8 380.6,289.3 380.7,289.4 380.8,289.3 412,313.5 407.1,320.6 405.3,319 
		405.3,347.8 405.2,347.8 405.6,507.3 	"/>
	<path fill="#FFFFFF" d="M380.2,469.4L380.2,469.4c2.5,0,4.3,0.1,5.5,0.3c1.2,0.2,2.3,0.6,3.2,1.3c0.9,0.6,1.7,1.5,2.3,2.5
		c0.6,1.1,0.9,2.2,0.9,3.6c0,1.4-0.4,2.7-1.2,3.9c-0.8,1.2-1.8,2.1-3.1,2.7c1.9,0.5,3.3,1.5,4.3,2.8c1,1.3,1.5,2.8,1.5,4.6
		c0,1.4-0.3,2.7-1,4c-0.6,1.3-1.5,2.3-2.7,3.1c-1.1,0.8-2.5,1.3-4.2,1.4c-0.9,0.1-2.8,0.2-5.7,0.2v-5.1c2.1,0,3.4-0.1,4-0.2
		c0.9-0.2,1.7-0.6,2.2-1.2c0.6-0.6,0.9-1.5,0.9-2.6c0-0.9-0.2-1.7-0.7-2.3c-0.5-0.6-1.1-1.1-1.9-1.4c-0.7-0.3-2.2-0.4-4.5-0.4v-5.1
		c1.3,0,2.2,0,2.6-0.1c1.1-0.1,1.9-0.5,2.5-1.1c0.6-0.6,0.9-1.4,0.9-2.4c0-0.9-0.3-1.7-0.8-2.3c-0.5-0.6-1.3-0.9-2.3-1.1
		c-0.4,0-1.4-0.1-2.9-0.1V469.4z M368,469.4h12.2v5.1c-0.7,0-1.5,0-2.4,0h-3.6v7h4.1c0.7,0,1.4,0,1.9,0v5.1c-0.3,0-0.6,0-1,0h-5v8.1
		h5.7l0.3,0v5.1c-0.5,0-1.1,0-1.7,0H368V469.4z"/>
</g>
<g>
	<polygon fill-rule="evenodd" clip-rule="evenodd" fill="#8ABD09" points="431.5,507.6 431.5,317.6 431.5,317.6 431.5,289 
		429.7,290.5 424.9,283.4 437.5,273.5 437.5,259.2 447.4,259.2 447.4,265.9 455.9,259.1 456,259.2 456,259.1 456.1,259.3 
		487.1,283.4 482.2,290.5 480.4,288.9 480.4,507.6 	"/>
	<path fill="#FFFFFF" d="M463.3,488.1l6,1.9c-0.9,3.3-2.4,5.8-4.6,7.4c-2.1,1.6-4.9,2.4-8.1,2.4c-4.1,0-7.4-1.4-10-4.1
		c-2.6-2.8-3.9-6.5-3.9-11.3c0-5.1,1.3-9,4-11.8c2.6-2.8,6.1-4.2,10.4-4.2c3.7,0,6.8,1.1,9.1,3.3c1.4,1.3,2.4,3.2,3.1,5.6l-6.1,1.5
		c-0.4-1.6-1.1-2.8-2.3-3.7c-1.1-0.9-2.5-1.4-4.2-1.4c-2.3,0-4.1,0.8-5.5,2.4c-1.4,1.6-2.1,4.2-2.1,7.9c0,3.8,0.7,6.6,2.1,8.2
		c1.4,1.6,3.2,2.4,5.4,2.4c1.6,0,3.1-0.5,4.2-1.6C462,491.9,462.8,490.3,463.3,488.1z"/>
</g>
<g>
	<polygon fill-rule="evenodd" clip-rule="evenodd" fill="#FCE80F" points="506.6,507.6 506.6,280.4 506.6,280.4 506.6,251.7 
		504.8,253.2 500,246.2 512.6,236.2 512.6,221.9 522.5,221.9 522.5,228.6 531,221.9 531,221.9 531.1,221.9 531.2,222 562.2,246.2 
		557.3,253.2 555.5,251.7 555.5,507.6 	"/>
	<path fill="#FFFFFF" d="M531,469.4c1.9,0.1,3.3,0.2,4.4,0.6c1.8,0.5,3.3,1.5,4.6,2.8c1.3,1.3,2.3,3,2.9,4.9c0.7,1.9,1,4.3,1,7.2
		c0,2.5-0.3,4.7-0.9,6.5c-0.8,2.2-1.9,4-3.3,5.4c-1.1,1-2.5,1.8-4.3,2.4c-1.1,0.4-2.6,0.6-4.4,0.6v-5.2c0.8,0,1.4-0.1,1.8-0.2
		c1-0.2,1.8-0.7,2.5-1.3c0.7-0.6,1.2-1.6,1.6-2.9c0.4-1.4,0.6-3.2,0.6-5.6c0-2.3-0.2-4.1-0.6-5.4c-0.4-1.3-1-2.2-1.8-2.9
		c-0.8-0.7-1.7-1.2-2.9-1.4c-0.3-0.1-0.8-0.1-1.3-0.2V469.4z M518.2,469.4h11.3c0.5,0,1,0,1.4,0v5.2c-0.9-0.1-2.2-0.1-3.8-0.1h-2.8
		v20.1h4.6c0.7,0,1.4,0,1.9-0.1v5.2c-0.4,0-0.7,0-1.1,0h-11.6V469.4z"/>
</g>
<g>
	<polygon fill-rule="evenodd" clip-rule="evenodd" fill="#F9B71B" points="581.7,507.6 581.7,247.7 581.7,247.7 581.7,219.1 
		579.9,220.5 575,213.5 587.7,203.5 587.7,189.2 597.6,189.2 597.6,195.9 606.1,189.2 606.1,189.2 606.2,189.2 606.2,189.3 
		637.3,213.5 632.4,220.5 630.6,219 630.6,507.6 	"/>
	<polygon fill="#FFFFFF" points="594.5,499.8 594.5,469.4 617.2,469.4 617.2,474.5 600.7,474.5 600.7,481.3 616.1,481.3 
		616.1,486.4 600.7,486.4 600.7,494.7 617.8,494.7 617.8,499.8 	"/>
</g>
<g>
	<polygon fill-rule="evenodd" clip-rule="evenodd" fill="#F08304" points="656.8,507.6 656.8,216.4 656.8,216.4 656.8,187.8 
		655,189.2 650.1,182.2 662.8,172.3 662.8,157.9 672.7,157.9 672.7,164.6 681.2,157.9 681.2,158 681.3,157.9 681.3,158 712.4,182.2 
		707.5,189.2 705.7,187.7 705.7,216.4 705.7,507.6 	"/>
	<polygon fill="#FFFFFF" points="670.7,499.8 670.7,469.4 691.8,469.4 691.8,474.5 676.9,474.5 676.9,481.7 689.7,481.7 
		689.7,486.9 676.9,486.9 676.9,499.8 	"/>
</g>
<g>
	<polygon fill-rule="evenodd" clip-rule="evenodd" fill="#E20E1C" points="731.9,507.7 731.9,181.7 731.9,181.7 731.9,153.1 
		730.1,154.5 725.2,147.5 737.9,137.6 737.9,123.2 747.8,123.2 747.8,129.9 756.3,123.2 756.3,123.3 756.3,123.2 756.4,123.3 
		787.5,147.5 782.6,154.5 780.8,153 780.8,181.7 780.8,507.7 	"/>
	<path fill="#FFFFFF" d="M757.3,488.1V483h13.3v12.1c-1.3,1.2-3.2,2.3-5.6,3.3c-2.5,0.9-5,1.4-7.5,1.4c-3.2,0-6-0.7-8.4-2
		c-2.4-1.3-4.2-3.2-5.4-5.7c-1.2-2.5-1.8-5.2-1.8-8.1c0-3.2,0.7-6,2-8.4c1.3-2.5,3.3-4.3,5.9-5.7c2-1,4.4-1.5,7.3-1.5
		c3.8,0,6.8,0.8,8.9,2.4c2.1,1.6,3.5,3.8,4.1,6.6l-6.1,1.1c-0.4-1.5-1.2-2.7-2.4-3.5c-1.2-0.9-2.7-1.3-4.5-1.3
		c-2.7,0-4.9,0.8-6.5,2.5c-1.6,1.7-2.4,4.2-2.4,7.6c0,3.6,0.8,6.3,2.4,8.1c1.6,1.8,3.7,2.7,6.4,2.7c1.3,0,2.6-0.3,3.9-0.8
		c1.3-0.5,2.4-1.1,3.4-1.8v-3.9H757.3z"/>
</g>
</svg>
